<svg width="24" height="24" viewBox="0 0 24 24" fill="none" xmlns="http://www.w3.org/2000/svg">
<path d="M10.9687 2.01077C9.21089 2.39515 7.79526 3.75452 7.32651 5.50765C7.2187 5.91546 7.20464 6.07015 7.19995 6.70296C7.19995 7.31702 7.2187 7.49515 7.30776 7.84671C7.66401 9.22015 8.50776 10.317 9.71714 10.9686C11.1234 11.728 12.9234 11.7186 14.3296 10.9451C16.5656 9.71702 17.4515 6.91859 16.3359 4.60765C15.7359 3.36546 14.6906 2.49359 13.3125 2.0764C12.764 1.91234 11.5781 1.87484 10.9687 2.01077ZM12.689 2.9764C14.1093 3.24827 15.2156 4.2514 15.6656 5.67171C15.7593 5.97171 15.7734 6.12171 15.7734 6.70296C15.7734 7.48577 15.7125 7.76702 15.4218 8.37171C15.0421 9.15921 14.4609 9.73577 13.664 10.1248C13.0312 10.4295 12.6656 10.5186 12 10.5186C11.3343 10.5186 10.9687 10.4295 10.3359 10.1248C9.37495 9.66077 8.71401 8.89671 8.36245 7.8514C8.18433 7.30296 8.15151 6.42171 8.29214 5.85921C8.58745 4.67796 9.34683 3.75452 10.4203 3.25765C11.1421 2.92484 11.9156 2.83109 12.689 2.9764Z" fill="#455A64"/>
<path d="M9.79683 12.5389C5.92495 13.0686 2.85933 15.9467 2.0812 19.767C1.9687 20.3295 1.87495 21.4264 1.91245 21.7124C1.94058 21.8905 2.12339 22.0592 2.33433 22.0967C2.42808 22.1108 6.80151 22.1249 12.0468 22.1202C19.3125 22.1202 21.6234 22.1061 21.7453 22.0639C22.0359 21.9608 22.0921 21.8249 22.0828 21.2483C22.064 20.0155 21.7265 18.6514 21.1546 17.5124C19.7812 14.7749 17.2031 12.9327 14.189 12.5389C13.4765 12.4499 10.4718 12.4452 9.79683 12.5389ZM13.739 13.4999C15.6843 13.6967 17.3531 14.4842 18.7031 15.8389C19.4062 16.5467 19.8187 17.1139 20.2265 17.9295C20.6859 18.853 20.9765 19.8327 21.0703 20.7749L21.1031 21.0936H12H2.89683L2.92964 20.7749C3.02339 19.8327 3.31401 18.853 3.77339 17.9295C4.1812 17.1139 4.5937 16.5467 5.29683 15.8389C6.6187 14.5124 8.32026 13.7014 10.1953 13.5045C10.7484 13.4483 13.1765 13.4436 13.739 13.4999Z" fill="#455A64"/>
</svg>
