<svg width="36" height="36" viewBox="0 0 36 36" fill="none" xmlns="http://www.w3.org/2000/svg">
<path d="M2.88281 1.63125C2.3625 1.83516 1.82813 2.36953 1.63125 2.90391L1.47656 3.31172V18C1.47656 32.5969 1.47656 32.6953 1.61719 33.075C1.80703 33.5813 2.23594 34.0523 2.72813 34.2914L3.12891 34.4883H13.8867H24.6445L24.9961 34.3125C25.4602 34.0875 25.8469 33.6797 26.0789 33.1945L26.2617 32.8008L26.2828 25.4109L26.2969 18.0211L26.9859 17.9789C29.7844 17.8172 32.5055 15.9188 33.75 13.275C35.2336 10.1109 34.5727 6.37032 32.0977 3.90235C30.3961 2.19375 28.2586 1.37813 25.8117 1.50469C25.2844 1.53282 24.8273 1.54688 24.7852 1.53985C24.75 1.53282 19.8914 1.51875 13.9922 1.50469L3.26953 1.4836L2.88281 1.63125ZM27.7031 3.19922C28.9828 3.50157 30.0586 4.10625 30.9797 5.02032C33.6445 7.68516 33.6023 11.9672 30.8953 14.5617C30.0305 15.3844 29.2148 15.8555 28.0195 16.2141C27.443 16.3898 27.2813 16.4039 26.2617 16.4109C24.9258 16.4109 24.4125 16.2984 23.3086 15.757C21.9586 15.0891 20.9109 14.0414 20.25 12.6914C19.7086 11.6016 19.5891 11.0742 19.5891 9.77344C19.5891 8.64844 19.6453 8.28985 19.9758 7.39688C20.693 5.44219 22.507 3.79688 24.525 3.26953C25.5586 3.00235 26.7609 2.98125 27.7031 3.19922ZM9.64688 6.89063C10.2867 7.08047 10.9266 7.72735 11.1234 8.38828C11.1797 8.5711 11.2148 9.1125 11.2148 9.8086C11.2148 10.8703 11.2008 10.9547 11.025 11.3273C10.7789 11.8617 10.4063 12.2625 9.92813 12.4945C9.53438 12.6844 9.49922 12.6914 8.29688 12.6914C7.24922 12.6914 7.01719 12.6703 6.71484 12.5578C6.25781 12.375 5.68125 11.8336 5.47734 11.3695C5.32266 11.032 5.30859 10.9195 5.30859 9.73828C5.30859 8.59219 5.32266 8.44453 5.45625 8.14922C5.77266 7.46719 6.44063 6.94688 7.16484 6.81328C7.58672 6.73594 9.31641 6.79219 9.64688 6.89063ZM18 9.73828V10.4836L15.6023 10.4625L13.2047 10.4414L13.0008 10.2094C12.6422 9.8086 12.7969 9.225 13.3102 9.07735C13.4367 9.04219 14.5406 9.00703 15.7711 9.00703L18 9V9.73828ZM9.95625 15.2719C10.4273 15.518 10.9266 16.0805 11.0883 16.5445C11.2711 17.0719 11.2711 18.9281 11.0883 19.4555C10.9266 19.9195 10.4273 20.482 9.95625 20.7281C9.61875 20.9039 9.53438 20.918 8.42344 20.9391C7.05234 20.9672 6.70078 20.8969 6.15234 20.475C5.89922 20.2852 5.73047 20.0742 5.55469 19.7297L5.30859 19.2445V18.007V16.7695L5.54063 16.2984C5.80078 15.7641 6.19453 15.3984 6.72891 15.1805C7.02422 15.0609 7.22109 15.0469 8.33203 15.068C9.55547 15.082 9.61172 15.0891 9.95625 15.2719ZM22.2258 17.5008C22.3875 17.6625 22.4297 17.768 22.4297 18C22.4297 18.232 22.3875 18.3375 22.2258 18.4992L22.0219 18.7031H17.6906C14.4844 18.7031 13.3172 18.682 13.1836 18.6188C12.8461 18.4641 12.7055 18 12.8953 17.6555C13.0922 17.2969 13.0148 17.3039 17.6695 17.2969H22.0219L22.2258 17.5008ZM9.85781 23.4633C10.35 23.6883 10.7789 24.1242 11.0109 24.6305C11.2008 25.0523 11.2078 25.1086 11.2148 26.1914C11.2148 26.8875 11.1797 27.4289 11.1234 27.6117C10.9266 28.2797 10.2797 28.9266 9.61172 29.1234C9.42891 29.1797 8.88047 29.2148 8.19141 29.2148C7.12266 29.2148 7.04531 29.2078 6.67266 29.032C6.13828 28.7789 5.7375 28.4063 5.50547 27.9281C5.31563 27.5344 5.30859 27.4992 5.30859 26.2969C5.30859 24.8555 5.37891 24.5813 5.89922 24.0258C6.49688 23.3859 6.86953 23.2734 8.40234 23.2945C9.37969 23.3086 9.56953 23.3297 9.85781 23.4633ZM21.9586 25.5867C22.6266 25.8398 22.5703 26.7328 21.8813 26.9297C21.5297 27.0281 13.6969 27.0281 13.3453 26.9297C13.0219 26.8383 12.7969 26.5641 12.7969 26.2617C12.7969 26.0086 13.0148 25.6852 13.2469 25.5938C13.4508 25.5094 21.7406 25.5094 21.9586 25.5867Z" fill="#095FBA"/>
<path d="M25.8187 3.83926C25.4602 4.08535 25.4531 4.1627 25.4531 6.92598V9.49941L24.5391 10.7791C23.7023 11.9463 23.625 12.0799 23.625 12.3611C23.625 12.5299 23.6602 12.7268 23.6953 12.8041C23.8641 13.1135 24.4969 13.2541 24.8062 13.0361C24.8906 12.9799 25.418 12.2908 25.9805 11.5033L27 10.076V7.14395C27 5.2666 26.9719 4.1627 26.9297 4.07129C26.7609 3.76191 26.1281 3.62129 25.8187 3.83926Z" fill="#095FBA"/>
<path d="M7.0875 8.33906C6.98203 8.39531 6.8625 8.50078 6.82031 8.57813C6.78516 8.64844 6.75 9.18281 6.75 9.77344V10.8422L6.95391 11.0461L7.15781 11.25H8.22656C8.82422 11.25 9.35156 11.2148 9.42891 11.1797C9.71016 11.025 9.77344 10.7508 9.77344 9.69609V8.70469L9.53437 8.46563L9.29531 8.22656H8.28984C7.53047 8.23359 7.22812 8.26172 7.0875 8.33906Z" fill="#095FBA"/>
<path d="M7.24219 16.5022C7.18594 16.5233 7.05234 16.6218 6.94687 16.7202L6.75 16.903V17.9999V19.0968L6.96797 19.3077C7.17891 19.5116 7.18594 19.5116 8.13516 19.5327C9.16875 19.5608 9.40078 19.5116 9.63281 19.2093C9.75937 19.0546 9.77344 18.921 9.77344 18.0069C9.77344 16.8819 9.73828 16.7554 9.35156 16.5585C9.19687 16.4811 8.91562 16.453 8.24766 16.46C7.75547 16.46 7.29844 16.4811 7.24219 16.5022Z" fill="#095FBA"/>
<path d="M6.95391 24.9539L6.75 25.1578V26.2266C6.75 26.8242 6.78516 27.3516 6.82031 27.4289C6.975 27.7102 7.24922 27.7734 8.30391 27.7734H9.29531L9.53437 27.5344L9.77344 27.2953V26.3039C9.77344 25.2492 9.71016 24.975 9.42891 24.8203C9.35156 24.7852 8.82422 24.75 8.22656 24.75H7.15781L6.95391 24.9539Z" fill="#095FBA"/>
</svg>
