<svg width="36" height="36" viewBox="0 0 36 36" fill="none" xmlns="http://www.w3.org/2000/svg">
<path d="M14.78 1.59508C11.3558 2.21383 8.71205 4.87868 8.1144 8.31696C7.97377 9.11149 8.01596 10.581 8.19174 11.4037C8.6769 13.6045 9.69643 15.4818 11.2644 17.0568C11.7214 17.5138 12.0871 17.9006 12.08 17.9076C12.066 17.9216 11.7917 18.0623 11.4613 18.224C10.4628 18.7232 6.41283 20.8818 5.62533 21.3388C4.05033 22.2388 3.40346 22.7591 2.7144 23.6662C1.9269 24.6927 1.5683 25.6068 1.30111 27.224C1.17455 28.0256 1.15346 31.3865 1.27299 32.0474C1.48393 33.2146 2.38393 34.2131 3.58627 34.6068C4.03627 34.7615 4.11361 34.7615 8.36752 34.7545C16.2285 34.7404 27.0496 34.5013 28.1746 34.3256C29.1308 34.1709 30.0027 33.5099 30.4597 32.5888C30.6847 32.1248 30.6917 32.0966 30.6917 31.1896V30.2685L31.0152 30.1841C32.4636 29.8115 33.8207 28.5881 34.4042 27.1326C35.5925 24.1724 33.9472 20.9591 30.9027 20.2982C30.6706 20.249 30.291 20.1576 30.0589 20.0943C29.2433 19.8763 27.8089 19.9959 27.1058 20.3474C26.9511 20.4248 26.6206 20.6287 26.3746 20.8045L25.9246 21.1138L25.6363 20.8396C24.4621 19.7076 22.1277 18.4138 20.3417 17.9006C20.2925 17.8865 20.6089 17.5209 21.0519 17.0849C22.2824 15.8545 23.2246 14.3146 23.7941 12.592C24.5675 10.2646 24.4902 8.21149 23.548 6.20758C22.4019 3.75368 20.1871 2.07321 17.48 1.59508C16.7347 1.46852 15.4902 1.46852 14.78 1.59508ZM17.0581 3.04352C19.3222 3.35993 21.4105 4.87165 22.4511 6.93883C23.6746 9.38571 23.1964 12.8591 21.2206 15.8052C20.0253 17.5982 18.4433 18.7584 16.7558 19.1029C16.2074 19.2154 16.1371 19.2154 15.5956 19.1029C12.6144 18.4982 9.98471 15.2498 9.30971 11.3334C9.15502 10.4404 9.20424 9.06227 9.42221 8.27477C9.94955 6.32008 11.2996 4.63258 13.0503 3.74664C14.3581 3.08571 15.6941 2.85368 17.0581 3.04352ZM20.5878 18.5896C20.9253 18.9131 21.3402 19.2857 21.516 19.4263L21.8253 19.6795L21.4808 20.1646C21.0449 20.7904 20.0535 21.7748 19.5191 22.1263C18.9988 22.4638 18.1972 22.8013 17.5081 22.9771C16.7558 23.167 15.3003 23.1529 14.5199 22.949C12.9519 22.5271 11.5175 21.4443 10.505 19.9256L10.1675 19.4052L10.3222 19.2927C10.4066 19.2224 10.8777 18.9201 11.3628 18.6107L12.2558 18.0552L13.0011 18.449C14.105 19.0326 14.7449 19.2154 15.8558 19.2576C17.2972 19.3138 18.4996 19.0115 19.4839 18.3365C19.73 18.1607 19.941 18.0201 19.955 18.0201C19.9691 18.0131 20.2574 18.2732 20.5878 18.5896ZM10.3644 20.6287C11.0464 22.5904 12.8675 24.0529 15.1738 24.4888C15.7996 24.6084 17.1988 24.531 17.8456 24.3482C19.955 23.7365 21.5089 22.2248 22.1136 20.1998L22.2402 19.7849L22.7042 20.0732C23.2738 20.4177 24.5535 21.0365 25.1722 21.2545C25.4253 21.3388 25.6433 21.4232 25.6574 21.4302C25.6714 21.4443 25.5238 21.6482 25.3339 21.8943C25.1371 22.1404 24.9121 22.4709 24.8347 22.6256C24.4269 23.4271 24.2441 24.749 24.3917 25.8388C24.5605 27.0904 25.0597 28.117 25.9105 28.9466C26.5081 29.5302 26.9933 29.8396 27.823 30.1279C28.4066 30.3388 28.498 30.3529 29.4824 30.3529H30.516V30.5638C30.5089 31.0841 30.3613 31.8295 30.1996 32.167C29.8339 32.9474 29.0253 33.531 28.2097 33.6013C27.9917 33.6224 26.2761 33.5873 24.3988 33.524C22.2894 33.4537 17.7964 33.3974 12.6214 33.3693C3.15033 33.3131 3.8394 33.3623 3.20658 32.7506C2.53861 32.0966 2.46127 31.731 2.46127 29.1998C2.46127 27.2591 2.46127 27.231 2.66518 26.4224C2.89721 25.5154 3.29096 24.6998 3.82533 23.9966C4.43705 23.2021 5.09799 22.6959 7.62924 21.0506L10.0902 19.4474L10.1464 19.792C10.1746 19.9818 10.273 20.3615 10.3644 20.6287ZM31.3386 20.8959C31.8519 21.142 32.0628 21.2966 32.555 21.8029C33.4972 22.7521 33.905 23.6943 33.9121 24.9037C33.9121 26.8232 32.6605 28.6091 30.9308 29.1576C29.8831 29.4881 28.9621 29.4599 27.9847 29.0732C26.6136 28.5248 25.6925 27.4912 25.341 26.099C25.2003 25.5365 25.2425 24.7209 25.4464 24.0599C25.5941 23.5818 26.0371 22.7873 26.3886 22.3724C27.148 21.4654 28.4277 20.7974 29.7496 20.6146C30.4105 20.5232 30.6566 20.5724 31.3386 20.8959Z" fill="#095FBA"/>
<path d="M29.4051 22.3513C29.2223 23.0263 29.1098 23.7084 29.1098 24.1443V24.4748L28.8145 24.5099C28.6457 24.531 28.3082 24.5662 28.0551 24.5873C27.6121 24.6224 26.6629 24.8474 26.452 24.967C26.241 25.0865 27.5559 25.424 28.5403 25.5084C29.0535 25.5506 29.1098 25.5717 29.1098 25.7052C29.1168 26.4506 29.4613 28.2084 29.602 28.2084C29.7637 28.2084 30.0942 26.7037 30.0942 25.9865C30.0942 25.6771 30.1223 25.5365 30.1856 25.5365C30.9871 25.5154 32.7098 25.192 32.8012 25.0443C32.8926 24.9037 31.0434 24.4818 30.3262 24.4818H30.0942V24.0318C30.0942 23.3146 29.7637 21.8099 29.602 21.8099C29.5738 21.8099 29.4824 22.056 29.4051 22.3513Z" fill="#095FBA"/>
</svg>
