<svg width="36" height="36" viewBox="0 0 36 36" fill="none" xmlns="http://www.w3.org/2000/svg">
<g clip-path="url(#clip0_33_3175)">
<path d="M4.66875 0.0984027C4.00078 0.393715 3.58594 1.06872 3.58594 1.87731V2.39059H2.52422C1.9125 2.39059 1.34297 2.42575 1.18125 2.47496C0.822656 2.58043 0.330469 3.01637 0.147656 3.39606L0 3.6984V16.7906C0 27.7453 0.0140625 29.925 0.0984375 30.1218C0.246094 30.4804 0.632812 30.8742 1.01953 31.05L1.37109 31.2187H9.24609L17.1211 31.2257L17.4375 31.6968C17.8875 32.3718 19.3219 33.7851 20.0391 34.2562C21.1852 35.0156 22.4367 35.5429 23.7656 35.8312C24.6164 36.0211 26.9789 36.0211 27.8437 35.8382C29.8195 35.4164 31.4578 34.5445 32.9133 33.1382C34.425 31.6757 35.3953 29.9179 35.8383 27.8437C35.9367 27.3797 35.9648 26.9297 35.9648 25.8047C35.9648 24.6797 35.9367 24.2297 35.8383 23.7656C35.557 22.4437 34.9594 21.0586 34.2281 19.9828C34.0242 19.6875 33.532 19.1109 33.1383 18.6961L32.4141 17.9507V10.8562C32.4141 3.87419 32.407 3.75465 32.2664 3.44528C32.0766 3.0234 31.8164 2.75621 31.3945 2.55934C31.0711 2.40465 30.9516 2.39059 29.9461 2.39059H28.8492L28.8141 1.807C28.7789 1.12497 28.6172 0.766371 28.1953 0.407778C27.8578 0.112465 27.5062 -3.48115e-05 26.9578 -3.48115e-05C25.8961 -3.48115e-05 25.1719 0.787465 25.1719 1.94762V2.39059H23.4211H21.6773L21.6352 1.83512C21.5578 0.660903 20.8898 -3.48115e-05 19.7789 -3.48115e-05C19.2094 -3.48115e-05 18.8227 0.168715 18.457 0.576528C18.0984 0.970278 18 1.2445 18 1.86325V2.39059H16.207H14.4141V1.87731C14.4141 1.25856 14.2172 0.780434 13.8164 0.428871C13.4367 0.0984027 13.1555 -3.48115e-05 12.6 -3.48115e-05C11.475 -3.48115e-05 10.7578 0.780434 10.7578 1.99684V2.39059H9H7.24219V1.98278C7.24219 0.766371 6.525 -0.00706606 5.38594 -3.48115e-05C5.11172 0.00699644 4.78828 0.0491839 4.66875 0.0984027ZM5.77266 1.39918C5.94141 1.53278 5.94141 1.5609 5.9625 2.91793C5.98359 4.42965 5.95547 4.57028 5.57578 4.71793C5.35781 4.80231 5.175 4.74606 4.99219 4.54918C4.85859 4.41559 4.85156 4.29606 4.85156 3.01637C4.85156 1.72965 4.85859 1.62418 4.99922 1.4484C5.175 1.2234 5.52656 1.20231 5.77266 1.39918ZM13.0008 1.4484C13.1414 1.62418 13.1484 1.72262 13.1484 3.01637C13.1414 3.98668 13.1203 4.42965 13.057 4.507C12.818 4.8234 12.4102 4.83043 12.1641 4.52106C12.0375 4.35231 12.0234 4.23278 12.0234 3.0445C12.0234 1.44137 12.0797 1.28668 12.6352 1.27262C12.7969 1.26559 12.8953 1.31481 13.0008 1.4484ZM20.0742 1.30778C20.3344 1.41325 20.3906 1.70153 20.3906 3.00231C20.3906 4.36637 20.3484 4.53512 20.0109 4.69684C19.7859 4.80934 19.4484 4.7109 19.3359 4.49293C19.2937 4.42262 19.2656 3.74059 19.2656 2.98121C19.2656 1.65231 19.2727 1.582 19.4203 1.42731C19.568 1.26559 19.8352 1.21637 20.0742 1.30778ZM27.3867 1.44137C27.5625 1.61012 27.5625 1.61715 27.5625 2.98825V4.3734L27.3586 4.57731C27.2461 4.68981 27.0844 4.78121 27 4.78121C26.9156 4.78121 26.7539 4.68981 26.6414 4.57731L26.4375 4.3734V2.98825C26.4375 1.61715 26.4375 1.61012 26.6133 1.44137C26.7187 1.32887 26.8664 1.26559 27 1.26559C27.1336 1.26559 27.2812 1.32887 27.3867 1.44137ZM3.6 4.23278C3.63516 4.87262 3.73359 5.13278 4.08516 5.47731C4.57734 5.9695 5.25937 6.14528 5.93437 5.9484C6.73594 5.71637 7.24219 4.98512 7.24219 4.07809V3.65621H9H10.7578V4.02887C10.7578 4.64762 10.9336 5.10465 11.3203 5.49137C12.0445 6.21559 13.1836 6.20856 13.9148 5.47731C14.2664 5.13278 14.3648 4.87262 14.4 4.23278L14.4352 3.65621H16.2141H18V4.1484C18 4.9359 18.2812 5.44918 18.9 5.78668C19.5961 6.16637 20.4187 6.08903 21.0023 5.58981C21.3961 5.25231 21.5859 4.83043 21.6352 4.18356L21.6773 3.65621H23.4141H25.1508L25.1859 4.19762C25.2422 5.11168 25.6922 5.71637 26.4797 5.9484C27.7031 6.29996 28.8211 5.44215 28.8281 4.12731V3.65621H29.8125C30.7687 3.65621 30.8109 3.66325 30.9727 3.832L31.1484 4.00075V5.58981V7.17184H16.207H1.26562V5.57575C1.26562 3.52262 1.17422 3.65621 2.56641 3.65621H3.56484L3.6 4.23278ZM31.1484 12.7617V17.0789L30.7477 16.8468C29.2008 15.9398 26.8312 15.4265 24.982 15.6023C23.618 15.7289 22.5703 16.0031 21.4453 16.5304C17.0086 18.6117 14.6812 23.5406 15.8836 28.2937C15.9961 28.7226 16.1648 29.2711 16.2633 29.5101L16.4461 29.9531H9.04219C1.65937 29.9531 1.63828 29.9531 1.44844 29.8054L1.26562 29.6648V19.0476V8.43747H16.207H31.1484V12.7617ZM27.3516 16.9875C29.3203 17.325 31.1977 18.3797 32.5336 19.9125C33.975 21.5578 34.7414 23.5828 34.7414 25.7695C34.7344 28.2797 33.8273 30.4382 32.0414 32.182C31.275 32.9273 30.6844 33.3562 29.8406 33.7851C27.6961 34.882 25.0945 35.0507 22.8164 34.2422C22.0289 33.9609 21.6352 33.764 20.918 33.2929C18.3516 31.6125 16.868 28.8703 16.868 25.8047C16.868 22.7109 18.3867 19.9406 20.9883 18.2672C22.8797 17.0507 25.1016 16.6007 27.3516 16.9875Z" fill="#095FBA"/>
<path d="M3.76161 11.5663C3.49443 11.8265 3.51552 12.2343 3.8038 12.4804L4.0288 12.6632L5.46318 12.6421L6.90458 12.621L7.07333 12.4241C7.16474 12.3187 7.24208 12.1499 7.24208 12.0515C7.24208 11.8265 7.0663 11.489 6.92568 11.4327C6.86239 11.4116 6.15927 11.3906 5.37177 11.3906C3.93739 11.3906 3.93036 11.3906 3.76161 11.5663Z" fill="#095FBA"/>
<path d="M11.0533 11.4398C10.8916 11.5031 10.7439 11.8898 10.7861 12.1288C10.8775 12.5929 10.9619 12.621 12.5509 12.6421L13.9713 12.6632L14.1963 12.4804C14.4845 12.2343 14.5056 11.8265 14.2384 11.5663C14.0697 11.3906 14.0697 11.3906 12.6072 11.3976C11.8056 11.3976 11.1025 11.4187 11.0533 11.4398Z" fill="#095FBA"/>
<path d="M18.1828 11.5383C18.0422 11.6508 18 11.7422 18 11.9531C18 12.607 18.1336 12.6562 19.793 12.6562C21.2203 12.6562 21.4172 12.6141 21.5719 12.2695C21.6984 11.9953 21.6773 11.8477 21.4734 11.6086L21.2906 11.3906H19.8281C18.457 11.3906 18.3586 11.3977 18.1828 11.5383Z" fill="#095FBA"/>
<path d="M25.3478 11.5664C25.1157 11.7914 25.1157 12.157 25.3407 12.4242L25.5095 12.6211H27.0001H28.4907L28.6595 12.4242C28.8845 12.157 28.8845 11.7914 28.6525 11.5664C28.4837 11.3906 28.4837 11.3906 27.0001 11.3906C25.5165 11.3906 25.5165 11.3906 25.3478 11.5664Z" fill="#095FBA"/>
<path d="M3.76155 16.3476C3.54358 16.5585 3.52249 16.9945 3.71936 17.2335C3.85295 17.4023 3.87405 17.4023 5.33655 17.4234L6.82014 17.4445L7.03108 17.2335C7.31233 16.9523 7.31233 16.657 7.03811 16.3757L6.8342 16.1718H5.37874C3.93733 16.1718 3.9303 16.1718 3.76155 16.3476Z" fill="#095FBA"/>
<path d="M10.9616 16.3757C10.6874 16.657 10.6874 16.9523 10.9687 17.2335L11.1796 17.4445L12.6632 17.4234C14.1257 17.4023 14.1468 17.4023 14.2804 17.2335C14.4773 16.9945 14.4562 16.5585 14.2382 16.3476C14.0694 16.1718 14.0624 16.1718 12.621 16.1718H11.1655L10.9616 16.3757Z" fill="#095FBA"/>
<path d="M3.8038 21.1289C3.51552 21.375 3.49443 21.7828 3.76161 22.043C3.93036 22.2188 3.93036 22.2188 5.39286 22.2188C6.92568 22.2117 6.99599 22.1977 7.15771 21.8883C7.2913 21.6492 7.25614 21.4031 7.07333 21.1852L6.90458 20.9883L5.46318 20.9672L4.0288 20.9461L3.8038 21.1289Z" fill="#095FBA"/>
<path d="M11.1376 21.0234C10.8072 21.157 10.6665 21.5648 10.8423 21.8883C11.004 22.1977 11.0744 22.2117 12.6072 22.2188C14.0697 22.2188 14.0697 22.2188 14.2384 22.043C14.365 21.9234 14.4142 21.7969 14.4142 21.607C14.4072 21.3117 14.3228 21.1641 14.0837 21.0375C13.9009 20.9391 11.3697 20.925 11.1376 21.0234Z" fill="#095FBA"/>
<path d="M3.73338 25.9875C3.53651 26.2406 3.54354 26.5922 3.75448 26.8383L3.92323 27.0351L5.25917 27.0562C6.32792 27.0773 6.63729 27.0633 6.84823 26.9719C7.14354 26.8523 7.2701 26.5851 7.20682 26.2476C7.12948 25.8328 7.02401 25.8047 5.37167 25.8047H3.87401L3.73338 25.9875Z" fill="#095FBA"/>
<path d="M10.9899 25.9102C10.8001 26.0437 10.7227 26.4023 10.8212 26.6695C10.9548 27.0281 11.243 27.0844 12.7337 27.0562C14.0134 27.0352 14.0555 27.0281 14.2313 26.8664C14.4774 26.6344 14.4845 26.1773 14.2524 25.9594C14.0977 25.8117 14.0345 25.8047 12.6141 25.8047C11.4048 25.8047 11.1165 25.8258 10.9899 25.9102Z" fill="#095FBA"/>
<path d="M24.9751 20.5735C24.1806 20.9672 23.9767 21.4524 23.9767 22.936V23.9766H22.936C22.1837 23.9766 21.804 24.0047 21.579 24.0821C19.9899 24.6235 19.9899 26.986 21.579 27.5274C21.804 27.6047 22.1837 27.6328 22.936 27.6328H23.9767V28.6735C23.9767 29.4258 24.0048 29.8055 24.0821 30.0305C24.6235 31.6196 26.986 31.6196 27.5274 30.0305C27.6048 29.8055 27.6329 29.4258 27.6329 28.6735V27.6328H28.6735C29.4259 27.6328 29.8056 27.6047 30.0306 27.5274C31.6196 26.986 31.6196 24.6235 30.0306 24.0821C29.8056 24.0047 29.4259 23.9766 28.6735 23.9766H27.6329V22.936C27.6329 21.7688 27.5556 21.4313 27.211 21.0094C26.7048 20.3977 25.7134 20.2078 24.9751 20.5735ZM26.1915 21.8321C26.3673 22.0008 26.3673 22.0078 26.3673 23.4141V24.8344L26.5712 25.0383L26.7751 25.2422H28.1954C29.6017 25.2422 29.6087 25.2422 29.7774 25.418C30.0095 25.643 30.0095 25.9664 29.7774 26.1914C29.6087 26.3672 29.6017 26.3672 28.1954 26.3672H26.7751L26.5712 26.5711L26.3673 26.775V28.1953C26.3673 29.6016 26.3673 29.6086 26.1915 29.7774C25.9665 30.0094 25.6431 30.0094 25.4181 29.7774C25.2423 29.6086 25.2423 29.6016 25.2423 28.1953V26.775L25.0384 26.5711L24.8345 26.3672H23.4142C22.0079 26.3672 22.0009 26.3672 21.8321 26.1914C21.7196 26.086 21.6563 25.9383 21.6563 25.8047C21.6563 25.6711 21.7196 25.5235 21.8321 25.418C22.0009 25.2422 22.0079 25.2422 23.4142 25.2422H24.8345L25.0384 25.0383L25.2423 24.8344V23.4141C25.2423 22.0078 25.2423 22.0008 25.4181 21.8321C25.5235 21.7196 25.6712 21.6563 25.8048 21.6563C25.9384 21.6563 26.086 21.7196 26.1915 21.8321Z" fill="#095FBA"/>
</g>
<defs>
<clipPath id="clip0_33_3175">
<rect width="36" height="36" fill="white"/>
</clipPath>
</defs>
</svg>
