<svg width="36" height="36" viewBox="0 0 36 36" fill="none" xmlns="http://www.w3.org/2000/svg">
<g clip-path="url(#clip0_658_1526)">
<path d="M16.207 0.0494118C11.489 0.555664 7.21405 2.81269 4.20467 6.39863C2.08827 8.91582 0.773425 11.7705 0.189832 15.1174C0.0562378 15.8838 0.0421753 16.2564 0.0421753 18.0002C0.0421753 19.7439 0.0562378 20.1166 0.189832 20.883C0.850769 24.6799 2.43983 27.8229 5.06249 30.5439C7.75546 33.3424 11.1515 35.1143 15.1172 35.8104C15.8836 35.9439 16.2562 35.958 18 35.958C20.2008 35.958 20.8617 35.8877 22.5914 35.4447C28.7859 33.8416 33.8414 28.7861 35.4445 22.5916C35.8875 20.8619 35.9578 20.201 35.9578 18.0002C35.9578 16.2564 35.9437 15.8838 35.8101 15.1174C35.114 11.1518 33.3351 7.75566 30.5437 5.06269C27.8297 2.44707 24.6586 0.843945 20.925 0.204102C20.243 0.084568 19.7156 0.0494118 18.2812 0.0353508C17.2969 0.021286 16.3617 0.0283203 16.207 0.0494118ZM20.1797 2.98848C23.5969 3.53691 26.2898 4.90801 28.6875 7.31269C30.7828 9.40098 32.1609 11.8689 32.7937 14.6252C33.2859 16.7979 33.2859 19.2025 32.7937 21.3752C31.943 25.1158 29.6086 28.4486 26.2476 30.7127C24.9539 31.5846 22.9922 32.4213 21.375 32.7939C19.2023 33.2861 16.7976 33.2861 14.625 32.7939C10.8844 31.9432 7.55155 29.6088 5.28749 26.2479C4.41561 24.9541 3.57889 22.9924 3.20624 21.3752C2.71405 19.2025 2.71405 16.7979 3.20624 14.6252C3.83905 11.8689 5.21718 9.40098 7.31249 7.31269C9.96327 4.65488 12.9937 3.24863 16.9101 2.85488C17.4656 2.79863 19.5258 2.88301 20.1797 2.98848Z" fill="#095FBA"/>
<path d="M17.3672 9.64688C17.1984 9.73828 16.9594 9.92813 16.8469 10.0758L16.6289 10.35L16.6078 13.4016L16.5867 16.4531H13.6547C10.7437 16.4531 10.7156 16.4531 10.4062 16.6078C10.2375 16.6992 10.0054 16.8891 9.88591 17.0367C9.7031 17.2617 9.66794 17.3813 9.64685 17.775C9.61169 18.3938 9.80857 18.7875 10.3008 19.0898L10.6383 19.3008L13.6195 19.3219L16.5937 19.343V22.282V25.2211L16.7554 25.5305C17.2687 26.4937 18.7312 26.4937 19.2445 25.5305L19.4062 25.2211V22.282V19.343L22.3804 19.3219L25.3617 19.3008L25.6992 19.0898C26.1914 18.7875 26.3883 18.3938 26.3531 17.775C26.332 17.3813 26.2968 17.2617 26.114 17.0367C25.9945 16.8891 25.7625 16.6992 25.5937 16.6078C25.2843 16.4531 25.2562 16.4531 22.3453 16.4531H19.4133L19.3922 13.4016L19.3711 10.35L19.1531 10.0758C18.8789 9.72422 18.4148 9.49219 18 9.49219C17.8031 9.49219 17.557 9.55547 17.3672 9.64688Z" fill="#095FBA"/>
</g>
<defs>
<clipPath id="clip0_658_1526">
<rect width="36" height="36" fill="white"/>
</clipPath>
</defs>
</svg>
