<svg width="24" height="24" viewBox="0 0 24 24" fill="none" xmlns="http://www.w3.org/2000/svg">
<path d="M1.92188 1.0875C1.575 1.22344 1.21875 1.57969 1.0875 1.93594L0.984375 2.20781V12C0.984375 21.7313 0.984375 21.7969 1.07813 22.05C1.20469 22.3875 1.49063 22.7016 1.81875 22.8609L2.08594 22.9922H9.25781H16.4297L16.6641 22.875C16.9734 22.725 17.2313 22.4531 17.3859 22.1297L17.5078 21.8672L17.5219 16.9406L17.5313 12.0141L17.9906 11.9859C19.8563 11.8781 21.6703 10.6125 22.5 8.85C23.4891 6.74063 23.0484 4.24688 21.3984 2.60156C20.2641 1.4625 18.8391 0.918751 17.2078 1.00313C16.8563 1.02188 16.5516 1.03125 16.5234 1.02656C16.5 1.02188 13.2609 1.0125 9.32813 1.00313L2.17969 0.989064L1.92188 1.0875ZM18.4688 2.13281C19.3219 2.33438 20.0391 2.7375 20.6531 3.34688C22.4297 5.12344 22.4016 7.97813 20.5969 9.70781C20.0203 10.2563 19.4766 10.5703 18.6797 10.8094C18.2953 10.9266 18.1875 10.9359 17.5078 10.9406C16.6172 10.9406 16.275 10.8656 15.5391 10.5047C14.6391 10.0594 13.9406 9.36094 13.5 8.46094C13.1391 7.73438 13.0594 7.38281 13.0594 6.51563C13.0594 5.76563 13.0969 5.52656 13.3172 4.93125C13.7953 3.62813 15.0047 2.53125 16.35 2.17969C17.0391 2.00156 17.8406 1.9875 18.4688 2.13281ZM6.43125 4.59375C6.85781 4.72031 7.28438 5.15156 7.41563 5.59219C7.45313 5.71406 7.47656 6.075 7.47656 6.53906C7.47656 7.24688 7.46719 7.30313 7.35 7.55156C7.18594 7.90781 6.9375 8.175 6.61875 8.32969C6.35625 8.45625 6.33281 8.46094 5.53125 8.46094C4.83281 8.46094 4.67813 8.44688 4.47656 8.37188C4.17188 8.25 3.7875 7.88906 3.65156 7.57969C3.54844 7.35469 3.53906 7.27969 3.53906 6.49219C3.53906 5.72813 3.54844 5.62969 3.6375 5.43281C3.84844 4.97813 4.29375 4.63125 4.77656 4.54219C5.05781 4.49063 6.21094 4.52813 6.43125 4.59375ZM12 6.49219V6.98906L10.4016 6.975L8.80313 6.96094L8.66719 6.80625C8.42813 6.53906 8.53125 6.15 8.87344 6.05156C8.95781 6.02813 9.69375 6.00469 10.5141 6.00469L12 6V6.49219ZM6.6375 10.1813C6.95156 10.3453 7.28438 10.7203 7.39219 11.0297C7.51406 11.3813 7.51406 12.6188 7.39219 12.9703C7.28438 13.2797 6.95156 13.6547 6.6375 13.8188C6.4125 13.9359 6.35625 13.9453 5.61563 13.9594C4.70156 13.9781 4.46719 13.9313 4.10156 13.65C3.93281 13.5234 3.82031 13.3828 3.70313 13.1531L3.53906 12.8297V12.0047V11.1797L3.69375 10.8656C3.86719 10.5094 4.12969 10.2656 4.48594 10.1203C4.68281 10.0406 4.81406 10.0313 5.55469 10.0453C6.37031 10.0547 6.40781 10.0594 6.6375 10.1813ZM14.8172 11.6672C14.925 11.775 14.9531 11.8453 14.9531 12C14.9531 12.1547 14.925 12.225 14.8172 12.3328L14.6813 12.4688H11.7938C9.65625 12.4688 8.87813 12.4547 8.78906 12.4125C8.56406 12.3094 8.47031 12 8.59688 11.7703C8.72813 11.5313 8.67656 11.5359 11.7797 11.5313H14.6813L14.8172 11.6672ZM6.57188 15.6422C6.9 15.7922 7.18594 16.0828 7.34063 16.4203C7.46719 16.7016 7.47188 16.7391 7.47656 17.4609C7.47656 17.925 7.45313 18.2859 7.41563 18.4078C7.28438 18.8531 6.85313 19.2844 6.40781 19.4156C6.28594 19.4531 5.92031 19.4766 5.46094 19.4766C4.74844 19.4766 4.69688 19.4719 4.44844 19.3547C4.09219 19.1859 3.825 18.9375 3.67031 18.6188C3.54375 18.3563 3.53906 18.3328 3.53906 17.5313C3.53906 16.5703 3.58594 16.3875 3.93281 16.0172C4.33125 15.5906 4.57969 15.5156 5.60156 15.5297C6.25313 15.5391 6.37969 15.5531 6.57188 15.6422ZM14.6391 17.0578C15.0844 17.2266 15.0469 17.8219 14.5875 17.9531C14.3531 18.0188 9.13125 18.0188 8.89688 17.9531C8.68125 17.8922 8.53125 17.7094 8.53125 17.5078C8.53125 17.3391 8.67656 17.1234 8.83125 17.0625C8.96719 17.0063 14.4938 17.0063 14.6391 17.0578Z" fill="white"/>
<path d="M17.2125 2.55918C16.9734 2.72324 16.9688 2.77481 16.9688 4.61699V6.33262L16.3594 7.18574C15.8016 7.96387 15.75 8.05293 15.75 8.24043C15.75 8.35293 15.7734 8.48418 15.7969 8.53574C15.9094 8.74199 16.3313 8.83574 16.5375 8.69043C16.5938 8.65293 16.9453 8.19355 17.3203 7.66855L18 6.71699V4.7623C18 3.51074 17.9813 2.77481 17.9531 2.71387C17.8406 2.50762 17.4188 2.41387 17.2125 2.55918Z" fill="white"/>
<path d="M4.725 5.55937C4.65469 5.59687 4.575 5.66719 4.54688 5.71875C4.52344 5.76562 4.5 6.12187 4.5 6.51562V7.22812L4.63594 7.36406L4.77188 7.5H5.48438C5.88281 7.5 6.23438 7.47656 6.28594 7.45312C6.47344 7.35 6.51563 7.16719 6.51563 6.46406V5.80312L6.35625 5.64375L6.19688 5.48437H5.52656C5.02031 5.48906 4.81875 5.50781 4.725 5.55937Z" fill="white"/>
<path d="M4.82813 11.0015C4.79063 11.0156 4.70156 11.0812 4.63125 11.1468L4.5 11.2687V11.9999V12.7312L4.64531 12.8718C4.78594 13.0077 4.79063 13.0077 5.42344 13.0218C6.1125 13.0406 6.26719 13.0077 6.42188 12.8062C6.50625 12.7031 6.51563 12.614 6.51563 12.0046C6.51563 11.2546 6.49219 11.1702 6.23438 11.039C6.13125 10.9874 5.94375 10.9687 5.49844 10.9734C5.17031 10.9734 4.86563 10.9874 4.82813 11.0015Z" fill="white"/>
<path d="M4.63594 16.6359L4.5 16.7719V17.4844C4.5 17.8828 4.52344 18.2344 4.54688 18.2859C4.65 18.4734 4.83281 18.5156 5.53594 18.5156H6.19688L6.35625 18.3562L6.51563 18.1969V17.5359C6.51563 16.8328 6.47344 16.65 6.28594 16.5469C6.23438 16.5234 5.88281 16.5 5.48438 16.5H4.77188L4.63594 16.6359Z" fill="white"/>
</svg>
