<svg width="36" height="36" viewBox="0 0 36 36" fill="none" xmlns="http://www.w3.org/2000/svg">
<path d="M29.9953 2.98828C29.5875 3.13594 29.3977 3.35391 28.2445 5.00625L27.1828 6.53203L27.0703 6.15938C26.8523 5.46328 26.4094 4.97813 25.6992 4.66172C25.432 4.54219 24.8625 4.53516 14.8008 4.53516C4.71094 4.53516 4.1625 4.54219 3.81797 4.66172C3.32578 4.83047 2.79844 5.31563 2.55234 5.82188L2.35547 6.22266V18.668C2.35547 30.7898 2.3625 31.1203 2.48906 31.4648C2.67187 31.9219 3.21328 32.4984 3.67734 32.7023L4.04297 32.8711H14.7656H25.4883L25.8117 32.7094C26.2828 32.4773 26.6625 32.1258 26.8945 31.7039L27.1055 31.3242L27.1266 23.632L27.1406 15.9398L30.382 11.2711C32.168 8.69766 33.6727 6.49688 33.7359 6.37735C33.9891 5.86407 33.8977 5.07657 33.532 4.6125C33.3562 4.3875 31.6617 3.19922 31.2609 3.01641C30.9234 2.86172 30.382 2.84766 29.9953 2.98828ZM31.6477 4.68282C32.5969 5.34375 32.6953 5.43516 32.6953 5.66016C32.6953 5.82188 30.6844 8.78906 30.5719 8.78906C30.5367 8.78906 29.9883 8.43047 29.3555 7.9875L28.2023 7.19297L29.1867 5.7586C29.7352 4.9711 30.2414 4.26797 30.3187 4.19766C30.3961 4.13438 30.5297 4.07813 30.6211 4.07813C30.7055 4.07813 31.1695 4.35235 31.6477 4.68282ZM25.2633 5.79375C25.5727 5.92735 25.8469 6.24375 25.9383 6.57422C25.9805 6.72891 26.0156 7.16485 26.0156 7.5375V8.21953L22.8305 12.8109C21.0797 15.3352 19.5398 17.557 19.4133 17.7469C19.2094 18.0422 19.0758 18.4781 18.45 20.8758C18.0492 22.4086 17.7187 23.7867 17.7187 23.9484C17.7187 24.3141 17.9086 24.5039 18.2672 24.4969C18.4852 24.4969 18.8789 24.2648 20.8758 22.9289C22.1625 22.057 23.3156 21.2766 23.4211 21.1781C23.5336 21.0867 24.1594 20.243 24.8062 19.3148L25.9805 17.6133L26.0016 18.9141C26.0086 19.6313 26.0086 22.6195 26.0016 25.5586L25.9805 30.9023L25.8258 31.1484C25.7414 31.2891 25.5445 31.4719 25.3898 31.5563L25.1156 31.7109L14.6742 31.6969C4.24687 31.6758 4.22578 31.6758 4.03594 31.5281C3.93047 31.4508 3.77578 31.2961 3.69844 31.1906L3.55078 31.0008V18.7172V6.4336L3.71953 6.19453C3.81094 6.06797 4.01484 5.89922 4.17656 5.82891C4.45078 5.70235 4.87266 5.69532 14.7516 5.69532C23.3297 5.69532 25.0734 5.70938 25.2633 5.79375ZM29.8547 9.87891C29.8266 9.95625 23.0906 19.6875 22.9922 19.7859C22.943 19.8352 20.7281 18.3586 20.6367 18.2109C20.6156 18.1758 22.1555 15.9047 24.0539 13.1625L27.5133 8.17735L28.6945 8.99297C29.3484 9.44297 29.8687 9.83672 29.8547 9.87891ZM21.0586 20.0039C21.5437 20.3344 21.9516 20.6367 21.9656 20.6648C22.0008 20.7211 19.343 22.5352 19.3008 22.4859C19.2516 22.4367 20.0672 19.4063 20.1305 19.4063C20.1586 19.4063 20.5805 19.6734 21.0586 20.0039Z" fill="white"/>
<path d="M7.60781 11.7914C7.48828 11.8336 7.3125 12.1922 7.3125 12.375C7.3125 12.4594 7.40391 12.6211 7.51641 12.7336L7.72734 12.9375L14.8008 12.9234L21.8813 12.9023L22.0148 12.7336C22.2188 12.4805 22.1906 12.0727 21.9656 11.8898C21.7758 11.7422 21.7547 11.7422 14.7375 11.7492C10.8703 11.7492 7.65703 11.7703 7.60781 11.7914Z" fill="white"/>
<path d="M7.68517 16.0311C7.43908 16.1295 7.29142 16.4178 7.34064 16.6991C7.43204 17.1772 7.21407 17.1561 12.1289 17.1561C16.9453 17.1491 16.7485 17.1702 16.868 16.7553C16.9594 16.453 16.8047 16.1366 16.5235 16.0381C16.2422 15.9467 7.92423 15.9327 7.68517 16.0311Z" fill="white"/>
<path d="M7.48829 20.4258C7.20704 20.7 7.29142 21.2063 7.64298 21.368C7.76251 21.4242 9.13361 21.4453 12.2063 21.4453C16.8539 21.4453 16.9242 21.4383 17.0438 21.1289C17.1352 20.8828 17.0859 20.5945 16.9102 20.4258L16.7414 20.25H12.1992H7.65704L7.48829 20.4258Z" fill="white"/>
<path d="M7.75547 24.5178C7.49531 24.5671 7.2914 24.8835 7.34062 25.1718C7.425 25.685 7.22109 25.6639 11.5805 25.6639H15.4758L15.6445 25.4882C15.8695 25.2702 15.8695 24.9608 15.6516 24.7007L15.4828 24.5038L11.693 24.4968C9.61172 24.4897 7.83984 24.4968 7.75547 24.5178Z" fill="white"/>
</svg>
