<svg width="36" height="36" viewBox="0 0 36 36" fill="none" xmlns="http://www.w3.org/2000/svg">
<path d="M15.8769 0.105472C13.6972 0.414847 11.8691 1.0125 9.67534 2.1375C8.45893 2.75625 8.08628 3.0375 8.08628 3.32578C8.08628 3.42422 8.27612 3.99375 8.50815 4.58438C8.74018 5.175 8.93003 5.70938 8.93003 5.77969C8.93003 5.84297 8.38862 7.85391 7.73471 10.2516C7.05972 12.6984 6.50425 14.8711 6.46206 15.1945C6.25815 16.8609 6.94722 18.6891 8.21987 19.8352C9.02846 20.5664 9.83706 20.9531 11.0957 21.1992C11.5316 21.2906 11.9042 21.375 11.9183 21.3891C11.9324 21.4031 10.8847 21.8531 9.5769 22.3875C8.27612 22.9219 7.00347 23.4703 6.75034 23.6109C4.99956 24.5602 3.68472 26.1844 3.13628 28.0688C2.848 29.0672 2.80581 29.7633 2.8269 32.857L2.848 35.7328L3.01675 35.8664C3.17847 36 3.51596 36 17.9933 36H32.8152L32.9628 35.8383C33.1175 35.6766 33.1175 35.6625 33.1175 32.5758C33.1175 30.1711 33.0964 29.3484 33.0121 28.8914C32.6113 26.5711 31.1207 24.5672 29.0394 23.5195C28.8285 23.4141 27.6261 22.9008 26.3675 22.3805C25.1089 21.8602 24.0753 21.4242 24.0613 21.4102C24.0472 21.3961 24.2722 21.3539 24.5535 21.3047C25.5097 21.15 25.9808 21.0164 26.6839 20.6719C27.4433 20.3063 28.1675 19.7086 28.6457 19.0688C29.4542 17.9648 29.855 16.4391 29.6792 15.1453C29.623 14.7375 27.6332 7.30547 27.0917 5.47735C27.0777 5.4211 27.2535 4.95 27.4855 4.43672C27.7246 3.93047 27.9144 3.42422 27.9144 3.32578C27.9144 3.01641 27.4996 2.7211 26.0722 2.01094C24.1246 1.04766 22.6199 0.527347 20.8128 0.210941C19.6878 0.00703459 16.9597 -0.0492154 15.8769 0.105472ZM20.5316 1.32188C21.4878 1.49766 22.6058 1.80703 23.548 2.15157C24.223 2.40469 26.2199 3.34688 26.4589 3.52969C26.5785 3.6211 26.5292 3.74766 25.6363 5.69532C25.1089 6.82735 24.666 7.77657 24.6449 7.79063C24.6308 7.81172 24.4339 7.75547 24.223 7.67813C24.005 7.59375 23.4988 7.43203 23.098 7.3125C19.5402 6.27891 15.5886 6.37735 11.7566 7.60782C11.391 7.72032 11.0675 7.79063 11.0394 7.75547C10.9832 7.69219 9.42221 3.71953 9.42221 3.64219C9.42221 3.57188 10.5261 2.98125 11.3839 2.60157C12.8886 1.92657 14.5128 1.44844 16.0316 1.2375C17.1074 1.08282 19.4558 1.13203 20.5316 1.32188ZM27.4152 11.0531C28.6246 15.4406 28.6667 15.6938 28.4488 16.6922C28.266 17.5078 27.9074 18.1477 27.2816 18.7875C26.473 19.6102 25.7417 19.9195 23.9207 20.2148L23.6253 20.2641L24.0472 19.6383C24.5746 18.8508 24.9121 18.0844 25.116 17.2125L25.2707 16.5305L25.7417 16.3828C26.3464 16.2 26.9019 15.7148 27.1902 15.1313C27.3589 14.7797 27.38 14.6461 27.38 14.0625C27.38 13.2891 27.2535 12.9305 26.8105 12.4383C26.3394 11.918 25.6503 11.6016 24.9894 11.6016C24.7925 11.6016 23.2105 11.1375 20.4824 10.2727C18.1691 9.54141 16.1863 8.92266 16.0738 8.90157C15.5042 8.76797 14.8011 9.14063 14.3371 9.81563C13.8097 10.5891 12.6496 11.5664 11.6722 12.0586C11.3136 12.2344 11.1027 12.2906 10.6878 12.3188C9.84409 12.375 9.23237 12.7688 8.88081 13.4859C8.62768 14.0063 8.60659 14.7656 8.83159 15.2648C9.14096 15.9258 9.75972 16.4039 10.4347 16.4953L10.7371 16.5375L10.9199 17.2828C11.1308 18.1125 11.6441 19.2305 12.0941 19.8211C12.2558 20.025 12.3753 20.2008 12.3613 20.2148C12.305 20.2711 10.7792 19.9477 10.3714 19.793C9.05659 19.3008 8.023 18.1125 7.69253 16.6992C7.47456 15.743 7.53081 15.4125 8.64878 11.3344C9.20425 9.31641 9.68237 7.68516 9.70346 7.71328C9.73159 7.74844 9.84409 8.0086 9.94956 8.29688C10.1816 8.92266 10.3574 9.14063 10.6316 9.14063C10.7441 9.14063 11.2011 9.01407 11.6582 8.86641C16.116 7.37578 20.3628 7.39688 24.223 8.92969C24.8277 9.16875 25.0949 9.18985 25.2988 9.01407C25.3832 8.95078 25.6292 8.49375 25.8472 7.99453C26.0722 7.50235 26.2691 7.10157 26.2902 7.10157C26.3183 7.10157 26.8246 8.88047 27.4152 11.0531ZM20.1097 11.3836L24.1527 12.6984L24.1738 14.0484C24.1878 15.2016 24.1738 15.4266 24.0753 15.5742C23.991 15.7008 23.9769 15.8273 24.005 16.0453C24.1105 16.7484 23.9628 17.4023 23.4847 18.3516C22.9644 19.3781 21.9871 20.4609 21.5652 20.4609C21.4386 20.4609 21.291 20.5383 21.1503 20.6719C21.0378 20.7844 20.8832 20.8828 20.8128 20.8828C20.7425 20.8828 20.6089 20.9742 20.5175 21.0867C20.398 21.2344 20.1941 21.3469 19.7582 21.4875C19.2097 21.6703 19.0691 21.6844 18.0707 21.6844C16.8542 21.6914 16.3761 21.6 15.6519 21.2344C15.4269 21.1148 15.1949 21.0234 15.1457 21.0234C15.0964 21.0234 14.9488 20.932 14.8222 20.8195C14.6957 20.7141 14.4847 20.5664 14.3582 20.5031C14.0347 20.3414 13.3035 19.5961 12.9589 19.0828C12.5722 18.5133 12.3542 18.0633 12.1433 17.4023C11.9253 16.7063 11.9042 16.4883 12.0167 16.1578C12.0941 15.9328 12.0871 15.8555 11.9957 15.6727C11.9042 15.4969 11.8832 15.2086 11.8832 14.3719V13.2891L12.2207 13.1203C13.2683 12.5859 14.5128 11.5453 15.2441 10.582C15.6238 10.0828 15.6589 10.0547 15.891 10.0617C15.9894 10.0617 17.8878 10.6594 20.1097 11.3836ZM25.8402 13.1695C26.2199 13.5492 26.3324 13.9148 26.2199 14.3859C26.1285 14.7445 25.7347 15.2016 25.4675 15.2719C25.3128 15.3141 25.3128 15.307 25.3128 14.0906C25.3128 12.6844 25.3269 12.6563 25.8402 13.1695ZM10.6878 14.4141C10.6878 15.2859 10.6808 15.3281 10.5472 15.3281C10.4699 15.3281 10.2941 15.2227 10.1535 15.0961C9.71753 14.6953 9.75268 14.0273 10.2378 13.6477C10.3433 13.5633 10.4839 13.5 10.5542 13.5C10.6808 13.5 10.6878 13.5703 10.6878 14.4141ZM14.4636 21.9234C14.5691 22.0078 15.0542 23.1891 16.0246 25.7203L17.4378 29.3977V32.1398V34.875H10.723H4.00815V32.1047C4.00815 29.4117 4.01518 29.3203 4.1769 28.6664C4.61987 26.9156 5.80112 25.425 7.38315 24.6094C7.91753 24.3281 14.0207 21.8109 14.1683 21.8039C14.2457 21.8039 14.3792 21.8531 14.4636 21.9234ZM25.1371 23.1328C26.916 23.8711 28.6105 24.6023 28.8988 24.7711C29.616 25.1719 30.6496 26.2125 31.0925 26.9719C31.4582 27.5977 31.8027 28.5539 31.9152 29.25C31.9574 29.5102 31.9925 30.832 31.9925 32.2875V34.875H25.2777H18.5628V32.1328V29.3836L19.9902 25.6922C21.1855 22.5844 21.4386 21.9797 21.5863 21.8953C21.6847 21.8461 21.7972 21.8039 21.8324 21.7969C21.8746 21.7969 23.3582 22.4016 25.1371 23.1328ZM16.7488 22.718C17.3535 22.8375 18.8371 22.8164 19.4277 22.6898C19.8707 22.5914 19.9058 22.5914 19.8707 22.7039C19.4628 23.857 18.0214 27.4711 17.9863 27.4359C17.9371 27.3867 16.1019 22.6617 16.1019 22.5914C16.1019 22.5703 16.1441 22.5703 16.2003 22.5914C16.2566 22.6125 16.5027 22.6688 16.7488 22.718Z" fill="#095FBA"/>
<path d="M17.5925 2.22187C17.4519 2.31328 17.4378 2.39062 17.4378 2.89687V3.4664L16.8261 3.42422C16.2285 3.38906 16.2144 3.39609 16.0175 3.58593C15.7644 3.84609 15.7574 4.15547 15.9964 4.39453C16.1511 4.55625 16.2214 4.57031 16.805 4.57031H17.4378V5.10468C17.4378 5.39297 17.466 5.69531 17.5082 5.76562C17.5996 5.9414 17.9652 6.0539 18.1691 5.97656C18.4644 5.86406 18.5628 5.63906 18.5628 5.08359V4.57031H19.055C19.491 4.57031 19.5753 4.54922 19.723 4.39453C19.941 4.18359 19.948 3.88125 19.7511 3.62812C19.6175 3.45937 19.5683 3.44531 19.0832 3.44531H18.5628V2.93203C18.5628 2.48203 18.5418 2.39765 18.4011 2.26406C18.2043 2.08125 17.8246 2.06015 17.5925 2.22187Z" fill="#095FBA"/>
<path d="M13.8728 13.5914C13.6549 13.7953 13.6127 13.8797 13.5846 14.2172C13.5494 14.6812 13.683 14.9906 14.0135 15.1875C14.2877 15.3562 14.7658 15.3703 15.0541 15.2227C15.5322 14.9695 15.6939 14.2453 15.3775 13.7742C15.1666 13.4648 14.9557 13.3594 14.4986 13.3594C14.1822 13.3594 14.0978 13.3875 13.8728 13.5914Z" fill="#095FBA"/>
<path d="M20.4824 13.5C19.8707 13.8656 19.8988 14.8922 20.5246 15.2227C20.7847 15.3562 21.2488 15.3562 21.5019 15.2297C22.1347 14.8992 22.2332 14.0555 21.6918 13.5773C21.4808 13.3945 21.3824 13.3594 21.073 13.3594C20.834 13.3594 20.6301 13.4086 20.4824 13.5Z" fill="#095FBA"/>
<path d="M15.8418 17.7188C15.5746 17.8242 15.434 18.1125 15.5114 18.4078C15.5676 18.6398 15.6309 18.6961 16.109 18.9352C16.6504 19.2023 17.4801 19.4062 18.0215 19.4062C18.8934 19.3992 20.2434 18.8789 20.377 18.4992C20.5035 18.1406 20.3348 17.775 19.9973 17.6906C19.8848 17.6625 19.6598 17.7258 19.2871 17.9086C18.7528 18.1688 18.7176 18.1758 17.9653 18.1758C17.2129 18.1758 17.1778 18.1688 16.6645 17.9086C16.102 17.6273 16.0739 17.6273 15.8418 17.7188Z" fill="#095FBA"/>
</svg>
