<svg width="36" height="36" viewBox="0 0 36 36" fill="none" xmlns="http://www.w3.org/2000/svg">
<path d="M17.4164 1.08262C16.0664 1.45527 15.6585 3.22715 16.7062 4.14824C16.8468 4.26777 17.0578 4.4084 17.1703 4.44355L17.3671 4.51387V5.84277C17.3671 6.57402 17.3601 7.17168 17.346 7.17168C17.332 7.17168 17.0859 7.0873 16.7976 6.98887C16.1226 6.7498 15.4124 6.72168 15.0117 6.92558C14.857 7.00293 14.4421 7.34043 14.0835 7.67793C13.7249 8.02246 13.3523 8.33183 13.2468 8.36699C13.1414 8.40918 12.6984 8.48652 12.2554 8.54277C11.3062 8.66933 10.9265 8.83105 10.5609 9.25293L10.3007 9.5623L8.96479 8.22637L7.63588 6.89746L7.76245 6.63027C7.83276 6.48262 7.9101 6.13809 7.9312 5.86387C7.97338 5.18184 7.82573 4.75293 7.37573 4.26074C6.91167 3.75449 6.4687 3.55762 5.75854 3.55762C5.28042 3.55059 5.16792 3.57871 4.73901 3.79668C3.67729 4.33809 3.23432 5.55449 3.71245 6.63027C3.91635 7.0873 4.43667 7.62168 4.85854 7.80449C5.3437 8.0084 6.04682 8.0084 6.53901 7.79746L6.90463 7.64277L8.42338 9.16152L9.9351 10.6803L9.76635 11.0178C9.62573 11.299 9.4851 11.4326 8.93667 11.7912C7.54448 12.7053 7.37573 13.0498 7.53042 14.6037L7.61479 15.4686L7.36167 15.9467C7.21401 16.2068 6.99604 16.6287 6.86948 16.8889L6.64448 17.36L5.57573 17.367H4.51401L4.4437 17.1701C4.34526 16.8818 3.95854 16.467 3.62807 16.2912C3.22026 16.0803 2.40463 16.0803 1.99682 16.2912C1.65932 16.474 1.2937 16.8678 1.13901 17.2193C0.97026 17.6131 0.998385 18.3232 1.18823 18.7029C1.4062 19.1248 1.58901 19.3217 1.9687 19.5115C2.40463 19.7295 2.7562 19.7787 3.19917 19.6873C3.69838 19.5818 4.09917 19.2795 4.36635 18.8084L4.58432 18.4217H5.59682H6.60229L6.85542 18.9279C6.98901 19.2092 7.21401 19.6451 7.36167 19.8912L7.61479 20.3412L7.53042 21.2693C7.38276 22.774 7.55854 23.1396 8.78901 23.9482C9.53432 24.4264 9.64682 24.5389 9.80151 24.8904L9.90698 25.1365L8.98588 26.0576L8.07182 26.9787L7.74135 26.8803C6.92573 26.6271 6.0187 27.0139 5.60385 27.8084C5.37182 28.2514 5.39292 28.9686 5.6601 29.4537C6.00463 30.0795 6.51792 30.3748 7.26323 30.3748C8.12807 30.3748 8.8312 29.8193 8.99995 29.0037C9.07729 28.6311 9.0562 28.392 8.89448 27.8787C8.85932 27.7662 9.00698 27.5834 9.5976 26.9998L10.3359 26.2615L10.4554 26.4373C10.8281 26.9717 11.257 27.1756 12.2062 27.2811C13.2257 27.4006 13.3171 27.4357 14.0414 28.1389C14.4351 28.5186 14.8218 28.8209 15.0257 28.9123C15.4898 29.1162 16.0593 29.1092 16.7554 28.8701C17.0507 28.7717 17.3179 28.6873 17.332 28.6873C17.3531 28.6873 17.3671 29.2709 17.3671 29.9881V31.2818L17.1421 31.4014C15.7921 32.0764 15.771 33.9607 17.0999 34.6217C17.9718 35.0576 19.0476 34.7412 19.4976 33.9115C19.9968 32.9764 19.6593 31.8725 18.7312 31.4295L18.4218 31.2748V29.9811C18.4218 29.2709 18.4499 28.6873 18.4781 28.6873C18.5132 28.6873 18.7734 28.7717 19.0617 28.8701C19.7648 29.1092 20.3835 29.1232 20.8406 28.9053C21.0234 28.8139 21.4523 28.4764 21.7968 28.1529C22.1343 27.8295 22.521 27.5201 22.6476 27.4639C22.7812 27.4076 23.1257 27.3443 23.414 27.3162C24.3562 27.2318 24.7359 27.0912 25.1648 26.6623L25.5445 26.2896L25.8328 26.5709C26.0648 26.7959 26.1773 26.8592 26.3742 26.8592C26.6906 26.8592 26.8593 26.6834 26.8593 26.36C26.8593 26.1631 26.782 26.0506 26.3882 25.6498L25.9242 25.1787L26.0156 24.9467C26.1492 24.6162 26.4656 24.2998 26.9999 23.9764C27.6609 23.5756 28.0195 23.2521 28.1953 22.8865C28.3359 22.5982 28.3429 22.4857 28.3218 21.3537L28.3007 20.1373L28.6593 19.5467C28.8632 19.2162 29.0671 18.8295 29.1164 18.6818L29.2078 18.4217H30.2484H31.289L31.3874 18.6607C31.7742 19.5959 32.9695 20.0037 33.8765 19.5115C34.4953 19.174 34.8046 18.6467 34.8046 17.9084C34.8046 16.0029 32.2593 15.4264 31.4015 17.135L31.282 17.367H30.2343H29.1796L29.1374 17.1842C29.1093 17.0857 28.9124 16.7201 28.6945 16.3615C28.2515 15.6373 28.2796 15.7779 28.3289 13.9779C28.3499 13.3873 28.3289 13.2467 28.1953 12.9725C28.0195 12.6068 27.5695 12.185 27.014 11.8686C26.4796 11.5662 26.2054 11.3061 26.0507 10.9686L25.9171 10.6803L27.8015 8.7959L29.6929 6.90449L29.9953 7.04512C30.3539 7.1998 30.9867 7.22793 31.4156 7.10137C31.8445 6.96777 32.3367 6.55293 32.5828 6.11699C32.7796 5.76543 32.8007 5.67402 32.8007 5.09746C32.8007 4.5209 32.7796 4.42949 32.5828 4.07793C32.3437 3.64902 31.8445 3.22715 31.4296 3.10059C31.0007 2.97402 30.2414 3.00918 29.8828 3.1709C29.4609 3.36074 29.0601 3.75449 28.8562 4.1834C28.6523 4.61934 28.6242 5.39277 28.7999 5.84277L28.9195 6.13105L27.2109 7.83965L25.5023 9.54824L25.2984 9.26699C25.0593 8.94355 24.5179 8.6623 23.9906 8.59902C23.6953 8.56387 23.6179 8.58496 23.4914 8.71152C23.196 9.00683 23.3789 9.63261 23.7656 9.63261C24.0398 9.63261 24.3984 9.83652 24.539 10.0686C24.6164 10.1951 24.7499 10.5045 24.8273 10.7576C25.0382 11.3904 25.3335 11.9529 25.5726 12.1709C25.6781 12.2764 26.0367 12.5295 26.3671 12.7404C27.3304 13.3662 27.2812 13.2537 27.2601 14.7373L27.246 15.9959L27.5554 16.5232C28.1671 17.5639 28.2656 17.7537 28.2656 17.9365C28.2656 18.035 28.0898 18.4146 27.8648 18.7803C27.1757 19.9193 27.1828 19.8982 27.239 21.1779C27.2882 22.1553 27.2812 22.317 27.1757 22.4717C27.1124 22.5701 26.7468 22.8514 26.3742 23.0975C25.6078 23.5967 25.2351 23.9834 25.0593 24.4615C24.5953 25.7131 24.5039 25.9029 24.2859 26.0295C24.1593 26.0998 23.7445 26.1982 23.3015 26.2615C22.0921 26.4162 21.9726 26.4795 21.0093 27.4006C20.2499 28.1248 20.2289 28.1248 19.0828 27.7311C18.1687 27.4217 17.7257 27.4146 16.882 27.6959C15.9046 28.0193 15.757 28.0545 15.5531 27.9771C15.4546 27.935 15.089 27.6396 14.7515 27.3092C13.964 26.5568 13.6617 26.4092 12.5507 26.2615C12.0937 26.2053 11.6367 26.1068 11.5523 26.0436C11.3695 25.9311 11.2218 25.6428 10.8984 24.7779C10.589 23.9623 10.364 23.6881 9.57651 23.1748C9.20385 22.9287 8.81713 22.6404 8.7187 22.535C8.52182 22.324 8.50776 22.1764 8.61323 20.974C8.68354 20.0951 8.6062 19.8139 8.03667 18.8998C7.50932 18.042 7.48823 17.8311 7.86792 17.2264C8.64135 15.9959 8.72573 15.6654 8.5851 14.4561C8.46557 13.4787 8.52182 13.3521 9.24604 12.8951C10.4554 12.1217 10.582 11.974 10.9968 10.7998C11.3624 9.77324 11.4609 9.70293 12.6281 9.5623C12.9867 9.52715 13.4085 9.44277 13.5773 9.38652C13.9289 9.25996 14.4421 8.87324 14.9554 8.33887C15.539 7.74121 15.6164 7.72715 16.5867 8.05058C17.7117 8.43027 18.1617 8.43027 19.2445 8.05762C19.7929 7.86777 20.0882 7.80449 20.2218 7.83262C20.3203 7.86074 20.6507 8.11387 20.9531 8.40215C21.389 8.81699 21.5507 8.92949 21.7124 8.92949C22.0359 8.92949 22.2468 8.71855 22.2468 8.40215C22.2468 8.16308 22.1906 8.08574 21.7124 7.62168C20.7984 6.74277 20.2992 6.60215 19.2656 6.92558C18.9351 7.02402 18.6117 7.12246 18.5484 7.15058C18.4289 7.18574 18.4218 7.09434 18.4218 5.85684V4.52793L18.6539 4.44355C19.7296 4.0498 20.0742 2.55215 19.2937 1.62402C18.8929 1.1459 18.0632 0.906836 17.4164 1.08262ZM18.4078 2.26387C18.5695 2.39746 18.7031 2.77012 18.6539 2.95996C18.5906 3.21309 18.2882 3.5084 18.0281 3.55762C17.7398 3.61387 17.4023 3.43809 17.2546 3.15684C16.9031 2.46777 17.8031 1.76465 18.4078 2.26387ZM31.296 4.23965C31.7531 4.54199 31.9148 5.16074 31.6406 5.61074C31.2046 6.3209 30.1429 6.27871 29.8054 5.52637C29.6367 5.15371 29.6367 5.03418 29.8195 4.66855C30.0937 4.09199 30.7828 3.89512 31.296 4.23965ZM6.40542 4.81621C7.08042 5.25215 7.03823 6.34199 6.32807 6.74277C5.44917 7.23496 4.38042 6.44043 4.64057 5.48418C4.85151 4.69668 5.71635 4.36621 6.40542 4.81621ZM3.16401 17.2615C3.61401 17.4936 3.69838 18.0912 3.3187 18.4357C3.0726 18.6678 2.84057 18.717 2.56635 18.6045C2.10932 18.4146 1.96167 17.8592 2.25698 17.4795C2.5101 17.1561 2.81948 17.0857 3.16401 17.2615ZM33.3281 17.2615C33.6093 17.4021 33.7499 17.6342 33.7499 17.9295C33.7499 18.6467 32.7796 18.935 32.414 18.3303C32.1609 17.9225 32.2523 17.5357 32.646 17.2967C32.9132 17.1279 33.0609 17.1209 33.3281 17.2615ZM7.60073 27.9561C7.86088 28.0896 8.0437 28.4764 7.98042 28.7646C7.91713 29.0529 7.5726 29.3201 7.24917 29.3201C6.51792 29.3201 6.2226 28.3568 6.84838 27.9771C7.11557 27.8154 7.31948 27.8084 7.60073 27.9561ZM18.3304 32.4139C18.9281 32.7725 18.6398 33.7498 17.9367 33.7498C17.6203 33.7498 17.3531 33.567 17.2265 33.2646C17.114 32.9904 17.1843 32.7303 17.4374 32.4771C17.6765 32.2311 17.9999 32.21 18.3304 32.4139Z" fill="#095FBA"/>
<path d="M14.1538 10.8913C13.5702 11.0389 13.0218 11.5522 12.8671 12.1007C12.4734 13.4718 13.6265 14.7304 14.9976 14.421C16.2843 14.1327 16.8257 12.5718 16.003 11.496C15.6515 11.0389 14.7515 10.7436 14.1538 10.8913ZM14.864 11.9811C15.3632 12.1921 15.4968 12.7827 15.1241 13.1483C14.871 13.4014 14.6109 13.4718 14.3366 13.3593C13.7249 13.0991 13.6968 12.2483 14.2944 11.9882C14.5757 11.8616 14.5827 11.8616 14.864 11.9811Z" fill="#095FBA"/>
<path d="M22.0921 15.3C21.4663 15.6094 21.1359 16.1719 21.1359 16.9102C21.1359 17.9719 21.8741 18.7031 22.9499 18.7031C24.4335 18.7031 25.2562 17.0297 24.3702 15.8133C23.871 15.1312 22.8726 14.9062 22.0921 15.3ZM23.414 16.3758C23.6671 16.6289 23.7374 16.8891 23.6249 17.1633C23.3507 17.8172 22.4437 17.7961 22.2187 17.1281C21.9866 16.418 22.8866 15.8484 23.414 16.3758Z" fill="#095FBA"/>
<path d="M13.6336 19.4273C12.6141 19.8563 12.0586 20.707 12.0586 21.832C12.0586 22.3102 12.0937 22.4648 12.2766 22.8516C12.5437 23.407 12.9586 23.8359 13.4859 24.0961C13.8445 24.2719 13.9641 24.293 14.5898 24.293C15.2016 24.293 15.3422 24.2719 15.6797 24.1102C17.2547 23.3719 17.6344 21.2555 16.4109 19.9969C15.9398 19.5117 15.4336 19.3078 14.6602 19.2797C14.1258 19.2656 13.9641 19.2867 13.6336 19.4273ZM15.4125 20.5734C16.2844 21.1852 16.2844 22.4156 15.4125 23.0273C15.1383 23.2172 15.0469 23.2383 14.5969 23.2383C14.1609 23.2383 14.0484 23.2102 13.7953 23.0484C12.7828 22.3734 12.9375 20.8688 14.0625 20.3977C14.1609 20.3555 14.4352 20.3273 14.6742 20.3414C15.0328 20.3555 15.1734 20.4047 15.4125 20.5734Z" fill="#095FBA"/>
<path d="M27.4008 27.4078C27.3305 27.4782 27.2812 27.6469 27.2812 27.7805C27.2812 27.9774 27.3586 28.0899 27.7453 28.4836L28.2023 28.9477L28.0547 29.3977C27.7805 30.1993 27.9562 31.05 28.5117 31.6055C29.3836 32.4774 30.8672 32.4563 31.6758 31.5563C32.0766 31.1203 32.2312 30.7125 32.2312 30.0938C32.2383 29.6649 32.2031 29.4891 32.0555 29.1727C31.5703 28.1321 30.4945 27.6821 29.3977 28.0547L28.9477 28.2024L28.4836 27.7453C28.0828 27.3446 27.9773 27.2813 27.7664 27.2813C27.6117 27.2813 27.4711 27.3305 27.4008 27.4078ZM30.7266 29.1797C31.043 29.4047 31.2469 29.8758 31.1836 30.2555C31.1133 30.6633 30.6633 31.1133 30.2555 31.1836C29.6227 31.2891 29.0391 30.811 28.9828 30.136C28.9547 29.7211 29.1234 29.3977 29.5312 29.1235C29.8477 28.9055 30.382 28.9336 30.7266 29.1797Z" fill="#095FBA"/>
</svg>
