<svg width="24" height="24" viewBox="0 0 24 24" fill="none" xmlns="http://www.w3.org/2000/svg">
<g clip-path="url(#clip0_225_1988)">
<g clip-path="url(#clip1_225_1988)">
<path d="M11.6109 0.722069C10.7109 0.970506 10.4391 2.15176 11.1375 2.76582C11.2312 2.84551 11.3719 2.93926 11.4469 2.96269L11.5781 3.00957V3.89551C11.5781 4.38301 11.5734 4.78144 11.5641 4.78144C11.5547 4.78144 11.3906 4.72519 11.1984 4.65957C10.7484 4.50019 10.275 4.48144 10.0078 4.61738C9.90468 4.66894 9.62812 4.89394 9.38906 5.11894C9.15 5.34863 8.90156 5.55488 8.83125 5.57832C8.76093 5.60644 8.46562 5.65801 8.17031 5.69551C7.5375 5.77988 7.28437 5.88769 7.04062 6.16894L6.86718 6.37519L5.97656 5.48457L5.09062 4.59863L5.175 4.42051C5.22187 4.32207 5.27343 4.09238 5.2875 3.90957C5.31562 3.45488 5.21718 3.16894 4.91718 2.84082C4.60781 2.50332 4.3125 2.37207 3.83906 2.37207C3.52031 2.36738 3.44531 2.38613 3.15937 2.53144C2.45156 2.89238 2.15625 3.70332 2.475 4.42051C2.61093 4.72519 2.95781 5.08144 3.23906 5.20332C3.5625 5.33926 4.03125 5.33926 4.35937 5.19863L4.60312 5.09551L5.61562 6.10801L6.62343 7.12051L6.51093 7.34551C6.41718 7.53301 6.32343 7.62207 5.95781 7.86113C5.02968 8.47051 4.91718 8.70019 5.02031 9.73613L5.07656 10.3127L4.90781 10.6314C4.80937 10.8049 4.66406 11.0861 4.57968 11.2596L4.42968 11.5736L3.71718 11.5783H3.00937L2.9625 11.4471C2.89687 11.2549 2.63906 10.9783 2.41875 10.8611C2.14687 10.7205 1.60312 10.7205 1.33125 10.8611C1.10625 10.983 0.862495 11.2455 0.75937 11.4799C0.64687 11.7424 0.66562 12.2158 0.792183 12.4689C0.937495 12.7502 1.05937 12.8814 1.3125 13.008C1.60312 13.1533 1.8375 13.1861 2.13281 13.1252C2.46562 13.0549 2.73281 12.8533 2.91093 12.5393L3.05625 12.2814H3.73125H4.40156L4.57031 12.6189C4.65937 12.8064 4.80937 13.0971 4.90781 13.2611L5.07656 13.5611L5.02031 14.1799C4.92187 15.183 5.03906 15.4268 5.85937 15.9658C6.35625 16.2846 6.43125 16.3596 6.53437 16.5939L6.60468 16.758L5.99062 17.3721L5.38125 17.9861L5.16093 17.9205C4.61718 17.7518 4.0125 18.0096 3.73593 18.5393C3.58125 18.8346 3.59531 19.3127 3.77343 19.6361C4.00312 20.0533 4.34531 20.2502 4.84218 20.2502C5.41875 20.2502 5.8875 19.8799 6 19.3361C6.05156 19.0877 6.0375 18.9283 5.92968 18.5861C5.90625 18.5111 6.00468 18.3893 6.39843 18.0002L6.89062 17.508L6.97031 17.6252C7.21875 17.9814 7.50468 18.1174 8.1375 18.1877C8.81718 18.2674 8.87812 18.2908 9.36093 18.7596C9.62343 19.0127 9.88125 19.2143 10.0172 19.2752C10.3266 19.4111 10.7062 19.4064 11.1703 19.2471C11.3672 19.1814 11.5453 19.1252 11.5547 19.1252C11.5687 19.1252 11.5781 19.5143 11.5781 19.9924V20.8549L11.4281 20.9346C10.5281 21.3846 10.5141 22.6408 11.4 23.0814C11.9812 23.3721 12.6984 23.1611 12.9984 22.608C13.3312 21.9846 13.1062 21.2486 12.4875 20.9533L12.2812 20.8502V19.9877C12.2812 19.5143 12.3 19.1252 12.3187 19.1252C12.3422 19.1252 12.5156 19.1814 12.7078 19.2471C13.1766 19.4064 13.5891 19.4158 13.8937 19.2705C14.0156 19.2096 14.3016 18.9846 14.5312 18.7689C14.7562 18.5533 15.0141 18.3471 15.0984 18.3096C15.1875 18.2721 15.4172 18.2299 15.6094 18.2111C16.2375 18.1549 16.4906 18.0611 16.7766 17.7752L17.0297 17.5268L17.2219 17.7143C17.3766 17.8643 17.4516 17.9064 17.5828 17.9064C17.7937 17.9064 17.9062 17.7893 17.9062 17.5736C17.9062 17.4424 17.8547 17.3674 17.5922 17.1002L17.2828 16.7861L17.3437 16.6314C17.4328 16.4111 17.6437 16.2002 18 15.9846C18.4406 15.7174 18.6797 15.5018 18.7969 15.258C18.8906 15.0658 18.8953 14.9908 18.8812 14.2361L18.8672 13.4252L19.1062 13.0314C19.2422 12.8111 19.3781 12.5533 19.4109 12.4549L19.4719 12.2814H20.1656H20.8594L20.925 12.4408C21.1828 13.0643 21.9797 13.3361 22.5844 13.008C22.9969 12.783 23.2031 12.4314 23.2031 11.9393C23.2031 10.6689 21.5062 10.2846 20.9344 11.4236L20.8547 11.5783H20.1562H19.4531L19.425 11.4564C19.4062 11.3908 19.275 11.1471 19.1297 10.908C18.8344 10.4252 18.8531 10.5189 18.8859 9.31894C18.9 8.92519 18.8859 8.83144 18.7969 8.64863C18.6797 8.40488 18.3797 8.12363 18.0094 7.91269C17.6531 7.71113 17.4703 7.53769 17.3672 7.31269L17.2781 7.12051L18.5344 5.86426L19.7953 4.60332L19.9969 4.69707C20.2359 4.80019 20.6578 4.81894 20.9437 4.73457C21.2297 4.64551 21.5578 4.36894 21.7219 4.07832C21.8531 3.84394 21.8672 3.78301 21.8672 3.39863C21.8672 3.01426 21.8531 2.95332 21.7219 2.71894C21.5625 2.43301 21.2297 2.15176 20.9531 2.06738C20.6672 1.98301 20.1609 2.00644 19.9219 2.11426C19.6406 2.24082 19.3734 2.50332 19.2375 2.78926C19.1016 3.07988 19.0828 3.59551 19.2 3.89551L19.2797 4.08769L18.1406 5.22676L17.0016 6.36582L16.8656 6.17832C16.7062 5.96269 16.3453 5.77519 15.9937 5.73301C15.7969 5.70957 15.7453 5.72363 15.6609 5.80801C15.4641 6.00488 15.5859 6.42207 15.8437 6.42207C16.0266 6.42207 16.2656 6.55801 16.3594 6.71269C16.4109 6.79707 16.5 7.00332 16.5516 7.17207C16.6922 7.59394 16.8891 7.96894 17.0484 8.11426C17.1187 8.18457 17.3578 8.35332 17.5781 8.49394C18.2203 8.91113 18.1875 8.83613 18.1734 9.82519L18.1641 10.6643L18.3703 11.0158C18.7781 11.7096 18.8437 11.8361 18.8437 11.958C18.8437 12.0236 18.7266 12.2768 18.5766 12.5205C18.1172 13.2799 18.1219 13.2658 18.1594 14.1189C18.1922 14.7705 18.1875 14.8783 18.1172 14.9814C18.075 15.0471 17.8312 15.2346 17.5828 15.3986C17.0719 15.7314 16.8234 15.9893 16.7062 16.308C16.3969 17.1424 16.3359 17.2689 16.1906 17.3533C16.1062 17.4002 15.8297 17.4658 15.5344 17.508C14.7281 17.6111 14.6484 17.6533 14.0062 18.2674C13.5 18.7502 13.4859 18.7502 12.7219 18.4877C12.1125 18.2814 11.8172 18.2768 11.2547 18.4643C10.6031 18.6799 10.5047 18.7033 10.3687 18.6518C10.3031 18.6236 10.0594 18.4268 9.83437 18.2064C9.30937 17.7049 9.10781 17.6064 8.36718 17.508C8.0625 17.4705 7.75781 17.4049 7.70156 17.3627C7.57968 17.2877 7.48125 17.0955 7.26562 16.5189C7.05937 15.9752 6.90937 15.7924 6.38437 15.4502C6.13593 15.2861 5.87812 15.0939 5.8125 15.0236C5.68125 14.883 5.67187 14.7846 5.74218 13.983C5.78906 13.3971 5.7375 13.2096 5.35781 12.6002C5.00625 12.0283 4.99218 11.8877 5.24531 11.4846C5.76093 10.6643 5.81718 10.4439 5.72343 9.63769C5.64375 8.98613 5.68125 8.90176 6.16406 8.59707C6.97031 8.08144 7.05468 7.98301 7.33125 7.20019C7.575 6.51582 7.64062 6.46894 8.41875 6.37519C8.65781 6.35176 8.93906 6.29551 9.05156 6.25801C9.28593 6.17363 9.62812 5.91582 9.97031 5.55957C10.3594 5.16113 10.4109 5.15176 11.0578 5.36738C11.8078 5.62051 12.1078 5.62051 12.8297 5.37207C13.1953 5.24551 13.3922 5.20332 13.4812 5.22207C13.5469 5.24082 13.7672 5.40957 13.9687 5.60176C14.2594 5.87832 14.3672 5.95332 14.475 5.95332C14.6906 5.95332 14.8312 5.81269 14.8312 5.60176C14.8312 5.44238 14.7937 5.39082 14.475 5.08144C13.8656 4.49551 13.5328 4.40176 12.8437 4.61738C12.6234 4.68301 12.4078 4.74863 12.3656 4.76738C12.2859 4.79082 12.2812 4.72988 12.2812 3.90488V3.01894L12.4359 2.96269C13.1531 2.70019 13.3828 1.70176 12.8625 1.08301C12.5953 0.764256 12.0422 0.604881 11.6109 0.722069ZM12.2719 1.50957C12.3797 1.59863 12.4687 1.84707 12.4359 1.97363C12.3937 2.14238 12.1922 2.33926 12.0187 2.37207C11.8266 2.40957 11.6016 2.29238 11.5031 2.10488C11.2687 1.64551 11.8687 1.17676 12.2719 1.50957ZM20.8641 2.82676C21.1687 3.02832 21.2766 3.44082 21.0937 3.74082C20.8031 4.21426 20.0953 4.18613 19.8703 3.68457C19.7578 3.43613 19.7578 3.35644 19.8797 3.11269C20.0625 2.72832 20.5219 2.59707 20.8641 2.82676ZM4.27031 3.21113C4.72031 3.50176 4.69218 4.22832 4.21875 4.49551C3.63281 4.82363 2.92031 4.29394 3.09375 3.65644C3.23437 3.13144 3.81093 2.91113 4.27031 3.21113ZM2.10937 11.508C2.40937 11.6627 2.46562 12.0611 2.2125 12.2908C2.04843 12.4455 1.89375 12.4783 1.71093 12.4033C1.40625 12.2768 1.30781 11.9064 1.50468 11.6533C1.67343 11.4377 1.87968 11.3908 2.10937 11.508ZM22.2187 11.508C22.4062 11.6018 22.5 11.7564 22.5 11.9533C22.5 12.4314 21.8531 12.6236 21.6094 12.2205C21.4406 11.9486 21.5016 11.6908 21.7641 11.5314C21.9422 11.4189 22.0406 11.4143 22.2187 11.508ZM5.06718 18.6377C5.24062 18.7268 5.3625 18.9846 5.32031 19.1768C5.27812 19.3689 5.04843 19.5471 4.83281 19.5471C4.34531 19.5471 4.14843 18.9049 4.56562 18.6518C4.74375 18.5439 4.87968 18.5393 5.06718 18.6377ZM12.2203 21.6096C12.6187 21.8486 12.4266 22.5002 11.9578 22.5002C11.7469 22.5002 11.5687 22.3783 11.4844 22.1768C11.4094 21.9939 11.4562 21.8205 11.625 21.6518C11.7844 21.4877 12 21.4736 12.2203 21.6096Z" fill="white"/>
<path d="M9.43594 7.26135C9.04687 7.35979 8.68125 7.70197 8.57812 8.0676C8.31562 8.98166 9.08437 9.82072 9.99844 9.61447C10.8562 9.42229 11.2172 8.38166 10.6687 7.66447C10.4344 7.35979 9.83437 7.16291 9.43594 7.26135ZM9.90937 7.98791C10.2422 8.12854 10.3312 8.52229 10.0828 8.76604C9.91406 8.93479 9.74062 8.98166 9.55781 8.90666C9.15 8.73322 9.13125 8.16604 9.52969 7.9926C9.71719 7.90822 9.72187 7.90822 9.90937 7.98791Z" fill="white"/>
<path d="M14.7281 10.2C14.3109 10.4062 14.0906 10.7812 14.0906 11.2734C14.0906 11.9812 14.5828 12.4688 15.3 12.4688C16.2891 12.4688 16.8375 11.3531 16.2469 10.5422C15.9141 10.0875 15.2484 9.9375 14.7281 10.2ZM15.6094 10.9172C15.7781 11.0859 15.825 11.2594 15.75 11.4422C15.5672 11.8781 14.9625 11.8641 14.8125 11.4187C14.6578 10.9453 15.2578 10.5656 15.6094 10.9172Z" fill="white"/>
<path d="M9.08906 12.9516C8.40937 13.2375 8.03906 13.8047 8.03906 14.5547C8.03906 14.8734 8.0625 14.9766 8.18437 15.2344C8.3625 15.6047 8.63906 15.8906 8.99062 16.0641C9.22969 16.1813 9.30937 16.1953 9.72656 16.1953C10.1344 16.1953 10.2281 16.1813 10.4531 16.0734C11.5031 15.5813 11.7562 14.1703 10.9406 13.3313C10.6266 13.0078 10.2891 12.8719 9.77344 12.8531C9.41719 12.8438 9.30937 12.8578 9.08906 12.9516ZM10.275 13.7156C10.8562 14.1234 10.8562 14.9438 10.275 15.3516C10.0922 15.4781 10.0312 15.4922 9.73125 15.4922C9.44062 15.4922 9.36562 15.4734 9.19687 15.3656C8.52187 14.9156 8.625 13.9125 9.375 13.5984C9.44062 13.5703 9.62344 13.5516 9.78281 13.5609C10.0219 13.5703 10.1156 13.6031 10.275 13.7156Z" fill="white"/>
<path d="M18.2672 18.2719C18.2203 18.3188 18.1875 18.4313 18.1875 18.5203C18.1875 18.6516 18.2391 18.7266 18.4969 18.9891L18.8016 19.2985L18.7031 19.5985C18.5203 20.1328 18.6375 20.7 19.0078 21.0703C19.5891 21.6516 20.5781 21.6375 21.1172 21.0375C21.3844 20.7469 21.4875 20.475 21.4875 20.0625C21.4922 19.7766 21.4687 19.6594 21.3703 19.4485C21.0469 18.7547 20.3297 18.4547 19.5984 18.7031L19.2984 18.8016L18.9891 18.4969C18.7219 18.2297 18.6516 18.1875 18.5109 18.1875C18.4078 18.1875 18.3141 18.2203 18.2672 18.2719ZM20.4844 19.4531C20.6953 19.6031 20.8312 19.9172 20.7891 20.1703C20.7422 20.4422 20.4422 20.7422 20.1703 20.7891C19.7484 20.8594 19.3594 20.5406 19.3219 20.0906C19.3031 19.8141 19.4156 19.5985 19.6875 19.4156C19.8984 19.2703 20.2547 19.2891 20.4844 19.4531Z" fill="white"/>
</g>
</g>
<defs>
<clipPath id="clip0_225_1988">
<rect width="24" height="24" fill="white"/>
</clipPath>
<clipPath id="clip1_225_1988">
<rect width="24" height="24" fill="white"/>
</clipPath>
</defs>
</svg>
