<svg width="24" height="24" viewBox="0 0 24 24" fill="none" xmlns="http://www.w3.org/2000/svg">
<g clip-path="url(#clip0_2_6535)">
<rect width="24" height="24" fill="white"/>
<path d="M3.3375 0.192186C3.00938 0.356249 2.84531 0.525 2.67656 0.890625C2.56875 1.12969 2.55469 1.21406 2.54063 1.93125L2.52188 2.71875H1.35469C0.248438 2.71875 0.182813 2.72344 0.09375 2.8125C0 2.90625 0 2.96719 0 11.6203V20.3391L0.121875 20.4328C0.24375 20.5312 0.290625 20.5312 2.48438 20.5312C4.67813 20.5312 4.725 20.5312 4.84688 20.4328C5.01094 20.3062 5.01562 20.0297 4.86094 19.8844C4.75313 19.7812 4.73906 19.7812 2.75156 19.7812H0.75V13.5234V7.26562H8.36719C15.9234 7.26562 15.9844 7.26562 16.0781 7.17187C16.2094 7.04062 16.2047 6.75 16.0734 6.62812C15.975 6.54375 15.7734 6.53906 8.3625 6.525L0.75 6.51562V4.99219V3.46875H1.63594H2.51719L2.54531 4.00781C2.56406 4.44375 2.59219 4.59375 2.68594 4.8C3.17813 5.87812 4.6875 5.90625 5.24063 4.85156C5.34844 4.64531 5.36719 4.55156 5.38125 4.04531L5.4 3.47344L6.49219 3.45937C7.49063 3.44531 7.59375 3.43594 7.68281 3.35625C7.81406 3.23438 7.81875 2.94375 7.6875 2.8125C7.59844 2.72344 7.53281 2.71875 6.49688 2.71875H5.4L5.38125 1.88437C5.36719 1.125 5.35781 1.03594 5.25938 0.84375C4.88438 0.121874 4.04531 -0.164062 3.3375 0.192186ZM4.30313 0.890625C4.3875 0.942186 4.49531 1.05 4.54688 1.13437C4.63594 1.27969 4.64062 1.37344 4.64062 2.8125C4.64062 4.17188 4.63125 4.35469 4.55625 4.5C4.32188 4.96406 3.68438 4.99687 3.4125 4.55156C3.30469 4.38281 3.30469 4.36406 3.30469 2.83594C3.30469 1.43437 3.31406 1.275 3.38906 1.13437C3.5625 0.815624 3.98906 0.703125 4.30313 0.890625Z" fill="#455A64"/>
<path d="M18.1407 0.089222C17.747 0.215786 17.3861 0.553286 17.2501 0.923597C17.1704 1.13922 17.1564 1.28922 17.1564 1.94547V2.71891H13.0407H8.92043L8.82199 2.82672C8.71887 2.93454 8.69074 3.10797 8.74699 3.25797C8.83137 3.46891 8.79387 3.46891 13.097 3.46891H17.147L17.1657 4.04078C17.1798 4.68297 17.2501 4.88453 17.5595 5.20797C18.0845 5.75172 19.0079 5.76579 19.5423 5.24079C19.8845 4.90329 19.9689 4.66422 19.9689 4.01735V3.46891H20.8829H21.797V4.99235V6.5111L19.5657 6.52516L17.3345 6.53922L17.2454 6.65172C17.1236 6.80172 17.1282 7.0361 17.2642 7.16266C17.372 7.26579 17.3767 7.26579 19.5845 7.26579H21.797V9.98922V12.7127L21.6704 12.6142C20.8876 12.0142 19.9267 11.5314 19.1861 11.3673L19.0314 11.3345V10.2377V9.1361L18.9142 9.0236L18.8017 8.90641H17.5407C16.3361 8.90641 16.2751 8.9111 16.1532 9.00485L16.0314 9.0986V10.2377V11.372L15.6939 11.4798C15.5064 11.5408 15.2204 11.6486 15.0611 11.7236C14.897 11.7939 14.7657 11.8361 14.7657 11.8127C14.7657 11.7892 14.7892 11.7564 14.8126 11.7423C14.8407 11.7236 14.8595 11.2267 14.8595 10.4064V9.0986L14.7376 9.00485C14.6157 8.9111 14.5548 8.90641 13.3595 8.90641C12.1642 8.90641 12.1032 8.9111 11.9814 9.00485L11.8595 9.0986V10.4111C11.8595 11.6439 11.8642 11.7236 11.9486 11.808C12.0845 11.9439 12.2486 11.958 13.4814 11.9439L14.6064 11.9298L14.2923 12.122C12.7314 13.083 11.6064 14.7423 11.3204 16.5002C11.1751 17.4142 11.2501 18.6283 11.5079 19.4392L11.6157 19.7814H8.83606C7.30793 19.7814 6.01887 19.7955 5.97668 19.8095C5.93918 19.8283 5.86887 19.9033 5.83137 19.9783C5.73762 20.1564 5.81262 20.4002 5.98137 20.4798C6.06574 20.5173 6.92356 20.5314 9.02356 20.5314H11.9486L12.0939 20.7939C12.3564 21.2439 12.7689 21.7595 13.2236 22.1955C14.0907 23.0298 15.1361 23.5877 16.3126 23.8408C16.8751 23.9627 18.3236 23.9673 18.8907 23.8455C21.5204 23.283 23.4704 21.2627 23.9298 18.6142C24.0236 18.0939 24.0189 17.0533 23.9251 16.4955C23.7751 15.5908 23.372 14.6252 22.8329 13.8752L22.547 13.4767V8.1986V2.92047L22.4392 2.82203C22.3314 2.7236 22.2986 2.71891 21.1501 2.71891H19.9689V1.90797C19.9689 1.15797 19.9595 1.08297 19.8564 0.862659C19.7251 0.576723 19.4767 0.318911 19.2048 0.178286C18.9939 0.0704727 18.3611 0.0142231 18.1407 0.089222ZM18.9095 0.886097C18.9798 0.932972 19.0829 1.0361 19.1298 1.10641C19.2142 1.23297 19.2189 1.35485 19.2189 2.84547V4.44391L19.097 4.59391C18.7689 4.98297 18.2532 4.95485 18.0001 4.53297C17.9111 4.39235 17.9064 4.28453 17.9064 2.84547C17.9064 1.20016 17.9111 1.17204 18.1501 0.956409C18.2064 0.90016 18.2907 0.84391 18.3282 0.829847C18.4829 0.773598 18.7782 0.801723 18.9095 0.886097ZM14.1095 10.4064V11.1564H13.3595H12.6095V10.4064V9.65641H13.3595H14.1095V10.4064ZM18.2814 10.4064V11.1564H17.5314H16.7814V10.4064V9.65641H17.5314H18.2814V10.4064ZM19.0032 12.1127C19.5657 12.258 20.2454 12.558 20.7189 12.8673C21.1689 13.1627 22.0407 14.0345 22.3361 14.4845C22.6407 14.9533 22.9407 15.633 23.0954 16.2002C23.2126 16.6267 23.222 16.7345 23.222 17.5783C23.222 18.4127 23.2126 18.5298 23.1001 18.9377C22.8329 19.9173 22.3642 20.7517 21.6657 21.4736C20.5782 22.608 19.172 23.2033 17.6017 23.2033C15.3611 23.2033 13.3454 21.858 12.4314 19.7533C12.0704 18.933 11.9111 17.6955 12.0423 16.7814C12.347 14.7002 13.8845 12.872 15.8814 12.2158C16.5142 12.0048 16.9126 11.9533 17.7423 11.972C18.4126 11.9861 18.6142 12.0095 19.0032 12.1127Z" fill="#455A64"/>
<path d="M16.6688 14.7328C16.3828 14.8969 16.3125 15.075 16.3125 15.6609V16.1625L15.7875 16.1812C15.1922 16.2 15.0094 16.2656 14.8594 16.5141C14.775 16.65 14.7656 16.7531 14.7656 17.4844C14.7656 18.1969 14.775 18.3281 14.8547 18.4687C15 18.7453 15.1828 18.8156 15.7875 18.8391L16.3125 18.8531V19.3547C16.3125 19.9594 16.3781 20.1281 16.6875 20.2828C16.875 20.3812 16.9594 20.3906 17.625 20.3906C18.2906 20.3906 18.375 20.3812 18.5625 20.2828C18.8719 20.1281 18.9375 19.9594 18.9375 19.3547V18.8531L19.4672 18.8344C20.0625 18.8156 20.2313 18.7547 20.3859 18.5016C20.475 18.3516 20.4844 18.2719 20.4844 17.5031C20.4844 16.7531 20.475 16.65 20.3906 16.5141C20.2406 16.2656 20.0578 16.2 19.4672 16.1812L18.9469 16.1625L18.9281 15.6094C18.9141 14.9859 18.8672 14.8734 18.5625 14.7141C18.4219 14.6391 18.2906 14.625 17.625 14.625C16.9125 14.625 16.8375 14.6344 16.6688 14.7328ZM18.1969 16.05C18.2156 16.9594 18.1781 16.9219 19.0641 16.9219H19.7344V17.5078V18.0938H19.0594C18.3844 18.0938 18.3797 18.0938 18.2859 18.2156C18.1969 18.3281 18.1875 18.4031 18.1875 18.9891V19.6406H17.625H17.0625V18.9891C17.0625 18.4031 17.0531 18.3281 16.9641 18.2156C16.8703 18.0938 16.8656 18.0938 16.1906 18.0938H15.5156V17.5078V16.9219H16.1906C16.8656 16.9219 16.8703 16.9219 16.9641 16.8C17.0531 16.6875 17.0625 16.6125 17.0625 16.0266V15.375H17.6203H18.1828L18.1969 16.05Z" fill="#455A64"/>
<path d="M3.6375 9.00469L3.51562 9.09844V10.3875C3.51562 11.1422 3.53438 11.7141 3.5625 11.7656C3.64688 11.925 3.86719 11.9531 5.01562 11.9531C6.16406 11.9531 6.38438 11.925 6.46875 11.7656C6.49688 11.7141 6.51562 11.1422 6.51562 10.3875V9.09844L6.39375 9.00469C6.27188 8.91094 6.21094 8.90625 5.01562 8.90625C3.82031 8.90625 3.75938 8.91094 3.6375 9.00469ZM5.76562 10.4062V11.1562H5.01562H4.26562V10.4062V9.65625H5.01562H5.76562V10.4062Z" fill="#455A64"/>
<path d="M7.80938 9.00469L7.6875 9.09844V10.3875C7.6875 11.1422 7.70625 11.7141 7.73438 11.7656C7.81875 11.925 8.03906 11.9531 9.1875 11.9531C10.3359 11.9531 10.5563 11.925 10.6406 11.7656C10.6688 11.7141 10.6875 11.1422 10.6875 10.3875V9.09844L10.5656 9.00469C10.4438 8.91094 10.3828 8.90625 9.1875 8.90625C7.99219 8.90625 7.93125 8.91094 7.80938 9.00469ZM9.9375 10.4062V11.1562H9.1875H8.4375V10.4062V9.65625H9.1875H9.9375V10.4062Z" fill="#455A64"/>
<path d="M3.71719 13.8281C3.52969 13.9031 3.51562 14.0062 3.51562 15.3187C3.51562 16.4953 3.52031 16.5891 3.60469 16.6922L3.69375 16.8047H5.01562H6.3375L6.42656 16.6922C6.51094 16.5891 6.51562 16.4953 6.51562 15.3047C6.51562 14.1141 6.51094 14.0203 6.42656 13.9172L6.3375 13.8047L5.07656 13.7953C4.3875 13.7906 3.77344 13.8047 3.71719 13.8281ZM5.76562 15.3047V16.0781H5.01562H4.26562V15.3047V14.5312H5.01562H5.76562V15.3047Z" fill="#455A64"/>
<path d="M7.92188 13.8141C7.6875 13.9031 7.6875 13.8937 7.6875 15.2812C7.6875 16.4953 7.69219 16.5891 7.77656 16.6922L7.86563 16.8047H9.1875H10.5094L10.5984 16.6922C10.6828 16.5891 10.6875 16.4953 10.6875 15.3047C10.6875 14.1141 10.6828 14.0203 10.5984 13.9172L10.5094 13.8047L9.24844 13.7953C8.55938 13.7906 7.95938 13.8 7.92188 13.8141ZM9.9375 15.3047V16.0781H9.1875H8.4375V15.3047V14.5312H9.1875H9.9375V15.3047Z" fill="#455A64"/>
</g>
<defs>
<clipPath id="clip0_2_6535">
<rect width="24" height="24" fill="white"/>
</clipPath>
</defs>
</svg>
