<svg width="48" height="48" viewBox="0 0 48 48" fill="none" xmlns="http://www.w3.org/2000/svg">
<g clip-path="url(#clip0_33_2608)">
<rect width="48" height="48" fill="white"/>
<path d="M6.675 0.384373C6.01875 0.712498 5.69063 1.05 5.35313 1.78125C5.1375 2.25937 5.10938 2.42812 5.08125 3.8625L5.04375 5.4375H2.70938C0.496875 5.4375 0.365625 5.44687 0.1875 5.625C0 5.8125 0 5.93437 0 23.2406V40.6781L0.24375 40.8656C0.4875 41.0625 0.58125 41.0625 4.96875 41.0625C9.35625 41.0625 9.45 41.0625 9.69375 40.8656C10.0219 40.6125 10.0313 40.0594 9.72188 39.7687C9.50625 39.5625 9.47813 39.5625 5.50313 39.5625H1.5V27.0469V14.5312H16.7344C31.8469 14.5312 31.9688 14.5312 32.1563 14.3437C32.4188 14.0812 32.4094 13.5 32.1469 13.2562C31.95 13.0875 31.5469 13.0781 16.725 13.05L1.5 13.0312V9.98437V6.9375H3.27188H5.03438L5.09063 8.01562C5.12813 8.8875 5.18438 9.1875 5.37188 9.6C6.35625 11.7562 9.375 11.8125 10.4813 9.70312C10.6969 9.29062 10.7344 9.10312 10.7625 8.09062L10.8 6.94687L12.9844 6.91875C14.9813 6.89062 15.1875 6.87187 15.3656 6.7125C15.6281 6.46875 15.6375 5.8875 15.375 5.625C15.1969 5.44687 15.0656 5.4375 12.9938 5.4375H10.8L10.7625 3.76875C10.7344 2.25 10.7156 2.07187 10.5188 1.6875C9.76875 0.243748 8.09063 -0.328127 6.675 0.384373ZM8.60625 1.78125C8.775 1.88437 8.99063 2.1 9.09375 2.26875C9.27188 2.55937 9.28125 2.74687 9.28125 5.625C9.28125 8.34375 9.2625 8.70937 9.1125 9C8.64375 9.92812 7.36875 9.99375 6.825 9.10312C6.60938 8.76562 6.60938 8.72812 6.60938 5.67187C6.60938 2.86875 6.62813 2.55 6.77813 2.26875C7.125 1.63125 7.97813 1.40625 8.60625 1.78125Z" fill="#095FBA"/>
<path d="M36.2812 0.178201C35.4937 0.431326 34.7719 1.10633 34.5 1.84695C34.3406 2.2782 34.3125 2.5782 34.3125 3.8907V5.43758H26.0812H17.8406L17.6437 5.6532C17.4375 5.86883 17.3812 6.2157 17.4937 6.5157C17.6625 6.93758 17.5875 6.93758 26.1937 6.93758H34.2937L34.3312 8.08133C34.3594 9.3657 34.5 9.76883 35.1187 10.4157C36.1687 11.5032 38.0156 11.5313 39.0844 10.4813C39.7687 9.80633 39.9375 9.3282 39.9375 8.03445V6.93758H41.7656H43.5937V9.98445V13.022L39.1312 13.0501L34.6687 13.0782L34.4906 13.3032C34.2469 13.6032 34.2562 14.072 34.5281 14.3251C34.7437 14.5313 34.7531 14.5313 39.1687 14.5313H43.5937V19.9782V25.4251L43.3406 25.2282C41.775 24.0282 39.8531 23.0626 38.3719 22.7345L38.0625 22.6688V20.4751V18.272L37.8281 18.047L37.6031 17.8126H35.0812C32.6719 17.8126 32.55 17.822 32.3062 18.0095L32.0625 18.197V20.4751V22.7438L31.3875 22.9595C31.0125 23.0813 30.4406 23.297 30.1219 23.447C29.7937 23.5876 29.5312 23.672 29.5312 23.6251C29.5312 23.5782 29.5781 23.5126 29.625 23.4845C29.6812 23.447 29.7187 22.4532 29.7187 20.8126V18.197L29.475 18.0095C29.2312 17.822 29.1094 17.8126 26.7187 17.8126C24.3281 17.8126 24.2062 17.822 23.9625 18.0095L23.7187 18.197V20.822C23.7187 23.2876 23.7281 23.447 23.8969 23.6157C24.1687 23.8876 24.4969 23.9157 26.9625 23.8876L29.2125 23.8595L28.5844 24.2438C25.4625 26.1657 23.2125 29.4845 22.6406 33.0001C22.35 34.8282 22.5 37.2563 23.0156 38.8782L23.2312 39.5626H17.6719C14.6156 39.5626 12.0375 39.5907 11.9531 39.6188C11.8781 39.6563 11.7375 39.8063 11.6625 39.9563C11.475 40.3126 11.625 40.8001 11.9625 40.9595C12.1312 41.0345 13.8469 41.0626 18.0469 41.0626H23.8969L24.1875 41.5876C24.7125 42.4876 25.5375 43.5188 26.4469 44.3907C28.1812 46.0595 30.2719 47.1751 32.625 47.6813C33.75 47.9251 36.6469 47.9345 37.7812 47.6907C43.0406 46.5657 46.9406 42.5251 47.8594 37.2282C48.0469 36.1876 48.0375 34.1063 47.85 32.9907C47.55 31.1813 46.7437 29.2501 45.6656 27.7501L45.0937 26.9532V16.397V5.8407L44.8781 5.64383C44.6625 5.44695 44.5969 5.43758 42.3 5.43758H39.9375V3.8157C39.9375 2.3157 39.9187 2.1657 39.7125 1.72508C39.45 1.1532 38.9531 0.637576 38.4094 0.356326C37.9875 0.140701 36.7219 0.0282009 36.2812 0.178201ZM37.8187 1.77195C37.9594 1.8657 38.1656 2.07195 38.2594 2.21258C38.4281 2.4657 38.4375 2.70945 38.4375 5.6907V8.88758L38.1937 9.18758C37.5375 9.9657 36.5062 9.90945 36 9.0657C35.8219 8.78445 35.8125 8.56883 35.8125 5.6907C35.8125 2.40008 35.8219 2.34383 36.3 1.91258C36.4125 1.80008 36.5812 1.68758 36.6562 1.65945C36.9656 1.54695 37.5562 1.6032 37.8187 1.77195ZM28.2187 20.8126V22.3126H26.7187H25.2187V20.8126V19.3126H26.7187H28.2187V20.8126ZM36.5625 20.8126V22.3126H35.0625H33.5625V20.8126V19.3126H35.0625H36.5625V20.8126ZM38.0062 24.2251C39.1312 24.5157 40.4906 25.1157 41.4375 25.7345C42.3375 26.3251 44.0812 28.0688 44.6719 28.9688C45.2812 29.9063 45.8812 31.2657 46.1906 32.4001C46.425 33.2532 46.4437 33.4688 46.4437 35.1563C46.4437 36.8251 46.425 37.0595 46.2 37.8751C45.6656 39.8345 44.7281 41.5032 43.3312 42.947C41.1562 45.2157 38.3437 46.4063 35.2031 46.4063C30.7219 46.4063 26.6906 43.7157 24.8625 39.5063C24.1406 37.8657 23.8219 35.3907 24.0844 33.5626C24.6937 29.4001 27.7687 25.7438 31.7625 24.4313C33.0281 24.0095 33.825 23.9063 35.4844 23.9438C36.825 23.972 37.2281 24.0188 38.0062 24.2251Z" fill="#095FBA"/>
<path d="M33.3375 29.4656C32.7656 29.7937 32.625 30.15 32.625 31.3219V32.325L31.575 32.3625C30.3844 32.4 30.0188 32.5312 29.7188 33.0281C29.55 33.3 29.5312 33.5062 29.5312 34.9687C29.5312 36.3937 29.55 36.6562 29.7094 36.9375C30 37.4906 30.3656 37.6312 31.575 37.6781L32.625 37.7062V38.7094C32.625 39.9187 32.7563 40.2562 33.375 40.5656C33.75 40.7625 33.9188 40.7812 35.25 40.7812C36.5813 40.7812 36.75 40.7625 37.125 40.5656C37.7438 40.2562 37.875 39.9187 37.875 38.7094V37.7062L38.9344 37.6687C40.125 37.6312 40.4625 37.5094 40.7719 37.0031C40.95 36.7031 40.9688 36.5437 40.9688 35.0062C40.9688 33.5062 40.95 33.3 40.7813 33.0281C40.4813 32.5312 40.1156 32.4 38.9344 32.3625L37.8938 32.325L37.8563 31.2187C37.8281 29.9719 37.7344 29.7469 37.125 29.4281C36.8438 29.2781 36.5813 29.25 35.25 29.25C33.825 29.25 33.675 29.2687 33.3375 29.4656ZM36.3938 32.1C36.4313 33.9187 36.3563 33.8437 38.1281 33.8437H39.4688V35.0156V36.1875H38.1188C36.7688 36.1875 36.7594 36.1875 36.5719 36.4312C36.3938 36.6562 36.375 36.8062 36.375 37.9781V39.2812H35.25H34.125V37.9781C34.125 36.8062 34.1063 36.6562 33.9281 36.4312C33.7406 36.1875 33.7313 36.1875 32.3813 36.1875H31.0313V35.0156V33.8437H32.3813C33.7313 33.8437 33.7406 33.8437 33.9281 33.6C34.1063 33.375 34.125 33.225 34.125 32.0531V30.75H35.2406H36.3656L36.3938 32.1Z" fill="#095FBA"/>
<path d="M7.275 18.0094L7.03125 18.1969V20.775C7.03125 22.2844 7.06875 23.4281 7.125 23.5312C7.29375 23.85 7.73438 23.9062 10.0313 23.9062C12.3281 23.9062 12.7688 23.85 12.9375 23.5312C12.9938 23.4281 13.0313 22.2844 13.0313 20.775V18.1969L12.7875 18.0094C12.5438 17.8219 12.4219 17.8125 10.0313 17.8125C7.64063 17.8125 7.51875 17.8219 7.275 18.0094ZM11.5313 20.8125V22.3125H10.0313H8.53125V20.8125V19.3125H10.0313H11.5313V20.8125Z" fill="#095FBA"/>
<path d="M15.6188 18.0094L15.375 18.1969V20.775C15.375 22.2844 15.4125 23.4281 15.4688 23.5312C15.6375 23.85 16.0781 23.9062 18.375 23.9062C20.6719 23.9062 21.1125 23.85 21.2813 23.5312C21.3375 23.4281 21.375 22.2844 21.375 20.775V18.1969L21.1313 18.0094C20.8875 17.8219 20.7656 17.8125 18.375 17.8125C15.9844 17.8125 15.8625 17.8219 15.6188 18.0094ZM19.875 20.8125V22.3125H18.375H16.875V20.8125V19.3125H18.375H19.875V20.8125Z" fill="#095FBA"/>
<path d="M7.43438 27.6562C7.05938 27.8062 7.03125 28.0125 7.03125 30.6375C7.03125 32.9906 7.04063 33.1781 7.20938 33.3844L7.3875 33.6094H10.0313H12.675L12.8531 33.3844C13.0219 33.1781 13.0313 32.9906 13.0313 30.6094C13.0313 28.2281 13.0219 28.0406 12.8531 27.8344L12.675 27.6094L10.1531 27.5906C8.775 27.5812 7.54688 27.6094 7.43438 27.6562ZM11.5313 30.6094V32.1562H10.0313H8.53125V30.6094V29.0625H10.0313H11.5313V30.6094Z" fill="#095FBA"/>
<path d="M15.8438 27.6281C15.375 27.8062 15.375 27.7875 15.375 30.5625C15.375 32.9906 15.3844 33.1781 15.5531 33.3844L15.7313 33.6094H18.375H21.0188L21.1969 33.3844C21.3656 33.1781 21.375 32.9906 21.375 30.6094C21.375 28.2281 21.3656 28.0406 21.1969 27.8344L21.0188 27.6094L18.4969 27.5906C17.1188 27.5812 15.9188 27.6 15.8438 27.6281ZM19.875 30.6094V32.1562H18.375H16.875V30.6094V29.0625H18.375H19.875V30.6094Z" fill="#095FBA"/>
</g>
<defs>
<clipPath id="clip0_33_2608">
<rect width="48" height="48" fill="white"/>
</clipPath>
</defs>
</svg>
