<svg width="14" height="14" viewBox="0 0 14 14" fill="none" xmlns="http://www.w3.org/2000/svg">
<g clip-path="url(#clip0_33_3333)">
<path d="M8.99063 0.481174C8.49844 0.568674 7.98164 0.790159 7.56602 1.08821C7.41289 1.19758 6.38203 2.19836 4.14805 4.41594C2.38984 6.16047 0.935156 7.62063 0.913281 7.66164C0.891406 7.70266 0.875 7.8011 0.875 7.88039C0.875 8.05266 0.940625 8.17844 1.07188 8.25774C1.19219 8.33157 1.43281 8.33157 1.54492 8.26047C1.59141 8.23039 3.04063 6.80305 4.77148 5.08586C6.49961 3.36867 7.98711 1.90852 8.08008 1.84016C8.52031 1.5093 9.04805 1.33703 9.625 1.33703C10.3688 1.33703 11.0031 1.61321 11.5172 2.15735C11.9984 2.66594 12.2227 3.23196 12.2227 3.93742C12.2227 4.41321 12.1434 4.74133 11.9219 5.16242C11.8617 5.28 11.7469 5.45774 11.6648 5.55344C11.5855 5.64914 10.0707 7.1968 8.29609 8.99055C5.91445 11.4023 5.02305 12.2882 4.88633 12.3784C4.78242 12.4468 4.61016 12.5343 4.50352 12.5753C4.33125 12.6355 4.26563 12.6464 3.95117 12.6464C3.64766 12.6464 3.56563 12.6355 3.39609 12.5808C2.89023 12.414 2.46094 11.9874 2.29414 11.4816C2.23945 11.312 2.22852 11.2245 2.22852 10.9374C2.22852 10.5245 2.29141 10.3003 2.48828 9.9968C2.67695 9.70696 7.28984 5.13508 7.50859 5.0175C7.93242 4.79602 8.45742 4.98469 8.59961 5.41125C8.65977 5.59719 8.64336 5.85149 8.55859 6.03469C8.50938 6.1386 8.01719 6.64719 6.24805 8.4218C5.00938 9.66321 3.98398 10.705 3.96758 10.7378C3.95117 10.7706 3.9375 10.8636 3.9375 10.9429C3.9375 11.2081 4.1043 11.3749 4.36953 11.3749C4.44883 11.3749 4.54727 11.3585 4.58828 11.3366C4.6293 11.3148 5.69023 10.2648 6.94805 9.00422L9.23398 6.71282L9.34883 6.47766C9.60586 5.94719 9.60586 5.3511 9.34609 4.85891C9.23125 4.64016 8.92227 4.33117 8.70352 4.21633C8.20313 3.9511 7.56875 3.95657 7.04648 4.23C6.87148 4.32024 6.70469 4.4761 5.52344 5.63547C3.45078 7.67532 1.85391 9.29133 1.73906 9.46907C1.59961 9.68508 1.46289 9.98313 1.38906 10.2429C1.33438 10.4316 1.32617 10.5191 1.32617 10.9374C1.32617 11.3558 1.33438 11.4433 1.38906 11.632C1.65156 12.5398 2.32695 13.2206 3.2293 13.4831C3.37969 13.5269 3.53281 13.5433 3.82813 13.5542C4.29297 13.5706 4.60195 13.5187 4.96289 13.371C5.46055 13.1632 5.37852 13.237 8.96602 9.60852C11.2 7.34992 12.3402 6.17688 12.4578 6.01828C12.7668 5.60266 12.9938 5.06946 13.084 4.54719C13.1359 4.24367 13.1359 3.62844 13.084 3.32492C12.9938 2.81633 12.7777 2.29953 12.4797 1.88391C12.2965 1.63235 11.8973 1.23586 11.6457 1.05813C11.252 0.779221 10.727 0.563206 10.2375 0.47844C9.94219 0.426487 9.28047 0.429221 8.99063 0.481174Z" fill="#717B9E"/>
</g>
<defs>
<clipPath id="clip0_33_3333">
<rect width="14" height="14" fill="white"/>
</clipPath>
</defs>
</svg>
