<svg width="24" height="24" viewBox="0 0 24 24" fill="none" xmlns="http://www.w3.org/2000/svg">
<g clip-path="url(#clip0_33_3085)">
<path d="M3.9376 0.937398V1.8749H3.15948C2.27354 1.8749 2.00635 1.92646 1.48135 2.18896C1.03135 2.41396 0.539167 2.90615 0.314167 3.35615C-0.0233331 4.02646 0.000104424 3.2999 0.000104424 12.9374C0.000104424 22.5749 -0.0233331 21.8483 0.314167 22.5186C0.539167 22.9686 1.03135 23.4608 1.48135 23.6858C2.15635 24.0233 1.32198 23.9999 12.0001 23.9999C22.6782 23.9999 21.8439 24.0233 22.5189 23.6858C22.9689 23.4608 23.461 22.9686 23.686 22.5186C24.0235 21.8483 24.0001 22.5749 24.0001 12.9374C24.0001 3.2999 24.0235 4.02646 23.686 3.35615C23.461 2.90615 22.9689 2.41396 22.5189 2.18896C21.9939 1.92646 21.7267 1.8749 20.8407 1.8749H20.0626V0.937398V-0.000102329H19.1251H18.1876V0.937398V1.8749H12.0001H5.8126V0.937398V-0.000102329H4.8751H3.9376V0.937398ZM3.9376 4.6874V5.6249H4.8751H5.8126V4.6874V3.7499H12.0001H18.1876V4.6874V5.6249H19.1251H20.0626V4.68271V3.73583L20.7329 3.75927C21.361 3.77802 21.422 3.7874 21.6235 3.90458C21.7642 3.98896 21.886 4.11083 21.9704 4.25615L22.1017 4.47646L22.1157 5.70458L22.1345 6.9374H12.0001H1.86573L1.88448 5.70458L1.89854 4.47646L2.0251 4.25615C2.16573 4.01708 2.40948 3.84365 2.66729 3.79208C2.76104 3.77333 3.08448 3.75927 3.38917 3.75458L3.9376 3.7499V4.6874ZM22.1157 15.103L22.1017 21.3983L21.9704 21.6186C21.886 21.764 21.7642 21.8858 21.6189 21.9702L21.3985 22.1015H12.0001H2.60167L2.38135 21.9702C2.23604 21.8858 2.11417 21.764 2.02979 21.6186L1.89854 21.3983L1.88448 15.103L1.8751 8.8124H12.0001H22.1251L22.1157 15.103Z" fill="white"/>
<path d="M3.5625 11.7187V12.6562H4.5H5.4375V11.7187V10.7812H4.5H3.5625V11.7187Z" fill="white"/>
<path d="M7.3125 11.7187V12.6562H8.25H9.1875V11.7187V10.7812H8.25H7.3125V11.7187Z" fill="white"/>
<path d="M11.0625 11.7187V12.6562H12H12.9375V11.7187V10.7812H12H11.0625V11.7187Z" fill="white"/>
<path d="M14.8125 11.7187V12.6562H15.75H16.6875V11.7187V10.7812H15.75H14.8125V11.7187Z" fill="white"/>
<path d="M18.5625 11.7187V12.6562H19.5H20.4375V11.7187V10.7812H19.5H18.5625V11.7187Z" fill="white"/>
<path d="M3.5625 15.4687V16.4062H4.5H5.4375V15.4687V14.5312H4.5H3.5625V15.4687Z" fill="white"/>
<path d="M7.3125 15.4687V16.4062H8.25H9.1875V15.4687V14.5312H8.25H7.3125V15.4687Z" fill="white"/>
<path d="M11.0625 15.4687V16.4062H12H12.9375V15.4687V14.5312H12H11.0625V15.4687Z" fill="white"/>
<path d="M14.8125 15.4687V16.4062H15.75H16.6875V15.4687V14.5312H15.75H14.8125V15.4687Z" fill="white"/>
<path d="M18.5625 15.4687V16.4062H19.5H20.4375V15.4687V14.5312H19.5H18.5625V15.4687Z" fill="white"/>
<path d="M3.5625 19.2187V20.1562H4.5H5.4375V19.2187V18.2812H4.5H3.5625V19.2187Z" fill="white"/>
<path d="M7.3125 19.2187V20.1562H8.25H9.1875V19.2187V18.2812H8.25H7.3125V19.2187Z" fill="white"/>
<path d="M11.0625 19.2187V20.1562H12H12.9375V19.2187V18.2812H12H11.0625V19.2187Z" fill="white"/>
<path d="M14.8125 19.2187V20.1562H15.75H16.6875V19.2187V18.2812H15.75H14.8125V19.2187Z" fill="white"/>
</g>
<defs>
<clipPath id="clip0_33_3085">
<rect width="24" height="24" fill="white"/>
</clipPath>
</defs>
</svg>
