<svg width="14" height="14" viewBox="0 0 14 14" fill="none" xmlns="http://www.w3.org/2000/svg">
<g clip-path="url(#clip0_63_3928)">
<path d="M2.29683 0.546916V1.09379H1.84293C1.32613 1.09379 1.17027 1.12387 0.864022 1.27699C0.601522 1.40824 0.314412 1.69535 0.183162 1.95785C-0.0137127 2.34887 -4.08111e-05 1.92504 -4.08111e-05 7.54692C-4.08111e-05 13.1688 -0.0137127 12.745 0.183162 13.136C0.314412 13.3985 0.601522 13.6856 0.864022 13.8168C1.25777 14.0137 0.771053 14 6.99996 14C13.2289 14 12.7421 14.0137 13.1359 13.8168C13.3984 13.6856 13.6855 13.3985 13.8168 13.136C14.0136 12.745 14 13.1688 14 7.54692C14 1.92504 14.0136 2.34887 13.8168 1.95785C13.6855 1.69535 13.3984 1.40824 13.1359 1.27699C12.8296 1.12387 12.6738 1.09379 12.157 1.09379H11.7031V0.546916V4.14372e-05H11.1562H10.6093V0.546916V1.09379H6.99996H3.39058V0.546916V4.14372e-05H2.84371H2.29683V0.546916ZM2.29683 2.73442V3.28129H2.84371H3.39058V2.73442V2.18754H6.99996H10.6093V2.73442V3.28129H11.1562H11.7031V2.73168V2.17934L12.0941 2.19301C12.4605 2.20395 12.4961 2.20942 12.6136 2.27778C12.6957 2.32699 12.7668 2.39809 12.816 2.48285L12.8925 2.61137L12.9007 3.32778L12.9117 4.04692H6.99996H1.08824L1.09918 3.32778L1.10738 2.61137L1.18121 2.48285C1.26324 2.3434 1.40543 2.24223 1.55582 2.21215C1.61051 2.20121 1.79918 2.19301 1.97691 2.19028L2.29683 2.18754V2.73442ZM12.9007 8.8102L12.8925 12.4825L12.816 12.611C12.7668 12.6957 12.6957 12.7668 12.6109 12.8161L12.4824 12.8926H6.99996H1.51754L1.38902 12.8161C1.30426 12.7668 1.23316 12.6957 1.18394 12.611L1.10738 12.4825L1.09918 8.8102L1.09371 5.14067H6.99996H12.9062L12.9007 8.8102Z" fill="#717B9E"/>
<path d="M2.07812 6.83594V7.38281H2.625H3.17187V6.83594V6.28906H2.625H2.07812V6.83594Z" fill="#717B9E"/>
<path d="M4.26562 6.83594V7.38281H4.8125H5.35937V6.83594V6.28906H4.8125H4.26562V6.83594Z" fill="#717B9E"/>
<path d="M6.45312 6.83594V7.38281H7H7.54687V6.83594V6.28906H7H6.45312V6.83594Z" fill="#717B9E"/>
<path d="M8.64062 6.83594V7.38281H9.1875H9.73437V6.83594V6.28906H9.1875H8.64062V6.83594Z" fill="#717B9E"/>
<path d="M10.8281 6.83594V7.38281H11.375H11.9219V6.83594V6.28906H11.375H10.8281V6.83594Z" fill="#717B9E"/>
<path d="M2.07812 9.02344V9.57031H2.625H3.17187V9.02344V8.47656H2.625H2.07812V9.02344Z" fill="#717B9E"/>
<path d="M4.26562 9.02344V9.57031H4.8125H5.35937V9.02344V8.47656H4.8125H4.26562V9.02344Z" fill="#717B9E"/>
<path d="M6.45312 9.02344V9.57031H7H7.54687V9.02344V8.47656H7H6.45312V9.02344Z" fill="#717B9E"/>
<path d="M8.64062 9.02344V9.57031H9.1875H9.73437V9.02344V8.47656H9.1875H8.64062V9.02344Z" fill="#717B9E"/>
<path d="M10.8281 9.02344V9.57031H11.375H11.9219V9.02344V8.47656H11.375H10.8281V9.02344Z" fill="#717B9E"/>
<path d="M2.07812 11.2109V11.7578H2.625H3.17187V11.2109V10.6641H2.625H2.07812V11.2109Z" fill="#717B9E"/>
<path d="M4.26562 11.2109V11.7578H4.8125H5.35937V11.2109V10.6641H4.8125H4.26562V11.2109Z" fill="#717B9E"/>
<path d="M6.45312 11.2109V11.7578H7H7.54687V11.2109V10.6641H7H6.45312V11.2109Z" fill="#717B9E"/>
<path d="M8.64062 11.2109V11.7578H9.1875H9.73437V11.2109V10.6641H9.1875H8.64062V11.2109Z" fill="#717B9E"/>
</g>
<defs>
<clipPath id="clip0_63_3928">
<rect width="14" height="14" fill="white"/>
</clipPath>
</defs>
</svg>
