<svg width="24" height="24" viewBox="0 0 24 24" fill="none" xmlns="http://www.w3.org/2000/svg">
<path d="M11.7891 0.660938C11.1141 0.764065 10.5422 1.02656 10.125 1.425C9.93281 1.6125 9.88594 1.63594 9.54844 1.68281C8.34375 1.85625 7.5 2.55 7.14844 3.66563C6.99375 4.15313 6.96094 4.5375 7.03125 5.10938C7.10156 5.72344 7.26094 6.28594 7.52344 6.82031L7.72969 7.24219L7.57031 7.40625C7.30781 7.6875 7.24688 7.85156 7.22813 8.37656C7.21406 8.74219 7.22813 8.90625 7.28906 9.09844C7.39219 9.4125 7.71563 9.76406 7.99219 9.87188C8.16094 9.93281 8.20312 9.975 8.22656 10.0969C8.325 10.5844 8.6625 11.3625 8.9625 11.8031C9.04688 11.925 9.24844 12.1547 9.4125 12.3188L9.7125 12.6141L9.67969 12.8719C9.64219 13.1813 9.49219 13.7438 9.39844 13.9219C9.34219 14.0344 9.22969 14.0766 8.26406 14.3625C7.67813 14.5406 7.14844 14.7094 7.09219 14.7469C7.03594 14.7797 6.97969 14.8688 6.96094 14.9438C6.93281 15.0797 6.92813 15.0797 6.50156 15.1078C4.68281 15.2344 3.13125 16.5656 2.6625 18.4031C2.55938 18.8063 2.55469 18.8906 2.55469 21.0094C2.55469 23.0484 2.55938 23.2031 2.63906 23.2828C2.71875 23.3625 3.15469 23.3672 12 23.3672C20.8453 23.3672 21.2812 23.3625 21.3609 23.2828C21.4406 23.2031 21.4453 23.0484 21.4453 20.9859L21.4406 18.7734L21.3188 18.3234C20.8266 16.5141 19.2844 15.225 17.475 15.1078C17.0813 15.0844 17.0156 15.0656 17.0156 15C17.0156 14.7891 16.8703 14.7188 15.7266 14.3766L14.6016 14.0344L14.4984 13.7578C14.4422 13.6031 14.3625 13.2844 14.3203 13.05L14.2406 12.6234L14.5078 12.3703C14.8313 12.0656 15.1172 11.6719 15.3422 11.2266C15.5063 10.8891 15.75 10.1859 15.75 10.0359C15.75 9.975 15.8203 9.92344 15.9703 9.86719C16.0875 9.82031 16.275 9.69375 16.3828 9.58594C16.6547 9.31875 16.7531 9.00938 16.7578 8.43281C16.7578 8.025 16.7438 7.95938 16.6172 7.71094C16.4906 7.46719 16.2938 7.26563 16.1156 7.20938C16.0875 7.2 16.1391 6.97031 16.2563 6.60938C16.5234 5.775 16.6125 5.19844 16.5797 4.43906C16.5516 3.73594 16.4813 3.41719 16.2234 2.88281C15.8344 2.06719 15.1406 1.45781 14.1047 1.03125C13.3359 0.712502 12.4125 0.562502 11.7891 0.660938ZM13.2422 1.47188C13.7719 1.62656 14.5266 1.99688 14.8453 2.25938C15.3469 2.68125 15.6797 3.21094 15.825 3.825C15.9328 4.28438 15.8953 5.25469 15.7453 5.85L15.6375 6.28594L15.5672 6.10781C15.3469 5.54063 14.8641 5.00625 14.3531 4.76719C14.0438 4.62188 14.0203 4.61719 13.1484 4.58906C12.6609 4.57031 12.2063 4.54219 12.1406 4.52344C11.3859 4.3125 10.9453 4.10625 10.4156 3.70781C9.98438 3.37969 9.8625 3.35625 9.58125 3.54375C8.87344 4.01719 8.30156 4.91719 8.10938 5.85469C8.06719 6.07031 8.02031 6.22969 8.00625 6.20625C7.92188 6.06563 7.77656 5.46563 7.72969 5.04375C7.65469 4.41563 7.71563 4.03125 7.97344 3.51563C8.33906 2.78438 9.075 2.34844 9.94219 2.34375C10.2047 2.34375 10.2094 2.33906 10.5188 2.03906C11.2031 1.35938 12.15 1.1625 13.2422 1.47188ZM10.1813 4.425C11.0531 5.02969 11.9438 5.29219 13.1438 5.30156C13.5234 5.30156 13.8656 5.325 13.9547 5.35781C14.5688 5.5875 15.0047 6.27656 15.1453 7.23281C15.2156 7.70156 15.2859 7.79063 15.6141 7.82813C15.9188 7.85625 16.0359 7.99688 16.0688 8.35313C16.1063 8.82656 15.9094 9.1875 15.5719 9.2625C15.2672 9.32813 15.1875 9.38438 15.15 9.55781C14.8688 10.7719 14.6578 11.2125 14.0859 11.7891C13.5375 12.3422 12.8344 12.6234 12 12.6281C11.0719 12.6328 10.2375 12.2484 9.65625 11.55C9.37969 11.2219 9.06094 10.5469 8.94844 10.0547C8.89219 9.82031 8.83594 9.58125 8.81719 9.51563C8.78438 9.39375 8.68125 9.33281 8.34375 9.22969C8.03438 9.13125 7.92188 8.94375 7.92188 8.49844C7.92188 8.12813 8.00156 7.89844 8.14219 7.86094C8.18906 7.84688 8.30156 7.82344 8.39531 7.80938C8.67188 7.7625 8.69531 7.70625 8.70469 6.96563C8.71406 6.18281 8.80313 5.76094 9.09375 5.17031C9.2625 4.83281 9.75 4.21875 9.85313 4.21875C9.87188 4.21875 10.0172 4.3125 10.1813 4.425ZM10.9734 13.1953C11.7375 13.3969 12.4828 13.3734 13.2047 13.1344L13.5938 13.0031L13.6219 13.1672C13.6734 13.4953 13.8328 14.025 13.9313 14.2172L14.0297 14.4141L13.8703 15.4781L13.7156 16.5422L13.3594 16.5797C12.9188 16.6266 10.7906 16.6125 10.4813 16.5609L10.2469 16.5234L10.0922 15.4969L9.9375 14.4656L10.0734 14.1375C10.1484 13.9547 10.2516 13.6219 10.2938 13.3969L10.3781 12.9891L10.5422 13.0594C10.6313 13.0969 10.8234 13.1578 10.9734 13.1953ZM9.30469 14.9625C9.375 15.3656 10.2656 21.3 10.2516 21.3094C10.2469 21.3141 9.75469 20.5313 9.15469 19.5703L8.07188 17.8172L8.34844 17.5031C8.56875 17.2547 8.625 17.1563 8.625 17.0297C8.625 16.9266 8.48906 16.6031 8.22188 16.0734C8.00156 15.6328 7.83281 15.2578 7.85156 15.2438C7.87969 15.2156 9.13125 14.8219 9.22031 14.8172C9.25313 14.8125 9.29063 14.8828 9.30469 14.9625ZM15.4406 15.0234C15.825 15.1406 16.1484 15.2344 16.1578 15.2344C16.1672 15.2344 15.9844 15.6141 15.75 16.0781C15.5203 16.5422 15.3281 16.9781 15.3281 17.0531C15.3281 17.1469 15.4078 17.2734 15.6094 17.5031C15.7922 17.7047 15.8813 17.8406 15.8578 17.8781C15.4969 18.4781 13.7156 21.3234 13.7063 21.3188C13.7016 21.3094 13.9172 19.8609 14.1844 18.0938C14.4516 16.3266 14.6719 14.8688 14.6719 14.8453C14.6719 14.7938 14.6906 14.7984 15.4406 15.0234ZM7.58438 16.3875L7.87969 16.9734L7.59844 17.2781C7.28438 17.625 7.23281 17.7516 7.33594 17.9531C7.37344 18.0281 8.03438 19.1016 8.79375 20.3297C9.55781 21.5625 10.1953 22.5984 10.2047 22.6266C10.2234 22.6734 9.51094 22.6875 6.73125 22.6875H3.23438V20.9109C3.23438 18.9938 3.25781 18.7313 3.4875 18.1219C3.73125 17.475 4.19531 16.875 4.75313 16.4813C5.26406 16.1203 5.25 16.1109 5.06719 16.6547C4.93125 17.0625 4.90313 17.2125 4.88438 17.7094L4.86094 18.2813L4.71094 18.375C4.47188 18.5203 4.17656 18.8719 4.04531 19.1531C3.78281 19.7297 3.79219 20.3297 4.06875 20.925C4.2375 21.2859 4.36406 21.4219 4.53281 21.4219C4.70625 21.4219 5.0625 21.2859 5.19375 21.1734C5.47969 20.9156 5.12344 20.4422 4.78125 20.625C4.70156 20.6672 4.68281 20.6438 4.61719 20.4281C4.50469 20.0438 4.52344 19.7906 4.70156 19.4484C5.10469 18.6516 5.97656 18.5297 6.60938 19.1766C6.77344 19.3453 6.98438 19.7766 6.98438 19.9406C6.98438 19.9781 6.93281 20.0203 6.86719 20.0344C6.71719 20.0719 6.6 20.2547 6.61875 20.4188C6.6375 20.5969 6.82031 20.7094 7.14844 20.7469C7.3875 20.7703 7.44844 20.7609 7.54688 20.6813C7.65938 20.5922 7.66406 20.5594 7.66406 20.1234C7.66406 19.7578 7.64062 19.6078 7.55625 19.3828C7.27031 18.6328 6.61875 18.1359 5.82656 18.0609L5.53125 18.0328L5.55938 17.7703C5.63438 16.9922 5.85 16.4203 6.21563 16.0313L6.43594 15.7969H6.8625H7.28906L7.58438 16.3875ZM17.4984 15.9469C17.7703 16.3078 17.9953 16.9078 18.0844 17.5078C18.1922 18.225 18.1969 18.1781 18.0328 18.2344C17.8172 18.3047 17.55 18.5344 17.4047 18.7828C17.2406 19.0688 17.1984 19.5891 17.3203 19.9078C17.5781 20.5781 18.4031 20.9203 19.0641 20.625C20.0719 20.1797 20.0953 18.7313 19.1016 18.2578C18.8484 18.1406 18.8438 18.1359 18.8438 17.9297C18.8438 17.5266 18.5906 16.4531 18.4125 16.1109C18.3563 15.9984 18.4266 16.0078 18.7172 16.1531C19.5422 16.5703 20.1984 17.2875 20.5125 18.1219C20.7422 18.7313 20.7656 18.9938 20.7656 20.9109V22.6875H17.25C15.3188 22.6875 13.7344 22.6781 13.7344 22.6688C13.7344 22.6594 14.3906 21.5906 15.1922 20.2922C15.9938 18.9938 16.6594 17.9063 16.6734 17.8734C16.7203 17.7516 16.6359 17.5875 16.3641 17.2781L16.0828 16.9594L16.3734 16.3781L16.6641 15.7969H17.025C17.3766 15.7969 17.3906 15.8016 17.4984 15.9469ZM11.5312 17.3203C11.8547 17.3344 12.4453 17.325 12.8438 17.3016C13.2422 17.2734 13.575 17.2641 13.5844 17.2688C13.5891 17.2781 13.4156 18.4781 13.1953 19.9359C12.975 21.3938 12.7969 22.6078 12.7969 22.6359C12.7969 22.6734 12.5344 22.6875 11.9859 22.6875H11.1797L10.7859 20.0719C10.5703 18.6375 10.3828 17.4094 10.3734 17.3531C10.3453 17.2406 10.35 17.2406 10.6453 17.2688C10.8094 17.2828 11.2078 17.3063 11.5312 17.3203ZM18.9422 19.0266C19.0969 19.1766 19.125 19.2375 19.125 19.4016C19.125 19.7766 18.8906 20.0297 18.5391 20.0297C18.1594 20.0297 17.925 19.7531 17.9484 19.3172C17.9484 19.2563 18.0328 19.125 18.1359 19.0266C18.2953 18.8672 18.3422 18.8438 18.5391 18.8438C18.7359 18.8438 18.7828 18.8672 18.9422 19.0266Z" fill="#455A64"/>
</svg>
