<svg width="48" height="48" viewBox="0 0 48 48" fill="none" xmlns="http://www.w3.org/2000/svg">
<path d="M23.5781 1.32188C22.2281 1.52813 21.0844 2.05313 20.25 2.85C19.8656 3.225 19.7719 3.27188 19.0969 3.36563C16.6875 3.7125 15 5.1 14.2969 7.33125C13.9875 8.30625 13.9219 9.075 14.0625 10.2188C14.2031 11.4469 14.5219 12.5719 15.0469 13.6406L15.4594 14.4844L15.1406 14.8125C14.6156 15.375 14.4938 15.7031 14.4563 16.7531C14.4281 17.4844 14.4563 17.8125 14.5781 18.1969C14.7844 18.825 15.4313 19.5281 15.9844 19.7438C16.3219 19.8656 16.4062 19.95 16.4531 20.1938C16.65 21.1688 17.325 22.725 17.925 23.6063C18.0938 23.85 18.4969 24.3094 18.825 24.6375L19.425 25.2281L19.3594 25.7438C19.2844 26.3625 18.9844 27.4875 18.7969 27.8438C18.6844 28.0688 18.4594 28.1531 16.5281 28.725C15.3563 29.0813 14.2969 29.4188 14.1844 29.4938C14.0719 29.5594 13.9594 29.7375 13.9219 29.8875C13.8656 30.1594 13.8563 30.1594 13.0031 30.2156C9.36563 30.4688 6.2625 33.1313 5.325 36.8063C5.11875 37.6125 5.10938 37.7813 5.10938 42.0188C5.10938 46.0969 5.11875 46.4063 5.27813 46.5656C5.4375 46.725 6.30938 46.7344 24 46.7344C41.6906 46.7344 42.5625 46.725 42.7219 46.5656C42.8813 46.4063 42.8906 46.0969 42.8906 41.9719L42.8813 37.5469L42.6375 36.6469C41.6531 33.0281 38.5688 30.45 34.95 30.2156C34.1625 30.1688 34.0313 30.1313 34.0313 30C34.0313 29.5781 33.7406 29.4375 31.4531 28.7531L29.2031 28.0688L28.9969 27.5156C28.8844 27.2063 28.725 26.5688 28.6406 26.1L28.4813 25.2469L29.0156 24.7406C29.6625 24.1313 30.2344 23.3438 30.6844 22.4531C31.0125 21.7781 31.5 20.3719 31.5 20.0719C31.5 19.95 31.6406 19.8469 31.9406 19.7344C32.175 19.6406 32.55 19.3875 32.7656 19.1719C33.3094 18.6375 33.5063 18.0188 33.5156 16.8656C33.5156 16.05 33.4875 15.9188 33.2344 15.4219C32.9813 14.9344 32.5875 14.5313 32.2313 14.4188C32.175 14.4 32.2781 13.9406 32.5125 13.2188C33.0469 11.55 33.225 10.3969 33.1594 8.87813C33.1031 7.47188 32.9625 6.83438 32.4469 5.76563C31.6688 4.13438 30.2813 2.91563 28.2094 2.0625C26.6719 1.425 24.825 1.125 23.5781 1.32188ZM26.4844 2.94375C27.5438 3.25313 29.0531 3.99375 29.6906 4.51875C30.6938 5.3625 31.3594 6.42188 31.65 7.65C31.8656 8.56875 31.7906 10.5094 31.4906 11.7L31.275 12.5719L31.1344 12.2156C30.6938 11.0813 29.7281 10.0125 28.7063 9.53438C28.0875 9.24375 28.0406 9.23438 26.2969 9.17813C25.3219 9.14063 24.4125 9.08438 24.2812 9.04688C22.7719 8.625 21.8906 8.2125 20.8313 7.41563C19.9688 6.75938 19.725 6.7125 19.1625 7.0875C17.7469 8.03438 16.6031 9.83438 16.2188 11.7094C16.1344 12.1406 16.0406 12.4594 16.0125 12.4125C15.8438 12.1313 15.5531 10.9313 15.4594 10.0875C15.3094 8.83125 15.4313 8.0625 15.9469 7.03125C16.6781 5.56875 18.15 4.69688 19.8844 4.6875C20.4094 4.6875 20.4188 4.67813 21.0375 4.07813C22.4062 2.71875 24.3 2.325 26.4844 2.94375ZM20.3625 8.85C22.1063 10.0594 23.8875 10.5844 26.2875 10.6031C27.0469 10.6031 27.7313 10.65 27.9094 10.7156C29.1375 11.175 30.0094 12.5531 30.2906 14.4656C30.4313 15.4031 30.5719 15.5813 31.2281 15.6563C31.8375 15.7125 32.0719 15.9938 32.1375 16.7063C32.2125 17.6531 31.8188 18.375 31.1438 18.525C30.5344 18.6563 30.375 18.7688 30.3 19.1156C29.7375 21.5438 29.3156 22.425 28.1719 23.5781C27.075 24.6844 25.6688 25.2469 24 25.2563C22.1438 25.2656 20.475 24.4969 19.3125 23.1C18.7594 22.4438 18.1219 21.0938 17.8969 20.1094C17.7844 19.6406 17.6719 19.1625 17.6344 19.0313C17.5688 18.7875 17.3625 18.6656 16.6875 18.4594C16.0688 18.2625 15.8438 17.8875 15.8438 16.9969C15.8438 16.2563 16.0031 15.7969 16.2844 15.7219C16.3781 15.6938 16.6031 15.6469 16.7906 15.6188C17.3438 15.525 17.3906 15.4125 17.4094 13.9313C17.4281 12.3656 17.6063 11.5219 18.1875 10.3406C18.525 9.66563 19.5 8.4375 19.7063 8.4375C19.7438 8.4375 20.0344 8.625 20.3625 8.85ZM21.9469 26.3906C23.475 26.7938 24.9656 26.7469 26.4094 26.2688L27.1875 26.0063L27.2438 26.3344C27.3469 26.9906 27.6656 28.05 27.8625 28.4344L28.0594 28.8281L27.7406 30.9563L27.4313 33.0844L26.7188 33.1594C25.8375 33.2531 21.5813 33.225 20.9625 33.1219L20.4938 33.0469L20.1844 30.9938L19.875 28.9313L20.1469 28.275C20.2969 27.9094 20.5031 27.2438 20.5875 26.7938L20.7563 25.9781L21.0844 26.1188C21.2625 26.1938 21.6469 26.3156 21.9469 26.3906ZM18.6094 29.925C18.75 30.7313 20.5313 42.6 20.5031 42.6188C20.4938 42.6281 19.5094 41.0625 18.3094 39.1406L16.1438 35.6344L16.6969 35.0063C17.1375 34.5094 17.25 34.3125 17.25 34.0594C17.25 33.8531 16.9781 33.2063 16.4438 32.1469C16.0031 31.2656 15.6656 30.5156 15.7031 30.4875C15.7594 30.4313 18.2625 29.6438 18.4406 29.6344C18.5063 29.625 18.5813 29.7656 18.6094 29.925ZM30.8813 30.0469C31.65 30.2813 32.2969 30.4688 32.3156 30.4688C32.3344 30.4688 31.9688 31.2281 31.5 32.1563C31.0406 33.0844 30.6563 33.9563 30.6563 34.1063C30.6563 34.2938 30.8156 34.5469 31.2188 35.0063C31.5844 35.4094 31.7625 35.6813 31.7156 35.7563C30.9938 36.9563 27.4313 42.6469 27.4125 42.6375C27.4031 42.6188 27.8344 39.7219 28.3688 36.1875C28.9031 32.6531 29.3438 29.7375 29.3438 29.6906C29.3438 29.5875 29.3813 29.5969 30.8813 30.0469ZM15.1688 32.775L15.7594 33.9469L15.1969 34.5563C14.5688 35.25 14.4656 35.5031 14.6719 35.9063C14.7469 36.0563 16.0688 38.2031 17.5875 40.6594C19.1156 43.125 20.3906 45.1969 20.4094 45.2531C20.4469 45.3469 19.0219 45.375 13.4625 45.375H6.46875V41.8219C6.46875 37.9875 6.51562 37.4625 6.975 36.2438C7.4625 34.95 8.39063 33.75 9.50625 32.9625C10.5281 32.2406 10.5 32.2219 10.1344 33.3094C9.8625 34.125 9.80625 34.425 9.76875 35.4188L9.72188 36.5625L9.42188 36.75C8.94375 37.0406 8.35313 37.7438 8.09063 38.3063C7.56563 39.4594 7.58438 40.6594 8.1375 41.85C8.475 42.5719 8.72813 42.8438 9.06563 42.8438C9.4125 42.8438 10.125 42.5719 10.3875 42.3469C10.9594 41.8313 10.2469 40.8844 9.5625 41.25C9.40313 41.3344 9.36563 41.2875 9.23438 40.8563C9.00938 40.0875 9.04688 39.5813 9.40313 38.8969C10.2094 37.3031 11.9531 37.0594 13.2188 38.3531C13.5469 38.6906 13.9688 39.5531 13.9688 39.8813C13.9688 39.9563 13.8656 40.0406 13.7344 40.0688C13.4344 40.1438 13.2 40.5094 13.2375 40.8375C13.275 41.1938 13.6406 41.4188 14.2969 41.4938C14.775 41.5406 14.8969 41.5219 15.0938 41.3625C15.3188 41.1844 15.3281 41.1188 15.3281 40.2469C15.3281 39.5156 15.2812 39.2156 15.1125 38.7656C14.5406 37.2656 13.2375 36.2719 11.6531 36.1219L11.0625 36.0656L11.1188 35.5406C11.2688 33.9844 11.7 32.8406 12.4313 32.0625L12.8719 31.5938H13.725H14.5781L15.1688 32.775ZM34.9969 31.8938C35.5406 32.6156 35.9906 33.8156 36.1688 35.0156C36.3844 36.45 36.3938 36.3563 36.0656 36.4688C35.6344 36.6094 35.1 37.0688 34.8094 37.5656C34.4813 38.1375 34.3969 39.1781 34.6406 39.8156C35.1563 41.1563 36.8063 41.8406 38.1281 41.25C40.1438 40.3594 40.1906 37.4625 38.2031 36.5156C37.6969 36.2813 37.6875 36.2719 37.6875 35.8594C37.6875 35.0531 37.1813 32.9063 36.825 32.2219C36.7125 31.9969 36.8531 32.0156 37.4344 32.3063C39.0844 33.1406 40.3969 34.575 41.025 36.2438C41.4844 37.4625 41.5312 37.9875 41.5312 41.8219V45.375H34.5C30.6375 45.375 27.4688 45.3563 27.4688 45.3375C27.4688 45.3188 28.7812 43.1813 30.3844 40.5844C31.9875 37.9875 33.3188 35.8125 33.3469 35.7469C33.4406 35.5031 33.2719 35.175 32.7281 34.5563L32.1656 33.9188L32.7469 32.7563L33.3281 31.5938H34.05C34.7531 31.5938 34.7813 31.6031 34.9969 31.8938ZM23.0625 34.6406C23.7094 34.6688 24.8906 34.65 25.6875 34.6031C26.4844 34.5469 27.15 34.5281 27.1688 34.5375C27.1781 34.5563 26.8313 36.9563 26.3906 39.8719C25.95 42.7875 25.5938 45.2156 25.5938 45.2719C25.5938 45.3469 25.0688 45.375 23.9719 45.375H22.3594L21.5719 40.1438C21.1406 37.275 20.7656 34.8188 20.7469 34.7063C20.6906 34.4813 20.7 34.4813 21.2906 34.5375C21.6188 34.5656 22.4156 34.6125 23.0625 34.6406ZM37.8844 38.0531C38.1938 38.3531 38.25 38.475 38.25 38.8031C38.25 39.5531 37.7812 40.0594 37.0781 40.0594C36.3188 40.0594 35.85 39.5063 35.8969 38.6344C35.8969 38.5125 36.0656 38.25 36.2719 38.0531C36.5906 37.7344 36.6844 37.6875 37.0781 37.6875C37.4719 37.6875 37.5656 37.7344 37.8844 38.0531Z" fill="#095FBA"/>
</svg>
