<svg width="36" height="36" viewBox="0 0 36 36" fill="none" xmlns="http://www.w3.org/2000/svg">
<g clip-path="url(#clip0_0_1759)">
<path d="M11.5313 0.147655C8.20548 0.84375 5.58282 3.54375 4.84454 7.05235C4.64064 7.9875 4.62657 9.71719 4.80236 10.6172C5.11173 12.1852 5.78673 13.6336 6.72892 14.7445C7.08048 15.1594 7.08751 15.1805 6.93986 15.2297C6.64454 15.3211 5.5547 15.968 4.97814 16.3969C2.59454 18.1547 0.892981 20.8406 0.203918 23.9414C0.0562622 24.6094 0.0421997 24.8203 0.021106 28.5398L-0.00701904 32.4281L0.147668 32.5969L0.302356 32.7656H9.41486H18.5274L18.7313 33.0188C18.9703 33.3141 19.2938 33.4688 19.6875 33.4688C20.032 33.4688 20.2219 33.3773 20.9883 32.8289C21.3117 32.5969 21.607 32.4211 21.6422 32.4422C21.6774 32.4633 21.6492 32.7727 21.5789 33.1313C21.4031 34.0312 21.4102 34.4953 21.593 34.8047C21.7617 35.0719 21.8953 35.1984 22.1274 35.2969C22.3945 35.4094 25.6992 36 26.0508 36C26.8313 36 27.1336 35.6414 27.3445 34.4531C27.4289 34.0102 27.4922 33.6234 27.4922 33.5953C27.4922 33.4195 27.682 33.6234 28.1391 34.2773C28.7438 35.1422 29.025 35.3391 29.6016 35.2828C29.8969 35.2547 30.1008 35.1352 31.3383 34.2773C33.1805 32.9906 33.293 32.8992 33.4336 32.5195C33.6305 32.0063 33.5531 31.718 32.9836 30.8883C32.7094 30.4875 32.4844 30.1289 32.4844 30.0938C32.4844 29.9953 32.5547 30.0023 33.3984 30.1711C33.8625 30.2555 34.2492 30.2977 34.432 30.2695C34.7695 30.2203 35.107 29.9742 35.2688 29.6578C35.4024 29.4047 36 26.1141 36 25.643C36 25.2352 35.8453 24.8836 35.5711 24.6516C35.3813 24.4898 35.107 24.4125 33.9399 24.1875C33.7149 24.1383 33.5391 24.075 33.5531 24.0328C33.5672 23.9906 33.8977 23.7305 34.2774 23.4563C35.1141 22.8656 35.325 22.5492 35.2758 21.9797C35.2477 21.6773 35.1211 21.4594 34.1227 19.9758C33.1383 18.5133 32.9695 18.2953 32.6953 18.1617C32.3297 17.9719 31.9289 17.9578 31.6336 18.1125C31.5141 18.1688 31.1484 18.4148 30.818 18.6469C30.4875 18.8789 30.1992 19.0406 30.1641 19.0125C30.1289 18.9773 30.1711 18.6328 30.2414 18.2461C30.4031 17.4234 30.3891 16.875 30.1922 16.6148C29.8899 16.207 29.7492 16.1578 27.8649 15.8062C26.8664 15.6234 25.9102 15.4688 25.7414 15.4688C25.3336 15.4688 24.8766 15.7359 24.7219 16.0594C24.6305 16.2492 24.3352 17.6273 24.3281 17.8734C24.3281 18.0703 24.0961 17.8383 23.7375 17.2969C23.5125 16.9453 23.2172 16.5656 23.0906 16.4531C22.7813 16.1789 22.3242 16.1156 21.9024 16.2773L21.5859 16.3969L21.1149 16.0805C20.8477 15.9047 20.3836 15.6305 20.0742 15.4617C19.7649 15.3 19.4977 15.1523 19.4836 15.1453C19.4695 15.1313 19.6031 14.9555 19.7789 14.7516C20.7 13.6617 21.3539 12.2695 21.6984 10.6523C21.8813 9.79453 21.8672 7.9875 21.6633 7.05235C20.9109 3.51562 18.2883 0.822659 14.9274 0.147655C13.9641 -0.0492172 12.4805 -0.0492172 11.5313 0.147655ZM14.4211 1.30781C15.9399 1.56797 17.2758 2.27813 18.3867 3.41719C19.3008 4.34531 20.032 5.65313 20.3625 6.93984C20.6016 7.86094 20.6649 9.31641 20.5102 10.2305C20.2289 11.8477 19.5399 13.2047 18.4219 14.3719C17.4445 15.3844 16.2774 16.0734 14.9203 16.432C14.3508 16.5797 14.0766 16.6078 13.2539 16.6078C12.4172 16.6148 12.1641 16.5867 11.5875 16.432C8.68361 15.6656 6.53204 13.275 5.99767 10.2305C5.84298 9.31641 5.90626 7.86094 6.14532 6.93984C6.48282 5.61797 7.21407 4.33125 8.14923 3.38906C9.84376 1.68047 12.1359 0.921093 14.4211 1.30781ZM8.55704 16.425C11.3555 18.3445 15.1524 18.3445 17.9508 16.425C18.2109 16.2492 18.457 16.1016 18.4922 16.1016C18.5977 16.1016 19.8914 16.7695 20.2219 16.9945L20.5102 17.1914L19.5539 17.8594C18.7664 18.4078 18.5695 18.5836 18.4359 18.8438C18.1617 19.3711 18.232 19.6805 18.8438 20.6016C19.125 21.0305 19.3359 21.3961 19.3078 21.4242C19.2867 21.4523 18.886 21.3961 18.4219 21.3117C17.4797 21.1359 17.1844 21.1711 16.8117 21.4875C16.5164 21.7336 16.432 22.0289 16.0664 24.0891C15.6938 26.1844 15.7008 26.3461 16.1438 26.768C16.3828 26.993 16.5234 27.0352 17.8102 27.2812C18.0492 27.3305 18.2109 27.3938 18.1899 27.443C18.1758 27.4852 17.8664 27.7453 17.5078 28.0125C16.6781 28.6383 16.5234 28.8492 16.5234 29.3977C16.5234 29.7984 16.5375 29.8336 17.1211 30.6914L17.7258 31.5703H12.5016H7.27736V29.9109V28.2516L7.08048 28.0828C6.81329 27.8578 6.44767 27.8578 6.22267 28.0898L6.04689 28.2586V29.918V31.5703H3.62111H1.19532V28.7016C1.19532 25.193 1.27267 24.4477 1.80001 22.8516C2.56642 20.5383 4.13439 18.457 6.13126 17.1141C6.61642 16.7906 7.90314 16.1016 8.0297 16.1016C8.05782 16.1016 8.29689 16.2492 8.55704 16.425ZM29.1024 17.3461C29.1234 17.3602 29.0672 17.7609 28.9828 18.2391C28.8211 19.1602 28.793 19.5258 28.8844 19.6734C28.9969 19.8492 29.925 20.4047 30.1641 20.4398C30.3539 20.468 30.4734 20.4328 30.6914 20.2711C30.8461 20.1586 31.2328 19.8844 31.5492 19.6664L32.1258 19.2586L33.075 20.6789L34.0242 22.0992L33.1875 22.6898C32.7234 23.0133 32.3086 23.3508 32.2664 23.4281C32.1469 23.6531 32.3859 24.8695 32.5899 25.0734C32.7024 25.1859 32.9836 25.2703 33.7711 25.418C34.3406 25.5234 34.8047 25.6148 34.8047 25.6289C34.8047 25.7203 34.1719 28.9898 34.1508 29.018C34.1297 29.032 33.6867 28.9617 33.1664 28.8633C32.632 28.7648 32.1328 28.7016 32.0274 28.7297C31.8375 28.7789 31.8094 28.807 31.3875 29.4609C30.9727 30.0938 30.9797 30.143 31.6617 31.1766L32.2594 32.0906L31.5141 32.618C31.0992 32.9062 30.4805 33.3422 30.1289 33.5883L29.4961 34.0312L29.3906 33.8766C28.6664 32.8078 28.2938 32.3227 28.1531 32.2594C27.8859 32.1328 26.6836 32.3789 26.5149 32.5969C26.4375 32.6953 26.318 33.1523 26.1984 33.7852C26.0649 34.4602 25.9734 34.8047 25.9172 34.7836C25.875 34.7695 25.1227 34.6148 24.2367 34.4461C23.2594 34.2633 22.6477 34.1156 22.6688 34.0664C22.6828 34.0242 22.7672 33.5602 22.8586 33.0328C22.9852 32.2734 23.0063 32.0414 22.943 31.9008C22.8375 31.6758 21.825 31.0078 21.5789 31.0078C21.4594 31.0078 21.0867 31.2258 20.5383 31.6125C20.0602 31.943 19.6664 32.2031 19.6594 32.1891C19.3781 31.8586 17.7961 29.3555 17.8383 29.3203C17.8664 29.2922 18.232 29.025 18.6539 28.7297C19.0688 28.4273 19.4414 28.118 19.4836 28.0406C19.5469 27.9281 19.5399 27.7664 19.4766 27.3938C19.35 26.6625 19.2727 26.4445 19.0969 26.332C19.0055 26.2688 18.5133 26.1422 17.993 26.0367C17.4727 25.9383 17.0438 25.8469 17.0367 25.8398C17.0086 25.8258 17.6344 22.4859 17.6695 22.4578C17.6836 22.4438 18.1055 22.507 18.6047 22.6055C19.1039 22.7039 19.582 22.7812 19.6734 22.7812C19.8703 22.7812 20.1305 22.5211 20.4469 22.0008C20.8406 21.368 20.8336 21.3188 20.1867 20.3344C19.8703 19.8633 19.6172 19.4484 19.6172 19.4133C19.6172 19.3781 20.0813 19.0195 20.6578 18.6258C21.2274 18.225 21.8391 17.7961 22.0149 17.6695L22.3383 17.4375L22.7883 18.1195C23.0344 18.4992 23.3297 18.907 23.4422 19.0336C23.6742 19.3008 23.8149 19.3219 24.6094 19.1602C25.3477 19.0055 25.3899 18.9492 25.6219 17.7047L25.8117 16.6922L27.443 17.0016C28.343 17.1773 29.0883 17.332 29.1024 17.3461Z" fill="#095FBA"/>
<path d="M25.1367 21.5859C23.6883 21.8812 22.493 22.9429 21.9938 24.3914C21.7758 25.0101 21.7617 26.339 21.9656 26.9297C22.3524 28.0687 23.1188 28.9687 24.1172 29.4469C25.0313 29.8828 25.7906 29.9812 26.7539 29.7773C27.4992 29.6226 28.2024 29.2429 28.7578 28.6945C29.5594 27.9 29.9391 27.0633 30.0024 25.9453C30.0727 24.6937 29.6508 23.5969 28.7508 22.6898C27.8297 21.7687 26.4024 21.3328 25.1367 21.5859ZM27.1406 23.0414C27.9563 23.4422 28.6031 24.3422 28.7508 25.2984C28.9477 26.5289 28.2516 27.8086 27.0844 28.357C26.6485 28.5679 26.557 28.582 25.875 28.582C25.2 28.582 25.1016 28.5609 24.7149 28.3781C23.5828 27.8226 22.8445 26.4304 23.0625 25.2562C23.168 24.6586 23.5688 23.8992 23.9625 23.5476C24.8625 22.7461 26.1211 22.5492 27.1406 23.0414Z" fill="#095FBA"/>
</g>
<defs>
<clipPath id="clip0_0_1759">
<rect width="36" height="36" fill="white"/>
</clipPath>
</defs>
</svg>
