<svg width="24" height="24" viewBox="0 0 24 24" fill="none" xmlns="http://www.w3.org/2000/svg">
<g clip-path="url(#clip0_1_1390)">
<path d="M10.61 5.62012L10.61 5.62018C10.3248 5.5039 10.0082 5.49294 9.73073 5.54729C9.45558 5.60117 9.16281 5.73059 8.95071 5.95892L8.94741 5.96246L8.94743 5.96248C8.57451 6.37179 8.46236 7.03958 8.68231 7.55924C8.71799 7.64416 8.77473 7.71666 8.79739 7.74561L8.79907 7.74775C8.83531 7.7941 8.88097 7.84784 8.93314 7.90687C9.03823 8.02577 9.18631 8.18474 9.37635 8.38329C9.7573 8.78129 10.3207 9.35263 11.0775 10.1092C11.0775 10.1092 11.0776 10.1092 11.0776 10.1093C11.0777 10.1094 11.0778 10.1095 11.0779 10.1096L12.9422 11.9771L11.0779 13.8406L11.0773 13.8412C10.3204 14.6002 9.75699 15.1727 9.37609 15.5713C9.1861 15.7701 9.03807 15.9292 8.93303 16.0481C8.88089 16.1071 8.83525 16.1609 8.79903 16.2072L8.79734 16.2093C8.77453 16.2385 8.71711 16.3119 8.6815 16.3976M10.61 5.62012L16.3008 12.7034C16.2611 12.7699 16.1977 12.8428 16.1588 12.8873C16.1066 12.9469 16.0388 13.0213 15.9593 13.1065C15.7998 13.2774 15.5839 13.5023 15.3318 13.7611C14.8271 14.2794 14.1703 14.9409 13.5131 15.5949C12.856 16.2488 12.1968 16.8969 11.6872 17.3881C11.4328 17.6333 11.2136 17.8414 11.05 17.9922C10.9686 18.0671 10.8978 18.1308 10.8417 18.1788C10.814 18.2024 10.7859 18.2258 10.7595 18.2459C10.759 18.2463 10.7584 18.2468 10.7576 18.2474C10.7433 18.2584 10.6866 18.3022 10.6169 18.3318L10.6169 18.3319L10.6112 18.3342C10.0945 18.5465 9.42795 18.4362 9.01803 18.063L9.01802 18.063L9.01447 18.0597C8.786 17.8477 8.65625 17.5547 8.60292 17.2784C8.54928 17.0006 8.56173 16.6834 8.6815 16.3976M10.61 5.62012L10.6169 5.62306M10.61 5.62012L10.6169 5.62306M8.6815 16.3976C8.68065 16.3996 8.67981 16.4017 8.67898 16.4038L9.14319 16.5895L8.6824 16.3955C8.6821 16.3962 8.6818 16.3969 8.6815 16.3976ZM16.3008 11.2515C16.3011 11.2521 16.3015 11.2527 16.3019 11.2533L15.8716 11.5077L16.3008 11.2515ZM16.3008 11.2515C16.2611 11.185 16.1977 11.1121 16.1588 11.0676M16.3008 11.2515L16.1588 11.0676M10.6169 5.62306C10.6866 5.65272 10.7433 5.69644 10.7576 5.70752M10.6169 5.62306L10.7576 5.70752M10.7576 5.70752C10.7584 5.70811 10.759 5.70861 10.7595 5.70901M10.7576 5.70752L10.7595 5.70901M10.7595 5.70901C10.7859 5.72914 10.814 5.75248 10.8417 5.77613M10.7595 5.70901L10.8417 5.77613M10.8417 5.77613C10.8978 5.82406 10.9686 5.88779 11.05 5.96274M10.8417 5.77613L11.05 5.96274M11.05 5.96274C11.2136 6.11345 11.4328 6.32155 11.6872 6.56683M11.05 5.96274L11.6872 6.56683M11.6872 6.56683C12.1968 7.05803 12.856 7.70611 13.5131 8.36004M11.6872 6.56683L13.5131 8.36004M13.5131 8.36004C14.1703 9.014 14.8271 9.67554 15.3318 10.1938M13.5131 8.36004L15.3318 10.1938M15.3318 10.1938C15.5839 10.4526 15.7998 10.6775 15.9593 10.8484M15.3318 10.1938L15.9593 10.8484M15.9593 10.8484C16.0388 10.9336 16.1066 11.008 16.1588 11.0676M15.9593 10.8484L16.1588 11.0676M10.8975 0.482355L10.8904 0.483322L10.8833 0.484085C7.85655 0.808731 5.11886 2.25502 3.19253 4.54949L3.19224 4.54984C1.8367 6.16143 0.994632 7.98614 0.619312 10.1377C0.538307 10.6022 0.528076 10.8117 0.528076 11.9774C0.528076 13.1432 0.538307 13.3527 0.619312 13.8172L0.619332 13.8173C1.04413 16.2566 2.06061 18.2646 3.74275 20.0092L3.74302 20.0095C5.46555 21.7987 7.63741 22.9339 10.1878 23.3815C10.6524 23.4624 10.8622 23.4727 12.0281 23.4727C13.4671 23.4727 13.8658 23.4286 14.9717 23.1456C18.9395 22.12 22.1752 18.8854 23.201 14.9193C23.4841 13.8142 23.5281 13.4157 23.5281 11.9774C23.5281 10.5393 23.4841 10.1407 23.201 9.03567C22.1753 5.07416 18.9396 1.8351 14.9722 0.809481C13.9509 0.548635 13.4886 0.491249 12.2106 0.477516L12.2089 0.477491C11.8831 0.472839 11.566 0.471687 11.3186 0.473421C11.1947 0.474289 11.09 0.47587 11.0113 0.478018C10.9383 0.480009 10.905 0.482159 10.8981 0.482477C10.8964 0.482555 10.8962 0.482525 10.8975 0.482355Z" fill="white" stroke="white"/>
</g>
<defs>
<clipPath id="clip0_1_1390">
<rect width="24" height="24" fill="white"/>
</clipPath>
</defs>
</svg>
