<svg width="14" height="14" viewBox="0 0 14 14" fill="none" xmlns="http://www.w3.org/2000/svg">
<g clip-path="url(#clip0_33_3340)">
<path d="M1.27146 0.0518823C0.817558 0.183132 0.410136 0.511257 0.19959 0.915945C-0.00275417 1.30969 -0.00275416 1.29602 0.00544896 2.8929L0.0136521 4.31204L0.092949 4.42415C0.292558 4.71399 0.738261 4.75774 0.992558 4.51712C1.16756 4.35305 1.16209 4.40774 1.17576 2.93938L1.18943 1.59954L1.266 1.47102C1.31521 1.38626 1.38631 1.31516 1.47107 1.26594L1.59959 1.18938L2.93943 1.17571C4.40779 1.16204 4.3531 1.16751 4.51717 0.992507C4.75779 0.738211 4.71404 0.292507 4.4242 0.092898L4.31209 0.0136011L2.87381 0.00813233C1.57771 0.00266358 1.41912 0.00813233 1.27146 0.0518823Z" fill="#717B9E"/>
<path d="M9.66605 0.0382109C9.30784 0.196805 9.21214 0.708133 9.48284 0.992508C9.64691 1.16751 9.59222 1.16204 11.0606 1.17571L12.4004 1.18938L12.5289 1.26595C12.6137 1.31516 12.6848 1.38626 12.734 1.47102L12.8106 1.59954L12.8243 2.93938C12.8379 4.40774 12.8325 4.35305 13.0075 4.51712C13.2618 4.75774 13.7075 4.71399 13.9071 4.42415L13.9864 4.31204L13.9946 2.8929C14.0028 1.29602 14.0028 1.3097 13.8004 0.915945C13.6473 0.620633 13.3793 0.352664 13.084 0.199539C12.6957 -7.0397e-05 12.7039 -7.0397e-05 11.1399 -7.0397e-05C10.0434 0.00266398 9.73167 0.0108671 9.66605 0.0382109Z" fill="#717B9E"/>
<path d="M3.78737 2.94219C3.36901 3.04336 3.03268 3.38789 2.93971 3.80898C2.90416 3.97578 2.8987 4.16992 2.90416 5.00391L2.91237 6.00195L2.98073 6.125C3.01901 6.19063 3.10377 6.28359 3.16666 6.33008C3.27604 6.40391 3.30612 6.41211 3.50026 6.41211C3.6944 6.41211 3.72448 6.40391 3.83385 6.33008C3.89674 6.28359 3.98151 6.19063 4.01979 6.125L4.08815 6.00195L4.09635 5.05039L4.10456 4.10156H7.00026H9.89596L9.90417 5.05039L9.91237 6.00195L9.98073 6.125C10.019 6.19063 10.1038 6.28359 10.1667 6.33008C10.276 6.40391 10.3061 6.41211 10.5003 6.41211C10.6944 6.41211 10.7245 6.40391 10.8339 6.33008C10.8967 6.28359 10.9815 6.19063 11.0198 6.125L11.0881 6.00195L11.0964 5.00391C11.1018 4.16992 11.0964 3.97578 11.0608 3.80898C10.9651 3.37969 10.6288 3.04336 10.1995 2.94219C9.94245 2.8793 4.04166 2.88203 3.78737 2.94219Z" fill="#717B9E"/>
<path d="M2.05927 7.64256C1.8542 7.74647 1.7667 7.88592 1.75576 8.13475C1.74755 8.29061 1.75576 8.3535 1.79951 8.43827C1.93076 8.69256 2.06748 8.74998 2.54326 8.74998H2.89873V9.38163C2.89873 10.1199 2.9288 10.3004 3.0874 10.5465C3.26513 10.8226 3.52763 11.0031 3.85029 11.0715C3.95146 11.0933 4.89755 11.1015 7.00302 11.1015C10.369 11.1015 10.246 11.107 10.5468 10.9129C10.8175 10.7379 10.987 10.5 11.0581 10.1992C11.0909 10.068 11.1019 9.86014 11.1019 9.38436V8.74998H11.4655C11.7936 8.74998 11.8429 8.74452 11.9522 8.68709C12.0261 8.64881 12.1081 8.57225 12.1628 8.48748C12.2503 8.35897 12.2558 8.34256 12.2448 8.14569C12.2339 7.88592 12.1519 7.7492 11.9413 7.64256L11.8019 7.5742H7.00029H2.19873L2.05927 7.64256Z" fill="#717B9E"/>
<path d="M0.308965 9.39253C0.221465 9.43628 0.142168 9.50463 0.092949 9.57573L0.0136521 9.68784L0.00544896 11.107C-0.00275416 12.7039 -0.00275417 12.6902 0.19959 13.0839C0.352715 13.382 0.620683 13.6472 0.91873 13.8031C1.30154 13.9999 1.32068 14.0027 2.90936 13.9945L4.31209 13.9863L4.4242 13.907C4.71404 13.7074 4.75779 13.2617 4.51717 13.0074C4.3531 12.8324 4.40779 12.8378 2.93943 12.8242L1.59959 12.8105L1.47107 12.7339C1.38631 12.6847 1.31521 12.6136 1.266 12.5289L1.18943 12.4003L1.17576 11.0605C1.16209 9.59213 1.16756 9.64682 0.992558 9.48276C0.814824 9.31049 0.544121 9.27768 0.308965 9.39253Z" fill="#717B9E"/>
<path d="M13.1798 9.36792C13.0649 9.41713 12.9446 9.52651 12.8844 9.63862C12.8434 9.70971 12.8352 9.87924 12.8243 11.0605L12.8106 12.4003L12.7341 12.5289C12.6848 12.6136 12.6137 12.6847 12.529 12.7339L12.4005 12.8105L11.0606 12.8242C9.59226 12.8378 9.64695 12.8324 9.48288 13.0074C9.24226 13.2617 9.28601 13.7074 9.57585 13.907L9.68796 13.9863L11.0907 13.9945C12.6794 14.0027 12.6985 13.9999 13.0813 13.8031C13.3794 13.6472 13.6473 13.382 13.8005 13.0839C14.0028 12.6902 14.0028 12.7039 13.9946 11.107L13.9864 9.68784L13.9071 9.57573C13.7567 9.35971 13.4231 9.26401 13.1798 9.36792Z" fill="#717B9E"/>
</g>
<defs>
<clipPath id="clip0_33_3340">
<rect width="14" height="14" fill="white"/>
</clipPath>
</defs>
</svg>
