<svg id="svg" version="1.1" xmlns="http://www.w3.org/2000/svg" xmlns:xlink="http://www.w3.org/1999/xlink" width="400" height="400" viewBox="0, 0, 400,400"><g id="svgg"><path id="path0" d="M194.300 194.437 C 136.495 252.280,89.200 299.858,89.200 300.167 C 89.200 300.965,99.132 310.800,99.935 310.798 C 101.406 310.795,310.877 100.645,310.582 99.469 C 310.434 98.881,310.046 98.400,309.719 98.400 C 309.392 98.400,309.033 98.046,308.919 97.613 C 308.806 97.181,308.382 96.721,307.977 96.593 C 307.572 96.464,307.136 96.028,307.007 95.623 C 306.879 95.218,306.419 94.794,305.987 94.681 C 305.554 94.567,305.200 94.200,305.200 93.864 C 305.200 93.529,304.849 93.143,304.420 93.006 C 303.992 92.870,303.536 92.428,303.407 92.023 C 303.279 91.618,302.819 91.194,302.387 91.081 C 301.954 90.967,301.600 90.609,301.600 90.284 C 301.600 89.794,300.337 89.134,299.600 89.240 C 299.490 89.256,252.105 136.594,194.300 194.437 M179.800 114.393 C 177.380 114.566,174.770 114.913,174.000 115.164 C 173.230 115.415,170.573 115.776,168.095 115.966 C 165.617 116.156,163.344 116.515,163.043 116.764 C 162.743 117.013,160.912 117.411,158.974 117.648 C 157.037 117.885,155.076 118.325,154.618 118.625 C 154.159 118.926,152.708 119.293,151.392 119.442 C 150.076 119.591,148.370 120.024,147.600 120.405 C 146.830 120.785,145.178 121.221,143.928 121.374 C 142.678 121.526,141.449 121.900,141.195 122.206 C 140.942 122.511,139.894 122.881,138.867 123.028 C 137.840 123.174,136.460 123.614,135.800 124.005 C 135.140 124.396,133.835 124.840,132.900 124.993 C 131.965 125.145,131.200 125.417,131.200 125.596 C 131.200 125.984,128.991 126.800,127.940 126.800 C 127.533 126.800,126.840 127.160,126.400 127.600 C 125.960 128.040,125.073 128.400,124.429 128.400 C 123.784 128.400,122.972 128.685,122.623 129.034 C 122.275 129.382,121.320 129.852,120.501 130.078 C 119.682 130.304,118.580 130.829,118.052 131.245 C 117.524 131.660,116.781 132.000,116.400 132.000 C 116.019 132.000,115.264 132.349,114.722 132.775 C 114.180 133.202,113.230 133.678,112.611 133.833 C 111.991 133.989,111.150 134.450,110.742 134.858 C 110.334 135.266,109.668 135.600,109.262 135.600 C 108.856 135.600,108.198 135.960,107.800 136.400 C 107.402 136.840,106.779 137.200,106.416 137.200 C 106.053 137.200,105.145 137.650,104.400 138.200 C 103.655 138.750,102.837 139.200,102.584 139.200 C 102.331 139.200,101.807 139.550,101.421 139.977 C 101.034 140.405,100.196 140.869,99.559 141.009 C 98.921 141.149,98.400 141.433,98.400 141.640 C 98.400 141.848,97.907 142.238,97.305 142.509 C 96.704 142.779,95.916 143.270,95.556 143.600 C 95.196 143.930,93.888 144.808,92.651 145.551 C 91.413 146.294,90.400 147.045,90.400 147.220 C 90.400 147.395,89.786 147.741,89.035 147.988 C 88.285 148.236,87.570 148.700,87.448 149.019 C 87.325 149.339,87.015 149.600,86.758 149.600 C 86.502 149.600,85.889 150.005,85.396 150.500 C 84.903 150.995,83.836 151.850,83.026 152.400 C 81.320 153.557,79.991 154.591,78.400 156.000 C 76.784 157.431,75.538 158.456,74.026 159.600 C 73.299 160.150,72.333 161.005,71.880 161.500 C 71.427 161.995,70.830 162.400,70.555 162.400 C 70.279 162.400,69.940 162.760,69.800 163.200 C 69.660 163.640,69.399 164.000,69.219 164.000 C 68.753 164.000,57.200 175.498,57.200 175.962 C 57.200 176.173,56.840 176.460,56.400 176.600 C 55.960 176.740,55.600 177.046,55.600 177.281 C 55.600 177.516,55.195 178.104,54.700 178.588 C 54.205 179.072,53.350 180.057,52.800 180.777 C 51.031 183.094,50.218 184.083,49.370 184.951 C 48.914 185.418,48.424 186.115,48.283 186.500 C 48.141 186.885,47.749 187.200,47.413 187.200 C 47.076 187.200,46.800 187.456,46.800 187.769 C 46.800 188.082,46.350 188.873,45.800 189.527 C 45.250 190.181,44.800 190.913,44.800 191.154 C 44.800 191.396,44.440 191.818,44.000 192.093 C 43.560 192.368,43.200 192.809,43.200 193.074 C 43.200 193.338,42.876 193.790,42.480 194.077 C 42.084 194.365,41.522 195.185,41.231 195.900 C 40.941 196.615,40.547 197.200,40.357 197.200 C 38.637 197.200,38.843 201.056,40.684 203.331 C 41.188 203.953,41.600 204.628,41.600 204.831 C 41.600 205.034,41.881 205.515,42.225 205.900 C 43.587 207.424,45.200 209.734,45.200 210.159 C 45.200 210.406,45.560 210.832,46.000 211.107 C 46.440 211.382,46.800 211.875,46.800 212.203 C 46.800 212.532,46.947 212.800,47.126 212.800 C 47.305 212.800,48.520 214.165,49.826 215.832 C 51.132 217.500,52.605 219.242,53.100 219.704 C 53.595 220.166,54.000 220.782,54.000 221.072 C 54.000 221.362,54.276 221.600,54.613 221.600 C 54.949 221.600,55.336 221.890,55.472 222.244 C 55.608 222.598,57.312 224.505,59.260 226.482 C 61.207 228.459,62.800 230.240,62.800 230.439 C 62.800 230.637,63.058 230.800,63.373 230.800 C 63.688 230.800,64.060 231.160,64.200 231.600 C 64.340 232.040,64.598 232.400,64.773 232.400 C 64.949 232.400,66.401 233.660,68.000 235.200 C 69.599 236.740,71.063 238.000,71.254 238.000 C 71.444 238.000,71.600 238.270,71.600 238.600 C 71.600 238.930,71.773 239.200,71.985 239.200 C 72.300 239.200,78.135 243.829,80.400 245.876 C 80.730 246.174,81.720 246.948,82.600 247.595 C 85.232 249.531,85.743 249.920,87.058 250.983 C 87.750 251.542,88.444 252.000,88.600 252.000 C 88.756 252.000,89.419 252.450,90.073 253.000 C 90.727 253.550,91.511 254.000,91.817 254.000 C 92.122 254.000,92.565 254.360,92.800 254.800 C 93.035 255.240,93.464 255.600,93.752 255.600 C 94.040 255.600,94.602 255.960,95.000 256.400 C 95.398 256.840,95.911 257.200,96.140 257.200 C 96.370 257.200,97.201 257.646,97.988 258.192 C 101.363 260.530,99.023 262.431,126.000 235.436 C 151.950 209.469,151.028 210.552,149.796 207.472 C 148.902 205.238,148.841 194.833,149.710 192.753 C 150.028 191.992,150.420 190.116,150.581 188.584 C 150.742 187.053,151.194 185.260,151.584 184.600 C 151.975 183.940,152.407 182.800,152.544 182.068 C 152.681 181.335,153.155 180.275,153.596 179.714 C 154.038 179.152,154.400 178.381,154.400 178.000 C 154.400 177.619,154.760 176.850,155.200 176.291 C 155.640 175.731,156.000 175.105,156.000 174.898 C 156.000 174.691,156.315 174.148,156.700 173.691 C 157.085 173.233,157.760 172.270,158.200 171.549 C 159.587 169.277,159.764 169.039,161.400 167.249 C 163.424 165.034,165.034 163.424,167.249 161.400 C 169.039 159.764,169.277 159.587,171.549 158.200 C 172.270 157.760,173.233 157.085,173.691 156.700 C 174.148 156.315,174.691 156.000,174.898 156.000 C 175.105 156.000,175.731 155.640,176.291 155.200 C 176.850 154.760,177.619 154.400,178.000 154.400 C 178.381 154.400,179.152 154.038,179.714 153.596 C 180.275 153.155,181.335 152.675,182.068 152.532 C 182.800 152.388,184.030 151.952,184.800 151.564 C 185.570 151.176,187.460 150.732,189.000 150.579 C 190.540 150.425,192.286 150.052,192.880 149.750 C 194.505 148.923,205.612 148.979,207.244 149.823 C 210.140 151.320,209.791 151.593,227.186 134.249 C 235.985 125.476,243.087 118.141,242.968 117.949 C 242.850 117.757,241.818 117.599,240.676 117.598 C 239.511 117.596,238.074 117.307,237.400 116.939 C 236.603 116.503,234.587 116.178,231.400 115.971 C 228.358 115.774,226.014 115.407,225.000 114.968 C 223.202 114.191,188.753 113.752,179.800 114.393 M298.672 140.711 C 297.748 140.912,249.600 189.044,249.600 189.766 C 249.600 190.061,249.907 190.999,250.283 191.851 C 251.254 194.053,251.280 205.890,250.319 208.063 C 249.963 208.868,249.545 210.758,249.390 212.263 C 249.235 213.775,248.772 215.558,248.355 216.247 C 247.940 216.933,247.600 217.878,247.600 218.347 C 247.600 218.816,247.249 219.551,246.821 219.979 C 246.393 220.407,245.846 221.487,245.606 222.379 C 245.366 223.271,245.008 224.000,244.812 224.000 C 244.615 224.000,244.331 224.405,244.182 224.900 C 243.279 227.885,236.787 235.600,232.000 239.376 C 226.312 243.863,226.120 244.000,225.499 244.000 C 225.183 244.000,224.614 244.342,224.236 244.760 C 223.857 245.179,222.920 245.639,222.153 245.782 C 221.386 245.926,220.660 246.299,220.540 246.611 C 220.421 246.923,219.665 247.295,218.861 247.438 C 218.058 247.581,216.860 248.015,216.200 248.403 C 215.540 248.792,213.768 249.236,212.263 249.390 C 210.758 249.545,208.868 249.960,208.063 250.313 C 205.743 251.330,194.524 251.269,191.706 250.223 C 189.748 249.497,189.567 249.490,188.906 250.116 C 183.262 255.463,156.932 281.999,157.102 282.169 C 157.229 282.296,158.068 282.401,158.967 282.402 C 159.865 282.404,161.140 282.699,161.800 283.058 C 162.557 283.470,164.627 283.828,167.405 284.028 C 169.828 284.202,172.618 284.614,173.605 284.943 C 178.624 286.614,221.136 286.645,226.736 284.982 C 227.814 284.662,230.744 284.231,233.248 284.025 C 235.751 283.818,238.340 283.388,239.000 283.069 C 239.660 282.749,241.349 282.367,242.754 282.218 C 244.158 282.070,245.688 281.701,246.154 281.398 C 246.619 281.095,247.990 280.726,249.200 280.577 C 250.410 280.428,252.132 279.992,253.026 279.609 C 253.920 279.225,255.675 278.783,256.926 278.627 C 258.177 278.470,259.200 278.193,259.200 278.010 C 259.200 277.533,261.499 276.800,262.998 276.800 C 263.739 276.800,264.561 276.485,264.954 276.050 C 265.327 275.638,266.359 275.203,267.247 275.084 C 268.135 274.965,269.163 274.598,269.531 274.268 C 269.899 273.938,270.920 273.536,271.800 273.376 C 272.680 273.215,273.829 272.750,274.354 272.342 C 274.879 271.934,275.709 271.600,276.200 271.600 C 276.691 271.600,277.521 271.263,278.046 270.852 C 278.571 270.441,279.630 269.970,280.400 269.806 C 281.170 269.641,282.122 269.168,282.516 268.753 C 282.909 268.339,283.560 268.000,283.962 268.000 C 284.363 268.000,285.121 267.667,285.646 267.261 C 286.171 266.855,287.140 266.390,287.800 266.229 C 288.460 266.067,289.322 265.590,289.716 265.168 C 290.109 264.745,290.880 264.400,291.428 264.400 C 291.976 264.400,292.528 264.132,292.654 263.804 C 292.780 263.476,293.584 262.997,294.441 262.740 C 295.299 262.484,296.000 262.123,296.000 261.940 C 296.000 261.622,297.436 260.778,300.309 259.407 C 301.029 259.063,301.974 258.426,302.409 257.991 C 302.844 257.556,303.411 257.200,303.669 257.200 C 303.926 257.200,304.467 256.901,304.871 256.536 C 305.275 256.170,305.939 255.675,306.346 255.436 C 306.753 255.196,307.860 254.460,308.807 253.800 C 309.753 253.140,310.922 252.330,311.404 252.000 C 313.984 250.234,314.649 249.738,315.293 249.100 C 315.682 248.715,316.154 248.400,316.342 248.400 C 316.529 248.400,317.142 247.995,317.703 247.500 C 318.264 247.005,319.188 246.240,319.756 245.800 C 320.324 245.360,321.312 244.550,321.951 244.000 C 322.589 243.450,323.675 242.550,324.362 242.000 C 325.050 241.450,325.920 240.685,326.295 240.300 C 326.671 239.915,327.115 239.600,327.283 239.600 C 327.576 239.600,331.683 235.694,338.000 229.409 C 342.057 225.372,347.113 219.874,348.311 218.196 C 348.470 217.974,349.305 216.894,350.168 215.796 C 351.677 213.874,352.201 213.256,353.981 211.300 C 354.431 210.805,354.800 210.245,354.800 210.055 C 354.800 209.747,356.340 207.595,357.692 206.013 C 361.301 201.792,361.683 199.593,359.316 196.669 C 358.812 196.047,358.400 195.302,358.400 195.012 C 358.400 194.723,358.127 194.381,357.794 194.253 C 357.461 194.125,357.015 193.566,356.804 193.010 C 356.593 192.455,356.257 192.000,356.058 192.000 C 355.860 192.000,355.459 191.415,355.169 190.700 C 354.878 189.985,354.316 189.165,353.920 188.877 C 353.524 188.590,353.200 188.193,353.200 187.996 C 353.200 187.798,352.795 187.214,352.300 186.697 C 351.414 185.772,349.867 183.942,346.978 180.400 C 346.170 179.410,345.260 178.456,344.955 178.280 C 344.650 178.104,344.400 177.711,344.400 177.407 C 344.400 177.103,344.040 176.740,343.600 176.600 C 343.160 176.460,342.800 176.178,342.800 175.972 C 342.800 175.481,331.325 164.000,330.833 164.000 C 330.625 164.000,330.340 163.640,330.200 163.200 C 330.060 162.760,329.809 162.400,329.641 162.400 C 329.473 162.400,328.540 161.672,327.568 160.782 C 326.596 159.892,325.327 158.909,324.748 158.597 C 324.170 158.285,323.591 157.753,323.461 157.415 C 323.331 157.077,323.015 156.800,322.758 156.800 C 322.502 156.800,321.891 156.395,321.402 155.900 C 320.523 155.011,320.134 154.701,317.000 152.395 C 316.120 151.748,315.034 150.854,314.586 150.409 C 314.138 149.964,313.560 149.600,313.300 149.600 C 313.040 149.600,312.635 149.240,312.400 148.800 C 312.165 148.360,311.692 148.000,311.349 148.000 C 310.746 148.000,309.499 147.162,307.331 145.300 C 306.755 144.805,306.062 144.400,305.791 144.400 C 305.520 144.400,305.065 144.120,304.781 143.777 C 304.496 143.434,303.664 142.903,302.932 142.597 C 302.199 142.291,301.600 141.869,301.600 141.660 C 301.600 141.157,299.598 140.509,298.672 140.711 M193.800 164.016 C 192.480 164.154,190.860 164.543,190.200 164.880 C 189.540 165.217,188.290 165.622,187.421 165.779 C 186.553 165.937,185.404 166.411,184.867 166.833 C 184.331 167.255,183.473 167.600,182.960 167.600 C 182.438 167.600,181.840 167.951,181.600 168.400 C 181.365 168.840,180.922 169.200,180.617 169.200 C 180.311 169.200,179.527 169.650,178.873 170.200 C 178.219 170.750,177.580 171.200,177.452 171.200 C 177.109 171.200,171.200 177.054,171.200 177.394 C 171.200 177.554,170.750 178.219,170.200 178.873 C 169.650 179.527,169.200 180.311,169.200 180.617 C 169.200 180.922,168.840 181.365,168.400 181.600 C 167.951 181.840,167.600 182.438,167.600 182.960 C 167.600 183.473,167.255 184.331,166.833 184.867 C 166.411 185.404,165.934 186.547,165.772 187.408 C 165.611 188.269,165.157 189.700,164.764 190.589 C 164.089 192.114,163.614 196.548,164.077 197.010 C 164.194 197.127,166.823 194.653,169.920 191.512 C 180.872 180.401,195.967 165.450,196.579 165.108 C 198.249 164.173,196.997 163.681,193.800 164.016 M219.257 219.470 C 210.378 228.382,203.268 235.810,203.457 235.976 C 204.037 236.487,209.928 235.787,210.696 235.116 C 211.083 234.778,212.088 234.378,212.929 234.227 C 213.770 234.076,215.030 233.604,215.729 233.178 C 216.428 232.752,217.321 232.402,217.713 232.401 C 218.104 232.401,218.522 232.146,218.641 231.837 C 218.760 231.527,219.430 231.041,220.129 230.757 C 220.828 230.473,221.635 229.916,221.923 229.520 C 222.210 229.124,222.609 228.800,222.809 228.800 C 223.009 228.800,224.439 227.534,225.986 225.986 C 227.534 224.439,228.800 223.009,228.800 222.809 C 228.800 222.609,229.124 222.210,229.520 221.923 C 229.916 221.635,230.473 220.828,230.757 220.129 C 231.041 219.430,231.527 218.760,231.837 218.641 C 232.146 218.522,232.400 217.994,232.400 217.466 C 232.400 216.939,232.737 216.079,233.148 215.554 C 233.559 215.029,234.025 213.970,234.183 213.200 C 234.341 212.430,234.804 211.080,235.211 210.200 C 236.001 208.496,236.410 203.513,235.773 203.358 C 235.568 203.308,228.136 210.559,219.257 219.470 " stroke="none" fill="#939393" fill-rule="evenodd"></path><path id="path1" d="M0.000 200.000 L 0.000 400.000 200.000 400.000 L 400.000 400.000 400.000 200.000 L 400.000 0.000 200.000 0.000 L 0.000 0.000 0.000 200.000 M300.714 87.894 C 302.362 88.949,312.800 99.584,312.800 100.209 C 312.800 100.627,106.360 307.476,101.462 311.965 L 100.409 312.931 99.005 312.174 C 98.232 311.758,97.600 311.307,97.600 311.170 C 97.600 310.780,94.801 308.000,94.408 308.000 C 94.213 308.000,93.943 307.649,93.806 307.220 C 93.670 306.792,93.208 306.330,92.780 306.194 C 92.351 306.057,92.000 305.787,92.000 305.592 C 92.000 305.189,89.215 302.400,88.813 302.400 C 88.667 302.400,88.232 301.738,87.846 300.928 L 87.144 299.456 193.272 193.328 C 251.642 134.958,299.451 87.200,299.514 87.200 C 299.577 87.200,300.117 87.513,300.714 87.894 M214.403 112.427 C 215.171 112.661,218.584 113.020,221.987 113.224 C 225.389 113.427,229.111 113.866,230.257 114.199 C 231.403 114.533,233.749 114.916,235.471 115.051 C 237.192 115.186,239.388 115.635,240.351 116.048 C 241.314 116.462,242.419 116.800,242.807 116.800 C 243.194 116.800,243.936 117.145,244.456 117.568 L 245.400 118.335 228.915 134.866 L 212.430 151.396 201.115 151.407 C 191.120 151.418,189.613 151.502,188.200 152.135 C 187.320 152.529,185.713 153.021,184.628 153.229 C 183.543 153.437,182.361 153.873,182.002 154.199 C 181.642 154.524,180.729 154.909,179.974 155.053 C 179.218 155.197,178.293 155.633,177.918 156.022 C 177.542 156.411,176.687 156.849,176.018 156.996 C 175.348 157.143,174.800 157.439,174.800 157.653 C 174.800 157.867,174.260 158.230,173.600 158.460 C 172.940 158.690,172.400 159.036,172.400 159.229 C 172.400 159.422,171.850 159.864,171.179 160.211 C 169.709 160.971,169.323 161.306,165.206 165.400 C 161.064 169.519,161.024 169.564,160.242 171.100 C 159.877 171.815,159.422 172.400,159.229 172.400 C 159.036 172.400,158.690 172.940,158.460 173.600 C 158.230 174.260,157.881 174.800,157.684 174.800 C 157.488 174.800,157.116 175.501,156.860 176.359 C 156.603 177.216,156.150 178.010,155.853 178.124 C 155.556 178.238,155.195 179.074,155.049 179.981 C 154.904 180.888,154.528 181.730,154.212 181.851 C 153.891 181.974,153.519 182.892,153.367 183.935 C 153.218 184.961,152.821 186.340,152.484 187.000 C 151.366 189.191,150.743 198.246,151.256 204.853 C 151.506 208.072,151.601 211.132,151.468 211.653 C 151.333 212.182,140.408 223.409,126.705 237.100 C 100.720 263.063,101.128 262.709,99.400 260.800 C 99.002 260.360,98.517 260.000,98.322 260.000 C 98.127 260.000,97.480 259.666,96.884 259.257 C 96.288 258.849,95.278 258.174,94.640 257.757 C 93.315 256.892,92.433 256.291,90.004 254.600 C 89.056 253.940,87.996 253.220,87.648 253.000 C 85.766 251.810,75.454 243.874,74.134 242.600 C 73.678 242.160,72.083 240.720,70.590 239.400 C 65.807 235.171,58.000 227.422,58.000 226.903 C 58.000 226.626,57.739 226.400,57.420 226.400 C 57.101 226.400,56.696 226.152,56.520 225.848 C 56.164 225.233,51.865 220.299,50.571 219.020 C 49.669 218.128,45.600 212.924,45.600 212.662 C 45.600 212.574,44.875 211.713,43.989 210.751 C 43.103 209.788,42.273 208.595,42.146 208.100 C 42.018 207.605,41.771 207.200,41.596 207.200 C 41.313 207.200,40.810 206.509,39.119 203.800 C 38.845 203.360,38.196 202.340,37.678 201.533 C 36.772 200.121,36.913 198.400,37.934 198.400 C 38.102 198.400,38.467 197.770,38.746 197.000 C 39.024 196.230,39.425 195.600,39.636 195.600 C 39.847 195.600,40.199 195.195,40.418 194.700 C 40.638 194.205,41.359 193.080,42.021 192.200 C 42.683 191.320,43.534 190.153,43.912 189.607 C 44.291 189.060,44.870 188.307,45.200 187.932 C 45.530 187.557,46.106 186.834,46.479 186.325 C 47.713 184.643,51.306 180.215,52.160 179.323 C 52.622 178.840,54.170 177.166,55.600 175.602 C 59.809 170.999,64.420 166.400,64.824 166.400 C 65.031 166.400,65.200 166.151,65.200 165.846 C 65.200 165.541,65.605 165.024,66.100 164.696 C 66.595 164.368,67.649 163.492,68.442 162.750 C 72.326 159.113,76.574 155.503,79.556 153.305 C 80.082 152.917,80.913 152.195,81.402 151.700 C 81.891 151.205,82.465 150.800,82.676 150.800 C 82.888 150.800,83.483 150.350,84.000 149.800 C 84.517 149.250,85.150 148.800,85.408 148.800 C 85.665 148.800,86.202 148.440,86.600 148.000 C 86.998 147.560,87.560 147.200,87.848 147.200 C 88.136 147.200,88.551 146.865,88.771 146.455 C 88.990 146.045,89.716 145.483,90.385 145.206 C 91.053 144.929,91.600 144.557,91.600 144.378 C 91.600 144.200,92.005 143.927,92.500 143.772 C 92.995 143.617,93.909 143.065,94.531 142.545 C 95.153 142.025,95.878 141.600,96.142 141.600 C 96.406 141.600,96.930 141.240,97.307 140.800 C 97.684 140.360,98.236 140.000,98.534 140.000 C 98.832 140.000,99.393 139.650,99.779 139.223 C 100.166 138.795,101.004 138.331,101.641 138.191 C 102.279 138.051,102.800 137.764,102.800 137.554 C 102.800 137.344,103.565 136.820,104.500 136.391 C 105.435 135.961,106.470 135.437,106.800 135.226 C 107.492 134.783,109.190 133.914,111.200 132.975 C 111.970 132.615,112.870 132.088,113.200 131.805 C 113.530 131.521,114.373 131.167,115.072 131.019 C 115.772 130.870,116.550 130.502,116.800 130.200 C 117.050 129.898,117.828 129.526,118.528 129.374 C 119.227 129.221,120.229 128.759,120.754 128.348 C 121.279 127.937,122.109 127.600,122.600 127.600 C 123.091 127.600,123.921 127.263,124.446 126.852 C 124.971 126.441,126.030 125.971,126.800 125.809 C 127.570 125.647,128.761 125.173,129.447 124.757 C 130.133 124.341,131.102 124.000,131.600 124.000 C 132.098 124.000,133.067 123.655,133.753 123.234 C 134.439 122.812,135.677 122.342,136.504 122.188 C 137.332 122.035,138.675 121.570,139.489 121.155 C 140.303 120.740,141.426 120.399,141.985 120.398 C 142.543 120.396,143.540 120.111,144.200 119.764 C 144.860 119.417,146.480 118.961,147.800 118.752 C 149.120 118.543,150.770 118.107,151.466 117.783 C 152.162 117.460,153.872 117.081,155.266 116.942 C 156.660 116.802,158.340 116.413,159.000 116.077 C 159.660 115.740,161.969 115.326,164.130 115.157 C 166.292 114.987,168.322 114.631,168.641 114.366 C 168.972 114.091,171.503 113.728,174.511 113.523 C 177.420 113.325,181.510 112.926,183.600 112.637 C 188.415 111.970,212.374 111.807,214.403 112.427 M300.400 139.264 C 300.400 139.472,300.926 139.825,301.568 140.049 C 302.210 140.273,302.828 140.696,302.941 140.990 C 303.054 141.284,303.697 141.646,304.371 141.794 C 305.044 141.941,305.731 142.291,305.898 142.571 C 306.064 142.850,306.662 143.331,307.226 143.640 C 309.325 144.787,311.200 146.089,311.200 146.400 C 311.200 146.577,311.740 146.910,312.400 147.140 C 313.060 147.370,313.600 147.736,313.600 147.952 C 313.600 148.169,313.915 148.447,314.300 148.571 C 314.685 148.694,315.540 149.237,316.200 149.776 C 318.340 151.526,319.607 152.586,320.412 153.300 C 320.845 153.685,321.295 154.000,321.411 154.000 C 321.703 154.000,328.249 159.471,330.274 161.409 C 331.189 162.284,332.578 163.540,333.360 164.200 C 334.143 164.860,334.787 165.625,334.791 165.900 C 334.796 166.175,335.004 166.400,335.252 166.400 C 335.686 166.400,338.963 169.687,344.307 175.482 C 345.686 176.977,347.901 179.370,349.230 180.800 C 350.558 182.230,351.932 183.940,352.282 184.600 C 352.633 185.260,353.252 186.035,353.660 186.323 C 354.067 186.610,354.400 187.086,354.400 187.380 C 354.400 187.674,354.673 188.019,355.006 188.147 C 355.339 188.275,355.785 188.834,355.996 189.390 C 356.207 189.945,356.536 190.400,356.726 190.400 C 356.916 190.400,357.297 190.895,357.572 191.500 C 357.848 192.105,358.325 192.870,358.634 193.200 C 360.112 194.779,361.173 196.352,361.417 197.327 C 361.566 197.917,361.841 198.400,362.029 198.400 C 362.971 198.400,363.274 200.104,362.518 201.148 C 362.099 201.727,361.519 202.785,361.229 203.500 C 360.940 204.215,360.539 204.800,360.339 204.800 C 360.138 204.800,359.845 205.121,359.687 205.513 C 359.367 206.308,358.685 207.279,355.892 210.916 C 354.843 212.282,353.715 213.760,353.385 214.200 C 351.623 216.555,349.845 218.637,349.355 218.920 C 349.050 219.096,348.800 219.425,348.800 219.651 C 348.800 219.878,348.035 220.857,347.100 221.826 C 346.165 222.796,344.230 224.866,342.800 226.427 C 340.021 229.459,333.327 236.104,331.484 237.659 C 330.870 238.176,329.499 239.410,328.436 240.400 C 325.739 242.912,322.862 245.333,322.069 245.759 C 321.701 245.957,321.092 246.407,320.716 246.759 C 319.317 248.069,312.950 252.800,312.586 252.800 C 312.435 252.800,311.458 253.514,310.415 254.387 C 309.373 255.260,308.088 256.162,307.560 256.392 C 307.032 256.622,305.610 257.527,304.400 258.404 C 303.190 259.281,302.003 259.999,301.762 259.999 C 301.521 260.000,301.007 260.350,300.621 260.777 C 300.234 261.205,299.396 261.669,298.759 261.809 C 298.121 261.949,297.600 262.225,297.600 262.422 C 297.600 262.620,296.925 263.120,296.100 263.534 C 295.275 263.948,294.060 264.581,293.400 264.941 C 292.740 265.301,291.975 265.596,291.700 265.598 C 291.425 265.599,291.200 265.760,291.200 265.957 C 291.200 266.153,290.525 266.610,289.700 266.973 C 288.875 267.336,287.750 267.879,287.200 268.180 C 286.650 268.480,285.120 269.204,283.800 269.789 C 282.480 270.373,280.770 271.177,280.000 271.575 C 279.230 271.974,278.015 272.427,277.300 272.582 C 276.585 272.737,276.000 273.022,276.000 273.216 C 276.000 273.410,275.145 273.828,274.100 274.144 C 273.055 274.460,271.660 275.006,271.000 275.357 C 270.340 275.708,269.461 275.996,269.047 275.998 C 268.633 275.999,267.733 276.344,267.047 276.765 C 266.361 277.186,264.951 277.655,263.913 277.808 C 262.875 277.962,261.830 278.323,261.590 278.612 C 261.350 278.901,260.399 279.262,259.477 279.413 C 258.555 279.565,257.080 280.006,256.200 280.393 C 255.320 280.780,253.635 281.219,252.456 281.368 C 251.277 281.517,249.927 281.891,249.456 282.199 C 248.985 282.507,247.340 282.879,245.800 283.026 C 244.260 283.173,242.578 283.557,242.063 283.880 C 241.547 284.203,239.475 284.624,237.458 284.814 C 235.440 285.005,233.162 285.422,232.395 285.740 C 231.628 286.057,229.020 286.434,226.600 286.577 C 224.180 286.720,220.310 287.136,218.000 287.502 C 212.689 288.344,186.835 288.480,184.200 287.680 C 183.320 287.413,179.900 287.009,176.600 286.781 C 173.300 286.554,169.693 286.111,168.585 285.797 C 167.477 285.484,164.937 285.042,162.941 284.816 C 159.148 284.386,155.851 283.230,155.451 282.190 C 155.289 281.765,160.299 276.508,171.890 264.941 L 188.562 248.304 191.181 248.566 C 199.687 249.417,208.851 249.141,212.200 247.933 C 212.860 247.695,214.500 247.207,215.844 246.850 C 217.189 246.492,218.556 245.976,218.883 245.702 C 219.209 245.429,220.035 245.093,220.718 244.956 C 221.400 244.820,222.266 244.369,222.642 243.954 C 223.017 243.539,223.585 243.200,223.904 243.200 C 224.223 243.200,225.019 242.750,225.673 242.200 C 226.327 241.650,227.090 241.200,227.369 241.200 C 227.648 241.200,228.202 240.840,228.600 240.400 C 228.998 239.960,229.498 239.600,229.711 239.600 C 230.216 239.600,239.600 230.216,239.600 229.711 C 239.600 229.498,239.960 228.998,240.400 228.600 C 240.840 228.202,241.200 227.648,241.200 227.369 C 241.200 227.090,241.650 226.327,242.200 225.673 C 242.750 225.019,243.200 224.220,243.200 223.896 C 243.200 223.573,243.533 222.879,243.939 222.354 C 244.345 221.829,244.796 220.918,244.940 220.328 C 245.083 219.738,245.448 219.009,245.751 218.707 C 246.053 218.404,246.503 217.213,246.750 216.059 C 246.998 214.904,247.443 213.474,247.740 212.880 C 248.744 210.873,249.403 200.448,248.869 195.026 C 248.607 192.372,248.395 189.807,248.397 189.327 C 248.400 188.386,296.386 139.975,298.298 138.983 C 299.327 138.449,300.400 138.592,300.400 139.264 M198.720 162.080 C 200.032 163.392,199.321 164.218,181.817 181.722 C 161.465 202.073,160.469 202.744,162.351 194.826 C 162.818 192.861,163.200 190.782,163.200 190.206 C 163.200 189.630,163.553 188.493,163.985 187.679 C 164.416 186.866,164.861 185.738,164.974 185.174 C 165.086 184.609,165.543 183.727,165.989 183.213 C 166.435 182.698,166.800 181.973,166.800 181.601 C 166.800 181.229,167.160 180.598,167.600 180.200 C 168.040 179.802,168.400 179.262,168.400 179.001 C 168.400 177.835,177.835 168.400,179.001 168.400 C 179.262 168.400,179.802 168.040,180.200 167.600 C 180.598 167.160,181.229 166.800,181.601 166.800 C 181.973 166.800,182.698 166.435,183.213 165.989 C 183.727 165.543,184.609 165.084,185.174 164.968 C 185.738 164.853,186.920 164.415,187.800 163.996 C 188.680 163.576,190.390 163.124,191.600 162.990 C 192.810 162.857,194.700 162.502,195.800 162.201 C 198.331 161.509,198.156 161.516,198.720 162.080 M238.400 202.435 C 238.400 203.060,238.134 204.356,237.809 205.314 C 237.483 206.272,237.044 208.277,236.833 209.770 C 236.621 211.262,236.168 212.794,235.824 213.173 C 235.481 213.553,235.200 214.155,235.200 214.513 C 235.200 215.328,234.363 217.200,233.999 217.200 C 233.849 217.200,233.516 217.901,233.260 218.759 C 233.003 219.616,232.524 220.420,232.196 220.546 C 231.868 220.672,231.600 220.970,231.600 221.209 C 231.600 222.663,223.419 230.848,221.100 231.713 C 220.715 231.857,220.400 232.147,220.400 232.356 C 220.400 232.566,219.725 232.957,218.900 233.226 C 218.075 233.494,217.264 233.944,217.098 234.225 C 216.931 234.507,216.211 234.859,215.498 235.008 C 214.784 235.157,213.783 235.543,213.274 235.866 C 212.764 236.189,211.234 236.631,209.874 236.848 C 208.513 237.065,206.629 237.503,205.686 237.822 C 202.205 238.996,200.118 238.404,200.853 236.449 C 201.374 235.061,234.654 201.686,236.200 201.000 C 237.674 200.347,238.400 200.820,238.400 202.435 " stroke="none" fill="#fbfbfb" fill-rule="evenodd"></path><path id="path2" d="M193.900 193.888 C 135.168 252.627,88.400 299.706,88.400 300.090 C 88.400 300.773,91.474 304.400,92.052 304.400 C 92.218 304.400,91.554 303.589,90.577 302.598 C 89.600 301.606,88.800 300.481,88.800 300.097 C 88.800 299.702,134.453 253.747,194.155 194.045 L 299.510 88.690 300.846 89.156 C 301.581 89.412,302.006 89.450,301.791 89.239 C 300.053 87.538,306.168 81.607,193.900 193.888 M303.587 91.491 C 303.824 91.981,304.419 92.576,304.909 92.813 C 305.738 93.214,305.749 93.203,305.068 92.654 C 304.665 92.330,304.070 91.735,303.746 91.332 C 303.197 90.651,303.186 90.662,303.587 91.491 M307.187 95.091 C 307.424 95.581,308.019 96.176,308.509 96.413 C 309.338 96.814,309.349 96.803,308.668 96.254 C 308.265 95.930,307.670 95.335,307.346 94.932 C 306.797 94.251,306.786 94.262,307.187 95.091 M311.246 100.200 C 311.175 101.427,101.258 311.200,100.102 311.200 C 99.577 311.200,98.456 310.462,97.402 309.423 C 96.411 308.446,95.600 307.782,95.600 307.948 C 95.600 308.618,99.283 311.600,100.111 311.600 C 101.441 311.600,311.758 101.218,311.487 100.159 C 311.305 99.446,311.290 99.449,311.246 100.200 M187.200 113.151 C 185.990 113.288,191.750 113.401,200.000 113.402 C 208.250 113.404,214.010 113.299,212.800 113.169 C 209.838 112.853,189.959 112.838,187.200 113.151 M179.911 113.893 C 180.851 113.978,182.291 113.977,183.111 113.891 C 183.930 113.805,183.160 113.736,181.400 113.737 C 179.640 113.739,178.970 113.809,179.911 113.893 M217.300 113.891 C 218.125 113.978,219.475 113.978,220.300 113.891 C 221.125 113.805,220.450 113.734,218.800 113.734 C 217.150 113.734,216.475 113.805,217.300 113.891 M174.105 114.287 C 174.714 114.379,175.614 114.377,176.105 114.282 C 176.597 114.187,176.100 114.111,175.000 114.114 C 173.900 114.117,173.497 114.195,174.105 114.287 M224.100 114.276 C 224.485 114.376,225.115 114.376,225.500 114.276 C 225.885 114.175,225.570 114.093,224.800 114.093 C 224.030 114.093,223.715 114.175,224.100 114.276 M169.200 115.049 L 167.000 115.588 169.104 115.379 C 171.279 115.164,173.846 114.419,172.200 114.481 C 171.760 114.497,170.410 114.753,169.200 115.049 M227.172 114.806 C 227.706 115.038,229.236 115.302,230.572 115.394 C 232.728 115.541,232.798 115.525,231.200 115.245 C 226.187 114.368,226.151 114.364,227.172 114.806 M163.700 115.876 C 164.085 115.976,164.715 115.976,165.100 115.876 C 165.485 115.775,165.170 115.693,164.400 115.693 C 163.630 115.693,163.315 115.775,163.700 115.876 M160.000 116.625 C 159.148 116.948,158.913 117.152,159.400 117.147 C 159.840 117.143,160.830 116.897,161.600 116.600 C 162.438 116.277,162.679 116.068,162.200 116.078 C 161.760 116.088,160.770 116.334,160.000 116.625 M238.346 116.616 C 239.086 116.937,239.986 117.192,240.346 117.182 C 240.706 117.173,240.280 116.905,239.400 116.588 C 237.327 115.842,236.606 115.860,238.346 116.616 M242.370 117.551 C 242.904 117.700,243.399 117.998,243.471 118.212 C 243.744 119.031,211.812 150.455,210.360 150.797 L 209.000 151.118 210.190 151.159 C 211.938 151.219,244.444 118.817,243.625 117.830 C 243.337 117.484,242.719 117.218,242.251 117.240 C 241.479 117.276,241.490 117.305,242.370 117.551 M153.000 118.186 C 151.382 118.926,152.353 118.954,154.054 118.216 C 154.794 117.894,155.130 117.632,154.800 117.634 C 154.470 117.635,153.660 117.883,153.000 118.186 M145.400 120.214 C 144.740 120.517,144.470 120.766,144.800 120.768 C 145.130 120.770,145.850 120.514,146.400 120.200 C 147.665 119.477,146.989 119.487,145.400 120.214 M140.696 121.437 C 140.566 121.567,139.771 121.919,138.930 122.219 C 138.088 122.519,137.724 122.773,138.120 122.782 C 138.850 122.800,141.200 121.738,141.200 121.390 C 141.200 121.131,140.982 121.151,140.696 121.437 M134.406 123.623 C 133.640 124.050,133.235 124.400,133.508 124.400 C 133.780 124.400,134.675 124.040,135.496 123.600 C 136.316 123.160,136.721 122.810,136.394 122.823 C 136.067 122.836,135.173 123.196,134.406 123.623 M121.400 128.800 C 119.861 129.819,120.201 129.819,122.200 128.800 C 123.063 128.360,123.506 128.001,123.185 128.003 C 122.863 128.004,122.060 128.363,121.400 128.800 M117.000 130.827 C 116.340 131.250,115.980 131.596,116.200 131.595 C 116.420 131.595,117.140 131.237,117.800 130.800 C 118.460 130.363,118.820 130.017,118.600 130.032 C 118.380 130.047,117.660 130.404,117.000 130.827 M106.744 135.987 C 105.502 137.022,106.176 137.034,107.491 136.000 C 108.050 135.560,108.324 135.200,108.098 135.200 C 107.873 135.200,107.264 135.554,106.744 135.987 M103.600 137.800 C 102.855 138.350,102.362 138.800,102.505 138.800 C 102.647 138.800,103.428 138.350,104.238 137.800 C 105.049 137.250,105.541 136.800,105.334 136.800 C 105.126 136.800,104.345 137.250,103.600 137.800 M100.041 139.834 C 99.293 140.365,98.853 140.800,99.063 140.800 C 99.273 140.800,100.055 140.350,100.800 139.800 C 102.535 138.520,101.847 138.551,100.041 139.834 M298.200 139.993 C 297.760 140.181,286.510 151.278,273.200 164.652 C 259.890 178.026,249.180 188.834,249.400 188.670 C 249.620 188.507,260.627 177.554,273.859 164.331 C 294.556 143.649,298.086 140.283,299.120 140.245 C 299.781 140.220,300.238 140.065,300.137 139.900 C 299.905 139.521,299.226 139.554,298.200 139.993 M94.400 143.400 C 93.655 143.950,93.250 144.400,93.500 144.400 C 93.953 144.400,96.401 142.437,95.978 142.413 C 95.855 142.406,95.145 142.850,94.400 143.400 M304.033 142.544 C 304.907 143.298,308.430 145.572,308.234 145.256 C 307.948 144.792,304.496 142.400,304.113 142.400 C 303.978 142.400,303.942 142.465,304.033 142.544 M91.200 145.456 C 88.982 147.021,88.399 147.808,90.490 146.416 C 91.529 145.724,92.484 144.987,92.613 144.779 C 92.933 144.262,92.809 144.321,91.200 145.456 M309.784 146.375 C 309.914 146.585,310.838 147.309,311.837 147.983 C 312.835 148.657,313.546 149.036,313.416 148.825 C 313.286 148.615,312.362 147.891,311.363 147.217 C 310.365 146.543,309.654 146.164,309.784 146.375 M85.200 149.684 C 82.628 151.674,75.601 157.306,74.414 158.330 C 72.368 160.095,75.573 157.764,79.235 154.824 C 81.581 152.941,84.640 150.545,86.033 149.500 C 87.426 148.455,88.394 147.617,88.183 147.637 C 87.972 147.657,86.630 148.578,85.200 149.684 M315.000 150.141 C 315.660 150.701,318.270 152.790,320.800 154.785 C 323.330 156.780,325.816 158.765,326.324 159.197 C 327.684 160.353,328.299 160.676,327.676 159.907 C 327.388 159.551,326.128 158.484,324.876 157.536 C 323.624 156.588,320.890 154.448,318.800 152.780 C 315.140 149.860,312.532 148.049,315.000 150.141 M193.800 150.212 L 191.800 150.783 193.800 150.492 C 196.320 150.124,202.201 150.116,205.600 150.475 C 207.586 150.684,207.869 150.659,206.800 150.366 C 204.290 149.678,196.010 149.580,193.800 150.212 M185.776 151.787 C 184.779 152.542,185.158 152.552,186.854 151.816 C 187.847 151.385,187.984 151.227,187.376 151.216 C 186.924 151.207,186.204 151.464,185.776 151.787 M176.600 155.600 C 175.940 156.037,175.605 156.396,175.856 156.397 C 176.293 156.400,178.411 154.838,178.000 154.816 C 177.890 154.810,177.260 155.163,176.600 155.600 M71.800 160.484 L 70.200 162.089 71.900 160.778 C 72.835 160.056,73.600 159.316,73.600 159.133 C 73.600 158.677,73.605 158.674,71.800 160.484 M164.887 164.302 C 163.189 166.009,161.440 167.862,161.000 168.421 C 160.560 168.980,161.161 168.439,162.334 167.219 C 163.508 165.999,165.398 164.146,166.534 163.102 C 167.671 162.057,168.459 161.202,168.287 161.202 C 168.115 161.201,166.585 162.596,164.887 164.302 M196.900 163.357 C 198.024 164.210,198.319 163.879,181.092 181.100 C 164.031 198.155,163.987 198.194,163.321 196.701 C 162.939 195.845,162.911 195.865,162.729 197.101 C 162.298 200.041,163.886 198.692,181.089 181.506 C 197.260 165.352,198.808 163.596,197.367 163.043 C 196.347 162.651,196.147 162.785,196.900 163.357 M62.386 169.484 C 59.204 172.721,56.914 175.129,57.298 174.837 C 57.682 174.544,60.292 171.978,63.098 169.133 C 69.107 163.041,68.577 163.600,68.353 163.600 C 68.254 163.600,65.569 166.248,62.386 169.484 M337.200 169.310 C 340.390 172.549,343.075 175.199,343.168 175.199 C 343.424 175.200,337.937 169.600,334.479 166.332 C 332.786 164.731,334.010 166.071,337.200 169.310 M188.400 164.600 C 187.850 164.914,187.580 165.172,187.800 165.172 C 188.020 165.172,188.650 164.914,189.200 164.600 C 189.750 164.286,190.020 164.028,189.800 164.028 C 189.580 164.028,188.950 164.286,188.400 164.600 M183.800 166.427 C 183.140 166.850,182.780 167.196,183.000 167.195 C 183.220 167.195,183.940 166.837,184.600 166.400 C 185.260 165.963,185.620 165.617,185.400 165.632 C 185.180 165.647,184.460 166.004,183.800 166.427 M180.400 168.209 C 177.964 169.846,176.687 171.003,178.524 169.908 C 180.029 169.012,182.389 167.205,182.000 167.247 C 181.890 167.259,181.170 167.692,180.400 168.209 M158.875 171.184 C 158.394 171.835,158.000 172.500,158.000 172.662 C 158.000 172.823,158.450 172.345,159.000 171.600 C 159.550 170.855,160.000 170.190,160.000 170.122 C 160.000 169.795,159.675 170.102,158.875 171.184 M155.457 176.900 L 154.742 178.200 155.571 177.256 C 156.287 176.440,156.650 175.600,156.286 175.600 C 156.224 175.600,155.851 176.185,155.457 176.900 M54.129 178.100 C 53.684 178.595,53.176 179.270,53.001 179.600 C 52.663 180.237,52.755 180.150,54.376 178.300 C 54.906 177.695,55.249 177.200,55.139 177.200 C 55.029 177.200,54.575 177.605,54.129 178.100 M169.805 178.100 C 168.146 180.463,167.131 182.247,168.085 181.124 C 169.108 179.921,170.852 177.200,170.600 177.200 C 170.511 177.200,170.153 177.605,169.805 178.100 M345.611 178.200 C 346.150 178.860,346.798 179.584,347.049 179.810 C 347.955 180.622,352.000 185.709,352.000 186.037 C 352.000 186.221,352.405 186.582,352.900 186.838 C 353.769 187.288,353.776 187.278,353.093 186.552 C 352.704 186.138,351.375 184.540,350.140 183.000 C 348.904 181.460,347.159 179.480,346.262 178.600 C 345.262 177.620,345.010 177.465,345.611 178.200 M49.787 183.300 L 47.927 185.800 49.572 184.000 C 51.202 182.217,52.205 180.800,51.837 180.800 C 51.733 180.800,50.810 181.925,49.787 183.300 M166.378 183.898 C 165.474 185.701,165.487 185.879,166.420 184.483 C 166.904 183.759,167.217 183.083,167.115 182.982 C 167.013 182.880,166.681 183.292,166.378 183.898 M151.665 185.817 C 151.409 186.378,151.207 187.054,151.216 187.319 C 151.224 187.583,151.497 187.188,151.822 186.439 C 152.505 184.865,152.361 184.290,151.665 185.817 M45.579 188.500 C 43.768 190.925,42.785 192.457,43.209 192.194 C 43.442 192.050,44.073 191.273,44.612 190.466 C 45.151 189.660,45.885 188.595,46.245 188.100 C 46.604 187.605,46.819 187.200,46.724 187.200 C 46.629 187.200,46.113 187.785,45.579 188.500 M164.465 188.617 C 163.795 190.088,163.923 190.402,164.647 189.065 C 164.986 188.440,165.188 187.854,165.096 187.763 C 165.005 187.671,164.721 188.056,164.465 188.617 M150.893 189.600 C 150.893 190.370,150.975 190.685,151.076 190.300 C 151.176 189.915,151.176 189.285,151.076 188.900 C 150.975 188.515,150.893 188.830,150.893 189.600 M355.200 189.797 C 355.200 190.188,358.335 194.400,358.626 194.400 C 358.735 194.400,358.071 193.365,357.149 192.100 C 355.077 189.256,355.200 189.401,355.200 189.797 M249.463 192.600 C 249.613 193.480,249.860 195.100,250.012 196.200 L 250.287 198.200 250.338 196.400 C 250.365 195.410,250.118 193.790,249.789 192.800 L 249.190 191.000 249.463 192.600 M150.068 194.032 C 149.412 196.876,149.489 203.771,150.205 206.200 C 150.529 207.300,150.701 207.660,150.588 207.000 C 150.039 203.803,149.921 197.075,150.372 194.780 C 150.960 191.790,150.721 191.203,150.068 194.032 M163.293 194.400 C 163.293 195.170,163.375 195.485,163.476 195.100 C 163.576 194.715,163.576 194.085,163.476 193.700 C 163.375 193.315,163.293 193.630,163.293 194.400 M40.385 195.715 C 39.298 197.347,39.160 197.600,39.353 197.600 C 39.653 197.600,41.307 195.174,41.128 194.995 C 41.041 194.908,40.707 195.232,40.385 195.715 M359.844 196.380 C 360.088 196.721,360.488 197.360,360.732 197.800 C 360.976 198.240,361.181 198.385,361.188 198.122 C 361.195 197.860,360.795 197.221,360.300 196.703 C 359.805 196.185,359.600 196.040,359.844 196.380 M38.308 199.004 C 37.557 200.008,38.654 202.772,40.313 204.055 C 40.951 204.549,40.955 204.530,40.369 203.793 C 38.486 201.428,37.934 199.936,38.648 199.147 C 39.022 198.733,39.255 198.324,39.164 198.237 C 39.074 198.150,38.689 198.495,38.308 199.004 M361.557 199.283 C 361.980 199.846,361.959 200.124,361.435 200.872 C 361.086 201.370,360.803 201.963,360.807 202.189 C 360.810 202.415,361.196 202.002,361.664 201.272 C 362.488 199.984,362.492 199.922,361.779 199.272 C 361.089 198.642,361.076 198.642,361.557 199.283 M236.287 201.938 C 235.202 202.366,202.389 235.263,201.956 236.355 C 201.461 237.605,201.537 237.645,203.625 237.236 C 205.156 236.935,205.227 236.882,204.143 236.844 C 203.451 236.820,202.793 236.558,202.679 236.262 C 202.409 235.559,235.609 202.415,236.316 202.682 C 236.692 202.824,236.775 203.542,236.622 205.339 L 236.414 207.800 236.975 205.000 C 237.284 203.460,237.551 202.065,237.568 201.900 C 237.606 201.544,237.257 201.555,236.287 201.938 M249.906 204.200 C 249.744 205.520,249.517 207.140,249.401 207.800 C 249.285 208.460,249.472 208.131,249.816 207.068 C 250.161 206.005,250.388 204.385,250.321 203.468 C 250.207 201.897,250.183 201.939,249.906 204.200 M42.417 207.363 C 43.091 208.362,43.815 209.286,44.025 209.416 C 44.236 209.546,43.857 208.835,43.183 207.837 C 42.509 206.838,41.785 205.914,41.575 205.784 C 41.364 205.654,41.743 206.365,42.417 207.363 M356.119 209.023 C 355.723 209.585,354.621 211.070,353.669 212.323 C 352.128 214.350,352.099 214.425,353.404 213.000 C 354.875 211.394,357.319 208.000,357.005 208.000 C 356.913 208.000,356.514 208.460,356.119 209.023 M150.800 210.292 C 150.800 211.462,103.622 259.257,101.719 260.015 C 100.862 260.356,97.580 258.939,96.980 257.968 C 96.855 257.766,96.559 257.600,96.322 257.600 C 95.793 257.600,97.273 258.744,99.345 259.937 C 100.194 260.426,101.184 260.732,101.545 260.617 C 103.147 260.109,151.200 211.407,151.200 210.292 C 151.200 209.692,151.110 209.200,151.000 209.200 C 150.890 209.200,150.800 209.692,150.800 210.292 M235.265 211.417 C 235.009 211.978,234.807 212.654,234.816 212.919 C 234.824 213.183,235.097 212.788,235.422 212.039 C 236.105 210.465,235.961 209.890,235.265 211.417 M49.562 216.729 C 51.400 218.978,53.094 220.935,53.326 221.078 C 53.558 221.221,52.241 219.497,50.399 217.246 C 48.557 214.996,46.863 213.039,46.634 212.898 C 46.406 212.756,47.723 214.481,49.562 216.729 M247.829 214.829 C 247.431 215.934,247.183 216.916,247.277 217.010 C 247.371 217.105,247.774 216.277,248.171 215.171 C 248.569 214.066,248.817 213.084,248.723 212.990 C 248.629 212.895,248.226 213.723,247.829 214.829 M233.437 216.140 C 232.797 217.493,231.942 219.078,231.537 219.662 C 230.580 221.040,230.579 221.595,231.535 220.354 C 232.519 219.077,234.866 214.387,234.718 213.993 C 234.653 213.821,234.077 214.787,233.437 216.140 M350.633 216.100 C 350.063 216.815,349.356 217.670,349.063 218.000 C 348.771 218.330,348.388 218.870,348.213 219.200 C 347.850 219.883,349.734 217.822,351.130 216.009 C 352.385 214.379,351.942 214.460,350.633 216.100 M245.297 221.120 C 244.361 222.994,243.654 224.587,243.726 224.659 C 243.798 224.731,244.641 223.265,245.600 221.400 C 246.559 219.535,247.266 217.942,247.172 217.860 C 247.077 217.778,246.234 219.245,245.297 221.120 M345.194 222.455 C 343.987 223.805,341.861 226.100,340.469 227.555 C 339.077 229.010,337.367 230.839,336.669 231.621 C 335.971 232.402,337.200 231.214,339.400 228.981 C 344.877 223.422,347.979 220.000,347.543 220.000 C 347.458 220.000,346.401 221.105,345.194 222.455 M56.783 224.954 C 57.764 225.969,58.637 226.800,58.723 226.800 C 59.047 226.800,56.565 224.092,55.800 223.611 C 55.360 223.334,55.802 223.939,56.783 224.954 M226.189 226.500 L 223.400 229.400 226.300 226.611 C 228.994 224.020,229.383 223.600,229.089 223.600 C 229.028 223.600,227.723 224.905,226.189 226.500 M241.087 228.632 C 240.550 229.349,240.518 229.530,240.956 229.361 C 241.276 229.239,241.646 228.856,241.778 228.512 C 242.152 227.537,241.869 227.586,241.087 228.632 M238.387 232.089 C 236.262 234.573,234.909 235.936,231.983 238.546 C 230.782 239.617,230.070 240.348,230.400 240.171 C 232.348 239.128,241.242 230.000,240.311 230.000 C 240.235 230.000,239.370 230.940,238.387 232.089 M219.211 231.820 C 218.447 232.359,217.666 232.800,217.474 232.800 C 217.283 232.800,216.669 233.160,216.109 233.600 C 215.550 234.040,215.286 234.400,215.522 234.400 C 215.759 234.400,216.066 234.217,216.204 233.994 C 216.342 233.771,217.083 233.325,217.851 233.005 C 219.285 232.405,221.587 230.785,220.954 230.820 C 220.759 230.830,219.975 231.280,219.211 231.820 M63.200 231.351 C 63.200 231.488,63.920 232.341,64.800 233.248 C 65.680 234.155,66.400 234.785,66.400 234.649 C 66.400 234.512,65.680 233.659,64.800 232.752 C 63.920 231.845,63.200 231.215,63.200 231.351 M68.200 236.345 C 69.080 237.290,70.160 238.253,70.600 238.486 C 71.040 238.718,71.310 238.827,71.200 238.727 C 67.303 235.191,66.620 234.648,68.200 236.345 M211.376 235.387 C 210.366 236.151,210.804 236.159,212.254 235.402 C 212.884 235.074,213.119 234.804,212.776 234.802 C 212.434 234.801,211.804 235.064,211.376 235.387 M332.377 235.500 C 332.047 235.885,331.066 236.785,330.197 237.500 C 329.328 238.215,328.732 238.800,328.871 238.800 C 329.252 238.800,332.553 235.991,332.920 235.355 C 333.361 234.590,333.098 234.660,332.377 235.500 M71.400 239.478 C 71.620 239.685,73.330 241.077,75.200 242.572 C 78.348 245.088,77.983 244.609,74.258 241.338 C 72.912 240.155,70.340 238.482,71.400 239.478 M325.403 241.806 C 324.304 242.793,323.534 243.600,323.691 243.600 C 323.848 243.600,324.837 242.793,325.888 241.807 C 328.371 239.478,327.996 239.478,325.403 241.806 M227.327 241.927 C 224.979 243.582,224.702 244.186,227.009 242.620 C 227.835 242.059,228.647 241.600,228.813 241.600 C 228.979 241.600,229.218 241.330,229.345 241.000 C 229.471 240.670,229.536 240.415,229.487 240.433 C 229.439 240.451,228.467 241.123,227.327 241.927 M223.256 244.413 C 222.016 245.446,222.575 245.435,223.891 244.400 C 224.450 243.960,224.749 243.606,224.554 243.613 C 224.359 243.621,223.775 243.981,223.256 244.413 M320.600 245.657 C 319.280 246.764,317.570 248.087,316.800 248.597 C 316.030 249.107,314.770 250.097,314.000 250.796 C 312.810 251.877,312.916 251.838,314.712 250.534 C 319.345 247.170,323.855 243.454,323.100 243.622 C 323.045 243.635,321.920 244.550,320.600 245.657 M81.872 247.897 C 82.571 248.504,84.101 249.691,85.272 250.536 L 87.400 252.071 85.800 250.619 C 84.920 249.820,83.705 248.899,83.100 248.573 C 82.495 248.246,82.000 247.823,82.000 247.633 C 82.000 247.442,81.685 247.175,81.300 247.040 C 80.915 246.905,81.172 247.290,81.872 247.897 M215.117 247.770 C 214.522 248.081,213.712 248.419,213.317 248.521 C 212.722 248.676,212.712 248.715,213.256 248.754 C 213.617 248.779,214.697 248.444,215.656 248.009 C 216.615 247.574,217.130 247.215,216.800 247.211 C 216.470 247.208,215.713 247.459,215.117 247.770 M172.480 265.326 C 157.160 280.633,155.994 281.894,156.670 282.426 C 157.319 282.937,157.346 282.931,156.914 282.376 C 156.500 281.844,158.884 279.300,172.944 265.276 C 182.027 256.214,189.361 248.800,189.240 248.800 C 189.119 248.800,181.577 256.237,172.480 265.326 M192.800 249.785 C 193.790 250.117,195.050 250.370,195.600 250.348 C 196.641 250.306,195.652 250.025,192.400 249.436 C 191.255 249.229,191.328 249.293,192.800 249.785 M205.400 249.809 C 204.158 250.128,203.779 250.335,204.400 250.356 C 204.950 250.373,206.210 250.133,207.200 249.821 C 209.429 249.118,208.121 249.110,205.400 249.809 M88.929 253.118 C 89.330 253.563,90.185 254.145,90.829 254.412 C 91.473 254.679,92.000 255.036,92.000 255.206 C 92.000 255.376,92.315 255.624,92.700 255.759 C 93.602 256.074,91.731 254.499,89.724 253.254 C 88.388 252.426,88.290 252.409,88.929 253.118 M310.000 253.456 C 307.782 255.021,307.199 255.808,309.290 254.416 C 310.329 253.724,311.284 252.987,311.413 252.779 C 311.733 252.262,311.609 252.321,310.000 253.456 M94.200 256.800 C 94.598 257.240,95.104 257.600,95.323 257.600 C 95.543 257.600,95.307 257.240,94.800 256.800 C 94.293 256.360,93.787 256.000,93.677 256.000 C 93.566 256.000,93.802 256.360,94.200 256.800 M305.200 256.800 C 304.693 257.240,304.457 257.600,304.677 257.600 C 304.896 257.600,305.402 257.240,305.800 256.800 C 306.198 256.360,306.434 256.000,306.323 256.000 C 306.213 256.000,305.707 256.360,305.200 256.800 M299.256 260.413 C 298.736 260.846,298.491 261.200,298.711 261.200 C 298.931 261.200,299.536 260.846,300.056 260.413 C 300.575 259.981,300.820 259.627,300.600 259.627 C 300.380 259.627,299.775 259.981,299.256 260.413 M293.944 263.624 L 293.000 264.447 294.200 263.745 C 295.779 262.820,295.803 262.800,295.311 262.800 C 295.079 262.800,294.464 263.171,293.944 263.624 M282.744 269.223 C 282.002 269.869,281.971 269.958,282.600 269.636 C 283.957 268.942,284.622 268.413,284.144 268.406 C 283.894 268.403,283.264 268.770,282.744 269.223 M274.600 272.800 C 273.940 273.237,273.580 273.595,273.800 273.595 C 274.020 273.595,274.740 273.237,275.400 272.800 C 276.060 272.363,276.420 272.005,276.200 272.005 C 275.980 272.005,275.260 272.363,274.600 272.800 M270.941 273.997 C 270.468 274.188,269.954 274.551,269.797 274.805 C 269.621 275.089,269.952 275.044,270.656 274.688 C 271.285 274.370,272.070 274.009,272.400 273.886 C 272.933 273.688,272.933 273.662,272.400 273.657 C 272.070 273.654,271.413 273.807,270.941 273.997 M260.611 277.825 C 259.182 278.570,258.683 279.053,259.800 278.610 C 260.240 278.435,261.230 278.054,262.000 277.764 C 262.905 277.422,263.117 277.230,262.600 277.220 C 262.160 277.212,261.265 277.484,260.611 277.825 M254.400 279.800 C 253.122 280.530,253.396 280.534,255.400 279.812 C 256.280 279.495,256.640 279.234,256.200 279.232 C 255.760 279.230,254.950 279.486,254.400 279.800 M248.200 281.386 C 246.600 282.118,247.392 282.135,249.400 281.412 C 250.280 281.095,250.640 280.835,250.200 280.836 C 249.760 280.836,248.860 281.083,248.200 281.386 M159.600 283.421 C 161.851 284.130,162.586 284.112,161.000 283.386 C 160.340 283.083,159.350 282.840,158.800 282.845 C 158.096 282.851,158.333 283.021,159.600 283.421 M239.800 283.386 C 238.182 284.126,239.153 284.154,240.854 283.416 C 241.594 283.094,241.930 282.832,241.600 282.834 C 241.270 282.835,240.460 283.083,239.800 283.386 M236.305 284.283 C 236.802 284.379,237.522 284.375,237.905 284.275 C 238.287 284.175,237.880 284.096,237.000 284.101 C 236.120 284.105,235.807 284.187,236.305 284.283 M166.705 284.683 C 167.202 284.779,167.922 284.775,168.305 284.675 C 168.687 284.575,168.280 284.496,167.400 284.501 C 166.520 284.505,166.207 284.587,166.705 284.683 M229.800 285.009 C 228.700 285.292,227.080 285.567,226.200 285.622 C 224.974 285.697,224.852 285.758,225.678 285.884 C 226.646 286.032,228.650 285.728,232.800 284.804 C 234.155 284.502,234.161 284.492,233.000 284.494 C 232.340 284.494,230.900 284.726,229.800 285.009 M169.800 285.200 C 170.240 285.389,170.960 285.544,171.400 285.544 L 172.200 285.544 171.400 285.200 C 170.960 285.011,170.240 284.856,169.800 284.856 L 169.000 284.856 169.800 285.200 M173.105 285.883 C 173.602 285.979,174.322 285.975,174.705 285.875 C 175.087 285.775,174.680 285.696,173.800 285.701 C 172.920 285.705,172.607 285.787,173.105 285.883 M177.911 286.293 C 178.851 286.378,180.291 286.377,181.111 286.291 C 181.930 286.205,181.160 286.136,179.400 286.137 C 177.640 286.139,176.970 286.209,177.911 286.293 M220.307 286.290 C 221.026 286.379,222.106 286.377,222.707 286.286 C 223.308 286.195,222.720 286.122,221.400 286.124 C 220.080 286.126,219.588 286.201,220.307 286.290 M185.400 286.889 C 188.065 287.440,211.856 287.441,215.200 286.890 C 217.489 286.513,217.249 286.494,213.200 286.731 C 207.333 287.074,193.507 287.078,187.800 286.738 C 184.244 286.525,183.784 286.554,185.400 286.889 M93.600 306.200 C 94.346 306.970,95.047 307.600,95.157 307.600 C 95.267 307.600,94.746 306.970,94.000 306.200 C 93.254 305.430,92.553 304.800,92.443 304.800 C 92.333 304.800,92.854 305.430,93.600 306.200 " stroke="none" fill="#bcbcbc" fill-rule="evenodd"></path><path id="path3" d="M193.272 193.328 L 87.144 299.456 87.846 300.928 C 88.232 301.738,88.667 302.400,88.813 302.400 C 89.215 302.400,92.000 305.189,92.000 305.592 C 92.000 305.787,92.351 306.057,92.780 306.194 C 93.208 306.330,93.670 306.792,93.806 307.220 C 93.943 307.649,94.213 308.000,94.408 308.000 C 94.801 308.000,97.600 310.780,97.600 311.170 C 97.600 311.307,98.232 311.758,99.005 312.174 L 100.409 312.931 101.462 311.965 C 106.360 307.476,312.800 100.627,312.800 100.209 C 312.800 99.238,300.505 87.200,299.514 87.200 C 299.451 87.200,251.642 134.958,193.272 193.328 M306.196 93.804 C 309.018 96.625,311.297 99.246,311.446 99.840 C 311.789 101.207,101.754 311.600,100.046 311.600 C 98.859 311.600,88.400 301.321,88.400 300.155 C 88.400 298.795,299.210 88.330,300.305 88.597 C 300.803 88.718,303.454 91.062,306.196 93.804 M183.600 112.637 C 181.510 112.926,177.420 113.325,174.511 113.523 C 171.503 113.728,168.972 114.091,168.641 114.366 C 168.322 114.631,166.292 114.987,164.130 115.157 C 161.969 115.326,159.660 115.740,159.000 116.077 C 158.340 116.413,156.660 116.802,155.266 116.942 C 153.872 117.081,152.162 117.460,151.466 117.783 C 150.770 118.107,149.120 118.543,147.800 118.752 C 146.480 118.961,144.860 119.417,144.200 119.764 C 143.540 120.111,142.543 120.396,141.985 120.398 C 141.426 120.399,140.303 120.740,139.489 121.155 C 138.675 121.570,137.332 122.035,136.504 122.188 C 135.677 122.342,134.439 122.812,133.753 123.234 C 133.067 123.655,132.098 124.000,131.600 124.000 C 131.102 124.000,130.133 124.341,129.447 124.757 C 128.761 125.173,127.570 125.647,126.800 125.809 C 126.030 125.971,124.971 126.441,124.446 126.852 C 123.921 127.263,123.091 127.600,122.600 127.600 C 122.109 127.600,121.279 127.937,120.754 128.348 C 120.229 128.759,119.227 129.221,118.528 129.374 C 117.828 129.526,117.050 129.898,116.800 130.200 C 116.550 130.502,115.772 130.870,115.072 131.019 C 114.373 131.167,113.530 131.521,113.200 131.805 C 112.870 132.088,111.970 132.615,111.200 132.975 C 109.190 133.914,107.492 134.783,106.800 135.226 C 106.470 135.437,105.435 135.961,104.500 136.391 C 103.565 136.820,102.800 137.344,102.800 137.554 C 102.800 137.764,102.279 138.051,101.641 138.191 C 101.004 138.331,100.166 138.795,99.779 139.223 C 99.393 139.650,98.832 140.000,98.534 140.000 C 98.236 140.000,97.684 140.360,97.307 140.800 C 96.930 141.240,96.406 141.600,96.142 141.600 C 95.878 141.600,95.153 142.025,94.531 142.545 C 93.909 143.065,92.995 143.617,92.500 143.772 C 92.005 143.927,91.600 144.200,91.600 144.378 C 91.600 144.557,91.053 144.929,90.385 145.206 C 89.716 145.483,88.990 146.045,88.771 146.455 C 88.551 146.865,88.136 147.200,87.848 147.200 C 87.560 147.200,86.998 147.560,86.600 148.000 C 86.202 148.440,85.665 148.800,85.408 148.800 C 85.150 148.800,84.517 149.250,84.000 149.800 C 83.483 150.350,82.888 150.800,82.676 150.800 C 82.465 150.800,81.891 151.205,81.402 151.700 C 80.913 152.195,80.082 152.917,79.556 153.305 C 76.574 155.503,72.326 159.113,68.442 162.750 C 67.649 163.492,66.595 164.368,66.100 164.696 C 65.605 165.024,65.200 165.541,65.200 165.846 C 65.200 166.151,65.031 166.400,64.824 166.400 C 64.420 166.400,59.809 170.999,55.600 175.602 C 54.170 177.166,52.622 178.840,52.160 179.323 C 51.306 180.215,47.713 184.643,46.479 186.325 C 46.106 186.834,45.530 187.557,45.200 187.932 C 44.870 188.307,44.291 189.060,43.912 189.607 C 43.534 190.153,42.683 191.320,42.021 192.200 C 41.359 193.080,40.638 194.205,40.418 194.700 C 40.199 195.195,39.847 195.600,39.636 195.600 C 39.425 195.600,39.024 196.230,38.746 197.000 C 38.467 197.770,38.102 198.400,37.934 198.400 C 36.913 198.400,36.772 200.121,37.678 201.533 C 38.196 202.340,38.845 203.360,39.119 203.800 C 40.810 206.509,41.313 207.200,41.596 207.200 C 41.771 207.200,42.018 207.605,42.146 208.100 C 42.273 208.595,43.103 209.788,43.989 210.751 C 44.875 211.713,45.600 212.574,45.600 212.662 C 45.600 212.924,49.669 218.128,50.571 219.020 C 51.865 220.299,56.164 225.233,56.520 225.848 C 56.696 226.152,57.101 226.400,57.420 226.400 C 57.739 226.400,58.000 226.626,58.000 226.903 C 58.000 227.422,65.807 235.171,70.590 239.400 C 72.083 240.720,73.678 242.160,74.134 242.600 C 75.454 243.874,85.766 251.810,87.648 253.000 C 87.996 253.220,89.056 253.940,90.004 254.600 C 92.433 256.291,93.315 256.892,94.640 257.757 C 95.278 258.174,96.288 258.849,96.884 259.257 C 97.480 259.666,98.127 260.000,98.322 260.000 C 98.517 260.000,99.002 260.360,99.400 260.800 C 101.128 262.709,100.720 263.063,126.705 237.100 C 140.408 223.409,151.333 212.182,151.468 211.653 C 151.601 211.132,151.506 208.072,151.256 204.853 C 150.743 198.246,151.366 189.191,152.484 187.000 C 152.821 186.340,153.218 184.961,153.367 183.935 C 153.519 182.892,153.891 181.974,154.212 181.851 C 154.528 181.730,154.904 180.888,155.049 179.981 C 155.195 179.074,155.556 178.238,155.853 178.124 C 156.150 178.010,156.603 177.216,156.860 176.359 C 157.116 175.501,157.488 174.800,157.684 174.800 C 157.881 174.800,158.230 174.260,158.460 173.600 C 158.690 172.940,159.036 172.400,159.229 172.400 C 159.422 172.400,159.877 171.815,160.242 171.100 C 161.024 169.564,161.064 169.519,165.206 165.400 C 169.323 161.306,169.709 160.971,171.179 160.211 C 171.850 159.864,172.400 159.422,172.400 159.229 C 172.400 159.036,172.940 158.690,173.600 158.460 C 174.260 158.230,174.800 157.867,174.800 157.653 C 174.800 157.439,175.348 157.143,176.018 156.996 C 176.687 156.849,177.542 156.411,177.918 156.022 C 178.293 155.633,179.218 155.197,179.974 155.053 C 180.729 154.909,181.642 154.524,182.002 154.199 C 182.361 153.873,183.543 153.437,184.628 153.229 C 185.713 153.021,187.320 152.529,188.200 152.135 C 189.613 151.502,191.120 151.418,201.115 151.407 L 212.430 151.396 228.915 134.866 L 245.400 118.335 244.456 117.568 C 243.936 117.145,243.194 116.800,242.807 116.800 C 242.419 116.800,241.314 116.462,240.351 116.048 C 239.388 115.635,237.192 115.186,235.471 115.051 C 233.749 114.916,231.403 114.533,230.257 114.199 C 229.111 113.866,225.389 113.427,221.987 113.224 C 218.584 113.020,215.171 112.661,214.403 112.427 C 212.374 111.807,188.415 111.970,183.600 112.637 M219.000 113.585 C 222.520 113.841,226.490 114.298,227.823 114.601 C 229.155 114.904,231.675 115.279,233.423 115.433 C 235.170 115.587,237.658 116.048,238.952 116.457 C 240.246 116.866,241.709 117.200,242.203 117.200 C 245.298 117.200,244.877 117.718,228.171 134.452 C 209.337 153.318,212.037 151.381,205.709 150.565 C 202.728 150.180,199.443 149.999,197.804 150.128 C 193.302 150.482,187.521 151.471,185.913 152.161 C 185.095 152.513,184.123 152.800,183.753 152.800 C 183.154 152.800,179.585 154.327,178.000 155.262 C 177.670 155.457,176.846 155.872,176.168 156.185 C 169.604 159.216,159.216 169.604,156.185 176.168 C 155.872 176.846,155.461 177.670,155.271 178.000 C 151.082 185.280,149.099 197.434,150.605 206.600 C 150.931 208.580,151.198 210.467,151.198 210.792 C 151.200 211.465,102.545 260.300,101.563 260.612 C 100.987 260.795,99.923 260.272,95.843 257.800 C 94.063 256.722,92.244 255.475,92.000 255.165 C 91.890 255.026,91.260 254.613,90.600 254.248 C 89.940 253.882,88.320 252.775,87.000 251.788 C 85.680 250.800,84.150 249.681,83.600 249.301 C 72.614 241.704,51.787 220.884,44.288 210.000 C 43.909 209.450,42.744 207.764,41.700 206.253 C 37.602 200.328,37.503 200.109,38.347 198.882 C 38.757 198.287,39.750 196.810,40.553 195.600 C 42.771 192.260,44.660 189.668,46.965 186.800 C 48.114 185.370,49.463 183.660,49.962 183.000 C 52.963 179.027,67.686 163.868,72.200 160.101 C 78.306 155.007,86.561 148.561,88.462 147.403 C 88.826 147.181,90.716 145.938,92.662 144.640 C 94.608 143.342,96.830 141.886,97.600 141.404 C 98.370 140.922,99.540 140.185,100.200 139.765 C 100.860 139.346,101.850 138.771,102.400 138.487 C 102.950 138.203,104.120 137.529,105.000 136.988 C 105.880 136.448,107.230 135.730,108.000 135.393 C 108.770 135.056,109.670 134.611,110.000 134.404 C 112.597 132.776,127.393 126.000,128.351 126.000 C 128.600 126.000,129.475 125.640,130.296 125.200 C 131.116 124.760,132.061 124.399,132.394 124.398 C 132.727 124.396,133.540 124.106,134.200 123.752 C 134.860 123.399,136.300 122.875,137.400 122.587 C 138.500 122.300,140.210 121.796,141.200 121.467 C 145.369 120.081,147.536 119.451,149.800 118.963 C 151.120 118.679,153.190 118.190,154.400 117.875 C 157.360 117.107,160.501 116.435,163.400 115.952 C 164.720 115.732,167.780 115.204,170.200 114.779 C 172.620 114.353,177.840 113.810,181.799 113.570 C 185.759 113.331,189.089 113.042,189.199 112.929 C 189.531 112.589,212.117 113.086,219.000 113.585 M298.298 138.983 C 296.386 139.975,248.400 188.386,248.397 189.327 C 248.395 189.807,248.607 192.372,248.869 195.026 C 249.403 200.448,248.744 210.873,247.740 212.880 C 247.443 213.474,246.998 214.904,246.750 216.059 C 246.503 217.213,246.053 218.404,245.751 218.707 C 245.448 219.009,245.083 219.738,244.940 220.328 C 244.796 220.918,244.345 221.829,243.939 222.354 C 243.533 222.879,243.200 223.573,243.200 223.896 C 243.200 224.220,242.750 225.019,242.200 225.673 C 241.650 226.327,241.200 227.090,241.200 227.369 C 241.200 227.648,240.840 228.202,240.400 228.600 C 239.960 228.998,239.600 229.498,239.600 229.711 C 239.600 230.216,230.216 239.600,229.711 239.600 C 229.498 239.600,228.998 239.960,228.600 240.400 C 228.202 240.840,227.648 241.200,227.369 241.200 C 227.090 241.200,226.327 241.650,225.673 242.200 C 225.019 242.750,224.223 243.200,223.904 243.200 C 223.585 243.200,223.017 243.539,222.642 243.954 C 222.266 244.369,221.400 244.820,220.718 244.956 C 220.035 245.093,219.209 245.429,218.883 245.702 C 218.556 245.976,217.189 246.492,215.844 246.850 C 214.500 247.207,212.860 247.695,212.200 247.933 C 208.851 249.141,199.687 249.417,191.181 248.566 L 188.562 248.304 171.890 264.941 C 160.299 276.508,155.289 281.765,155.451 282.190 C 155.851 283.230,159.148 284.386,162.941 284.816 C 164.937 285.042,167.477 285.484,168.585 285.797 C 169.693 286.111,173.300 286.554,176.600 286.781 C 179.900 287.009,183.320 287.413,184.200 287.680 C 186.835 288.480,212.689 288.344,218.000 287.502 C 220.310 287.136,224.180 286.720,226.600 286.577 C 229.020 286.434,231.628 286.057,232.395 285.740 C 233.162 285.422,235.440 285.005,237.458 284.814 C 239.475 284.624,241.547 284.203,242.063 283.880 C 242.578 283.557,244.260 283.173,245.800 283.026 C 247.340 282.879,248.985 282.507,249.456 282.199 C 249.927 281.891,251.277 281.517,252.456 281.368 C 253.635 281.219,255.320 280.780,256.200 280.393 C 257.080 280.006,258.555 279.565,259.477 279.413 C 260.399 279.262,261.350 278.901,261.590 278.612 C 261.830 278.323,262.875 277.962,263.913 277.808 C 264.951 277.655,266.361 277.186,267.047 276.765 C 267.733 276.344,268.633 275.999,269.047 275.998 C 269.461 275.996,270.340 275.708,271.000 275.357 C 271.660 275.006,273.055 274.460,274.100 274.144 C 275.145 273.828,276.000 273.410,276.000 273.216 C 276.000 273.022,276.585 272.737,277.300 272.582 C 278.015 272.427,279.230 271.974,280.000 271.575 C 280.770 271.177,282.480 270.373,283.800 269.789 C 285.120 269.204,286.650 268.480,287.200 268.180 C 287.750 267.879,288.875 267.336,289.700 266.973 C 290.525 266.610,291.200 266.153,291.200 265.957 C 291.200 265.760,291.425 265.599,291.700 265.598 C 291.975 265.596,292.740 265.301,293.400 264.941 C 294.060 264.581,295.275 263.948,296.100 263.534 C 296.925 263.120,297.600 262.620,297.600 262.422 C 297.600 262.225,298.121 261.949,298.759 261.809 C 299.396 261.669,300.234 261.205,300.621 260.777 C 301.007 260.350,301.521 260.000,301.762 259.999 C 302.003 259.999,303.190 259.281,304.400 258.404 C 305.610 257.527,307.032 256.622,307.560 256.392 C 308.088 256.162,309.373 255.260,310.415 254.387 C 311.458 253.514,312.435 252.800,312.586 252.800 C 312.950 252.800,319.317 248.069,320.716 246.759 C 321.092 246.407,321.701 245.957,322.069 245.759 C 322.862 245.333,325.739 242.912,328.436 240.400 C 329.499 239.410,330.870 238.176,331.484 237.659 C 333.327 236.104,340.021 229.459,342.800 226.427 C 344.230 224.866,346.165 222.796,347.100 221.826 C 348.035 220.857,348.800 219.878,348.800 219.651 C 348.800 219.425,349.050 219.096,349.355 218.920 C 349.845 218.637,351.623 216.555,353.385 214.200 C 353.715 213.760,354.843 212.282,355.892 210.916 C 358.685 207.279,359.367 206.308,359.687 205.513 C 359.845 205.121,360.138 204.800,360.339 204.800 C 360.539 204.800,360.940 204.215,361.229 203.500 C 361.519 202.785,362.099 201.727,362.518 201.148 C 363.274 200.104,362.971 198.400,362.029 198.400 C 361.841 198.400,361.566 197.917,361.417 197.327 C 361.173 196.352,360.112 194.779,358.634 193.200 C 358.325 192.870,357.848 192.105,357.572 191.500 C 357.297 190.895,356.916 190.400,356.726 190.400 C 356.536 190.400,356.207 189.945,355.996 189.390 C 355.785 188.834,355.339 188.275,355.006 188.147 C 354.673 188.019,354.400 187.674,354.400 187.380 C 354.400 187.086,354.067 186.610,353.660 186.323 C 353.252 186.035,352.633 185.260,352.282 184.600 C 351.932 183.940,350.558 182.230,349.230 180.800 C 347.901 179.370,345.686 176.977,344.307 175.482 C 338.963 169.687,335.686 166.400,335.252 166.400 C 335.004 166.400,334.796 166.175,334.791 165.900 C 334.787 165.625,334.143 164.860,333.360 164.200 C 332.578 163.540,331.189 162.284,330.274 161.409 C 328.249 159.471,321.703 154.000,321.411 154.000 C 321.295 154.000,320.845 153.685,320.412 153.300 C 319.607 152.586,318.340 151.526,316.200 149.776 C 315.540 149.237,314.685 148.694,314.300 148.571 C 313.915 148.447,313.600 148.169,313.600 147.952 C 313.600 147.736,313.060 147.370,312.400 147.140 C 311.740 146.910,311.200 146.577,311.200 146.400 C 311.200 146.089,309.325 144.787,307.226 143.640 C 306.662 143.331,306.064 142.850,305.898 142.571 C 305.731 142.291,305.044 141.941,304.371 141.794 C 303.697 141.646,303.054 141.284,302.941 140.990 C 302.828 140.696,302.210 140.273,301.568 140.049 C 300.926 139.825,300.400 139.472,300.400 139.264 C 300.400 138.592,299.327 138.449,298.298 138.983 M300.504 140.100 C 300.995 140.375,301.907 141.005,302.529 141.500 C 303.152 141.995,303.821 142.400,304.017 142.400 C 304.212 142.400,305.143 142.945,306.086 143.611 C 307.029 144.277,308.970 145.626,310.400 146.610 C 311.830 147.594,313.450 148.709,314.000 149.087 C 314.550 149.466,316.260 150.786,317.800 152.020 C 319.340 153.255,321.950 155.296,323.600 156.556 C 328.017 159.929,337.448 168.922,344.000 176.010 C 344.550 176.605,345.668 177.813,346.485 178.694 C 347.302 179.576,348.971 181.535,350.195 183.048 C 351.419 184.562,352.943 186.430,353.581 187.200 C 354.219 187.970,355.170 189.230,355.695 190.000 C 356.220 190.770,357.448 192.531,358.424 193.913 C 359.401 195.296,360.491 196.958,360.847 197.608 C 361.203 198.259,361.703 199.043,361.959 199.351 C 362.578 200.097,360.799 203.520,358.296 206.400 C 358.009 206.730,357.243 207.810,356.594 208.800 C 354.746 211.618,349.586 218.036,345.200 222.973 C 341.157 227.524,329.702 238.638,325.058 242.517 C 323.183 244.082,317.342 248.670,316.400 249.316 C 315.850 249.694,314.410 250.728,313.200 251.615 C 310.882 253.314,305.944 256.729,304.848 257.391 C 303.818 258.013,302.366 258.942,301.240 259.701 C 300.668 260.086,299.627 260.669,298.926 260.995 C 298.225 261.322,297.034 262.008,296.279 262.521 C 294.992 263.394,282.520 269.652,279.000 271.191 C 278.120 271.576,276.590 272.255,275.600 272.699 C 272.703 274.000,269.492 275.252,268.200 275.584 C 267.540 275.754,266.370 276.173,265.600 276.516 C 263.370 277.510,258.553 279.033,253.200 280.436 C 252.210 280.696,250.230 281.239,248.800 281.642 C 247.370 282.046,245.085 282.550,243.722 282.763 C 242.359 282.975,240.862 283.353,240.395 283.603 C 239.928 283.852,237.841 284.231,235.757 284.444 C 233.673 284.658,231.515 285.004,230.961 285.215 C 230.408 285.425,227.760 285.782,225.078 286.007 C 222.395 286.232,218.400 286.607,216.200 286.839 C 209.798 287.514,195.519 287.731,190.000 287.237 C 187.250 286.991,182.300 286.607,179.000 286.384 C 175.700 286.161,172.010 285.731,170.800 285.428 C 169.590 285.125,167.340 284.755,165.800 284.605 C 162.555 284.291,157.226 282.942,156.504 282.253 C 156.115 281.882,159.576 278.221,172.504 265.329 L 189.000 248.878 191.200 249.233 C 192.410 249.427,194.210 249.762,195.200 249.976 C 197.521 250.478,202.549 250.489,204.600 249.997 C 205.480 249.786,207.980 249.341,210.157 249.009 C 212.333 248.676,214.315 248.237,214.562 248.032 C 214.809 247.827,215.908 247.441,217.005 247.173 C 218.102 246.906,219.270 246.465,219.600 246.194 C 219.930 245.923,220.861 245.489,221.668 245.230 C 222.475 244.971,223.352 244.498,223.617 244.180 C 223.882 243.861,224.294 243.600,224.534 243.600 C 225.564 243.600,232.147 238.609,235.378 235.378 C 242.450 228.305,247.889 217.997,249.188 209.200 C 249.432 207.550,249.813 204.940,250.034 203.400 C 250.439 200.591,250.283 196.960,249.613 193.600 C 248.609 188.561,245.803 192.017,273.093 164.681 C 299.183 138.547,298.625 139.048,300.504 140.100 M195.800 162.201 C 194.700 162.502,192.810 162.857,191.600 162.990 C 190.390 163.124,188.680 163.576,187.800 163.996 C 186.920 164.415,185.738 164.853,185.174 164.968 C 184.609 165.084,183.727 165.543,183.213 165.989 C 182.698 166.435,181.973 166.800,181.601 166.800 C 181.229 166.800,180.598 167.160,180.200 167.600 C 179.802 168.040,179.262 168.400,179.001 168.400 C 177.835 168.400,168.400 177.835,168.400 179.001 C 168.400 179.262,168.040 179.802,167.600 180.200 C 167.160 180.598,166.800 181.229,166.800 181.601 C 166.800 181.973,166.435 182.698,165.989 183.213 C 165.543 183.727,165.086 184.609,164.974 185.174 C 164.861 185.738,164.416 186.866,163.985 187.679 C 163.553 188.493,163.200 189.630,163.200 190.206 C 163.200 190.782,162.818 192.861,162.351 194.826 C 160.469 202.744,161.465 202.073,181.817 181.722 C 199.321 164.218,200.032 163.392,198.720 162.080 C 198.156 161.516,198.331 161.509,195.800 162.201 M197.367 163.043 C 197.715 163.176,198.000 163.584,198.000 163.949 C 198.000 164.934,164.364 198.400,163.375 198.400 C 162.409 198.400,163.030 192.680,164.395 189.000 C 164.803 187.900,165.239 186.640,165.364 186.200 C 165.570 185.475,166.039 184.559,168.847 179.400 C 170.017 177.250,177.362 169.956,179.562 168.759 C 184.307 166.178,186.245 165.217,186.720 165.209 C 187.006 165.204,187.805 164.908,188.496 164.550 C 189.187 164.193,191.293 163.676,193.176 163.401 C 195.059 163.126,196.630 162.878,196.667 162.851 C 196.704 162.823,197.019 162.909,197.367 163.043 M236.200 201.000 C 234.654 201.686,201.374 235.061,200.853 236.449 C 200.118 238.404,202.205 238.996,205.686 237.822 C 206.629 237.503,208.513 237.065,209.874 236.848 C 211.234 236.631,212.764 236.189,213.274 235.866 C 213.783 235.543,214.784 235.157,215.498 235.008 C 216.211 234.859,216.931 234.507,217.098 234.225 C 217.264 233.944,218.075 233.494,218.900 233.226 C 219.725 232.957,220.400 232.566,220.400 232.356 C 220.400 232.147,220.715 231.857,221.100 231.713 C 223.419 230.848,231.600 222.663,231.600 221.209 C 231.600 220.970,231.868 220.672,232.196 220.546 C 232.524 220.420,233.003 219.616,233.260 218.759 C 233.516 217.901,233.849 217.200,233.999 217.200 C 234.363 217.200,235.200 215.328,235.200 214.513 C 235.200 214.155,235.481 213.553,235.824 213.173 C 236.168 212.794,236.621 211.262,236.833 209.770 C 237.044 208.277,237.483 206.272,237.809 205.314 C 239.012 201.769,238.367 200.039,236.200 201.000 M237.462 202.500 C 237.338 202.995,237.035 204.750,236.789 206.400 C 235.629 214.181,232.369 220.486,226.430 226.436 C 223.242 229.630,218.460 233.200,217.369 233.200 C 217.110 233.200,216.690 233.450,216.437 233.756 C 216.183 234.061,215.129 234.524,214.093 234.785 C 213.058 235.046,212.005 235.430,211.754 235.638 C 211.307 236.009,201.950 237.683,201.703 237.436 C 201.038 236.771,234.152 202.781,236.287 201.938 C 237.487 201.464,237.696 201.564,237.462 202.500 " stroke="none" fill="#d1d1d1" fill-rule="evenodd"></path><path id="path4" d="M194.100 194.088 C 130.125 258.070,88.800 299.690,88.800 300.138 C 88.800 301.273,98.907 311.200,100.063 311.200 C 101.375 311.200,311.200 101.426,311.200 100.115 C 311.200 99.034,301.709 89.340,300.319 89.000 C 299.524 88.806,285.244 102.934,194.100 194.088 M300.700 89.452 C 301.195 89.585,301.600 89.959,301.600 90.284 C 301.600 90.609,301.954 90.967,302.387 91.081 C 302.819 91.194,303.279 91.618,303.407 92.023 C 303.536 92.428,303.992 92.870,304.420 93.006 C 304.849 93.143,305.200 93.529,305.200 93.864 C 305.200 94.200,305.554 94.567,305.987 94.681 C 306.419 94.794,306.879 95.218,307.007 95.623 C 307.136 96.028,307.572 96.464,307.977 96.593 C 308.382 96.721,308.806 97.181,308.919 97.613 C 309.033 98.046,309.392 98.400,309.719 98.400 C 310.046 98.400,310.434 98.881,310.582 99.469 C 310.877 100.645,101.406 310.795,99.935 310.798 C 99.132 310.800,89.200 300.965,89.200 300.167 C 89.200 299.688,299.041 89.320,299.600 89.240 C 299.710 89.224,300.205 89.319,300.700 89.452 M187.800 113.600 C 185.820 113.737,191.400 113.852,200.200 113.857 C 211.135 113.862,214.554 113.774,211.000 113.578 C 204.842 113.238,192.866 113.250,187.800 113.600 M178.500 114.294 C 179.545 114.376,181.255 114.376,182.300 114.294 C 183.345 114.212,182.490 114.144,180.400 114.144 C 178.310 114.144,177.455 114.212,178.500 114.294 M218.100 114.294 C 219.145 114.376,220.855 114.376,221.900 114.294 C 222.945 114.212,222.090 114.144,220.000 114.144 C 217.910 114.144,217.055 114.212,218.100 114.294 M172.013 114.845 C 171.470 115.061,169.760 115.401,168.213 115.600 L 165.400 115.962 169.000 115.790 C 170.980 115.695,173.500 115.360,174.600 115.045 L 176.600 114.472 174.800 114.461 C 173.810 114.455,172.556 114.628,172.013 114.845 M225.200 115.052 C 226.083 115.444,228.152 115.724,230.800 115.812 L 235.000 115.951 231.600 115.610 C 229.730 115.423,227.693 115.074,227.074 114.835 C 225.124 114.082,223.450 114.276,225.200 115.052 M162.000 116.457 C 161.450 116.680,160.280 117.024,159.400 117.221 C 157.955 117.544,158.025 117.563,160.128 117.415 C 161.408 117.326,162.668 117.080,162.928 116.869 C 163.187 116.658,163.760 116.398,164.200 116.289 C 164.849 116.130,164.812 116.089,164.000 116.072 C 163.450 116.060,162.550 116.233,162.000 116.457 M237.000 116.800 C 237.880 117.225,239.320 117.558,240.200 117.540 L 241.800 117.508 240.400 117.209 C 239.630 117.045,238.493 116.705,237.874 116.455 C 235.994 115.695,235.289 115.974,237.000 116.800 M154.400 118.085 C 153.850 118.324,152.410 118.763,151.200 119.060 L 149.000 119.600 151.392 119.386 C 152.708 119.268,154.164 118.923,154.628 118.618 C 155.092 118.314,155.996 117.988,156.636 117.893 L 157.800 117.720 156.600 117.685 C 155.940 117.666,154.950 117.846,154.400 118.085 M242.933 117.849 C 243.075 118.103,236.250 125.212,227.186 134.249 C 209.791 151.593,210.140 151.320,207.244 149.823 C 205.612 148.979,194.505 148.923,192.880 149.750 C 192.286 150.052,190.540 150.425,189.000 150.579 C 187.460 150.732,185.570 151.176,184.800 151.564 C 184.030 151.952,182.800 152.388,182.068 152.532 C 181.335 152.675,180.275 153.155,179.714 153.596 C 178.431 154.605,178.976 154.633,180.806 153.653 C 181.573 153.243,182.827 152.769,183.594 152.601 C 184.361 152.433,185.351 152.066,185.794 151.785 C 186.237 151.505,188.137 151.077,190.015 150.834 C 191.894 150.591,194.052 150.214,194.813 149.996 C 196.865 149.408,201.657 149.515,206.060 150.249 C 208.203 150.606,210.371 150.791,210.878 150.661 C 212.529 150.237,243.873 118.506,243.230 117.909 C 242.929 117.629,242.795 117.602,242.933 117.849 M146.400 120.187 C 145.850 120.494,144.515 120.868,143.433 121.019 C 142.351 121.170,140.911 121.632,140.233 122.045 C 139.555 122.459,138.547 122.798,137.994 122.799 C 137.441 122.799,136.361 123.136,135.594 123.547 C 134.827 123.957,133.570 124.425,132.800 124.586 C 132.030 124.747,131.018 125.120,130.552 125.414 C 130.086 125.709,129.096 126.125,128.352 126.339 C 127.449 126.599,127.279 126.740,127.840 126.764 C 128.923 126.810,131.200 126.019,131.200 125.596 C 131.200 125.417,131.965 125.145,132.900 124.993 C 133.835 124.840,135.140 124.396,135.800 124.005 C 136.460 123.614,137.840 123.174,138.867 123.028 C 139.894 122.881,140.942 122.511,141.195 122.206 C 141.449 121.900,142.678 121.526,143.928 121.374 C 146.232 121.094,149.800 119.639,148.200 119.632 C 147.760 119.630,146.950 119.880,146.400 120.187 M124.800 127.648 C 123.590 128.297,123.526 128.399,124.326 128.399 C 125.429 128.400,126.800 127.728,126.800 127.186 C 126.800 126.676,126.473 126.752,124.800 127.648 M121.600 128.983 C 121.050 129.292,119.340 130.109,117.800 130.799 C 116.260 131.490,114.730 132.222,114.400 132.428 C 114.070 132.634,113.350 132.981,112.800 133.201 C 112.250 133.420,111.530 133.782,111.200 134.005 C 110.870 134.228,109.880 134.771,109.000 135.211 C 108.120 135.652,106.500 136.534,105.400 137.171 C 104.300 137.809,102.860 138.626,102.200 138.987 C 99.921 140.233,98.594 141.035,96.854 142.215 C 95.893 142.867,94.524 143.760,93.811 144.200 C 88.673 147.370,85.773 149.600,86.789 149.600 C 87.029 149.600,87.325 149.339,87.448 149.019 C 87.570 148.700,88.285 148.236,89.035 147.988 C 89.786 147.741,90.400 147.395,90.400 147.220 C 90.400 147.045,91.413 146.294,92.651 145.551 C 93.888 144.808,95.196 143.930,95.556 143.600 C 95.916 143.270,96.704 142.779,97.305 142.509 C 97.907 142.238,98.400 141.848,98.400 141.640 C 98.400 141.433,98.921 141.149,99.559 141.009 C 100.196 140.869,101.034 140.405,101.421 139.977 C 101.807 139.550,102.331 139.200,102.584 139.200 C 102.837 139.200,103.655 138.750,104.400 138.200 C 105.145 137.650,106.053 137.200,106.416 137.200 C 106.779 137.200,107.402 136.840,107.800 136.400 C 108.198 135.960,108.856 135.600,109.262 135.600 C 109.668 135.600,110.334 135.266,110.742 134.858 C 111.150 134.450,111.991 133.989,112.611 133.833 C 113.230 133.678,114.180 133.202,114.722 132.775 C 115.264 132.349,116.019 132.000,116.400 132.000 C 116.781 132.000,117.524 131.660,118.052 131.245 C 118.580 130.829,119.682 130.304,120.501 130.078 C 121.320 129.852,122.275 129.382,122.623 129.034 C 123.402 128.255,122.937 128.232,121.600 128.983 M298.200 140.394 C 297.760 140.583,286.517 151.638,273.216 164.961 L 249.032 189.185 249.596 191.492 C 250.451 194.991,250.589 204.668,249.820 207.256 C 249.479 208.405,249.223 209.988,249.250 210.773 L 249.300 212.200 249.591 210.600 C 249.751 209.720,250.122 208.460,250.415 207.800 C 251.268 205.877,251.169 193.860,250.283 191.851 C 249.907 190.999,249.600 190.061,249.600 189.766 C 249.600 188.993,297.814 140.873,298.678 140.783 C 300.133 140.632,300.705 140.821,301.762 141.800 C 302.356 142.350,303.074 142.800,303.359 142.800 C 303.643 142.800,304.202 143.160,304.600 143.600 C 304.998 144.040,305.540 144.400,305.804 144.400 C 306.067 144.400,306.755 144.805,307.331 145.300 C 309.354 147.038,310.731 148.000,311.194 148.000 C 311.816 148.000,310.029 146.579,306.600 144.347 C 299.180 139.517,299.687 139.756,298.200 140.394 M312.372 148.747 C 312.623 149.216,313.040 149.600,313.300 149.600 C 313.560 149.600,314.138 149.964,314.586 150.409 C 315.034 150.854,316.120 151.748,317.000 152.395 C 320.094 154.672,320.520 155.007,321.356 155.830 C 321.820 156.286,322.515 156.776,322.900 156.917 C 323.285 157.059,323.600 157.356,323.600 157.577 C 323.600 157.798,324.095 158.246,324.700 158.572 C 325.305 158.898,326.596 159.892,327.568 160.782 C 328.540 161.672,329.473 162.400,329.641 162.400 C 329.809 162.400,330.060 162.760,330.200 163.200 C 330.340 163.640,330.625 164.000,330.833 164.000 C 331.325 164.000,342.800 175.481,342.800 175.972 C 342.800 176.178,343.160 176.460,343.600 176.600 C 344.040 176.740,344.400 177.103,344.400 177.407 C 344.400 177.711,344.650 178.104,344.955 178.280 C 345.260 178.456,346.170 179.410,346.978 180.400 C 349.867 183.942,351.414 185.772,352.300 186.697 C 352.795 187.214,353.200 187.798,353.200 187.996 C 353.200 188.193,353.524 188.590,353.920 188.877 C 354.316 189.165,354.878 189.985,355.169 190.700 C 355.459 191.415,355.860 192.000,356.058 192.000 C 356.257 192.000,356.593 192.455,356.804 193.010 C 357.015 193.566,357.461 194.125,357.794 194.253 C 358.127 194.381,358.400 194.723,358.400 195.012 C 358.400 195.302,358.812 196.047,359.316 196.669 C 361.683 199.593,361.301 201.792,357.692 206.013 C 356.340 207.595,354.800 209.747,354.800 210.055 C 354.800 210.245,354.431 210.805,353.981 211.300 C 352.201 213.256,351.677 213.874,350.168 215.796 C 349.305 216.894,348.470 217.974,348.311 218.196 C 347.113 219.874,342.057 225.372,338.000 229.409 C 331.683 235.694,327.576 239.600,327.283 239.600 C 327.115 239.600,326.671 239.915,326.295 240.300 C 325.920 240.685,325.050 241.450,324.362 242.000 C 323.675 242.550,322.589 243.450,321.951 244.000 C 321.312 244.550,320.324 245.360,319.756 245.800 C 319.188 246.240,318.264 247.005,317.703 247.500 C 317.142 247.995,316.529 248.400,316.342 248.400 C 316.154 248.400,315.682 248.715,315.293 249.100 C 314.649 249.738,313.984 250.234,311.404 252.000 C 310.922 252.330,309.753 253.140,308.807 253.800 C 307.860 254.460,306.753 255.196,306.346 255.436 C 305.939 255.675,305.275 256.170,304.871 256.536 C 304.467 256.901,303.926 257.200,303.669 257.200 C 303.411 257.200,302.844 257.556,302.409 257.991 C 301.974 258.426,301.029 259.063,300.309 259.407 C 297.436 260.778,296.000 261.622,296.000 261.940 C 296.000 262.123,295.299 262.484,294.441 262.740 C 293.584 262.997,292.780 263.476,292.654 263.804 C 292.345 264.609,292.678 264.554,293.891 263.600 C 294.450 263.160,295.132 262.800,295.405 262.800 C 295.678 262.800,296.135 262.520,296.419 262.177 C 296.704 261.834,297.491 261.298,298.168 260.985 C 298.846 260.672,299.760 260.189,300.200 259.912 C 300.640 259.635,301.810 258.910,302.800 258.301 C 303.790 257.693,304.870 257.011,305.200 256.787 C 305.530 256.563,306.273 256.069,306.851 255.690 C 311.685 252.519,313.301 251.340,320.307 245.876 C 327.263 240.452,329.705 238.261,337.381 230.567 C 342.498 225.438,346.633 221.024,348.779 218.400 C 351.110 215.551,355.523 209.875,356.400 208.597 C 356.950 207.796,357.679 206.839,358.020 206.471 C 358.897 205.523,360.057 203.689,361.063 201.660 L 361.926 199.920 361.073 198.460 C 359.931 196.503,358.926 195.036,356.897 192.364 C 355.964 191.134,355.200 189.959,355.200 189.753 C 355.200 189.546,354.885 189.073,354.500 188.701 C 353.752 187.978,353.161 187.276,349.866 183.200 C 344.491 176.548,331.322 163.069,326.531 159.314 C 325.622 158.602,318.271 152.800,315.592 150.681 C 312.588 148.304,311.920 147.903,312.372 148.747 M84.400 150.713 C 82.576 152.113,74.709 158.408,72.400 160.314 C 70.181 162.146,55.561 176.760,53.493 179.213 C 52.665 180.196,50.978 182.260,49.744 183.800 C 48.510 185.340,47.298 186.732,47.050 186.894 C 46.768 187.078,46.866 187.190,47.313 187.194 C 47.704 187.197,48.141 186.885,48.283 186.500 C 48.424 186.115,48.914 185.425,49.370 184.966 C 49.827 184.507,50.650 183.543,51.200 182.823 C 53.039 180.415,53.794 179.505,54.700 178.603 C 55.195 178.111,55.600 177.516,55.600 177.281 C 55.600 177.046,55.960 176.740,56.400 176.600 C 56.840 176.460,57.200 176.173,57.200 175.962 C 57.200 175.498,68.753 164.000,69.219 164.000 C 69.399 164.000,69.660 163.640,69.800 163.200 C 69.940 162.760,70.279 162.400,70.555 162.400 C 70.830 162.400,71.427 161.995,71.880 161.500 C 72.333 161.005,73.299 160.150,74.026 159.600 C 75.558 158.441,76.815 157.406,78.395 156.000 C 79.013 155.450,79.942 154.679,80.459 154.286 C 80.977 153.894,82.100 153.039,82.955 152.386 C 83.810 151.734,84.659 151.200,84.841 151.200 C 85.023 151.200,85.365 150.840,85.600 150.400 C 86.137 149.397,86.101 149.406,84.400 150.713 M176.291 155.200 C 175.731 155.640,175.105 156.000,174.898 156.000 C 174.691 156.000,174.148 156.315,173.691 156.700 C 173.233 157.085,172.270 157.760,171.549 158.200 C 169.277 159.587,169.039 159.764,167.249 161.400 C 164.126 164.254,160.231 168.333,159.400 169.619 C 159.180 169.960,158.640 170.828,158.200 171.549 C 157.760 172.270,157.085 173.233,156.700 173.691 C 156.315 174.148,156.000 174.682,156.000 174.877 C 156.000 175.073,155.619 175.748,155.154 176.377 C 154.688 177.007,154.379 177.738,154.467 178.002 C 154.555 178.266,155.134 177.481,155.753 176.257 C 156.372 175.034,157.131 173.823,157.439 173.567 C 157.748 173.311,158.000 172.936,158.000 172.734 C 158.000 171.545,165.709 162.982,168.837 160.696 C 169.367 160.310,170.366 159.545,171.058 158.996 C 171.750 158.448,172.487 158.000,172.696 158.000 C 172.905 158.000,173.402 157.640,173.800 157.200 C 174.198 156.760,174.721 156.394,174.962 156.388 C 175.692 156.367,178.649 154.404,177.954 154.402 C 177.599 154.401,176.850 154.760,176.291 155.200 M194.000 163.612 L 192.200 163.904 194.498 163.884 C 197.741 163.855,197.813 163.708,191.512 169.920 C 181.542 179.747,165.647 195.770,165.045 196.599 C 163.704 198.449,163.472 193.508,164.764 190.589 C 165.157 189.700,165.611 188.269,165.772 187.408 C 165.934 186.547,166.411 185.404,166.833 184.867 C 167.255 184.331,167.600 183.473,167.600 182.960 C 167.600 182.438,167.951 181.840,168.400 181.600 C 168.840 181.365,169.200 180.922,169.200 180.617 C 169.200 180.311,169.650 179.527,170.200 178.873 C 170.750 178.219,171.200 177.554,171.200 177.394 C 171.200 177.054,177.109 171.200,177.452 171.200 C 177.580 171.200,178.219 170.750,178.873 170.200 C 179.527 169.650,180.311 169.200,180.617 169.200 C 180.922 169.200,181.365 168.840,181.600 168.400 C 181.840 167.951,182.438 167.600,182.960 167.600 C 183.473 167.600,184.331 167.255,184.867 166.833 C 185.404 166.411,186.551 165.933,187.417 165.770 C 189.397 165.399,192.518 164.021,191.408 164.009 C 190.508 163.999,186.928 165.299,184.721 166.437 C 183.907 166.857,183.033 167.200,182.778 167.200 C 182.524 167.200,181.809 167.605,181.190 168.100 C 180.571 168.595,179.316 169.450,178.400 170.000 C 176.296 171.264,171.525 176.037,170.004 178.400 C 169.367 179.390,168.475 180.678,168.023 181.263 C 167.570 181.848,167.200 182.532,167.200 182.784 C 167.200 183.036,166.857 183.907,166.437 184.721 C 163.819 189.797,162.429 197.603,164.143 197.599 C 164.737 197.598,197.600 164.729,197.600 164.136 C 197.600 163.701,196.614 163.137,196.067 163.260 C 195.920 163.293,194.990 163.452,194.000 163.612 M153.493 179.824 C 153.104 180.343,152.676 181.361,152.541 182.084 C 152.406 182.808,151.975 183.940,151.584 184.600 C 151.194 185.260,150.742 187.053,150.581 188.584 C 150.420 190.116,150.028 191.992,149.710 192.753 C 148.841 194.833,148.902 205.238,149.796 207.472 C 151.028 210.552,151.950 209.469,126.000 235.436 C 99.023 262.431,101.363 260.530,97.988 258.192 C 97.201 257.646,96.370 257.200,96.140 257.200 C 95.911 257.200,95.398 256.840,95.000 256.400 C 94.602 255.960,94.040 255.600,93.752 255.600 C 93.464 255.600,93.035 255.240,92.800 254.800 C 92.565 254.360,92.122 254.000,91.817 254.000 C 91.511 254.000,90.727 253.550,90.073 253.000 C 89.419 252.450,88.756 252.000,88.600 252.000 C 88.444 252.000,87.750 251.542,87.058 250.983 C 85.743 249.920,85.232 249.531,82.600 247.595 C 81.720 246.948,80.730 246.174,80.400 245.876 C 78.135 243.829,72.300 239.200,71.985 239.200 C 71.773 239.200,71.600 238.930,71.600 238.600 C 71.600 238.270,71.444 238.000,71.254 238.000 C 71.063 238.000,69.599 236.740,68.000 235.200 C 66.401 233.660,64.949 232.400,64.773 232.400 C 64.598 232.400,64.340 232.040,64.200 231.600 C 64.060 231.160,63.688 230.800,63.373 230.800 C 63.058 230.800,62.800 230.637,62.800 230.439 C 62.800 230.240,61.207 228.459,59.260 226.482 C 57.312 224.505,55.608 222.598,55.472 222.244 C 55.336 221.890,54.949 221.600,54.613 221.600 C 54.276 221.600,54.000 221.362,54.000 221.072 C 54.000 220.782,53.595 220.166,53.100 219.704 C 52.605 219.242,51.132 217.500,49.826 215.832 C 48.520 214.165,47.305 212.800,47.126 212.800 C 46.947 212.800,46.800 212.532,46.800 212.203 C 46.800 211.875,46.440 211.382,46.000 211.107 C 45.560 210.832,45.200 210.406,45.200 210.159 C 45.200 209.734,43.587 207.424,42.225 205.900 C 41.881 205.515,41.600 205.034,41.600 204.831 C 41.600 204.628,41.188 203.953,40.684 203.331 C 38.843 201.056,38.637 197.200,40.357 197.200 C 40.547 197.200,40.941 196.615,41.231 195.900 C 41.522 195.185,42.084 194.365,42.480 194.077 C 42.876 193.790,43.200 193.338,43.200 193.074 C 43.200 192.809,43.560 192.368,44.000 192.093 C 44.440 191.818,44.800 191.396,44.800 191.154 C 44.800 190.913,45.250 190.181,45.800 189.527 C 46.350 188.873,46.800 188.143,46.800 187.905 C 46.800 187.666,46.305 188.138,45.700 188.954 C 45.095 189.769,43.835 191.406,42.900 192.591 C 41.965 193.776,41.200 194.876,41.200 195.035 C 41.200 195.194,40.750 195.914,40.200 196.636 C 39.650 197.357,39.200 198.079,39.200 198.242 C 39.200 198.404,38.923 198.843,38.584 199.218 C 37.911 199.961,38.322 200.919,40.896 204.600 C 41.511 205.480,42.676 207.190,43.484 208.400 C 44.292 209.610,45.193 210.870,45.485 211.200 C 45.777 211.530,47.770 213.960,49.914 216.600 C 56.144 224.272,65.743 234.137,73.072 240.400 C 75.204 242.222,80.438 246.473,82.067 247.706 C 82.580 248.095,83.990 249.182,85.200 250.123 C 86.410 251.064,88.300 252.404,89.400 253.101 C 91.979 254.736,93.907 256.071,94.594 256.698 C 94.894 256.973,95.558 257.381,96.070 257.606 C 96.581 257.830,97.856 258.546,98.902 259.197 C 101.607 260.878,100.143 262.126,126.700 235.524 C 153.633 208.547,151.489 211.204,150.200 206.400 C 149.515 203.847,149.399 196.475,150.012 194.397 C 150.239 193.629,150.600 191.651,150.815 190.001 C 151.190 187.122,151.992 184.576,153.690 180.874 C 154.600 178.892,154.517 178.454,153.493 179.824 M219.071 219.136 C 200.762 237.458,200.968 237.184,206.051 236.476 L 209.000 236.066 206.329 236.129 C 204.860 236.163,203.539 236.072,203.393 235.926 C 203.247 235.780,210.447 228.341,219.394 219.394 C 228.341 210.447,235.768 203.235,235.900 203.366 C 236.031 203.498,236.093 204.729,236.037 206.102 C 235.906 209.311,236.214 208.978,236.552 205.545 C 236.754 203.491,236.690 202.843,236.268 202.682 C 235.932 202.552,229.372 208.829,219.071 219.136 M235.136 210.344 C 234.771 211.145,234.342 212.430,234.184 213.200 C 234.025 213.970,233.559 215.029,233.148 215.554 C 232.737 216.079,232.401 216.889,232.402 217.354 C 232.402 217.871,232.868 217.267,233.600 215.800 C 234.258 214.480,234.798 213.166,234.798 212.880 C 234.799 212.594,235.081 211.817,235.424 211.153 C 235.767 210.489,235.992 209.708,235.924 209.417 C 235.856 209.126,235.501 209.543,235.136 210.344 M248.033 215.539 C 247.501 217.222,246.809 219.026,246.493 219.547 C 246.029 220.314,246.023 220.459,246.460 220.314 C 246.757 220.215,247.154 219.609,247.343 218.967 C 247.532 218.325,248.043 217.080,248.480 216.200 C 248.916 215.320,249.212 214.122,249.137 213.539 C 249.033 212.732,248.768 213.211,248.033 215.539 M231.455 219.002 C 231.123 219.334,230.725 220.009,230.569 220.502 C 230.413 220.996,229.951 221.635,229.543 221.923 C 229.134 222.210,228.800 222.609,228.800 222.809 C 228.800 223.009,227.534 224.439,225.986 225.986 C 224.439 227.534,223.009 228.800,222.809 228.800 C 222.609 228.800,222.210 229.124,221.923 229.520 C 221.635 229.916,220.828 230.473,220.129 230.757 C 219.430 231.041,218.756 231.538,218.632 231.862 C 218.473 232.276,218.749 232.206,219.565 231.625 C 220.202 231.171,220.934 230.800,221.192 230.800 C 221.449 230.800,223.716 228.743,226.230 226.230 C 228.743 223.716,230.800 221.449,230.800 221.192 C 230.800 220.934,231.172 220.201,231.627 219.562 C 232.518 218.311,232.431 218.027,231.455 219.002 M244.187 224.100 C 243.560 225.255,242.812 226.438,242.524 226.729 C 242.236 227.019,242.000 227.488,242.000 227.770 C 242.000 228.052,241.595 228.753,241.100 229.326 C 240.605 229.900,239.660 231.029,239.000 231.834 C 235.086 236.611,228.872 241.892,224.800 243.901 C 224.250 244.172,223.530 244.560,223.200 244.762 C 221.641 245.717,214.749 248.531,213.000 248.926 C 212.524 249.034,212.748 249.126,213.553 249.154 C 214.297 249.179,215.467 248.862,216.153 248.449 C 216.839 248.035,218.058 247.581,218.861 247.438 C 219.665 247.295,220.421 246.923,220.540 246.611 C 220.660 246.299,221.386 245.926,222.153 245.782 C 222.920 245.639,223.857 245.179,224.236 244.760 C 224.614 244.342,225.183 244.000,225.499 244.000 C 226.120 244.000,226.312 243.863,232.000 239.376 C 236.485 235.838,244.000 227.036,244.000 225.320 C 244.000 225.101,244.360 224.507,244.800 224.000 C 245.487 223.208,245.888 222.000,245.464 222.000 C 245.389 222.000,244.814 222.945,244.187 224.100 M215.729 233.178 C 215.030 233.604,213.770 234.076,212.929 234.227 C 212.088 234.378,211.130 234.725,210.800 234.998 C 210.470 235.272,209.930 235.595,209.600 235.716 C 209.178 235.871,209.243 235.946,209.820 235.968 C 210.271 235.986,210.829 235.811,211.061 235.579 C 211.292 235.348,212.426 234.910,213.581 234.605 C 214.736 234.300,215.977 233.793,216.340 233.478 C 216.703 233.162,217.270 232.805,217.600 232.684 C 218.133 232.488,218.133 232.460,217.600 232.433 C 217.270 232.417,216.428 232.752,215.729 233.178 M172.737 265.478 C 155.835 282.351,155.465 282.800,158.462 282.800 C 159.102 282.800,160.272 283.070,161.062 283.400 C 163.151 284.273,164.083 284.110,162.200 283.200 C 161.320 282.775,159.865 282.421,158.967 282.414 C 158.068 282.406,157.229 282.296,157.102 282.169 C 156.932 281.999,183.262 255.463,188.906 250.116 C 189.567 249.490,189.748 249.497,191.706 250.223 C 194.594 251.295,205.248 251.359,208.000 250.322 C 208.990 249.949,210.340 249.571,211.000 249.482 C 212.118 249.331,212.102 249.316,210.764 249.260 C 209.974 249.227,208.444 249.468,207.364 249.796 C 206.041 250.197,203.637 250.391,200.000 250.391 C 196.363 250.391,193.959 250.197,192.636 249.796 C 191.556 249.468,190.306 249.200,189.858 249.200 C 189.318 249.200,183.535 254.697,172.737 265.478 M289.716 265.168 C 289.322 265.590,288.460 266.067,287.800 266.229 C 287.140 266.390,286.171 266.855,285.646 267.261 C 285.121 267.667,284.363 268.000,283.962 268.000 C 283.560 268.000,282.909 268.339,282.516 268.753 C 282.122 269.168,281.170 269.641,280.400 269.806 C 278.867 270.133,276.657 271.600,277.697 271.600 C 278.030 271.600,278.517 271.342,278.779 271.026 C 279.041 270.710,279.828 270.326,280.528 270.174 C 281.227 270.021,282.229 269.559,282.754 269.148 C 283.279 268.737,283.875 268.400,284.079 268.400 C 284.593 268.400,289.751 265.916,290.011 265.543 C 290.128 265.376,290.668 265.062,291.211 264.845 C 292.160 264.467,292.164 264.450,291.316 264.425 C 290.829 264.411,290.109 264.745,289.716 265.168 M274.354 272.349 C 273.829 272.761,272.636 273.226,271.702 273.384 C 270.768 273.541,269.895 273.847,269.761 274.063 C 269.628 274.279,269.132 274.612,268.659 274.803 L 267.800 275.149 268.651 275.175 C 269.119 275.189,269.722 274.935,269.991 274.611 C 270.260 274.286,271.136 273.898,271.937 273.748 C 273.758 273.406,277.271 271.600,276.114 271.600 C 275.670 271.600,274.879 271.937,274.354 272.349 M265.000 276.000 C 264.602 276.440,264.356 276.800,264.453 276.800 C 264.551 276.800,265.337 276.440,266.200 276.000 C 267.603 275.284,267.661 275.200,266.747 275.200 C 266.184 275.200,265.398 275.560,265.000 276.000 M260.300 277.265 C 259.695 277.486,259.200 277.819,259.200 278.005 C 259.200 278.190,258.177 278.470,256.926 278.627 C 255.675 278.783,253.920 279.226,253.026 279.612 C 252.132 279.998,250.385 280.433,249.145 280.580 C 247.904 280.726,246.554 281.100,246.145 281.410 C 245.735 281.721,244.860 282.005,244.200 282.042 C 243.160 282.100,243.128 282.133,243.956 282.290 C 244.481 282.389,246.011 282.109,247.356 281.667 C 248.700 281.225,250.610 280.738,251.600 280.584 C 252.590 280.431,253.850 280.078,254.400 279.800 C 254.950 279.522,256.210 279.166,257.200 279.009 C 258.190 278.852,259.416 278.459,259.924 278.137 C 260.432 277.814,261.602 277.401,262.524 277.219 C 264.187 276.890,264.189 276.888,262.800 276.875 C 262.030 276.869,260.905 277.044,260.300 277.265 M239.111 282.973 C 238.511 283.286,237.611 283.633,237.111 283.744 C 236.610 283.855,236.830 283.881,237.600 283.802 C 240.146 283.541,243.299 282.459,241.600 282.429 C 240.830 282.416,239.710 282.661,239.111 282.973 M167.000 284.374 C 168.540 284.556,170.528 284.923,171.418 285.191 C 172.307 285.458,173.477 285.605,174.018 285.518 C 175.887 285.214,172.045 284.375,168.000 284.205 C 164.406 284.053,164.352 284.062,167.000 284.374 M229.200 284.427 C 228.210 284.609,226.860 284.933,226.200 285.145 L 225.000 285.531 226.121 285.566 C 226.738 285.585,228.448 285.335,229.921 285.011 C 231.394 284.687,233.320 284.357,234.200 284.278 C 235.243 284.185,234.964 284.127,233.400 284.114 C 232.080 284.103,230.190 284.244,229.200 284.427 M179.600 286.009 C 182.130 286.187,186.521 286.527,189.358 286.766 C 196.626 287.377,205.534 287.261,216.000 286.418 L 225.000 285.693 216.800 285.947 C 206.332 286.270,194.509 286.269,183.600 285.943 C 177.979 285.775,176.593 285.798,179.600 286.009 " stroke="none" fill="#b4b4b4" fill-rule="evenodd"></path></g></svg>