<svg width="24" height="24" viewBox="0 0 24 24" fill="none" xmlns="http://www.w3.org/2000/svg">
<g clip-path="url(#clip0_1_1362)">
<path d="M11.25 0.824999C9.24844 1.09687 7.34531 1.90781 5.70938 3.1875C5.12344 3.64219 4.24688 4.54688 3.77344 5.17969C2.70469 6.60469 2.05781 8.0625 1.65938 9.93281C1.64063 10.0312 1.62188 10.0219 1.4625 9.79219C1.24688 9.4875 1.05 9.36562 0.754688 9.36094C0.304688 9.35625 0 9.66562 0 10.1297V10.4016L0.84375 11.6719C1.425 12.5484 1.73438 12.9656 1.84219 13.0312C2.025 13.1437 2.42813 13.1578 2.61563 13.0594C2.76562 12.975 4.74844 10.9875 4.82344 10.8422C4.85156 10.7859 4.875 10.6266 4.875 10.4859C4.875 10.0453 4.57031 9.74062 4.12969 9.74062C3.84844 9.74062 3.74063 9.79219 3.43594 10.0922C3.29531 10.2281 3.1875 10.3031 3.1875 10.2656C3.1875 10.1203 3.42188 9.23906 3.58125 8.78906C4.8 5.30625 7.91719 2.79844 11.6016 2.34375C12.2063 2.26875 13.4344 2.27812 14.0297 2.3625C18.1125 2.94375 21.3516 5.91562 22.2375 9.9C22.4062 10.6547 22.4578 11.1656 22.4578 12.0234C22.4578 15.7172 20.3953 19.0359 17.0625 20.7047C15.1031 21.6844 12.6375 21.9797 10.5094 21.4875C8.50313 21.0234 6.59063 19.8 5.325 18.1734C5.15156 17.9484 4.94531 17.7328 4.87031 17.6953C4.8 17.6578 4.62656 17.625 4.49063 17.625C4.03594 17.625 3.75 17.9109 3.75 18.3656C3.75 18.6656 3.77344 18.7078 4.16719 19.2188C5.325 20.7234 7.18125 22.0359 9.04688 22.6781C10.2609 23.0953 11.25 23.25 12.6797 23.25C14.1234 23.25 15.0375 23.1094 16.3359 22.6828C17.9625 22.1484 19.4719 21.2156 20.7188 19.9687C22.4906 18.1922 23.6016 15.9422 23.9297 13.4391C24.0234 12.7125 24.0234 11.2875 23.9297 10.5609C23.6016 8.0625 22.4906 5.79844 20.7188 4.03125C18.9516 2.25937 16.6875 1.14844 14.1891 0.820312C13.4953 0.731249 11.9344 0.735937 11.25 0.824999Z" fill="white"/>
<path d="M11.9625 4.96875C11.8781 5.02031 11.7703 5.12812 11.7187 5.2125C11.6297 5.3625 11.625 5.45625 11.625 8.99062C11.625 12.2062 11.6344 12.6375 11.7 12.7734C11.7562 12.8953 12.3281 13.3453 14.0812 14.6625C15.3516 15.6141 16.4391 16.4203 16.4953 16.4531C16.6219 16.5187 16.9922 16.5234 17.1609 16.4625C17.2266 16.4344 17.3437 16.3406 17.4234 16.2516C17.7 15.9328 17.6719 15.4641 17.3531 15.1828C17.2547 15.0937 16.2656 14.3391 15.1547 13.5L13.1297 11.9766V8.67187C13.125 5.46093 13.1203 5.3625 13.0312 5.2125C12.8906 4.9875 12.6797 4.875 12.375 4.875C12.2016 4.875 12.0656 4.90312 11.9625 4.96875Z" fill="white"/>
</g>
<defs>
<clipPath id="clip0_1_1362">
<rect width="24" height="24" fill="white"/>
</clipPath>
</defs>
</svg>
