<svg width="36" height="36" viewBox="0 0 36 36" fill="none" xmlns="http://www.w3.org/2000/svg">
<path d="M16.207 0.0492287C11.4891 0.555481 7.21407 2.81251 4.20469 6.39845C2.08828 8.91564 0.77344 11.7703 0.189847 15.1172C0.0562531 15.8836 0.0421906 16.2563 0.0421906 18C0.0421906 19.7438 0.0562531 20.1164 0.189847 20.8828C0.850784 24.6797 2.43985 27.8227 5.0625 30.5438C7.75547 33.3422 11.1516 35.1141 15.1172 35.8102C15.8836 35.9438 16.2563 35.9578 18 35.9578C20.2008 35.9578 20.8617 35.8875 22.5914 35.4445C28.7859 33.8414 33.8414 28.7859 35.4445 22.5914C35.8875 20.8617 35.9578 20.2008 35.9578 18C35.9578 16.2563 35.9437 15.8836 35.8102 15.1172C35.1141 11.1516 33.3352 7.75548 30.5438 5.06251C27.8297 2.44688 24.6586 0.843761 20.925 0.203918C20.243 0.0843849 19.7156 0.0492287 18.2813 0.0351677C17.2969 0.0211029 16.3617 0.0281372 16.207 0.0492287ZM20.1797 2.98829C23.5969 3.53673 26.2898 4.90782 28.6875 7.31251C30.7828 9.40079 32.1609 11.8688 32.7938 14.625C33.2859 16.7977 33.2859 19.2024 32.7938 21.375C31.943 25.1156 29.6086 28.4484 26.2477 30.7125C24.9539 31.5844 22.9922 32.4211 21.375 32.7938C19.2023 33.2859 16.7977 33.2859 14.625 32.7938C10.8844 31.943 7.55156 29.6086 5.2875 26.2477C4.41563 24.9539 3.57891 22.9922 3.20625 21.375C2.71407 19.2024 2.71407 16.7977 3.20625 14.625C3.83907 11.8688 5.21719 9.40079 7.3125 7.31251C9.96328 4.6547 12.9938 3.24845 16.9102 2.8547C17.4656 2.79845 19.5258 2.88282 20.1797 2.98829Z" fill="#095FBA"/>
<path d="M17.3672 9.64688C17.1984 9.73828 16.9594 9.92813 16.8469 10.0758L16.6289 10.35L16.6078 13.4016L16.5867 16.4531H13.6547C10.7438 16.4531 10.7156 16.4531 10.4063 16.6078C10.2375 16.6992 10.0055 16.8891 9.88594 17.0367C9.70313 17.2617 9.66798 17.3813 9.64688 17.775C9.61173 18.3938 9.8086 18.7875 10.3008 19.0898L10.6383 19.3008L13.6195 19.3219L16.5938 19.343V22.282V25.2211L16.7555 25.5305C17.2688 26.4937 18.7313 26.4937 19.2445 25.5305L19.4063 25.2211V22.282V19.343L22.3805 19.3219L25.3617 19.3008L25.6992 19.0898C26.1914 18.7875 26.3883 18.3938 26.3531 17.775C26.332 17.3813 26.2969 17.2617 26.1141 17.0367C25.9945 16.8891 25.7625 16.6992 25.5938 16.6078C25.2844 16.4531 25.2563 16.4531 22.3453 16.4531H19.4133L19.3922 13.4016L19.3711 10.35L19.1531 10.0758C18.8789 9.72422 18.4148 9.49219 18 9.49219C17.8031 9.49219 17.557 9.55547 17.3672 9.64688Z" fill="#095FBA"/>
</svg>
