<svg width="24" height="24" viewBox="0 0 24 24" fill="none" xmlns="http://www.w3.org/2000/svg">
<g clip-path="url(#clip0_225_1970)">
<path d="M8.92969 1.24687C7.725 2.15156 6.65625 2.72812 5.41875 3.13594C4.2 3.53437 3.35156 3.675 1.83281 3.73125C1.03594 3.75937 0.914063 3.77344 0.839063 3.84844C0.754688 3.93281 0.75 4.09219 0.75 7.57969C0.75 9.72187 0.76875 11.4 0.796875 11.6484C1.15781 14.8594 2.52656 17.6906 4.79063 19.9031C5.78906 20.8781 6.24844 21.2156 8.29688 22.4625C9.31875 23.0859 9.61875 23.25 9.75 23.25C9.88125 23.25 10.1813 23.0906 11.2172 22.4578C11.9344 22.0219 12.6797 21.5531 12.8813 21.4172C14.8078 20.1094 16.4719 18.1641 17.4563 16.0687C17.7094 15.5297 18.1547 14.3906 18.1266 14.3578C18.1031 14.3391 17.4328 14.1094 17.3859 14.1094C17.3672 14.1094 17.3391 14.1656 17.3203 14.2359C17.2594 14.4984 16.8797 15.4125 16.6406 15.8906C15.8156 17.5453 14.6344 19.0172 13.2328 20.1422C12.6188 20.6344 12.3234 20.8312 10.9125 21.6937L9.75 22.4016L8.59219 21.6937C6.72188 20.5547 6.19688 20.1703 5.27344 19.2422C3.32813 17.3016 2.07188 14.8078 1.66406 12.0844C1.54219 11.2828 1.5 10.0969 1.5 7.22812V4.5H2.10938C4.59844 4.5 7.16719 3.6 9.29531 1.9875L9.75 1.64062L10.2094 1.9875C10.6969 2.35312 11.3063 2.76094 11.7047 2.98125L11.9531 3.11719V3.40312C11.9531 3.60937 11.9859 3.74531 12.0656 3.90469C12.1266 4.02656 12.1594 4.125 12.1453 4.125C12.0938 4.125 11.3016 3.66094 11.0016 3.45937C10.8516 3.36094 10.5469 3.13125 10.3266 2.94844C9.7875 2.51719 9.7125 2.51719 9.20625 2.91094C8.17969 3.7125 7.02656 4.34062 5.91094 4.70156C4.9875 5.00625 3.975 5.19844 3.23438 5.20781C2.7 5.2125 2.38594 5.26875 2.31094 5.37187C2.25469 5.44687 2.25 5.95781 2.26406 8.625C2.28281 11.6156 2.2875 11.8172 2.38125 12.3141C2.62969 13.6172 2.93906 14.5594 3.4875 15.6797C4.13438 16.9922 4.85156 17.9812 5.91094 19.0078C6.62344 19.6969 6.88594 19.9031 8.33906 20.9016C9.39844 21.6281 9.6 21.75 9.75 21.75C9.9 21.75 10.1016 21.6281 11.1609 20.9016C12.675 19.8656 13.0688 19.5469 13.8516 18.7453C14.5031 18.075 15.0047 17.4422 15.4359 16.7437C15.8297 16.1062 16.3125 15.1266 16.5281 14.5219L16.5891 14.3484L16.2141 14.2266C16.0078 14.1562 15.8344 14.1094 15.825 14.1141C15.8203 14.1234 15.7313 14.3344 15.6328 14.5781C15.0656 15.9844 14.25 17.2125 13.1531 18.3047C12.4922 18.9609 11.9484 19.3922 10.6078 20.2969L9.75 20.8781L8.89688 20.2969C7.56563 19.3969 7.00781 18.9656 6.375 18.3281C4.79531 16.7578 3.76875 14.8875 3.28125 12.6984C3.06563 11.7422 3.04219 11.3437 3.01406 8.61094L2.98594 6H3.29531C3.80156 6 4.71563 5.86406 5.46563 5.67187C6.88125 5.31094 8.16563 4.70156 9.30938 3.84375L9.73594 3.525L9.94219 3.68906C10.4953 4.12969 11.9156 4.97812 12.3234 5.11406C12.3656 5.12812 12.3375 5.25937 12.2391 5.55469L12.0984 5.97656L11.6625 6C11.1656 6.02812 11.0203 6.08906 10.7672 6.37031C10.5563 6.6 10.4859 6.83437 10.5094 7.20937L10.5234 7.5H9.48281C8.49844 7.5 8.43281 7.50469 8.34375 7.59375C8.25469 7.68281 8.25 7.74844 8.25 9.09375V10.5H6.84375C5.49844 10.5 5.43281 10.5047 5.34375 10.5937C5.25469 10.6828 5.25 10.7484 5.25 12C5.25 13.2516 5.25469 13.3172 5.34375 13.4062C5.43281 13.4953 5.49844 13.5 6.84375 13.5H8.25V14.9062C8.25 16.2516 8.25469 16.3172 8.34375 16.4062C8.43281 16.4953 8.49844 16.5 9.75 16.5C11.0016 16.5 11.0672 16.4953 11.1563 16.4062C11.2453 16.3172 11.25 16.2516 11.25 14.9062V13.5H12.6563C14.0016 13.5 14.0672 13.4953 14.1563 13.4062C14.2453 13.3172 14.25 13.2516 14.25 12.3844C14.25 11.7516 14.2688 11.4375 14.3016 11.4047C14.3438 11.3625 14.4281 11.3859 14.6344 11.4891C14.7844 11.5641 15.0938 11.6906 15.3188 11.7656L15.7266 11.9016L15.75 12.3375C15.7781 12.8156 15.8391 12.9656 16.0875 13.2047C16.2984 13.4109 16.5375 13.5 16.875 13.5C17.2125 13.5 17.4516 13.4109 17.6625 13.2047C17.9109 12.9656 17.9719 12.8156 18 12.3375L18.0234 11.9016L18.4313 11.7656C18.6563 11.6906 18.9656 11.5641 19.1156 11.4891L19.3922 11.3484L19.6219 11.5828C19.7484 11.7094 19.9641 11.8687 20.0953 11.9391C20.3063 12.0422 20.3906 12.0562 20.6859 12.0375C21.3516 12.0047 21.7547 11.6016 21.7875 10.9359C21.8063 10.6406 21.7922 10.5562 21.6891 10.3453C21.6188 10.2141 21.4594 9.99844 21.3328 9.87187L21.0984 9.64219L21.2391 9.36562C21.3141 9.21562 21.4406 8.90625 21.5156 8.68125L21.6516 8.27344L22.0875 8.25C22.5656 8.22187 22.7156 8.16094 22.9547 7.9125C23.1609 7.70156 23.25 7.4625 23.25 7.125C23.25 6.7875 23.1609 6.54844 22.9547 6.3375C22.7156 6.08906 22.5656 6.02812 22.0875 6L21.6516 5.97656L21.5156 5.56875C21.4406 5.34375 21.3141 5.03437 21.2391 4.88437L21.0984 4.60781L21.3328 4.37812C21.4594 4.25156 21.6188 4.03594 21.6891 3.90469C21.7922 3.69375 21.8063 3.60937 21.7875 3.31406C21.7547 2.64844 21.3516 2.24531 20.6859 2.2125C20.3906 2.19375 20.3063 2.20781 20.0953 2.31094C19.9641 2.38125 19.7484 2.54062 19.6219 2.66719L19.3922 2.90156L19.1156 2.76094C18.9656 2.68594 18.6563 2.55937 18.4313 2.48437L18.0234 2.34844L18 1.9125C17.9719 1.43437 17.9109 1.28437 17.6625 1.04531C17.4516 0.839062 17.2125 0.749999 16.875 0.749999C16.5375 0.749999 16.2984 0.839062 16.0875 1.04531C15.8391 1.28437 15.7781 1.43437 15.75 1.9125L15.7266 2.34844L15.3188 2.48437C15.0938 2.55937 14.7844 2.68594 14.6344 2.76094L14.3578 2.90156L14.1281 2.66719C13.8047 2.33906 13.5141 2.20312 13.125 2.20312C12.8906 2.20312 12.7594 2.23125 12.5953 2.31562L12.375 2.42344L11.9625 2.18906C11.4469 1.89375 11.175 1.70625 10.4813 1.17656C9.73594 0.604687 9.77813 0.604687 8.92969 1.24687ZM17.0625 1.59375C17.1984 1.66406 17.25 1.89844 17.25 2.41406C17.25 2.80781 17.2641 2.90625 17.3344 2.9625C17.3766 3.00469 17.6203 3.09375 17.8688 3.15937C18.2719 3.2625 18.6234 3.41719 19.2328 3.75469C19.4859 3.89531 19.6031 3.84844 20.0625 3.39375C20.4094 3.05625 20.4891 3 20.625 3C20.8406 3 21 3.15469 21 3.37031C21 3.51094 20.9484 3.58594 20.6063 3.9375C20.1516 4.39687 20.1047 4.51406 20.2453 4.76719C20.5875 5.38594 20.7422 5.74219 20.8406 6.13594C20.9953 6.74531 21 6.75 21.5953 6.75C22.1578 6.75 22.3875 6.82031 22.4344 7.00312C22.5234 7.37344 22.3125 7.5 21.5953 7.5C21 7.5 20.9953 7.50469 20.8406 8.11406C20.7422 8.50781 20.5875 8.86406 20.2453 9.48281C20.1047 9.73594 20.1516 9.85312 20.6063 10.3125C20.9438 10.6594 21 10.7391 21 10.875C21 11.0906 20.8453 11.25 20.6297 11.25C20.4891 11.25 20.4141 11.1984 20.0625 10.8562C19.6031 10.4016 19.4859 10.3547 19.2328 10.4953C18.6141 10.8375 18.2578 10.9922 17.8641 11.0906C17.2547 11.2453 17.25 11.25 17.25 11.8453C17.25 12.5625 17.1234 12.7734 16.7531 12.6844C16.5703 12.6375 16.5 12.4078 16.5 11.8453C16.5 11.25 16.4953 11.2453 15.8859 11.0906C15.4922 10.9922 15.1359 10.8375 14.5172 10.4953C14.2641 10.3547 14.1469 10.4016 13.6875 10.8562C13.3406 11.1937 13.2609 11.25 13.125 11.25C12.9094 11.25 12.75 11.0953 12.75 10.8797C12.75 10.7391 12.8016 10.6641 13.1438 10.3125C13.5984 9.85312 13.6453 9.73594 13.5047 9.48281C13.1625 8.86406 13.0078 8.50781 12.9094 8.11406C12.7547 7.50469 12.75 7.5 12.1547 7.5C11.5922 7.5 11.3625 7.42969 11.3156 7.24687C11.2266 6.87656 11.4375 6.75 12.1547 6.75C12.75 6.75 12.7547 6.74531 12.9094 6.13594C13.0078 5.74219 13.1625 5.38594 13.5047 4.76719C13.6453 4.51406 13.5984 4.39687 13.1438 3.9375C12.8063 3.59062 12.75 3.51094 12.75 3.375C12.75 3.15469 12.9047 3 13.125 3C13.2703 3 13.3313 3.04219 13.6172 3.33281C13.9688 3.68906 14.1328 3.79687 14.3156 3.79687C14.3813 3.79687 14.6484 3.67969 14.9156 3.53906C15.225 3.375 15.5672 3.23906 15.8672 3.15937C16.125 3.09375 16.3734 3.00469 16.4203 2.9625C16.4859 2.90625 16.5 2.80781 16.5 2.40937C16.5 1.90781 16.5422 1.70625 16.6734 1.60312C16.7672 1.5375 16.9406 1.52812 17.0625 1.59375ZM12.2344 8.68125C12.3094 8.90625 12.4359 9.21562 12.5109 9.36562L12.6516 9.64219L12.4219 9.86719C12.2953 9.99375 12.1453 10.1859 12.0844 10.2984L11.9766 10.5H11.6156H11.25V9.36094V8.22656L11.6719 8.25L12.0984 8.27344L12.2344 8.68125ZM10.5 9.65625C10.5 11.0016 10.5047 11.0672 10.5938 11.1562C10.6781 11.2406 10.7531 11.25 11.3344 11.25L11.9766 11.2547L12.1172 11.4984C12.2109 11.6625 12.3328 11.7844 12.4875 11.8828C12.6984 12.0094 12.7547 12.0234 13.1109 12.0234H13.5V12.3844V12.75H12.0938C10.7484 12.75 10.6828 12.7547 10.5938 12.8437C10.5047 12.9328 10.5 12.9984 10.5 14.3437V15.75H9.75H9V14.3437C9 12.9984 8.99531 12.9328 8.90625 12.8437C8.81719 12.7547 8.75156 12.75 7.40625 12.75H6V12V11.25H7.40625C8.75156 11.25 8.81719 11.2453 8.90625 11.1562C8.99531 11.0672 9 11.0016 9 9.65625V8.25H9.75H10.5V9.65625Z" fill="white"/>
<path d="M16.3828 3.83906C15.975 4.02656 15.75 4.40156 15.75 4.88437C15.7547 5.55 16.2047 6 16.875 6C17.55 6 18 5.55 18 4.875C18 4.3875 17.7516 3.99844 17.3344 3.825C17.0906 3.72187 16.6172 3.73125 16.3828 3.83906ZM17.1094 4.64062C17.1609 4.69219 17.2031 4.79531 17.2031 4.875C17.2031 4.95469 17.1609 5.05781 17.1094 5.10937C17.0578 5.16094 16.9547 5.20312 16.875 5.20312C16.7953 5.20312 16.6922 5.16094 16.6406 5.10937C16.5891 5.05781 16.5469 4.95469 16.5469 4.875C16.5469 4.79531 16.5891 4.69219 16.6406 4.64062C16.6922 4.58906 16.7953 4.54687 16.875 4.54687C16.9547 4.54687 17.0578 4.58906 17.1094 4.64062Z" fill="white"/>
<path d="M14.1328 6.08906C13.725 6.27656 13.5 6.65156 13.5 7.13437C13.5047 7.8 13.9547 8.25 14.625 8.25C15.3 8.25 15.75 7.8 15.75 7.125C15.75 6.6375 15.5016 6.24844 15.0844 6.075C14.8406 5.97187 14.3672 5.98125 14.1328 6.08906ZM14.8594 6.89062C14.9109 6.94219 14.9531 7.04531 14.9531 7.125C14.9531 7.20469 14.9109 7.30781 14.8594 7.35937C14.8078 7.41094 14.7047 7.45312 14.625 7.45312C14.5453 7.45312 14.4422 7.41094 14.3906 7.35937C14.3391 7.30781 14.2969 7.20469 14.2969 7.125C14.2969 7.04531 14.3391 6.94219 14.3906 6.89062C14.4422 6.83906 14.5453 6.79687 14.625 6.79687C14.7047 6.79687 14.8078 6.83906 14.8594 6.89062Z" fill="white"/>
<path d="M18.6328 6.08906C18.225 6.27656 18 6.65156 18 7.13437C18.0047 7.8 18.4547 8.25 19.125 8.25C19.8 8.25 20.25 7.8 20.25 7.125C20.25 6.6375 20.0016 6.24844 19.5844 6.075C19.3406 5.97187 18.8672 5.98125 18.6328 6.08906ZM19.3594 6.89062C19.4109 6.94219 19.4531 7.04531 19.4531 7.125C19.4531 7.20469 19.4109 7.30781 19.3594 7.35937C19.3078 7.41094 19.2047 7.45312 19.125 7.45312C19.0453 7.45312 18.9422 7.41094 18.8906 7.35937C18.8391 7.30781 18.7969 7.20469 18.7969 7.125C18.7969 7.04531 18.8391 6.94219 18.8906 6.89062C18.9422 6.83906 19.0453 6.79687 19.125 6.79687C19.2047 6.79687 19.3078 6.83906 19.3594 6.89062Z" fill="white"/>
<path d="M16.3828 8.33906C15.975 8.52656 15.75 8.90156 15.75 9.38437C15.7547 10.05 16.2047 10.5 16.875 10.5C17.55 10.5 18 10.05 18 9.375C18 8.8875 17.7516 8.49844 17.3344 8.325C17.0906 8.22187 16.6172 8.23125 16.3828 8.33906ZM17.1094 9.14062C17.1609 9.19219 17.2031 9.29531 17.2031 9.375C17.2031 9.45469 17.1609 9.55781 17.1094 9.60937C17.0578 9.66094 16.9547 9.70312 16.875 9.70312C16.7953 9.70312 16.6922 9.66094 16.6406 9.60937C16.5891 9.55781 16.5469 9.45469 16.5469 9.375C16.5469 9.29531 16.5891 9.19219 16.6406 9.14062C16.6922 9.08906 16.7953 9.04687 16.875 9.04687C16.9547 9.04687 17.0578 9.08906 17.1094 9.14062Z" fill="white"/>
<path d="M20.625 13.1391V13.5328L20.4328 13.5891L20.2359 13.65L20.0109 13.425L19.7813 13.1953L19.4906 13.4906L19.1953 13.7812L19.425 14.0109L19.65 14.2359L19.5891 14.4328L19.5328 14.625H19.1391H18.75V15V15.375H19.1391H19.5328L19.5891 15.5672L19.65 15.7641L19.425 15.9891L19.1953 16.2187L19.4906 16.5094L19.7813 16.8047L20.0109 16.575L20.2359 16.35L20.4328 16.4109L20.625 16.4672V16.8609V17.25H21H21.375V16.8609V16.4672L21.5672 16.4109L21.7641 16.35L21.9891 16.575L22.2188 16.8047L22.5094 16.5094L22.8047 16.2187L22.575 15.9891L22.35 15.7641L22.4109 15.5672L22.4672 15.375H22.8609H23.25V15V14.625H22.8609H22.4672L22.4109 14.4328L22.35 14.2359L22.575 14.0109L22.8047 13.7812L22.5094 13.4906L22.2188 13.1953L21.9891 13.425L21.7641 13.65L21.5672 13.5891L21.375 13.5328V13.1391V12.75H21H20.625V13.1391ZM21.3656 14.3906C21.975 14.7609 21.7125 15.7031 21 15.7031C20.2875 15.7031 20.025 14.7609 20.6344 14.3906C20.8359 14.2687 21.1641 14.2687 21.3656 14.3906Z" fill="white"/>
<path d="M19.125 17.6203V17.9906L18.8109 18.0891C18.6328 18.1406 18.4313 18.2297 18.3516 18.2812L18.2109 18.375L17.8688 18.0328L17.5313 17.6953L17.2406 17.9906L16.9453 18.2812L17.2828 18.6187L17.625 18.9609L17.5359 19.0969C17.4844 19.1719 17.4 19.3781 17.3391 19.5562L17.2359 19.875H16.8703H16.5V20.25V20.625H16.8703H17.2406L17.3391 20.9391C17.3906 21.1172 17.4797 21.3187 17.5313 21.3984L17.625 21.5391L17.2828 21.8812L16.9453 22.2187L17.2406 22.5094L17.5313 22.8047L17.8688 22.4672L18.2109 22.125L18.3516 22.2187C18.4313 22.2703 18.6328 22.3594 18.8109 22.4109L19.125 22.5094V22.8797V23.25H19.5H19.875V22.8797V22.5094L20.1938 22.4109C20.3672 22.3594 20.5688 22.2703 20.6484 22.2187L20.7891 22.125L21.1313 22.4672L21.4688 22.8047L21.7594 22.5094L22.0547 22.2187L21.7172 21.8812L21.375 21.5391L21.4688 21.3984C21.5203 21.3187 21.6094 21.1172 21.6609 20.9391L21.7594 20.625H22.1297H22.5V20.25V19.875H22.1297H21.7594L21.6609 19.5562C21.6094 19.3828 21.5203 19.1812 21.4688 19.1016L21.375 18.9609L21.7172 18.6187L22.0547 18.2812L21.7594 17.9906L21.4688 17.6953L21.1313 18.0328L20.7891 18.375L20.6484 18.2812C20.5688 18.2297 20.3672 18.1406 20.1938 18.0891L19.875 17.9906V17.6203V17.25H19.5H19.125V17.6203ZM20.1469 18.9328C20.4 19.0641 20.6859 19.3453 20.8219 19.6031C20.9109 19.7719 20.9297 19.875 20.9297 20.25C20.9297 20.6531 20.9156 20.7187 20.7938 20.9437C20.325 21.7875 19.2328 21.9703 18.5063 21.3328C18.4078 21.2484 18.2672 21.0516 18.1875 20.8969C18.0656 20.6531 18.0469 20.5594 18.0469 20.2547C18.0469 19.6547 18.3234 19.2047 18.8578 18.9375C19.1297 18.7969 19.1766 18.7922 19.5469 18.8062C19.8375 18.8203 19.9969 18.8531 20.1469 18.9328Z" fill="white"/>
<path d="M19.5 19.875V20.25H19.875H20.25V19.875V19.5H19.875H19.5V19.875Z" fill="white"/>
<path d="M15 21.75V22.125H15.375H15.75V21.75V21.375H15.375H15V21.75Z" fill="white"/>
<path d="M13.125 22.875V23.25H13.5H13.875V22.875V22.5H13.5H13.125V22.875Z" fill="white"/>
</g>
<defs>
<clipPath id="clip0_225_1970">
<rect width="24" height="24" fill="white"/>
</clipPath>
</defs>
</svg>
