<svg width="26" height="26" viewBox="0 0 26 26" fill="none" xmlns="http://www.w3.org/2000/svg">
<path d="M12.8594 4.39373C11.7391 4.64217 11.1484 5.85623 11.6406 6.90155C12.1609 8.00311 13.6469 8.26092 14.5047 7.39842C15.5266 6.38123 14.9828 4.64686 13.5625 4.37498C13.2625 4.31873 13.1875 4.31873 12.8594 4.39373ZM13.5484 5.14842C13.9797 5.27498 14.2703 5.67342 14.2703 6.1328C14.2703 6.92967 13.3984 7.43123 12.7328 7.01873C12.4516 6.8453 12.2453 6.51717 12.2125 6.2078C12.1703 5.76248 12.4844 5.3078 12.9391 5.14373C13.1687 5.06405 13.2625 5.06405 13.5484 5.14842Z" fill="black"/>
<path d="M13.0891 8.95C12.4422 9.175 12.0859 9.24062 11.1156 9.30156C10.4828 9.33906 10.2063 9.37187 10.0656 9.4375C9.69063 9.60156 9.55469 9.9625 9.5875 10.6937C9.61094 11.2141 9.68125 11.3828 9.93906 11.5797C10.1031 11.7062 10.1359 11.7109 10.7688 11.7344L11.4297 11.7578L11.4438 14.2234L11.4531 16.6891L10.9984 16.7125C10.3 16.7453 9.925 16.9609 9.7 17.4531C9.56406 17.7531 9.56406 18.5125 9.7 18.8125C9.82188 19.0797 10.0563 19.3141 10.3281 19.4406C10.5344 19.5391 10.6 19.5391 13.2578 19.5391H15.9766L16.1875 19.4312C16.4828 19.2766 16.6516 19.1078 16.7781 18.8359C16.8719 18.6391 16.8906 18.5266 16.8906 18.1328C16.8906 17.5797 16.7875 17.2937 16.4922 17.0359C16.2297 16.8062 16.0281 16.7406 15.5219 16.7125L15.0672 16.6891L15.0531 13.1922C15.0391 9.31094 15.0578 9.55469 14.725 9.175C14.3547 8.75312 13.8391 8.68281 13.0891 8.95ZM14.1344 9.66719L14.2891 9.80312L14.3125 13.5578C14.3359 17.2375 14.3359 17.3078 14.4297 17.3781C14.5 17.4344 14.6594 17.4484 15.1 17.4531C15.9859 17.4531 16.1406 17.5562 16.1406 18.1375C16.1406 18.5312 16.0516 18.6859 15.775 18.7656C15.6578 18.8031 14.8094 18.8125 13.1406 18.8031C10.4828 18.7891 10.5484 18.7937 10.4125 18.5359C10.3328 18.3906 10.3328 17.875 10.4125 17.7297C10.5297 17.5094 10.6375 17.4766 11.35 17.4625C11.9969 17.4437 12.0203 17.4391 12.1094 17.3266C12.1984 17.2094 12.2031 17.1344 12.2031 14.4156C12.2031 11.725 12.1984 11.6172 12.1094 11.4344C12.0578 11.3266 11.9406 11.1906 11.8469 11.125C11.6875 11.0219 11.6219 11.0078 11.0359 10.9937C10.6328 10.9797 10.3844 10.9562 10.3656 10.9187C10.3188 10.8484 10.3188 10.225 10.3656 10.1547C10.3938 10.1125 10.6609 10.0797 11.2 10.0469C12.1422 9.99062 12.6344 9.90625 13.2344 9.69531C13.8063 9.49844 13.9375 9.49375 14.1344 9.66719Z" fill="black"/>
<circle cx="13" cy="13" r="12" stroke="black"/>
</svg>
