<svg width="14" height="14" viewBox="0 0 14 14" fill="none" xmlns="http://www.w3.org/2000/svg">
<path d="M5.70979 0.0519528C5.31331 0.180468 4.97425 0.527734 4.85667 0.926953C4.82659 1.02812 4.81292 1.18672 4.81292 1.41094V1.74727L3.45394 1.75547L2.09222 1.76367L1.92815 1.84297C1.71761 1.94687 1.50979 2.15469 1.40589 2.36523L1.32659 2.5293L1.31839 3.19922C1.31292 3.83086 1.31565 3.87461 1.36761 3.95937C1.39769 4.00859 1.46058 4.07148 1.50979 4.10156C1.60003 4.15625 1.66019 4.15625 7.00042 4.15625C12.3407 4.15625 12.4008 4.15625 12.491 4.10156C12.5403 4.07148 12.6032 4.00859 12.6332 3.95937C12.6852 3.87461 12.6879 3.83086 12.6825 3.19922L12.6742 2.5293L12.595 2.36523C12.491 2.15469 12.2832 1.94687 12.0727 1.84297L11.9086 1.76367L10.5496 1.75547L9.18792 1.74727V1.41094C9.18792 1.15391 9.17425 1.03086 9.13597 0.905078C9.01018 0.503125 8.66565 0.161328 8.26097 0.0437497C8.13518 0.00546847 7.93558 -2.83122e-07 6.98948 0.00273409C5.97776 0.00273409 5.84925 0.00820284 5.70979 0.0519528ZM7.94104 0.902344C8.19808 0.959765 8.28831 1.10742 8.30745 1.4793L8.32112 1.75H7.00042H5.67972L5.69339 1.4793C5.71253 1.11289 5.8055 0.959765 6.04612 0.902344C6.17464 0.872265 7.80979 0.869531 7.94104 0.902344Z" fill="white"/>
<path d="M2.02406 5.07228C1.99671 5.1051 2.02406 5.85978 2.17171 8.9633C2.27288 11.0797 2.36859 12.8789 2.38499 12.961C2.47523 13.4203 2.80882 13.7922 3.26273 13.9426C3.43499 14 3.44046 14 7.05804 13.9946L10.6811 13.9863L10.8944 13.8797C11.2772 13.6938 11.5424 13.3547 11.619 12.961C11.6354 12.8789 11.7284 11.0797 11.8295 8.9633C11.9772 5.85705 12.0045 5.1051 11.9772 5.07228C11.9471 5.03674 11.3838 5.03127 7.00062 5.03127C2.62288 5.03127 2.05413 5.03674 2.02406 5.07228ZM5.03187 5.77775C5.08382 5.81057 5.14945 5.88166 5.17953 5.93361C5.23695 6.02932 5.23695 6.05393 5.23695 8.96877C5.23695 11.8836 5.23695 11.9082 5.17953 12.0039C5.00726 12.2965 4.61898 12.2965 4.44671 12.0039C4.38929 11.9082 4.38929 11.8836 4.38929 8.96877C4.38929 6.05393 4.38929 6.02932 4.44671 5.93361C4.52874 5.79416 4.65999 5.71486 4.81312 5.71486C4.90062 5.71486 4.97171 5.734 5.03187 5.77775ZM7.21937 5.77775C7.27132 5.81057 7.33695 5.88166 7.36703 5.93361C7.42445 6.02932 7.42445 6.05393 7.42445 8.96877C7.42445 11.8836 7.42445 11.9082 7.36703 12.0039C7.19476 12.2965 6.80648 12.2965 6.63421 12.0039C6.57679 11.9082 6.57679 11.8836 6.57679 8.96877C6.57679 6.05393 6.57679 6.02932 6.63421 5.93361C6.71624 5.79416 6.84749 5.71486 7.00062 5.71486C7.08812 5.71486 7.15921 5.734 7.21937 5.77775ZM9.40687 5.77775C9.45882 5.81057 9.52445 5.88166 9.55453 5.93361C9.61195 6.02932 9.61195 6.05393 9.61195 8.96877C9.61195 11.8836 9.61195 11.9082 9.55453 12.0039C9.38226 12.2965 8.99398 12.2965 8.82171 12.0039C8.76429 11.9082 8.76429 11.8836 8.76429 8.96877C8.76429 6.05393 8.76429 6.02932 8.82171 5.93361C8.90374 5.79416 9.03499 5.71486 9.18812 5.71486C9.27562 5.71486 9.34671 5.734 9.40687 5.77775Z" fill="white"/>
</svg>
