<svg width="36" height="36" viewBox="0 0 36 36" fill="none" xmlns="http://www.w3.org/2000/svg">
<path d="M5.3086 0.0915969C4.70391 0.330659 4.31016 0.696284 4.05001 1.25878C3.90938 1.56816 3.90235 1.69472 3.90235 3.72675V5.87128L4.09923 6.27207C4.30313 6.69394 4.82344 7.21425 5.11173 7.28456C5.27344 7.32675 5.27344 7.34081 5.27344 8.33222V9.33769L3.47344 11.7143C1.57501 14.2314 1.24454 14.7728 1.12501 15.5393C1.08282 15.8275 1.05469 18.6189 1.05469 23.0275C1.05469 30.7478 1.04766 30.5018 1.4836 31.3736C1.75079 31.901 2.43985 32.6111 2.91798 32.8572C3.74766 33.2721 3.50157 33.258 9.94922 33.258H15.8695L16.0664 33.5603C16.6359 34.4182 17.6906 35.2549 18.6891 35.6416C19.5047 35.951 19.9898 36.0213 21.0094 35.9791C21.9586 35.9439 22.5492 35.8033 23.2383 35.4518C23.7516 35.1986 32.182 30.326 32.5547 30.0728C33.7148 29.2783 34.5938 27.858 34.8539 26.3182C34.9523 25.7346 34.9594 25.5236 34.8891 24.9049C34.6148 22.4439 32.9836 20.5596 30.6211 19.9689C30.0797 19.8353 29.8617 19.8143 29.0391 19.8424C27.7734 19.8916 27.3094 20.0463 25.643 21.0096C24.9398 21.4103 24.1945 21.8393 23.9977 21.9518L23.625 22.1627V18.9002C23.625 15.3564 23.6109 15.251 23.2172 14.4846C23.1117 14.2736 22.2047 13.015 21.2133 11.6932L19.4063 9.28144V8.33925V7.39706L19.7156 7.21425C20.1656 6.9541 20.5875 6.44082 20.7141 6.00488C20.7984 5.70957 20.8125 5.25957 20.7984 3.57207C20.7773 1.54707 20.7773 1.50488 20.6086 1.17441C20.3625 0.703316 19.9406 0.309566 19.4977 0.140816C19.132 0.000190639 18.9492 0.000190639 12.3188 0.00722189C7.28438 0.00722189 5.46329 0.0353469 5.3086 0.0915969ZM18.7875 1.47675C18.9281 1.51894 19.1109 1.63144 19.1953 1.73691C19.3289 1.90566 19.3359 2.01113 19.3359 3.72675C19.3359 5.44238 19.3289 5.54785 19.1953 5.7166C19.1109 5.82207 18.9281 5.93457 18.7875 5.97675C18.3938 6.08222 6.15938 6.06816 5.83594 5.95566C5.38594 5.80097 5.34376 5.61816 5.34376 3.72675C5.34376 1.83535 5.38594 1.65253 5.83594 1.49785C6.15938 1.38535 18.3938 1.37128 18.7875 1.47675ZM17.9297 8.15644V8.85956H14.6602C11.025 8.85956 11.1234 8.8455 10.9688 9.32363C10.9055 9.49941 10.9055 9.62597 10.9688 9.80175C11.1234 10.2799 11.0109 10.2658 14.8359 10.2658H18.2813L20.0813 12.6705C21.8109 14.9768 22.0008 15.258 22.1063 15.6939L22.1484 15.8908H12.375C2.91094 15.8908 2.60157 15.8838 2.60157 15.7572C2.60157 15.4338 2.88985 14.9908 4.76016 12.5018L6.75001 9.83691V8.64863V7.45331H12.3398H17.9297V8.15644ZM22.1484 20.1588V23.0275L20.3063 24.0822C19.2938 24.6588 18.1969 25.3057 17.8664 25.5096C17.1773 25.9385 16.4953 26.5713 16.0945 27.1549L15.8133 27.5627H9.17579H2.53126V22.4299V17.2971H12.3398H22.1484V20.1588ZM30.3047 21.4103C31.7391 21.79 32.8641 22.908 33.3 24.3635C33.4688 24.933 33.4688 25.9807 33.3 26.5361C33.0188 27.4783 32.4703 28.2799 31.7531 28.7861C31.2961 29.1096 28.0336 31.008 27.9352 31.008C27.8789 31.008 23.8219 24.04 23.7797 23.8783C23.7656 23.815 26.8453 22.001 27.6117 21.6283C28.2516 21.3119 29.5453 21.2064 30.3047 21.4103ZM24.4828 28.1182C25.5938 30.0447 26.5219 31.6619 26.543 31.7252C26.5711 31.8025 26.0578 32.133 24.5391 33.0049C23.4211 33.6518 22.3172 34.2424 22.0922 34.3268C21.5227 34.5307 20.3625 34.5799 19.7648 34.4252C18.9844 34.2283 18.4359 33.9119 17.8523 33.3283C16.9945 32.4846 16.5938 31.5424 16.5938 30.3752C16.5938 29.1869 16.9664 28.308 17.8172 27.4643C18.3234 26.965 18.5977 26.7822 20.3555 25.7627C21.4383 25.1369 22.3594 24.6236 22.3945 24.6166C22.4367 24.6166 23.3719 26.1916 24.4828 28.1182ZM15.2016 29.2643C15.1383 29.5736 15.1383 31.1908 15.2086 31.5143L15.2648 31.7814H9.75235C3.55079 31.7814 3.86719 31.8096 3.24141 31.2471C2.79141 30.8463 2.59454 30.3822 2.54532 29.6228L2.51016 29.0393H8.88047H15.2578L15.2016 29.2643Z" fill="#095FBA"/>
<path d="M8.38816 8.98636C8.15613 9.16917 8.05769 9.50667 8.15613 9.80198C8.40223 10.5543 9.56238 10.3575 9.56238 9.56292C9.56238 9.14808 9.2741 8.85979 8.84519 8.85979C8.66941 8.85979 8.47957 8.91604 8.38816 8.98636Z" fill="#095FBA"/>
<path d="M11.9037 19.3219C11.6506 19.5188 11.6013 19.7789 11.6013 20.8828V21.9234L10.4623 21.9516C9.49197 21.9656 9.28806 21.9938 9.12635 22.0992C8.86619 22.275 8.75369 22.6406 8.85916 22.95C8.99978 23.3719 9.13338 23.4141 10.4412 23.4141H11.6013V24.4969C11.6013 25.0875 11.6365 25.6711 11.6787 25.7906C11.7771 26.0719 12.0232 26.2266 12.3748 26.2266C12.6068 26.2266 12.7123 26.1844 12.874 26.0227L13.0779 25.8188V24.6164V23.4141H14.2803H15.4826L15.6865 23.2102C16.0803 22.8094 15.8974 22.1625 15.342 22.0078C15.2013 21.9727 14.6318 21.9375 14.0834 21.9375H13.0779V20.7703V19.6031L12.874 19.3992C12.7053 19.2375 12.6068 19.1953 12.3607 19.1953C12.1849 19.1953 11.9951 19.2516 11.9037 19.3219Z" fill="#095FBA"/>
</svg>
