<svg width="24" height="24" viewBox="0 0 24 24" fill="none" xmlns="http://www.w3.org/2000/svg">
<g clip-path="url(#clip0_29_8147)">
<path d="M3.53907 0.0607383C3.13594 0.220113 2.87344 0.463863 2.7 0.838863C2.60625 1.04511 2.60157 1.12949 2.60157 2.48418V3.91386L2.73282 4.18105C2.86875 4.4623 3.21563 4.80918 3.40782 4.85605C3.51563 4.88418 3.51563 4.89355 3.51563 5.55449V6.2248L2.31563 7.80918C1.05 9.4873 0.829692 9.84824 0.750005 10.3592C0.72188 10.5514 0.70313 12.4123 0.70313 15.3514C0.70313 20.4982 0.698442 20.3342 0.989067 20.9154C1.16719 21.267 1.62657 21.7404 1.94532 21.9045C2.49844 22.181 2.33438 22.1717 6.63282 22.1717H10.5797L10.7109 22.3732C11.0906 22.9451 11.7938 23.5029 12.4594 23.7607C13.0031 23.967 13.3266 24.0139 14.0063 23.9857C14.6391 23.9623 15.0328 23.8685 15.4922 23.6342C15.8344 23.4654 21.4547 20.217 21.7031 20.0482C22.4766 19.5185 23.0625 18.5717 23.2359 17.5451C23.3016 17.156 23.3063 17.0154 23.2594 16.6029C23.0766 14.9623 21.9891 13.706 20.4141 13.3123C20.0531 13.2232 19.9078 13.2092 19.3594 13.2279C18.5156 13.2607 18.2063 13.3639 17.0953 14.006C16.6266 14.2732 16.1297 14.5592 15.9984 14.6342L15.75 14.7748V12.5998C15.75 10.2373 15.7406 10.167 15.4781 9.65605C15.4078 9.51543 14.8031 8.67636 14.1422 7.79511L12.9375 6.1873V5.55918V4.93105L13.1438 4.80918C13.4438 4.63574 13.725 4.29355 13.8094 4.00293C13.8656 3.80605 13.875 3.50605 13.8656 2.38105C13.8516 1.03105 13.8516 1.00293 13.7391 0.782613C13.575 0.468551 13.2938 0.206051 12.9984 0.0935508C12.7547 -0.000199223 12.6328 -0.000199223 8.2125 0.00448828C4.85625 0.00448828 3.64219 0.0232383 3.53907 0.0607383ZM12.525 0.984176C12.6188 1.0123 12.7406 1.0873 12.7969 1.15761C12.8859 1.27011 12.8906 1.34043 12.8906 2.48418C12.8906 3.62793 12.8859 3.69824 12.7969 3.81074C12.7406 3.88105 12.6188 3.95605 12.525 3.98418C12.2625 4.05449 4.10625 4.04511 3.89063 3.97011C3.59063 3.86699 3.5625 3.74511 3.5625 2.48418C3.5625 1.22324 3.59063 1.10136 3.89063 0.998238C4.10625 0.923238 12.2625 0.913863 12.525 0.984176ZM11.9531 5.4373V5.90605H9.77344C7.35 5.90605 7.41563 5.89668 7.3125 6.21543C7.27032 6.33261 7.27032 6.41699 7.3125 6.53418C7.41563 6.85293 7.34063 6.84355 9.89063 6.84355H12.1875L13.3875 8.44668C14.5406 9.98418 14.6672 10.1717 14.7375 10.4623L14.7656 10.5936H8.25C1.94063 10.5936 1.73438 10.5889 1.73438 10.5045C1.73438 10.2889 1.92657 9.99355 3.17344 8.33418L4.5 6.55761V5.76543V4.96855H8.22657H11.9531V5.4373ZM14.7656 13.4389V15.3514L13.5375 16.0545C12.8625 16.4389 12.1313 16.8701 11.9109 17.006C11.4516 17.292 10.9969 17.7139 10.7297 18.1029L10.5422 18.3748H6.11719H1.6875V14.9529V11.5311H8.22657H14.7656V13.4389ZM20.2031 14.2732C21.1594 14.5264 21.9094 15.2717 22.2 16.242C22.3125 16.6217 22.3125 17.3201 22.2 17.6904C22.0125 18.3185 21.6469 18.8529 21.1688 19.1904C20.8641 19.406 18.6891 20.6717 18.6234 20.6717C18.5859 20.6717 15.8813 16.0264 15.8531 15.9185C15.8438 15.8764 17.8969 14.667 18.4078 14.4185C18.8344 14.2076 19.6969 14.1373 20.2031 14.2732ZM16.3219 18.7451C17.0625 20.0295 17.6813 21.1076 17.6953 21.1498C17.7141 21.2014 17.3719 21.4217 16.3594 22.0029C15.6141 22.4342 14.8781 22.8279 14.7281 22.8842C14.3484 23.0201 13.575 23.0529 13.1766 22.9498C12.6563 22.8185 12.2906 22.6076 11.9016 22.2185C11.3297 21.656 11.0625 21.0279 11.0625 20.2498C11.0625 19.4576 11.3109 18.8717 11.8781 18.3092C12.2156 17.9764 12.3984 17.8545 13.5703 17.1748C14.2922 16.7576 14.9063 16.4154 14.9297 16.4107C14.9578 16.4107 15.5813 17.4607 16.3219 18.7451ZM10.1344 19.5092C10.0922 19.7154 10.0922 20.7935 10.1391 21.0092L10.1766 21.1873H6.50157C2.36719 21.1873 2.57813 21.206 2.16094 20.831C1.86094 20.5639 1.72969 20.2545 1.69688 19.7482L1.67344 19.3592H5.92032H10.1719L10.1344 19.5092Z" fill="white"/>
<path d="M5.59223 5.99025C5.43754 6.11213 5.37192 6.33713 5.43754 6.534C5.60161 7.03557 6.37504 6.90432 6.37504 6.37463C6.37504 6.09807 6.18286 5.90588 5.89692 5.90588C5.77973 5.90588 5.65317 5.94338 5.59223 5.99025Z" fill="white"/>
<path d="M7.93592 12.8812C7.76717 13.0125 7.73435 13.1859 7.73435 13.9219V14.6156L6.97498 14.6344C6.3281 14.6437 6.19217 14.6625 6.08435 14.7328C5.91092 14.85 5.83592 15.0937 5.90623 15.3C5.99998 15.5812 6.08904 15.6094 6.96092 15.6094H7.73435V16.3312C7.73435 16.725 7.75779 17.1141 7.78592 17.1937C7.85154 17.3812 8.0156 17.4844 8.24998 17.4844C8.40467 17.4844 8.47498 17.4562 8.58279 17.3484L8.71873 17.2125V16.4109V15.6094H9.52029H10.3219L10.4578 15.4734C10.7203 15.2062 10.5984 14.775 10.2281 14.6719C10.1344 14.6484 9.75467 14.625 9.38904 14.625H8.71873V13.8469V13.0687L8.58279 12.9328C8.47029 12.825 8.40467 12.7969 8.2406 12.7969C8.12342 12.7969 7.99685 12.8344 7.93592 12.8812Z" fill="white"/>
</g>
<defs>
<clipPath id="clip0_29_8147">
<rect width="24" height="24" fill="white"/>
</clipPath>
</defs>
</svg>
