<svg width="24" height="24" viewBox="0 0 24 24" fill="none" xmlns="http://www.w3.org/2000/svg">
<g clip-path="url(#clip0_2_6443)">
<path d="M0.679688 2.50299C0.417188 2.62017 0.178125 2.86861 0.0703125 3.12642C0.0328125 3.21549 0 3.4358 0 3.60455C0 4.16236 0.323438 4.61236 0.829688 4.76236C1.1625 4.86549 22.8422 4.8608 23.1844 4.75767C23.6859 4.60767 24 4.16236 24 3.59986C24 3.42174 23.9719 3.2108 23.9344 3.12174C23.8359 2.88267 23.5781 2.62017 23.3203 2.50299L23.0859 2.39049H12H0.914063L0.679688 2.50299Z" fill="#095FBA"/>
<path d="M0.778017 10.8517C0.107704 11.0907 -0.201671 11.911 0.126454 12.5673C0.271767 12.8485 0.557704 13.0923 0.834267 13.172C1.07802 13.2376 22.9218 13.2376 23.1655 13.172C23.4421 13.0923 23.728 12.8485 23.8733 12.5673C24.2108 11.8923 23.8593 11.0204 23.1655 10.8282C23.0483 10.7954 19.4249 10.7813 11.9765 10.7813C2.7327 10.786 0.932704 10.7954 0.778017 10.8517Z" fill="#095FBA"/>
<path d="M0.796875 19.2422C0.314063 19.3922 0 19.8469 0 20.3953C0 20.5641 0.0328125 20.7844 0.0703125 20.8734C0.178125 21.1312 0.417188 21.3797 0.679688 21.4969L0.914063 21.6094H12H23.0859L23.3203 21.4969C23.5781 21.3797 23.8359 21.1172 23.9344 20.8781C23.9719 20.7891 24 20.5781 24 20.4C24 19.8375 23.6859 19.3922 23.1844 19.2422C22.8422 19.1391 1.125 19.1437 0.796875 19.2422Z" fill="#095FBA"/>
</g>
<defs>
<clipPath id="clip0_2_6443">
<rect width="24" height="24" fill="white"/>
</clipPath>
</defs>
</svg>
