<svg width="36" height="36" viewBox="0 0 36 36" fill="none" xmlns="http://www.w3.org/2000/svg">
<path d="M11.2148 0.133595C10.7016 0.365626 10.3148 0.885938 10.2234 1.46953L10.1742 1.75781H7.62891C6.21562 1.75781 4.91484 1.78594 4.71094 1.82813C3.55781 2.04609 2.65781 2.89688 2.35547 4.04297C2.26406 4.40859 2.25 6.14531 2.25 18.8508C2.25 28.2797 2.27109 33.3703 2.32031 33.6164C2.48906 34.5234 3.07266 35.2828 3.92344 35.6977L4.45781 35.9648H15.6375H26.8242L27.2883 35.7469C27.8789 35.4656 28.3992 34.9453 28.7016 34.3336L28.9336 33.8555L28.9687 27.3164L29.0039 20.7773L31.3453 15.6867C32.6883 12.7758 33.7008 10.4766 33.7219 10.3078C33.8273 9.5625 33.4617 9.04922 32.4914 8.59219C31.7461 8.24063 31.4016 8.17031 30.9375 8.29688C30.4031 8.4375 30.1219 8.80313 29.5242 10.118L29.0039 11.2641L28.9687 7.62188L28.9336 3.97266L28.7156 3.51563C28.4414 2.93203 28.132 2.58047 27.6117 2.24297C26.9227 1.79297 26.6062 1.75781 23.632 1.75781H21.0234V1.51172C21.0234 0.998438 20.5875 0.365626 20.0742 0.133595C19.8141 0.0140635 19.5047 9.52743e-07 15.6445 9.52743e-07C11.7703 9.52743e-07 11.475 0.0140635 11.2148 0.133595ZM19.5117 1.15313C19.6383 1.20938 19.7789 1.31484 19.8211 1.39219C19.8633 1.47656 19.8984 1.92656 19.8984 2.42578C19.8984 3.29063 19.8914 3.31172 19.7156 3.48047L19.5258 3.65625H15.6375H11.7492L11.5523 3.4875C11.3625 3.31875 11.3555 3.30469 11.3344 2.44688C11.3133 1.58906 11.3133 1.56797 11.4961 1.35C11.5945 1.23047 11.7492 1.11797 11.8336 1.10391C11.918 1.08984 13.6266 1.06875 15.6305 1.06172C18.6258 1.05469 19.3148 1.07578 19.5117 1.15313ZM10.2234 3.24141C10.3148 3.92344 10.7086 4.43672 11.3273 4.66875C11.6086 4.77422 12.0586 4.78125 15.757 4.76719L19.8773 4.74609L20.2219 4.53516C20.6719 4.25391 20.9672 3.78281 21.0094 3.26953L21.0375 2.88281H23.2453H25.4531V5.07656C25.4531 7.22813 25.4531 7.27031 25.6078 7.43203C25.8187 7.65703 26.1773 7.65 26.4023 7.41797L26.5781 7.24922V5.13281C26.5781 3.95156 26.6062 3.02344 26.6414 3.02344C26.8172 3.02344 27.4078 3.52266 27.5977 3.825L27.8086 4.16953V9.06328V13.957L27.1969 15.2578L26.5781 16.5586V12.818C26.5781 10.1883 26.557 9.02813 26.5008 8.90156C26.4023 8.68359 26.1 8.55703 25.8469 8.62031C25.4391 8.71875 25.4531 8.50781 25.4531 13.9992V19.0406L22.95 24.5109C21.5719 27.5273 20.3977 30.1289 20.3344 30.2977C20.2781 30.4664 20.1305 31.05 20.0109 31.5984L19.793 32.5898L16.5586 32.632C14.7797 32.6531 11.7141 32.6813 9.75234 32.6883L6.18047 32.6953L6.01172 32.5195C5.83594 32.3508 5.83594 32.3508 5.83594 30.8672V29.3766L5.625 29.1656C5.44219 28.9898 5.37187 28.9617 5.18203 28.9969C4.725 29.0813 4.71094 29.1516 4.71094 30.9656C4.71094 32.3859 4.73203 32.625 4.84453 32.8711C5.01328 33.2438 5.47734 33.6516 5.85 33.757C6.075 33.8203 7.79766 33.8273 12.8602 33.7852C16.5445 33.757 19.5469 33.7641 19.5258 33.7992C19.5117 33.8273 19.4414 34.1016 19.3781 34.4039L19.2516 34.9523L12.0727 34.9313C4.95 34.9102 4.88672 34.9102 4.57031 34.7625C4.11328 34.5516 3.81797 34.2773 3.6 33.8625L3.41016 33.5039L3.38906 19.125C3.375 8.775 3.38906 4.64063 3.44531 4.38047C3.4875 4.18359 3.61406 3.88828 3.73359 3.73359C3.95156 3.43125 4.45781 3.02344 4.61953 3.02344C4.69687 3.02344 4.71094 5.04844 4.71094 15.3633C4.71094 27.6117 4.71094 27.7031 4.85156 27.8438C5.06953 28.0617 5.50547 28.0336 5.68828 27.8016L5.83594 27.6117V15.2508V2.88281H8.00859H10.1742L10.2234 3.24141ZM31.95 9.59063C32.6742 9.92109 32.7023 10.0055 32.3789 10.7086C32.2383 11.0039 32.1187 11.25 32.1047 11.25C32.0906 11.25 31.7391 11.0953 31.3312 10.9055L30.5859 10.5539L30.8039 10.0758C31.0359 9.5625 31.1836 9.35156 31.3312 9.35156C31.3805 9.35156 31.6617 9.45703 31.95 9.59063ZM31.0289 12.0164L31.6477 12.2977L31.5352 12.5648C31.4719 12.7055 31.4156 12.832 31.4016 12.8461C31.3734 12.8813 29.8898 12.2063 29.8828 12.157C29.8828 12.1289 29.932 11.9953 29.9883 11.8547C30.1078 11.5664 30.0375 11.5594 31.0289 12.0164ZM30.2133 13.5914C30.5719 13.7531 30.8672 13.9148 30.8672 13.95C30.8672 14.0133 23.4141 30.375 23.1258 30.9516L22.9922 31.2117L22.3102 30.8953C21.9305 30.7195 21.593 30.5508 21.5578 30.5156C21.5227 30.4805 23.1258 26.8734 25.425 21.8391C28.4695 15.1594 29.3766 13.2328 29.4609 13.2609C29.5172 13.282 29.8617 13.4297 30.2133 13.5914ZM27.7383 33.7289C27.5906 34.1086 27.1477 34.5656 26.7328 34.7555C26.4164 34.9031 26.2828 34.9102 24.0609 34.9313L21.7125 34.9594L22.1625 34.3617L22.6055 33.7711L23.9555 33.7289C25.4109 33.6797 25.6641 33.6234 26.0367 33.2719C26.1492 33.1664 26.3109 32.9555 26.3883 32.8008C26.5359 32.5266 26.543 32.4281 26.5781 29.2852L26.6133 26.0508L27.2109 24.75L27.8086 23.4492L27.8297 28.4414C27.8437 32.857 27.8367 33.4688 27.7383 33.7289ZM25.3266 32.3367C25.1508 32.5688 24.8695 32.632 24.1172 32.6109L23.4914 32.5898L23.7305 32.2383C23.857 32.0414 24.293 31.1625 24.6937 30.2836L25.418 28.6805L25.4391 30.4242C25.4531 32.0273 25.4461 32.182 25.3266 32.3367ZM21.7898 31.9078L22.3594 32.168L21.4805 33.3633C20.9883 34.0242 20.5664 34.5867 20.5383 34.6148C20.4891 34.6641 20.7422 33.4758 21.1289 31.7953C21.15 31.7109 21.1781 31.6406 21.1922 31.6406C21.2062 31.6406 21.4734 31.7602 21.7898 31.9078Z" fill="#095FBA"/>
<path d="M15.0679 10.5539C13.1132 10.8071 11.2499 11.8969 10.0405 13.5C9.59053 14.0907 9.04912 15.1946 8.81709 15.9961C8.59209 16.7766 8.50771 18.3164 8.64834 19.1743C8.95771 21.136 10.0054 22.8446 11.6296 24.061C13.4366 25.411 15.9538 25.8539 18.1546 25.2071C20.6788 24.4758 22.6405 22.4719 23.3296 19.9125C23.4913 19.3008 23.5124 19.1039 23.5124 18C23.5124 16.8961 23.4913 16.6993 23.3296 16.0946C22.964 14.7446 22.3382 13.6758 21.3468 12.6844C20.9952 12.3399 20.503 11.918 20.2499 11.7493C18.696 10.7368 16.8679 10.3149 15.0679 10.5539ZM17.6132 11.8125C18.2319 11.9672 19.153 12.3821 19.6593 12.7336C20.5663 13.3594 21.5155 14.5125 21.9163 15.4829C22.3663 16.5797 22.5351 17.8875 22.3593 18.9633C21.9515 21.5157 20.046 23.5758 17.5358 24.2016C16.671 24.4125 15.328 24.4125 14.5194 24.1946C13.4718 23.9133 12.4804 23.3649 11.714 22.6477C10.378 21.375 9.70303 19.8211 9.70303 18C9.70303 16.3407 10.2585 14.9063 11.3765 13.7039C12.403 12.6 13.7108 11.8969 15.1522 11.6719C15.764 11.5805 16.9593 11.6438 17.6132 11.8125Z" fill="#095FBA"/>
<path d="M14.9484 13.1695C14.407 13.4719 14.3789 13.5633 14.3578 14.9836L14.3367 16.2422H13.1977C11.7211 16.2492 11.3836 16.3758 11.1375 17.0648C11.018 17.4164 11.018 18.5836 11.1375 18.9352C11.3836 19.6242 11.7211 19.7508 13.1977 19.7578H14.3367L14.3578 21.0023C14.3789 22.1906 14.3859 22.268 14.5477 22.493C14.8219 22.8727 15.1664 22.9922 16.0734 22.9922C16.7555 22.9922 16.8891 22.9711 17.1633 22.8305C17.3531 22.725 17.5289 22.5633 17.6273 22.3875C17.775 22.1344 17.7891 22.0219 17.7891 20.9391V19.7719L19.0055 19.7438C20.1867 19.7227 20.2359 19.7156 20.5102 19.5328C20.9602 19.2375 21.0375 18.9914 21.0094 17.9086C20.9883 17.0648 20.9742 16.9594 20.8195 16.7414C20.5172 16.3195 20.2289 16.2422 18.9352 16.2422H17.7891V15.0609C17.7891 13.9781 17.775 13.8656 17.6273 13.6055C17.3672 13.1414 17.0156 13.0078 16.0312 13.0078C15.3211 13.0078 15.1875 13.0289 14.9484 13.1695ZM16.6781 15.6164C16.7062 17.5289 16.5375 17.3672 18.4641 17.3672H19.8984V18V18.6328H18.4641C16.5375 18.6328 16.7062 18.4711 16.6781 20.3836L16.657 21.8672H16.0594H15.4687V20.5313C15.4687 19.5188 15.4406 19.132 15.3703 18.9492C15.3141 18.8156 15.2578 18.6961 15.2437 18.6891C15.2297 18.682 14.5406 18.6609 13.7109 18.6398L12.1992 18.5977V18V17.4023L13.7109 17.3602C14.5406 17.3391 15.2297 17.318 15.2437 17.3109C15.2578 17.3039 15.3141 17.1844 15.3703 17.0508C15.4406 16.868 15.4687 16.4813 15.4687 15.4688V14.1328H16.0594H16.657L16.6781 15.6164Z" fill="#095FBA"/>
</svg>
