<svg width="24" height="24" viewBox="0 0 24 24" fill="none" xmlns="http://www.w3.org/2000/svg">
<g clip-path="url(#clip0_225_3947)">
<path d="M16.4297 0.890624C16.3594 1.17187 16.2984 1.40625 16.2891 1.40625C16.2844 1.40625 16.2047 1.43437 16.1156 1.47187C15.9609 1.5375 15.9422 1.5375 15.6984 1.3875C15.5578 1.30312 15.3516 1.18125 15.2344 1.11094L15.0188 0.989062L14.0016 2.00625L12.9844 3.02344L13.2656 3.4875C13.5375 3.95156 13.5422 3.95625 13.4719 4.11562C13.4344 4.20469 13.4063 4.28437 13.4063 4.28906C13.4063 4.29844 13.1766 4.35937 12.8906 4.42969L12.375 4.55625V5.84062V7.125L7.04531 7.13437L1.71094 7.14844L1.42969 7.28437C1.06875 7.4625 0.7125 7.81875 0.534375 8.17969L0.398438 8.46094V13.5V18.5391L0.534375 18.8203C0.7125 19.1812 1.06875 19.5375 1.42969 19.7156L1.71094 19.8516L3.48281 19.8656L5.25 19.8797V20.625V21.375H4.37344C3.57656 21.375 3.47813 21.3844 3.3375 21.4687C3.04688 21.6469 3 21.7922 3 22.5C3 23.2078 3.04688 23.3531 3.3375 23.5312C3.49219 23.625 3.59531 23.625 13.5609 23.625H23.625V22.5516C23.625 21.0703 23.4984 20.4141 23.0297 19.4766C22.7063 18.825 22.425 18.4406 21.8906 17.9016C21.1781 17.1844 20.4891 16.7484 19.4906 16.3922C19.425 16.3687 19.4719 16.2984 19.7484 16.0172C20.1375 15.6234 20.4422 15.0984 20.5547 14.6203C20.6484 14.2219 20.6438 13.4719 20.55 13.1062C20.4328 12.6562 20.1328 12.1266 19.7906 11.775L19.4859 11.4609L19.5938 11.025C19.65 10.7906 19.7016 10.5937 19.7109 10.5937C19.7156 10.5937 19.7953 10.5656 19.8844 10.5281C20.0391 10.4625 20.0578 10.4625 20.3016 10.6125C20.4422 10.6969 20.6484 10.8187 20.7656 10.8891L20.9813 11.0109L21.9984 9.99375L23.0156 8.97656L22.7344 8.5125C22.4625 8.04844 22.4578 8.04375 22.5281 7.88437C22.5656 7.79531 22.5938 7.71562 22.5938 7.71094C22.5938 7.70156 22.8281 7.64062 23.1094 7.57031L23.625 7.44375V6V4.55625L23.1094 4.42969C22.8281 4.35937 22.5938 4.29844 22.5938 4.28906C22.5938 4.28437 22.5656 4.20469 22.5281 4.11562C22.4625 3.96094 22.4625 3.94219 22.6125 3.69844C22.6969 3.55781 22.8188 3.35156 22.8891 3.23437L23.0109 3.01875L21.9938 2.00156L20.9766 0.984374L20.5125 1.26562C20.0484 1.5375 20.0438 1.54219 19.8844 1.47187C19.7953 1.43437 19.7156 1.40625 19.7109 1.40625C19.7016 1.40625 19.6406 1.17187 19.5703 0.890624L19.4438 0.374999H18H16.5563L16.4297 0.890624ZM18.8953 1.52344C18.9422 1.72969 18.9984 1.92656 19.0172 1.95937C19.0406 1.99219 19.2328 2.09531 19.4531 2.18437C19.6734 2.27812 19.9078 2.37187 19.9734 2.4C20.0813 2.44687 20.1422 2.42812 20.4844 2.22656L20.8688 2.00156L21.4313 2.56875L21.9984 3.13125L21.7734 3.51562C21.5719 3.85781 21.5531 3.91875 21.6 4.02656C21.6281 4.09219 21.7219 4.32187 21.8109 4.5375C21.9 4.75312 21.9891 4.94062 22.0078 4.95937C22.0219 4.97812 22.2188 5.03437 22.4438 5.08594L22.8516 5.17969V5.99531V6.81562L22.4438 6.90937C22.2188 6.96562 22.0219 7.02187 22.0078 7.04062C21.9891 7.05937 21.9 7.24687 21.8109 7.4625C21.7219 7.67812 21.6281 7.90781 21.6 7.97344C21.5531 8.08125 21.5719 8.14219 21.7734 8.48437L21.9984 8.86875L21.4313 9.43125L20.8688 9.99844L20.4844 9.77344C20.1422 9.57187 20.0813 9.55312 19.9734 9.6C19.9078 9.62812 19.6734 9.72187 19.4531 9.81562C19.2328 9.90469 19.0406 10.0078 19.0172 10.0406C18.9984 10.0734 18.9328 10.3125 18.8719 10.5703C18.7969 10.9078 18.7453 11.0344 18.6984 11.0297C18.6609 11.025 18.4969 10.9828 18.3281 10.9406C18.0984 10.8844 17.8828 10.8703 17.4516 10.8844L16.875 10.9078V10.0547V9.20156L17.1891 9.28594C17.625 9.40781 18.3797 9.40781 18.8625 9.28125C20.025 8.98594 20.9859 8.025 21.2813 6.8625C21.4078 6.37031 21.4078 5.62969 21.2813 5.1375C21.1313 4.54687 20.8547 4.06875 20.3906 3.60937C19.7109 2.92969 18.975 2.625 18 2.625C17.6578 2.625 17.3859 2.65312 17.1375 2.71875C15.975 3.01406 15.0141 3.975 14.7188 5.1375C14.5922 5.62031 14.5922 6.375 14.7141 6.81094L14.7984 7.125H13.9594H13.125L13.1344 6.15937L13.1484 5.18906L13.5234 5.10469C13.7297 5.05781 13.9266 5.00156 13.9594 4.98281C13.9922 4.95937 14.0953 4.76719 14.1844 4.54687C14.2781 4.32656 14.3719 4.09219 14.4 4.02656C14.4469 3.91875 14.4281 3.85781 14.2266 3.51562L14.0016 3.13125L14.5688 2.56875L15.1313 2.00156L15.5156 2.22656C15.8578 2.42812 15.9188 2.44687 16.0266 2.4C16.0922 2.37187 16.3266 2.27812 16.5422 2.18906C16.7578 2.1 16.95 2.00625 16.9688 1.98281C16.9875 1.96406 17.0391 1.78594 17.0859 1.59375C17.1281 1.40156 17.1703 1.21406 17.1844 1.18125C17.1984 1.13437 17.3859 1.125 18.0047 1.13437L18.8109 1.14844L18.8953 1.52344ZM18.8672 3.55312C19.575 3.81562 20.1891 4.425 20.4469 5.13281C20.5734 5.48437 20.6156 6.1875 20.5313 6.55781C20.3203 7.50937 19.5469 8.29219 18.5906 8.52656C18.1875 8.625 17.6344 8.59687 17.2078 8.45625C16.8281 8.32969 16.8234 8.325 16.6219 8.02031C16.3922 7.66406 16.2984 7.575 15.9328 7.34531C15.6797 7.18594 15.6656 7.1625 15.5484 6.80156C15.4031 6.37031 15.3797 5.77031 15.4875 5.36719C15.7266 4.45781 16.425 3.75 17.3438 3.4875C17.6766 3.38906 18.5203 3.42656 18.8672 3.55312ZM15.3984 7.98281C15.6516 8.09531 15.8813 8.325 16.0031 8.57812C16.0922 8.775 16.1016 8.88281 16.1156 10.0172C16.1344 11.2125 16.1297 11.2453 16.0359 11.2922C15.9844 11.3203 15.8109 11.4516 15.6563 11.5828L15.375 11.8172V10.4672C15.375 9.20156 15.3703 9.10781 15.2813 8.9625C15.2297 8.87812 15.1219 8.77031 15.0375 8.71875C14.8875 8.625 14.7891 8.625 8.625 8.625C2.46094 8.625 2.3625 8.625 2.2125 8.71875C2.12813 8.77031 2.02031 8.87812 1.96875 8.9625C1.87969 9.1125 1.875 9.20625 1.875 12.9937V16.875H1.5H1.12031L1.13438 12.8297C1.14844 9.05625 1.15313 8.775 1.23281 8.60156C1.39219 8.24531 1.72031 7.98281 2.08594 7.91719C2.18906 7.89844 5.18438 7.88906 8.74219 7.89375C14.8641 7.89844 15.2203 7.90312 15.3984 7.98281ZM14.625 13.125V16.875H14.25H13.875V13.5V10.125H12.75H11.625V13.5V16.875H11.25H10.875V14.25V11.625H9.75H8.625V14.25V16.875H8.25H7.875V15V13.125H6.75H5.625V15V16.875H4.125H2.625V13.125V9.375H8.625H14.625V13.125ZM13.125 13.875V16.875H12.75H12.375V13.875V10.875H12.75H13.125V13.875ZM18.2766 11.7609C18.7922 11.9203 19.2797 12.3187 19.5563 12.7969C19.9219 13.425 19.9219 14.325 19.5563 14.9531C18.8016 16.2562 17.0391 16.4719 16.0219 15.3844C15.6094 14.9437 15.4219 14.475 15.4219 13.875C15.4219 13.1016 15.8016 12.4219 16.4578 11.9953C16.9594 11.6766 17.6953 11.5781 18.2766 11.7609ZM10.125 14.625V16.875H9.75H9.375V14.625V12.375H9.75H10.125V14.625ZM7.125 15.375V16.875H6.75H6.375V15.375V13.875H6.75H7.125V15.375ZM15.8203 16.3547C15.8063 16.3687 15.6984 16.4156 15.5859 16.4578L15.375 16.5375V16.2328V15.9328L15.6094 16.1297C15.7406 16.2375 15.8344 16.3406 15.8203 16.3547ZM18.7125 17.0156L18.9281 17.0672L18.8438 17.3625C18.7969 17.5219 18.5109 18.5578 18.2063 19.6547C17.9016 20.7562 17.6391 21.6562 17.625 21.6562C17.5969 21.6562 16.3172 17.1 16.3359 17.0719C16.3406 17.0672 16.4906 17.0297 16.6688 16.9922C17.0484 16.9125 18.3609 16.9266 18.7125 17.0156ZM15.8953 18.5156C16.0734 19.1484 16.2094 19.6781 16.2047 19.7016C16.2 19.7203 16.0078 19.5516 15.7828 19.3219L15.3703 18.9094L15.2578 18.2344C15.1922 17.8594 15.1406 17.55 15.1406 17.5453C15.1406 17.5172 15.4969 17.3484 15.5344 17.3578C15.5578 17.3672 15.7219 17.8875 15.8953 18.5156ZM19.9219 17.4375C20.025 17.4891 20.1094 17.5359 20.1094 17.5453C20.1094 17.55 20.0578 17.8594 19.9922 18.2344L19.8797 18.9094L19.4672 19.3219C19.2422 19.5469 19.05 19.725 19.0453 19.7156C19.0313 19.7016 19.5844 17.6484 19.6641 17.4C19.6922 17.325 19.7063 17.325 19.9219 17.4375ZM13.2516 17.9953C13.0594 18.2016 12.7922 18.5391 12.6516 18.7453L12.3984 19.125L7.21875 19.1109C2.04844 19.1016 2.03906 19.1016 1.82813 19.0031C1.41094 18.8062 1.2 18.4781 1.14375 17.9344L1.11094 17.625H7.35938H13.6031L13.2516 17.9953ZM14.5219 18.6891L14.6297 19.3359L14.9438 19.65L15.2531 19.9687L15.0891 20.3062L14.9203 20.6484L15.5438 21.7453C15.8906 22.3453 16.1719 22.8469 16.1719 22.8562C16.1719 22.8656 15.7406 22.875 15.2109 22.875H14.25V21.375V19.875H13.875H13.5V21.375V22.875H12.9375H12.375V22.6031C12.375 22.0828 12.4688 21.225 12.5625 20.8547C12.7922 19.9641 13.2938 19.0922 13.9594 18.4312C14.175 18.2203 14.3625 18.0469 14.3813 18.0469C14.4 18.0469 14.4656 18.3375 14.5219 18.6891ZM21.2906 18.4312C21.9563 19.0922 22.4578 19.9641 22.6875 20.8547C22.7813 21.225 22.875 22.0828 22.875 22.6031V22.875H22.3125H21.75V21.375V19.875H21.375H21V21.375V22.875H20.0391C19.5094 22.875 19.0781 22.8656 19.0781 22.8562C19.0781 22.8469 19.3594 22.3453 19.7063 21.7453L20.3297 20.6484L20.1609 20.3062L19.9969 19.9687L20.3063 19.65L20.6203 19.3359L20.7281 18.6891C20.7844 18.3375 20.85 18.0469 20.8688 18.0469C20.8875 18.0469 21.075 18.2203 21.2906 18.4312ZM16.6406 21.2109C16.8469 21.9562 17.0297 22.6125 17.0438 22.6641C17.0578 22.7156 16.7906 22.275 16.4531 21.6844L15.8344 20.6062L16.0359 20.1937C16.1484 19.9641 16.2469 19.7953 16.2516 19.8141C16.2609 19.8328 16.4344 20.4609 16.6406 21.2109ZM18.7969 21.6797C18.4547 22.275 18.1875 22.725 18.1969 22.6875C18.2109 22.65 18.3984 21.9797 18.6141 21.1969L19.0031 19.7766L19.2094 20.1891L19.4156 20.6062L18.7969 21.6797ZM11.9016 20.2641C11.8313 20.475 11.7469 20.8125 11.7141 21.0141L11.6531 21.375H8.82656H6V20.625V19.875H9.01406H12.0281L11.9016 20.2641ZM11.625 22.5V22.875H7.6875H3.75V22.5V22.125H7.6875H11.625V22.5Z" fill="white"/>
<path d="M17.3578 4.21406C16.8656 4.39687 16.5141 4.71562 16.275 5.20312C16.1578 5.4375 16.1484 5.50781 16.1484 6C16.1484 6.50156 16.1578 6.55781 16.2844 6.82031C16.4625 7.18125 16.8188 7.5375 17.1797 7.71562C17.4422 7.84219 17.4984 7.85156 18 7.85156C18.5016 7.85156 18.5578 7.84219 18.8203 7.71562C19.1813 7.5375 19.5375 7.18125 19.7156 6.82031C19.8422 6.55781 19.8516 6.50156 19.8516 6C19.8516 5.49844 19.8422 5.44219 19.7156 5.17969C19.5375 4.81875 19.1813 4.4625 18.8203 4.28906C18.5766 4.16719 18.4781 4.14844 18.0703 4.13437C17.7 4.125 17.55 4.14375 17.3578 4.21406ZM18.4125 4.99687C19.1297 5.29219 19.3078 6.24844 18.7453 6.78281C18.0563 7.43437 16.9219 6.95156 16.9219 6C16.9219 5.57812 17.1609 5.20781 17.5547 5.00156C17.7375 4.90312 18.1875 4.90312 18.4125 4.99687Z" fill="white"/>
<path d="M3.375 10.5V10.875H3.75H4.125V10.5V10.125H3.75H3.375V10.5Z" fill="white"/>
<path d="M4.875 10.5V10.875H5.25H5.625V10.5V10.125H5.25H4.875V10.5Z" fill="white"/>
<path d="M6.375 10.5V10.875H6.75H7.125V10.5V10.125H6.75H6.375V10.5Z" fill="white"/>
<path d="M3.375 12V12.375H5.25H7.125V12V11.625H5.25H3.375V12Z" fill="white"/>
</g>
<defs>
<clipPath id="clip0_225_3947">
<rect width="24" height="24" fill="white"/>
</clipPath>
</defs>
</svg>
