<svg width="36" height="36" viewBox="0 0 36 36" fill="none" xmlns="http://www.w3.org/2000/svg">
<g clip-path="url(#clip0_225_3463)">
<path d="M24.6445 1.33594C24.5391 1.75781 24.4477 2.10938 24.4336 2.10938C24.4266 2.10938 24.307 2.15156 24.1734 2.20781C23.9414 2.30625 23.9133 2.30625 23.5477 2.08125C23.3367 1.95469 23.0273 1.77188 22.8516 1.66641L22.5281 1.48359L21.0023 3.00938L19.4766 4.53516L19.8984 5.23125C20.3062 5.92734 20.3133 5.93438 20.2078 6.17344C20.1516 6.30703 20.1094 6.42656 20.1094 6.43359C20.1094 6.44766 19.7648 6.53906 19.3359 6.64453L18.5625 6.83438V8.76094V10.6875L10.568 10.7016L2.56641 10.7227L2.14453 10.9266C1.60312 11.1938 1.06875 11.7281 0.801562 12.2695L0.597656 12.6914V20.25V27.8086L0.801562 28.2305C1.06875 28.7719 1.60312 29.3063 2.14453 29.5734L2.56641 29.7773L5.22422 29.7984L7.875 29.8195V30.9375V32.0625H6.56016C5.36484 32.0625 5.21719 32.0766 5.00625 32.2031C4.57031 32.4703 4.5 32.6883 4.5 33.75C4.5 34.8117 4.57031 35.0297 5.00625 35.2969C5.23828 35.4375 5.39297 35.4375 20.3414 35.4375H35.4375V33.8273C35.4375 31.6055 35.2477 30.6211 34.5445 29.2148C34.0594 28.2375 33.6375 27.6609 32.8359 26.8523C31.7672 25.7766 30.7336 25.1227 29.2359 24.5883C29.1375 24.5531 29.2078 24.4477 29.6227 24.0258C30.2062 23.4352 30.6633 22.6477 30.832 21.9305C30.9727 21.3328 30.9656 20.2078 30.825 19.6594C30.6492 18.9844 30.1992 18.1898 29.6859 17.6625L29.2289 17.1914L29.3906 16.5375C29.475 16.1859 29.5523 15.8906 29.5664 15.8906C29.5734 15.8906 29.693 15.8484 29.8266 15.7922C30.0586 15.6938 30.0867 15.6938 30.4523 15.9188C30.6633 16.0453 30.9727 16.2281 31.1484 16.3336L31.4719 16.5164L32.9977 14.9906L34.5234 13.4648L34.1016 12.7688C33.6937 12.0727 33.6867 12.0656 33.7922 11.8266C33.8484 11.693 33.8906 11.5734 33.8906 11.5664C33.8906 11.5523 34.2422 11.4609 34.6641 11.3555L35.4375 11.1656V9V6.83438L34.6641 6.64453C34.2422 6.53906 33.8906 6.44766 33.8906 6.43359C33.8906 6.42656 33.8484 6.30703 33.7922 6.17344C33.6937 5.94141 33.6937 5.91328 33.9187 5.54766C34.0453 5.33672 34.2281 5.02734 34.3336 4.85156L34.5164 4.52813L32.9906 3.00234L31.4648 1.47656L30.7687 1.89844C30.0727 2.30625 30.0656 2.31328 29.8266 2.20781C29.693 2.15156 29.5734 2.10938 29.5664 2.10938C29.5523 2.10938 29.4609 1.75781 29.3555 1.33594L29.1656 0.562501H27H24.8344L24.6445 1.33594ZM28.343 2.28516C28.4133 2.59453 28.4977 2.88984 28.5258 2.93906C28.5609 2.98828 28.8492 3.14297 29.1797 3.27656C29.5102 3.41719 29.8617 3.55781 29.9602 3.6C30.1219 3.67031 30.2133 3.64219 30.7266 3.33984L31.3031 3.00234L32.1469 3.85313L32.9977 4.69688L32.6602 5.27344C32.3578 5.78672 32.3297 5.87813 32.4 6.03984C32.4422 6.13828 32.5828 6.48281 32.7164 6.80625C32.85 7.12969 32.9836 7.41094 33.0117 7.43906C33.0328 7.46719 33.3281 7.55156 33.6656 7.62891L34.2773 7.76953V8.99297V10.2234L33.6656 10.3641C33.3281 10.4484 33.0328 10.5328 33.0117 10.5609C32.9836 10.5891 32.85 10.8703 32.7164 11.1938C32.5828 11.5172 32.4422 11.8617 32.4 11.9602C32.3297 12.1219 32.3578 12.2133 32.6602 12.7266L32.9977 13.3031L32.1469 14.1469L31.3031 14.9977L30.7266 14.6602C30.2133 14.3578 30.1219 14.3297 29.9602 14.4C29.8617 14.4422 29.5102 14.5828 29.1797 14.7234C28.8492 14.857 28.5609 15.0117 28.5258 15.0609C28.4977 15.1102 28.3992 15.4688 28.3078 15.8555C28.1953 16.3617 28.118 16.5516 28.0477 16.5445C27.9914 16.5375 27.7453 16.4742 27.4922 16.4109C27.1477 16.3266 26.8242 16.3055 26.1773 16.3266L25.3125 16.3617V15.082V13.8023L25.7836 13.9289C26.4375 14.1117 27.5695 14.1117 28.2937 13.9219C30.0375 13.4789 31.4789 12.0375 31.9219 10.2938C32.1117 9.55547 32.1117 8.44453 31.9219 7.70625C31.6969 6.82031 31.282 6.10313 30.5859 5.41406C29.5664 4.39453 28.4625 3.9375 27 3.9375C26.4867 3.9375 26.0789 3.97969 25.7062 4.07813C23.9625 4.52109 22.5211 5.9625 22.0781 7.70625C21.8883 8.43047 21.8883 9.5625 22.0711 10.2164L22.1977 10.6875H20.9391H19.6875L19.7016 9.23906L19.7227 7.78359L20.2852 7.65703C20.5945 7.58672 20.8898 7.50234 20.9391 7.47422C20.9883 7.43906 21.143 7.15078 21.2766 6.82031C21.4172 6.48984 21.5578 6.13828 21.6 6.03984C21.6703 5.87813 21.6422 5.78672 21.3398 5.27344L21.0023 4.69688L21.8531 3.85313L22.6969 3.00234L23.2734 3.33984C23.7867 3.64219 23.8781 3.67031 24.0398 3.6C24.1383 3.55781 24.4898 3.41719 24.8133 3.28359C25.1367 3.15 25.425 3.00938 25.4531 2.97422C25.4812 2.94609 25.5586 2.67891 25.6289 2.39063C25.6922 2.10234 25.7555 1.82109 25.7766 1.77188C25.7977 1.70156 26.0789 1.6875 27.007 1.70156L28.2164 1.72266L28.343 2.28516ZM28.3008 5.32969C29.3625 5.72344 30.2836 6.6375 30.6703 7.69922C30.8602 8.22656 30.9234 9.28125 30.7969 9.83672C30.4805 11.2641 29.3203 12.4383 27.8859 12.7898C27.2812 12.9375 26.4516 12.8953 25.8117 12.6844C25.2422 12.4945 25.2352 12.4875 24.9328 12.0305C24.5883 11.4961 24.4477 11.3625 23.8992 11.018C23.5195 10.7789 23.4984 10.7438 23.3227 10.2023C23.1047 9.55547 23.0695 8.65547 23.2312 8.05078C23.5898 6.68672 24.6375 5.625 26.0156 5.23125C26.5148 5.08359 27.7805 5.13984 28.3008 5.32969ZM23.0977 11.9742C23.4773 12.143 23.8219 12.4875 24.0047 12.8672C24.1383 13.1625 24.1523 13.3242 24.1734 15.0258C24.2016 16.8188 24.1945 16.868 24.0539 16.9383C23.9766 16.9805 23.7164 17.1773 23.4844 17.3742L23.0625 17.7258V15.7008C23.0625 13.8023 23.0555 13.6617 22.9219 13.4438C22.8445 13.3172 22.6828 13.1555 22.5562 13.0781C22.3312 12.9375 22.1836 12.9375 12.9375 12.9375C3.69141 12.9375 3.54375 12.9375 3.31875 13.0781C3.19219 13.1555 3.03047 13.3172 2.95312 13.4438C2.81953 13.6688 2.8125 13.8094 2.8125 19.4906V25.3125H2.25H1.68047L1.70156 19.2445C1.72266 13.5844 1.72969 13.1625 1.84922 12.9023C2.08828 12.368 2.58047 11.9742 3.12891 11.8758C3.28359 11.8477 7.77656 11.8336 13.1133 11.8406C22.2961 11.8477 22.8305 11.8547 23.0977 11.9742ZM21.9375 19.6875V25.3125H21.375H20.8125V20.25V15.1875H19.125H17.4375V20.25V25.3125H16.875H16.3125V21.375V17.4375H14.625H12.9375V21.375V25.3125H12.375H11.8125V22.5V19.6875H10.125H8.4375V22.5V25.3125H6.1875H3.9375V19.6875V14.0625H12.9375H21.9375V19.6875ZM19.6875 20.8125V25.3125H19.125H18.5625V20.8125V16.3125H19.125H19.6875V20.8125ZM27.4148 17.6414C28.1883 17.8805 28.9195 18.4781 29.3344 19.1953C29.8828 20.1375 29.8828 21.4875 29.3344 22.4297C28.2023 24.3844 25.5586 24.7078 24.0328 23.0766C23.4141 22.4156 23.1328 21.7125 23.1328 20.8125C23.1328 19.6523 23.7023 18.6328 24.6867 17.993C25.4391 17.5148 26.543 17.3672 27.4148 17.6414ZM15.1875 21.9375V25.3125H14.625H14.0625V21.9375V18.5625H14.625H15.1875V21.9375ZM10.6875 23.0625V25.3125H10.125H9.5625V23.0625V20.8125H10.125H10.6875V23.0625ZM23.7305 24.532C23.7094 24.5531 23.5477 24.6234 23.3789 24.6867L23.0625 24.8063V24.3492V23.8992L23.4141 24.1945C23.6109 24.3563 23.7516 24.5109 23.7305 24.532ZM28.0687 25.5234L28.3922 25.6008L28.2656 26.0438C28.1953 26.2828 27.7664 27.8367 27.3094 29.482C26.8523 31.1344 26.4586 32.4844 26.4375 32.4844C26.3953 32.4844 24.4758 25.65 24.5039 25.6078C24.5109 25.6008 24.7359 25.5445 25.0031 25.4883C25.5727 25.3688 27.5414 25.3898 28.0687 25.5234ZM23.843 27.7734C24.1102 28.7227 24.3141 29.5172 24.307 29.5523C24.3 29.5805 24.0117 29.3273 23.6742 28.9828L23.0555 28.3641L22.8867 27.3516C22.7883 26.7891 22.7109 26.325 22.7109 26.318C22.7109 26.2758 23.2453 26.0227 23.3016 26.0367C23.3367 26.0508 23.5828 26.8313 23.843 27.7734ZM29.8828 26.1563C30.0375 26.2336 30.1641 26.3039 30.1641 26.318C30.1641 26.325 30.0867 26.7891 29.9883 27.3516L29.8195 28.3641L29.2008 28.9828C28.8633 29.3203 28.575 29.5875 28.568 29.5734C28.5469 29.5523 29.3766 26.4727 29.4961 26.1C29.5383 25.9875 29.5594 25.9875 29.8828 26.1563ZM19.8773 26.993C19.5891 27.3023 19.1883 27.8086 18.9773 28.118L18.5977 28.6875L10.8281 28.6664C3.07266 28.6523 3.05859 28.6523 2.74219 28.5047C2.11641 28.2094 1.8 27.7172 1.71562 26.9016L1.66641 26.4375H11.0391H20.4047L19.8773 26.993ZM21.7828 28.0336L21.9445 29.0039L22.4156 29.475L22.8797 29.9531L22.6336 30.4594L22.3805 30.9727L23.3156 32.618C23.8359 33.518 24.2578 34.2703 24.2578 34.2844C24.2578 34.2984 23.6109 34.3125 22.8164 34.3125H21.375V32.0625V29.8125H20.8125H20.25V32.0625V34.3125H19.4062H18.5625V33.9047C18.5625 33.1242 18.7031 31.8375 18.8437 31.282C19.1883 29.9461 19.9406 28.6383 20.9391 27.6469C21.2625 27.3305 21.5437 27.0703 21.5719 27.0703C21.6 27.0703 21.6984 27.5063 21.7828 28.0336ZM31.9359 27.6469C32.9344 28.6383 33.6867 29.9461 34.0312 31.282C34.1719 31.8375 34.3125 33.1242 34.3125 33.9047V34.3125H33.4687H32.625V32.0625V29.8125H32.0625H31.5V32.0625V34.3125H30.0586C29.2641 34.3125 28.6172 34.2984 28.6172 34.2844C28.6172 34.2703 29.0391 33.518 29.5594 32.618L30.4945 30.9727L30.2414 30.4594L29.9953 29.9531L30.4594 29.475L30.9305 29.0039L31.0922 28.0336C31.1766 27.5063 31.275 27.0703 31.3031 27.0703C31.3312 27.0703 31.6125 27.3305 31.9359 27.6469ZM24.9609 31.8164C25.2703 32.9344 25.5445 33.9188 25.5656 33.9961C25.5867 34.0734 25.1859 33.4125 24.6797 32.5266L23.7516 30.9094L24.0539 30.2906C24.2227 29.9461 24.3703 29.693 24.3773 29.7211C24.3914 29.7492 24.6516 30.6914 24.9609 31.8164ZM28.1953 32.5195C27.682 33.4125 27.2812 34.0875 27.2953 34.0313C27.3164 33.975 27.5977 32.9695 27.9211 31.7953L28.5047 29.6648L28.8141 30.2836L29.1234 30.9094L28.1953 32.5195ZM17.8523 30.3961C17.7469 30.7125 17.6203 31.2188 17.5711 31.5211L17.4797 32.0625H13.2398H9V30.9375V29.8125H13.5211H18.0422L17.8523 30.3961ZM17.4375 33.75V34.3125H11.5312H5.625V33.75V33.1875H11.5312H17.4375V33.75Z" fill="#095FBA"/>
<path d="M26.0367 6.32109C25.2984 6.59531 24.7711 7.07344 24.4125 7.80469C24.2367 8.15625 24.2227 8.26172 24.2227 9C24.2227 9.75234 24.2367 9.83672 24.4266 10.2305C24.6937 10.7719 25.2281 11.3063 25.7695 11.5734C26.1633 11.7633 26.2477 11.7773 27 11.7773C27.7523 11.7773 27.8367 11.7633 28.2305 11.5734C28.7719 11.3063 29.3062 10.7719 29.5734 10.2305C29.7633 9.83672 29.7773 9.75234 29.7773 9C29.7773 8.24766 29.7633 8.16328 29.5734 7.76953C29.3062 7.22813 28.7719 6.69375 28.2305 6.43359C27.8648 6.25078 27.7172 6.22266 27.1055 6.20156C26.55 6.1875 26.325 6.21563 26.0367 6.32109ZM27.6187 7.49531C28.6945 7.93828 28.9617 9.37266 28.118 10.1742C27.0844 11.1516 25.3828 10.4273 25.3828 9C25.3828 8.36719 25.7414 7.81172 26.332 7.50234C26.6062 7.35469 27.2812 7.35469 27.6187 7.49531Z" fill="#095FBA"/>
<path d="M5.0625 15.75V16.3125H5.625H6.1875V15.75V15.1875H5.625H5.0625V15.75Z" fill="#095FBA"/>
<path d="M7.3125 15.75V16.3125H7.875H8.4375V15.75V15.1875H7.875H7.3125V15.75Z" fill="#095FBA"/>
<path d="M9.5625 15.75V16.3125H10.125H10.6875V15.75V15.1875H10.125H9.5625V15.75Z" fill="#095FBA"/>
<path d="M5.0625 18V18.5625H7.875H10.6875V18V17.4375H7.875H5.0625V18Z" fill="#095FBA"/>
</g>
<defs>
<clipPath id="clip0_225_3463">
<rect width="36" height="36" fill="white"/>
</clipPath>
</defs>
</svg>
