<svg width="36" height="36" viewBox="0 0 36 36" fill="none" xmlns="http://www.w3.org/2000/svg">
<path d="M17.6203 0.147656L17.4375 0.288281V1.90547C17.4375 3.42422 17.4445 3.52266 17.5781 3.65625C17.6695 3.74766 17.8102 3.79688 18 3.79688C18.1898 3.79688 18.3305 3.74766 18.4219 3.65625C18.5555 3.52266 18.5625 3.42422 18.5625 1.90547V0.288281L18.3797 0.147656C18.2742 0.0632813 18.1055 1.00583e-07 18 1.00583e-07C17.8945 1.00583e-07 17.7258 0.0632813 17.6203 0.147656Z" fill="#095FBA"/>
<path d="M11.8547 1.62412C11.5172 1.89131 11.5875 2.1374 12.382 3.5085C12.7687 4.1835 13.1414 4.77412 13.2047 4.83037C13.3875 4.96397 13.739 4.94287 13.95 4.77412C14.2875 4.50694 14.2172 4.26084 13.4226 2.88975C13.0359 2.21475 12.6633 1.62412 12.6 1.56787C12.4172 1.43428 12.0656 1.45537 11.8547 1.62412Z" fill="#095FBA"/>
<path d="M23.3508 1.73689C23.1187 1.9408 21.7969 4.29626 21.7969 4.52126C21.7969 4.96423 22.4227 5.23142 22.7742 4.93611C22.957 4.78142 24.3281 2.39783 24.3281 2.22908C24.3281 2.06736 24.1945 1.82126 24.0539 1.70876C23.8922 1.5822 23.5195 1.59626 23.3508 1.73689Z" fill="#095FBA"/>
<path d="M16.5937 5.42109C14.0484 5.9625 12.0797 7.85391 11.4187 10.3781C11.1867 11.25 11.1586 12.6703 11.3484 13.4578C11.4117 13.725 11.4539 13.95 11.4469 13.9641C11.4328 13.9711 10.1109 14.4914 8.51483 15.1102C6.91171 15.7289 5.55468 16.2773 5.51249 16.3266C5.46327 16.3758 4.78827 17.5148 4.01483 18.8578C2.50311 21.4734 2.43983 21.6211 2.75624 21.9164C2.84765 22.0008 3.42421 22.2609 4.04296 22.5C4.66171 22.7391 5.21014 22.95 5.25936 22.9711C5.32264 22.9992 5.34374 23.8641 5.34374 26.9648C5.34374 30.6281 5.35077 30.9305 5.4703 31.0711C5.54764 31.1766 7.53046 31.9781 11.7281 33.6094C15.1031 34.9242 17.9297 36 18.007 36C18.2601 36 30.3328 31.268 30.5015 31.0992L30.6562 30.9445V26.9719V22.9992L31.0289 22.8656C32.5195 22.2961 33.1031 22.05 33.2437 21.9234C33.5601 21.6211 33.4969 21.4734 31.9922 18.8578C31.2117 17.5148 30.5367 16.3758 30.4945 16.3336C30.4453 16.2844 29.0953 15.7359 27.4922 15.1102C25.8891 14.4844 24.5672 13.9711 24.5531 13.957C24.5461 13.95 24.5883 13.725 24.6516 13.4578C24.8414 12.6703 24.8133 11.25 24.5812 10.3711C24.082 8.44453 22.7742 6.84844 20.9883 5.97656C20.0461 5.5125 19.3219 5.33672 18.1758 5.30156C17.4375 5.28047 17.1281 5.30156 16.5937 5.42109ZM18.9984 6.56719C20.8195 6.91875 22.3172 8.09297 23.0906 9.7875C23.4562 10.582 23.5758 11.1656 23.5758 12.0938C23.5687 13.0852 23.4141 13.7391 22.957 14.6109C22.2609 15.9539 21.1219 16.9242 19.6523 17.4164C19.1391 17.5922 18.9984 17.6063 18 17.6063C17.0016 17.6063 16.8609 17.5922 16.3476 17.4164C14.4773 16.7836 13.0711 15.307 12.5719 13.4438C12.382 12.7195 12.368 11.4891 12.5437 10.793C13.0078 8.99297 14.3367 7.48125 16.0031 6.84844C16.9805 6.47578 18.0211 6.38438 18.9984 6.56719ZM12.3328 15.8133C12.7828 16.5164 13.7461 17.4516 14.4703 17.8875C15.1031 18.2672 16.1719 18.6609 16.875 18.7664C17.4586 18.8648 18.5414 18.8648 19.125 18.7664C19.8281 18.6609 20.8969 18.2672 21.5297 17.8875C22.2539 17.4516 23.2172 16.5164 23.6672 15.8133C23.857 15.518 24.0469 15.2297 24.082 15.1664C24.1453 15.075 24.4406 15.1734 26.2828 15.9117C27.9 16.5516 28.3851 16.7766 28.2726 16.8117C28.1953 16.8469 25.8539 17.7539 23.0695 18.8367L18.007 20.8125L12.9234 18.8367C10.125 17.7469 7.78358 16.8328 7.71327 16.8117C7.62186 16.7766 8.25468 16.4953 9.71718 15.9117C11.5523 15.1805 11.8547 15.075 11.918 15.1664C11.9601 15.2297 12.143 15.518 12.3328 15.8133ZM11.7773 19.6875C14.6742 20.8125 17.0578 21.7477 17.0719 21.7617C17.093 21.7828 15.1594 25.2211 15.0047 25.4391C14.9906 25.4602 4.1414 21.2484 4.09921 21.2063C4.07811 21.1922 5.28749 19.0547 6.16639 17.5641C6.18046 17.5359 6.26483 17.543 6.34921 17.5711C6.43358 17.6063 8.87343 18.5555 11.7773 19.6875ZM30.8953 19.3992C31.4648 20.3766 31.9148 21.1922 31.9008 21.2063C31.8375 21.2766 21.0516 25.432 21.0094 25.4109C20.8969 25.3406 18.893 21.7688 18.9492 21.7477C18.9914 21.7336 21.4383 20.7773 24.3984 19.6242C27.3586 18.4711 29.7984 17.543 29.8195 17.5711C29.8476 17.5922 30.3328 18.4148 30.8953 19.3992ZM10.8281 25.1367C13.2117 26.0648 15.1734 26.7891 15.3 26.7891C15.6023 26.7891 15.7078 26.6555 16.6289 25.0523L17.4023 23.7023L17.4234 29.0883C17.4305 32.0555 17.4305 34.4813 17.4164 34.4953C17.4023 34.5094 12.15 32.4844 7.7203 30.7547L6.53905 30.2906V26.8875C6.53905 25.0172 6.54608 23.4844 6.56015 23.4844C6.57421 23.4844 8.49374 24.2297 10.8281 25.1367ZM29.4609 26.8875V30.2906L28.2867 30.7547C23.3156 32.6953 18.6047 34.5164 18.5836 34.4953C18.5695 34.4883 18.5695 32.0484 18.5766 29.0883L18.5976 23.7023L19.3711 25.0453C20.2992 26.6625 20.3906 26.7891 20.7 26.7891C20.8336 26.7891 22.732 26.0859 25.1437 25.1438C27.457 24.2367 29.3765 23.4984 29.4117 23.4914C29.4398 23.4844 29.4609 25.0172 29.4609 26.8875Z" fill="#095FBA"/>
<path d="M20.4961 8.45156C20.264 8.51484 19.9125 8.82422 18.4711 10.2516C16.9804 11.7352 16.7203 11.9672 16.6429 11.8828C16.5867 11.8266 16.3547 11.5383 16.1156 11.2359C15.6164 10.6172 15.2648 10.4062 14.7234 10.4062C13.6476 10.4133 12.9094 11.5242 13.3523 12.4805C13.4226 12.6352 13.9429 13.3453 14.5125 14.0625C15.6375 15.4828 15.9539 15.75 16.5375 15.75C17.2336 15.75 17.2406 15.743 19.7437 13.2609C21.0375 11.9812 22.1765 10.793 22.275 10.6172C22.6828 9.93516 22.4297 8.97187 21.7476 8.59219C21.4031 8.40234 20.8898 8.34609 20.4961 8.45156ZM21.1781 9.68203C21.2484 9.74531 21.3047 9.82969 21.3047 9.87187C21.3047 9.99844 16.7133 14.5547 16.5797 14.5547C16.5094 14.5547 16.0804 14.0695 15.532 13.3734C15.0187 12.7266 14.5547 12.143 14.4984 12.0727C14.414 11.9742 14.407 11.918 14.4773 11.7703C14.625 11.4469 14.8219 11.5734 15.5179 12.4453C16.3054 13.4156 16.3969 13.5 16.7203 13.5C16.9523 13.5 17.1 13.3734 18.9422 11.5312C20.032 10.4484 20.9461 9.5625 20.9812 9.5625C21.0164 9.5625 21.1078 9.61172 21.1781 9.68203Z" fill="#095FBA"/>
<path d="M7.60078 5.74448C7.5164 5.81479 7.43203 5.98354 7.41093 6.12417C7.34765 6.48979 7.52343 6.64448 8.8664 7.41792C10.0406 8.08589 10.3078 8.18433 10.6102 8.01558C10.8352 7.89604 10.9195 7.57964 10.807 7.30542C10.7227 7.10151 10.5258 6.96089 9.45 6.34214C8.12812 5.58979 7.88906 5.51245 7.60078 5.74448Z" fill="#095FBA"/>
<path d="M27.5976 5.93438C27.2812 6.075 25.2984 7.23516 25.1578 7.36172C24.7851 7.69922 25.0453 8.36016 25.5586 8.36719C25.8679 8.36719 28.2445 6.98906 28.3851 6.72891C28.6523 6.21563 28.132 5.68828 27.5976 5.93438Z" fill="#095FBA"/>
<path d="M5.96953 11.5242C5.85 11.6508 5.76562 11.8055 5.76562 11.918C5.76562 12.0305 5.85 12.1852 5.96953 12.3117L6.17344 12.5156H7.69922H9.225L9.42891 12.3117C9.54844 12.1852 9.63281 12.0305 9.63281 11.918C9.63281 11.8055 9.54844 11.6508 9.42891 11.5242L9.225 11.3203H7.69922H6.17344L5.96953 11.5242Z" fill="#095FBA"/>
<path d="M26.2969 11.8055C26.0297 12.0727 26.0156 12.382 26.2617 12.6211L26.4305 12.7969H28.0055H29.5805L29.7351 12.6281C29.9461 12.4031 29.9531 11.9953 29.7492 11.7844C29.6086 11.6438 29.5172 11.6367 28.0547 11.6156L26.5078 11.5945L26.2969 11.8055Z" fill="#095FBA"/>
</svg>
