<svg width="24" height="24" viewBox="0 0 24 24" fill="none" xmlns="http://www.w3.org/2000/svg">
<g clip-path="url(#clip0_225_3956)">
<path d="M10.9687 0.843717C10.8891 0.923405 10.875 0.998405 10.875 1.38278V1.82809L10.6875 1.92184L10.5 2.01559L10.1578 1.82809C9.7828 1.62653 9.57655 1.59372 9.43124 1.72028C9.38437 1.76715 9.0703 2.27809 8.74218 2.85465C8.1703 3.85309 8.14218 3.90934 8.18437 4.0734C8.22187 4.21872 8.27343 4.27028 8.61562 4.47184C8.99062 4.69215 8.99999 4.70153 8.99999 4.87965C8.99999 5.05778 8.99062 5.06715 8.62968 5.2734C8.23593 5.4984 8.11874 5.65778 8.17968 5.86872C8.23593 6.04684 9.3328 7.94059 9.43124 8.02497C9.58124 8.1609 9.80155 8.12809 10.1672 7.91715L10.4953 7.72965L10.6828 7.82809L10.875 7.92184V8.36715C10.875 9.04215 10.7766 8.99997 12.375 8.99997C13.9734 8.99997 13.875 9.04215 13.875 8.36715V7.92184L14.0625 7.82809L14.25 7.73434L14.5922 7.92184C14.9672 8.1234 15.1734 8.15622 15.3141 8.02497C15.4266 7.93122 16.5281 6.01872 16.5703 5.85465C16.6266 5.63434 16.5234 5.4984 16.125 5.2734C15.7594 5.05778 15.75 5.0484 15.75 4.87497C15.75 4.70153 15.7594 4.69215 16.1156 4.48122C16.4719 4.27497 16.5937 4.13434 16.5937 3.94684C16.5937 3.84372 15.3984 1.77653 15.2953 1.69684C15.2531 1.66872 15.1359 1.64059 15.0422 1.64059C14.9062 1.64059 14.8453 1.66872 14.7703 1.76247C14.6016 1.97809 14.6437 2.10934 15.1172 2.93434C15.3656 3.35622 15.5766 3.7359 15.5906 3.76872C15.6047 3.8109 15.525 3.8859 15.3562 3.98434C14.9719 4.19997 14.9531 4.24215 14.9531 4.87497C14.9531 5.50778 14.9719 5.54528 15.3516 5.7609C15.4922 5.84059 15.6094 5.92028 15.6094 5.93903C15.6094 5.96247 15.1406 6.79215 14.9719 7.06403L14.9062 7.16715L14.6297 7.00778C14.475 6.91872 14.2922 6.84372 14.2172 6.84372C14.1422 6.84372 13.95 6.93278 13.7625 7.05465C13.5844 7.17184 13.4109 7.26559 13.3828 7.26559C13.3547 7.26559 13.2844 7.31247 13.2281 7.3734C13.1391 7.46715 13.125 7.53747 13.125 7.86559V8.24997H12.375H11.625V7.8609C11.625 7.51403 11.6109 7.45778 11.5172 7.36872C11.4562 7.31247 11.3859 7.26559 11.3578 7.26559C11.3344 7.26559 11.1656 7.17184 10.9875 7.05465C10.8 6.93278 10.6078 6.84372 10.5328 6.84372C10.4578 6.84372 10.275 6.91872 10.1203 7.00778L9.84374 7.16715L9.77812 7.06403C9.61874 6.80622 9.14062 5.96715 9.14062 5.93903C9.14062 5.92497 9.2578 5.84528 9.39843 5.76559C9.77812 5.54997 9.79687 5.50778 9.79687 4.87497C9.79687 4.24215 9.77812 4.19997 9.39843 3.98434C9.2578 3.90465 9.14062 3.82497 9.14062 3.8109C9.14062 3.78278 9.61874 2.94372 9.77812 2.6859L9.84374 2.58278L10.1203 2.74215C10.275 2.83122 10.4578 2.90622 10.5328 2.90622C10.6078 2.90622 10.8 2.81715 10.9875 2.69528C11.1656 2.57809 11.3391 2.48434 11.3672 2.48434C11.3953 2.48434 11.4656 2.43747 11.5219 2.37653C11.6109 2.28278 11.625 2.21247 11.625 1.88434V1.49997H12.375H13.125V1.88903C13.125 2.2359 13.1391 2.29215 13.2328 2.38122C13.3828 2.52184 13.6406 2.51715 13.7719 2.37653C13.8656 2.2734 13.875 2.22184 13.875 1.60309C13.875 0.67028 14.0109 0.749967 12.375 0.749967C11.1234 0.749967 11.0578 0.754655 10.9687 0.843717Z" fill="white"/>
<path d="M17.8828 2.15156C17.7797 2.19844 17.6297 2.31094 17.5453 2.39531C17.2594 2.7 17.25 2.75625 17.25 4.32187C17.25 5.59687 17.2594 5.76094 17.3391 5.92969C17.4281 6.13125 17.7375 6.44062 17.9016 6.49219C17.9953 6.52031 18 6.55312 18 7.2C18 7.81406 18.0094 7.88437 18.0938 7.96875C18.1547 8.02969 18.2484 8.0625 18.3656 8.0625C18.5109 8.0625 18.7125 7.95 19.6641 7.3125L20.7891 6.5625H21.6C22.5 6.5625 22.6359 6.52969 22.9172 6.26719C23.2406 5.9625 23.25 5.90625 23.25 4.32187C23.25 2.75625 23.2406 2.7 22.9547 2.39531C22.6875 2.11875 22.5094 2.0625 21.8109 2.0625C21.2484 2.0625 21.1781 2.07187 21.0938 2.15625C21.0328 2.21719 21 2.31094 21 2.4375C21 2.75156 21.1031 2.8125 21.6328 2.8125C22.1813 2.8125 22.3734 2.87812 22.4484 3.09375C22.5281 3.32812 22.5188 5.34844 22.4344 5.55C22.3406 5.77969 22.1859 5.8125 21.2625 5.8125H20.4609L19.6172 6.375L18.7734 6.9375L18.75 6.45937C18.7359 6.19219 18.7125 5.95312 18.6891 5.92031C18.6703 5.89219 18.5391 5.83125 18.3938 5.78906C18.0094 5.67656 18 5.63437 18 4.3125C18 3.08906 18.0281 2.95312 18.2813 2.86406C18.375 2.83594 18.7641 2.8125 19.2469 2.8125C20.0016 2.8125 20.0719 2.80312 20.1563 2.71875C20.2172 2.65781 20.25 2.56406 20.25 2.4375C20.25 2.31094 20.2172 2.21719 20.1563 2.15625C20.0672 2.06719 20.0016 2.0625 19.0688 2.0625C18.1969 2.0625 18.0469 2.07656 17.8828 2.15156Z" fill="white"/>
<path d="M4.21875 3.09372C4.13906 3.17341 4.125 3.24841 4.125 3.58591V3.98435L3.9375 4.0781L3.74531 4.17653L3.46406 4.00778C3.15 3.82497 2.925 3.79685 2.775 3.92341C2.63438 4.04528 1.875 5.3906 1.875 5.52185C1.875 5.70935 1.95938 5.8031 2.29688 6.00466C2.61094 6.18747 2.625 6.20622 2.625 6.37497C2.625 6.54372 2.61094 6.56247 2.29688 6.74528C1.95938 6.94685 1.875 7.0406 1.875 7.2281C1.875 7.35466 2.63438 8.70466 2.775 8.82185C2.92031 8.94841 3.12656 8.92497 3.45469 8.74216L3.75469 8.5781L3.9375 8.67185L4.125 8.7656V9.16403C4.125 9.76403 4.09219 9.74997 5.25 9.74997C6.40781 9.74997 6.375 9.76403 6.375 9.16403V8.7656L6.5625 8.67185L6.75469 8.57341L7.03594 8.74216C7.35 8.92497 7.575 8.9531 7.725 8.82185C7.86563 8.70466 8.625 7.35466 8.625 7.2281C8.625 7.0406 8.54063 6.94685 8.20313 6.74528L7.875 6.5531V6.22497C7.875 5.88747 7.79531 5.65778 7.66406 5.60622C7.49531 5.54528 7.27969 5.5781 7.18125 5.68591C7.0875 5.78435 7.07813 5.84528 7.07813 6.38435C7.07813 6.97497 7.07813 6.97497 7.20938 7.08747C7.27969 7.14372 7.41563 7.23747 7.50938 7.28435L7.67344 7.37341L7.50938 7.65935C7.41563 7.81872 7.34063 7.94997 7.33594 7.95935C7.33125 7.96403 7.21406 7.90778 7.07344 7.8281C6.75 7.64997 6.6375 7.64997 6.36094 7.84685C6.23906 7.93122 6.07031 8.02966 5.98594 8.06247C5.68125 8.18435 5.625 8.2781 5.625 8.65778V8.99997H5.25H4.875V8.65778C4.875 8.27341 4.83281 8.2031 4.49063 8.04841C4.39219 8.00622 4.22813 7.90778 4.12031 7.8281C3.87656 7.65466 3.74531 7.64997 3.42656 7.8281C3.28594 7.90778 3.16875 7.96403 3.16406 7.95935C3.15938 7.94997 3.08438 7.81403 2.99063 7.65935L2.82188 7.36872L3.01875 7.2656C3.42188 7.04528 3.42188 7.0406 3.42188 6.37497C3.42188 5.70935 3.42188 5.70466 3.01875 5.48435L2.82188 5.38122L2.99063 5.0906C3.08438 4.93591 3.15938 4.79997 3.16406 4.7906C3.16875 4.78591 3.28594 4.84216 3.42656 4.92185C3.75 5.09997 3.8625 5.09997 4.13906 4.9031C4.26094 4.81872 4.42969 4.72028 4.51406 4.68747C4.81875 4.5656 4.875 4.47185 4.875 4.09216V3.74997H5.25H5.625V4.09216C5.625 4.47653 5.66719 4.54685 6.00938 4.70153C6.10781 4.74372 6.27188 4.84216 6.37969 4.92185C6.4875 4.99685 6.63281 5.06247 6.69844 5.06247C6.84844 5.06247 7.62188 4.63591 7.77188 4.47185C7.90781 4.31716 7.90781 4.10622 7.75781 3.96091C7.59375 3.79216 7.37813 3.80622 7.03594 4.00778L6.75469 4.17653L6.5625 4.0781L6.375 3.98435V3.58591C6.375 2.98591 6.40781 2.99997 5.25 2.99997C4.37344 2.99997 4.30781 3.00466 4.21875 3.09372Z" fill="white"/>
<path d="M11.775 3.47344C11.4375 3.60469 11.1 3.94687 10.9688 4.29844C10.8328 4.66406 10.8516 5.26406 11.0109 5.57344C11.2734 6.075 11.7797 6.375 12.375 6.375C13.2563 6.375 13.875 5.75625 13.875 4.875C13.875 3.98437 13.2563 3.37031 12.3609 3.37969C12.1406 3.37969 11.9391 3.4125 11.775 3.47344ZM12.7406 4.26562C13.35 4.63594 13.0875 5.57812 12.375 5.57812C11.9766 5.57812 11.6719 5.27344 11.6719 4.875C11.6719 4.74844 11.7094 4.60312 11.7656 4.50937C11.8969 4.29844 12.1219 4.17187 12.375 4.17187C12.5016 4.17187 12.6469 4.20937 12.7406 4.26562Z" fill="white"/>
<path d="M4.75781 5.33906C4.35 5.52656 4.125 5.90156 4.125 6.38437C4.12969 7.05 4.57969 7.5 5.25 7.5C5.925 7.5 6.375 7.05 6.375 6.375C6.375 5.8875 6.12656 5.49844 5.70938 5.325C5.46563 5.22187 4.99219 5.23125 4.75781 5.33906ZM5.48438 6.14062C5.53594 6.19219 5.57813 6.29531 5.57813 6.375C5.57813 6.45469 5.53594 6.55781 5.48438 6.60937C5.28281 6.81094 4.92188 6.66094 4.92188 6.375C4.92188 6.19687 5.07188 6.04687 5.25 6.04687C5.32969 6.04687 5.43281 6.08906 5.48438 6.14062Z" fill="white"/>
<path d="M16.9922 8.34844C15.8344 8.62969 14.8031 9.47344 14.2734 10.5609C13.9453 11.2453 13.875 11.6156 13.875 12.7359C13.875 13.6266 13.8797 13.6922 13.9687 13.7812C14.0953 13.9078 14.4047 13.9078 14.5312 13.7812C14.6156 13.6969 14.625 13.6219 14.625 13.1109C14.6297 11.5641 14.8641 10.8375 15.6047 10.0641C16.9219 8.69062 19.0781 8.69062 20.3953 10.0641C20.9672 10.6641 21.2531 11.3062 21.3375 12.1828C21.3609 12.4547 21.375 13.3312 21.3656 14.1328C21.3516 15.4031 21.3375 15.6094 21.2672 15.7734C21.1078 16.125 21.0937 16.1297 20.7094 15.9422C20.4094 15.7922 20.325 15.7734 19.9359 15.7594C19.6969 15.75 19.5 15.7219 19.5 15.6984C19.5 15.675 19.5187 15.6562 19.5375 15.6562C19.6125 15.6562 20.0812 15.1594 20.2312 14.9203C20.5078 14.4937 20.625 14.0531 20.625 13.4578C20.625 12.8484 20.5734 12.75 20.25 12.75C19.9875 12.75 19.875 12.8719 19.875 13.1578C19.8703 13.5469 19.7812 14.025 19.6641 14.2828C19.5141 14.6109 19.1016 15.0187 18.7641 15.1781C18.5203 15.2906 18.4359 15.3047 18 15.3047C17.5641 15.3047 17.4797 15.2906 17.2359 15.1781C16.8937 15.0187 16.4859 14.6109 16.3359 14.2828C16.1812 13.9453 16.1156 13.4297 16.1344 12.6375L16.1484 11.9859L16.3453 11.9297C16.6406 11.8406 16.9219 11.6578 17.1703 11.4L17.3859 11.1656L17.7047 11.3719C18.3375 11.7844 19.0922 12 19.9266 12C20.5266 12 20.625 11.9484 20.625 11.625C20.625 11.325 20.5312 11.2687 19.9641 11.2312C19.6969 11.2125 19.3406 11.1656 19.1719 11.1281C18.7406 11.0344 18.075 10.6875 17.7281 10.3828C17.4797 10.1672 17.4 10.125 17.2547 10.125C17.0297 10.125 16.95 10.1906 16.8328 10.4578C16.65 10.8937 16.2844 11.1609 15.7828 11.2266C15.3656 11.2828 15.375 11.2547 15.375 12.7078C15.375 13.9406 15.3797 13.9875 15.4922 14.3297C15.5578 14.5219 15.6797 14.7891 15.7687 14.9203C15.9187 15.1594 16.3875 15.6562 16.4625 15.6562C16.4812 15.6562 16.5 15.675 16.5 15.6984C16.5 15.7219 16.3031 15.75 16.0641 15.7594C15.675 15.7734 15.5906 15.7922 15.2906 15.9422C14.9812 16.0922 14.9484 16.1016 14.8828 16.0312C14.7516 15.8859 14.6672 15.5953 14.6391 15.1969C14.6062 14.7234 14.5406 14.625 14.25 14.625C13.9312 14.625 13.875 14.7281 13.875 15.2812C13.875 15.8484 13.9687 16.1531 14.25 16.5281L14.4422 16.7812L14.3578 16.9312C14.2828 17.0672 14.2734 17.2406 14.2594 18.2953L14.2453 19.5H13.5281C12.8672 19.5 12.7969 19.5094 12.5953 19.6125L12.375 19.7203L12.1547 19.6125C11.9906 19.5281 11.8594 19.5 11.625 19.5C11.3906 19.5 11.2594 19.5281 11.0953 19.6125L10.875 19.7203L10.6547 19.6125C10.4531 19.5094 10.3828 19.5 9.71718 19.5H9V19.125V18.75H10.2891C11.4797 18.75 11.5922 18.7406 11.8359 18.6516C12.1828 18.5203 12.5203 18.1828 12.6516 17.8359C12.7453 17.5828 12.75 17.4984 12.75 14.625C12.75 11.7516 12.7453 11.6672 12.6516 11.4141C12.5203 11.0672 12.1828 10.7297 11.8359 10.5984C11.5781 10.5 11.5219 10.5 7.125 10.5C2.72812 10.5 2.67187 10.5 2.41406 10.5984C2.06718 10.7297 1.72968 11.0672 1.59843 11.4141C1.50468 11.6672 1.5 11.7516 1.5 14.625C1.5 17.4984 1.50468 17.5828 1.59843 17.8359C1.72968 18.1828 2.06718 18.5203 2.41406 18.6516C2.64375 18.7359 2.77968 18.75 3.49218 18.75C4.25156 18.75 4.32187 18.7406 4.40625 18.6562C4.51875 18.5437 4.53281 18.2484 4.43437 18.1125C4.37343 18.0328 4.28906 18.0187 3.6 18C2.94375 17.9766 2.8125 17.9625 2.67187 17.8781C2.44687 17.7469 2.30625 17.5266 2.27343 17.2359C2.25937 17.1 2.25 15.8297 2.25937 14.4141C2.27343 11.9344 2.27812 11.8312 2.36718 11.6766C2.48906 11.4703 2.65781 11.3484 2.8875 11.2969C3.12656 11.2406 11.1234 11.2406 11.3625 11.2969C11.5922 11.3484 11.7609 11.4703 11.8828 11.6766C11.9719 11.8312 11.9766 11.9344 11.9906 14.4141C12 15.8297 11.9906 17.1 11.9766 17.2359C11.9437 17.5266 11.8031 17.7469 11.5781 17.8781C11.4281 17.9672 11.325 17.9766 10.2094 17.9906L9.00468 18.0047L8.99062 16.9828L8.97656 15.9609L8.84062 15.6797C8.6625 15.3187 8.30625 14.9625 7.94531 14.7844C7.68281 14.6578 7.62656 14.6484 7.125 14.6484C6.62343 14.6484 6.56718 14.6578 6.30468 14.7844C5.94375 14.9625 5.5875 15.3187 5.40937 15.6797L5.27343 15.9609L5.25937 17.7281L5.24531 19.5H4.54218C3.75937 19.5 3.60468 19.5375 3.33281 19.7953C3.09375 20.0203 3 20.2641 3 20.6578V21H1.96875C0.998434 21 0.932809 21.0047 0.843747 21.0937C0.717184 21.2203 0.717184 21.5297 0.843747 21.6562C0.937497 21.75 0.998434 21.75 12 21.75C23.0016 21.75 23.0625 21.75 23.1562 21.6562C23.2172 21.5953 23.25 21.5016 23.25 21.375C23.25 21.2484 23.2172 21.1547 23.1562 21.0937C23.0719 21.0094 23.0016 21 22.3969 21H21.7266V19.0406C21.7266 17.2547 21.7172 17.0719 21.6422 16.9312L21.5578 16.7812L21.75 16.5281C22.1203 16.0359 22.125 16.0125 22.125 13.7719C22.125 11.4984 22.1062 11.3437 21.7266 10.5609C21.1922 9.46406 20.1562 8.625 18.9844 8.34375C18.4453 8.21719 17.5266 8.21719 16.9922 8.34844ZM7.58437 15.5109C7.82343 15.6328 8.01093 15.8297 8.12812 16.0781C8.22187 16.2797 8.22656 16.3781 8.24062 17.8922L8.25468 19.5H7.125H5.99531L6.00937 17.8922C6.02343 16.3781 6.02812 16.2797 6.12187 16.0781C6.23437 15.8344 6.42187 15.6375 6.65625 15.5109C6.88125 15.3937 7.35 15.3937 7.58437 15.5109ZM18.2812 16.3828L18 16.6641L17.7187 16.3828L17.4375 16.1016H18H18.5625L18.2812 16.3828ZM16.6266 18.3141C16.8047 18.45 17.0203 18.3891 17.4937 18.0703C17.7469 17.9016 17.9719 17.7656 18 17.7656C18.0281 17.7656 18.2531 17.9016 18.5062 18.0703C18.9703 18.3797 19.1531 18.4359 19.3547 18.3281C19.4109 18.3 19.575 17.9484 19.7812 17.4281C19.9687 16.9547 20.1281 16.5656 20.1375 16.5562C20.1656 16.5187 20.5219 16.7437 20.6578 16.8844C20.9109 17.1469 20.9672 17.3391 20.9906 18.0797L21.0141 18.75H20.6297H20.25V18.4687C20.25 18.2484 20.2312 18.1687 20.1562 18.0937C20.0297 17.9672 19.7203 17.9672 19.5937 18.0937C19.5094 18.1781 19.5 18.2484 19.5 18.8391V19.4953L18.7312 19.5094L17.9625 19.5234L17.7609 19.6641C17.6484 19.7437 17.4937 19.8984 17.4141 20.0109C17.2828 20.1937 17.2734 20.2406 17.2734 20.6062V21H16.8891H16.5V19.5937C16.5 18.2484 16.4953 18.1828 16.4062 18.0937C16.3453 18.0328 16.2516 18 16.125 18C15.8437 18 15.75 18.1172 15.75 18.4687V18.75H15.3703H14.9859L15.0094 18.0797C15.0328 17.3391 15.0891 17.1516 15.3422 16.8797C15.4266 16.7953 15.5766 16.6828 15.6797 16.6359L15.8625 16.5516L16.2047 17.4047C16.3922 17.8734 16.5844 18.2859 16.6266 18.3141ZM17.2172 17.2828C17.1469 17.3391 17.0766 17.3719 17.0578 17.3531C17.0437 17.3344 16.9641 17.1516 16.8797 16.9453L16.7297 16.5703L17.0391 16.875L17.3484 17.1797L17.2172 17.2828ZM19.1391 16.8844C19.0734 17.0484 19.0031 17.2266 18.9797 17.2875L18.9375 17.3953L18.7922 17.2922L18.6469 17.1891L18.9422 16.8937C19.1062 16.7297 19.2422 16.5937 19.2516 16.5937C19.2562 16.5937 19.2047 16.725 19.1391 16.8844ZM15.75 20.25V21H14.4609C13.4437 21 13.1344 20.9859 13.0078 20.9344C12.8344 20.8594 12.7641 20.7094 12.8156 20.5031C12.8719 20.2922 13.0734 20.25 13.9922 20.25C14.9812 20.25 15 20.2406 15 19.7812V19.5H15.375H15.75V20.25ZM21 20.0391C21 20.6859 20.9437 20.8687 20.7187 20.9484C20.4797 21.0281 18.4641 21.0187 18.2578 20.9344C18.075 20.8547 18.0047 20.6859 18.075 20.4891C18.1453 20.2969 18.3516 20.2547 19.2562 20.2547C20.2266 20.25 20.25 20.2406 20.25 19.7812V19.5H20.625H21V20.0391ZM10.2375 20.3156C10.4062 20.3859 10.5 20.5687 10.5 20.8406V21H7.125H3.75V20.8406C3.75 20.5781 3.84375 20.3859 4.00312 20.3156C4.21875 20.2219 10.0078 20.2219 10.2375 20.3156ZM11.8125 20.3437C11.9156 20.4 12 20.625 12 20.8406V21H11.625H11.25V20.8406C11.25 20.4141 11.5125 20.1844 11.8125 20.3437Z" fill="white"/>
<path d="M16.9688 12.4687C16.9078 12.5297 16.875 12.6234 16.875 12.75C16.875 12.9984 17.0016 13.125 17.25 13.125C17.4984 13.125 17.625 12.9984 17.625 12.75C17.625 12.6234 17.5922 12.5297 17.5313 12.4687C17.4703 12.4078 17.3766 12.375 17.25 12.375C17.1234 12.375 17.0297 12.4078 16.9688 12.4687Z" fill="white"/>
<path d="M18.4688 12.4687C18.4078 12.5297 18.375 12.6234 18.375 12.75C18.375 12.9984 18.5016 13.125 18.75 13.125C18.9984 13.125 19.125 12.9984 19.125 12.75C19.125 12.6234 19.0922 12.5297 19.0313 12.4687C18.9703 12.4078 18.8766 12.375 18.75 12.375C18.6234 12.375 18.5297 12.4078 18.4688 12.4687Z" fill="white"/>
<path d="M4.96875 12.8437C4.90781 12.9047 4.875 12.9984 4.875 13.125C4.875 13.2516 4.90781 13.3453 4.96875 13.4062C5.05781 13.4953 5.12344 13.5 7.125 13.5C9.12656 13.5 9.19219 13.4953 9.28125 13.4062C9.34219 13.3453 9.375 13.2516 9.375 13.125C9.375 12.9984 9.34219 12.9047 9.28125 12.8437C9.19219 12.7547 9.12656 12.75 7.125 12.75C5.12344 12.75 5.05781 12.7547 4.96875 12.8437Z" fill="white"/>
<path d="M0.843747 22.5937C0.717184 22.7203 0.717184 23.0297 0.843747 23.1562C0.937497 23.25 0.998434 23.25 12 23.25C23.0016 23.25 23.0625 23.25 23.1562 23.1562C23.2828 23.0297 23.2828 22.7203 23.1562 22.5937C23.0625 22.5 23.0016 22.5 12 22.5C0.998434 22.5 0.937497 22.5 0.843747 22.5937Z" fill="white"/>
</g>
<defs>
<clipPath id="clip0_225_3956">
<rect width="24" height="24" fill="white"/>
</clipPath>
</defs>
</svg>
