<svg width="36" height="36" viewBox="0 0 36 36" fill="none" xmlns="http://www.w3.org/2000/svg">
<path d="M16.4531 1.26582C16.3336 1.38535 16.3125 1.49785 16.3125 2.07441V2.74238L16.0312 2.88301L15.75 3.02363L15.2367 2.74238C14.6742 2.44004 14.3648 2.39082 14.1469 2.58066C14.0766 2.65098 13.6055 3.41738 13.1133 4.28223C12.2555 5.77988 12.2133 5.86426 12.2766 6.11035C12.3328 6.32832 12.4102 6.40566 12.9234 6.70801C13.4859 7.03848 13.5 7.05254 13.5 7.31973C13.5 7.58691 13.4859 7.60098 12.9445 7.91035C12.3539 8.24785 12.1781 8.48691 12.2695 8.80332C12.3539 9.07051 13.9992 11.9111 14.1469 12.0377C14.3719 12.2416 14.7023 12.1924 15.2508 11.876L15.743 11.5947L16.0242 11.7424L16.3125 11.883V12.551C16.3125 13.5635 16.1648 13.5002 18.5625 13.5002C20.9602 13.5002 20.8125 13.5635 20.8125 12.551V11.883L21.0937 11.7424L21.375 11.6018L21.8883 11.883C22.4508 12.1854 22.7602 12.2346 22.9711 12.0377C23.1398 11.8971 24.7922 9.02832 24.8555 8.78223C24.9398 8.45176 24.7852 8.24785 24.1875 7.91035C23.6391 7.58691 23.625 7.57285 23.625 7.3127C23.625 7.05254 23.6391 7.03848 24.1734 6.72207C24.7078 6.4127 24.8906 6.20176 24.8906 5.92051C24.8906 5.76582 23.0977 2.66504 22.943 2.54551C22.8797 2.50332 22.7039 2.46113 22.5633 2.46113C22.3594 2.46113 22.268 2.50332 22.1555 2.64395C21.9023 2.96738 21.9656 3.16426 22.6758 4.40176C23.0484 5.03457 23.3648 5.6041 23.3859 5.65332C23.407 5.7166 23.2875 5.8291 23.0344 5.97676C22.4578 6.3002 22.4297 6.36348 22.4297 7.3127C22.4297 8.26191 22.4578 8.31816 23.0273 8.6416C23.2383 8.76113 23.4141 8.88066 23.4141 8.90879C23.4141 8.94395 22.7109 10.1885 22.4578 10.5963L22.3594 10.751L21.9445 10.5119C21.7125 10.3783 21.4383 10.2658 21.3258 10.2658C21.2133 10.2658 20.925 10.3994 20.6437 10.5822C20.3766 10.758 20.1164 10.8986 20.0742 10.8986C20.032 10.8986 19.9266 10.9689 19.8422 11.0604C19.7086 11.201 19.6875 11.3064 19.6875 11.7986V12.3752H18.5625H17.4375V11.7916C17.4375 11.2713 17.4164 11.1869 17.2758 11.0533C17.1844 10.9689 17.0789 10.8986 17.0367 10.8986C17.0016 10.8986 16.7484 10.758 16.4812 10.5822C16.2 10.3994 15.9117 10.2658 15.7992 10.2658C15.6867 10.2658 15.4125 10.3783 15.1805 10.5119L14.7656 10.751L14.6672 10.5963C14.4281 10.2096 13.7109 8.95098 13.7109 8.90879C13.7109 8.8877 13.8867 8.76816 14.0977 8.64863C14.6672 8.3252 14.6953 8.26191 14.6953 7.3127C14.6953 6.36348 14.6672 6.3002 14.0977 5.97676C13.8867 5.85723 13.7109 5.7377 13.7109 5.7166C13.7109 5.67441 14.4281 4.41582 14.6672 4.0291L14.7656 3.87441L15.1805 4.11348C15.4125 4.24707 15.6867 4.35957 15.7992 4.35957C15.9117 4.35957 16.2 4.22598 16.4812 4.04316C16.7484 3.86738 17.0086 3.72676 17.0508 3.72676C17.093 3.72676 17.1984 3.65645 17.2828 3.56504C17.4164 3.42441 17.4375 3.31895 17.4375 2.82676V2.2502H18.5625H19.6875V2.83379C19.6875 3.3541 19.7086 3.43848 19.8492 3.57207C20.0742 3.78301 20.4609 3.77598 20.6578 3.56504C20.7984 3.41035 20.8125 3.33301 20.8125 2.40488C20.8125 1.00566 21.0164 1.1252 18.5625 1.1252C16.6852 1.1252 16.5867 1.13223 16.4531 1.26582Z" fill="#095FBA"/>
<path d="M26.8242 3.22734C26.6695 3.29766 26.4445 3.46641 26.318 3.59297C25.8891 4.05 25.875 4.13438 25.875 6.48281C25.875 8.39531 25.8891 8.64141 26.0086 8.89453C26.1422 9.19688 26.6062 9.66094 26.8523 9.73828C26.993 9.78047 27 9.82969 27 10.8C27 11.7211 27.0141 11.8266 27.1406 11.9531C27.232 12.0445 27.3727 12.0938 27.5484 12.0938C27.7664 12.0938 28.0687 11.925 29.4961 10.9688L31.1836 9.84375H32.4C33.75 9.84375 33.9539 9.79453 34.3758 9.40078C34.8609 8.94375 34.875 8.85938 34.875 6.48281C34.875 4.13438 34.8609 4.05 34.432 3.59297C34.0312 3.17813 33.7641 3.09375 32.7164 3.09375C31.8727 3.09375 31.7672 3.10781 31.6406 3.23438C31.5492 3.32578 31.5 3.46641 31.5 3.65625C31.5 4.12734 31.6547 4.21875 32.4492 4.21875C33.2719 4.21875 33.5602 4.31719 33.6727 4.64063C33.7922 4.99219 33.7781 8.02266 33.6516 8.325C33.5109 8.66953 33.2789 8.71875 31.8937 8.71875H30.6914L29.4258 9.5625L28.1602 10.4063L28.125 9.68906C28.1039 9.28828 28.0687 8.92969 28.0336 8.88047C28.0055 8.83828 27.8086 8.74688 27.5906 8.68359C27.0141 8.51484 27 8.45156 27 6.46875C27 4.63359 27.0422 4.42969 27.4219 4.29609C27.5625 4.25391 28.1461 4.21875 28.8703 4.21875C30.0023 4.21875 30.1078 4.20469 30.2344 4.07813C30.3258 3.98672 30.375 3.84609 30.375 3.65625C30.375 3.46641 30.3258 3.32578 30.2344 3.23438C30.1008 3.10078 30.0023 3.09375 28.6031 3.09375C27.2953 3.09375 27.0703 3.11484 26.8242 3.22734Z" fill="#095FBA"/>
<path d="M6.32812 4.64058C6.20859 4.76011 6.1875 4.87261 6.1875 5.37886V5.97652L5.90625 6.11715L5.61797 6.2648L5.19609 6.01168C4.725 5.73746 4.3875 5.69527 4.1625 5.88511C3.95156 6.06793 2.8125 8.0859 2.8125 8.28277C2.8125 8.56402 2.93906 8.70465 3.44531 9.00699C3.91641 9.28121 3.9375 9.30933 3.9375 9.56246C3.9375 9.81558 3.91641 9.84371 3.44531 10.1179C2.93906 10.4203 2.8125 10.5609 2.8125 10.8421C2.8125 11.032 3.95156 13.057 4.1625 13.2328C4.38047 13.4226 4.68984 13.3875 5.18203 13.1132L5.63203 12.8671L5.90625 13.0078L6.1875 13.1484V13.7461C6.1875 14.6461 6.13828 14.625 7.875 14.625C9.61172 14.625 9.5625 14.6461 9.5625 13.7461V13.1484L9.84375 13.0078L10.132 12.8601L10.5539 13.1132C11.025 13.3875 11.3625 13.4296 11.5875 13.2328C11.7984 13.057 12.9375 11.032 12.9375 10.8421C12.9375 10.5609 12.8109 10.4203 12.3047 10.1179L11.8125 9.82965V9.33746C11.8125 8.83121 11.693 8.48668 11.4961 8.40933C11.243 8.31793 10.9195 8.36715 10.7719 8.52886C10.6312 8.67652 10.6172 8.76793 10.6172 9.57652C10.6172 10.4625 10.6172 10.4625 10.8141 10.6312C10.9195 10.7156 11.1234 10.8562 11.2641 10.9265L11.5102 11.0601L11.2641 11.489C11.1234 11.7281 11.0109 11.925 11.0039 11.939C10.9969 11.9461 10.8211 11.8617 10.6102 11.7421C10.125 11.475 9.95625 11.475 9.54141 11.7703C9.35859 11.8968 9.10547 12.0445 8.97891 12.0937C8.52187 12.2765 8.4375 12.4171 8.4375 12.9867V13.5H7.875H7.3125V12.9867C7.3125 12.4101 7.24922 12.3046 6.73594 12.0726C6.58828 12.0093 6.34219 11.8617 6.18047 11.7421C5.81484 11.482 5.61797 11.475 5.13984 11.7421C4.92891 11.8617 4.75312 11.9461 4.74609 11.939C4.73906 11.925 4.62656 11.7211 4.48594 11.489L4.23281 11.0531L4.52812 10.8984C5.13281 10.5679 5.13281 10.5609 5.13281 9.56246C5.13281 8.56402 5.13281 8.55699 4.52812 8.22652L4.23281 8.07183L4.48594 7.6359C4.62656 7.40386 4.73906 7.19996 4.74609 7.1859C4.75312 7.17886 4.92891 7.26324 5.13984 7.38277C5.625 7.64996 5.79375 7.64996 6.20859 7.35465C6.39141 7.22808 6.64453 7.08043 6.77109 7.03121C7.22812 6.8484 7.3125 6.70777 7.3125 6.13824V5.62496H7.875H8.4375V6.13824C8.4375 6.7148 8.50078 6.82027 9.01406 7.0523C9.16172 7.11558 9.40781 7.26324 9.56953 7.38277C9.73125 7.49527 9.94922 7.59371 10.0477 7.59371C10.2727 7.59371 11.4328 6.95386 11.6578 6.70777C11.8617 6.47574 11.8617 6.15933 11.6367 5.94136C11.3906 5.68824 11.0672 5.70933 10.5539 6.01168L10.132 6.2648L9.84375 6.11715L9.5625 5.97652V5.37886C9.5625 4.47886 9.61172 4.49996 7.875 4.49996C6.56016 4.49996 6.46172 4.50699 6.32812 4.64058Z" fill="#095FBA"/>
<path d="M17.6625 5.21016C17.1562 5.40703 16.65 5.92031 16.4531 6.44766C16.2492 6.99609 16.2773 7.89609 16.5164 8.36016C16.9101 9.1125 17.6695 9.5625 18.5625 9.5625C19.8844 9.5625 20.8125 8.63437 20.8125 7.3125C20.8125 5.97656 19.8844 5.05547 18.5414 5.06953C18.2109 5.06953 17.9086 5.11875 17.6625 5.21016ZM19.1109 6.39844C20.025 6.95391 19.6312 8.36719 18.5625 8.36719C17.9648 8.36719 17.5078 7.91016 17.5078 7.3125C17.5078 7.12266 17.564 6.90469 17.6484 6.76406C17.8453 6.44766 18.1828 6.25781 18.5625 6.25781C18.7523 6.25781 18.9703 6.31406 19.1109 6.39844Z" fill="#095FBA"/>
<path d="M7.13672 8.00859C6.525 8.28984 6.1875 8.85234 6.1875 9.57656C6.19453 10.575 6.86953 11.25 7.875 11.25C8.8875 11.25 9.5625 10.575 9.5625 9.5625C9.5625 8.83125 9.18984 8.24766 8.56406 7.9875C8.19844 7.83281 7.48828 7.84687 7.13672 8.00859ZM8.22656 9.21094C8.30391 9.28828 8.36719 9.44297 8.36719 9.5625C8.36719 9.68203 8.30391 9.83672 8.22656 9.91406C7.92422 10.2164 7.38281 9.99141 7.38281 9.5625C7.38281 9.29531 7.60781 9.07031 7.875 9.07031C7.99453 9.07031 8.14922 9.13359 8.22656 9.21094Z" fill="#095FBA"/>
<path d="M25.4883 12.5227C23.7516 12.9445 22.2047 14.2102 21.4101 15.8414C20.918 16.868 20.8125 17.4234 20.8125 19.1039C20.8125 20.4398 20.8195 20.5383 20.9531 20.6719C21.143 20.8617 21.607 20.8617 21.7969 20.6719C21.9234 20.5453 21.9375 20.4328 21.9375 19.6664C21.9445 17.3461 22.2961 16.2563 23.407 15.0961C25.3828 13.0359 28.6172 13.0359 30.593 15.0961C31.4508 15.9961 31.8797 16.9594 32.0062 18.2742C32.0414 18.682 32.0625 19.9969 32.0484 21.1992C32.0273 23.1047 32.0062 23.4141 31.9008 23.6602C31.6617 24.1875 31.6406 24.1945 31.0641 23.9133C30.6141 23.6883 30.4875 23.6602 29.9039 23.6391C29.5453 23.625 29.25 23.5828 29.25 23.5477C29.25 23.5125 29.2781 23.4844 29.3062 23.4844C29.4187 23.4844 30.1219 22.7391 30.3469 22.3805C30.7617 21.7406 30.9375 21.0797 30.9375 20.1867C30.9375 19.2727 30.8601 19.125 30.375 19.125C29.9812 19.125 29.8125 19.3078 29.8125 19.7367C29.8055 20.3203 29.6719 21.0375 29.4961 21.4242C29.2711 21.9164 28.6523 22.5281 28.1461 22.7672C27.7805 22.9359 27.6539 22.957 27 22.957C26.3461 22.957 26.2195 22.9359 25.8539 22.7672C25.3406 22.5281 24.7289 21.9164 24.5039 21.4242C24.2719 20.918 24.1734 20.1445 24.2016 18.9563L24.2226 17.9789L24.518 17.8945C24.9609 17.7609 25.3828 17.4867 25.7555 17.1L26.0789 16.7484L26.557 17.0578C27.5062 17.6766 28.6383 18 29.8898 18C30.7898 18 30.9375 17.9227 30.9375 17.4375C30.9375 16.9875 30.7969 16.9031 29.9461 16.8469C29.5453 16.8188 29.0109 16.7484 28.7578 16.6922C28.1109 16.5516 27.1125 16.0313 26.5922 15.5742C26.2195 15.2508 26.1 15.1875 25.882 15.1875C25.5445 15.1875 25.425 15.2859 25.2492 15.6867C24.975 16.3406 24.4266 16.7414 23.6742 16.8398C23.0484 16.9242 23.0625 16.882 23.0625 19.0617C23.0625 20.9109 23.0695 20.9813 23.2383 21.4945C23.3367 21.7828 23.5195 22.1836 23.6531 22.3805C23.8781 22.7391 24.5812 23.4844 24.6937 23.4844C24.7219 23.4844 24.75 23.5125 24.75 23.5477C24.75 23.5828 24.4547 23.625 24.0961 23.6391C23.5125 23.6602 23.3859 23.6883 22.9359 23.9133C22.4719 24.1383 22.4226 24.1523 22.3242 24.0469C22.1273 23.8289 22.0008 23.393 21.9586 22.7953C21.9094 22.0852 21.8109 21.9375 21.375 21.9375C20.8969 21.9375 20.8125 22.0922 20.8125 22.9219C20.8125 23.7727 20.9531 24.2297 21.375 24.7922L21.6633 25.1719L21.5367 25.3969C21.4242 25.6008 21.4101 25.8609 21.3891 27.443L21.368 29.25H20.2922C19.3008 29.25 19.1953 29.2641 18.893 29.4188L18.5625 29.5805L18.232 29.4188C17.9859 29.2922 17.7891 29.25 17.4375 29.25C17.0859 29.25 16.8891 29.2922 16.643 29.4188L16.3125 29.5805L15.982 29.4188C15.6797 29.2641 15.5742 29.25 14.5758 29.25H13.5V28.6875V28.125H15.4336C17.2195 28.125 17.3883 28.1109 17.7539 27.9773C18.2742 27.7805 18.7805 27.2742 18.9773 26.7539C19.118 26.3742 19.125 26.2477 19.125 21.9375C19.125 17.6273 19.118 17.5008 18.9773 17.1211C18.7805 16.6008 18.2742 16.0945 17.7539 15.8977C17.3672 15.75 17.2828 15.75 10.6875 15.75C4.09218 15.75 4.0078 15.75 3.62108 15.8977C3.10077 16.0945 2.59452 16.6008 2.39764 17.1211C2.25702 17.5008 2.24999 17.6273 2.24999 21.9375C2.24999 26.2477 2.25702 26.3742 2.39764 26.7539C2.59452 27.2742 3.10077 27.7805 3.62108 27.9773C3.96561 28.1039 4.16952 28.125 5.23827 28.125C6.37733 28.125 6.4828 28.1109 6.60936 27.9844C6.77811 27.8156 6.79921 27.3727 6.65155 27.1688C6.56014 27.0492 6.43358 27.0281 5.39999 27C4.41561 26.9648 4.21874 26.9438 4.0078 26.8172C3.6703 26.6203 3.45936 26.2898 3.41014 25.8539C3.38905 25.65 3.37499 23.7445 3.38905 21.6211C3.41014 17.9016 3.41718 17.7469 3.55077 17.5148C3.73358 17.2055 3.98671 17.0227 4.33124 16.9453C4.68983 16.8609 16.6851 16.8609 17.0437 16.9453C17.3883 17.0227 17.6414 17.2055 17.8242 17.5148C17.9578 17.7469 17.9648 17.9016 17.9859 21.6211C18 23.7445 17.9859 25.65 17.9648 25.8539C17.9156 26.2898 17.7047 26.6203 17.3672 26.8172C17.1422 26.9508 16.9875 26.9648 15.3141 26.9859L13.507 27.007L13.4859 25.4742L13.4648 23.9414L13.2609 23.5195C12.9937 22.9781 12.4594 22.4438 11.918 22.1766C11.5242 21.9867 11.4398 21.9727 10.6875 21.9727C9.93514 21.9727 9.85077 21.9867 9.45702 22.1766C8.91561 22.4438 8.38124 22.9781 8.11405 23.5195L7.91014 23.9414L7.88905 26.5922L7.86796 29.25H6.81327C5.63905 29.25 5.40702 29.3063 4.99921 29.693C4.64061 30.0305 4.49999 30.3961 4.49999 30.9867V31.5H2.95311C1.49764 31.5 1.39921 31.507 1.26561 31.6406C1.07577 31.8305 1.07577 32.2945 1.26561 32.4844C1.40624 32.625 1.49764 32.625 18 32.625C34.5023 32.625 34.5937 32.625 34.7344 32.4844C34.8258 32.393 34.875 32.2523 34.875 32.0625C34.875 31.8727 34.8258 31.732 34.7344 31.6406C34.6078 31.5141 34.5023 31.5 33.5953 31.5H32.5898V28.5609C32.5898 25.882 32.5758 25.6078 32.4633 25.3969L32.3367 25.1719L32.625 24.7922C33.1805 24.0539 33.1875 24.0188 33.1875 20.6578C33.1875 17.2477 33.1594 17.0156 32.5898 15.8414C31.7883 14.1961 30.2344 12.9375 28.4766 12.5156C27.668 12.3258 26.2898 12.3258 25.4883 12.5227ZM11.3766 23.2664C11.7351 23.4492 12.0164 23.7445 12.1922 24.1172C12.3328 24.4195 12.3398 24.5672 12.3609 26.8383L12.382 29.25H10.6875H8.99296L9.01405 26.8383C9.03514 24.5672 9.04218 24.4195 9.1828 24.1172C9.35155 23.7516 9.6328 23.4563 9.98436 23.2664C10.3219 23.0906 11.025 23.0906 11.3766 23.2664ZM27.4219 24.5742L27 24.9961L26.5781 24.5742L26.1562 24.1523H27H27.8437L27.4219 24.5742ZM24.9398 27.4711C25.207 27.675 25.5305 27.5836 26.2406 27.1055C26.6203 26.8523 26.9578 26.6484 27 26.6484C27.0422 26.6484 27.3797 26.8523 27.7594 27.1055C28.4555 27.5695 28.7297 27.6539 29.032 27.4922C29.1164 27.45 29.3625 26.9227 29.6719 26.1422C29.9531 25.432 30.1922 24.8484 30.2062 24.8344C30.2484 24.7781 30.7828 25.1156 30.9867 25.3266C31.3664 25.7203 31.4508 26.0086 31.4859 27.1195L31.5211 28.125H30.9445H30.375V27.7031C30.375 27.3727 30.3469 27.2531 30.2344 27.1406C30.0445 26.9508 29.5805 26.9508 29.3906 27.1406C29.2641 27.2672 29.25 27.3727 29.25 28.2586V29.243L28.0969 29.2641L26.9437 29.2852L26.6414 29.4961C26.4726 29.6156 26.2406 29.8477 26.1211 30.0164C25.9242 30.2906 25.9101 30.3609 25.9101 30.9094V31.5H25.3336H24.75V29.3906C24.75 27.3727 24.743 27.2742 24.6094 27.1406C24.518 27.0492 24.3773 27 24.1875 27C23.7656 27 23.625 27.1758 23.625 27.7031V28.125H23.0555H22.4789L22.5141 27.1195C22.5492 26.0086 22.6336 25.7273 23.0133 25.3195C23.1398 25.193 23.3648 25.0242 23.5195 24.9539L23.7937 24.8273L24.307 26.107C24.5883 26.8102 24.8766 27.4289 24.9398 27.4711ZM25.8258 25.9242C25.7203 26.0086 25.6148 26.0578 25.5867 26.0297C25.5656 26.0016 25.4461 25.7273 25.3195 25.418L25.0945 24.8555L25.5586 25.3125L26.0226 25.7695L25.8258 25.9242ZM28.7086 25.3266C28.6101 25.5727 28.5047 25.8398 28.4695 25.9313L28.4062 26.093L28.1883 25.9383L27.9703 25.7836L28.4133 25.3406C28.6594 25.0945 28.8633 24.8906 28.8773 24.8906C28.8844 24.8906 28.807 25.0875 28.7086 25.3266ZM23.625 30.375V31.5H21.6914C20.1656 31.5 19.7016 31.4789 19.5117 31.4016C19.2516 31.2891 19.1461 31.0641 19.2234 30.7547C19.3078 30.4383 19.6101 30.375 20.9883 30.375C22.4719 30.375 22.5 30.3609 22.5 29.6719V29.25H23.0625H23.625V30.375ZM31.5 30.0586C31.5 31.0289 31.4156 31.3031 31.0781 31.4227C30.7195 31.5422 27.6961 31.5281 27.3867 31.4016C27.1125 31.282 27.007 31.0289 27.1125 30.7336C27.218 30.4453 27.5273 30.382 28.8844 30.382C30.3398 30.375 30.375 30.3609 30.375 29.6719V29.25H30.9375H31.5V30.0586ZM15.3562 30.4734C15.6094 30.5789 15.75 30.8531 15.75 31.2609V31.5H10.6875H5.62499V31.2609C5.62499 30.8672 5.76561 30.5789 6.00468 30.4734C6.32811 30.3328 15.0117 30.3328 15.3562 30.4734ZM17.7187 30.5156C17.8734 30.6 18 30.9375 18 31.2609V31.5H17.4375H16.875V31.2609C16.875 30.6211 17.2687 30.2766 17.7187 30.5156Z" fill="#095FBA"/>
<path d="M25.4531 18.7031C25.3617 18.7945 25.3125 18.9352 25.3125 19.125C25.3125 19.4977 25.5023 19.6875 25.875 19.6875C26.2477 19.6875 26.4375 19.4977 26.4375 19.125C26.4375 18.9352 26.3883 18.7945 26.2969 18.7031C26.2055 18.6117 26.0648 18.5625 25.875 18.5625C25.6852 18.5625 25.5445 18.6117 25.4531 18.7031Z" fill="#095FBA"/>
<path d="M27.7031 18.7031C27.6117 18.7945 27.5625 18.9352 27.5625 19.125C27.5625 19.4977 27.7523 19.6875 28.125 19.6875C28.4977 19.6875 28.6875 19.4977 28.6875 19.125C28.6875 18.9352 28.6383 18.7945 28.5469 18.7031C28.4555 18.6117 28.3148 18.5625 28.125 18.5625C27.9352 18.5625 27.7945 18.6117 27.7031 18.7031Z" fill="#095FBA"/>
<path d="M7.45312 19.2656C7.36172 19.357 7.3125 19.4977 7.3125 19.6875C7.3125 19.8773 7.36172 20.018 7.45312 20.1094C7.58672 20.243 7.68516 20.25 10.6875 20.25C13.6898 20.25 13.7883 20.243 13.9219 20.1094C14.0133 20.018 14.0625 19.8773 14.0625 19.6875C14.0625 19.4977 14.0133 19.357 13.9219 19.2656C13.7883 19.132 13.6898 19.125 10.6875 19.125C7.68516 19.125 7.58672 19.132 7.45312 19.2656Z" fill="#095FBA"/>
<path d="M1.26561 33.8906C1.07577 34.0805 1.07577 34.5445 1.26561 34.7344C1.40624 34.875 1.49764 34.875 18 34.875C34.5023 34.875 34.5937 34.875 34.7344 34.7344C34.9242 34.5445 34.9242 34.0805 34.7344 33.8906C34.5937 33.75 34.5023 33.75 18 33.75C1.49764 33.75 1.40624 33.75 1.26561 33.8906Z" fill="#095FBA"/>
</svg>
