<svg width="24" height="24" viewBox="0 0 24 24" fill="none" xmlns="http://www.w3.org/2000/svg">
<path d="M19.9969 1.99219C19.725 2.09063 19.5984 2.23594 18.8297 3.3375L18.1219 4.35469L18.0469 4.10625C17.9016 3.64219 17.6062 3.31875 17.1328 3.10781C16.9547 3.02813 16.575 3.02344 9.86719 3.02344C3.14062 3.02344 2.775 3.02813 2.54531 3.10781C2.21719 3.22031 1.86562 3.54375 1.70156 3.88125L1.57031 4.14844V12.4453C1.57031 20.5266 1.575 20.7469 1.65937 20.9766C1.78125 21.2813 2.14219 21.6656 2.45156 21.8016L2.69531 21.9141H9.84375H16.9922L17.2078 21.8063C17.5219 21.6516 17.775 21.4172 17.9297 21.1359L18.0703 20.8828L18.0844 15.7547L18.0937 10.6266L20.2547 7.51406C21.4453 5.79844 22.4484 4.33125 22.4906 4.25156C22.6594 3.90938 22.5984 3.38438 22.3547 3.075C22.2375 2.925 21.1078 2.13281 20.8406 2.01094C20.6156 1.90781 20.2547 1.89844 19.9969 1.99219ZM21.0984 3.12188C21.7312 3.5625 21.7969 3.62344 21.7969 3.77344C21.7969 3.88125 20.4562 5.85938 20.3812 5.85938C20.3578 5.85938 19.9922 5.62031 19.5703 5.325L18.8016 4.79531L19.4578 3.83906C19.8234 3.31406 20.1609 2.84531 20.2125 2.79844C20.2641 2.75625 20.3531 2.71875 20.4141 2.71875C20.4703 2.71875 20.7797 2.90156 21.0984 3.12188ZM16.8422 3.8625C17.0484 3.95156 17.2312 4.1625 17.2922 4.38281C17.3203 4.48594 17.3437 4.77656 17.3437 5.025V5.47969L15.2203 8.54063C14.0531 10.2234 13.0266 11.7047 12.9422 11.8313C12.8062 12.0281 12.7172 12.3188 12.3 13.9172C12.0328 14.9391 11.8125 15.8578 11.8125 15.9656C11.8125 16.2094 11.9391 16.3359 12.1781 16.3313C12.3234 16.3313 12.5859 16.1766 13.9172 15.2859C14.775 14.7047 15.5437 14.1844 15.6141 14.1188C15.6891 14.0578 16.1062 13.4953 16.5375 12.8766L17.3203 11.7422L17.3344 12.6094C17.3391 13.0875 17.3391 15.0797 17.3344 17.0391L17.3203 20.6016L17.2172 20.7656C17.1609 20.8594 17.0297 20.9813 16.9266 21.0375L16.7437 21.1406L9.78281 21.1313C2.83125 21.1172 2.81719 21.1172 2.69062 21.0188C2.62031 20.9672 2.51719 20.8641 2.46562 20.7938L2.36719 20.6672V12.4781V4.28906L2.47969 4.12969C2.54062 4.04531 2.67656 3.93281 2.78437 3.88594C2.96719 3.80156 3.24844 3.79688 9.83437 3.79688C15.5531 3.79688 16.7156 3.80625 16.8422 3.8625ZM19.9031 6.58594C19.8844 6.6375 15.3937 13.125 15.3281 13.1906C15.2953 13.2234 13.8187 12.2391 13.7578 12.1406C13.7437 12.1172 14.7703 10.6031 16.0359 8.775L18.3422 5.45156L19.1297 5.99531C19.5656 6.29531 19.9125 6.55781 19.9031 6.58594ZM14.0391 13.3359C14.3625 13.5563 14.6344 13.7578 14.6437 13.7766C14.6672 13.8141 12.8953 15.0234 12.8672 14.9906C12.8344 14.9578 13.3781 12.9375 13.4203 12.9375C13.4391 12.9375 13.7203 13.1156 14.0391 13.3359Z" fill="white"/>
<path d="M5.07188 7.86094C4.99219 7.88906 4.875 8.12812 4.875 8.25C4.875 8.30625 4.93594 8.41406 5.01094 8.48906L5.15156 8.625L9.86719 8.61562L14.5875 8.60156L14.6766 8.48906C14.8125 8.32031 14.7938 8.04844 14.6438 7.92656C14.5172 7.82812 14.5031 7.82812 9.825 7.83281C7.24688 7.83281 5.10469 7.84687 5.07188 7.86094Z" fill="white"/>
<path d="M5.12343 10.6874C4.95936 10.753 4.86093 10.9452 4.89374 11.1327C4.95468 11.4515 4.80936 11.4374 8.08593 11.4374C11.2969 11.4327 11.1656 11.4468 11.2453 11.1702C11.3062 10.9687 11.2031 10.7577 11.0156 10.6921C10.8281 10.6312 5.2828 10.6218 5.12343 10.6874Z" fill="white"/>
<path d="M4.99217 13.6172C4.80467 13.8 4.86092 14.1375 5.0953 14.2453C5.17499 14.2828 6.08905 14.2969 8.13749 14.2969C11.2359 14.2969 11.2828 14.2922 11.3625 14.0859C11.4234 13.9219 11.3906 13.7297 11.2734 13.6172L11.1609 13.5H8.1328H5.10467L4.99217 13.6172Z" fill="white"/>
<path d="M5.1703 16.3452C4.99686 16.378 4.86093 16.589 4.89374 16.7812C4.94999 17.1234 4.81405 17.1093 7.7203 17.1093H10.3172L10.4297 16.9921C10.5797 16.8468 10.5797 16.6405 10.4344 16.4671L10.3219 16.3359L7.7953 16.3312C6.4078 16.3265 5.22655 16.3312 5.1703 16.3452Z" fill="white"/>
</svg>
