<svg width="24" height="24" viewBox="0 0 24 24" fill="none" xmlns="http://www.w3.org/2000/svg">
<path d="M11.3438 0.918749C10.4484 1.15312 9.73125 1.87031 9.49219 2.76562C9.44531 2.93437 9.42188 3.25781 9.42188 3.68906V4.35469L8.99063 4.57969C7.55625 5.31562 6.40313 6.675 5.87813 8.23125C5.57344 9.14531 5.56875 9.21562 5.54531 12.3703L5.52188 15.2484L4.47188 17.3531C3.53438 19.2375 3.42188 19.4812 3.42188 19.6875C3.42188 19.9687 3.48281 20.1375 3.64688 20.3156C3.9 20.5828 3.84375 20.5781 6.75 20.5781H9.42188V20.775C9.42188 21.3 9.72656 21.9609 10.1719 22.4062C11.1797 23.4141 12.8203 23.4141 13.8281 22.4062C14.2734 21.9609 14.5781 21.3 14.5781 20.775V20.5781H17.25C20.1563 20.5781 20.1 20.5828 20.3531 20.3156C20.5172 20.1375 20.5781 19.9687 20.5781 19.6875C20.5781 19.4812 20.4656 19.2375 19.5281 17.3531L18.4781 15.2484L18.4547 12.3937C18.4313 9.26719 18.4313 9.22969 18.1359 8.31094C17.6063 6.65625 16.4391 5.29219 14.8734 4.50469L14.5781 4.35937V3.68906C14.5781 3.25781 14.5547 2.93437 14.5078 2.76562C14.2688 1.86094 13.5469 1.14844 12.6328 0.914062C12.2859 0.824999 11.6859 0.829687 11.3438 0.918749ZM12.1969 2.625C12.2953 2.65312 12.4406 2.73281 12.5203 2.79844C12.6609 2.92031 12.8391 3.23437 12.8438 3.36094C12.8438 3.40781 12.6422 3.42187 12 3.42187C11.3578 3.42187 11.1563 3.40781 11.1563 3.36094C11.1609 3.24844 11.3344 2.92969 11.4516 2.82187C11.5594 2.72344 11.8594 2.58281 11.9766 2.57812C12.0047 2.57812 12.1031 2.60156 12.1969 2.625ZM12.4688 5.625C14.4563 5.85469 16.0078 7.2 16.5609 9.17812C16.6547 9.525 16.6594 9.65156 16.6875 12.6328L16.7109 15.7266L17.4984 17.2875L18.2813 18.8437H12H5.71875L6.50156 17.2875L7.28906 15.7266L7.31719 12.6328C7.34531 9.43125 7.34063 9.46875 7.55625 8.8125C8.10469 7.125 9.68906 5.83594 11.4797 5.625C11.9297 5.57344 12.0281 5.57344 12.4688 5.625ZM12.8438 20.6344C12.8391 20.7656 12.6609 21.0797 12.5203 21.2016C12.2063 21.4641 11.7938 21.4641 11.4797 21.2016C11.3391 21.0797 11.1609 20.7656 11.1563 20.6344C11.1563 20.5922 11.3578 20.5781 12 20.5781C12.6422 20.5781 12.8438 20.5922 12.8438 20.6344Z" fill="#095FBA"/>
</svg>
