<svg width="24" height="24" viewBox="0 0 24 24" fill="none" xmlns="http://www.w3.org/2000/svg">
<path d="M11.7469 0.0984374L11.625 0.192187V1.27031C11.625 2.28281 11.6297 2.34844 11.7188 2.4375C11.7797 2.49844 11.8734 2.53125 12 2.53125C12.1266 2.53125 12.2203 2.49844 12.2813 2.4375C12.3703 2.34844 12.375 2.28281 12.375 1.27031V0.192187L12.2531 0.0984374C12.1828 0.0421874 12.0703 -1.00583e-07 12 -1.00583e-07C11.9297 -1.00583e-07 11.8172 0.0421874 11.7469 0.0984374Z" fill="white"/>
<path d="M7.90313 1.08275C7.67813 1.26087 7.725 1.42494 8.25469 2.339C8.5125 2.789 8.76094 3.18275 8.80313 3.22025C8.925 3.30931 9.15938 3.29525 9.3 3.18275C9.525 3.00462 9.47813 2.84056 8.94844 1.9265C8.69063 1.4765 8.44219 1.08275 8.4 1.04525C8.27813 0.956186 8.04375 0.970249 7.90313 1.08275Z" fill="white"/>
<path d="M15.5672 1.15776C15.4125 1.2937 14.5312 2.86401 14.5312 3.01401C14.5312 3.30933 14.9484 3.48745 15.1828 3.29058C15.3047 3.18745 16.2188 1.59839 16.2188 1.48589C16.2188 1.37808 16.1297 1.21401 16.0359 1.13901C15.9281 1.05464 15.6797 1.06401 15.5672 1.15776Z" fill="white"/>
<path d="M11.0625 3.61406C9.36563 3.975 8.05313 5.23594 7.6125 6.91875C7.45782 7.5 7.43907 8.44687 7.56563 8.97187C7.60782 9.15 7.63594 9.3 7.63125 9.30937C7.62188 9.31406 6.74063 9.66094 5.67657 10.0734C4.60782 10.4859 3.70313 10.8516 3.675 10.8844C3.64219 10.9172 3.19219 11.6766 2.67657 12.5719C1.66875 14.3156 1.62657 14.4141 1.8375 14.6109C1.89844 14.6672 2.28282 14.8406 2.69532 15C3.10782 15.1594 3.47344 15.3 3.50625 15.3141C3.54844 15.3328 3.5625 15.9094 3.5625 17.9766C3.5625 20.4187 3.56719 20.6203 3.64688 20.7141C3.69844 20.7844 5.02032 21.3187 7.81875 22.4062C10.0688 23.2828 11.9531 24 12.0047 24C12.1734 24 20.2219 20.8453 20.3344 20.7328L20.4375 20.6297V17.9812V15.3328L20.6859 15.2437C21.6797 14.8641 22.0688 14.7 22.1625 14.6156C22.3734 14.4141 22.3313 14.3156 21.3281 12.5719C20.8078 11.6766 20.3578 10.9172 20.3297 10.8891C20.2969 10.8562 19.3969 10.4906 18.3281 10.0734C17.2594 9.65625 16.3781 9.31406 16.3688 9.30469C16.3641 9.3 16.3922 9.15 16.4344 8.97187C16.5609 8.44687 16.5422 7.5 16.3875 6.91406C16.0547 5.62969 15.1828 4.56562 13.9922 3.98437C13.3641 3.675 12.8813 3.55781 12.1172 3.53437C11.625 3.52031 11.4188 3.53437 11.0625 3.61406ZM12.6656 4.37812C13.8797 4.6125 14.8781 5.39531 15.3938 6.525C15.6375 7.05469 15.7172 7.44375 15.7172 8.0625C15.7125 8.72344 15.6094 9.15937 15.3047 9.74062C14.8406 10.6359 14.0813 11.2828 13.1016 11.6109C12.7594 11.7281 12.6656 11.7375 12 11.7375C11.3344 11.7375 11.2406 11.7281 10.8984 11.6109C9.65157 11.1891 8.71407 10.2047 8.38125 8.9625C8.25469 8.47969 8.24532 7.65937 8.3625 7.19531C8.67188 5.99531 9.55782 4.9875 10.6688 4.56562C11.3203 4.31719 12.0141 4.25625 12.6656 4.37812ZM8.22188 10.5422C8.52188 11.0109 9.16407 11.6344 9.64688 11.925C10.0688 12.1781 10.7813 12.4406 11.25 12.5109C11.6391 12.5766 12.3609 12.5766 12.75 12.5109C13.2188 12.4406 13.9313 12.1781 14.3531 11.925C14.8359 11.6344 15.4781 11.0109 15.7781 10.5422C15.9047 10.3453 16.0313 10.1531 16.0547 10.1109C16.0969 10.05 16.2938 10.1156 17.5219 10.6078C18.6 11.0344 18.9234 11.1844 18.8484 11.2078C18.7969 11.2312 17.2359 11.8359 15.3797 12.5578L12.0047 13.875L8.61563 12.5578C6.75 11.8312 5.18907 11.2219 5.14219 11.2078C5.08125 11.1844 5.50313 10.9969 6.47813 10.6078C7.70157 10.1203 7.90313 10.05 7.94532 10.1109C7.97344 10.1531 8.09532 10.3453 8.22188 10.5422ZM7.85157 13.125C9.78282 13.875 11.3719 14.4984 11.3813 14.5078C11.3953 14.5219 10.1063 16.8141 10.0031 16.9594C9.99375 16.9734 2.76094 14.1656 2.73282 14.1375C2.71875 14.1281 3.525 12.7031 4.11094 11.7094C4.12032 11.6906 4.17657 11.6953 4.23282 11.7141C4.28907 11.7375 5.91563 12.3703 7.85157 13.125ZM20.5969 12.9328C20.9766 13.5844 21.2766 14.1281 21.2672 14.1375C21.225 14.1844 14.0344 16.9547 14.0063 16.9406C13.9313 16.8937 12.5953 14.5125 12.6328 14.4984C12.6609 14.4891 14.2922 13.8516 16.2656 13.0828C18.2391 12.3141 19.8656 11.6953 19.8797 11.7141C19.8984 11.7281 20.2219 12.2766 20.5969 12.9328ZM7.21875 16.7578C8.80782 17.3766 10.1156 17.8594 10.2 17.8594C10.4016 17.8594 10.4719 17.7703 11.0859 16.7016L11.6016 15.8016L11.6156 19.3922C11.6203 21.3703 11.6203 22.9875 11.6109 22.9969C11.6016 23.0062 8.1 21.6562 5.14688 20.5031L4.35938 20.1937V17.925C4.35938 16.6781 4.36407 15.6562 4.37344 15.6562C4.38282 15.6562 5.6625 16.1531 7.21875 16.7578ZM19.6406 17.925V20.1937L18.8578 20.5031C15.5438 21.7969 12.4031 23.0109 12.3891 22.9969C12.3797 22.9922 12.3797 21.3656 12.3844 19.3922L12.3984 15.8016L12.9141 16.6969C13.5328 17.775 13.5938 17.8594 13.8 17.8594C13.8891 17.8594 15.1547 17.3906 16.7625 16.7625C18.3047 16.1578 19.5844 15.6656 19.6078 15.6609C19.6266 15.6562 19.6406 16.6781 19.6406 17.925Z" fill="white"/>
<path d="M13.6641 5.63437C13.5094 5.67656 13.275 5.88281 12.3141 6.83437C11.3203 7.82344 11.1469 7.97812 11.0953 7.92187C11.0578 7.88437 10.9031 7.69219 10.7437 7.49062C10.4109 7.07812 10.1766 6.9375 9.81562 6.9375C9.09843 6.94219 8.60625 7.68281 8.90156 8.32031C8.94843 8.42344 9.29531 8.89687 9.675 9.375C10.425 10.3219 10.6359 10.5 11.025 10.5C11.4891 10.5 11.4937 10.4953 13.1625 8.84062C14.025 7.9875 14.7844 7.19531 14.85 7.07812C15.1219 6.62344 14.9531 5.98125 14.4984 5.72812C14.2687 5.60156 13.9266 5.56406 13.6641 5.63437ZM14.1187 6.45469C14.1656 6.49687 14.2031 6.55312 14.2031 6.58125C14.2031 6.66562 11.1422 9.70312 11.0531 9.70312C11.0062 9.70312 10.7203 9.37969 10.3547 8.91562C10.0125 8.48437 9.70312 8.09531 9.66562 8.04844C9.60937 7.98281 9.60468 7.94531 9.65156 7.84687C9.75 7.63125 9.88125 7.71562 10.3453 8.29687C10.8703 8.94375 10.9312 9 11.1469 9C11.3016 9 11.4 8.91562 12.6281 7.6875C13.3547 6.96562 13.9641 6.375 13.9875 6.375C14.0109 6.375 14.0719 6.40781 14.1187 6.45469Z" fill="white"/>
<path d="M5.0672 3.82982C5.01095 3.87669 4.9547 3.98919 4.94063 4.08294C4.89845 4.32669 5.01563 4.42982 5.91095 4.94544C6.69376 5.39075 6.87188 5.45638 7.07345 5.34388C7.22345 5.26419 7.2797 5.05325 7.2047 4.87044C7.14845 4.7345 7.0172 4.64075 6.30001 4.22825C5.41876 3.72669 5.25938 3.67513 5.0672 3.82982Z" fill="white"/>
<path d="M18.3984 3.95625C18.1875 4.05 16.8656 4.82344 16.7719 4.90781C16.5234 5.13281 16.6969 5.57344 17.0391 5.57812C17.2453 5.57812 18.8297 4.65937 18.9234 4.48594C19.1016 4.14375 18.7547 3.79219 18.3984 3.95625Z" fill="white"/>
<path d="M3.97969 7.68281C3.9 7.76719 3.84375 7.87031 3.84375 7.94531C3.84375 8.02031 3.9 8.12344 3.97969 8.20781L4.11563 8.34375H5.13281H6.15L6.28594 8.20781C6.36563 8.12344 6.42188 8.02031 6.42188 7.94531C6.42188 7.87031 6.36563 7.76719 6.28594 7.68281L6.15 7.54687H5.13281H4.11563L3.97969 7.68281Z" fill="white"/>
<path d="M17.5312 7.87031C17.3531 8.04844 17.3437 8.25469 17.5078 8.41406L17.6203 8.53125H18.6703H19.7203L19.8234 8.41875C19.9641 8.26875 19.9687 7.99688 19.8328 7.85625C19.7391 7.7625 19.6781 7.75781 18.7031 7.74375L17.6719 7.72969L17.5312 7.87031Z" fill="white"/>
</svg>
