<svg width="48" height="48" viewBox="0 0 48 48" fill="none" xmlns="http://www.w3.org/2000/svg">
<g clip-path="url(#clip0_42_11051)">
<path d="M22.5467 1.05956C20.9436 1.66893 19.9124 3.04706 19.8092 4.71581C19.6686 6.94706 21.1124 8.80331 23.2967 9.19706C25.3967 9.58143 27.5342 8.21268 28.0686 6.14081C28.5936 4.14393 27.6655 2.10018 25.828 1.20956C25.2186 0.918932 25.0874 0.890807 24.1405 0.872057C23.2499 0.843932 23.0342 0.872057 22.5467 1.05956ZM24.9655 2.40018C25.5374 2.58768 26.1936 3.18768 26.5124 3.78768C26.8499 4.44393 26.8686 5.55018 26.5499 6.19706C25.678 7.97831 23.3811 8.37206 22.0124 6.98456C21.4311 6.40331 21.2342 5.88768 21.2342 5.01581C21.2436 4.38768 21.2811 4.19081 21.4874 3.78768C21.7874 3.20643 22.4624 2.59706 22.9967 2.40018C23.5217 2.22206 24.4311 2.21268 24.9655 2.40018Z" fill="#095FBA"/>
<path d="M16.9499 5.61536C15.2437 6.25286 12.628 7.78099 11.5874 8.74661C10.903 9.39349 10.9405 9.48724 12.6374 11.1747C14.3249 12.8529 14.278 12.8435 15.4218 12.0185C16.2187 11.456 16.6687 11.1935 16.7155 11.2591C16.7343 11.2779 17.1187 12.6466 17.5687 14.2966C18.2437 16.7716 18.4312 17.3341 18.6187 17.5029C18.9093 17.7654 19.078 17.7747 19.4999 17.531C20.5124 16.9497 21.3843 16.556 22.0218 16.3966C24.0843 15.8622 26.2312 16.1904 28.0874 17.306C28.828 17.756 29.0624 17.7935 29.3718 17.5122C29.5687 17.3341 29.7374 16.8185 30.4312 14.2966C30.8812 12.6466 31.2655 11.2779 31.2843 11.2591C31.3312 11.1935 31.7812 11.456 32.578 12.0185C33.7218 12.8435 33.6749 12.8529 35.3624 11.1747C37.0593 9.48724 37.0968 9.39349 36.4124 8.74661C35.0812 7.50911 31.378 5.51224 30.1405 5.37161C29.653 5.31536 29.4655 5.51224 29.2874 6.27161C28.828 8.26849 27.1124 9.92786 25.078 10.3591C23.8593 10.6122 22.7624 10.4622 21.5624 9.88099C20.203 9.20599 19.0593 7.76224 18.7124 6.27161C18.4687 5.25911 18.1968 5.15599 16.9499 5.61536ZM17.8593 8.06224C18.553 9.44974 19.6124 10.5091 20.953 11.156C22.0687 11.6904 22.7437 11.8497 23.9999 11.8497C25.2562 11.8497 25.9312 11.6904 27.0468 11.156C28.6312 10.3872 29.9155 8.93411 30.5062 7.24661L30.6093 6.93724L31.8749 7.55599C33.0562 8.12786 34.9687 9.29974 34.9687 9.44974C34.9687 9.54349 33.628 10.8747 33.5343 10.8747C33.4874 10.8747 33.2155 10.7154 32.9249 10.5185C31.453 9.52474 30.6843 9.26224 30.3468 9.63724C30.2624 9.73099 29.8312 11.1091 29.3905 12.7029C28.9499 14.306 28.5749 15.656 28.5468 15.7216C28.5187 15.7966 28.2749 15.731 27.7687 15.5154C26.5218 14.9716 25.5468 14.7747 24.0468 14.7747C23.0812 14.7654 22.5374 14.8122 21.9843 14.9435C21.2155 15.1216 19.9218 15.5904 19.7062 15.7685C19.6312 15.8341 19.5562 15.8341 19.5093 15.7872C19.4624 15.7404 19.0687 14.3716 18.6187 12.7497C18.1687 11.1279 17.7374 9.73099 17.653 9.63724C17.3155 9.26224 16.5468 9.52474 15.0749 10.5185C14.7843 10.7154 14.5124 10.8747 14.4655 10.8747C14.3718 10.8747 13.0312 9.54349 13.0312 9.44974C13.0312 9.31849 14.8874 8.15599 15.8905 7.66849C17.4843 6.89036 17.3718 6.90911 17.4937 7.25599C17.5499 7.41536 17.7187 7.78099 17.8593 8.06224Z" fill="#095FBA"/>
<path d="M8.74678 11.5871C7.50928 12.9183 5.51241 16.6215 5.37178 17.859C5.31553 18.3465 5.51241 18.534 6.27178 18.7121C8.28741 19.1808 9.92803 20.8871 10.3687 22.9683C10.9499 25.7246 9.06553 28.6402 6.27178 29.2871C5.51241 29.4652 5.31553 29.6527 5.37178 30.1402C5.51241 31.3777 7.50928 35.0808 8.74678 36.4121C9.39366 37.0965 9.48741 37.059 11.1843 35.3621C12.853 33.6746 12.8437 33.7215 12.0187 32.5777C11.4562 31.7808 11.1937 31.3308 11.2593 31.284C11.278 31.2652 12.6468 30.8808 14.2968 30.4308C18.0749 29.3996 18.0843 29.3902 17.3062 28.0871C16.5749 26.8683 16.1249 25.3215 16.1249 23.9996C16.1249 22.6777 16.5749 21.1308 17.3062 19.9121C17.7562 19.1715 17.7937 18.9371 17.5124 18.6277C17.3343 18.4308 16.828 18.2621 14.2968 17.5683C12.6468 17.1183 11.278 16.7433 11.2593 16.7246C11.1937 16.6683 11.4562 16.2277 12.0187 15.4215C12.8437 14.2777 12.853 14.3246 11.1843 12.6371C9.48741 10.9402 9.39366 10.9027 8.74678 11.5871ZM10.1999 13.7152C10.5655 14.0902 10.8749 14.4277 10.8749 14.4652C10.8749 14.5121 10.7155 14.784 10.5187 15.0746C9.52491 16.5465 9.26241 17.3152 9.63741 17.6527C9.73116 17.7371 11.128 18.1683 12.7499 18.6183C14.3718 19.0683 15.7312 19.4621 15.7687 19.4902C15.8062 19.5183 15.703 19.8183 15.5437 20.1558C14.8499 21.6277 14.5593 23.8215 14.8499 25.4808C15.0187 26.4371 15.2624 27.2527 15.6187 27.984C15.7405 28.2371 15.8062 28.4808 15.7687 28.509C15.7312 28.5465 14.3718 28.9402 12.7593 29.3808C11.1374 29.8308 9.73116 30.2621 9.63741 30.3465C9.26241 30.684 9.52491 31.4527 10.5187 32.9246C10.7155 33.2152 10.8749 33.4965 10.8749 33.534C10.8749 33.6277 9.54366 34.9683 9.44991 34.9683C9.29991 34.9683 8.11866 33.0465 7.55616 31.8746L6.93741 30.609L7.24678 30.5058C7.77178 30.3183 8.55928 29.8965 9.16866 29.4652C10.2843 28.6683 11.278 27.1777 11.6812 25.6871C11.9062 24.8621 11.9062 23.1371 11.6812 22.3121C11.2968 20.8683 10.3312 19.3965 9.25303 18.5808C8.72803 18.1871 7.29366 17.4371 7.06866 17.4371C6.91866 17.4371 7.04053 17.1371 7.70616 15.7965C8.17491 14.859 9.32803 13.0308 9.44991 13.0308C9.48741 13.0308 9.82491 13.3402 10.1999 13.7152Z" fill="#095FBA"/>
<path d="M38.2971 11.2496C38.1939 11.2871 37.5096 11.934 36.7783 12.6746C35.1564 14.3152 35.1658 14.2871 35.9814 15.4215C36.5439 16.2183 36.8064 16.6683 36.7408 16.7152C36.7221 16.734 35.3533 17.1183 33.7033 17.5683C29.9252 18.5996 29.9158 18.609 30.6939 19.9121C31.4252 21.1308 31.8752 22.6777 31.8752 23.9996C31.8752 25.3215 31.4252 26.8683 30.6939 28.0871C30.2439 28.8277 30.2064 29.0621 30.4877 29.3715C30.6658 29.5683 31.1721 29.7371 33.7033 30.4308C35.3533 30.8808 36.7221 31.2558 36.7408 31.2746C36.8064 31.3308 36.5439 31.7715 35.9814 32.5777C35.1564 33.7215 35.1471 33.6746 36.8252 35.3621C38.5127 37.059 38.6064 37.0965 39.2533 36.4121C40.4814 35.0902 42.4877 31.3683 42.6283 30.1402C42.6846 29.6527 42.4877 29.4652 41.7283 29.2871C39.7314 28.8277 38.0721 27.1121 37.6408 25.0777C37.4721 24.2527 37.4721 23.7465 37.6408 22.9215C38.0721 20.8871 39.7314 19.1715 41.7283 18.7121C42.7221 18.4777 42.8346 18.2152 42.4127 17.0433C41.6064 14.7933 39.2814 11.1371 38.6627 11.1652C38.5689 11.1652 38.4002 11.2027 38.2971 11.2496ZM39.2252 13.9402C39.5533 14.4465 40.1064 15.4308 40.4439 16.1246L41.0627 17.3902L40.7533 17.4933C38.6064 18.234 36.9189 20.0621 36.3189 22.3121C36.0939 23.1371 36.0939 24.8621 36.3189 25.6871C36.9189 27.9371 38.6064 29.7652 40.7533 30.5058L41.0627 30.609L40.4439 31.8746C39.8814 33.0465 38.7002 34.9683 38.5502 34.9683C38.4564 34.9683 37.1252 33.6277 37.1252 33.534C37.1252 33.4965 37.2846 33.2152 37.4814 32.9246C38.4752 31.4527 38.7377 30.684 38.3627 30.3465C38.2689 30.2621 36.8721 29.8308 35.2502 29.3808C33.6283 28.9308 32.2596 28.5371 32.2127 28.4902C32.1658 28.4433 32.1658 28.3683 32.2314 28.2933C32.4096 28.0683 32.8783 26.7746 33.0564 26.0152C33.3002 24.984 33.3002 23.0152 33.0564 21.984C32.8783 21.2246 32.4096 19.9308 32.2314 19.7058C32.1658 19.6308 32.1658 19.5558 32.2127 19.509C32.2596 19.4621 33.6283 19.059 35.2408 18.6183C36.8627 18.1683 38.2689 17.7371 38.3627 17.6527C38.7377 17.3152 38.4752 16.5465 37.4814 15.0746C37.2846 14.784 37.1252 14.5121 37.1252 14.4652C37.1252 14.3715 38.4564 13.0308 38.5502 13.0308C38.5877 13.0308 38.8877 13.4433 39.2252 13.9402Z" fill="#095FBA"/>
<path d="M22.8186 17.4367C21.4967 17.6805 20.3248 18.2992 19.3123 19.3117C18.4967 20.1273 17.9998 20.9242 17.6529 21.9836C17.4373 22.6492 17.4092 22.8836 17.4092 23.9992C17.4092 25.1148 17.4373 25.3492 17.6529 26.0148C17.9998 27.0742 18.4967 27.8711 19.3123 28.6867C20.1279 29.5023 20.9248 29.9992 21.9842 30.3461C22.6498 30.5617 22.8842 30.5898 23.9998 30.5898C25.1154 30.5898 25.3498 30.5617 26.0154 30.3461C27.0748 29.9992 27.8717 29.5023 28.6873 28.6867C29.5029 27.8711 29.9998 27.0742 30.3467 26.0148C30.5623 25.3492 30.5904 25.1148 30.5904 23.9992C30.5904 22.8836 30.5623 22.6492 30.3467 21.9836C29.9998 20.9242 29.5029 20.1273 28.6873 19.3117C27.4217 18.0555 26.0529 17.4555 24.2811 17.3898C23.7373 17.3711 23.0811 17.3898 22.8186 17.4367ZM25.2561 18.9367C26.2779 19.1992 26.8498 19.5273 27.6561 20.343C28.4717 21.1492 28.7998 21.7211 29.0623 22.743C29.2967 23.6617 29.2967 24.3367 29.0623 25.2555C28.7998 26.2773 28.4717 26.8492 27.6561 27.6555C26.8498 28.4711 26.2779 28.7992 25.2561 29.0617C24.3373 29.2961 23.6623 29.2961 22.7436 29.0617C21.7217 28.7992 21.1498 28.4711 20.3436 27.6555C19.5279 26.8492 19.1998 26.2773 18.9373 25.2555C18.7029 24.3367 18.7029 23.6617 18.9373 22.743C19.1998 21.7211 19.5279 21.1492 20.3436 20.343C21.1404 19.5367 21.7217 19.1992 22.7061 18.9367C23.5967 18.7023 24.3561 18.7023 25.2561 18.9367Z" fill="#095FBA"/>
<path d="M22.2844 19.9875C22.05 20.175 21.9375 20.5781 21.9375 21.2906V21.9375H21.2906C20.5594 21.9375 20.1 22.0688 19.9687 22.3125C19.9125 22.4063 19.875 23.1656 19.875 24C19.875 24.8344 19.9125 25.5938 19.9687 25.6875C20.1 25.9313 20.5594 26.0625 21.2906 26.0625H21.9375V26.7094C21.9375 27.5063 22.0781 27.9281 22.3781 28.0406C22.6781 28.1531 25.3219 28.1531 25.6219 28.0406C25.9219 27.9281 26.0625 27.5063 26.0625 26.7094V26.0625H26.7094C27.4406 26.0625 27.9 25.9313 28.0312 25.6875C28.1531 25.4625 28.1531 22.5375 28.0312 22.3125C27.9 22.0688 27.4406 21.9375 26.7094 21.9375H26.0625V21.2906C26.0625 20.4938 25.9219 20.0719 25.6219 19.9594C25.2656 19.8281 22.4719 19.8469 22.2844 19.9875ZM24.6562 22.1438C24.6562 23.3063 24.6937 23.3438 25.8469 23.3438H26.7187V24V24.6563H25.8562C24.6937 24.6563 24.6562 24.6938 24.6562 25.8469V26.7188H24H23.3437V25.8563C23.3437 24.6938 23.3062 24.6563 22.1531 24.6563H21.2812V24V23.3438H22.1437C23.3062 23.3438 23.3437 23.3063 23.3437 22.1531V21.2813H24H24.6562V22.1438Z" fill="#095FBA"/>
<path d="M4.0125 19.8842C2.8875 20.1467 1.74375 21.0842 1.20937 22.1717C0.9 22.8092 0.890625 22.8561 0.890625 23.9999C0.890625 25.1436 0.9 25.1905 1.20937 25.828C2.09062 27.6374 4.14375 28.5842 6.09375 28.0874C7.70625 27.6749 8.925 26.3249 9.20625 24.628C9.54375 22.5655 8.175 20.4561 6.14062 19.9311C5.54062 19.7717 4.575 19.753 4.0125 19.8842ZM6.19687 21.4499C7.97812 22.3124 8.37187 24.6186 6.98437 25.9874C6.40312 26.5686 5.8875 26.7655 5.01562 26.7655C4.10625 26.7561 3.51562 26.4936 2.925 25.828C1.575 24.2905 2.29687 21.928 4.3125 21.2717C4.74375 21.1311 5.7375 21.2249 6.19687 21.4499Z" fill="#095FBA"/>
<path d="M41.8123 19.9217C40.5373 20.2874 39.4873 21.253 39.0186 22.5092C38.1467 24.8717 39.4873 27.4686 41.9061 28.0874C43.8561 28.5842 45.9092 27.6374 46.7904 25.828C47.0998 25.1905 47.1092 25.1436 47.1092 23.9999C47.1092 22.8561 47.0998 22.8092 46.7904 22.1717C46.3592 21.2905 45.6654 20.6155 44.7654 20.1842C44.1373 19.8936 43.9498 19.8467 43.1904 19.8186C42.6092 19.7905 42.1592 19.828 41.8123 19.9217ZM44.2123 21.4967C45.8436 22.3217 46.2654 24.4686 45.0748 25.828C44.4842 26.4936 43.8936 26.7561 42.9842 26.7655C42.1123 26.7655 41.5967 26.5686 41.0154 25.9874C39.5436 24.5436 40.0967 22.078 42.0561 21.328C42.6186 21.1124 43.6217 21.1967 44.2123 21.4967Z" fill="#095FBA"/>
<path d="M18.628 30.4871C18.4312 30.6652 18.2624 31.1809 17.5687 33.7027C17.1187 35.3527 16.7343 36.7215 16.7155 36.7402C16.6687 36.8059 16.2187 36.5434 15.4218 35.9809C14.278 35.1559 14.3249 35.1465 12.6374 36.8152C10.9405 38.5121 10.903 38.6059 11.5874 39.2527C12.9093 40.4809 16.6405 42.4871 17.8593 42.6277C18.3468 42.684 18.5343 42.4871 18.7124 41.7277C19.1718 39.7309 20.8874 38.0715 22.9218 37.6402C23.7468 37.4715 24.253 37.4715 25.078 37.6402C27.1124 38.0715 28.828 39.7309 29.2874 41.7277C29.4655 42.4871 29.653 42.684 30.1405 42.6277C31.378 42.4871 35.0812 40.4902 36.4124 39.2527C37.0968 38.6059 37.0593 38.5121 35.3624 36.8152C33.6749 35.1465 33.7218 35.1559 32.578 35.9809C31.7812 36.5434 31.3312 36.8059 31.2843 36.7402C31.2655 36.7215 30.8812 35.3527 30.4312 33.7027C29.3999 29.9246 29.3905 29.9059 28.0874 30.6934C26.8687 31.4246 25.3218 31.8746 23.9999 31.8746C22.678 31.8746 21.1312 31.4246 19.9124 30.6934C19.1718 30.2434 18.9374 30.2059 18.628 30.4871ZM19.7437 32.2402C19.903 32.3996 21.2249 32.8777 21.9843 33.0559C22.5374 33.1871 23.0812 33.234 24.0468 33.2246C25.5468 33.2246 26.5218 33.0277 27.7687 32.484C28.2749 32.2684 28.5187 32.2027 28.5468 32.2777C28.5749 32.3434 28.9499 33.6934 29.3905 35.2965C29.8312 36.8902 30.2624 38.2684 30.3468 38.3621C30.6843 38.7371 31.453 38.4746 32.9249 37.4809C33.2155 37.284 33.4874 37.1246 33.5343 37.1246C33.628 37.1246 34.9687 38.4559 34.9687 38.5496C34.9687 38.6996 33.0562 39.8715 31.8749 40.4434L30.6093 41.0621L30.5062 40.7527C29.7655 38.6059 27.9374 36.9184 25.6874 36.3184C24.8624 36.0934 23.1374 36.0934 22.3124 36.3184C20.0624 36.9184 18.2343 38.6059 17.4937 40.7527L17.3905 41.0621L16.1249 40.4434C14.953 39.8809 13.0312 38.6996 13.0312 38.5496C13.0312 38.4559 14.3718 37.1246 14.4655 37.1246C14.503 37.1246 14.7843 37.284 15.0749 37.4809C16.5468 38.4746 17.3155 38.7371 17.653 38.3621C17.7374 38.2684 18.1687 36.8902 18.6093 35.2965C19.0499 33.6934 19.4249 32.334 19.453 32.2684C19.4999 32.1371 19.6124 32.1184 19.7437 32.2402Z" fill="#095FBA"/>
<path d="M23.156 38.8127C22.4529 38.9627 21.4404 39.5158 20.981 40.0033C20.0904 40.9689 19.7248 41.9814 19.8092 43.2846C19.9123 45.0002 21.0185 46.4346 22.6685 46.9783C23.1654 47.1471 23.4279 47.1752 24.2154 47.1377C25.0685 47.1096 25.2467 47.0627 25.8279 46.7814C29.1654 45.1689 28.9498 40.3033 25.4717 39.0096C24.8342 38.7752 23.7748 38.6908 23.156 38.8127ZM25.1529 40.4346C25.7435 40.7064 26.2685 41.2221 26.5498 41.8033C26.8685 42.4502 26.8498 43.5564 26.5123 44.2127C26.006 45.1689 25.0685 45.7502 23.9998 45.7502C22.931 45.7502 21.9935 45.1689 21.4873 44.2127C21.1498 43.5564 21.131 42.4502 21.4498 41.8033C22.1435 40.3783 23.756 39.7877 25.1529 40.4346Z" fill="#095FBA"/>
</g>
<defs>
<clipPath id="clip0_42_11051">
<rect width="48" height="48" fill="white"/>
</clipPath>
</defs>
</svg>
