<svg width="48" height="48" viewBox="0 0 48 48" fill="none" xmlns="http://www.w3.org/2000/svg">
<g clip-path="url(#clip0_33_2632)">
<path d="M26.2032 1.68729C23.7751 2.02479 21.6001 3.81542 20.7844 6.17792C20.3907 7.29354 20.3251 8.86854 20.6157 10.0404C21.1782 12.3092 22.8188 14.1373 24.9469 14.8592C25.9876 15.206 27.6376 15.2904 28.7344 15.0467C31.1157 14.5217 33.1407 12.5435 33.7594 10.1529C33.9469 9.41229 34.0219 7.76229 33.8907 7.16229C33.5532 5.66229 32.8688 4.44354 31.7907 3.44979C30.3469 2.11854 28.1344 1.41542 26.2032 1.68729ZM28.5094 3.61854C30.1876 4.11542 31.5094 5.43729 32.0063 7.11542C32.0907 7.41542 32.1563 7.96854 32.1563 8.43729C32.1563 9.81542 31.6782 10.9779 30.7032 11.9529C29.7282 12.9279 28.5657 13.406 27.1594 13.406C24.3751 13.406 22.2188 11.2404 22.2188 8.43729C22.2188 6.16854 23.6907 4.19979 25.8469 3.60917C26.4938 3.43104 27.8907 3.44042 28.5094 3.61854Z" fill="#095FBA"/>
<path d="M26.5875 5.16561C26.3532 5.35311 26.3438 5.38124 26.3438 6.47811V7.59374H25.2282C24.1313 7.59374 24.1032 7.60311 23.9157 7.83749C23.6625 8.16561 23.6625 8.70936 23.9157 9.03749C24.1032 9.27186 24.1313 9.28124 25.2282 9.28124H26.3438V10.3594C26.3438 11.3906 26.3532 11.4562 26.5782 11.6719C26.8875 11.9906 27.45 11.9906 27.8157 11.6812C28.0688 11.4656 28.0782 11.4187 28.1063 10.3687L28.1438 9.28124H29.2032C30.2438 9.28124 30.2719 9.27186 30.4594 9.03749C30.7407 8.68124 30.7219 8.07186 30.4407 7.79999C30.2438 7.61249 30.1219 7.59374 29.1844 7.59374H28.1438L28.1157 6.52499C28.0782 5.54061 28.0594 5.42811 27.8532 5.21249C27.5532 4.89374 26.9532 4.87499 26.5875 5.16561Z" fill="#095FBA"/>
<path d="M21.4219 14.3624C19.9688 14.9905 18.3563 16.1249 17.3063 17.2593C15.3375 19.378 14.3344 21.778 14.1844 24.703L14.1282 25.9218L11.7282 27.3468C10.4063 28.1343 9.15004 28.8843 8.93441 29.0155L8.54066 29.2499L8.01566 28.3687C7.20004 27.0093 7.01254 26.9155 6.07504 27.4124C5.12816 27.9093 0.440663 30.7593 0.206288 30.9749C0.0281628 31.1343 -0.00933722 31.2468 0.0187878 31.5937C0.0469128 31.9593 0.618788 32.9437 4.30316 38.9999C6.63754 42.8437 8.63441 46.0593 8.73754 46.1437C9.18754 46.5374 9.42191 46.4343 12.6563 44.4374C14.3344 43.4062 15.7594 42.4874 15.825 42.403C16.0594 42.0749 15.9563 41.5968 15.4688 40.7812C15.2157 40.3499 15 39.9937 15 39.9749C15 39.9655 15.1782 39.853 15.4032 39.7218L15.8063 39.478L21.6188 41.0062C24.8063 41.8405 27.6282 42.5624 27.8719 42.5905C28.5282 42.6843 29.5875 42.5062 30.2438 42.1968C30.5625 42.0468 34.5094 39.4499 39.0282 36.4312L47.2407 30.928L47.5219 30.3468C48.1875 28.9218 48.1782 27.0749 47.4844 25.9687C46.8844 25.0124 45.825 24.5155 43.9969 24.3187C42.8907 24.2062 42.4688 24.3187 41.4094 25.0312L40.4532 25.6687L40.3875 25.0968C40.2375 23.7655 40.0969 23.0624 39.7969 22.153C38.7094 18.8905 36.3094 16.0687 33.3375 14.578C31.95 13.8843 31.7157 13.8843 30.8907 14.5593C29.7657 15.4968 28.5469 15.9374 27.1032 15.9374C25.7344 15.9374 24.45 15.4499 23.3907 14.5218C22.9313 14.1187 22.8094 14.0624 22.4719 14.0718C22.2563 14.0718 21.7875 14.203 21.4219 14.3624ZM23.9625 17.0624C26.3157 18.1874 29.5219 17.878 31.5938 16.3218L32.1 15.9468L32.7375 16.2843C34.8844 17.4468 36.8719 19.7062 37.8657 22.1062C38.3625 23.3062 38.5594 24.2999 38.5594 25.4999C38.55 26.0905 38.5125 26.6905 38.4657 26.8312C38.4094 27.028 38.0063 27.3468 36.8719 28.1062L35.3532 29.128L35.325 24.9749L35.2969 20.8312L35.0719 20.5874C34.7719 20.2687 34.1719 20.2499 33.8063 20.5405L33.5625 20.728V25.5468V30.3655L32.7188 30.9374C31.6032 31.6874 31.6313 31.678 31.5563 31.2093C31.3875 30.1687 30.2438 28.6687 29.2407 28.1905C28.6782 27.9187 24.0469 26.4562 22.1907 25.9593L21.0094 25.6405L20.9813 23.2312C20.9532 20.8312 20.9532 20.8312 20.7282 20.5874C20.4282 20.278 19.8282 20.2499 19.4625 20.5405L19.2188 20.728V23.0062V25.2843L18.7782 25.2093C18.525 25.1718 17.7938 25.1343 17.1375 25.1343L15.9375 25.1249V24.7124C15.9375 24.4874 16.0032 23.9624 16.0782 23.5499C16.6782 20.4093 18.6469 17.7843 21.5063 16.3218L22.2375 15.9468L22.8 16.3687C23.1094 16.5937 23.6344 16.9124 23.9625 17.0624ZM45.2813 26.4187C45.5625 26.5593 45.8719 26.7937 45.975 26.9343C46.2469 27.3093 46.2844 28.3593 46.0594 29.1093L45.8813 29.6718L37.7813 35.0905C33.0282 38.2593 29.475 40.5749 29.175 40.6874C28.9032 40.7905 28.5469 40.8749 28.3969 40.8749C28.2375 40.8749 25.3875 40.153 22.0688 39.2812C18.75 38.3999 15.8719 37.6874 15.675 37.6874C15.4407 37.6874 15.1313 37.7999 14.7 38.053L14.0719 38.4187L11.775 34.6124L9.47816 30.8155L12.6657 28.8937C16.275 26.7374 16.1907 26.7655 17.85 26.9155C19.6032 27.0843 22.1719 27.7312 26.1375 29.0155C28.3125 29.7187 28.6032 29.8499 29.0719 30.3468C29.9532 31.2655 30.0938 32.3249 29.4469 33.103L29.2032 33.3937L24.7969 32.728C22.3688 32.3624 20.2125 32.0624 19.9969 32.0624C19.4907 32.0624 19.2188 32.3718 19.2188 32.953C19.2188 33.703 19.0782 33.6562 24.2813 34.453C26.8313 34.8374 29.1 35.1562 29.3157 35.1562C29.7563 35.1562 29.0719 35.5968 37.9688 29.5405L43.0782 26.053L43.9219 26.1093C44.5875 26.1468 44.8688 26.2124 45.2813 26.4187ZM10.0782 35.2968C12.0282 38.5405 13.6782 41.2874 13.7532 41.3999C13.8657 41.5874 13.7813 41.653 11.7563 42.8812C10.0032 43.9499 9.60941 44.1562 9.51566 44.0437C9.35629 43.8749 2.15629 31.978 2.15629 31.8937C2.16566 31.7905 6.41254 29.2687 6.47816 29.3343C6.50629 29.3624 8.12816 32.0437 10.0782 35.2968Z" fill="#095FBA"/>
<path d="M9.56254 39.5811C8.53129 40.1061 8.41879 41.7186 9.36566 42.3467C9.74066 42.5999 10.5469 42.6374 10.95 42.4311C11.4469 42.1686 11.7469 41.7655 11.7938 41.2592C11.8125 41.0061 11.8125 40.6874 11.775 40.5561C11.6438 40.0124 10.8094 39.3842 10.2188 39.3749C10.0875 39.3749 9.78754 39.4686 9.56254 39.5811Z" fill="#095FBA"/>
</g>
<defs>
<clipPath id="clip0_33_2632">
<rect width="48" height="48" fill="white"/>
</clipPath>
</defs>
</svg>
