<svg width="24" height="24" viewBox="0 0 24 24" fill="none" xmlns="http://www.w3.org/2000/svg">
<g clip-path="url(#clip0_2_6526)">
<path d="M13.1014 0.84389C11.8873 1.01264 10.7998 1.90795 10.392 3.0892C10.1952 3.64701 10.1623 4.43451 10.3077 5.02045C10.5889 6.15483 11.4092 7.06889 12.4733 7.42983C12.9936 7.60326 13.8186 7.64545 14.367 7.52358C15.5577 7.26108 16.5702 6.27201 16.8795 5.0767C16.9733 4.70639 17.0108 3.88139 16.9452 3.58139C16.7764 2.83139 16.4342 2.22201 15.8952 1.72514C15.1733 1.05951 14.067 0.707952 13.1014 0.84389ZM14.2545 1.80951C15.0936 2.05795 15.7545 2.71889 16.003 3.55795C16.0452 3.70795 16.078 3.98451 16.078 4.21889C16.078 4.90795 15.8389 5.4892 15.3514 5.9767C14.8639 6.4642 14.2827 6.70326 13.5795 6.70326C12.1873 6.70326 11.1092 5.62045 11.1092 4.21889C11.1092 3.08451 11.8452 2.10014 12.9233 1.80483C13.2467 1.71576 13.9452 1.72045 14.2545 1.80951Z" fill="#455A64"/>
<path d="M13.2937 2.58281C13.1765 2.67656 13.1718 2.69062 13.1718 3.23906V3.79687H12.614C12.0655 3.79687 12.0515 3.80156 11.9577 3.91874C11.8312 4.08281 11.8312 4.35468 11.9577 4.51874C12.0515 4.63593 12.0655 4.64062 12.614 4.64062H13.1718V5.17968C13.1718 5.69531 13.1765 5.72812 13.289 5.83593C13.4437 5.99531 13.7249 5.99531 13.9077 5.84062C14.0343 5.73281 14.039 5.70937 14.053 5.18437L14.0718 4.64062H14.6015C15.1218 4.64062 15.1358 4.63593 15.2296 4.51874C15.3702 4.34062 15.3608 4.03593 15.2202 3.89999C15.1218 3.80624 15.0608 3.79687 14.5921 3.79687H14.0718L14.0577 3.26249C14.039 2.77031 14.0296 2.71406 13.9265 2.60624C13.7765 2.44687 13.4765 2.43749 13.2937 2.58281Z" fill="#455A64"/>
<path d="M10.7109 7.18132C9.98433 7.49539 9.17808 8.06257 8.65308 8.62976C7.66871 9.68914 7.16714 10.8891 7.09214 12.3516L7.06402 12.961L5.86402 13.6735C5.20308 14.0673 4.57496 14.4423 4.46714 14.5079L4.27027 14.6251L4.00777 14.1844C3.59996 13.5048 3.50621 13.4579 3.03746 13.7063C2.56402 13.9548 0.22027 15.3798 0.103083 15.4876C0.0140204 15.5673 -0.00472965 15.6235 0.00933285 15.7969C0.0233954 15.9798 0.309333 16.4719 2.15152 19.5001C3.31871 21.4219 4.31715 23.0298 4.36871 23.0719C4.59371 23.2688 4.7109 23.2173 6.32808 22.2188C7.16714 21.7032 7.87964 21.2438 7.91246 21.2016C8.02964 21.0376 7.97808 20.7985 7.73433 20.3907C7.60777 20.1751 7.49996 19.9969 7.49996 19.9876C7.49996 19.9829 7.58902 19.9266 7.70152 19.861L7.90308 19.7391L10.8093 20.5032C12.4031 20.9204 13.814 21.2813 13.9359 21.2954C14.264 21.3423 14.7937 21.2532 15.1218 21.0985C15.2812 21.0235 17.2546 19.7251 19.514 18.2157L23.6203 15.4641L23.7609 15.1735C24.0937 14.461 24.089 13.5376 23.7421 12.9844C23.4421 12.5063 22.9125 12.2579 21.9984 12.1594C21.4453 12.1032 21.2343 12.1594 20.7046 12.5157L20.2265 12.8344L20.1937 12.5485C20.1187 11.8829 20.0484 11.5313 19.8984 11.0766C19.3546 9.44538 18.1546 8.03445 16.6687 7.28913C15.975 6.94226 15.8578 6.94226 15.4453 7.27976C14.8828 7.74851 14.2734 7.96882 13.5515 7.96882C12.8671 7.96882 12.225 7.72507 11.6953 7.26101C11.4656 7.05945 11.4046 7.03132 11.2359 7.03601C11.1281 7.03601 10.8937 7.10163 10.7109 7.18132ZM11.9812 8.53132C13.1578 9.09382 14.7609 8.93914 15.7968 8.16101L16.05 7.97351L16.3687 8.14226C17.4421 8.72351 18.4359 9.8532 18.9328 11.0532C19.1812 11.6532 19.2796 12.1501 19.2796 12.7501C19.275 13.0454 19.2562 13.3454 19.2328 13.4157C19.2046 13.5141 19.0031 13.6735 18.4359 14.0532L17.6765 14.5641L17.6625 12.4876L17.6484 10.4157L17.5359 10.2938C17.3859 10.1344 17.0859 10.1251 16.9031 10.2704L16.7812 10.3641V12.7735V15.1829L16.3593 15.4688C15.8015 15.8438 15.8156 15.8391 15.7781 15.6048C15.6937 15.0844 15.1218 14.3344 14.6203 14.0954C14.339 13.9594 12.0234 13.2282 11.0953 12.9798L10.5046 12.8204L10.4906 11.6157C10.4765 10.4157 10.4765 10.4157 10.364 10.2938C10.214 10.1391 9.91402 10.1251 9.73121 10.2704L9.60933 10.3641V11.5032V12.6423L9.38902 12.6048C9.26246 12.586 8.89683 12.5673 8.56871 12.5673L7.96871 12.5626V12.3563C7.96871 12.2438 8.00152 11.9813 8.03902 11.7751C8.33902 10.2048 9.32339 8.89226 10.7531 8.16101L11.1187 7.97351L11.4 8.18445C11.5546 8.29695 11.8171 8.45632 11.9812 8.53132ZM22.6406 13.2094C22.7812 13.2798 22.9359 13.3969 22.9875 13.4673C23.1234 13.6548 23.1421 14.1798 23.0296 14.5548L22.9406 14.836L18.8906 17.5454C16.514 19.1298 14.7375 20.2876 14.5875 20.3438C14.4515 20.3954 14.2734 20.4376 14.1984 20.4376C14.1187 20.4376 12.6937 20.0766 11.0343 19.6407C9.37496 19.2001 7.93589 18.8438 7.83746 18.8438C7.72027 18.8438 7.56558 18.9001 7.34996 19.0266L7.03589 19.2094L5.88746 17.3063L4.73902 15.4079L6.33277 14.4469C8.13746 13.3688 8.09527 13.3829 8.92496 13.4579C9.80152 13.5423 11.0859 13.8657 13.0687 14.5079C14.1562 14.8594 14.3015 14.9251 14.5359 15.1735C14.9765 15.6329 15.0468 16.1626 14.7234 16.5516L14.6015 16.6969L12.3984 16.3641C11.1843 16.1813 10.1062 16.0313 9.99839 16.0313C9.74527 16.0313 9.60933 16.186 9.60933 16.4766C9.60933 16.8516 9.53902 16.8282 12.1406 17.2266C13.4156 17.4188 14.55 17.5782 14.6578 17.5782C14.8781 17.5782 14.5359 17.7985 18.9843 14.7704L21.539 13.0266L21.9609 13.0548C22.2937 13.0735 22.4343 13.1063 22.6406 13.2094ZM5.03902 17.6485C6.01402 19.2704 6.83902 20.6438 6.87652 20.7001C6.93277 20.7938 6.89058 20.8266 5.87808 21.4407C5.00152 21.9751 4.80465 22.0782 4.75777 22.0219C4.67808 21.9376 1.07808 15.9891 1.07808 15.9469C1.08277 15.8954 3.20621 14.6344 3.23902 14.6673C3.25308 14.6813 4.06402 16.0219 5.03902 17.6485Z" fill="#455A64"/>
<path d="M4.78127 19.7907C4.26564 20.0532 4.20939 20.8594 4.68283 21.1735C4.87033 21.3001 5.27346 21.3188 5.47502 21.2157C5.72346 21.0844 5.87346 20.8829 5.89689 20.6297C5.90627 20.5032 5.90627 20.3438 5.88752 20.2782C5.82189 20.0063 5.40471 19.6922 5.10939 19.6876C5.04377 19.6876 4.89377 19.7344 4.78127 19.7907Z" fill="#455A64"/>
</g>
<defs>
<clipPath id="clip0_2_6526">
<rect width="24" height="24" fill="white"/>
</clipPath>
</defs>
</svg>
