<svg width="24" height="24" viewBox="0 0 24 24" fill="none" xmlns="http://www.w3.org/2000/svg">
<g clip-path="url(#clip0_2_6547)">
<path d="M0.815625 0.112499C0.510938 0.253124 0.253125 0.510937 0.1125 0.815624L0 1.05469V12V22.9453L0.1125 23.1844C0.253125 23.4891 0.510938 23.7469 0.815625 23.8875L1.05469 24H5.81719H10.5797L10.7063 23.8781C10.8797 23.7 10.8797 23.3625 10.7063 23.1891L10.5844 23.0625L5.93438 23.0531C0.9 23.0391 1.1625 23.0531 1.02188 22.7859C0.932813 22.6172 0.932813 1.38281 1.02188 1.21406C1.16719 0.946875 0.759375 0.960938 7.53281 0.946875L13.7719 0.9375L13.7906 2.47031L13.8047 4.00781L13.9266 4.27031C14.0813 4.59844 14.3344 4.85156 14.6438 4.99687C14.8781 5.10938 14.9016 5.10938 16.4203 5.10938H17.9531V9.22031C17.9531 11.4844 17.9672 13.4156 17.9813 13.5094C18.0281 13.7766 18.1969 13.9219 18.4641 13.9219C18.6469 13.9219 18.7078 13.8984 18.8109 13.7906L18.9375 13.6594V9.02344V4.3875L16.7438 2.19375L14.5547 0H7.80469H1.05469L0.815625 0.112499ZM16.35 4.1625C15.2719 4.18125 15.0938 4.15781 14.9391 4.00312C14.7797 3.84375 14.7656 3.73125 14.7656 2.62969V1.66406L16.0078 2.90625L17.25 4.14844L16.35 4.1625Z" fill="#455A64"/>
<path d="M8.60146 3.53417C6.97021 3.91854 5.75146 5.14198 5.41396 6.72636C5.3249 7.14354 5.3249 8.03886 5.41396 8.45604C5.75615 10.0639 7.0124 11.3201 8.62021 11.6529C9.07959 11.7467 9.8624 11.7467 10.3218 11.6482C11.9155 11.3201 13.1858 10.0545 13.5233 8.46073C13.6124 8.02948 13.6124 7.16698 13.5233 6.72636C13.228 5.30136 12.1499 4.11073 10.7343 3.65136C10.3312 3.52011 10.2187 3.50136 9.58584 3.48729C9.09365 3.47323 8.79834 3.48729 8.60146 3.53417ZM10.1952 4.52323C11.128 4.76698 11.864 5.36229 12.2812 6.21073C12.5296 6.70761 12.6093 7.05448 12.6093 7.59354C12.6046 8.10917 12.5624 8.33886 12.389 8.76542C11.5921 10.7201 9.20615 11.367 7.5374 10.0779C7.04521 9.69823 6.66553 9.15448 6.44521 8.50761C6.3374 8.20292 6.2999 7.35448 6.37021 6.97948C6.5999 5.81229 7.56084 4.81386 8.74209 4.51854C9.07959 4.43417 9.8624 4.43886 10.1952 4.52323Z" fill="#455A64"/>
<path d="M9.225 5.46558C9.15469 5.50308 9.075 5.57339 9.04688 5.62496C9.02344 5.67183 9 6.02808 9 6.41714V7.12496H8.29219C7.89844 7.12496 7.54688 7.14839 7.49531 7.17183C7.3875 7.23277 7.26562 7.45777 7.26562 7.60308C7.26562 7.79527 7.43438 8.00621 7.62656 8.05777C7.725 8.08589 8.07188 8.10933 8.40469 8.10933H9V8.80777C9 9.43589 9.00938 9.51558 9.09375 9.62339C9.21563 9.77339 9.46406 9.82964 9.66094 9.74996C9.91406 9.64214 9.9375 9.56246 9.9375 8.80308V8.10933H10.5375C10.8656 8.10933 11.2125 8.08589 11.3109 8.05777C11.5031 8.00621 11.6719 7.79527 11.6719 7.60308C11.6719 7.45777 11.55 7.23277 11.4422 7.17183C11.3906 7.14839 11.0391 7.12496 10.6453 7.12496H9.9375V6.41714C9.9375 6.02339 9.91406 5.67183 9.89062 5.62027C9.82969 5.51246 9.60469 5.39058 9.45938 5.39058C9.39844 5.39527 9.29531 5.42339 9.225 5.46558Z" fill="#455A64"/>
<path d="M3.12178 13.2469C2.94834 13.425 2.94834 13.7625 3.12178 13.9406L3.24834 14.0625H4.22803C5.20303 14.0625 5.20771 14.0625 5.32021 13.95C5.53115 13.7391 5.53115 13.4484 5.32021 13.2375C5.20771 13.125 5.20303 13.125 4.22803 13.125H3.24834L3.12178 13.2469Z" fill="#455A64"/>
<path d="M6.97969 13.2609C6.87188 13.3687 6.84375 13.4391 6.84375 13.5937C6.84375 13.7484 6.87188 13.8187 6.97969 13.9266L7.11563 14.0625H11.4047H15.6891L15.8156 13.9406C15.9891 13.7625 15.9891 13.425 15.8156 13.2469L15.6891 13.125H11.4047H7.11563L6.97969 13.2609Z" fill="#455A64"/>
<path d="M17.4375 14.4891C17.0859 14.5406 16.6969 14.6906 16.3359 14.9109C16.1672 15.0094 15.3469 15.8062 13.9313 17.2219C11.9953 19.1672 11.7656 19.4156 11.6109 19.7156C11.5172 19.8984 11.4047 20.1844 11.3625 20.3484C11.2594 20.7422 11.2594 21.4453 11.3625 21.8391C11.625 22.8469 12.4688 23.6766 13.4953 23.9344C13.9266 24.0422 14.7281 24.0094 15.1406 23.8641C15.7078 23.6672 15.9563 23.4703 17.0906 22.35L18.1734 21.2766L18.2016 21.5203C18.2953 22.3078 18.7875 23.0766 19.4859 23.5359C19.9828 23.8594 20.3063 23.9578 20.9531 23.9859C21.8813 24.0281 22.5328 23.7797 23.1562 23.1562C23.7375 22.575 24 21.9328 24 21.0937C24 20.2547 23.7375 19.6125 23.1562 19.0312C22.5844 18.4594 21.9328 18.1875 21.1313 18.1875H20.7188L20.7516 18.0562C20.775 17.9859 20.7891 17.6672 20.7891 17.3437C20.7891 16.9031 20.7656 16.6969 20.7 16.5C20.3859 15.5672 19.5891 14.7937 18.6938 14.5594C18.3375 14.4656 17.7938 14.4375 17.4375 14.4891ZM18.4969 15.5391C18.975 15.6797 19.4297 16.1016 19.6734 16.6219C19.7906 16.8703 19.8047 16.95 19.8047 17.3906C19.8047 17.8453 19.7953 17.9062 19.6547 18.2016C19.5281 18.4687 19.3734 18.6469 18.6469 19.3828L17.7891 20.2547L16.4156 18.8812L15.0422 17.5031L15.9234 16.6359C16.8703 15.7078 17.0859 15.5578 17.5781 15.4734C17.8641 15.4266 18.2016 15.45 18.4969 15.5391ZM16.1953 21.8344C15.4594 22.5609 15.2813 22.7156 15.0141 22.8422C14.7188 22.9828 14.6578 22.9922 14.2031 22.9922C13.7484 22.9922 13.6875 22.9828 13.3922 22.8422C12.6047 22.4672 12.1547 21.6375 12.2859 20.8031C12.3703 20.2687 12.5063 20.0719 13.4484 19.1109L14.3156 18.2297L15.6938 19.6031L17.0672 20.9766L16.1953 21.8344ZM20.625 21.0984V22.9734L20.5219 22.9406C20.0297 22.7906 19.6078 22.425 19.3734 21.9469C19.2 21.6047 19.1953 21.5719 19.1953 21.0937C19.1953 20.6156 19.2 20.5828 19.3734 20.2406C19.5797 19.8234 19.8516 19.5562 20.2734 19.3547C20.4281 19.2797 20.5688 19.2187 20.5922 19.2187C20.6109 19.2187 20.625 20.0625 20.625 21.0984ZM21.9844 19.3828C22.35 19.5656 22.6219 19.8469 22.8141 20.2406C22.9875 20.5828 22.9922 20.6156 22.9922 21.0937C22.9922 21.5719 22.9875 21.6047 22.8141 21.9469C22.5797 22.425 22.1578 22.7906 21.6703 22.9406L21.5625 22.9734V21.0937V19.2141L21.6703 19.2469C21.7266 19.2609 21.8672 19.3266 21.9844 19.3828Z" fill="#455A64"/>
<path d="M3.12178 15.8719C2.94834 16.05 2.94834 16.3875 3.12178 16.5656L3.24834 16.6875H4.22803C5.20303 16.6875 5.20771 16.6875 5.32021 16.575C5.53115 16.3641 5.53115 16.0734 5.32021 15.8625C5.20771 15.75 5.20303 15.75 4.22803 15.75H3.24834L3.12178 15.8719Z" fill="#455A64"/>
<path d="M6.97969 15.8859C6.87188 15.9937 6.84375 16.0641 6.84375 16.2187C6.84375 16.3734 6.87188 16.4437 6.97969 16.5516L7.11563 16.6875H9.67031H12.2203L12.3469 16.5656C12.5203 16.3875 12.5203 16.05 12.3469 15.8719L12.2203 15.75H9.67031H7.11563L6.97969 15.8859Z" fill="#455A64"/>
<path d="M3.12178 18.4969C2.94834 18.675 2.94834 19.0125 3.12178 19.1906L3.24834 19.3125H4.22803C5.20303 19.3125 5.20771 19.3125 5.32021 19.2C5.53115 18.9891 5.53115 18.6984 5.32021 18.4875C5.20771 18.375 5.20303 18.375 4.22803 18.375H3.24834L3.12178 18.4969Z" fill="#455A64"/>
<path d="M6.97979 18.5109C6.67979 18.8109 6.88604 19.3125 7.3126 19.3125C7.55635 19.3125 7.71573 19.2094 7.78135 19.0031C7.89385 18.6656 7.67823 18.375 7.3126 18.375C7.15792 18.375 7.0876 18.4031 6.97979 18.5109Z" fill="#455A64"/>
</g>
<defs>
<clipPath id="clip0_2_6547">
<rect width="24" height="24" fill="white"/>
</clipPath>
</defs>
</svg>
