<svg width="48" height="48" viewBox="0 0 48 48" fill="none" xmlns="http://www.w3.org/2000/svg">
<g clip-path="url(#clip0_33_2620)">
<path d="M1.63125 0.224998C1.02188 0.506248 0.50625 1.02187 0.225 1.63125L0 2.10937V24V45.8906L0.225 46.3687C0.50625 46.9781 1.02188 47.4937 1.63125 47.775L2.10938 48H11.6344H21.1594L21.4125 47.7562C21.7594 47.4 21.7594 46.725 21.4125 46.3781L21.1688 46.125L11.8688 46.1062C1.8 46.0781 2.325 46.1062 2.04375 45.5719C1.86563 45.2344 1.86563 2.76562 2.04375 2.42812C2.33438 1.89375 1.51875 1.92187 15.0656 1.89375L27.5438 1.875L27.5813 4.94062L27.6094 8.01562L27.8531 8.54062C28.1625 9.19687 28.6688 9.70312 29.2875 9.99375C29.7563 10.2187 29.8031 10.2187 32.8406 10.2187H35.9063V18.4406C35.9063 22.9687 35.9344 26.8312 35.9625 27.0187C36.0563 27.5531 36.3938 27.8437 36.9281 27.8437C37.2938 27.8437 37.4156 27.7969 37.6219 27.5812L37.875 27.3187V18.0469V8.775L33.4875 4.3875L29.1094 -1.90735e-06H15.6094H2.10938L1.63125 0.224998ZM32.7 8.325C30.5438 8.3625 30.1875 8.31562 29.8781 8.00625C29.5594 7.6875 29.5313 7.4625 29.5313 5.25937V3.32812L32.0156 5.8125L34.5 8.29687L32.7 8.325Z" fill="#095FBA"/>
<path d="M17.2032 7.06883C13.9407 7.83758 11.5032 10.2845 10.8282 13.4532C10.65 14.2876 10.65 16.0782 10.8282 16.9126C11.5125 20.1282 14.025 22.6407 17.2407 23.3063C18.1594 23.4938 19.725 23.4938 20.6438 23.297C23.8313 22.6407 26.3719 20.1095 27.0469 16.922C27.225 16.0595 27.225 14.3345 27.0469 13.4532C26.4563 10.6032 24.3 8.22195 21.4688 7.3032C20.6625 7.0407 20.4375 7.0032 19.1719 6.97508C18.1875 6.94695 17.5969 6.97508 17.2032 7.06883ZM20.3907 9.04695C22.2563 9.53445 23.7282 10.7251 24.5625 12.422C25.0594 13.4157 25.2188 14.1095 25.2188 15.1876C25.2094 16.2188 25.125 16.6782 24.7782 17.5313C23.1844 21.4407 18.4125 22.7345 15.075 20.1563C14.0907 19.397 13.3313 18.3095 12.8907 17.0157C12.675 16.4063 12.6 14.7095 12.7407 13.9595C13.2 11.6251 15.1219 9.6282 17.4844 9.03758C18.1594 8.86883 19.725 8.8782 20.3907 9.04695Z" fill="#095FBA"/>
<path d="M18.45 10.9312C18.3094 11.0062 18.15 11.1468 18.0938 11.2499C18.0469 11.3437 18 12.0562 18 12.8343V14.2499H16.5844C15.7969 14.2499 15.0938 14.2968 14.9906 14.3437C14.775 14.4655 14.5312 14.9155 14.5312 15.2062C14.5312 15.5905 14.8688 16.0124 15.2531 16.1155C15.45 16.1718 16.1438 16.2187 16.8094 16.2187H18V17.6155C18 18.8718 18.0188 19.0312 18.1875 19.2468C18.4313 19.5468 18.9281 19.6593 19.3219 19.4999C19.8281 19.2843 19.875 19.1249 19.875 17.6062V16.2187H21.075C21.7313 16.2187 22.425 16.1718 22.6219 16.1155C23.0063 16.0124 23.3438 15.5905 23.3438 15.2062C23.3438 14.9155 23.1 14.4655 22.8844 14.3437C22.7813 14.2968 22.0781 14.2499 21.2906 14.2499H19.875V12.8343C19.875 12.0468 19.8281 11.3437 19.7813 11.2405C19.6594 11.0249 19.2094 10.7812 18.9188 10.7812C18.7969 10.7905 18.5906 10.8468 18.45 10.9312Z" fill="#095FBA"/>
<path d="M6.2438 26.4937C5.89692 26.85 5.89692 27.525 6.2438 27.8812L6.49692 28.125H8.4563C10.4063 28.125 10.4157 28.125 10.6407 27.9C11.0625 27.4781 11.0625 26.8969 10.6407 26.475C10.4157 26.25 10.4063 26.25 8.4563 26.25H6.49692L6.2438 26.4937Z" fill="#095FBA"/>
<path d="M13.9594 26.5219C13.7438 26.7375 13.6875 26.8781 13.6875 27.1875C13.6875 27.4969 13.7438 27.6375 13.9594 27.8531L14.2313 28.125H22.8094H31.3781L31.6313 27.8812C31.9781 27.525 31.9781 26.85 31.6313 26.4937L31.3781 26.25H22.8094H14.2313L13.9594 26.5219Z" fill="#095FBA"/>
<path d="M34.875 28.9781C34.1719 29.0812 33.3938 29.3812 32.6719 29.8219C32.3344 30.0187 30.6938 31.6125 27.8625 34.4437C23.9906 38.3344 23.5313 38.8312 23.2219 39.4312C23.0344 39.7969 22.8094 40.3687 22.725 40.6969C22.5187 41.4844 22.5187 42.8906 22.725 43.6781C23.25 45.6937 24.9375 47.3531 26.9906 47.8687C27.8531 48.0844 29.4563 48.0187 30.2813 47.7281C31.4156 47.3344 31.9125 46.9406 34.1813 44.7L36.3469 42.5531L36.4031 43.0406C36.5906 44.6156 37.575 46.1531 38.9719 47.0719C39.9656 47.7187 40.6125 47.9156 41.9063 47.9719C43.7625 48.0562 45.0656 47.5594 46.3125 46.3125C47.475 45.15 48 43.8656 48 42.1875C48 40.5094 47.475 39.225 46.3125 38.0625C45.1688 36.9187 43.8656 36.375 42.2625 36.375H41.4375L41.5031 36.1125C41.55 35.9719 41.5781 35.3344 41.5781 34.6875C41.5781 33.8062 41.5313 33.3937 41.4 33C40.7719 31.1344 39.1781 29.5875 37.3875 29.1187C36.675 28.9312 35.5875 28.875 34.875 28.9781ZM36.9938 31.0781C37.95 31.3594 38.8594 32.2031 39.3469 33.2437C39.5813 33.7406 39.6094 33.9 39.6094 34.7812C39.6094 35.6906 39.5906 35.8125 39.3094 36.4031C39.0563 36.9375 38.7469 37.2937 37.2938 38.7656L35.5781 40.5094L32.8313 37.7625L30.0844 35.0062L31.8469 33.2719C33.7406 31.4156 34.1719 31.1156 35.1563 30.9469C35.7281 30.8531 36.4031 30.9 36.9938 31.0781ZM32.3906 43.6687C30.9188 45.1219 30.5625 45.4312 30.0281 45.6844C29.4375 45.9656 29.3156 45.9844 28.4063 45.9844C27.4969 45.9844 27.375 45.9656 26.7844 45.6844C25.2094 44.9344 24.3094 43.275 24.5719 41.6062C24.7406 40.5375 25.0125 40.1437 26.8969 38.2219L28.6313 36.4594L31.3875 39.2062L34.1344 41.9531L32.3906 43.6687ZM41.25 42.1969V45.9469L41.0438 45.8812C40.0594 45.5812 39.2156 44.85 38.7469 43.8937C38.4 43.2094 38.3906 43.1437 38.3906 42.1875C38.3906 41.2312 38.4 41.1656 38.7469 40.4812C39.1594 39.6469 39.7031 39.1125 40.5469 38.7094C40.8563 38.5594 41.1375 38.4375 41.1844 38.4375C41.2219 38.4375 41.25 40.125 41.25 42.1969ZM43.9688 38.7656C44.7 39.1312 45.2438 39.6937 45.6281 40.4812C45.975 41.1656 45.9844 41.2312 45.9844 42.1875C45.9844 43.1437 45.975 43.2094 45.6281 43.8937C45.1594 44.85 44.3156 45.5812 43.3406 45.8812L43.125 45.9469V42.1875V38.4281L43.3406 38.4937C43.4531 38.5219 43.7344 38.6531 43.9688 38.7656Z" fill="#095FBA"/>
<path d="M6.2438 31.7437C5.89692 32.1 5.89692 32.775 6.2438 33.1312L6.49692 33.375H8.4563C10.4063 33.375 10.4157 33.375 10.6407 33.15C11.0625 32.7281 11.0625 32.1469 10.6407 31.725C10.4157 31.5 10.4063 31.5 8.4563 31.5H6.49692L6.2438 31.7437Z" fill="#095FBA"/>
<path d="M13.9594 31.7719C13.7438 31.9875 13.6875 32.1281 13.6875 32.4375C13.6875 32.7469 13.7438 32.8875 13.9594 33.1031L14.2313 33.375H19.3406H24.4406L24.6938 33.1312C25.0406 32.775 25.0406 32.1 24.6938 31.7437L24.4406 31.5H19.3406H14.2313L13.9594 31.7719Z" fill="#095FBA"/>
<path d="M6.2438 36.9937C5.89692 37.35 5.89692 38.025 6.2438 38.3812L6.49692 38.625H8.4563C10.4063 38.625 10.4157 38.625 10.6407 38.4C11.0625 37.9781 11.0625 37.3969 10.6407 36.975C10.4157 36.75 10.4063 36.75 8.4563 36.75H6.49692L6.2438 36.9937Z" fill="#095FBA"/>
<path d="M13.9593 37.0219C13.3593 37.6219 13.7718 38.625 14.625 38.625C15.1125 38.625 15.4312 38.4187 15.5625 38.0062C15.7875 37.3312 15.3562 36.75 14.625 36.75C14.3156 36.75 14.175 36.8062 13.9593 37.0219Z" fill="#095FBA"/>
</g>
<defs>
<clipPath id="clip0_33_2620">
<rect width="48" height="48" fill="white"/>
</clipPath>
</defs>
</svg>
