<svg width="36" height="36" viewBox="0 0 36 36" fill="none" xmlns="http://www.w3.org/2000/svg">
<g clip-path="url(#clip0_225_3021)">
<path d="M16.8752 0.133595C15.5604 0.55547 14.5689 1.56797 14.1752 2.87578C14.0275 3.38203 14.0275 4.49297 14.1752 4.99922C14.576 6.35625 15.6307 7.39688 17.0018 7.77656L17.4377 7.89609V8.57813C17.4377 9.37266 17.5432 9.5625 17.9721 9.5625C18.4854 9.5625 18.633 9.30234 18.633 8.38828V7.88203L19.0408 7.76953C20.0744 7.46719 21.0096 6.72891 21.4666 5.85C21.8252 5.16094 21.9377 4.71094 21.9377 3.9375C21.9377 3.16406 21.8252 2.71406 21.4666 2.025C21.0096 1.15313 20.0814 0.414845 19.0619 0.112501C18.5346 -0.0421866 17.3885 -0.0351554 16.8752 0.133595ZM19.1674 1.44141C19.7018 1.70156 20.2361 2.24297 20.5033 2.77734C20.6861 3.16406 20.7072 3.2625 20.7072 3.9375C20.7072 4.6125 20.6861 4.71094 20.5033 5.09766C20.2361 5.63906 19.7018 6.17344 19.1604 6.44063C18.7736 6.62344 18.6752 6.64453 18.0002 6.64453C17.3393 6.64453 17.2197 6.62344 16.8752 6.45469C15.8416 5.94844 15.258 5.03438 15.258 3.9375C15.258 2.74219 15.9893 1.72266 17.1143 1.32188C17.6838 1.125 18.626 1.17422 19.1674 1.44141Z" fill="#095FBA"/>
<path d="M17.5781 1.82813C17.4516 1.95469 17.4375 2.06016 17.4375 3.09375C17.4375 4.12734 17.4516 4.23281 17.5781 4.35938C17.6695 4.45078 17.8102 4.5 18 4.5C18.1898 4.5 18.3305 4.45078 18.4219 4.35938C18.5484 4.23281 18.5625 4.12734 18.5625 3.09375C18.5625 2.06016 18.5484 1.95469 18.4219 1.82813C18.3305 1.73672 18.1898 1.6875 18 1.6875C17.8102 1.6875 17.6695 1.73672 17.5781 1.82813Z" fill="#095FBA"/>
<path d="M17.592 5.22422C17.2475 5.58984 17.5006 6.1875 17.9928 6.1875C18.3022 6.1875 18.4569 6.09609 18.5623 5.83594C18.6678 5.58984 18.5623 5.24531 18.3444 5.13281C18.1123 5.00625 17.7537 5.04844 17.592 5.22422Z" fill="#095FBA"/>
<path d="M7.17193 4.19045C6.43365 4.34513 5.86412 4.66857 5.26646 5.26623C4.65474 5.87795 4.34537 6.44045 4.16959 7.2631C3.96568 8.21935 4.17662 9.35842 4.69693 10.167C5.84302 11.9178 7.94537 12.5014 9.82974 11.5944L10.4204 11.3131L10.8563 11.735C11.1024 11.967 11.3836 12.1779 11.4891 12.2061C11.911 12.3115 12.3118 11.9108 12.2063 11.4889C12.1782 11.3834 11.9672 11.1022 11.7282 10.8561L11.2993 10.4061L11.5524 9.92795C13.1344 6.91154 10.5047 3.46623 7.17193 4.19045ZM8.59224 5.3506C10.118 5.67404 11.1094 7.22795 10.7297 8.70451C10.3008 10.392 8.47271 11.2779 6.91881 10.5537C5.16802 9.73107 4.76021 7.48107 6.11724 6.11701C6.79927 5.44201 7.69927 5.16076 8.59224 5.3506Z" fill="#095FBA"/>
<path d="M7.7625 5.85017C7.50937 5.96971 7.45312 6.2158 7.45312 7.21424C7.45312 8.17049 7.49531 8.38142 7.72734 8.55721C7.91719 8.70486 8.28281 8.66267 8.47266 8.47283C8.64141 8.31111 8.64844 8.27596 8.64844 7.2283C8.64141 6.1033 8.62031 6.00486 8.31797 5.85017C8.13516 5.75174 7.96641 5.75174 7.7625 5.85017Z" fill="#095FBA"/>
<path d="M7.69937 9.30234C7.28452 9.65391 7.54468 10.3359 8.09312 10.3359C8.38843 10.3359 8.64859 10.0617 8.64859 9.75234C8.64859 9.43594 8.46577 9.21797 8.14937 9.16875C7.95249 9.13359 7.86109 9.16172 7.69937 9.30234Z" fill="#095FBA"/>
<path d="M27.0916 4.18341C25.0244 4.63341 23.6814 6.65138 24.04 8.76076C24.0892 9.03498 24.2439 9.49904 24.4056 9.82951L24.6869 10.4201L24.265 10.8561C24.033 11.1022 23.8221 11.3834 23.7939 11.4889C23.6885 11.9108 24.0892 12.3115 24.5111 12.2061C24.6166 12.1779 24.8978 11.967 25.1439 11.735L25.5799 11.3131L26.1705 11.5944C26.9017 11.9459 27.4642 12.0584 28.2236 12.0022C31.0431 11.8053 32.7377 8.82404 31.4861 6.25763C31.1838 5.63888 30.3611 4.81623 29.7424 4.51388C28.9127 4.10607 27.9775 3.99357 27.0916 4.18341ZM28.9408 5.49123C30.1853 5.95529 30.9517 7.38263 30.6283 8.6342C30.4736 9.23888 30.2767 9.59748 29.876 9.99826C28.3642 11.51 25.8049 10.7928 25.2705 8.70451C24.8908 7.22091 25.8963 5.66701 27.4361 5.34357C27.8439 5.2592 28.4838 5.32248 28.9408 5.49123Z" fill="#095FBA"/>
<path d="M27.6609 5.8498C27.4008 5.96933 27.3516 6.20839 27.3516 7.27011C27.3516 8.26152 27.3516 8.28261 27.5344 8.46542C27.8367 8.76073 28.2656 8.69745 28.4625 8.31777C28.575 8.12089 28.575 6.32792 28.4695 6.09589C28.3359 5.80761 27.9703 5.69511 27.6609 5.8498Z" fill="#095FBA"/>
<path d="M27.6116 9.28121C27.1616 9.6398 27.3936 10.3289 27.9702 10.3359C28.5819 10.3429 28.7647 9.51324 28.2163 9.22496C27.9983 9.10542 27.8155 9.11949 27.6116 9.28121Z" fill="#095FBA"/>
<path d="M15.6375 11.3555C14.5758 11.5875 13.7602 12.0445 12.8953 12.9023C12.1852 13.6055 11.7984 14.2242 11.482 15.1523L11.2852 15.7148L11.2641 19.1531C11.25 21.4031 11.2711 22.7602 11.3203 23.0906C11.5875 24.8344 12.7617 26.6414 14.2242 27.5625L14.618 27.8086L14.625 28.2445V28.6875H13.4437C12.5648 28.6875 12.1641 28.7156 11.8758 28.8C10.5539 29.1867 9.50625 30.2344 9.1125 31.5633C8.95078 32.1047 8.95078 34.6148 9.1125 35.0016C9.25312 35.3461 9.60469 35.7047 9.94922 35.8664C10.2164 35.993 10.582 36 18 36C25.418 36 25.7836 35.993 26.0508 35.8664C26.3953 35.7047 26.7469 35.3461 26.8875 35.0016C27.0492 34.6219 27.0492 32.1117 26.8875 31.5633C26.5852 30.5437 25.8469 29.6156 24.975 29.1586C24.1875 28.7508 23.8781 28.6875 22.5562 28.6875H21.375V28.2445L21.382 27.8086L21.7758 27.5695C22.9781 26.8453 24.075 25.3336 24.5531 23.7516C24.7008 23.2594 24.7078 23.1117 24.7359 19.7719C24.757 16.657 24.743 16.2703 24.6375 15.9398C24.2508 14.7445 23.4352 13.943 22.275 13.5984L21.9375 13.493V12.5156C21.9375 11.6227 21.9234 11.5172 21.7969 11.3906C21.6633 11.257 21.5648 11.25 18.8648 11.257C16.8117 11.257 15.9539 11.2852 15.6375 11.3555ZM20.8125 13.3664C20.8125 13.8727 20.8477 14.3437 20.8828 14.4141C20.9531 14.5477 21.3469 14.6953 21.6352 14.6953C21.9797 14.6953 22.5773 14.9906 22.9219 15.3281C23.4141 15.8273 23.5617 16.2633 23.6039 17.3672L23.6461 18.2461L23.2172 17.8383C22.6828 17.3391 22.6055 17.332 21.5437 17.7609C20.2781 18.2672 19.5469 18.4289 18.3164 18.4711C16.8609 18.5203 15.7359 18.3023 14.2594 17.6836C13.4508 17.3391 13.2961 17.3531 12.825 17.7961L12.4453 18.1617V17.1914C12.4453 16.1156 12.5367 15.6445 12.8812 14.9414C13.3172 14.0414 14.0484 13.3102 14.9555 12.8742C15.743 12.4875 15.9891 12.4594 18.5133 12.4523L20.8125 12.4453V13.3664ZM14.2102 18.9562C15.525 19.4906 16.3969 19.6523 18 19.6523C19.6242 19.6523 20.2289 19.5398 21.7828 18.9633L22.3664 18.7453L22.9992 19.3781L23.6391 20.0039L23.6039 21.3047C23.5617 22.8445 23.4492 23.4 23.0344 24.293C22.3102 25.8258 20.8336 27.0211 19.2164 27.3797C18.5695 27.5273 17.4305 27.5273 16.7836 27.3797C15.1945 27.0281 13.7039 25.8398 13.0008 24.3633C12.5367 23.4 12.4453 22.8937 12.4453 21.3117V19.9336L13.0219 19.357C13.3453 19.0336 13.6406 18.7734 13.6828 18.7734C13.725 18.7734 13.957 18.8578 14.2102 18.9562ZM19.8844 29.2992L19.5117 29.6719L18.8789 29.4609C18.0984 29.2008 17.9016 29.2008 17.1211 29.4609L16.4953 29.6719L16.1578 29.3414C15.8555 29.0461 15.8203 28.9758 15.8203 28.7086C15.8203 28.5398 15.8414 28.4062 15.8625 28.4062C15.8836 28.4062 16.1016 28.4625 16.3406 28.5258C16.9805 28.7086 19.118 28.6945 19.7578 28.5047L20.2148 28.3711L20.2359 28.6453C20.257 28.8984 20.2289 28.9547 19.8844 29.2992ZM15.4406 30.375C16.1297 31.05 16.193 31.0641 17.2828 30.6984L18 30.4523L18.7172 30.6984C19.807 31.0641 19.8703 31.05 20.5594 30.375L21.1359 29.8125H22.0148C23.6531 29.8195 24.3281 30.0164 25.0031 30.6844C25.65 31.3383 25.868 32.0484 25.875 33.5109C25.875 33.9047 25.8398 34.3266 25.7977 34.4531C25.643 34.8961 25.9805 34.875 18.0141 34.875C12.9094 34.875 10.7156 34.8539 10.5539 34.7977C10.4344 34.7555 10.3008 34.6641 10.2656 34.5937C10.1461 34.3758 10.1742 32.2172 10.3008 31.8234C10.6383 30.7406 11.5594 30.0094 12.7617 29.8617C12.8812 29.8477 13.3945 29.8266 13.9148 29.8195L14.8641 29.8125L15.4406 30.375Z" fill="#095FBA"/>
<path d="M17.592 32.2242C17.2475 32.5898 17.5006 33.1875 17.9928 33.1875C18.3022 33.1875 18.4569 33.0961 18.5623 32.8359C18.6678 32.5898 18.5623 32.2453 18.3444 32.1328C18.1123 32.0062 17.7537 32.0484 17.592 32.2242Z" fill="#095FBA"/>
<path d="M3.37497 14.1961C2.03903 14.618 1.00544 15.6938 0.667937 16.9945C0.527312 17.5289 0.534343 18.5766 0.674968 19.0617C1.06872 20.3906 2.11637 21.4383 3.43825 21.825C3.67731 21.8953 4.08513 21.9375 4.49997 21.9375C4.91481 21.9375 5.32263 21.8953 5.56169 21.825C6.91872 21.4242 7.95934 20.3695 8.33903 18.9984L8.45856 18.5625H9.15466C9.97028 18.5625 10.125 18.4711 10.125 18C10.125 17.5289 9.97028 17.4375 9.16169 17.4375H8.47263L8.27575 16.8188C7.882 15.5672 7.03122 14.6883 5.80778 14.2594C5.32263 14.0906 5.13278 14.0625 4.49997 14.0695C3.99372 14.0695 3.64216 14.1117 3.37497 14.1961ZM5.66716 15.5039C6.20153 15.7641 6.73591 16.3055 7.00309 16.8398C7.18591 17.2266 7.207 17.325 7.207 18C7.207 18.675 7.18591 18.7734 7.00309 19.1602C6.73591 19.6945 6.20153 20.2359 5.66716 20.4961C5.17497 20.7352 4.35231 20.8125 3.81091 20.6719C2.5945 20.3484 1.75778 19.2656 1.75778 18C1.75778 16.8117 2.48903 15.7852 3.62106 15.3844C3.88122 15.293 4.14138 15.2648 4.61247 15.2789C5.14684 15.293 5.31559 15.3281 5.66716 15.5039Z" fill="#095FBA"/>
<path d="M4.07812 15.9048C3.95156 16.0455 3.9375 16.1509 3.9375 17.1564C3.9375 18.1619 3.95156 18.2673 4.07812 18.408C4.23984 18.5767 4.61953 18.6189 4.85156 18.4923C5.04844 18.3869 5.13281 17.9861 5.13281 17.1564C5.13281 16.3267 5.04844 15.9259 4.85156 15.8205C4.61953 15.6939 4.23984 15.7361 4.07812 15.9048Z" fill="#095FBA"/>
<path d="M4.09201 19.2867C3.74748 19.6523 4.0006 20.25 4.49279 20.25C4.80216 20.25 4.95685 20.1586 5.06232 19.8984C5.16779 19.6523 5.06232 19.3078 4.84435 19.1953C4.61232 19.0687 4.25373 19.1109 4.09201 19.2867Z" fill="#095FBA"/>
<path d="M30.4525 14.175C29.1307 14.5266 28.0408 15.6375 27.6611 17.0086L27.5416 17.4375H26.8455C26.2478 17.4375 26.1353 17.4586 26.0158 17.5781C25.8541 17.7398 25.826 18.1828 25.9666 18.3797C26.0721 18.5273 26.5361 18.6187 27.1549 18.6258L27.5557 18.6328L27.6682 19.0336C27.9705 20.0742 28.7088 21.0094 29.5877 21.4664C30.2767 21.825 30.7267 21.9375 31.5002 21.9375C32.2736 21.9375 32.7236 21.825 33.4127 21.4664C34.2846 21.0094 35.0228 20.0812 35.3252 19.0617C35.4728 18.5555 35.4728 17.4445 35.3252 16.9383C34.9314 15.6094 33.8838 14.5617 32.5619 14.175C32.0838 14.0344 30.9728 14.0344 30.4525 14.175ZM32.6322 15.4898C33.3846 15.8555 33.9189 16.4742 34.1439 17.2336C34.3197 17.8102 34.2564 18.6398 33.9963 19.1672C33.7361 19.7016 33.1947 20.2359 32.6603 20.5031C32.2736 20.6859 32.1752 20.707 31.5002 20.707C30.8252 20.707 30.7267 20.6859 30.34 20.5031C29.7986 20.2359 29.2642 19.7016 28.9971 19.1602C28.8142 18.7734 28.7932 18.675 28.7932 18C28.7932 17.3391 28.8142 17.2195 28.983 16.875C29.2361 16.3617 29.5877 15.9609 30.0236 15.6797C30.551 15.3422 30.8814 15.2578 31.6127 15.2789C32.133 15.293 32.3158 15.3352 32.6322 15.4898Z" fill="#095FBA"/>
<path d="M31.0781 15.8906C30.9516 16.0172 30.9375 16.1227 30.9375 17.1563C30.9375 18.1898 30.9516 18.2953 31.0781 18.4219C31.1695 18.5133 31.3102 18.5625 31.5 18.5625C31.6898 18.5625 31.8305 18.5133 31.9219 18.4219C32.0484 18.2953 32.0625 18.1898 32.0625 17.1563C32.0625 16.1227 32.0484 16.0172 31.9219 15.8906C31.8305 15.7992 31.6898 15.75 31.5 15.75C31.3102 15.75 31.1695 15.7992 31.0781 15.8906Z" fill="#095FBA"/>
<path d="M31.092 19.2867C30.7475 19.6523 31.0006 20.25 31.4928 20.25C31.8022 20.25 31.9569 20.1586 32.0623 19.8984C32.1678 19.6523 32.0623 19.3078 31.8444 19.1953C31.6123 19.0687 31.2537 19.1109 31.092 19.2867Z" fill="#095FBA"/>
</g>
<defs>
<clipPath id="clip0_225_3021">
<rect width="36" height="36" fill="white"/>
</clipPath>
</defs>
</svg>
