<svg width="24" height="24" viewBox="0 0 24 24" fill="none" xmlns="http://www.w3.org/2000/svg">
<g clip-path="url(#clip0_225_1946)">
<path d="M11.25 0.0890629C10.3734 0.370313 9.7125 1.04531 9.45 1.91719C9.35157 2.25469 9.35157 2.99531 9.45 3.33281C9.71719 4.2375 10.4203 4.93125 11.3344 5.18438L11.625 5.26406V5.71875C11.625 6.24844 11.6953 6.375 11.9813 6.375C12.3234 6.375 12.4219 6.20156 12.4219 5.59219V5.25469L12.6938 5.17969C13.3828 4.97813 14.0063 4.48594 14.3109 3.9C14.55 3.44063 14.625 3.14063 14.625 2.625C14.625 2.10938 14.55 1.80938 14.3109 1.35C14.0063 0.76875 13.3875 0.276563 12.7078 0.0750004C12.3563 -0.0281246 11.5922 -0.0234371 11.25 0.0890629ZM12.7781 0.960938C13.1344 1.13438 13.4906 1.49531 13.6688 1.85156C13.7906 2.10938 13.8047 2.175 13.8047 2.625C13.8047 3.075 13.7906 3.14063 13.6688 3.39844C13.4906 3.75938 13.1344 4.11563 12.7734 4.29375C12.5156 4.41563 12.45 4.42969 12 4.42969C11.5594 4.42969 11.4797 4.41563 11.25 4.30313C10.5609 3.96563 10.1719 3.35625 10.1719 2.625C10.1719 1.82813 10.6594 1.14844 11.4094 0.88125C11.7891 0.75 12.4172 0.782813 12.7781 0.960938Z" fill="white"/>
<path d="M11.7188 1.21875C11.6344 1.30312 11.625 1.37344 11.625 2.0625C11.625 2.75156 11.6344 2.82187 11.7188 2.90625C11.7797 2.96719 11.8734 3 12 3C12.1266 3 12.2203 2.96719 12.2813 2.90625C12.3656 2.82187 12.375 2.75156 12.375 2.0625C12.375 1.37344 12.3656 1.30312 12.2813 1.21875C12.2203 1.15781 12.1266 1.125 12 1.125C11.8734 1.125 11.7797 1.15781 11.7188 1.21875Z" fill="white"/>
<path d="M11.7281 3.48281C11.4984 3.72656 11.6672 4.125 11.9953 4.125C12.2016 4.125 12.3047 4.06406 12.375 3.89062C12.4453 3.72656 12.375 3.49687 12.2297 3.42187C12.075 3.3375 11.8359 3.36562 11.7281 3.48281Z" fill="white"/>
<path d="M4.78126 2.79379C4.28907 2.89692 3.90938 3.11254 3.51094 3.51098C3.10313 3.91879 2.89688 4.29379 2.77969 4.84223C2.64376 5.47973 2.78438 6.23911 3.13126 6.77817C3.89532 7.94536 5.29688 8.33442 6.55313 7.72973L6.94688 7.54223L7.23751 7.82348C7.40157 7.97817 7.58907 8.11879 7.65938 8.13754C7.94063 8.20786 8.20782 7.94067 8.13751 7.65942C8.11876 7.58911 7.97813 7.40161 7.81876 7.23754L7.53282 6.93754L7.70157 6.61879C8.75626 4.60786 7.00313 2.31098 4.78126 2.79379ZM5.72813 3.56723C6.74532 3.78286 7.40626 4.81879 7.15313 5.80317C6.86719 6.92817 5.64844 7.51879 4.61251 7.03598C3.44532 6.48754 3.17344 4.98754 4.07813 4.07817C4.53282 3.62817 5.13282 3.44067 5.72813 3.56723Z" fill="white"/>
<path d="M5.175 3.89979C5.00625 3.97948 4.96875 4.14354 4.96875 4.80917C4.96875 5.44667 4.99688 5.58729 5.15156 5.70448C5.27813 5.80292 5.52188 5.77479 5.64844 5.64823C5.76094 5.54042 5.76563 5.51698 5.76563 4.81854C5.76094 4.06854 5.74688 4.00292 5.54531 3.89979C5.42344 3.83417 5.31094 3.83417 5.175 3.89979Z" fill="white"/>
<path d="M5.13281 6.20156C4.85625 6.43594 5.02969 6.89062 5.39531 6.89062C5.59219 6.89062 5.76562 6.70781 5.76562 6.50156C5.76562 6.29063 5.64375 6.14531 5.43281 6.1125C5.30156 6.08906 5.24062 6.10781 5.13281 6.20156Z" fill="white"/>
<path d="M18.0609 2.78911C16.6828 3.08911 15.7875 4.43442 16.0266 5.84067C16.0594 6.02348 16.1625 6.33286 16.2703 6.55317L16.4578 6.94692L16.1766 7.23754C16.0219 7.40161 15.8813 7.58911 15.8625 7.65942C15.7922 7.94067 16.0594 8.20786 16.3406 8.13754C16.4109 8.11879 16.5984 7.97817 16.7625 7.82348L17.0531 7.54223L17.4469 7.72973C17.9344 7.96411 18.3094 8.03911 18.8156 8.00161C20.6953 7.87036 21.825 5.88286 20.9906 4.17192C20.7891 3.75942 20.2406 3.21098 19.8281 3.00942C19.275 2.73754 18.6516 2.66254 18.0609 2.78911ZM19.2938 3.66098C20.1234 3.97036 20.6344 4.92192 20.4188 5.75629C20.3156 6.15942 20.1844 6.39848 19.9172 6.66567C18.9094 7.67348 17.2031 7.19536 16.8469 5.80317C16.5938 4.81411 17.2641 3.77817 18.2906 3.56254C18.5625 3.50629 18.9891 3.54848 19.2938 3.66098Z" fill="white"/>
<path d="M18.4406 3.90019C18.2672 3.97988 18.2344 4.13925 18.2344 4.84707C18.2344 5.508 18.2344 5.52207 18.3563 5.64394C18.5578 5.84082 18.8438 5.79863 18.975 5.5455C19.05 5.41425 19.05 4.21894 18.9797 4.06425C18.8906 3.87207 18.6469 3.79707 18.4406 3.90019Z" fill="white"/>
<path d="M18.4078 6.18747C18.1078 6.42653 18.2625 6.88591 18.6469 6.8906C19.0547 6.89528 19.1766 6.34216 18.8109 6.14997C18.6656 6.07028 18.5438 6.07966 18.4078 6.18747Z" fill="white"/>
<path d="M10.425 7.57031C9.71719 7.725 9.17344 8.02969 8.59688 8.60156C8.12344 9.07031 7.86563 9.48281 7.65469 10.1016L7.52344 10.4766L7.50938 12.7687C7.5 14.2687 7.51406 15.1734 7.54688 15.3937C7.725 16.5562 8.50781 17.7609 9.48281 18.375L9.74531 18.5391L9.75 18.8297V19.125H8.9625C8.37656 19.125 8.10938 19.1437 7.91719 19.2C7.03594 19.4578 6.3375 20.1562 6.075 21.0422C5.96719 21.4031 5.96719 23.0766 6.075 23.3344C6.16875 23.5641 6.40313 23.8031 6.63281 23.9109C6.81094 23.9953 7.05469 24 12 24C16.9453 24 17.1891 23.9953 17.3672 23.9109C17.5969 23.8031 17.8313 23.5641 17.925 23.3344C18.0328 23.0812 18.0328 21.4078 17.925 21.0422C17.7234 20.3625 17.2313 19.7437 16.65 19.4391C16.125 19.1672 15.9188 19.125 15.0375 19.125H14.25V18.8297L14.2547 18.5391L14.5172 18.3797C15.3188 17.8969 16.05 16.8891 16.3688 15.8344C16.4672 15.5062 16.4719 15.4078 16.4906 13.1812C16.5047 11.1047 16.4953 10.8469 16.425 10.6266C16.1672 9.82969 15.6234 9.29531 14.85 9.06562L14.625 8.99531V8.34375C14.625 7.74844 14.6156 7.67812 14.5313 7.59375C14.4422 7.50469 14.3766 7.5 12.5766 7.50469C11.2078 7.50469 10.6359 7.52344 10.425 7.57031ZM13.875 8.91094C13.875 9.24844 13.8984 9.5625 13.9219 9.60937C13.9688 9.69844 14.2313 9.79687 14.4234 9.79687C14.6531 9.79687 15.0516 9.99375 15.2813 10.2187C15.6094 10.5516 15.7078 10.8422 15.7359 11.5781L15.7641 12.1641L15.4781 11.8922C15.1219 11.5594 15.0703 11.5547 14.3625 11.8406C13.5188 12.1781 13.0313 12.2859 12.2109 12.3141C11.2406 12.3469 10.4906 12.2016 9.50625 11.7891C8.96719 11.5594 8.86406 11.5687 8.55 11.8641L8.29688 12.1078V11.4609C8.29688 10.7437 8.35781 10.4297 8.5875 9.96094C8.87813 9.36094 9.36563 8.87344 9.97031 8.58281C10.4953 8.325 10.6594 8.30625 12.3422 8.30156L13.875 8.29687V8.91094ZM9.47344 12.6375C10.35 12.9937 10.9313 13.1016 12 13.1016C13.0828 13.1016 13.4859 13.0266 14.5219 12.6422L14.9109 12.4969L15.3328 12.9187L15.7594 13.3359L15.7359 14.2031C15.7078 15.2297 15.6328 15.6 15.3563 16.1953C14.8734 17.2172 13.8891 18.0141 12.8109 18.2531C12.3797 18.3516 11.6203 18.3516 11.1891 18.2531C10.1297 18.0187 9.13594 17.2266 8.66719 16.2422C8.35781 15.6 8.29688 15.2625 8.29688 14.2078V13.2891L8.68125 12.9047C8.89688 12.6891 9.09375 12.5156 9.12188 12.5156C9.15 12.5156 9.30469 12.5719 9.47344 12.6375ZM13.2563 19.5328L13.0078 19.7812L12.5859 19.6406C12.0656 19.4672 11.9344 19.4672 11.4141 19.6406L10.9969 19.7812L10.7719 19.5609C10.5703 19.3641 10.5469 19.3172 10.5469 19.1391C10.5469 19.0266 10.5609 18.9375 10.575 18.9375C10.5891 18.9375 10.7344 18.975 10.8938 19.0172C11.3203 19.1391 12.7453 19.1297 13.1719 19.0031L13.4766 18.9141L13.4906 19.0969C13.5047 19.2656 13.4859 19.3031 13.2563 19.5328ZM10.2938 20.25C10.7531 20.7 10.7953 20.7094 11.5219 20.4656L12 20.3016L12.4781 20.4656C13.2047 20.7094 13.2469 20.7 13.7063 20.25L14.0906 19.875H14.6766C15.7688 19.8797 16.2188 20.0109 16.6688 20.4562C17.1 20.8922 17.2453 21.3656 17.25 22.3406C17.25 22.6031 17.2266 22.8844 17.1984 22.9687C17.0953 23.2641 17.3203 23.25 12.0094 23.25C8.60625 23.25 7.14375 23.2359 7.03594 23.1984C6.95625 23.1703 6.86719 23.1094 6.84375 23.0625C6.76406 22.9172 6.78281 21.4781 6.86719 21.2156C7.09219 20.4937 7.70625 20.0062 8.50781 19.9078C8.5875 19.8984 8.92969 19.8844 9.27656 19.8797L9.90938 19.875L10.2938 20.25Z" fill="white"/>
<path d="M11.7281 21.4828C11.4984 21.7266 11.6672 22.125 11.9953 22.125C12.2016 22.125 12.3047 22.0641 12.375 21.8906C12.4453 21.7266 12.375 21.4969 12.2297 21.4219C12.075 21.3375 11.8359 21.3656 11.7281 21.4828Z" fill="white"/>
<path d="M2.25 9.46406C1.35938 9.74531 0.670317 10.4625 0.445317 11.3297C0.351567 11.6859 0.356254 12.3844 0.450004 12.7078C0.712504 13.5937 1.41094 14.2922 2.29219 14.55C2.45157 14.5969 2.72344 14.625 3 14.625C3.27657 14.625 3.54844 14.5969 3.70782 14.55C4.6125 14.2828 5.30625 13.5797 5.55938 12.6656L5.63907 12.375H6.10313C6.64688 12.375 6.75 12.3141 6.75 12C6.75 11.6859 6.64688 11.625 6.10782 11.625H5.64844L5.51719 11.2125C5.25469 10.3781 4.6875 9.79219 3.87188 9.50625C3.54844 9.39375 3.42188 9.375 3 9.37969C2.6625 9.37969 2.42813 9.40781 2.25 9.46406ZM3.77813 10.3359C4.13438 10.5094 4.49063 10.8703 4.66875 11.2266C4.79063 11.4844 4.80469 11.55 4.80469 12C4.80469 12.45 4.79063 12.5156 4.66875 12.7734C4.49063 13.1297 4.13438 13.4906 3.77813 13.6641C3.45 13.8234 2.90157 13.875 2.54063 13.7812C1.72969 13.5656 1.17188 12.8437 1.17188 12C1.17188 11.2078 1.65938 10.5234 2.41407 10.2562C2.5875 10.1953 2.76094 10.1766 3.075 10.1859C3.43125 10.1953 3.54375 10.2187 3.77813 10.3359Z" fill="white"/>
<path d="M2.71875 10.6029C2.63438 10.6966 2.625 10.767 2.625 11.4373C2.625 12.1076 2.63438 12.1779 2.71875 12.2716C2.82656 12.3841 3.07969 12.4123 3.23438 12.3279C3.36563 12.2576 3.42188 11.9904 3.42188 11.4373C3.42188 10.8841 3.36563 10.617 3.23438 10.5466C3.07969 10.4623 2.82656 10.4904 2.71875 10.6029Z" fill="white"/>
<path d="M2.72813 12.8578C2.49844 13.1016 2.66719 13.5 2.99532 13.5C3.20157 13.5 3.30469 13.4391 3.375 13.2656C3.44532 13.1016 3.375 12.8719 3.22969 12.7969C3.075 12.7125 2.83594 12.7406 2.72813 12.8578Z" fill="white"/>
<path d="M20.3016 9.45C19.4203 9.68437 18.6938 10.425 18.4406 11.3391L18.3609 11.625H17.8969C17.4984 11.625 17.4234 11.6391 17.3438 11.7187C17.2359 11.8266 17.2172 12.1219 17.3109 12.2531C17.3813 12.3516 17.6906 12.4125 18.1031 12.4172L18.3703 12.4219L18.4453 12.6891C18.6469 13.3828 19.1391 14.0062 19.725 14.3109C20.1844 14.55 20.4844 14.625 21 14.625C21.5156 14.625 21.8156 14.55 22.275 14.3109C22.8563 14.0062 23.3484 13.3875 23.55 12.7078C23.6484 12.3703 23.6484 11.6297 23.55 11.2922C23.2875 10.4062 22.5891 9.70781 21.7078 9.45C21.3891 9.35625 20.6484 9.35625 20.3016 9.45ZM21.7547 10.3266C22.2563 10.5703 22.6125 10.9828 22.7625 11.4891C22.8797 11.8734 22.8375 12.4266 22.6641 12.7781C22.4906 13.1344 22.1297 13.4906 21.7734 13.6687C21.5156 13.7906 21.45 13.8047 21 13.8047C20.55 13.8047 20.4844 13.7906 20.2266 13.6687C19.8656 13.4906 19.5094 13.1344 19.3313 12.7734C19.2094 12.5156 19.1953 12.45 19.1953 12C19.1953 11.5594 19.2094 11.4797 19.3219 11.25C19.4906 10.9078 19.725 10.6406 20.0156 10.4531C20.3672 10.2281 20.5875 10.1719 21.075 10.1859C21.4219 10.1953 21.5438 10.2234 21.7547 10.3266Z" fill="white"/>
<path d="M20.7188 10.5937C20.6344 10.6781 20.625 10.7484 20.625 11.4375C20.625 12.1266 20.6344 12.1969 20.7188 12.2812C20.7797 12.3422 20.8734 12.375 21 12.375C21.1266 12.375 21.2203 12.3422 21.2813 12.2812C21.3656 12.1969 21.375 12.1266 21.375 11.4375C21.375 10.7484 21.3656 10.6781 21.2813 10.5937C21.2203 10.5328 21.1266 10.5 21 10.5C20.8734 10.5 20.7797 10.5328 20.7188 10.5937Z" fill="white"/>
<path d="M20.7281 12.8578C20.4984 13.1016 20.6672 13.5 20.9953 13.5C21.2016 13.5 21.3047 13.4391 21.375 13.2656C21.4453 13.1016 21.375 12.8719 21.2297 12.7969C21.075 12.7125 20.8359 12.7406 20.7281 12.8578Z" fill="white"/>
</g>
<defs>
<clipPath id="clip0_225_1946">
<rect width="24" height="24" fill="white"/>
</clipPath>
</defs>
</svg>
