<svg width="24" height="24" viewBox="0 0 24 24" fill="none" xmlns="http://www.w3.org/2000/svg">
<g clip-path="url(#clip0_33_2593)">
<path d="M10.5 0.0703139C8.41875 0.328126 6.50625 1.10156 4.78125 2.38125C4.07813 2.90625 2.90625 4.07813 2.38125 4.78125C1.0875 6.525 0.323438 8.43281 0.065625 10.5469C-0.0140625 11.2406 -0.0140625 12.7594 0.065625 13.4531C0.323438 15.5672 1.0875 17.475 2.38125 19.2188C2.90625 19.9219 4.07813 21.0938 4.78125 21.6188C6.525 22.9125 8.43281 23.6766 10.5469 23.9344C11.2406 24.0141 12.7594 24.0141 13.4531 23.9344C15.5672 23.6766 17.475 22.9125 19.2188 21.6188C19.9219 21.0938 21.0938 19.9219 21.6188 19.2188C22.9125 17.475 23.6766 15.5672 23.9344 13.4531C24.0141 12.7594 24.0141 11.2406 23.9344 10.5469C23.6766 8.43281 22.9125 6.525 21.6188 4.78125C21.0938 4.07813 19.9219 2.90625 19.2188 2.38125C17.475 1.0875 15.5672 0.323439 13.4531 0.0656264C12.7828 -0.0140611 11.1656 -0.00937357 10.5 0.0703139ZM13.4859 1.54219C16.9547 2.05313 19.9266 4.21406 21.4688 7.33594C22.2047 8.83125 22.5469 10.3031 22.5469 12C22.5422 14.1281 21.9984 15.9703 20.8313 17.7656C20.5547 18.1969 20.1 18.7922 20.0391 18.8109C20.0203 18.8156 19.9359 18.6 19.8469 18.3281C19.1719 16.2563 17.6156 14.4609 15.6516 13.5C15.4031 13.3781 15.1266 13.2563 15.0422 13.2234L14.8828 13.1672L15.0234 13.0688C15.3141 12.8625 16.0266 12.1031 16.2422 11.7656C16.8375 10.8375 17.1 9.84375 17.0484 8.7375C16.95 6.52031 15.4406 4.66406 13.2516 4.06875C12.9188 3.975 12.7547 3.96563 12 3.96563C11.025 3.96563 10.7063 4.02188 9.975 4.34063C7.11563 5.5875 6.06094 9.11719 7.75313 11.7563C7.96406 12.0891 8.62969 12.8063 8.95313 13.0453L9.11719 13.1672L8.85938 13.2703C6.67031 14.1609 4.92656 16.0266 4.17188 18.2672C4.07344 18.5578 3.97969 18.8016 3.96094 18.8016C3.85781 18.8016 3.05625 17.6531 2.68594 16.9688C1.47188 14.7281 1.125 11.9203 1.75313 9.43594C2.79844 5.30156 6.23906 2.18906 10.4719 1.54688C11.2828 1.425 12.6656 1.425 13.4859 1.54219ZM12.8672 5.48438C14.4844 5.89688 15.6094 7.34063 15.6094 9C15.6094 9.97031 15.2625 10.7906 14.5547 11.5125C13.1203 12.9703 10.8797 12.9703 9.44531 11.5125C8.7375 10.7906 8.39063 9.97031 8.39063 9C8.39063 7.35 9.51094 5.90625 11.1141 5.48438C11.5969 5.35781 12.375 5.35781 12.8672 5.48438ZM13.2422 14.2219C15.6188 14.6531 17.6719 16.4438 18.4406 18.7547C18.6 19.2281 18.7547 19.8797 18.75 20.0484C18.7453 20.1422 18.1969 20.5641 17.6016 20.9391C15.8625 22.0266 14.0484 22.5469 12 22.5469C9.65156 22.5469 7.57969 21.8531 5.63438 20.4188L5.25 20.1328L5.27344 19.8984C5.33906 19.3359 5.59219 18.5391 5.91094 17.9016C6.54844 16.6219 7.75313 15.4219 9.01406 14.8125C10.0781 14.3016 10.9969 14.1 12.1406 14.1328C12.5156 14.1422 13.0125 14.1797 13.2422 14.2219Z" fill="#095FBA"/>
</g>
<defs>
<clipPath id="clip0_33_2593">
<rect width="24" height="24" fill="white"/>
</clipPath>
</defs>
</svg>
