<svg width="24" height="24" viewBox="0 0 24 24" fill="none" xmlns="http://www.w3.org/2000/svg">
<g clip-path="url(#clip0_52_4446)">
<path d="M8.55449 0.0930999C6.36543 0.4306 4.44355 1.4056 2.88262 2.97591C1.2748 4.58841 0.323242 6.52435 0.0466797 8.76497C-0.0142578 9.27591 -0.0142578 10.5978 0.0466797 11.1087C0.224805 12.5337 0.731055 13.9822 1.46699 15.14C2.27793 16.429 3.51074 17.6431 4.78574 18.4118C6.05137 19.1712 7.44824 19.6493 8.90605 19.8275C9.50605 19.8978 10.8373 19.8837 11.4467 19.7993C13.1951 19.5556 14.7795 18.9228 16.1342 17.9243C16.2936 17.8118 16.4389 17.7228 16.4576 17.7275C16.4764 17.7368 17.8873 19.1103 19.5936 20.7884C21.2998 22.4618 22.7576 23.8728 22.842 23.915C23.1607 24.0931 23.667 23.9853 23.8686 23.704C23.9904 23.5306 24.0373 23.1228 23.9529 22.9212C23.9107 22.8134 19.5373 18.454 17.7936 16.7759L17.6107 16.5978L17.9014 16.2556C18.567 15.4775 19.2936 14.2165 19.6357 13.2462C20.517 10.7478 20.3717 8.01497 19.242 5.6806C18.7217 4.60716 18.1357 3.78685 17.2592 2.91497C15.6701 1.3306 13.5748 0.322787 11.2967 0.0462249C10.6545 -0.0287751 9.20137 -0.00533762 8.55449 0.0930999ZM10.7951 1.5931C14.4139 1.8931 17.4186 4.39154 18.342 7.87435C18.5295 8.58685 18.5857 9.0556 18.5857 9.93685C18.5857 10.8181 18.5295 11.2868 18.342 11.9993C17.9482 13.4759 17.2311 14.7275 16.1436 15.815C13.8561 18.1072 10.4342 18.8993 7.34512 17.854C4.90762 17.029 2.94355 15.1259 2.09512 12.7728C1.22793 10.3681 1.49043 7.74779 2.8123 5.61497C4.35918 3.12591 7.0123 1.62591 10.0076 1.5556C10.1389 1.55091 10.4904 1.56966 10.7951 1.5931Z" fill="white"/>
</g>
<defs>
<clipPath id="clip0_52_4446">
<rect width="24" height="24" fill="white"/>
</clipPath>
</defs>
</svg>
