<svg width="16" height="16" viewBox="0 0 16 16" fill="none" xmlns="http://www.w3.org/2000/svg">
<g clip-path="url(#clip0_33_3853)">
<path d="M5.70308 0.0624735C4.2437 0.287473 2.96245 0.937473 1.92183 1.98435C0.849951 3.05935 0.215576 4.34997 0.0312012 5.84372C-0.00942383 6.18435 -0.00942383 7.0656 0.0312012 7.40622C0.149951 8.35622 0.487451 9.32185 0.978076 10.0937C1.5187 10.9531 2.34058 11.7625 3.19058 12.275C4.03433 12.7812 4.96558 13.1 5.93745 13.2187C6.33745 13.2656 7.22495 13.2562 7.6312 13.2C8.79683 13.0375 9.85308 12.6156 10.7562 11.95C10.8625 11.875 10.9593 11.8156 10.9718 11.8187C10.9843 11.825 11.925 12.7406 13.0625 13.8593C14.2 14.975 15.1718 15.9156 15.2281 15.9437C15.4406 16.0625 15.7781 15.9906 15.9125 15.8031C15.9937 15.6875 16.025 15.4156 15.9687 15.2812C15.9406 15.2093 13.025 12.3031 11.8625 11.1843L11.7406 11.0656L11.9343 10.8375C12.3781 10.3187 12.8625 9.4781 13.0906 8.83122C13.6781 7.1656 13.5812 5.34372 12.8281 3.78747C12.4812 3.07185 12.0906 2.52497 11.5062 1.94372C10.4468 0.887473 9.04995 0.215598 7.5312 0.0312235C7.10308 -0.0187765 6.13433 -0.00315151 5.70308 0.0624735ZM7.19683 1.06247C9.60933 1.26247 11.6125 2.9281 12.2281 5.24997C12.3531 5.72497 12.3906 6.03747 12.3906 6.62497C12.3906 7.21247 12.3531 7.52497 12.2281 7.99997C11.9656 8.98435 11.4875 9.81872 10.7625 10.5437C9.23745 12.0718 6.9562 12.6 4.89683 11.9031C3.27183 11.3531 1.96245 10.0843 1.39683 8.5156C0.818701 6.91247 0.993701 5.1656 1.87495 3.74372C2.9062 2.08435 4.67495 1.08435 6.67183 1.03747C6.75933 1.03435 6.9937 1.04685 7.19683 1.06247Z" fill="#121224"/>
</g>
<defs>
<clipPath id="clip0_33_3853">
<rect width="16" height="16" fill="white"/>
</clipPath>
</defs>
</svg>
