<svg width="48" height="48" viewBox="0 0 48 48" fill="none" xmlns="http://www.w3.org/2000/svg">
<path d="M21.1125 0.9375C20.5594 1.275 20.4375 1.60312 20.4375 2.775V3.81563L19.3969 4.06875C18.3656 4.32187 17.0156 4.8 16.35 5.1375L15.9938 5.325L15.4219 4.56563C14.6719 3.55313 14.3625 3.34688 13.6781 3.39375C13.1906 3.43125 13.0688 3.4875 12.0469 4.22812C9.01876 6.4125 8.86876 6.5625 8.92501 7.41563C8.96251 7.89375 9.01876 8.025 9.54376 8.71875L10.1156 9.49688L9.61876 10.0688C8.99064 10.7906 8.29689 11.7563 7.78126 12.6281C7.56564 13.0031 7.37814 13.3125 7.36876 13.3125C7.35939 13.3125 6.97501 13.1813 6.51564 13.0312C5.30626 12.6188 4.87501 12.6562 4.28439 13.2C4.07814 13.3969 3.87189 13.9125 3.27189 15.75C2.45626 18.225 2.42814 18.45 2.81251 19.0781C3.03751 19.4438 3.20626 19.5375 4.26564 19.8563L5.10939 20.1188L5.06251 20.9156C4.99689 22.0313 5.00626 23.0719 5.08126 24.0188L5.15626 24.825L4.23751 25.125C3.51564 25.3594 3.26251 25.5 2.98126 25.7813C2.39064 26.3906 2.40939 26.6156 3.18751 29.0156C3.56251 30.15 3.90001 31.1156 3.94689 31.1625C4.03126 31.2563 5.43751 30.8625 5.43751 30.7406C5.43751 30.7031 5.13751 29.8125 4.78126 28.7719C4.41564 27.7313 4.13439 26.8688 4.14376 26.8594C4.16251 26.85 4.58439 26.7 5.09064 26.5313C6.68439 26.0063 6.81564 25.7813 6.65626 23.85C6.57189 22.8844 6.57189 22.2375 6.65626 21.1781L6.76876 19.7906L6.52501 19.3781C6.25314 18.9094 6.01876 18.7688 4.91251 18.4594L4.15314 18.2438L4.77189 16.3688C5.10939 15.3281 5.39064 14.4656 5.40001 14.4469C5.41876 14.4281 5.86876 14.55 6.40314 14.7188C7.25626 14.9719 7.43439 15 7.76251 14.9156C8.22189 14.7844 8.58751 14.5125 8.78439 14.1281C9.13126 13.4344 10.125 11.9813 10.8094 11.175C11.6156 10.2188 11.7188 10.0125 11.7188 9.45938C11.7188 9 11.5969 8.74688 10.9781 7.97813C10.7063 7.65 10.5281 7.35 10.5656 7.3125C10.8375 7.07812 13.7063 4.95938 13.725 4.9875C13.7438 4.99688 13.9875 5.33438 14.2688 5.72812C14.8875 6.57187 15.1688 6.80625 15.6469 6.89062C16.0219 6.95625 16.1063 6.92813 17.9063 6.225C18.3938 6.0375 19.3313 5.74688 19.9875 5.57812C21.8625 5.1 21.9938 4.95 21.9563 3.3L21.9281 2.25H23.9438H25.95L25.9875 3.3C26.0438 4.88437 26.2688 5.18438 27.6469 5.49375C28.5938 5.7 29.7938 6.09375 30.8813 6.55313C32.3531 7.19063 32.8406 7.05 33.7031 5.74688L34.2281 4.95L34.5281 5.175C34.6969 5.30625 35.4188 5.82187 36.1406 6.32812C36.8625 6.83438 37.4625 7.25625 37.4813 7.275C37.5 7.28438 37.275 7.6125 36.9938 8.00625C36.3844 8.82188 36.2813 9.05625 36.2813 9.6C36.2813 10.0406 36.5063 10.4344 37.1156 11.1094C37.7063 11.7563 38.3531 12.6469 38.9438 13.6219C39.7875 15.0094 40.2 15.15 41.7563 14.625C42.3375 14.4281 42.5813 14.3813 42.6094 14.4656C43.0969 15.825 43.875 18.1313 43.8563 18.1406C43.8375 18.15 43.4156 18.3 42.9094 18.4688C41.3063 18.9938 41.175 19.2188 41.3438 21.1875C41.4188 22.1813 41.4188 22.8188 41.3438 23.8125C41.1844 25.7625 41.3344 26.0438 42.825 26.4938C43.275 26.625 43.6781 26.775 43.7156 26.8125C43.7625 26.85 43.5188 27.75 43.1813 28.8094C42.8438 29.8688 42.5625 30.75 42.5625 30.7688C42.5625 30.8719 43.9781 31.2469 44.0531 31.1625C44.175 31.0406 45.4688 27 45.4688 26.7469C45.4688 26.3813 45.1781 25.7906 44.8969 25.5844C44.7469 25.4813 44.2406 25.2844 43.7625 25.1344L42.8906 24.8813L42.9375 24.0375C43.0031 22.8656 42.9938 21.9281 42.9188 20.9813L42.8438 20.175L43.7625 19.875C44.8031 19.5281 45.225 19.2 45.3844 18.6188C45.5063 18.1688 45.4875 18.0844 44.6344 15.4594C43.9594 13.3969 43.8281 13.1531 43.2469 12.8531C42.9 12.675 42.3281 12.7406 41.4844 13.0406C41.0438 13.2 40.6688 13.3219 40.65 13.3031C40.6313 13.2844 40.4063 12.9188 40.1344 12.4875C39.5813 11.5875 39.0188 10.8375 38.3344 10.0875L37.8563 9.5625L38.325 8.925C38.9438 8.07188 39.0938 7.7625 39.0938 7.35C39.0938 6.6 38.85 6.32812 36.9469 4.94063C34.875 3.43125 34.7719 3.375 34.2375 3.375C33.5531 3.375 33.1219 3.70312 32.4469 4.7625C32.2781 5.025 32.1 5.25 32.0625 5.25C32.0156 5.25 31.7813 5.16562 31.5281 5.05313C30.7219 4.69687 29.5031 4.30313 28.5469 4.0875L27.6094 3.87188L27.5625 2.74688C27.5063 1.50937 27.4125 1.26562 26.8781 0.9375C26.5969 0.759375 26.3906 0.75 24 0.75C21.5906 0.75 21.4031 0.759375 21.1125 0.9375Z" fill="#095FBA"/>
<path d="M22.0782 7.55625C17.1 8.27812 12.9094 11.2219 10.65 15.5625C9.6938 17.4187 9.1313 19.425 9.02817 21.3469L8.97192 22.5H9.7688H10.5657L10.6219 21.4406C10.8 18.3562 12.1782 15.375 14.5219 13.0312C15.9469 11.6062 17.2594 10.7344 18.9844 10.0406C22.1625 8.76562 25.7813 8.75625 28.9125 10.0031C30.7219 10.7156 32.0625 11.6156 33.5157 13.0687C35.85 15.4219 37.2094 18.3937 37.3782 21.5344L37.4344 22.5H38.2313H39.0282L38.9719 21.3469C38.7938 17.9156 37.2001 14.4281 34.6313 11.8687C32.6063 9.84375 30.1969 8.5125 27.2813 7.80937C26.4282 7.60312 26.0438 7.575 24.3282 7.54687C23.25 7.52812 22.2375 7.5375 22.0782 7.55625Z" fill="#095FBA"/>
<path d="M18 24.75V33.75H18.6H19.2L19.2375 32.7844C19.275 32.0906 19.3406 31.6781 19.4906 31.2844C19.9406 30.1312 21.1125 28.95 22.2844 28.4906C22.7531 28.3031 22.9875 28.2656 24 28.2656C25.0125 28.2656 25.2469 28.3031 25.7156 28.4906C26.8875 28.95 28.0594 30.1312 28.5094 31.2844C28.6594 31.6781 28.725 32.0906 28.7625 32.7844L28.8 33.75H29.4H30V24.75V15.75H24H18V24.75ZM22.875 19.5V20.625H21.75H20.625V19.5V18.375H21.75H22.875V19.5ZM27.375 19.5V20.625H26.25H25.125V19.5V18.375H26.25H27.375V19.5ZM22.875 24V25.125H21.75H20.625V24V22.875H21.75H22.875V24ZM27.375 24V25.125H26.25H25.125V24V22.875H26.25H27.375V24Z" fill="#095FBA"/>
<path d="M8.26875 29.5969L8.29688 35.2031H8.89688H9.4875L9.70312 34.6219C10.1156 33.4687 11.0438 32.5687 12.2344 32.1469C12.7031 31.9875 12.9469 31.9594 13.6875 31.9875C14.7 32.0437 15.2156 32.2219 16.0125 32.8219L16.5 33.1969V28.5937V24H12.375H8.25L8.26875 29.5969ZM11.625 27V27.75H10.875H10.125V27V26.25H10.875H11.625V27ZM14.625 27V27.75H13.875H13.125V27V26.25H13.875H14.625V27Z" fill="#095FBA"/>
<path d="M31.5 28.5937V33.1969L31.9969 32.8219C32.8313 32.1844 33.5438 31.95 34.5563 31.95C36.225 31.9594 37.725 33.0281 38.2969 34.6219L38.5125 35.2031H39.1031H39.7031L39.7313 29.5969L39.75 24H35.625H31.5V28.5937ZM34.875 27V27.75H34.125H33.375V27V26.25H34.125H34.875V27ZM37.875 27V27.75H37.125H36.375V27V26.25H37.125H37.875V27Z" fill="#095FBA"/>
<path d="M22.8 30.1969C21.7125 30.6188 21 31.725 21 33C21 34.275 21.7125 35.3906 22.8 35.7938L23.2875 35.9813L22.35 36.0188C21.5531 36.0469 21.3375 36.0938 20.8594 36.3281C20.1375 36.675 19.425 37.3875 19.0687 38.1094L18.7969 38.6719L18.7687 42.5813L18.7406 46.5H24H29.2593L29.2312 42.5906L29.2031 38.6719L28.9312 38.1094C28.575 37.3875 27.8625 36.675 27.1406 36.3281C26.6625 36.0938 26.4469 36.0469 25.65 36.0188L24.7125 35.9813L25.2 35.7938C27.1125 35.0813 27.6375 32.3344 26.1562 30.8438C25.3219 30.0188 23.9531 29.7563 22.8 30.1969Z" stroke="#095FBA"/>
<path d="M12.5156 33.9281C11.7094 34.3031 11.25 35.0531 11.25 36C11.25 36.9469 11.7094 37.6969 12.5156 38.0719L12.8906 38.25H12.1594C11.325 38.25 10.8844 38.4 10.4156 38.8406C9.76875 39.4594 9.75 39.5531 9.75 42.8156V45.75H13.5H17.25V42.8437C17.25 39.6281 17.2313 39.525 16.6594 38.9156C16.1906 38.4281 15.7313 38.2594 14.8594 38.25H14.1094L14.4844 38.0719C15.3 37.6969 15.75 36.9469 15.75 35.9812C15.7406 35.025 15.2438 34.2375 14.4188 33.9C13.9313 33.6937 12.9844 33.7125 12.5156 33.9281Z" stroke="#095FBA"/>
<path d="M33.5156 33.9281C32.7094 34.3031 32.25 35.0531 32.25 36C32.25 36.9469 32.7094 37.6969 33.5156 38.0719L33.8906 38.25H33.1594C32.325 38.25 31.8844 38.4 31.4156 38.8406C30.7688 39.4594 30.75 39.5531 30.75 42.8156V45.75H34.5H38.25V42.8437C38.25 39.6281 38.2313 39.525 37.6594 38.9156C37.1906 38.4281 36.7313 38.2594 35.8594 38.25H35.1094L35.4844 38.0719C36.3 37.6969 36.75 36.9469 36.75 35.9812C36.7406 35.025 36.2438 34.2375 35.4188 33.9C34.9313 33.6937 33.9844 33.7125 33.5156 33.9281Z" stroke="#095FBA"/>
<path d="M4.24688 35.4937C3.66563 35.8406 3.375 36.3844 3.375 37.125C3.375 37.8656 3.66563 38.4094 4.24688 38.7562L4.64063 39H4.28438C3.55313 39 2.76563 39.5344 2.42813 40.2656C2.27813 40.5937 2.25 40.8937 2.25 42.8156V45H5.25H8.25V42.8437C8.25 40.4531 8.2125 40.2469 7.65938 39.6656C7.28438 39.2719 6.7125 39.0094 6.23438 39H5.85938L6.25313 38.7562C6.83438 38.4094 7.125 37.8656 7.125 37.125C7.125 35.9719 6.40313 35.25 5.24063 35.25C4.7625 35.25 4.55625 35.2969 4.24688 35.4937Z" stroke="#095FBA"/>
<path d="M41.7469 35.4937C41.1656 35.8406 40.875 36.3844 40.875 37.125C40.875 37.8656 41.1656 38.4094 41.7469 38.7562L42.1406 39H41.7844C41.0531 39 40.2656 39.5344 39.9281 40.2656C39.7781 40.5937 39.75 40.8937 39.75 42.8156V45H42.75H45.75V42.8437C45.75 40.4531 45.7125 40.2469 45.1594 39.6656C44.7844 39.2719 44.2125 39.0094 43.7344 39H43.3594L43.7531 38.7562C44.3344 38.4094 44.625 37.8656 44.625 37.125C44.625 35.9719 43.9031 35.25 42.7406 35.25C42.2625 35.25 42.0563 35.2969 41.7469 35.4937Z" stroke="#095FBA"/>
</svg>
