<svg width="48" height="48" viewBox="0 0 48 48" fill="none" xmlns="http://www.w3.org/2000/svg">
<g clip-path="url(#clip0_739_1783)">
<path d="M20.6906 0.140623C19.8656 0.449998 19.0687 1.29375 18.8531 2.08125C18.7687 2.40937 18.2812 5.97187 18.2812 6.27187C18.2812 6.31875 18.0562 6.43125 17.7937 6.525C17.5219 6.60937 16.9219 6.84375 16.4625 7.04062C16.0031 7.24687 15.6 7.40625 15.5625 7.40625C15.5344 7.40625 14.7656 6.83437 13.8656 6.14062C12.4687 5.04375 12.1406 4.8375 11.5969 4.66875C10.8469 4.44375 10.1906 4.48125 9.47812 4.79062C8.85937 5.05312 5.0625 8.85 4.79062 9.47812C4.48125 10.1719 4.44375 10.8469 4.66875 11.5969C4.8375 12.1406 5.04375 12.4687 6.14062 13.8656C6.83437 14.7656 7.40625 15.5344 7.40625 15.5625C7.40625 15.6 7.24687 16.0031 7.04062 16.4625C6.84375 16.9219 6.60937 17.5219 6.525 17.7844C6.43125 18.0562 6.30937 18.2812 6.25312 18.2812C6.1875 18.2906 5.23125 18.4031 4.11562 18.5531C1.86562 18.8437 1.50937 18.9562 0.853125 19.6125C0.6375 19.8281 0.375 20.2031 0.253125 20.4375C0.05625 20.85 0.046875 20.9344 0.046875 24C0.046875 27.0937 0.046875 27.15 0.2625 27.5812C0.384375 27.825 0.646875 28.1906 0.853125 28.3969C1.49062 29.0344 1.86562 29.1562 4.11562 29.4469C5.23125 29.5969 6.1875 29.7187 6.25312 29.7187C6.30937 29.7187 6.43125 29.9437 6.525 30.2062C6.60937 30.4781 6.84375 31.0781 7.04062 31.5375C7.24687 31.9969 7.40625 32.4 7.40625 32.4375C7.40625 32.475 6.83437 33.2344 6.14062 34.1344C4.725 35.9531 4.54687 36.3281 4.55625 37.3594C4.56562 38.4844 4.70625 38.6906 7.0125 40.9969C9.31875 43.2937 9.53437 43.4344 10.6406 43.4437C11.6812 43.4531 12.0469 43.275 13.875 41.8594C14.775 41.1656 15.5344 40.5937 15.5625 40.5937C15.6 40.5937 16.0031 40.7531 16.4625 40.9594C16.9219 41.1562 17.5219 41.3906 17.7937 41.475C18.0562 41.5687 18.2812 41.6906 18.2812 41.7469C18.2812 41.8125 18.4031 42.7687 18.5531 43.8844C18.8437 46.1437 18.9656 46.5 19.6125 47.1469C19.8281 47.3625 20.2031 47.625 20.4375 47.7469C20.85 47.9437 20.9344 47.9531 24 47.9531C27.0656 47.9531 27.15 47.9437 27.5625 47.7469C28.1156 47.475 28.725 46.8656 28.9781 46.3406C29.1281 46.0406 29.2594 45.3562 29.4469 43.9406C29.5969 42.8437 29.7094 41.8781 29.7187 41.7937C29.7187 41.6906 29.8781 41.5875 30.2156 41.475C30.4781 41.3906 31.0781 41.1562 31.5375 40.9594C31.9969 40.7531 32.4 40.5937 32.4375 40.5937C32.475 40.5937 33.2344 41.1656 34.1344 41.8594C35.9625 43.275 36.3281 43.4531 37.3594 43.4437C38.475 43.4344 38.6906 43.2844 40.95 41.0344C43.3031 38.6906 43.4531 38.4656 43.4531 37.2656C43.4437 36.2531 43.3125 35.9906 41.8687 34.1344C41.2125 33.2906 40.65 32.55 40.6312 32.4937C40.6125 32.4375 40.7531 32.0062 40.95 31.5469C41.1562 31.0781 41.3906 30.4781 41.475 30.2062C41.5687 29.9437 41.6719 29.7187 41.7187 29.7187C41.9812 29.7187 45.5812 29.2219 45.8906 29.1469C46.3969 29.0156 47.0437 28.5656 47.4187 28.0781C47.9906 27.3281 48.0094 27.1687 47.9812 23.85C47.9531 20.9437 47.9437 20.85 47.7375 20.4187C47.6156 20.175 47.3531 19.8094 47.1469 19.6031C46.5 18.9562 46.1344 18.8437 43.7906 18.5344C42.6281 18.3844 41.6719 18.2531 41.6625 18.2437C41.475 17.7937 40.6594 15.7594 40.6312 15.6562C40.6031 15.5719 41.1094 14.8312 41.8594 13.875C42.9562 12.4687 43.1625 12.1406 43.3312 11.5969C43.5562 10.8469 43.5187 10.1719 43.2094 9.47812C42.9375 8.85 39.1406 5.05312 38.5219 4.79062C37.8094 4.48125 37.1531 4.44375 36.4031 4.66875C35.8594 4.8375 35.5312 5.04375 34.1344 6.14062C33.2344 6.83437 32.4656 7.40625 32.4375 7.40625C32.4 7.40625 31.9969 7.24687 31.5375 7.04062C31.0781 6.84375 30.4781 6.60937 30.2156 6.525C29.9437 6.43125 29.7187 6.30937 29.7187 6.25312C29.7187 6.1875 29.5969 5.23125 29.4469 4.11562C29.1562 1.85625 29.0344 1.5 28.3875 0.853123C28.1719 0.637498 27.7969 0.374998 27.5625 0.253123C27.1594 0.0562481 27.0375 0.0468731 24.0937 0.0281231C21.6469 0.00937309 20.9719 0.0374981 20.6906 0.140623ZM26.8031 2.29687C26.9531 2.42812 27.1031 2.61562 27.1312 2.7C27.1594 2.78437 27.3094 3.88125 27.4687 5.12812C27.6281 6.375 27.7875 7.5 27.8344 7.62187C27.9562 7.95 28.0969 8.025 29.1656 8.39062C29.7 8.57812 30.6187 8.9625 31.2094 9.24375C32.2875 9.75937 32.6625 9.83437 33.0281 9.6375C33.1406 9.58125 33.8719 9.0375 34.6406 8.4375C36.9844 6.60937 36.9187 6.65625 37.2937 6.65625C37.6125 6.65625 37.7625 6.77812 39.4875 8.5125C41.2031 10.2281 41.3437 10.3875 41.3437 10.6969C41.3437 11.0812 41.2875 11.1656 39.6094 13.3125C38.9812 14.1187 38.4094 14.8687 38.3531 14.9812C38.1656 15.3375 38.25 15.7219 38.7562 16.7906C39.0375 17.3812 39.4219 18.3 39.6094 18.8344C39.975 19.8937 40.05 20.0437 40.3781 20.1656C40.4906 20.2031 41.6156 20.3719 42.8625 20.5312C44.1187 20.6906 45.2156 20.8406 45.3 20.8687C45.3844 20.8969 45.5719 21.0469 45.7031 21.1969L45.9375 21.4875V24V26.5125L45.7031 26.8031C45.5719 26.9531 45.3844 27.1031 45.3 27.1312C45.2156 27.1594 44.1094 27.3094 42.8531 27.4687C41.5969 27.6281 40.4812 27.7969 40.3687 27.8437C40.0594 27.9562 39.9656 28.1062 39.6094 29.1656C39.4219 29.7 39.0375 30.6187 38.7562 31.2094C38.25 32.2781 38.1656 32.6625 38.3531 33.0187C38.4094 33.1312 38.9531 33.8531 39.5625 34.6312C41.4094 37.0219 41.3437 36.9187 41.3437 37.2937C41.3437 37.6125 41.2219 37.7625 39.4875 39.4875C37.7719 41.2031 37.6125 41.3437 37.3031 41.3437C36.9187 41.3437 36.8344 41.2875 34.6875 39.6094C33.8812 38.9812 33.1312 38.4094 33.0187 38.3531C32.6625 38.1656 32.2781 38.25 31.2094 38.7562C30.6187 39.0375 29.7 39.4219 29.1656 39.6094C28.1062 39.975 27.9562 40.05 27.8344 40.3781C27.7969 40.4906 27.6281 41.6156 27.4687 42.8625C27.3094 44.1187 27.1594 45.2156 27.1312 45.3C27.1031 45.3844 26.9531 45.5719 26.8031 45.7031L26.5125 45.9375H24H21.4875L21.1969 45.7031C21.0469 45.5719 20.8969 45.3844 20.8687 45.3C20.8406 45.2156 20.6906 44.1187 20.5312 42.8625C20.3719 41.6156 20.2031 40.4906 20.1656 40.3781C20.0437 40.05 19.8937 39.975 18.8344 39.6094C18.3 39.4219 17.3812 39.0375 16.7906 38.7562C15.7125 38.2406 15.3375 38.1656 14.9719 38.3625C14.8594 38.4187 14.1375 38.9625 13.3594 39.5625C11.0156 41.3906 11.0812 41.3437 10.7062 41.3437C10.3875 41.3437 10.2375 41.2219 8.5125 39.4875C6.79687 37.7719 6.65625 37.6125 6.65625 37.3031C6.65625 36.9187 6.7125 36.8344 8.39062 34.6875C9.01875 33.8812 9.59062 33.1312 9.64687 33.0187C9.83437 32.6625 9.75 32.2781 9.24375 31.2094C8.9625 30.6187 8.57812 29.7 8.39062 29.1656C8.025 28.1062 7.95 27.9562 7.62187 27.8344C7.50937 27.7969 6.38437 27.6281 5.1375 27.4687C3.88125 27.3094 2.78437 27.1594 2.7 27.1312C2.61562 27.1031 2.42812 26.9531 2.29687 26.8031L2.0625 26.5125V24V21.4875L2.29687 21.1969C2.42812 21.0469 2.61562 20.8969 2.7 20.8687C2.78437 20.8406 3.88125 20.6906 5.12812 20.5312C6.375 20.3719 7.5 20.2125 7.62187 20.1656C7.95 20.0437 8.025 19.9031 8.39062 18.8344C8.57812 18.3 8.9625 17.3812 9.24375 16.7906C9.75 15.7219 9.83437 15.3375 9.64687 14.9812C9.59062 14.8687 9.01875 14.1187 8.39062 13.3125C6.7125 11.1656 6.65625 11.0812 6.65625 10.6969C6.65625 10.3875 6.79687 10.2281 8.5125 8.5125C10.2375 6.77812 10.3875 6.65625 10.7062 6.65625C11.0812 6.65625 11.0156 6.60937 13.3594 8.4375C14.1375 9.0375 14.8594 9.58125 14.9719 9.6375C15.3469 9.84375 15.7125 9.75937 16.8844 9.19687C17.5219 8.89687 18.4031 8.53125 18.8437 8.39062C19.7906 8.09062 20.0437 7.94062 20.1562 7.64062C20.2031 7.50937 20.3719 6.38437 20.5312 5.1375C20.6906 3.88125 20.8406 2.78437 20.8687 2.7C20.8969 2.61562 21.0469 2.42812 21.1969 2.29687L21.4875 2.0625H24H26.5125L26.8031 2.29687Z" fill="#095FBA"/>
<path d="M22.2562 14.0999C21.2249 14.2968 20.5499 14.5124 19.6312 14.9531C17.0062 16.2093 15.0468 18.5906 14.2687 21.4687C14.0624 22.2562 14.0249 22.5468 14.0249 23.9531C14.0156 25.7812 14.1656 26.5499 14.7937 28.0031C15.2999 29.1843 15.9281 30.0937 16.9124 31.0874C18.2812 32.4468 19.7156 33.2624 21.6093 33.7593C22.7999 34.0687 25.1531 34.0781 26.3531 33.7781C29.9624 32.8687 32.7656 30.1124 33.7312 26.5499C33.9468 25.7343 33.9749 25.4718 33.9749 23.9999C33.9749 22.5281 33.9468 22.2656 33.7312 21.4593C32.7843 17.9437 30.0281 15.1874 26.5499 14.2781C25.4249 13.9874 23.3156 13.9031 22.2562 14.0999ZM26.0999 16.3593C28.8562 17.1562 30.8062 19.1062 31.6499 21.9093C31.8656 22.6218 31.9031 22.9031 31.9031 23.9999C31.9031 25.0968 31.8656 25.3781 31.6499 26.0906C30.8062 28.8937 28.8937 30.8062 26.0906 31.6499C25.3781 31.8656 25.0968 31.9031 23.9999 31.9031C22.9031 31.9031 22.6218 31.8656 21.9093 31.6499C19.1062 30.8062 17.1937 28.8937 16.3499 26.0906C16.1343 25.3781 16.0968 25.0968 16.0968 23.9999C16.0968 22.9031 16.1343 22.6218 16.3499 21.9093C17.2874 18.7874 19.7437 16.6218 22.9031 16.1156C23.7374 15.9843 25.1906 16.0968 26.0999 16.3593Z" fill="#095FBA"/>
</g>
<defs>
<clipPath id="clip0_739_1783">
<rect width="48" height="48" fill="white"/>
</clipPath>
</defs>
</svg>
