<svg width="24" height="24" viewBox="0 0 24 24" fill="none" xmlns="http://www.w3.org/2000/svg">
<g clip-path="url(#clip0_2_6570)">
<path d="M10.3453 0.0703125C9.93281 0.224998 9.53437 0.646873 9.42656 1.04062C9.38437 1.20469 9.14062 2.98594 9.14062 3.13594C9.14062 3.15937 9.02812 3.21562 8.89687 3.2625C8.76094 3.30469 8.46094 3.42188 8.23125 3.52031C8.00156 3.62344 7.8 3.70312 7.78125 3.70312C7.76719 3.70312 7.38281 3.41719 6.93281 3.07031C6.23437 2.52187 6.07031 2.41875 5.79844 2.33437C5.42344 2.22187 5.09531 2.24062 4.73906 2.39531C4.42969 2.52656 2.53125 4.425 2.39531 4.73906C2.24062 5.08594 2.22187 5.42344 2.33437 5.79844C2.41875 6.07031 2.52187 6.23438 3.07031 6.93281C3.41719 7.38281 3.70312 7.76719 3.70312 7.78125C3.70312 7.8 3.62344 8.00156 3.52031 8.23125C3.42187 8.46094 3.30469 8.76094 3.2625 8.89219C3.21562 9.02812 3.15469 9.14062 3.12656 9.14062C3.09375 9.14531 2.61562 9.20156 2.05781 9.27656C0.932812 9.42187 0.754687 9.47812 0.426562 9.80625C0.31875 9.91406 0.1875 10.1016 0.126562 10.2187C0.028125 10.425 0.0234375 10.4672 0.0234375 12C0.0234375 13.5469 0.0234375 13.575 0.13125 13.7906C0.192187 13.9125 0.323437 14.0953 0.426562 14.1984C0.745312 14.5172 0.932812 14.5781 2.05781 14.7234C2.61562 14.7984 3.09375 14.8594 3.12656 14.8594C3.15469 14.8594 3.21562 14.9719 3.2625 15.1031C3.30469 15.2391 3.42187 15.5391 3.52031 15.7687C3.62344 15.9984 3.70312 16.2 3.70312 16.2187C3.70312 16.2375 3.41719 16.6172 3.07031 17.0672C2.3625 17.9766 2.27344 18.1641 2.27812 18.6797C2.28281 19.2422 2.35312 19.3453 3.50625 20.4984C4.65937 21.6469 4.76719 21.7172 5.32031 21.7219C5.84062 21.7266 6.02344 21.6375 6.9375 20.9297C7.3875 20.5828 7.76719 20.2969 7.78125 20.2969C7.8 20.2969 8.00156 20.3766 8.23125 20.4797C8.46094 20.5781 8.76094 20.6953 8.89687 20.7375C9.02812 20.7844 9.14062 20.8453 9.14062 20.8734C9.14062 20.9062 9.20156 21.3844 9.27656 21.9422C9.42187 23.0719 9.48281 23.25 9.80625 23.5734C9.91406 23.6812 10.1016 23.8125 10.2187 23.8734C10.425 23.9719 10.4672 23.9766 12 23.9766C13.5328 23.9766 13.575 23.9719 13.7812 23.8734C14.0578 23.7375 14.3625 23.4328 14.4891 23.1703C14.5641 23.0203 14.6297 22.6781 14.7234 21.9703C14.7984 21.4219 14.8547 20.9391 14.8594 20.8969C14.8594 20.8453 14.9391 20.7937 15.1078 20.7375C15.2391 20.6953 15.5391 20.5781 15.7687 20.4797C15.9984 20.3766 16.2 20.2969 16.2187 20.2969C16.2375 20.2969 16.6172 20.5828 17.0672 20.9297C17.9812 21.6375 18.1641 21.7266 18.6797 21.7219C19.2375 21.7172 19.3453 21.6422 20.475 20.5172C21.6516 19.3453 21.7266 19.2328 21.7266 18.6328C21.7219 18.1266 21.6562 17.9953 20.9344 17.0672C20.6062 16.6453 20.325 16.275 20.3156 16.2469C20.3062 16.2187 20.3766 16.0031 20.475 15.7734C20.5781 15.5391 20.6953 15.2391 20.7375 15.1031C20.7844 14.9719 20.8359 14.8594 20.8594 14.8594C20.9906 14.8594 22.7906 14.6109 22.9453 14.5734C23.1984 14.5078 23.5219 14.2828 23.7094 14.0391C23.9953 13.6641 24.0047 13.5844 23.9906 11.925C23.9766 10.4719 23.9719 10.425 23.8687 10.2094C23.8078 10.0875 23.6766 9.90469 23.5734 9.80156C23.25 9.47812 23.0672 9.42187 21.8953 9.26719C21.3141 9.19219 20.8359 9.12656 20.8312 9.12187C20.7375 8.89687 20.3297 7.87969 20.3156 7.82812C20.3016 7.78594 20.5547 7.41562 20.9297 6.9375C21.4781 6.23438 21.5812 6.07031 21.6656 5.79844C21.7781 5.42344 21.7594 5.08594 21.6047 4.73906C21.4687 4.425 19.5703 2.52656 19.2609 2.39531C18.9047 2.24062 18.5766 2.22187 18.2016 2.33437C17.9297 2.41875 17.7656 2.52187 17.0672 3.07031C16.6172 3.41719 16.2328 3.70312 16.2187 3.70312C16.2 3.70312 15.9984 3.62344 15.7687 3.52031C15.5391 3.42188 15.2391 3.30469 15.1078 3.2625C14.9719 3.21562 14.8594 3.15469 14.8594 3.12656C14.8594 3.09375 14.7984 2.61562 14.7234 2.05781C14.5781 0.928123 14.5172 0.75 14.1937 0.426561C14.0859 0.318748 13.8984 0.1875 13.7812 0.126562C13.5797 0.0281239 13.5187 0.0234375 12.0469 0.014061C10.8234 0.00468636 10.4859 0.0187492 10.3453 0.0703125ZM13.4016 1.14844C13.4766 1.21406 13.5516 1.30781 13.5656 1.35C13.5797 1.39219 13.6547 1.94062 13.7344 2.56406C13.8141 3.1875 13.8937 3.75 13.9172 3.81094C13.9781 3.975 14.0484 4.0125 14.5828 4.19531C14.85 4.28906 15.3094 4.48125 15.6047 4.62187C16.1437 4.87969 16.3312 4.91719 16.5141 4.81875C16.5703 4.79062 16.9359 4.51875 17.3203 4.21875C18.4922 3.30469 18.4594 3.32812 18.6469 3.32812C18.8062 3.32812 18.8812 3.38906 19.7437 4.25625C20.6016 5.11406 20.6719 5.19375 20.6719 5.34844C20.6719 5.54062 20.6437 5.58281 19.8047 6.65625C19.4906 7.05937 19.2047 7.43437 19.1766 7.49062C19.0828 7.66875 19.125 7.86094 19.3781 8.39531C19.5187 8.69062 19.7109 9.15 19.8047 9.41719C19.9875 9.94687 20.025 10.0219 20.1891 10.0828C20.2453 10.1016 20.8078 10.1859 21.4312 10.2656C22.0594 10.3453 22.6078 10.4203 22.65 10.4344C22.6922 10.4484 22.7859 10.5234 22.8516 10.5984L22.9687 10.7437V12V13.2562L22.8516 13.4016C22.7859 13.4766 22.6922 13.5516 22.65 13.5656C22.6078 13.5797 22.0547 13.6547 21.4266 13.7344C20.7984 13.8141 20.2406 13.8984 20.1844 13.9219C20.0297 13.9781 19.9828 14.0531 19.8047 14.5828C19.7109 14.85 19.5187 15.3094 19.3781 15.6047C19.125 16.1391 19.0828 16.3312 19.1766 16.5094C19.2047 16.5656 19.4766 16.9266 19.7812 17.3156C20.7047 18.5109 20.6719 18.4594 20.6719 18.6469C20.6719 18.8062 20.6109 18.8812 19.7437 19.7437C18.8859 20.6016 18.8062 20.6719 18.6516 20.6719C18.4594 20.6719 18.4172 20.6437 17.3437 19.8047C16.9406 19.4906 16.5656 19.2047 16.5094 19.1766C16.3312 19.0828 16.1391 19.125 15.6047 19.3781C15.3094 19.5187 14.85 19.7109 14.5828 19.8047C14.0531 19.9875 13.9781 20.025 13.9172 20.1891C13.8984 20.2453 13.8141 20.8078 13.7344 21.4312C13.6547 22.0594 13.5797 22.6078 13.5656 22.65C13.5516 22.6922 13.4766 22.7859 13.4016 22.8516L13.2562 22.9688H12H10.7437L10.5984 22.8516C10.5234 22.7859 10.4484 22.6922 10.4344 22.65C10.4203 22.6078 10.3453 22.0594 10.2656 21.4312C10.1859 20.8078 10.1016 20.2453 10.0828 20.1891C10.0219 20.025 9.94687 19.9875 9.41719 19.8047C9.15 19.7109 8.69062 19.5187 8.39531 19.3781C7.85625 19.1203 7.66875 19.0828 7.48594 19.1812C7.42969 19.2094 7.06875 19.4812 6.67969 19.7812C5.50781 20.6953 5.54062 20.6719 5.35312 20.6719C5.19375 20.6719 5.11875 20.6109 4.25625 19.7437C3.39844 18.8859 3.32812 18.8062 3.32812 18.6516C3.32812 18.4594 3.35625 18.4172 4.19531 17.3437C4.50937 16.9406 4.79531 16.5656 4.82344 16.5094C4.91719 16.3312 4.875 16.1391 4.62187 15.6047C4.48125 15.3094 4.28906 14.85 4.19531 14.5828C4.0125 14.0531 3.975 13.9781 3.81094 13.9172C3.75469 13.8984 3.19219 13.8141 2.56875 13.7344C1.94062 13.6547 1.39219 13.5797 1.35 13.5656C1.30781 13.5516 1.21406 13.4766 1.14844 13.4016L1.03125 13.2562V12V10.7437L1.14844 10.5984C1.21406 10.5234 1.30781 10.4484 1.35 10.4344C1.39219 10.4203 1.94062 10.3453 2.56406 10.2656C3.1875 10.1859 3.75 10.1062 3.81094 10.0828C3.975 10.0219 4.0125 9.95156 4.19531 9.41719C4.28906 9.15 4.48125 8.69062 4.62187 8.39531C4.875 7.86094 4.91719 7.66875 4.82344 7.49062C4.79531 7.43437 4.50937 7.05937 4.19531 6.65625C3.35625 5.58281 3.32812 5.54062 3.32812 5.34844C3.32812 5.19375 3.39844 5.11406 4.25625 4.25625C5.11875 3.38906 5.19375 3.32812 5.35312 3.32812C5.54062 3.32812 5.50781 3.30469 6.67969 4.21875C7.06875 4.51875 7.42969 4.79062 7.48594 4.81875C7.67344 4.92188 7.85625 4.87969 8.44219 4.59844C8.76094 4.44844 9.20156 4.26562 9.42187 4.19531C9.89531 4.04531 10.0219 3.97031 10.0781 3.82031C10.1016 3.75469 10.1859 3.19219 10.2656 2.56875C10.3453 1.94062 10.4203 1.39219 10.4344 1.35C10.4484 1.30781 10.5234 1.21406 10.5984 1.14844L10.7437 1.03125H12H13.2562L13.4016 1.14844Z" fill="#455A64"/>
<path d="M11.128 7.04984C10.6124 7.14828 10.2749 7.25609 9.81554 7.4764C8.50303 8.10453 7.52335 9.29515 7.13428 10.7342C7.03116 11.128 7.01241 11.2733 7.01241 11.9764C7.00772 12.8905 7.08272 13.2748 7.39678 14.0014C7.64991 14.592 7.96397 15.0467 8.45616 15.5436C9.14053 16.2233 9.85772 16.6311 10.8046 16.8795C11.3999 17.0342 12.5765 17.0389 13.1765 16.8889C14.9812 16.4342 16.3827 15.0561 16.8655 13.2748C16.9733 12.867 16.9874 12.7358 16.9874 11.9998C16.9874 11.2639 16.9733 11.1327 16.8655 10.7295C16.3921 8.97172 15.014 7.59359 13.2749 7.1389C12.7124 6.99359 11.6577 6.9514 11.128 7.04984ZM13.0499 8.17953C14.428 8.57797 15.403 9.55297 15.8249 10.9545C15.9327 11.3108 15.9515 11.4514 15.9515 11.9998C15.9515 12.5483 15.9327 12.6889 15.8249 13.0452C15.403 14.4467 14.4468 15.403 13.0452 15.8248C12.689 15.9327 12.5483 15.9514 11.9999 15.9514C11.4515 15.9514 11.3108 15.9327 10.9546 15.8248C9.55304 15.403 8.59679 14.4467 8.17491 13.0452C8.0671 12.6889 8.04835 12.5483 8.04835 11.9998C8.04835 11.4514 8.0671 11.3108 8.17491 10.9545C8.64366 9.39359 9.87178 8.31078 11.4515 8.05765C11.8687 7.99203 12.5952 8.04828 13.0499 8.17953Z" fill="#455A64"/>
</g>
<defs>
<clipPath id="clip0_2_6570">
<rect width="24" height="24" fill="white"/>
</clipPath>
</defs>
</svg>
