<svg width="24" height="24" viewBox="0 0 24 24" fill="none" xmlns="http://www.w3.org/2000/svg">
<g clip-path="url(#clip0_225_1998)">
<path d="M10.8047 0.0326162C7.65938 0.370116 4.80937 1.8748 2.80312 4.26543C1.39219 5.94355 0.515625 7.84668 0.126562 10.0779C0.0374998 10.5889 0.0281248 10.8373 0.0281248 11.9998C0.0281248 13.1623 0.0374998 13.4107 0.126562 13.9217C0.567187 16.4529 1.62656 18.5482 3.375 20.3623C5.17031 22.2279 7.43438 23.4092 10.0781 23.8732C10.5891 23.9623 10.8375 23.9717 12 23.9717C13.4672 23.9717 13.9078 23.9248 15.0609 23.6295C19.1953 22.5607 22.5609 19.1951 23.6297 15.0607C23.925 13.9076 23.9719 13.467 23.9719 11.9998C23.9719 10.5326 23.925 10.092 23.6297 8.93887C22.5609 4.80918 19.1953 1.43887 15.0609 0.370116C13.9969 0.0982412 13.4953 0.0373037 12.1875 0.0232412C11.5313 0.0138662 10.9078 0.0185537 10.8047 0.0326162ZM10.3969 6.11699C10.6172 6.21074 15.6516 11.2217 15.8344 11.5311C16.0078 11.8217 16.0078 12.1779 15.8344 12.4686C15.6516 12.7779 10.6172 17.7889 10.3969 17.8826C10.0547 18.0232 9.59531 17.9436 9.33281 17.7045C9.07031 17.4607 8.97188 16.9592 9.12188 16.6029C9.16875 16.4857 9.89531 15.7264 11.4047 14.2123L13.6172 11.9998L11.4047 9.78262C9.89531 8.27324 9.16875 7.51387 9.12188 7.39668C8.97656 7.05449 9.05625 6.59512 9.29531 6.33262C9.53906 6.07012 10.0406 5.97168 10.3969 6.11699Z" fill="#095FBA"/>
</g>
<defs>
<clipPath id="clip0_225_1998">
<rect width="24" height="24" fill="white"/>
</clipPath>
</defs>
</svg>
