<svg width="26" height="26" viewBox="0 0 26 26" fill="none" xmlns="http://www.w3.org/2000/svg">
<path d="M11.8019 1.01428C8.64918 1.35244 5.79248 2.86006 3.78152 5.25534C2.36727 6.93674 1.48865 8.84357 1.09867 11.0792C1.0094 11.5911 1 11.84 1 13.0048C1 14.1696 1.0094 14.4185 1.09867 14.9304C1.54033 17.4666 2.60219 19.566 4.35474 21.3836C6.15427 23.2529 8.42365 24.4364 11.0736 24.9014C11.5857 24.9906 11.8348 25 13 25C14.4706 25 14.9123 24.953 16.0681 24.6571C20.2122 23.5863 23.5857 20.2141 24.657 16.0717C24.953 14.9163 25 14.4748 25 13.0048C25 11.5347 24.953 11.0933 24.657 9.93789C23.5857 5.80015 20.2122 2.42327 16.0681 1.35244C15.0016 1.08003 14.4988 1.01898 13.1879 1.00489C12.5301 0.995493 11.9052 1.00019 11.8019 1.01428ZM11.3931 7.11051C11.6139 7.20445 16.6601 12.2252 16.8434 12.5351C17.0172 12.8263 17.0172 13.1833 16.8434 13.4745C16.6601 13.7844 11.6139 18.8051 11.3931 18.8991C11.0501 19.04 10.5897 18.9601 10.3265 18.7206C10.0634 18.4764 9.96476 17.9738 10.1151 17.6169C10.1621 17.4995 10.8904 16.7386 12.4033 15.2216L14.621 13.0048L12.4033 10.7833C10.8904 9.27097 10.1621 8.51011 10.1151 8.39269C9.96946 8.04984 10.0493 7.58957 10.289 7.32656C10.5333 7.06355 11.036 6.96492 11.3931 7.11051Z" fill="white" stroke="#095FBA" stroke-width="0.5"/>
</svg>
