<svg width="24" height="24" viewBox="0 0 24 24" fill="none" xmlns="http://www.w3.org/2000/svg">
<path d="M10.5844 0.0703144C9.13131 0.276564 7.91256 0.675001 6.45006 1.425C5.63913 1.8375 5.39069 2.025 5.39069 2.21719C5.39069 2.28281 5.51725 2.6625 5.67194 3.05625C5.82663 3.45 5.95319 3.80625 5.95319 3.85313C5.95319 3.89531 5.59225 5.23594 5.15631 6.83438C4.70631 8.46563 4.336 9.91406 4.30788 10.1297C4.17194 11.2406 4.63131 12.4594 5.47975 13.2234C6.01881 13.7109 6.55788 13.9688 7.39694 14.1328C7.68756 14.1938 7.936 14.25 7.94538 14.2594C7.95475 14.2688 7.25631 14.5688 6.38444 14.925C5.51725 15.2813 4.66881 15.6469 4.50006 15.7406C3.33288 16.3734 2.45631 17.4563 2.09069 18.7125C1.8985 19.3781 1.87038 19.8422 1.88444 21.9047L1.8985 23.8219L2.011 23.9109C2.11881 24 2.34381 24 11.9954 24H21.8766L21.9751 23.8922C22.0782 23.7844 22.0782 23.775 22.0782 21.7172C22.0782 20.1141 22.0641 19.5656 22.0079 19.2609C21.7407 17.7141 20.7469 16.3781 19.3594 15.6797C19.2188 15.6094 18.4173 15.2672 17.5782 14.9203C16.7391 14.5734 16.0501 14.2828 16.0407 14.2734C16.0313 14.2641 16.1813 14.2359 16.3688 14.2031C17.0063 14.1 17.3204 14.0109 17.7891 13.7813C18.2954 13.5375 18.7782 13.1391 19.0969 12.7125C19.636 11.9766 19.9032 10.9594 19.786 10.0969C19.7485 9.825 18.4219 4.87031 18.061 3.65156C18.0516 3.61406 18.1688 3.3 18.3235 2.95781C18.4829 2.62031 18.6094 2.28281 18.6094 2.21719C18.6094 2.01094 18.3329 1.81406 17.3813 1.34063C16.0829 0.698439 15.0798 0.351564 13.8751 0.140627C13.1251 0.00468826 11.3063 -0.0328102 10.5844 0.0703144ZM13.6876 0.881252C14.3251 0.99844 15.0704 1.20469 15.6985 1.43438C16.1485 1.60313 17.4798 2.23125 17.6391 2.35313C17.7188 2.41406 17.686 2.49844 17.0907 3.79688C16.7391 4.55156 16.4438 5.18438 16.4298 5.19375C16.4204 5.20781 16.2891 5.17031 16.1485 5.11875C16.0032 5.0625 15.6657 4.95469 15.3985 4.875C13.0266 4.18594 10.3923 4.25156 7.83756 5.07188C7.59381 5.14688 7.37819 5.19375 7.35944 5.17031C7.32194 5.12813 6.28131 2.47969 6.28131 2.42813C6.28131 2.38125 7.01725 1.9875 7.58913 1.73438C8.59225 1.28438 9.67506 0.965626 10.6876 0.825001C11.4048 0.721876 12.9704 0.754688 13.6876 0.881252ZM18.2766 7.36875C19.0829 10.2938 19.111 10.4625 18.9657 11.1281C18.8438 11.6719 18.6048 12.0984 18.1876 12.525C17.6485 13.0734 17.161 13.2797 15.9469 13.4766L15.7501 13.5094L16.0313 13.0922C16.3829 12.5672 16.6079 12.0563 16.7438 11.475L16.8469 11.0203L17.161 10.9219C17.5641 10.8 17.9344 10.4766 18.1266 10.0875C18.2391 9.85313 18.2532 9.76406 18.2532 9.375C18.2532 8.85938 18.1688 8.62031 17.8735 8.29219C17.5594 7.94531 17.1001 7.73438 16.6594 7.73438C16.5282 7.73438 15.4735 7.425 13.6548 6.84844C12.1126 6.36094 10.7907 5.94844 10.7157 5.93438C10.336 5.84531 9.86725 6.09375 9.55788 6.54375C9.20631 7.05938 8.43288 7.71094 7.78131 8.03906C7.54225 8.15625 7.40163 8.19375 7.12506 8.2125C6.56256 8.25 6.15475 8.5125 5.92038 8.99063C5.75163 9.3375 5.73756 9.84375 5.88756 10.1766C6.09381 10.6172 6.50631 10.9359 6.95631 10.9969L7.15788 11.025L7.27975 11.5219C7.42038 12.075 7.76256 12.8203 8.06256 13.2141C8.17038 13.35 8.25006 13.4672 8.24069 13.4766C8.20319 13.5141 7.186 13.2984 6.91413 13.1953C6.03756 12.8672 5.3485 12.075 5.12819 11.1328C4.98288 10.4953 5.02038 10.275 5.76569 7.55625C6.136 6.21094 6.45475 5.12344 6.46881 5.14219C6.48756 5.16563 6.56256 5.33906 6.63288 5.53125C6.78756 5.94844 6.90475 6.09375 7.08756 6.09375C7.16256 6.09375 7.46725 6.00938 7.77194 5.91094C10.7438 4.91719 13.5751 4.93125 16.1485 5.95313C16.5516 6.1125 16.7298 6.12656 16.8657 6.00938C16.9219 5.96719 17.086 5.6625 17.2313 5.32969C17.3813 5.00156 17.5126 4.73438 17.5266 4.73438C17.5454 4.73438 17.8829 5.92031 18.2766 7.36875ZM13.4063 7.58906L16.1016 8.46563L16.1157 9.36563C16.1251 10.1344 16.1157 10.2844 16.0501 10.3828C15.9938 10.4672 15.9844 10.5516 16.0032 10.6969C16.0735 11.1656 15.9751 11.6016 15.6563 12.2344C15.3094 12.9188 14.6579 13.6406 14.3766 13.6406C14.2923 13.6406 14.1938 13.6922 14.1001 13.7813C14.0251 13.8563 13.9219 13.9219 13.8751 13.9219C13.8282 13.9219 13.7391 13.9828 13.6782 14.0578C13.5985 14.1563 13.4626 14.2313 13.1719 14.325C12.8063 14.4469 12.7126 14.4563 12.0469 14.4563C11.236 14.4609 10.9173 14.4 10.4344 14.1563C10.2844 14.0766 10.1298 14.0156 10.0969 14.0156C10.0641 14.0156 9.96569 13.9547 9.88131 13.8797C9.79694 13.8094 9.65631 13.7109 9.57194 13.6688C9.35631 13.5609 8.86881 13.0641 8.63913 12.7219C8.38131 12.3422 8.236 12.0422 8.09538 11.6016C7.95006 11.1375 7.936 10.9922 8.011 10.7719C8.06256 10.6219 8.05788 10.5703 7.99694 10.4484C7.936 10.3313 7.92194 10.1391 7.92194 9.58125V8.85938L8.14694 8.74688C8.84538 8.39063 9.67506 7.69688 10.1626 7.05469C10.4157 6.72188 10.4391 6.70313 10.5938 6.70781C10.6594 6.70781 11.9251 7.10625 13.4063 7.58906ZM17.2266 8.77969C17.4798 9.03281 17.5548 9.27656 17.4798 9.59063C17.4188 9.82969 17.1563 10.1344 16.9782 10.1813C16.8751 10.2094 16.8751 10.2047 16.8751 9.39375C16.8751 8.45625 16.8844 8.4375 17.2266 8.77969ZM7.12506 9.60938C7.12506 10.1906 7.12038 10.2188 7.03131 10.2188C6.97975 10.2188 6.86256 10.1484 6.76881 10.0641C6.47819 9.79688 6.50163 9.35156 6.82506 9.09844C6.89538 9.04219 6.98913 9 7.036 9C7.12038 9 7.12506 9.04688 7.12506 9.60938ZM9.64225 14.6156C9.71256 14.6719 10.036 15.4594 10.6829 17.1469L11.6251 19.5984V21.4266V23.25H7.1485H2.67194V21.4031C2.67194 19.6078 2.67663 19.5469 2.78444 19.1109C3.07975 17.9438 3.86725 16.95 4.92194 16.4063C5.27819 16.2188 9.34694 14.5406 9.44538 14.5359C9.49694 14.5359 9.586 14.5688 9.64225 14.6156ZM16.7579 15.4219C17.9438 15.9141 19.0735 16.4016 19.2657 16.5141C19.7438 16.7813 20.4329 17.475 20.7282 17.9813C20.9719 18.3984 21.2016 19.0359 21.2766 19.5C21.3048 19.6734 21.3282 20.5547 21.3282 21.525V23.25H16.8516H12.3751V21.4219V19.5891L13.3266 17.1281C14.1235 15.0563 14.2923 14.6531 14.3907 14.5969C14.4563 14.5641 14.5313 14.5359 14.5548 14.5313C14.5829 14.5313 15.5719 14.9344 16.7579 15.4219ZM11.1657 15.1453C11.5688 15.225 12.5579 15.2109 12.9516 15.1266C13.2469 15.0609 13.2704 15.0609 13.2469 15.1359C12.9751 15.9047 12.0141 18.3141 11.9907 18.2906C11.9579 18.2578 10.7344 15.1078 10.7344 15.0609C10.7344 15.0469 10.7626 15.0469 10.8001 15.0609C10.8376 15.075 11.0016 15.1125 11.1657 15.1453Z" fill="#455A64"/>
<path d="M11.7283 1.4813C11.6345 1.54224 11.6251 1.5938 11.6251 1.9313V2.31099L11.2173 2.28286C10.8189 2.25942 10.8095 2.26411 10.6783 2.39067C10.5095 2.56411 10.5048 2.77036 10.6642 2.92974C10.7673 3.03755 10.8142 3.04692 11.2033 3.04692H11.6251V3.40317C11.6251 3.59536 11.6439 3.79692 11.672 3.8438C11.733 3.96099 11.9767 4.03599 12.1126 3.98442C12.3095 3.90942 12.3751 3.75942 12.3751 3.38911V3.04692H12.7033C12.9939 3.04692 13.0501 3.03286 13.1486 2.92974C13.2939 2.78911 13.2986 2.58755 13.1673 2.4188C13.0783 2.3063 13.0455 2.29692 12.722 2.29692H12.3751V1.95474C12.3751 1.65474 12.3611 1.59849 12.2673 1.50942C12.1361 1.38755 11.883 1.37349 11.7283 1.4813Z" fill="#455A64"/>
<path d="M9.24856 9.06095C9.10325 9.19688 9.07513 9.25314 9.05638 9.47814C9.03294 9.78751 9.122 9.99376 9.34231 10.125C9.52513 10.2375 9.84388 10.2469 10.0361 10.1484C10.3548 9.9797 10.4626 9.49689 10.2517 9.18282C10.1111 8.97657 9.97044 8.90626 9.66575 8.90626C9.45481 8.90626 9.39856 8.92501 9.24856 9.06095Z" fill="#455A64"/>
<path d="M13.6547 8.99999C13.2469 9.24374 13.2656 9.92811 13.6828 10.1484C13.8563 10.2375 14.1656 10.2375 14.3344 10.1531C14.7563 9.9328 14.8219 9.3703 14.4609 9.05155C14.3203 8.92968 14.2547 8.90624 14.0484 8.90624C13.8891 8.90624 13.7531 8.93905 13.6547 8.99999Z" fill="#455A64"/>
<path d="M10.5611 11.8125C10.3829 11.8828 10.2892 12.075 10.3407 12.2719C10.3782 12.4266 10.4204 12.4641 10.7392 12.6234C11.1001 12.8016 11.6532 12.9375 12.0142 12.9375C12.5954 12.9328 13.4954 12.5859 13.5845 12.3328C13.6689 12.0938 13.5564 11.85 13.3314 11.7938C13.2564 11.775 13.1064 11.8172 12.8579 11.9391C12.5017 12.1125 12.4782 12.1172 11.9767 12.1172C11.4751 12.1172 11.4517 12.1125 11.1095 11.9391C10.7345 11.7516 10.7157 11.7516 10.5611 11.8125Z" fill="#455A64"/>
</svg>
