<svg width="48" height="48" viewBox="0 0 48 48" fill="none" xmlns="http://www.w3.org/2000/svg">
<g clip-path="url(#clip0_39_3904)">
<path d="M15.3751 0.196873C10.9407 1.125 7.44385 4.725 6.45947 9.40312C6.1876 10.65 6.16885 12.9562 6.40322 14.1562C6.81572 16.2469 7.71572 18.1781 8.97197 19.6594C9.44072 20.2125 9.4501 20.2406 9.25322 20.3062C8.85947 20.4281 7.40635 21.2906 6.6376 21.8625C3.45947 24.2062 1.19072 27.7875 0.271973 31.9219C0.0750977 32.8125 0.0563477 33.0937 0.0282227 38.0531L-0.00927734 43.2375L0.196973 43.4625L0.403223 43.6875H12.5532H24.7032L24.9751 44.025C25.2938 44.4187 25.7251 44.625 26.2501 44.625C26.7095 44.625 26.9626 44.5031 27.9845 43.7719C28.4157 43.4625 28.8095 43.2281 28.8563 43.2562C28.9032 43.2844 28.8657 43.6969 28.772 44.175C28.5376 45.375 28.547 45.9937 28.7907 46.4062C29.0157 46.7625 29.1938 46.9312 29.5032 47.0625C29.8595 47.2125 34.2657 48 34.7345 48C35.7751 48 36.1782 47.5219 36.4595 45.9375C36.572 45.3469 36.6563 44.8312 36.6563 44.7937C36.6563 44.5594 36.9095 44.8312 37.5188 45.7031C38.3251 46.8562 38.7001 47.1187 39.4688 47.0437C39.8626 47.0062 40.1345 46.8469 41.7845 45.7031C44.2407 43.9875 44.3907 43.8656 44.5782 43.3594C44.8407 42.675 44.7376 42.2906 43.9782 41.1844C43.6126 40.65 43.3126 40.1719 43.3126 40.125C43.3126 39.9937 43.4063 40.0031 44.5313 40.2281C45.1501 40.3406 45.6657 40.3969 45.9095 40.3594C46.3595 40.2937 46.8095 39.9656 47.0251 39.5437C47.2032 39.2062 48.0001 34.8187 48.0001 34.1906C48.0001 33.6469 47.7938 33.1781 47.4282 32.8687C47.1751 32.6531 46.8095 32.55 45.2532 32.25C44.9532 32.1844 44.7188 32.1 44.7376 32.0437C44.7563 31.9875 45.197 31.6406 45.7032 31.275C46.8188 30.4875 47.1001 30.0656 47.0345 29.3062C46.997 28.9031 46.8282 28.6125 45.497 26.6344C44.1845 24.6844 43.9595 24.3937 43.5938 24.2156C43.1063 23.9625 42.572 23.9437 42.1782 24.15C42.0188 24.225 41.5313 24.5531 41.0907 24.8625C40.6501 25.1719 40.2657 25.3875 40.2188 25.35C40.172 25.3031 40.2282 24.8438 40.322 24.3281C40.5376 23.2312 40.5188 22.5 40.2563 22.1531C39.8532 21.6094 39.6657 21.5437 37.1532 21.075C35.822 20.8312 34.547 20.625 34.322 20.625C33.7782 20.625 33.1688 20.9812 32.9626 21.4125C32.8407 21.6656 32.447 23.5031 32.4376 23.8312C32.4376 24.0938 32.1282 23.7844 31.6501 23.0625C31.3501 22.5937 30.9563 22.0875 30.7876 21.9375C30.3751 21.5719 29.7657 21.4875 29.2032 21.7031L28.7813 21.8625L28.1532 21.4406C27.797 21.2062 27.1782 20.8406 26.7657 20.6156C26.3532 20.4 25.997 20.2031 25.9782 20.1937C25.9595 20.175 26.1376 19.9406 26.372 19.6687C27.6001 18.2156 28.472 16.3594 28.9313 14.2031C29.1751 13.0594 29.1563 10.65 28.8845 9.40312C27.8813 4.6875 24.3845 1.09687 19.9032 0.196873C18.6188 -0.0656281 16.6407 -0.0656281 15.3751 0.196873ZM19.2282 1.74375C21.2532 2.09062 23.0345 3.0375 24.5157 4.55625C25.7345 5.79375 26.7095 7.5375 27.1501 9.25312C27.4688 10.4812 27.5532 12.4219 27.347 13.6406C26.972 15.7969 26.0532 17.6062 24.5626 19.1625C23.2595 20.5125 21.7032 21.4312 19.8938 21.9094C19.1345 22.1062 18.7688 22.1437 17.672 22.1437C16.5563 22.1531 16.2188 22.1156 15.4501 21.9094C11.5782 20.8875 8.70947 17.7 7.99697 13.6406C7.79072 12.4219 7.8751 10.4812 8.19385 9.25312C8.64385 7.49062 9.61885 5.775 10.8657 4.51875C13.1251 2.24062 16.1813 1.22812 19.2282 1.74375ZM11.4095 21.9C15.1407 24.4594 20.2032 24.4594 23.9345 21.9C24.2813 21.6656 24.6095 21.4687 24.6563 21.4687C24.797 21.4687 26.522 22.3594 26.9626 22.6594L27.347 22.9219L26.072 23.8125C25.022 24.5437 24.7595 24.7781 24.5813 25.125C24.2157 25.8281 24.3095 26.2406 25.1251 27.4688C25.5001 28.0406 25.7813 28.5281 25.7438 28.5656C25.7157 28.6031 25.1813 28.5281 24.5626 28.4156C23.3063 28.1812 22.9126 28.2281 22.4157 28.65C22.022 28.9781 21.9095 29.3719 21.422 32.1187C20.9251 34.9125 20.9345 35.1281 21.5251 35.6906C21.8438 35.9906 22.0313 36.0469 23.747 36.375C24.0657 36.4406 24.2813 36.525 24.2532 36.5906C24.2345 36.6469 23.822 36.9937 23.3438 37.35C22.2376 38.1844 22.0313 38.4656 22.0313 39.1969C22.0313 39.7312 22.0501 39.7781 22.8282 40.9219L23.6345 42.0938H16.6688H9.70322V39.8812V37.6687L9.44072 37.4437C9.08447 37.1437 8.59697 37.1437 8.29697 37.4531L8.0626 37.6781V39.8906V42.0938H4.82822H1.59385V38.2687C1.59385 33.5906 1.69697 32.5969 2.4001 30.4688C3.42197 27.3844 5.5126 24.6094 8.1751 22.8187C8.82197 22.3875 10.5376 21.4687 10.7063 21.4687C10.7438 21.4687 11.0626 21.6656 11.4095 21.9ZM38.8032 23.1281C38.8313 23.1469 38.7563 23.6812 38.6438 24.3187C38.4282 25.5469 38.3907 26.0344 38.5126 26.2312C38.6626 26.4656 39.9001 27.2062 40.2188 27.2531C40.472 27.2906 40.6313 27.2437 40.922 27.0281C41.1282 26.8781 41.6438 26.5125 42.0657 26.2219L42.8345 25.6781L44.1001 27.5719L45.3657 29.4656L44.2501 30.2531C43.6313 30.6844 43.0782 31.1344 43.022 31.2375C42.8626 31.5375 43.1813 33.1594 43.4532 33.4312C43.6032 33.5812 43.9782 33.6937 45.0282 33.8906C45.7876 34.0312 46.4063 34.1531 46.4063 34.1719C46.4063 34.2937 45.5626 38.6531 45.5345 38.6906C45.5063 38.7094 44.9157 38.6156 44.222 38.4844C43.5095 38.3531 42.8438 38.2687 42.7032 38.3062C42.4501 38.3719 42.4126 38.4094 41.8501 39.2812C41.297 40.125 41.3063 40.1906 42.2157 41.5687L43.0126 42.7875L42.0188 43.4906C41.4657 43.875 40.6407 44.4562 40.172 44.7844L39.3282 45.375L39.1876 45.1687C38.222 43.7437 37.7251 43.0969 37.5376 43.0125C37.1813 42.8438 35.5782 43.1719 35.3532 43.4625C35.2501 43.5938 35.0907 44.2031 34.9313 45.0469C34.7532 45.9469 34.6313 46.4062 34.5563 46.3781C34.5001 46.3594 33.497 46.1531 32.3157 45.9281C31.0126 45.6844 30.197 45.4875 30.2251 45.4219C30.2438 45.3656 30.3563 44.7469 30.4782 44.0437C30.647 43.0312 30.6751 42.7219 30.5907 42.5344C30.4501 42.2344 29.1001 41.3437 28.772 41.3437C28.6126 41.3437 28.1157 41.6344 27.3845 42.15C26.747 42.5906 26.222 42.9375 26.2126 42.9187C25.8376 42.4781 23.7282 39.1406 23.7845 39.0938C23.822 39.0562 24.3095 38.7 24.872 38.3062C25.4251 37.9031 25.922 37.4906 25.9782 37.3875C26.0626 37.2375 26.0532 37.0219 25.9688 36.525C25.8001 35.55 25.697 35.2594 25.4626 35.1094C25.3407 35.025 24.6845 34.8562 23.9907 34.7156C23.297 34.5844 22.7251 34.4625 22.7157 34.4531C22.6782 34.4344 23.5126 29.9812 23.5595 29.9437C23.5782 29.925 24.1407 30.0094 24.8063 30.1406C25.472 30.2719 26.1095 30.375 26.2313 30.375C26.4938 30.375 26.8407 30.0281 27.2626 29.3344C27.7876 28.4906 27.7782 28.425 26.9157 27.1125C26.4938 26.4844 26.1563 25.9312 26.1563 25.8844C26.1563 25.8375 26.7751 25.3594 27.5438 24.8344C28.3032 24.3 29.1188 23.7281 29.3532 23.5594L29.7845 23.25L30.3845 24.1594C30.7126 24.6656 31.1063 25.2094 31.2563 25.3781C31.5657 25.7344 31.7532 25.7625 32.8126 25.5469C33.797 25.3406 33.8532 25.2656 34.1626 23.6062L34.4157 22.2562L36.5907 22.6687C37.7907 22.9031 38.7845 23.1094 38.8032 23.1281Z" fill="#095FBA"/>
<path d="M33.5156 28.7822C31.5843 29.1759 29.9906 30.5916 29.3249 32.5228C29.0343 33.3478 29.0156 35.1197 29.2874 35.9072C29.8031 37.4259 30.8249 38.6259 32.1562 39.2634C33.3749 39.8447 34.3874 39.9759 35.6718 39.7041C36.6656 39.4978 37.6031 38.9916 38.3437 38.2603C39.4124 37.2009 39.9187 36.0853 40.0031 34.5947C40.0968 32.9259 39.5343 31.4634 38.3343 30.2541C37.1062 29.0259 35.2031 28.4447 33.5156 28.7822ZM36.1874 30.7228C37.2749 31.2572 38.1374 32.4572 38.3343 33.7322C38.5968 35.3728 37.6687 37.0791 36.1124 37.8103C35.5312 38.0916 35.4093 38.1103 34.4999 38.1103C33.5999 38.1103 33.4687 38.0822 32.9531 37.8384C31.4437 37.0978 30.4593 35.2416 30.7499 33.6759C30.8906 32.8791 31.4249 31.8666 31.9499 31.3978C33.1499 30.3291 34.8281 30.0666 36.1874 30.7228Z" fill="#095FBA"/>
</g>
<defs>
<clipPath id="clip0_39_3904">
<rect width="48" height="48" fill="white"/>
</clipPath>
</defs>
</svg>
