<svg width="48" height="48" viewBox="0 0 48 48" fill="none" xmlns="http://www.w3.org/2000/svg">
<g clip-path="url(#clip0_181_2055)">
<path d="M10.2656 6.17813C8.02498 6.72188 6.14998 8.3625 5.2781 10.5C4.28435 12.9563 4.8281 16.1063 6.5531 17.9438C6.7406 18.1406 6.8531 18.3188 6.79685 18.3375C6.35623 18.5063 5.00623 19.3781 4.33123 19.9219C2.30623 21.5906 0.974976 23.7188 0.271851 26.4375C0.0749756 27.1781 0.0562256 27.4969 0.0281006 30.7969L-0.00939941 34.3594L0.234351 34.5938L0.487476 34.8281L4.59373 34.8563L8.70935 34.8844L8.73748 38.2031L8.7656 41.5125L8.9906 41.7563L9.2156 42H24H38.7843L39.0093 41.7563L39.2343 41.5125L39.2625 38.2031L39.2906 34.8844L43.4062 34.8563L47.5125 34.8281L47.7562 34.6031L48 34.3781V31.2C48 28.0688 47.9437 27.1969 47.6531 26.1563C46.7718 22.9125 44.6812 20.2219 41.8593 18.6938C41.5031 18.5063 41.1843 18.3281 41.1656 18.3094C41.1468 18.3 41.2968 18.1031 41.4937 17.8875C43.2 16.0406 43.7062 12.9469 42.7218 10.5C41.8406 8.325 39.8906 6.65625 37.6218 6.15C36.6656 5.93438 35.1843 5.95313 34.2656 6.1875C33.3281 6.43125 32.2875 6.9 32.0531 7.2C31.6312 7.74375 31.9968 8.53125 32.6718 8.53125C32.85 8.53125 33.2531 8.40938 33.5531 8.25938C35.6625 7.19063 38.1937 7.6125 39.9 9.31875C41.0625 10.4813 41.6156 11.9438 41.5031 13.575C41.3437 15.9094 39.8156 17.8125 37.5281 18.525C36.8437 18.7313 35.6812 18.7781 34.8562 18.6281C34.2843 18.525 34.0875 18.525 33.8625 18.6094C33.3656 18.825 33.2437 19.5563 33.6468 19.9594C33.9187 20.2313 34.8093 20.3906 36.0468 20.3906C37.3031 20.3813 37.9968 20.2406 38.9906 19.7719L39.6 19.4906L40.4906 19.9219C43.1062 21.1875 45.0656 23.4563 45.8906 26.1844C46.2562 27.4031 46.3125 28.0125 46.3125 30.6844V33.1875L42.7312 33.1688L39.1593 33.1406L38.9812 32.1188C38.6718 30.2813 37.8281 28.125 36.7687 26.4844C35.3812 24.3281 32.9812 22.1813 30.8718 21.1969L30.3937 20.9719L30.9937 20.1938C31.6781 19.2844 32.2406 18.1781 32.55 17.1094C32.7375 16.4531 32.7656 16.1625 32.7562 14.7656C32.7562 13.3125 32.7281 13.0969 32.5031 12.3469C31.5937 9.39375 29.4562 7.24688 26.4843 6.30938C25.6968 6.06563 25.5375 6.04688 24 6.04688C22.4531 6.04688 22.3125 6.06563 21.5156 6.31875C18.5343 7.26563 16.3968 9.39375 15.5062 12.3281C15.2718 13.0969 15.2437 13.3031 15.2437 14.7656C15.2343 16.1625 15.2625 16.4531 15.45 17.1094C15.7593 18.1781 16.3218 19.2844 17.0156 20.1938L17.6062 20.9813L17.2218 21.15C17.0062 21.2531 16.5 21.525 16.0968 21.7688C13.3218 23.4563 11.1281 26.0063 9.89997 28.9875C9.54373 29.8594 9.05623 31.6219 8.9531 32.3906C8.8406 33.2719 9.2531 33.1875 5.23123 33.1875H1.66873L1.7156 30.3C1.7531 27.525 1.76248 27.3938 2.00623 26.5406C2.52185 24.7313 3.39373 23.2313 4.68748 21.9375C5.59685 21.0375 6.48748 20.4 7.63123 19.8656L8.41873 19.5L9.00935 19.7813C10.0031 20.2406 10.7062 20.3813 11.9531 20.3906C13.1906 20.3906 14.0812 20.2313 14.3531 19.9594C14.7562 19.5563 14.6343 18.825 14.1375 18.6094C13.9218 18.525 13.725 18.525 13.1906 18.6188C11.8593 18.8531 10.7156 18.7219 9.64685 18.1875C7.74373 17.2406 6.63748 15.6281 6.49685 13.575C6.42185 12.5156 6.57185 11.7844 7.04998 10.7813C7.73435 9.35625 9.11248 8.23125 10.6593 7.82813C11.8218 7.52813 13.3406 7.69688 14.4468 8.25938C14.7468 8.40938 15.15 8.53125 15.3281 8.53125C16.0031 8.53125 16.3687 7.74375 15.9468 7.2C15.7125 6.9 14.6718 6.43125 13.7343 6.1875C12.7968 5.94375 11.2125 5.94375 10.2656 6.17813ZM26.0625 7.96875C28.0875 8.65313 29.475 9.85313 30.3656 11.6531C31.7437 14.4563 31.2468 17.5594 29.0625 19.7906C28.2468 20.6156 27.3375 21.1875 26.175 21.5906C25.4156 21.8625 25.275 21.8813 24 21.8813C22.725 21.8813 22.5843 21.8625 21.825 21.5906C19.7437 20.8688 18.1593 19.3875 17.3718 17.4375C16.6218 15.5625 16.7156 13.5281 17.6343 11.6531C18.525 9.84375 19.9875 8.59688 21.9375 7.97813C22.8093 7.70625 22.8937 7.69688 24.2343 7.73438C25.1906 7.75313 25.5843 7.80938 26.0625 7.96875ZM19.9031 22.6219C21.2531 23.3156 22.5093 23.625 24 23.625C25.5093 23.625 26.6531 23.3438 28.0968 22.6219L28.9593 22.1906L29.7843 22.5844C33.6093 24.4219 36.4218 27.9938 37.2656 32.1C37.4906 33.2344 37.5937 34.8656 37.5937 37.7063V40.3125H23.9906H10.3781L10.4343 36.9094C10.4718 34.4531 10.5187 33.2813 10.6312 32.6719C11.3906 28.2844 14.025 24.7125 17.9531 22.7344C18.525 22.4531 19.0125 22.2188 19.05 22.2188C19.0875 22.2188 19.4718 22.3969 19.9031 22.6219Z" fill="#095FBA"/>
</g>
<defs>
<clipPath id="clip0_181_2055">
<rect width="48" height="48" fill="white"/>
</clipPath>
</defs>
</svg>
