<svg width="48" height="48" viewBox="0 0 48 48" fill="none" xmlns="http://www.w3.org/2000/svg">
<path d="M22.0407 1.8375C19.8376 2.2125 17.6344 3.34688 16.0313 4.96875C11.6438 9.375 11.5594 16.3875 15.8532 20.8594C17.5313 22.6125 19.6501 23.7188 22.1532 24.15C23.4376 24.375 25.6126 24.2906 26.8407 23.9719C28.8188 23.4469 30.4969 22.4813 31.9782 21.0094C33.9282 19.0594 34.9782 16.8469 35.2594 14.0625C35.5032 11.7094 34.9501 9.23437 33.7313 7.19062C32.0438 4.35 28.8844 2.24063 25.6501 1.79063C24.6751 1.65 23.0063 1.67813 22.0407 1.8375ZM25.6876 3.80625C29.3719 4.5 32.2876 7.32187 33.1501 11.0156C33.3938 12.0375 33.3938 13.9125 33.1501 14.9531C32.7376 16.7344 31.9219 18.225 30.6657 19.5C29.7563 20.4188 29.0063 20.9531 27.9001 21.4781C26.6251 22.0688 25.9126 22.2375 24.3282 22.2844C23.0438 22.3313 22.8376 22.3125 21.9001 22.0875C20.1188 21.6563 18.6938 20.8688 17.4282 19.6031C13.7532 15.9281 13.7344 10.0781 17.4001 6.43125C19.6126 4.22812 22.7157 3.24375 25.6876 3.80625Z" fill="#095FBA"/>
<path d="M16.0219 25.9688C10.8469 26.4938 6.675 30.1969 5.56875 35.25C5.40937 35.9625 5.39062 36.4875 5.39062 40.0313V44.0156L5.6625 44.5594C6 45.2156 6.49687 45.6844 7.20937 46.0219L7.73437 46.2656H24H40.2656L40.7906 46.0219C41.4656 45.7031 42.0469 45.1219 42.3656 44.4469L42.6094 43.9219L42.6375 40.3594C42.6656 36.4594 42.6094 35.7188 42.1312 34.2094C41.3344 31.65 39.6281 29.3625 37.4437 27.9094C36.4594 27.2625 35.25 26.6813 34.2656 26.4C32.7281 25.95 32.7375 25.95 24.5156 25.9219C20.2406 25.9031 16.4156 25.9219 16.0219 25.9688ZM31.6406 27.9375C36.1219 28.3125 39.7031 31.5656 40.5469 36.0188C40.6594 36.6 40.6875 37.5188 40.6875 40.1156C40.6875 43.2563 40.6781 43.4719 40.5 43.7531C40.1156 44.3906 41.4094 44.3438 23.9812 44.3438C8.49375 44.3438 8.19375 44.3438 7.90312 44.1563C7.29375 43.7906 7.29375 43.7813 7.34062 39.7594C7.36875 36.4594 7.39687 36.075 7.575 35.3906C8.49375 31.8844 11.0531 29.2406 14.4844 28.2656C14.9531 28.1344 15.6656 27.9938 16.0781 27.9469C17.1187 27.8344 30.375 27.825 31.6406 27.9375Z" fill="#095FBA"/>
</svg>
