<svg width="24" height="24" viewBox="0 0 24 24" fill="none" xmlns="http://www.w3.org/2000/svg">
<g clip-path="url(#clip0_183_2060)">
<path d="M5.1328 3.08906C4.01249 3.36094 3.07499 4.18125 2.63905 5.25C2.14218 6.47813 2.41405 8.05313 3.27655 8.97188C3.3703 9.07031 3.42655 9.15938 3.39843 9.16875C3.17811 9.25313 2.50311 9.68906 2.16561 9.96094C1.15311 10.7953 0.487488 11.8594 0.135925 13.2188C0.0374878 13.5891 0.0281128 13.7484 0.0140503 15.3984L-0.00469971 17.1797L0.117175 17.2969L0.243738 17.4141L2.29686 17.4281L4.35468 17.4422L4.36874 19.1016L4.3828 20.7563L4.4953 20.8781L4.6078 21H12H19.3922L19.5047 20.8781L19.6172 20.7563L19.6312 19.1016L19.6453 17.4422L21.7031 17.4281L23.7562 17.4141L23.8781 17.3016L24 17.1891V15.6C24 14.0344 23.9719 13.5984 23.8265 13.0781C23.3859 11.4563 22.3406 10.1109 20.9297 9.34688C20.7515 9.25313 20.5922 9.16406 20.5828 9.15469C20.5734 9.15 20.6484 9.05156 20.7469 8.94375C21.6 8.02031 21.8531 6.47344 21.3609 5.25C20.9203 4.1625 19.9453 3.32813 18.8109 3.075C18.3328 2.96719 17.5922 2.97656 17.1328 3.09375C16.664 3.21563 16.1437 3.45 16.0265 3.6C15.8156 3.87188 15.9984 4.26563 16.3359 4.26563C16.425 4.26563 16.6265 4.20469 16.7765 4.12969C17.8312 3.59531 19.0969 3.80625 19.95 4.65938C20.5312 5.24063 20.8078 5.97188 20.7515 6.7875C20.6719 7.95469 19.9078 8.90625 18.764 9.2625C18.4219 9.36563 17.8406 9.38906 17.4281 9.31406C17.1422 9.2625 17.0437 9.2625 16.9312 9.30469C16.6828 9.4125 16.6219 9.77813 16.8234 9.97969C16.9594 10.1156 17.4047 10.1953 18.0234 10.1953C18.6515 10.1906 18.9984 10.1203 19.4953 9.88594L19.8 9.74531L20.2453 9.96094C21.5531 10.5938 22.5328 11.7281 22.9453 13.0922C23.1281 13.7016 23.1562 14.0063 23.1562 15.3422V16.5938L21.3656 16.5844L19.5797 16.5703L19.4906 16.0594C19.3359 15.1406 18.914 14.0625 18.3844 13.2422C17.6906 12.1641 16.4906 11.0906 15.4359 10.5984L15.1969 10.4859L15.4969 10.0969C15.839 9.64219 16.1203 9.08906 16.275 8.55469C16.3687 8.22656 16.3828 8.08125 16.3781 7.38281C16.3781 6.65625 16.364 6.54844 16.2515 6.17344C15.7969 4.69688 14.7281 3.62344 13.2422 3.15469C12.8484 3.03281 12.7687 3.02344 12 3.02344C11.2265 3.02344 11.1562 3.03281 10.7578 3.15938C9.26717 3.63281 8.19842 4.69688 7.75311 6.16406C7.63592 6.54844 7.62186 6.65156 7.62186 7.38281C7.61717 8.08125 7.63124 8.22656 7.72499 8.55469C7.87967 9.08906 8.16092 9.64219 8.5078 10.0969L8.80311 10.4906L8.61092 10.575C8.50311 10.6266 8.24999 10.7625 8.04842 10.8844C6.66092 11.7281 5.56405 13.0031 4.94999 14.4938C4.77186 14.9297 4.52811 15.8109 4.47655 16.1953C4.4203 16.6359 4.62655 16.5938 2.61561 16.5938H0.834363L0.8578 15.15C0.87655 13.7625 0.881238 13.6969 1.00311 13.2703C1.26093 12.3656 1.69686 11.6156 2.34374 10.9688C2.79843 10.5188 3.24374 10.2 3.81561 9.93281L4.20936 9.75L4.50468 9.89063C5.00155 10.1203 5.35311 10.1906 5.97655 10.1953C6.5953 10.1953 7.04061 10.1156 7.17655 9.97969C7.37811 9.77813 7.31717 9.4125 7.06874 9.30469C6.96092 9.2625 6.86249 9.2625 6.5953 9.30938C5.92967 9.42656 5.3578 9.36094 4.82343 9.09375C3.87186 8.62031 3.31874 7.81406 3.24843 6.7875C3.21093 6.25781 3.28593 5.89219 3.52499 5.39063C3.86718 4.67813 4.55624 4.11563 5.32967 3.91406C5.91092 3.76406 6.6703 3.84844 7.22342 4.12969C7.37342 4.20469 7.57499 4.26563 7.66405 4.26563C8.00155 4.26563 8.18436 3.87188 7.97342 3.6C7.85624 3.45 7.33592 3.21563 6.86717 3.09375C6.39842 2.97188 5.60624 2.97188 5.1328 3.08906ZM13.0312 3.98438C14.0437 4.32656 14.7375 4.92656 15.1828 5.82656C15.8719 7.22813 15.6234 8.77969 14.5312 9.89531C14.1234 10.3078 13.6687 10.5938 13.0875 10.7953C12.7078 10.9313 12.6375 10.9406 12 10.9406C11.3625 10.9406 11.2922 10.9313 10.9125 10.7953C9.87186 10.4344 9.07967 9.69375 8.68592 8.71875C8.31092 7.78125 8.3578 6.76406 8.81717 5.82656C9.26249 4.92188 9.99374 4.29844 10.9687 3.98906C11.4047 3.85313 11.4469 3.84844 12.1172 3.86719C12.5953 3.87656 12.7922 3.90469 13.0312 3.98438ZM9.95155 11.3109C10.6265 11.6578 11.2547 11.8125 12 11.8125C12.7547 11.8125 13.3265 11.6719 14.0484 11.3109L14.4797 11.0953L14.8922 11.2922C16.8047 12.2109 18.2109 13.9969 18.6328 16.05C18.7453 16.6172 18.7969 17.4328 18.7969 18.8531V20.1563H11.9953H5.18905L5.21717 18.4547C5.23592 17.2266 5.25936 16.6406 5.31561 16.3359C5.6953 14.1422 7.01249 12.3563 8.97655 11.3672C9.26249 11.2266 9.50624 11.1094 9.52499 11.1094C9.54374 11.1094 9.73592 11.1984 9.95155 11.3109Z" fill="#455A64"/>
</g>
<defs>
<clipPath id="clip0_183_2060">
<rect width="24" height="24" fill="white"/>
</clipPath>
</defs>
</svg>
