<svg width="24" height="24" viewBox="0 0 24 24" fill="none" xmlns="http://www.w3.org/2000/svg">
<g clip-path="url(#clip0_225_1934)">
<path d="M5.90624 1.52341C4.50937 1.74372 3.27187 2.38122 2.17031 3.43591C0.229682 5.30153 -0.450006 7.99216 0.379682 10.575C0.459369 10.8234 0.557807 11.039 0.623432 11.1C0.773432 11.2406 1.03124 11.2359 1.16249 11.0953C1.29843 10.9547 1.29374 10.7718 1.15312 10.35C0.646869 8.83591 0.745307 7.18591 1.43437 5.79841C2.36718 3.90466 4.19999 2.56403 6.22031 2.29216C6.46874 2.25935 6.88124 2.24997 7.26562 2.26403C8.64374 2.32497 9.89062 2.81247 11.1234 3.7781C11.8031 4.30778 12.3047 4.29372 13.0453 3.73122C13.7625 3.18278 14.4 2.83591 15.1734 2.57341C15.9141 2.32497 16.2609 2.27341 17.1797 2.2781C17.9672 2.28278 18.0609 2.29216 18.5859 2.4281C20.3109 2.88278 21.8016 4.10153 22.6172 5.71403C23.0297 6.54372 23.2594 7.54685 23.2547 8.5406C23.2547 9.16403 23.2453 9.26716 23.1234 9.83435C23.0437 10.2234 23.0719 10.35 23.2734 10.4812C23.4281 10.5843 23.6953 10.5375 23.7891 10.3875C23.9391 10.1625 24 9.59528 24 8.47966C24 7.5656 23.9859 7.33591 23.9016 6.94685C23.3297 4.28435 21.1781 2.15153 18.4687 1.5656C17.8594 1.43435 16.4156 1.44372 15.7687 1.58435C14.6016 1.83747 13.5656 2.3156 12.6 3.05153C12.4031 3.20153 12.1875 3.33747 12.1266 3.35153C11.9812 3.38903 11.9203 3.35622 11.4328 2.98591C10.4156 2.22185 9.21562 1.7156 7.96874 1.52341C7.42499 1.43903 6.44531 1.43903 5.90624 1.52341Z" fill="white"/>
<path d="M18.4406 3.65619C18.3 3.71244 18.1875 3.88588 18.1875 4.03588C18.1875 4.17182 18.3469 4.40619 18.4406 4.40619C18.4687 4.40619 18.6469 4.48119 18.8391 4.57026C19.2422 4.76244 19.4437 4.78119 19.5844 4.62651C19.725 4.47651 19.725 4.20463 19.5797 4.05932C19.4766 3.95619 18.8906 3.68901 18.6562 3.63744C18.5906 3.62338 18.4922 3.63276 18.4406 3.65619Z" fill="white"/>
<path d="M20.1656 4.92152C20.0391 5.04339 19.9875 5.2262 20.0531 5.35745C20.0766 5.4137 20.2172 5.60589 20.3625 5.7887C21.2344 6.87152 21.5484 8.46527 21.1406 9.75433C21.0891 9.91839 21.0469 10.1106 21.0469 10.1809C21.0469 10.434 21.3516 10.6075 21.6094 10.4996C21.7125 10.4575 21.7687 10.3825 21.8391 10.195C22.1953 9.24808 22.1953 7.9262 21.8391 6.8387C21.6375 6.21995 21.1922 5.4512 20.7937 5.03402C20.6344 4.86995 20.5641 4.82777 20.4328 4.82777C20.3297 4.82777 20.2266 4.86527 20.1656 4.92152Z" fill="white"/>
<path d="M13.0359 7.85622C12.8625 8.00154 12.975 7.61716 11.7844 12.0609C11.25 14.0625 10.7953 15.689 10.7813 15.6703C10.7625 15.6468 10.3078 13.9875 9.77344 11.9765C9.23906 9.9656 8.77031 8.26404 8.7375 8.19372C8.625 7.9781 8.45156 7.87497 8.17969 7.87497C7.90781 7.87497 7.73438 7.9781 7.62188 8.19372C7.58906 8.26404 7.35 9.1031 7.09688 10.064L6.63281 11.8078L3.44063 11.8218C0.375001 11.8359 0.239063 11.8406 0.145313 11.925C0.00468824 12.0515 0.00937574 12.3703 0.154688 12.5062L0.262501 12.6093H3.61406C6.77813 12.6093 6.97031 12.6047 7.10156 12.525C7.18125 12.4781 7.27031 12.3843 7.30313 12.3234C7.33594 12.2625 7.54688 11.5172 7.77188 10.6734L8.18438 9.13591L9.18281 12.8765C9.73125 14.9343 10.2188 16.6781 10.2609 16.7578C10.4906 17.1656 11.1094 17.1375 11.3484 16.7062C11.3906 16.6312 11.8547 14.9531 12.3797 12.975C12.9047 10.9968 13.3406 9.4031 13.3453 9.43591C13.3547 9.46872 13.4109 10.2703 13.4766 11.2172C13.5422 12.1687 13.6172 12.989 13.6359 13.0453C13.7953 13.4578 14.4984 13.5328 14.7375 13.1578C14.775 13.1015 14.9766 12.3984 15.1875 11.6015C15.3938 10.8 15.5813 10.1062 15.5953 10.0593C15.6094 10.0031 15.7078 10.2797 15.8531 10.7859C15.9797 11.2359 16.1156 11.6531 16.1531 11.7093C16.3125 11.9578 16.2656 11.9531 20.1656 11.9531C24.3094 11.9531 24 11.9859 24 11.5547C24 11.1234 24.2953 11.1562 20.2875 11.1562H16.7859L16.7297 10.9593C16.3875 9.67029 16.1625 8.97654 16.0734 8.87341C15.9188 8.70935 15.6516 8.64372 15.4266 8.71404C15.0984 8.80779 15.0563 8.90622 14.6719 10.3875C14.4797 11.1328 14.3156 11.7 14.3109 11.6484C14.3016 11.5968 14.2453 10.7906 14.1797 9.8531C14.0953 8.62029 14.0438 8.10935 13.9922 8.01091C13.8375 7.7156 13.3031 7.63122 13.0359 7.85622Z" fill="white"/>
<path d="M21.7969 12.6045C21.7641 12.6326 19.5984 14.7795 16.9922 17.3857C12.3 22.0826 12.2578 22.1248 12.0703 22.1248C11.8875 22.1248 11.8406 22.0826 7.45312 17.6998C4.34999 14.6014 2.98593 13.2654 2.89218 13.2467C2.6203 13.1811 2.35312 13.4482 2.41405 13.7248C2.4328 13.8186 3.75937 15.1732 6.90468 18.3139C11.1469 22.5514 11.3812 22.7764 11.6156 22.8514C11.9344 22.9545 12.3281 22.9311 12.6094 22.7904C12.7641 22.7154 14.0812 21.4311 17.5922 17.9201C21.9047 13.6029 22.3594 13.1342 22.3594 12.9982C22.3594 12.7873 22.3172 12.7076 22.1672 12.6326C22.0172 12.5529 21.8953 12.5436 21.7969 12.6045Z" fill="white"/>
</g>
<defs>
<clipPath id="clip0_225_1934">
<rect width="24" height="24" fill="white"/>
</clipPath>
</defs>
</svg>
