<svg width="36" height="36" viewBox="0 0 36 36" fill="none" xmlns="http://www.w3.org/2000/svg">
<g clip-path="url(#clip0_225_2160)">
<path d="M8.85937 2.28511C6.76405 2.61558 4.9078 3.57183 3.25546 5.15386C0.344523 7.9523 -0.675009 11.9882 0.569523 15.8625C0.689054 16.2351 0.83671 16.5585 0.935148 16.65C1.16015 16.8609 1.54687 16.8539 1.74374 16.6429C1.94765 16.432 1.94062 16.1578 1.72968 15.525C0.970304 13.2539 1.11796 10.7789 2.15155 8.69761C3.55077 5.85699 6.29999 3.84605 9.33046 3.43824C9.70312 3.38902 10.3219 3.37496 10.8984 3.39605C12.9656 3.48746 14.8359 4.21871 16.6851 5.66714C17.7047 6.46168 18.457 6.44058 19.568 5.59683C20.6437 4.77418 21.6 4.25386 22.7601 3.86011C23.8711 3.48746 24.3914 3.41011 25.7695 3.41714C26.9508 3.42418 27.0914 3.43824 27.8789 3.64214C30.4664 4.32418 32.7023 6.1523 33.9258 8.57105C34.5445 9.81558 34.8891 11.3203 34.882 12.8109C34.882 13.7461 34.868 13.9007 34.6851 14.7515C34.5656 15.3351 34.6078 15.525 34.9101 15.7218C35.1422 15.8765 35.543 15.8062 35.6836 15.5812C35.9086 15.2437 36 14.3929 36 12.7195C36 11.3484 35.9789 11.0039 35.8523 10.4203C34.9945 6.42652 31.7672 3.2273 27.7031 2.34839C26.7891 2.15152 24.6234 2.16558 23.6531 2.37652C21.9023 2.75621 20.3484 3.47339 18.9 4.5773C18.6047 4.8023 18.2812 5.00621 18.1898 5.0273C17.9719 5.08355 17.8805 5.03433 17.1492 4.47886C15.6234 3.33277 13.8234 2.57339 11.9531 2.28511C11.1375 2.15855 9.66796 2.15855 8.85937 2.28511Z" fill="#095FBA"/>
<path d="M27.6609 5.48454C27.45 5.56891 27.2812 5.82907 27.2812 6.05407C27.2812 6.25797 27.5203 6.60954 27.6609 6.60954C27.7031 6.60954 27.9703 6.72204 28.2586 6.85563C28.8633 7.14391 29.1656 7.17204 29.3766 6.94C29.5875 6.715 29.5875 6.30719 29.3695 6.08922C29.2148 5.93454 28.3359 5.53375 27.9844 5.45641C27.8859 5.43532 27.7383 5.44938 27.6609 5.48454Z" fill="#095FBA"/>
<path d="M30.2484 7.38325C30.0586 7.56606 29.9812 7.84028 30.0797 8.03716C30.1148 8.12153 30.3258 8.40981 30.5437 8.68403C31.8516 10.3082 32.3227 12.6989 31.7109 14.6325C31.6336 14.8786 31.5703 15.1668 31.5703 15.2723C31.5703 15.652 32.0273 15.9122 32.4141 15.7504C32.5687 15.6872 32.6531 15.5747 32.7586 15.2934C33.293 13.8731 33.293 11.8903 32.7586 10.259C32.4562 9.33091 31.7883 8.17778 31.1906 7.552C30.9516 7.30591 30.8461 7.24262 30.6492 7.24262C30.4945 7.24262 30.3398 7.29888 30.2484 7.38325Z" fill="#095FBA"/>
<path d="M19.5539 11.7846C19.2937 12.0025 19.4625 11.426 17.6766 18.0916C16.875 21.094 16.193 23.5338 16.1719 23.5057C16.1437 23.4705 15.4617 20.9815 14.6602 17.965C13.8586 14.9486 13.1555 12.3963 13.1062 12.2908C12.9375 11.9674 12.6773 11.8127 12.2695 11.8127C11.8617 11.8127 11.6016 11.9674 11.4328 12.2908C11.3836 12.3963 11.025 13.6549 10.6453 15.0963L9.94921 17.7119L5.16093 17.733C0.562494 17.7541 0.358587 17.7611 0.217962 17.8877C0.00702473 18.0775 0.014056 18.5557 0.232025 18.7596L0.393743 18.9143H5.42109C10.1672 18.9143 10.4555 18.9072 10.6523 18.7877C10.7719 18.7174 10.9055 18.5768 10.9547 18.4854C11.0039 18.394 11.3203 17.276 11.6578 16.0104L12.2766 13.7041L13.7742 19.315C14.5969 22.4018 15.3281 25.0174 15.3914 25.1369C15.7359 25.7486 16.6641 25.7065 17.0227 25.0596C17.0859 24.9471 17.782 22.4299 18.5695 19.4627C19.357 16.4955 20.0109 14.1049 20.018 14.1541C20.032 14.2033 20.1164 15.4057 20.2148 16.826C20.3133 18.2533 20.4258 19.4838 20.4539 19.5682C20.693 20.1869 21.7477 20.2994 22.1062 19.7369C22.1625 19.6525 22.4648 18.5979 22.7812 17.4025C23.0906 16.2002 23.3719 15.1596 23.393 15.0893C23.4141 15.0049 23.5617 15.4197 23.7797 16.1791C23.9695 16.8541 24.1734 17.4799 24.2297 17.5643C24.4687 17.9369 24.3984 17.9299 30.2484 17.9299C36.4641 17.9299 36 17.9791 36 17.3322C36 16.6854 36.443 16.7346 30.4312 16.7346H25.1789L25.0945 16.4393C24.5812 14.5057 24.2437 13.465 24.1102 13.3104C23.8781 13.0643 23.4773 12.9658 23.1398 13.0713C22.6477 13.2119 22.5844 13.3596 22.0078 15.5815C21.7195 16.6994 21.4734 17.5502 21.4664 17.4729C21.4523 17.3955 21.368 16.1861 21.2695 14.7799C21.143 12.9307 21.0656 12.1643 20.9883 12.0166C20.7562 11.5736 19.9547 11.4471 19.5539 11.7846Z" fill="#095FBA"/>
<path d="M32.6953 18.9072C32.6461 18.9494 29.3977 22.1697 25.4883 26.0791C18.45 33.1244 18.3867 33.1877 18.1055 33.1877C17.8312 33.1877 17.7609 33.1244 11.1797 26.5502C6.525 21.9025 4.4789 19.8986 4.33828 19.8705C3.93047 19.7721 3.52968 20.1729 3.62109 20.5877C3.64922 20.7283 5.63906 22.7604 10.357 27.4713C16.7203 33.8275 17.0719 34.165 17.4234 34.2775C17.9016 34.4322 18.4922 34.3971 18.9141 34.1861C19.1461 34.0736 21.1219 32.1471 26.3883 26.8807C32.857 20.4049 33.5391 19.7018 33.5391 19.4979C33.5391 19.1814 33.4758 19.0619 33.2508 18.9494C33.0258 18.8299 32.843 18.8158 32.6953 18.9072Z" fill="#095FBA"/>
</g>
<defs>
<clipPath id="clip0_225_2160">
<rect width="36" height="36" fill="white"/>
</clipPath>
</defs>
</svg>
