<svg width="16" height="16" viewBox="0 0 16 16" fill="none" xmlns="http://www.w3.org/2000/svg">
<g clip-path="url(#clip0_225_2144)">
<path d="M13.8125 0.103125C13.4688 0.21875 13.3156 0.334375 12.75 0.89375L12.2031 1.4375L13.4 2.63125L14.5969 3.82812L15.15 3.26562C15.7313 2.67812 15.8438 2.51875 15.95 2.15937C16.0125 1.94687 16.0156 1.48125 15.9531 1.25312C15.8063 0.696875 15.2938 0.190625 14.75 0.0656249C14.4969 0.00624994 14.0406 0.0249999 13.8125 0.103125Z" fill="white"/>
<path d="M8.83436 4.80622C7.36248 6.27809 6.15623 7.49372 6.15623 7.49997C6.15623 7.50934 6.04373 8.08122 5.90623 8.76559C5.75936 9.49684 5.66248 10.05 5.67186 10.1C5.69686 10.2062 5.82186 10.3312 5.93123 10.3531C6.00623 10.3687 8.24686 9.94684 8.48436 9.87497C8.54686 9.85309 9.46248 8.95934 11.25 7.17184L13.9219 4.49997L12.7344 3.31247C12.0812 2.65934 11.5406 2.12497 11.5312 2.12497C11.5219 2.12497 10.3094 3.33122 8.83436 4.80622Z" fill="white"/>
<path d="M1.51562 2.73769C0.96249 2.87206 0.45624 3.28144 0.203115 3.79706C-0.0125097 4.23456 -9.6458e-06 3.86269 -9.6458e-06 9.36894C-9.6458e-06 14.9408 -0.0187597 14.5096 0.228115 14.9846C0.41874 15.3533 0.71249 15.6346 1.10937 15.8314L1.41562 15.9846L6.60624 15.9939C11.7719 16.0002 11.7937 16.0002 11.9875 15.9377C12.625 15.7252 13.1594 15.1283 13.2969 14.4752C13.3344 14.3033 13.3437 13.7658 13.3437 11.4033V8.54394L13.2625 8.37831C13.1437 8.14394 12.9937 8.05019 12.7031 8.03769C12.4656 8.02519 12.3406 8.06269 12.1937 8.20019C12.0062 8.36894 12.0156 8.19081 12 11.3127C11.9844 14.0158 11.9812 14.1783 11.925 14.2877C11.8469 14.4471 11.6531 14.6158 11.5062 14.6564C11.4187 14.6783 9.91249 14.6846 6.60311 14.6814L1.82812 14.6721L1.68124 14.5846C1.58437 14.5283 1.50312 14.4471 1.44687 14.3502L1.35937 14.2033L1.34999 9.42831C1.34374 6.01269 1.35312 4.61269 1.37812 4.52206C1.42812 4.32519 1.66562 4.10956 1.87187 4.06581C1.98437 4.04081 2.89062 4.03144 4.77812 4.03144H7.52186L7.65936 3.95956C7.73436 3.91894 7.84061 3.82519 7.89061 3.75331C7.97499 3.63144 7.98436 3.59706 7.98436 3.36269C7.98436 3.12831 7.97499 3.09081 7.89374 2.97519C7.83749 2.89394 7.74686 2.81581 7.64686 2.76581L7.48749 2.68769L4.59687 2.69081C2.18437 2.69394 1.67187 2.70019 1.51562 2.73769Z" fill="white"/>
</g>
<defs>
<clipPath id="clip0_225_2144">
<rect width="16" height="16" fill="white"/>
</clipPath>
</defs>
</svg>
