<svg width="24" height="24" viewBox="0 0 24 24" fill="none" xmlns="http://www.w3.org/2000/svg">
<g clip-path="url(#clip0_3_157)">
<path d="M8.55468 0.093771C6.36561 0.431271 4.44374 1.40627 2.8828 2.97658C1.27499 4.58908 0.323425 6.52502 0.0468628 8.76565C-0.0140747 9.27658 -0.0140747 10.5985 0.0468628 11.1094C0.224988 12.5344 0.731238 13.9828 1.46718 15.1406C2.27811 16.4297 3.51093 17.6438 4.78592 18.4125C6.05155 19.1719 7.44842 19.65 8.90624 19.8281C9.50624 19.8985 10.8375 19.8844 11.4469 19.8C13.1953 19.5563 14.7797 18.9235 16.1344 17.925C16.2937 17.8125 16.439 17.7235 16.4578 17.7281C16.4765 17.7375 17.8875 19.111 19.5937 20.7891C21.3 22.4625 22.7578 23.8735 22.8422 23.9156C23.1609 24.0938 23.6672 23.986 23.8687 23.7047C23.9906 23.5313 24.0375 23.1235 23.9531 22.9219C23.9109 22.8141 19.5375 18.4547 17.7937 16.7766L17.6109 16.5985L17.9015 16.2563C18.5672 15.4781 19.2937 14.2172 19.6359 13.2469C20.5172 10.7485 20.3719 8.01565 19.2422 5.68127C18.7219 4.60783 18.1359 3.78752 17.2594 2.91565C15.6703 1.33127 13.575 0.32346 11.2969 0.046896C10.6547 -0.0281029 9.20155 -0.00466537 8.55468 0.093771ZM10.7953 1.59377C14.414 1.89377 17.4187 4.39221 18.3422 7.87502C18.5297 8.58752 18.5859 9.05627 18.5859 9.93752C18.5859 10.8188 18.5297 11.2875 18.3422 12C17.9484 13.4766 17.2312 14.7281 16.1437 15.8156C13.8562 18.1078 10.4344 18.9 7.3453 17.8547C4.9078 17.0297 2.94374 15.1266 2.0953 12.7735C1.22811 10.3688 1.49061 7.74846 2.81249 5.61565C4.35936 3.12658 7.01249 1.62658 10.0078 1.55627C10.139 1.55158 10.4906 1.57033 10.7953 1.59377Z" fill="white"/>
</g>
<defs>
<clipPath id="clip0_3_157">
<rect width="24" height="24" fill="white"/>
</clipPath>
</defs>
</svg>
