<svg width="16" height="16" viewBox="0 0 16 16" fill="none" xmlns="http://www.w3.org/2000/svg">
<path d="M7.21875 3.25312C4.6625 3.50937 2.32188 4.875 0.4125 7.22812C0.028125 7.7 0 7.75625 0 8.00937C0 8.24687 0.046875 8.32812 0.48125 8.85625C2.56563 11.3906 5.22813 12.7812 8 12.7812C10.8063 12.7812 13.4781 11.3687 15.5875 8.77187C15.9719 8.3 16 8.24375 16 7.99062C16 7.75312 15.9531 7.67187 15.5188 7.14375C13.4156 4.58437 10.7313 3.19687 7.94063 3.22187C7.69063 3.225 7.36563 3.2375 7.21875 3.25312ZM8.70625 4.73125C9.80938 4.96875 10.7344 5.77812 11.1406 6.85625C11.2875 7.24687 11.325 7.475 11.3219 8.01562C11.3219 8.45625 11.3125 8.55312 11.2406 8.81875C10.925 10.0031 10.0031 10.925 8.81875 11.2406C8.55313 11.3125 8.45625 11.3219 8.01563 11.3219C7.475 11.325 7.24688 11.2875 6.85625 11.1406C5.77813 10.7344 4.98438 9.825 4.72813 8.70625C4.64688 8.35312 4.65625 7.59062 4.74375 7.24062C5.07813 5.90937 6.09063 4.95937 7.45 4.7C7.72813 4.64687 8.4 4.6625 8.70625 4.73125Z" fill="white"/>
<path d="M7.45313 6.2625C7.13125 6.36875 6.94688 6.48437 6.70313 6.73437C6.35 7.09062 6.1875 7.49062 6.1875 8C6.1875 8.525 6.35 8.91875 6.71563 9.28437C7.08125 9.65 7.475 9.8125 8 9.8125C8.50938 9.8125 8.90938 9.65 9.26563 9.29687C9.64688 8.92187 9.8125 8.53125 9.8125 8.00312C9.8125 7.83437 9.79063 7.62187 9.76563 7.52187C9.60625 6.90937 9.09063 6.39375 8.47813 6.23437C8.19688 6.1625 7.71875 6.175 7.45313 6.2625Z" fill="white"/>
</svg>
