<svg width="16" height="16" viewBox="0 0 16 16" fill="none" xmlns="http://www.w3.org/2000/svg">
<path d="M6.52501 0.0593749C6.07189 0.20625 5.68439 0.603125 5.55001 1.05937C5.51564 1.175 5.50001 1.35625 5.50001 1.6125V1.99687L3.94689 2.00625L2.39064 2.01562L2.20314 2.10625C1.96251 2.225 1.72501 2.4625 1.60626 2.70312L1.51564 2.89062L1.50626 3.65625C1.50001 4.37812 1.50314 4.42812 1.56251 4.525C1.59689 4.58125 1.66876 4.65312 1.72501 4.6875C1.82814 4.75 1.89689 4.75 8.00001 4.75C14.1031 4.75 14.1719 4.75 14.275 4.6875C14.3313 4.65312 14.4031 4.58125 14.4375 4.525C14.4969 4.42812 14.5 4.37812 14.4938 3.65625L14.4844 2.89062L14.3938 2.70312C14.275 2.4625 14.0375 2.225 13.7969 2.10625L13.6094 2.01562L12.0563 2.00625L10.5 1.99687V1.6125C10.5 1.31875 10.4844 1.17812 10.4406 1.03437C10.2969 0.575 9.90314 0.184375 9.44064 0.0499999C9.29689 0.00624993 9.06876 -7.07805e-08 7.98751 0.00312493C6.83126 0.00312493 6.68439 0.00937493 6.52501 0.0593749ZM9.07501 1.03125C9.36876 1.09687 9.47189 1.26562 9.49376 1.69062L9.50939 2H8.00001H6.49064L6.50626 1.69062C6.52814 1.27187 6.63439 1.09687 6.90939 1.03125C7.05626 0.996875 8.92501 0.99375 9.07501 1.03125Z" fill="white"/>
<path d="M2.31251 5.79711C2.28126 5.83461 2.31251 6.69711 2.48126 10.244C2.59688 12.6627 2.70626 14.719 2.72501 14.8127C2.82813 15.3377 3.20938 15.7627 3.72813 15.9346C3.92501 16.0002 3.93126 16.0002 8.06563 15.994L12.2063 15.9846L12.45 15.8627C12.8875 15.6502 13.1906 15.2627 13.2781 14.8127C13.2969 14.719 13.4031 12.6627 13.5188 10.244C13.6875 6.69398 13.7188 5.83461 13.6875 5.79711C13.6531 5.75648 13.0094 5.75023 8.00001 5.75023C2.99688 5.75023 2.34688 5.75648 2.31251 5.79711ZM5.75001 6.60336C5.80938 6.64086 5.88438 6.72211 5.91876 6.78148C5.98438 6.89086 5.98438 6.91898 5.98438 10.2502C5.98438 13.5815 5.98438 13.6096 5.91876 13.719C5.72188 14.0534 5.27813 14.0534 5.08126 13.719C5.01563 13.6096 5.01563 13.5815 5.01563 10.2502C5.01563 6.91898 5.01563 6.89086 5.08126 6.78148C5.17501 6.62211 5.32501 6.53148 5.50001 6.53148C5.60001 6.53148 5.68126 6.55336 5.75001 6.60336ZM8.25001 6.60336C8.30938 6.64086 8.38438 6.72211 8.41876 6.78148C8.48438 6.89086 8.48438 6.91898 8.48438 10.2502C8.48438 13.5815 8.48438 13.6096 8.41876 13.719C8.22188 14.0534 7.77813 14.0534 7.58126 13.719C7.51563 13.6096 7.51563 13.5815 7.51563 10.2502C7.51563 6.91898 7.51563 6.89086 7.58126 6.78148C7.67501 6.62211 7.82501 6.53148 8.00001 6.53148C8.10001 6.53148 8.18126 6.55336 8.25001 6.60336ZM10.75 6.60336C10.8094 6.64086 10.8844 6.72211 10.9188 6.78148C10.9844 6.89086 10.9844 6.91898 10.9844 10.2502C10.9844 13.5815 10.9844 13.6096 10.9188 13.719C10.7219 14.0534 10.2781 14.0534 10.0813 13.719C10.0156 13.6096 10.0156 13.5815 10.0156 10.2502C10.0156 6.91898 10.0156 6.89086 10.0813 6.78148C10.175 6.62211 10.325 6.53148 10.5 6.53148C10.6 6.53148 10.6813 6.55336 10.75 6.60336Z" fill="white"/>
</svg>
