<svg width="137" height="60" viewBox="0 0 137 60" fill="none" xmlns="http://www.w3.org/2000/svg">
<rect width="136.166" height="60" rx="5" fill="black"/>
<path d="M54.9443 17.3477H58.1436V21.6484C57.6943 21.7969 57.2295 21.9121 56.749 21.9941C56.2686 22.0762 55.7295 22.1172 55.1318 22.1172C54.2607 22.1172 53.5225 21.9453 52.917 21.6016C52.3154 21.2539 51.8584 20.752 51.5459 20.0957C51.2334 19.4355 51.0771 18.6406 51.0771 17.7109C51.0771 16.8164 51.251 16.041 51.5986 15.3848C51.9463 14.7246 52.4521 14.2148 53.1162 13.8555C53.7803 13.4922 54.585 13.3105 55.5303 13.3105C55.9951 13.3105 56.4443 13.3574 56.8779 13.4512C57.3154 13.541 57.7158 13.666 58.0791 13.8262L57.5869 14.9863C57.2979 14.8496 56.9736 14.7344 56.6143 14.6406C56.2549 14.5469 55.8818 14.5 55.4951 14.5C54.8818 14.5 54.3525 14.6328 53.9072 14.8984C53.4658 15.1641 53.126 15.5391 52.8877 16.0234C52.6494 16.5039 52.5303 17.0723 52.5303 17.7285C52.5303 18.3652 52.626 18.9238 52.8174 19.4043C53.0088 19.8848 53.3076 20.2598 53.7139 20.5293C54.124 20.7949 54.6533 20.9277 55.3018 20.9277C55.626 20.9277 55.9014 20.9102 56.1279 20.875C56.3545 20.8398 56.5635 20.8008 56.7549 20.7578V18.5488H54.9443V17.3477ZM65.0459 22H60.1943V13.4336H65.0459V14.6172H61.6006V16.9434H64.8291V18.1211H61.6006V20.8105H65.0459V22ZM69.8682 22H68.4561V14.6289H65.9482V13.4336H72.3701V14.6289H69.8682V22ZM76.7998 22V13.4336H78.2061V22H76.7998ZM83.4385 22H82.0264V14.6289H79.5186V13.4336H85.9404V14.6289H83.4385V22ZM97.9756 17.7051C97.9756 18.3652 97.8916 18.9668 97.7236 19.5098C97.5596 20.0488 97.3115 20.5137 96.9795 20.9043C96.6475 21.291 96.2314 21.5898 95.7314 21.8008C95.2314 22.0117 94.6455 22.1172 93.9736 22.1172C93.29 22.1172 92.6963 22.0117 92.1924 21.8008C91.6924 21.5898 91.2764 21.2891 90.9443 20.8984C90.6162 20.5078 90.3701 20.041 90.2061 19.498C90.042 18.9551 89.96 18.3535 89.96 17.6934C89.96 16.8105 90.1045 16.041 90.3936 15.3848C90.6865 14.7246 91.1299 14.2129 91.7236 13.8496C92.3213 13.4824 93.0752 13.2988 93.9854 13.2988C94.876 13.2988 95.6162 13.4805 96.2061 13.8438C96.7959 14.207 97.2373 14.7188 97.5303 15.3789C97.8271 16.0352 97.9756 16.8105 97.9756 17.7051ZM91.4365 17.7051C91.4365 18.3652 91.5264 18.9375 91.7061 19.4219C91.8857 19.9023 92.1611 20.2734 92.5322 20.5352C92.9072 20.793 93.3877 20.9219 93.9736 20.9219C94.5635 20.9219 95.0439 20.793 95.415 20.5352C95.7861 20.2734 96.0596 19.9023 96.2354 19.4219C96.4111 18.9375 96.499 18.3652 96.499 17.7051C96.499 16.7012 96.2979 15.916 95.8955 15.3496C95.4971 14.7793 94.8604 14.4941 93.9854 14.4941C93.3994 14.4941 92.917 14.623 92.5381 14.8809C92.1631 15.1387 91.8857 15.5078 91.7061 15.9883C91.5264 16.4648 91.4365 17.0371 91.4365 17.7051ZM106.964 22H105.235L101.04 15.1621H100.987C101.003 15.3926 101.017 15.6367 101.028 15.8945C101.044 16.1523 101.056 16.418 101.063 16.6914C101.075 16.9648 101.085 17.2422 101.093 17.5234V22H99.8154V13.4336H101.532L105.722 20.2246H105.763C105.755 20.0254 105.745 19.7969 105.733 19.5391C105.722 19.2812 105.71 19.0156 105.698 18.7422C105.69 18.4648 105.685 18.1973 105.681 17.9395V13.4336H106.964V22ZM58.9404 44L57.8232 40.8281H53.4561L52.3389 44H50.3623L54.6123 32.5312H56.6904L60.9326 44H58.9404ZM57.3389 39.2188L56.2529 36.0938C56.2113 35.9583 56.1514 35.7682 56.0732 35.5234C55.9951 35.2734 55.917 35.0208 55.8389 34.7656C55.7607 34.5052 55.6956 34.2865 55.6436 34.1094C55.5915 34.3229 55.5264 34.5625 55.4482 34.8281C55.3753 35.0885 55.3024 35.3333 55.2295 35.5625C55.1618 35.7917 55.1097 35.9688 55.0732 36.0938L53.9795 39.2188H57.3389ZM66.6904 35.1875C67.7165 35.1875 68.5394 35.5625 69.1592 36.3125C69.7842 37.0625 70.0967 38.1771 70.0967 39.6562C70.0967 40.6354 69.9508 41.4609 69.6592 42.1328C69.3727 42.7995 68.9691 43.3047 68.4482 43.6484C67.9326 43.987 67.3311 44.1562 66.6436 44.1562C66.2061 44.1562 65.8258 44.099 65.5029 43.9844C65.18 43.8698 64.904 43.7214 64.6748 43.5391C64.4456 43.3516 64.2529 43.1484 64.0967 42.9297H63.9873C64.0133 43.138 64.0368 43.3698 64.0576 43.625C64.0837 43.875 64.0967 44.1042 64.0967 44.3125V47.8359H62.2529V35.3516H63.7529L64.0107 36.5469H64.0967C64.2581 36.3021 64.4535 36.0755 64.6826 35.8672C64.917 35.6589 65.1982 35.4948 65.5264 35.375C65.8597 35.25 66.2477 35.1875 66.6904 35.1875ZM66.1982 36.6875C65.693 36.6875 65.2868 36.7891 64.9795 36.9922C64.6774 37.1901 64.4561 37.4896 64.3154 37.8906C64.18 38.2917 64.1071 38.7943 64.0967 39.3984V39.6562C64.0967 40.2969 64.1618 40.8411 64.292 41.2891C64.4274 41.7318 64.6488 42.0703 64.9561 42.3047C65.2686 42.5339 65.6904 42.6484 66.2217 42.6484C66.6696 42.6484 67.0394 42.526 67.3311 42.2812C67.6279 42.0365 67.8493 41.6875 67.9951 41.2344C68.141 40.7812 68.2139 40.2474 68.2139 39.6328C68.2139 38.7005 68.0472 37.9766 67.7139 37.4609C67.3857 36.9453 66.8805 36.6875 66.1982 36.6875ZM76.6592 35.1875C77.6852 35.1875 78.5081 35.5625 79.1279 36.3125C79.7529 37.0625 80.0654 38.1771 80.0654 39.6562C80.0654 40.6354 79.9196 41.4609 79.6279 42.1328C79.3415 42.7995 78.9378 43.3047 78.417 43.6484C77.9014 43.987 77.2998 44.1562 76.6123 44.1562C76.1748 44.1562 75.7946 44.099 75.4717 43.9844C75.1488 43.8698 74.8727 43.7214 74.6436 43.5391C74.4144 43.3516 74.2217 43.1484 74.0654 42.9297H73.9561C73.9821 43.138 74.0055 43.3698 74.0264 43.625C74.0524 43.875 74.0654 44.1042 74.0654 44.3125V47.8359H72.2217V35.3516H73.7217L73.9795 36.5469H74.0654C74.2269 36.3021 74.4222 36.0755 74.6514 35.8672C74.8857 35.6589 75.167 35.4948 75.4951 35.375C75.8285 35.25 76.2165 35.1875 76.6592 35.1875ZM76.167 36.6875C75.6618 36.6875 75.2555 36.7891 74.9482 36.9922C74.6462 37.1901 74.4248 37.4896 74.2842 37.8906C74.1488 38.2917 74.0758 38.7943 74.0654 39.3984V39.6562C74.0654 40.2969 74.1305 40.8411 74.2607 41.2891C74.3962 41.7318 74.6175 42.0703 74.9248 42.3047C75.2373 42.5339 75.6592 42.6484 76.1904 42.6484C76.6383 42.6484 77.0081 42.526 77.2998 42.2812C77.5967 42.0365 77.818 41.6875 77.9639 41.2344C78.1097 40.7812 78.1826 40.2474 78.1826 39.6328C78.1826 38.7005 78.016 37.9766 77.6826 37.4609C77.3545 36.9453 76.8493 36.6875 76.167 36.6875ZM93.1279 40.8906C93.1279 41.5677 92.9613 42.151 92.6279 42.6406C92.2998 43.1302 91.8258 43.5052 91.2061 43.7656C90.5915 44.026 89.8571 44.1562 89.0029 44.1562C88.5863 44.1562 88.1878 44.1328 87.8076 44.0859C87.4274 44.0391 87.068 43.9714 86.7295 43.8828C86.3962 43.7891 86.0915 43.6771 85.8154 43.5469V41.7812C86.279 41.9844 86.7972 42.1693 87.3701 42.3359C87.943 42.4974 88.5264 42.5781 89.1201 42.5781C89.6045 42.5781 90.0055 42.5156 90.3232 42.3906C90.6462 42.2604 90.8857 42.0781 91.042 41.8438C91.1982 41.6042 91.2764 41.3255 91.2764 41.0078C91.2764 40.6693 91.1852 40.3828 91.0029 40.1484C90.8206 39.9141 90.5446 39.7005 90.1748 39.5078C89.8102 39.3099 89.3519 39.099 88.7998 38.875C88.4248 38.724 88.0654 38.5521 87.7217 38.3594C87.3831 38.1667 87.0811 37.9401 86.8154 37.6797C86.5498 37.4193 86.3389 37.112 86.1826 36.7578C86.0316 36.3984 85.9561 35.9766 85.9561 35.4922C85.9561 34.8464 86.1097 34.2943 86.417 33.8359C86.7295 33.3776 87.167 33.026 87.7295 32.7812C88.2972 32.5365 88.9587 32.4141 89.7139 32.4141C90.3128 32.4141 90.8753 32.4766 91.4014 32.6016C91.9326 32.7266 92.4535 32.9036 92.9639 33.1328L92.3701 34.6406C91.9014 34.4479 91.4456 34.2943 91.0029 34.1797C90.5654 34.0651 90.1175 34.0078 89.6592 34.0078C89.2633 34.0078 88.9274 34.0677 88.6514 34.1875C88.3753 34.3073 88.1644 34.4766 88.0186 34.6953C87.8779 34.9089 87.8076 35.1641 87.8076 35.4609C87.8076 35.7943 87.8883 36.0755 88.0498 36.3047C88.2165 36.5286 88.4717 36.7344 88.8154 36.9219C89.1644 37.1094 89.6123 37.3177 90.1592 37.5469C90.7894 37.8073 91.3232 38.0807 91.7607 38.3672C92.2035 38.6536 92.542 38.9974 92.7764 39.3984C93.0107 39.7943 93.1279 40.2917 93.1279 40.8906ZM98.3623 42.6719C98.6019 42.6719 98.8389 42.651 99.0732 42.6094C99.3076 42.5625 99.5212 42.5078 99.7139 42.4453V43.8359C99.5107 43.9245 99.2477 44 98.9248 44.0625C98.6019 44.125 98.266 44.1562 97.917 44.1562C97.4274 44.1562 96.9873 44.0755 96.5967 43.9141C96.2061 43.7474 95.8962 43.4635 95.667 43.0625C95.4378 42.6615 95.3232 42.1068 95.3232 41.3984V36.75H94.1436V35.9297L95.4092 35.2812L96.0107 33.4297H97.167V35.3516H99.6436V36.75H97.167V41.375C97.167 41.8125 97.2764 42.138 97.4951 42.3516C97.7139 42.5651 98.0029 42.6719 98.3623 42.6719ZM109.128 39.6562C109.128 40.375 109.034 41.013 108.847 41.5703C108.659 42.1276 108.386 42.599 108.026 42.9844C107.667 43.3646 107.235 43.6562 106.729 43.8594C106.224 44.0573 105.654 44.1562 105.019 44.1562C104.425 44.1562 103.881 44.0573 103.386 43.8594C102.891 43.6562 102.461 43.3646 102.097 42.9844C101.737 42.599 101.459 42.1276 101.261 41.5703C101.063 41.013 100.964 40.375 100.964 39.6562C100.964 38.7031 101.128 37.8958 101.456 37.2344C101.789 36.5677 102.263 36.0599 102.878 35.7109C103.493 35.362 104.224 35.1875 105.073 35.1875C105.87 35.1875 106.573 35.362 107.183 35.7109C107.792 36.0599 108.269 36.5677 108.612 37.2344C108.956 37.901 109.128 38.7083 109.128 39.6562ZM102.854 39.6562C102.854 40.2865 102.93 40.8255 103.081 41.2734C103.237 41.7214 103.477 42.0651 103.8 42.3047C104.123 42.5391 104.539 42.6562 105.05 42.6562C105.56 42.6562 105.977 42.5391 106.3 42.3047C106.623 42.0651 106.86 41.7214 107.011 41.2734C107.162 40.8255 107.237 40.2865 107.237 39.6562C107.237 39.026 107.162 38.4922 107.011 38.0547C106.86 37.612 106.623 37.276 106.3 37.0469C105.977 36.8125 105.558 36.6953 105.042 36.6953C104.282 36.6953 103.727 36.9505 103.378 37.4609C103.029 37.9714 102.854 38.7031 102.854 39.6562ZM115.62 35.1875C115.766 35.1875 115.925 35.1953 116.097 35.2109C116.269 35.2266 116.417 35.2474 116.542 35.2734L116.37 36.9922C116.261 36.9609 116.125 36.9375 115.964 36.9219C115.808 36.9062 115.667 36.8984 115.542 36.8984C115.214 36.8984 114.901 36.9531 114.604 37.0625C114.308 37.1667 114.045 37.3281 113.815 37.5469C113.586 37.7604 113.407 38.0286 113.276 38.3516C113.146 38.6745 113.081 39.0495 113.081 39.4766V44H111.237V35.3516H112.675L112.925 36.875H113.011C113.183 36.5677 113.396 36.2865 113.651 36.0312C113.907 35.776 114.198 35.5729 114.526 35.4219C114.86 35.2656 115.224 35.1875 115.62 35.1875ZM121.589 35.1875C122.36 35.1875 123.021 35.3464 123.573 35.6641C124.125 35.9818 124.55 36.4323 124.847 37.0156C125.144 37.599 125.292 38.2969 125.292 39.1094V40.0938H119.519C119.539 40.9323 119.763 41.5781 120.19 42.0312C120.623 42.4844 121.227 42.7109 122.003 42.7109C122.555 42.7109 123.05 42.6589 123.487 42.5547C123.93 42.4453 124.386 42.2865 124.854 42.0781V43.5703C124.422 43.7734 123.982 43.9219 123.534 44.0156C123.086 44.1094 122.55 44.1562 121.925 44.1562C121.076 44.1562 120.328 43.9922 119.683 43.6641C119.042 43.3307 118.539 42.8359 118.175 42.1797C117.815 41.5234 117.636 40.7083 117.636 39.7344C117.636 38.7656 117.8 37.9427 118.128 37.2656C118.456 36.5885 118.917 36.0729 119.511 35.7188C120.104 35.3646 120.797 35.1875 121.589 35.1875ZM121.589 36.5703C121.011 36.5703 120.542 36.7578 120.183 37.1328C119.828 37.5078 119.62 38.0573 119.558 38.7812H123.495C123.49 38.349 123.417 37.9661 123.276 37.6328C123.141 37.2995 122.933 37.0391 122.651 36.8516C122.375 36.6641 122.021 36.5703 121.589 36.5703Z" fill="white"/>
<path d="M30.3695 13.1348C28.7642 13.4772 27.0447 14.424 25.9968 15.5386C24.7341 16.8882 24.0557 18.4594 24.0557 20.0641V20.5879H24.4788C26.1849 20.5879 28.1462 19.7217 29.4695 18.3989C30.8934 16.9755 31.7196 15.0081 31.592 13.3496L31.5651 13.0005L31.2561 13.0072C31.0815 13.0072 30.6852 13.0676 30.3695 13.1348Z" fill="white"/>
<path d="M29.4964 21.6886C28.6971 21.8498 27.9986 22.0781 26.6753 22.6018C24.8081 23.3404 24.8282 23.3471 22.3027 22.3735C20.7981 21.8028 20.0928 21.655 19.0853 21.7088C17.2314 21.8028 15.485 22.5884 14.0611 23.9715C12.6237 25.3547 11.6699 27.3556 11.287 29.7863C11.1459 30.6458 11.1661 33.3047 11.3139 34.285C11.5758 35.9569 12.1602 38.119 12.7378 39.5089C14.0006 42.5438 16.1903 45.6862 17.7755 46.7404C18.5211 47.2305 18.8838 47.3447 19.7234 47.3447C20.5966 47.3447 21.0332 47.2507 21.9399 46.8747C23.6057 46.1831 23.908 46.1025 24.9961 46.0555C26.1716 46.0085 26.8097 46.1495 28.2135 46.7672C28.5628 46.9217 29.0665 47.1097 29.3487 47.1835C29.9532 47.3514 30.9741 47.385 31.5115 47.2507C32.3981 47.0358 33.3653 46.3308 34.2453 45.2766C35.0446 44.3097 36.3006 42.3625 36.8783 41.2009C37.4089 40.1266 38.0604 38.4883 38.0067 38.354C37.9865 38.3137 37.8253 38.2063 37.6507 38.1123C37.1671 37.8638 36.3006 37.2394 35.8775 36.8298C34.252 35.2519 33.4862 33.1368 33.6743 30.733C33.8019 29.0343 34.5408 27.4698 35.8036 26.1806C36.2267 25.7509 36.8447 25.2272 37.1402 25.0459C37.2074 25.0056 36.9118 24.5893 36.5021 24.1327C35.4274 22.9241 33.9967 22.1183 32.3175 21.7558C31.6324 21.6148 30.0539 21.5745 29.4964 21.6886Z" fill="white"/>
</svg>
