<svg width="28" height="35" viewBox="0 0 28 35" fill="none" xmlns="http://www.w3.org/2000/svg">
<path d="M19.5355 0.134803C17.9302 0.477242 16.2107 1.42399 15.1629 2.53859C13.9001 3.88821 13.2217 5.4594 13.2217 7.06416V7.58789H13.6448C15.3509 7.58789 17.3123 6.72172 18.6355 5.39897C20.0595 3.97549 20.8856 2.00815 20.758 0.349667L20.7311 0.000513554L20.4222 0.0072279C20.2475 0.0072279 19.8512 0.0676584 19.5355 0.134803Z" fill="black"/>
<path d="M18.6624 8.68865C17.8631 8.84979 17.1646 9.07809 15.8414 9.60182C13.9741 10.3404 13.9942 10.3471 11.4687 9.37353C9.9641 8.80279 9.25883 8.65508 8.2513 8.70879C6.39744 8.80279 4.65106 9.58839 3.22708 10.9716C1.78967 12.3548 0.835874 14.3557 0.453013 16.7863C0.311959 17.6458 0.332109 20.3047 0.47988 21.285C0.741838 22.9569 1.32621 25.119 1.90386 26.5089C3.16663 29.5439 5.35633 32.6862 6.94151 33.7404C7.68708 34.2306 8.04979 34.3447 8.8894 34.3447C9.76259 34.3447 10.1992 34.2507 11.106 33.8747C12.7717 33.1831 13.074 33.1025 14.1621 33.0555C15.3376 33.0085 15.9757 33.1495 17.3795 33.7673C17.7288 33.9217 18.2326 34.1097 18.5147 34.1836C19.1192 34.3514 20.1402 34.385 20.6775 34.2507C21.5641 34.0359 22.5314 33.3308 23.4113 32.2767C24.2106 31.3098 25.4666 29.3626 26.0443 28.201C26.5749 27.1266 27.2264 25.4883 27.1727 25.354C27.1526 25.3137 26.9914 25.2063 26.8167 25.1123C26.3331 24.8639 25.4666 24.2394 25.0435 23.8298C23.418 22.2519 22.6523 20.1369 22.8403 17.7331C22.968 16.0343 23.7068 14.4698 24.9696 13.1806C25.3927 12.7509 26.0107 12.2272 26.3062 12.0459C26.3734 12.0056 26.0779 11.5893 25.6681 11.1327C24.5934 9.92411 23.1627 9.11837 21.4835 8.75579C20.7984 8.61479 19.2199 8.5745 18.6624 8.68865Z" fill="black"/>
</svg>
