<svg width="27" height="26" viewBox="0 0 27 26" fill="none" xmlns="http://www.w3.org/2000/svg">
<ellipse cx="13.5" cy="13" rx="13.5" ry="13" fill="#095FBA"/>
<path d="M11.724 13.2205C12.1899 14.1496 12.9678 14.899 13.9311 15.3465C14.0021 15.379 14.0807 15.3931 14.1591 15.3873C14.2375 15.3816 14.313 15.3562 14.3782 15.3137L15.793 14.401C15.8555 14.3601 15.9277 14.3351 16.0029 14.3284C16.0781 14.3217 16.1539 14.3335 16.2231 14.3627L18.8716 15.4613C18.9621 15.4977 19.0377 15.5618 19.0868 15.6437C19.1359 15.7257 19.1557 15.821 19.1432 15.9149C19.0593 16.5477 18.7395 17.1292 18.2436 17.5507C17.7478 17.9722 17.11 18.2047 16.4494 18.2049C14.4082 18.2049 12.4506 17.4218 11.0072 16.0278C9.56381 14.6339 8.75293 12.7433 8.75293 10.772C8.75308 10.1341 8.99391 9.51809 9.43035 9.03926C9.86679 8.56043 10.4689 8.25158 11.1241 8.17051C11.2214 8.15845 11.32 8.17759 11.4049 8.22499C11.4898 8.2724 11.5562 8.34543 11.5938 8.43285L12.7313 10.9961C12.7609 11.0619 12.7733 11.1337 12.7674 11.2051C12.7615 11.2766 12.7374 11.3456 12.6974 11.406L11.7523 12.7942C11.7102 12.857 11.6855 12.9291 11.6806 13.0038C11.6756 13.0784 11.6906 13.153 11.724 13.2205V13.2205Z" stroke="white" stroke-linecap="round" stroke-linejoin="round"/>
</svg>
