<svg width="48" height="48" viewBox="0 0 48 48" fill="none" xmlns="http://www.w3.org/2000/svg">
<path d="M11.2687 0.171117C11.0759 0.261114 10.7867 0.491105 10.626 0.681097L10.3368 1.03108L10.3046 8.52079L10.2832 16.0005H11.1402H11.9971V8.92077C11.9971 3.55098 12.0292 1.81105 12.1256 1.72106C12.2221 1.63106 13.1326 1.60106 15.5535 1.60106H18.8527V2.80101V4.00097H16.4961C14.2787 4.00097 14.1288 4.01097 13.9252 4.20096C13.711 4.40095 13.711 4.53095 13.711 10.2007V16.0005H14.568H15.4249V10.8007V5.6009H17.1281H18.8313L18.8741 6.29088C18.9063 6.84085 18.9705 7.04085 19.1955 7.32084C19.7847 8.04081 19.2169 8.00081 29.1361 8.00081C39.0554 8.00081 38.4876 8.04081 39.0768 7.32084C39.3017 7.04085 39.366 6.84085 39.3981 6.29088L39.441 5.6009H41.1442H42.8474V24.0002V42.3995H36.8487H30.85V43.1994V43.9994H37.4914C43.9935 43.9994 44.1328 43.9994 44.347 43.7994C44.5613 43.5994 44.5613 43.4694 44.5613 24.0002C44.5613 4.53095 44.5613 4.40095 44.347 4.20096C44.1435 4.01097 43.9935 4.00097 41.7762 4.00097H39.4196V2.80101V1.60106H42.7188C45.1397 1.60106 46.0502 1.63106 46.1466 1.72106C46.243 1.81105 46.2752 2.92101 46.2752 6.12088V10.4007H47.1321H47.9998L47.9676 5.7209L47.9355 1.03108L47.6463 0.681097C47.0464 -0.0588736 48.5996 0.00112401 29.1147 0.00112401C13.1433 0.00112401 11.5901 0.0211232 11.2687 0.171117ZM37.7057 3.88097C37.7057 5.52091 37.6735 6.19088 37.5771 6.28088C37.395 6.45087 20.8773 6.45087 20.6952 6.28088C20.5988 6.19088 20.5666 5.52091 20.5666 3.88097V1.60106H29.1361H37.7057V3.88097Z" fill="white"/>
<path d="M22.2803 4.00106V4.80103H23.1372H23.9942V4.00106V3.20109H23.1372H22.2803V4.00106Z" fill="white"/>
<path d="M25.709 4.00106V4.80103H29.1368H32.5646V4.00106V3.20109H29.1368H25.709V4.00106Z" fill="white"/>
<path d="M34.2783 4.00106V4.80103H35.1353H35.9922V4.00106V3.20109H35.1353H34.2783V4.00106Z" fill="white"/>
<path d="M27.2613 9.8408C25.3868 10.4008 23.9406 11.7807 23.3622 13.5407C23.0301 14.5506 23.0516 15.9706 23.4051 16.9705C24.0478 18.7304 25.3546 19.9504 27.2399 20.5504C28.2254 20.8604 29.8108 20.9004 30.7534 20.6404C32.3066 20.2104 33.7206 19.1604 34.4169 17.9205C34.9739 16.9305 35.1346 16.3105 35.1346 15.1706C35.1346 14.3806 35.081 14.0406 34.8668 13.4307C34.2241 11.6707 32.9172 10.4508 31.0319 9.8508C29.9286 9.51081 28.3647 9.50081 27.2613 9.8408ZM30.2071 11.4107C31.3319 11.6507 32.4352 12.5107 32.9708 13.5807C33.2279 14.0806 33.26 14.2706 33.26 15.2006C33.26 16.1306 33.2279 16.3205 32.9708 16.8205C32.5744 17.6205 31.8246 18.3405 30.9676 18.7304C30.3142 19.0304 30.1964 19.0504 29.1359 19.0504C28.1397 19.0504 27.9469 19.0204 27.3899 18.7804C26.5972 18.4305 25.676 17.5705 25.3011 16.8305C25.044 16.3105 25.0118 16.1306 25.0118 15.2006C25.0118 14.2706 25.044 14.0806 25.3011 13.5807C25.8902 12.4107 27.2078 11.4707 28.5146 11.3107C29.1145 11.2307 29.4251 11.2507 30.2071 11.4107Z" fill="white"/>
<path d="M28.2793 13.6006V14.4006H27.4224H26.5654V15.2006V16.0005H27.4224H28.2793V16.8005V17.6005H29.1363H29.9932V16.8005V16.0005H30.8502H31.7071V15.2006V14.4006H30.8502H29.9932V13.6006V12.8007H29.1363H28.2793V13.6006Z" fill="white"/>
<path d="M46.2758 29.08C46.2758 42.2295 46.2436 46.1893 46.1472 46.2793C46.0508 46.3693 44.0048 46.3993 37.5777 46.3993H29.1367V47.1993V47.9993L38.0062 47.9793L46.8863 47.9493L47.2612 47.6793C48.0539 47.1193 47.9897 48.6892 47.9897 29.36V12.0007H47.1327H46.2758V29.08Z" fill="white"/>
<path d="M0.985494 17.7705C0.79268 17.8605 0.503459 18.0905 0.342781 18.2804L0.0535595 18.6304L0.0214238 21.4603C-0.0107119 24.1402 0 24.3102 0.203526 24.6902C0.4499 25.1402 0.899799 25.4702 1.38183 25.5602L1.7139 25.6202V26.5801V27.5401L0.856952 28.36L0 29.18V31.3899V33.5998H0.856952H1.7139V31.8199V30.04L2.38875 29.42L3.0636 28.8H8.81589H14.5682V28.0001V27.2001H8.99799H3.42781V26.4001V25.6002H10.2834H17.139V27.0101V28.42L17.996 29.24L18.8529 30.06V34.2298V38.3897L18.5423 38.7196C18.0388 39.2696 17.6853 39.8596 17.4068 40.6396C16.7855 42.3695 17.2247 44.6594 18.4245 45.9294C18.5958 46.1193 18.7458 46.2993 18.7458 46.3393C18.7458 46.3693 14.9752 46.3993 10.3584 46.3993C3.97411 46.3993 1.93885 46.3693 1.84245 46.2793C1.74604 46.1893 1.7139 44.8094 1.7139 40.6796V35.1998H0.856952H0L0.0214238 41.0795L0.0535595 46.9693L0.342781 47.3193C0.931935 48.0493 0.0856952 47.9993 12.7686 47.9993C25.3979 47.9993 24.5945 48.0393 26.0406 47.3393C26.8547 46.9393 27.7224 46.1793 28.2366 45.4294C29.1899 44.0594 29.4149 42.1195 28.8364 40.5396C28.2044 38.8596 26.9297 37.6697 25.1301 37.0797C23.9625 36.6997 22.3879 36.6897 21.2952 37.0397L20.5668 37.2697V33.2199V29.18L19.7099 28.36L18.8529 27.5401V26.5801V25.6202L19.185 25.5602C19.667 25.4702 20.1169 25.1402 20.3633 24.6902C20.5668 24.3102 20.5775 24.1402 20.5454 21.4603L20.5133 18.6304L20.2241 18.2804C19.6349 17.5605 20.2026 17.6005 10.262 17.6005C2.21736 17.6005 1.30685 17.6205 0.985494 17.7705ZM18.7244 19.3204C18.9065 19.4904 18.9065 23.7102 18.7244 23.8802C18.5423 24.0502 2.02455 24.0502 1.84245 23.8802C1.66034 23.7102 1.66034 19.4904 1.84245 19.3204C2.02455 19.1504 18.5423 19.1504 18.7244 19.3204ZM24.2089 38.6096C25.3336 38.8496 26.437 39.7096 26.9726 40.7796C27.2296 41.2795 27.2618 41.4695 27.2618 42.3995C27.2618 43.5894 27.0904 44.0794 26.3941 44.8694L26.0085 45.3094L23.9411 41.9795C22.8056 40.1496 21.8951 38.6296 21.9165 38.6096C21.9272 38.5996 22.2058 38.5496 22.5164 38.5096C23.1163 38.4297 23.4269 38.4497 24.2089 38.6096ZM24.0589 46.2393C23.8768 46.2793 23.3305 46.2993 22.8485 46.2793C22.1201 46.2393 21.8523 46.1793 21.2631 45.8994C20.4276 45.4994 19.6992 44.7994 19.2921 43.9994C19.0457 43.5195 19.0136 43.3195 19.0136 42.3995C19.0136 41.4795 19.0457 41.2795 19.2921 40.7996C19.4421 40.4896 19.7313 40.0696 19.9241 39.8696L20.2669 39.4996L22.3343 42.8195L24.391 46.1493L24.0589 46.2393Z" fill="white"/>
<path d="M22.2803 24.8001V25.6001H28.7074H35.1345V24.8001V24.0002H28.7074H22.2803V24.8001Z" fill="white"/>
<path d="M36.8486 24.8001V25.6001H38.991H41.1334V24.8001V24.0002H38.991H36.8486V24.8001Z" fill="white"/>
<path d="M22.2803 28.8V29.6H24.8511H27.422V28.8V28H24.8511H22.2803V28.8Z" fill="white"/>
<path d="M29.1367 28.8V29.6H35.1354H41.134V28.8V28H35.1354H29.1367V28.8Z" fill="white"/>
<path d="M7.92683 32.1999C7.73402 32.3799 7.7126 32.5299 7.7126 33.7998V35.1998H6.21293C4.15625 35.1998 4.28479 35.0398 4.28479 37.5997C4.28479 40.1596 4.15625 39.9996 6.21293 39.9996H7.7126V41.3995C7.7126 43.3194 7.54121 43.1994 10.2835 43.1994C13.0257 43.1994 12.8543 43.3194 12.8543 41.3995V39.9996H14.354C16.4107 39.9996 16.2821 40.1596 16.2821 37.5997C16.2821 35.0398 16.4107 35.1998 14.354 35.1998H12.8543V33.7998C12.8543 31.8799 13.0257 31.9999 10.2835 31.9999C8.28033 31.9999 8.13036 32.0099 7.92683 32.1999ZM11.1404 34.9998C11.1404 36.8697 11.0654 36.7997 13.0685 36.7997H14.5682V37.5997V38.3996H13.0685C11.0654 38.3996 11.1404 38.3296 11.1404 40.1996V41.5995H10.2835H9.4265V40.1996C9.4265 38.3296 9.50148 38.3996 7.49836 38.3996H5.99869V37.5997V36.7997H7.49836C9.50148 36.7997 9.4265 36.8697 9.4265 34.9998V33.5998H10.2835H11.1404V34.9998Z" fill="white"/>
<path d="M23.9951 32.7999V33.5999H29.5653H35.1355V32.7999V31.9999H29.5653H23.9951V32.7999Z" fill="white"/>
<path d="M36.8486 32.7999V33.5999H38.991H41.1334V32.7999V31.9999H38.991H36.8486V32.7999Z" fill="white"/>
<path d="M29.1367 36.7998V37.5997H35.1354H41.134V36.7998V35.9998H35.1354H29.1367V36.7998Z" fill="white"/>
</svg>
