<svg width="48" height="48" viewBox="0 0 48 48" fill="none" xmlns="http://www.w3.org/2000/svg">
<g clip-path="url(#clip0_192_410)">
<mask id="path-1-inside-1_192_410" fill="white">
<path d="M21.7276 12.3754C20.875 12.5639 20.1183 13.0745 19.6423 13.7804C19.3239 14.2464 19.1081 14.8427 19.067 15.3601L19.0465 15.6206L18.752 15.6925C17.9371 15.8879 17.1769 16.4019 16.7386 17.0564C16.5434 17.3511 12.6604 24.4137 12.544 24.6844C12.366 25.1128 12.2975 25.4692 12.3009 26.0003C12.3043 26.5897 12.3968 26.9906 12.6502 27.5081C13.1159 28.4539 13.9822 29.1084 15.0539 29.3277C15.4751 29.4134 16.1942 29.3825 16.6085 29.2592C17.444 29.0159 18.1733 28.4642 18.5877 27.7685C18.6493 27.6623 19.3376 26.4184 20.1183 24.9997C20.899 23.581 21.5427 22.4296 21.5496 22.4365C21.5598 22.4433 21.7516 22.9025 21.981 23.4542C22.2104 24.0059 22.457 24.5679 22.5255 24.6981C22.8371 25.291 23.3575 25.7878 24.0047 26.1031C24.4533 26.3259 24.8368 26.4252 25.3264 26.4526C26.7851 26.5315 28.1137 25.685 28.6581 24.3315C28.8328 23.9031 28.8944 23.5707 28.8944 23.0533C28.8944 22.5598 28.8328 22.224 28.6513 21.7648C28.3773 21.0794 25.5524 14.3116 25.4737 14.1539C25.234 13.6742 24.7854 13.167 24.354 12.8826C24.0732 12.6941 23.6246 12.4919 23.313 12.4063C22.9227 12.3035 22.1283 12.2863 21.7276 12.3754ZM22.909 12.91C23.7034 13.0505 24.4464 13.5508 24.8539 14.2156C24.9224 14.3321 25.3127 15.2265 25.7202 16.2031C26.1277 17.1798 26.4667 17.9919 26.4735 18.0022C26.4838 18.0193 22.9706 19.5066 22.9192 19.5066C22.9158 19.5066 22.909 19.2633 22.9055 18.9651C22.9021 18.5299 22.8884 18.3757 22.8302 18.1633C22.4467 16.7686 21.3407 15.7919 19.9402 15.624L19.6081 15.5863L19.6286 15.4287C19.7861 14.1402 20.7141 13.1396 21.9605 12.9134C22.3132 12.8483 22.5494 12.8483 22.909 12.91ZM20.3956 16.3094C21.351 16.6418 22.0324 17.3717 22.2789 18.3243C22.4056 18.8212 22.3714 19.4723 22.1865 19.9863C22.0906 20.2467 20.2415 23.5879 20.197 23.5776C20.1183 23.5604 15.2936 20.8944 15.2902 20.867C15.2868 20.8087 17.1564 17.4573 17.2933 17.2791C17.7077 16.7411 18.3206 16.3573 18.9917 16.2168C19.0739 16.1997 19.3581 16.1894 19.6218 16.1963C20.0532 16.2031 20.132 16.2168 20.3956 16.3094ZM27.4528 20.3701C27.8603 21.357 28.2233 22.2617 28.2575 22.3851C28.3431 22.7003 28.3397 23.4474 28.2541 23.7558C27.7747 25.4315 26.0489 26.3121 24.4601 25.6885C23.9431 25.4863 23.4157 25.0442 23.1213 24.5713C23.0322 24.4308 22.7343 23.7695 22.433 23.0396L21.8988 21.7614L22.1933 21.2268C22.3577 20.9355 22.5391 20.5894 22.6042 20.4558L22.7172 20.2159L24.6793 19.4003C25.7579 18.9514 26.6584 18.5813 26.6755 18.5813C26.6961 18.5813 27.0453 19.3866 27.4528 20.3701ZM17.4817 22.7517L19.9471 24.1087L19.8512 24.2835C18.9472 25.9455 18.0501 27.5355 17.9131 27.7206C17.5536 28.19 16.9749 28.5704 16.3688 28.728C15.9819 28.8308 15.3792 28.8308 14.9991 28.728C14.4307 28.5772 13.8657 28.2209 13.5165 27.7925C13.2905 27.5218 13.0576 27.0695 12.9549 26.7165C12.8453 26.3293 12.8419 25.6371 12.9549 25.2533C13.0508 24.914 13.1124 24.7975 14.0917 23.019C14.5369 22.2069 14.9204 21.5112 14.9444 21.4667C14.9649 21.4256 14.9923 21.3913 14.9991 21.3913C15.0094 21.3913 16.1257 22.0047 17.4817 22.7517Z"/>
</mask>
<path d="M21.7276 12.3754C20.875 12.5639 20.1183 13.0745 19.6423 13.7804C19.3239 14.2464 19.1081 14.8427 19.067 15.3601L19.0465 15.6206L18.752 15.6925C17.9371 15.8879 17.1769 16.4019 16.7386 17.0564C16.5434 17.3511 12.6604 24.4137 12.544 24.6844C12.366 25.1128 12.2975 25.4692 12.3009 26.0003C12.3043 26.5897 12.3968 26.9906 12.6502 27.5081C13.1159 28.4539 13.9822 29.1084 15.0539 29.3277C15.4751 29.4134 16.1942 29.3825 16.6085 29.2592C17.444 29.0159 18.1733 28.4642 18.5877 27.7685C18.6493 27.6623 19.3376 26.4184 20.1183 24.9997C20.899 23.581 21.5427 22.4296 21.5496 22.4365C21.5598 22.4433 21.7516 22.9025 21.981 23.4542C22.2104 24.0059 22.457 24.5679 22.5255 24.6981C22.8371 25.291 23.3575 25.7878 24.0047 26.1031C24.4533 26.3259 24.8368 26.4252 25.3264 26.4526C26.7851 26.5315 28.1137 25.685 28.6581 24.3315C28.8328 23.9031 28.8944 23.5707 28.8944 23.0533C28.8944 22.5598 28.8328 22.224 28.6513 21.7648C28.3773 21.0794 25.5524 14.3116 25.4737 14.1539C25.234 13.6742 24.7854 13.167 24.354 12.8826C24.0732 12.6941 23.6246 12.4919 23.313 12.4063C22.9227 12.3035 22.1283 12.2863 21.7276 12.3754ZM22.909 12.91C23.7034 13.0505 24.4464 13.5508 24.8539 14.2156C24.9224 14.3321 25.3127 15.2265 25.7202 16.2031C26.1277 17.1798 26.4667 17.9919 26.4735 18.0022C26.4838 18.0193 22.9706 19.5066 22.9192 19.5066C22.9158 19.5066 22.909 19.2633 22.9055 18.9651C22.9021 18.5299 22.8884 18.3757 22.8302 18.1633C22.4467 16.7686 21.3407 15.7919 19.9402 15.624L19.6081 15.5863L19.6286 15.4287C19.7861 14.1402 20.7141 13.1396 21.9605 12.9134C22.3132 12.8483 22.5494 12.8483 22.909 12.91ZM20.3956 16.3094C21.351 16.6418 22.0324 17.3717 22.2789 18.3243C22.4056 18.8212 22.3714 19.4723 22.1865 19.9863C22.0906 20.2467 20.2415 23.5879 20.197 23.5776C20.1183 23.5604 15.2936 20.8944 15.2902 20.867C15.2868 20.8087 17.1564 17.4573 17.2933 17.2791C17.7077 16.7411 18.3206 16.3573 18.9917 16.2168C19.0739 16.1997 19.3581 16.1894 19.6218 16.1963C20.0532 16.2031 20.132 16.2168 20.3956 16.3094ZM27.4528 20.3701C27.8603 21.357 28.2233 22.2617 28.2575 22.3851C28.3431 22.7003 28.3397 23.4474 28.2541 23.7558C27.7747 25.4315 26.0489 26.3121 24.4601 25.6885C23.9431 25.4863 23.4157 25.0442 23.1213 24.5713C23.0322 24.4308 22.7343 23.7695 22.433 23.0396L21.8988 21.7614L22.1933 21.2268C22.3577 20.9355 22.5391 20.5894 22.6042 20.4558L22.7172 20.2159L24.6793 19.4003C25.7579 18.9514 26.6584 18.5813 26.6755 18.5813C26.6961 18.5813 27.0453 19.3866 27.4528 20.3701ZM17.4817 22.7517L19.9471 24.1087L19.8512 24.2835C18.9472 25.9455 18.0501 27.5355 17.9131 27.7206C17.5536 28.19 16.9749 28.5704 16.3688 28.728C15.9819 28.8308 15.3792 28.8308 14.9991 28.728C14.4307 28.5772 13.8657 28.2209 13.5165 27.7925C13.2905 27.5218 13.0576 27.0695 12.9549 26.7165C12.8453 26.3293 12.8419 25.6371 12.9549 25.2533C13.0508 24.914 13.1124 24.7975 14.0917 23.019C14.5369 22.2069 14.9204 21.5112 14.9444 21.4667C14.9649 21.4256 14.9923 21.3913 14.9991 21.3913C15.0094 21.3913 16.1257 22.0047 17.4817 22.7517Z" fill="#095FBA"/>
<path d="M21.7276 12.3754L22.596 16.28L22.591 16.2811L21.7276 12.3754ZM19.6423 13.7804L22.9589 16.0166L22.9519 16.0269L22.9449 16.0371L19.6423 13.7804ZM19.067 15.3601L15.0794 15.0456L15.0796 15.0435L19.067 15.3601ZM19.0465 15.6206L23.0341 15.9352L22.8066 18.8194L19.9961 19.5062L19.0465 15.6206ZM18.752 15.6925L19.7016 19.5782L19.693 19.5803L19.6843 19.5824L18.752 15.6925ZM16.7386 17.0564L13.4037 14.8477L13.4093 14.8392L13.415 14.8308L16.7386 17.0564ZM12.544 24.6844L8.85042 23.1491L8.85978 23.1265L8.86941 23.1042L12.544 24.6844ZM12.3009 26.0003L16.3008 25.9745L16.3008 25.9771L12.3009 26.0003ZM12.6502 27.5081L9.06158 29.275L9.05777 29.2673L12.6502 27.5081ZM15.0539 29.3277L14.2566 33.2474L14.252 33.2465L15.0539 29.3277ZM16.6085 29.2592L15.467 25.4255L15.4786 25.4221L15.4901 25.4187L16.6085 29.2592ZM18.5877 27.7685L22.0475 29.7759L22.036 29.7957L22.0243 29.8154L18.5877 27.7685ZM21.5496 22.4365L19.3296 25.7639L19.0001 25.544L18.7201 25.2638L21.5496 22.4365ZM22.5255 24.6981L26.0657 22.8363L26.0662 22.8371L22.5255 24.6981ZM24.0047 26.1031L25.7565 22.5071L25.7701 22.5137L25.7837 22.5205L24.0047 26.1031ZM25.3264 26.4526L25.1106 30.4468L25.1028 30.4464L25.3264 26.4526ZM28.6581 24.3315L24.9471 22.8388L24.9506 22.8301L24.9541 22.8214L28.6581 24.3315ZM28.6513 21.7648L32.3656 20.2802L32.3684 20.2874L32.3713 20.2946L28.6513 21.7648ZM25.4737 14.1539L21.8954 15.9417L25.4737 14.1539ZM24.354 12.8826L22.1524 16.2222L22.1385 16.213L22.1246 16.2038L24.354 12.8826ZM23.313 12.4063L24.3317 8.53816L24.3526 8.54366L24.3734 8.54938L23.313 12.4063ZM22.909 12.91L23.5853 8.9676L23.5955 8.96934L23.6056 8.97113L22.909 12.91ZM24.8539 14.2156L28.2642 12.1253L28.2836 12.1568L28.3023 12.1887L24.8539 14.2156ZM26.4735 18.0022L29.8025 15.7846L29.8553 15.8638L29.9042 15.9454L26.4735 18.0022ZM22.9055 18.9651L18.9058 19.0111L18.9057 19.0038L18.9057 18.9966L22.9055 18.9651ZM22.8302 18.1633L26.6871 17.1027L26.688 17.1063L22.8302 18.1633ZM19.9402 15.624L20.3913 11.6495L20.4038 11.651L20.4164 11.6525L19.9402 15.624ZM19.6081 15.5863L19.157 19.5608L15.116 19.1022L15.6416 15.0693L19.6081 15.5863ZM19.6286 15.4287L23.5991 15.9141L23.5971 15.9299L23.5951 15.9457L19.6286 15.4287ZM21.9605 12.9134L22.6866 16.847L22.6746 16.8492L21.9605 12.9134ZM20.3956 16.3094L19.0812 20.0872L19.0711 20.0837L20.3956 16.3094ZM22.2789 18.3243L26.1513 17.3222L26.1531 17.3291L26.1549 17.336L22.2789 18.3243ZM22.1865 19.9863L25.9503 21.3403L25.9453 21.3542L25.9402 21.3682L22.1865 19.9863ZM20.197 23.5776L21.0474 19.669L21.0723 19.6744L21.0971 19.6802L20.197 23.5776ZM15.2902 20.867L11.321 21.3628L11.3048 21.2326L11.2971 21.1017L15.2902 20.867ZM17.2933 17.2791L14.1219 14.8415L14.1242 14.8386L17.2933 17.2791ZM18.9917 16.2168L18.1721 12.3017L18.1753 12.301L18.9917 16.2168ZM19.6218 16.1963L19.5582 20.1958L19.538 20.1955L19.5178 20.1949L19.6218 16.1963ZM27.4528 20.3701L31.1482 18.839L31.1501 18.8436L27.4528 20.3701ZM28.2575 22.3851L32.1118 21.3152L32.1148 21.326L32.1177 21.3369L28.2575 22.3851ZM28.2541 23.7558L32.1084 24.8256L32.1041 24.8408L32.0998 24.8559L28.2541 23.7558ZM24.4601 25.6885L25.9168 21.9631L25.9217 21.9651L24.4601 25.6885ZM23.1213 24.5713L26.5 22.4303L26.5084 22.4436L26.5167 22.4569L23.1213 24.5713ZM22.433 23.0396L26.1237 21.4972L26.127 21.5052L26.1303 21.5132L22.433 23.0396ZM21.8988 21.7614L18.2082 23.3038L17.4637 21.5224L18.3952 19.8314L21.8988 21.7614ZM22.1933 21.2268L18.6897 19.2968L18.6996 19.2789L18.7097 19.2611L22.1933 21.2268ZM22.6042 20.4558L26.2228 22.1604L26.2119 22.1835L26.2007 22.2066L22.6042 20.4558ZM22.7172 20.2159L19.0986 18.5113L19.7564 17.1148L21.1819 16.5223L22.7172 20.2159ZM24.6793 19.4003L26.2162 23.0933L26.2146 23.0939L24.6793 19.4003ZM17.4817 22.7517L15.5529 26.256L15.5515 26.2552L17.4817 22.7517ZM19.9471 24.1087L21.8759 20.6045L25.3752 22.5306L23.454 26.0326L19.9471 24.1087ZM19.8512 24.2835L16.3373 22.3723L16.3408 22.3659L16.3442 22.3596L19.8512 24.2835ZM17.9131 27.7206L21.1282 30.1003L21.1087 30.1266L21.0888 30.1526L17.9131 27.7206ZM16.3688 28.728L15.3417 24.8621L15.3518 24.8595L15.362 24.8568L16.3688 28.728ZM14.9991 28.728L16.0247 24.8617L16.0341 24.8642L16.0435 24.8668L14.9991 28.728ZM13.5165 27.7925L16.5871 25.2291L16.602 25.2469L16.6166 25.2648L13.5165 27.7925ZM12.9549 26.7165L9.11427 27.8343L9.1101 27.82L9.10604 27.8056L12.9549 26.7165ZM12.9549 25.2533L16.8042 26.3411L16.7982 26.3621L16.7921 26.383L12.9549 25.2533ZM14.0917 23.019L17.5994 24.9416L17.5957 24.9484L14.0917 23.019ZM14.9444 21.4667L18.5226 23.2544L18.4955 23.3086L18.4668 23.3619L14.9444 21.4667ZM22.591 16.2811C22.6623 16.2654 22.7245 16.2378 22.7794 16.2008C22.834 16.1639 22.8985 16.1062 22.9589 16.0166L16.3257 11.5442C17.3895 9.96658 19.0354 8.87398 20.8643 8.46971L22.591 16.2811ZM22.9449 16.0371C22.9893 15.9722 23.0037 15.9348 23.01 15.9175C23.0147 15.9046 23.0219 15.8827 23.0295 15.8492C23.0369 15.8168 23.0479 15.7593 23.0545 15.6768L15.0796 15.0435C15.1799 13.7804 15.6572 12.5225 16.3397 11.5237L22.9449 16.0371ZM23.0547 15.6747L23.0341 15.9352L15.0589 15.306L15.0794 15.0456L23.0547 15.6747ZM19.9961 19.5062L19.7016 19.5782L17.8025 11.8069L18.097 11.7349L19.9961 19.5062ZM19.6843 19.5824C19.7658 19.5629 19.8132 19.5372 19.8467 19.5145C19.8776 19.4936 19.963 19.4302 20.0622 19.2821L13.415 14.8308C14.453 13.2806 16.0994 12.215 17.8197 11.8027L19.6843 19.5824ZM20.0735 19.2651C20.1379 19.1679 19.9769 19.4438 19.5137 20.2774C19.1243 20.9783 18.62 21.8916 18.1169 22.8067C17.6137 23.7217 17.1144 24.6336 16.7347 25.3314C16.5444 25.6812 16.3871 25.9719 16.2752 26.1806C16.0966 26.5139 16.1451 26.4357 16.2186 26.2647L8.86941 23.1042C8.97204 22.8655 9.16737 22.5073 9.22412 22.4014C9.34769 22.1709 9.51432 21.8631 9.70746 21.5081C10.0947 20.7964 10.6001 19.8734 11.1067 18.9521C11.6133 18.0309 12.1236 17.1064 12.5208 16.3917C12.8441 15.8097 13.2418 15.0922 13.4037 14.8477L20.0735 19.2651ZM16.2376 26.2198C16.2339 26.2288 16.2416 26.2112 16.2532 26.1737C16.2653 26.1343 16.2773 26.0871 16.2867 26.0365C16.3063 25.9313 16.3003 25.8886 16.3008 25.9745L8.30099 26.0261C8.29445 25.0124 8.44731 24.1188 8.85042 23.1491L16.2376 26.2198ZM16.3008 25.9771C16.3011 26.0233 16.303 26.0286 16.3007 26.006C16.2981 25.9805 16.2918 25.9356 16.2788 25.8793C16.2657 25.8228 16.2508 25.7764 16.2394 25.7459C16.2291 25.718 16.2265 25.7162 16.2426 25.7489L9.05777 29.2673C8.53207 28.1937 8.30779 27.1974 8.30097 26.0235L16.3008 25.9771ZM16.2388 25.7412C16.1954 25.6531 16.1253 25.5664 16.0382 25.5005C15.9526 25.4357 15.8819 25.4142 15.8558 25.4089L14.252 33.2465C12.0265 32.7911 10.0991 31.3822 9.06158 29.275L16.2388 25.7412ZM15.8512 25.408C15.7753 25.3925 15.7197 25.3851 15.6897 25.3815C15.6583 25.3779 15.6391 25.3767 15.6331 25.3764C15.6238 25.3759 15.6348 25.3767 15.6591 25.3756C15.6834 25.3746 15.694 25.3728 15.6841 25.3742C15.6779 25.3751 15.6585 25.378 15.6271 25.3845C15.597 25.3908 15.5418 25.4032 15.467 25.4255L17.75 33.0928C17.1144 33.2821 16.4752 33.3476 16.0084 33.368C15.5413 33.3884 14.9019 33.3787 14.2566 33.2474L15.8512 25.408ZM15.4901 25.4187C15.4342 25.435 15.3896 25.4581 15.3477 25.4897C15.3074 25.5201 15.2306 25.588 15.151 25.7217L22.0243 29.8154C21.0562 31.4408 19.4649 32.5935 17.7269 33.0997L15.4901 25.4187ZM15.1278 25.7611C15.1192 25.776 15.1494 25.7226 15.2463 25.5482C15.3299 25.3977 15.4448 25.1904 15.5828 24.9407C15.8587 24.4417 16.2247 23.7784 16.6139 23.0712L23.6227 26.9282C22.8611 28.312 22.139 29.6183 22.0475 29.7759L15.1278 25.7611ZM16.6139 23.0712C17.0072 22.3564 17.3675 21.7062 17.632 21.2328C17.7635 20.9974 17.8751 20.7989 17.9565 20.6558C17.9957 20.5871 18.0361 20.5165 18.0712 20.4569C18.0854 20.4328 18.117 20.3793 18.1544 20.3199C18.1657 20.3018 18.2189 20.2168 18.2916 20.1151C18.3115 20.0871 18.4264 19.9241 18.5967 19.7378C18.6484 19.6813 18.9129 19.3869 19.3291 19.1092C19.5147 18.9854 20.0454 18.6465 20.8232 18.5029C21.7642 18.3292 23.2197 18.4488 24.3791 19.6091L18.7201 25.2638C19.8794 26.424 21.3348 26.5437 22.2757 26.3699C23.0535 26.2263 23.584 25.8875 23.7695 25.7638C24.1854 25.4862 24.4496 25.1922 24.5008 25.1361C24.6703 24.9508 24.7841 24.7892 24.8026 24.7633C24.8724 24.6656 24.9214 24.5869 24.9275 24.5772C24.9543 24.5346 24.9706 24.5065 24.965 24.5159C24.9606 24.5235 24.9435 24.5529 24.9091 24.6133C24.8435 24.7286 24.7441 24.9053 24.6162 25.1342C24.3619 25.5894 24.01 26.2243 23.6227 26.9282L16.6139 23.0712ZM23.7695 19.109C24.3621 19.5044 24.6991 19.9698 24.7331 20.0145C24.8429 20.1587 24.9193 20.2798 24.9544 20.3366C25.0286 20.4569 25.0804 20.5553 25.0987 20.5903C25.1423 20.6737 25.1746 20.7428 25.1858 20.7667C25.214 20.8272 25.2392 20.8845 25.2542 20.9187C25.2879 20.9958 25.3282 21.0905 25.3685 21.186C25.451 21.3816 25.5602 21.6437 25.6744 21.9184L18.2876 24.99C18.1724 24.713 18.071 24.4696 17.9978 24.296C17.9601 24.2069 17.9362 24.151 17.9239 24.1228C17.9159 24.1045 17.9226 24.1204 17.9375 24.1523C17.942 24.162 17.969 24.22 18.0085 24.2956C18.0248 24.3267 18.0748 24.4221 18.1477 24.5402C18.1822 24.5959 18.258 24.7161 18.3673 24.8597C18.4228 24.9327 18.5145 25.0481 18.6389 25.1801C18.746 25.2937 18.98 25.5307 19.3296 25.7639L23.7695 19.109ZM25.6744 21.9184C25.78 22.1722 25.8891 22.4276 25.9775 22.6294C26.022 22.7309 26.0577 22.8108 26.0828 22.866C26.0955 22.8937 26.1024 22.9083 26.1043 22.9124C26.1103 22.925 26.0946 22.8912 26.0657 22.8363L18.9852 26.56C18.8145 26.2355 18.4935 25.4853 18.2876 24.99L25.6744 21.9184ZM26.0662 22.8371C25.9563 22.6281 25.8251 22.5406 25.7565 22.5071L22.2529 29.6991C20.8899 29.0351 19.7178 27.9539 18.9848 26.5592L26.0662 22.8371ZM25.7837 22.5205C25.7983 22.5277 25.792 22.5239 25.7686 22.5149C25.7441 22.5054 25.7097 22.4938 25.6685 22.4829C25.6273 22.4721 25.5916 22.4653 25.5656 22.4614C25.5408 22.4577 25.5335 22.458 25.55 22.4589L25.1028 30.4464C24.0776 30.389 23.1644 30.1519 22.2257 29.6857L25.7837 22.5205ZM25.5422 22.4585C25.2927 22.445 25.0419 22.6031 24.9471 22.8388L32.3692 25.8241C31.1855 28.767 28.2776 30.6179 25.1106 30.4468L25.5422 22.4585ZM24.9541 22.8214C24.9605 22.8057 24.9538 22.8204 24.9426 22.8571C24.9307 22.8962 24.9183 22.9449 24.9085 22.9983C24.8881 23.1081 24.8944 23.153 24.8944 23.0533H32.8944C32.8944 24.029 32.7535 24.8815 32.3621 25.8415L24.9541 22.8214ZM24.8944 23.0533C24.8944 23.0124 24.8931 23.0074 24.8946 23.0262C24.8963 23.0478 24.9005 23.0859 24.9095 23.1338C24.9185 23.1819 24.9288 23.2208 24.9362 23.2456C24.943 23.2678 24.944 23.2672 24.9313 23.235L32.3713 20.2946C32.7432 21.2355 32.8944 22.0714 32.8944 23.0533H24.8944ZM24.937 23.2494C24.8147 22.9434 24.057 21.1206 23.298 19.3024C22.4862 17.3577 21.854 15.8588 21.8954 15.9417L29.0519 12.3662C29.1721 12.6067 29.9918 14.5705 30.6805 16.2205C31.4222 17.997 32.214 19.9009 32.3656 20.2802L24.937 23.2494ZM21.8954 15.9417C21.9303 16.0116 21.9571 16.0518 21.9669 16.066C21.9778 16.0817 21.9837 16.0884 21.9855 16.0905C21.9873 16.0926 21.9951 16.1014 22.0135 16.1178C22.0302 16.1327 22.0748 16.1711 22.1524 16.2222L26.5555 9.54297C27.5881 10.2236 28.5052 11.2719 29.0519 12.3662L21.8954 15.9417ZM22.1246 16.2038C22.1557 16.2246 22.1783 16.2385 22.1907 16.2458C22.2034 16.2535 22.2106 16.2574 22.2117 16.258C22.2127 16.2585 22.2034 16.2535 22.1869 16.246C22.1795 16.2426 22.1727 16.2397 22.1671 16.2374C22.1615 16.235 22.1588 16.234 22.1595 16.2343C22.1601 16.2345 22.1669 16.2371 22.1801 16.2414C22.1928 16.2456 22.2173 16.2534 22.2526 16.2631L24.3734 8.54938C25.0889 8.7461 25.934 9.12563 26.5833 9.56142L22.1246 16.2038ZM22.2943 16.2744C22.3876 16.2989 22.4536 16.3109 22.4817 16.3157C22.498 16.3184 22.5097 16.3201 22.5165 16.321C22.52 16.3215 22.5226 16.3218 22.5242 16.322C22.5258 16.3222 22.5267 16.3223 22.5268 16.3223C22.5268 16.3224 22.5244 16.3221 22.5196 16.3217C22.5149 16.3213 22.5085 16.3208 22.5005 16.3203C22.4842 16.3193 22.4647 16.3185 22.4435 16.3181C22.4224 16.3176 22.403 16.3177 22.3867 16.318C22.3788 16.3182 22.3725 16.3184 22.3678 16.3186C22.3631 16.3188 22.3609 16.319 22.361 16.319C22.3611 16.319 22.3648 16.3187 22.3718 16.318C22.3787 16.3174 22.3907 16.3161 22.4072 16.314C22.4358 16.3103 22.5021 16.3009 22.596 16.28L20.8593 8.47082C21.5141 8.32519 22.179 8.31111 22.6048 8.31969C23.0304 8.32827 23.6898 8.36909 24.3317 8.53816L22.2943 16.2744ZM23.6056 8.97113C25.4903 9.30446 27.239 10.4526 28.2642 12.1253L21.4435 16.3059C21.5665 16.5066 21.6986 16.6211 21.7958 16.6864C21.8944 16.7526 22.0283 16.8163 22.2123 16.8489L23.6056 8.97113ZM28.3023 12.1887C28.4933 12.5136 28.7335 13.0748 28.8265 13.288C28.9934 13.6707 29.2012 14.1583 29.4118 14.6629L22.0286 17.7434C21.8317 17.2713 21.6406 16.8234 21.4933 16.4856C21.4191 16.3153 21.3606 16.1838 21.3205 16.0957C21.3109 16.0745 21.3032 16.0579 21.2974 16.0454C21.2945 16.0392 21.2923 16.0345 21.2907 16.0312C21.2892 16.0278 21.2885 16.0264 21.2886 16.0267C21.2887 16.0269 21.2901 16.0298 21.2927 16.0351C21.2952 16.0401 21.2999 16.0496 21.3064 16.0624C21.3125 16.0743 21.3493 16.147 21.4055 16.2425L28.3023 12.1887ZM29.4118 14.6629C29.6157 15.1517 29.8016 15.597 29.9372 15.9214C30.0053 16.0841 30.0594 16.2132 30.0965 16.3013C30.1154 16.3462 30.1277 16.3751 30.1344 16.3908C30.1384 16.4001 30.1367 16.3962 30.1321 16.3856C30.1307 16.3824 30.1218 16.362 30.1092 16.3346C30.1039 16.3229 30.0887 16.2897 30.068 16.2474C30.058 16.227 30.0377 16.1857 30.0106 16.1343C29.9967 16.1081 29.9751 16.0677 29.9473 16.019C29.9233 15.977 29.8729 15.8903 29.8025 15.7846L23.1445 20.2198C23.0253 20.0408 22.9468 19.8897 22.936 19.8693C22.9087 19.8175 22.8881 19.7759 22.8779 19.7549C22.8567 19.7114 22.8408 19.6767 22.8346 19.6632C22.8203 19.6321 22.8091 19.6064 22.8047 19.5965C22.7942 19.5724 22.7841 19.549 22.7774 19.5332C22.7626 19.4987 22.7441 19.4548 22.7239 19.4069C22.6828 19.3093 22.6254 19.1724 22.5569 19.0087C22.4196 18.6802 22.2322 18.2312 22.0286 17.7434L29.4118 14.6629ZM29.9042 15.9454C31.082 17.91 30.1245 19.692 29.9032 20.0608C29.5972 20.5708 29.2491 20.8859 29.1491 20.9759C28.8928 21.2066 28.6626 21.351 28.6166 21.3802C28.4669 21.4753 28.3419 21.5401 28.3167 21.5533C28.2328 21.5971 28.161 21.6309 28.1372 21.642C28.0726 21.6724 28.004 21.7032 27.9505 21.727C27.835 21.7783 27.6824 21.8447 27.5144 21.9172C27.1742 22.064 26.7252 22.2554 26.2787 22.4444C25.8322 22.6334 25.3795 22.8237 25.0317 22.9681C24.8596 23.0395 24.7031 23.104 24.5827 23.1525C24.5256 23.1755 24.4579 23.2025 24.3941 23.2269C24.3666 23.2374 24.3082 23.2595 24.2392 23.2834C24.2091 23.2937 24.1338 23.3195 24.0378 23.3473C23.9918 23.3606 23.8983 23.387 23.7788 23.4132C23.7351 23.4228 23.3786 23.5066 22.9192 23.5066V15.5066C22.4607 15.5066 22.1054 15.5901 22.0633 15.5993C21.9454 15.6252 21.854 15.651 21.8105 15.6636C21.7194 15.69 21.6507 15.7137 21.6288 15.7212C21.5984 15.7317 21.5756 15.74 21.5649 15.744C21.5529 15.7484 21.5446 15.7516 21.5414 15.7528C21.5347 15.7554 21.5477 15.7504 21.5916 15.7327C21.6731 15.6999 21.7994 15.648 21.9637 15.5797C22.2888 15.4448 22.7234 15.2621 23.1603 15.0772C23.5972 14.8923 24.0278 14.7086 24.345 14.5718C24.5058 14.5024 24.6263 14.4498 24.7012 14.4166C24.7429 14.398 24.7488 14.3951 24.7345 14.4018C24.729 14.4044 24.717 14.41 24.7005 14.4181C24.6864 14.4249 24.6541 14.4408 24.6121 14.4628C24.5932 14.4726 24.4729 14.5348 24.3263 14.628C24.2819 14.6562 24.0527 14.7998 23.7971 15.0298C23.6974 15.1195 23.3496 15.4344 23.0437 15.9442C22.8225 16.3127 21.8651 18.0945 23.0428 20.059L29.9042 15.9454ZM22.9192 23.5066C21.3349 23.5066 20.3455 22.6182 19.9717 22.2107C19.5779 21.7815 19.3738 21.3681 19.2949 21.199C19.1238 20.8328 19.0498 20.524 19.0309 20.4457C18.9781 20.2272 18.9561 20.0516 18.9514 20.0151C18.9363 19.8982 18.9297 19.8045 18.9282 19.7832C18.9233 19.7164 18.9208 19.659 18.9198 19.6351C18.9172 19.575 18.9153 19.5098 18.9138 19.4523C18.9106 19.3313 18.9077 19.1761 18.9058 19.0111L26.9053 18.9192C26.9068 19.0523 26.909 19.1677 26.911 19.243C26.9121 19.2835 26.9127 19.2978 26.9125 19.2926C26.9124 19.29 26.912 19.2825 26.9114 19.2712C26.9109 19.2618 26.9097 19.2388 26.9074 19.2079C26.9064 19.1938 26.9003 19.1056 26.8857 18.9924C26.8813 18.9577 26.8595 18.7836 26.8069 18.566C26.7881 18.4882 26.7142 18.1797 26.5433 17.8137C26.4644 17.6448 26.2603 17.2315 25.8666 16.8023C25.4928 16.3949 24.5035 15.5066 22.9192 15.5066V23.5066ZM18.9057 18.9966C18.9049 18.903 18.9038 18.8508 18.9028 18.8215C18.9018 18.7932 18.9017 18.8094 18.9056 18.8515C18.9101 18.8998 18.9186 18.9685 18.9337 19.0494C18.9486 19.1293 18.9641 19.1901 18.9724 19.2202L26.688 17.1063C26.8905 17.8454 26.9015 18.4341 26.9054 18.9337L18.9057 18.9966ZM18.9734 19.2238C18.9809 19.2514 19.0174 19.3426 19.1243 19.4367C19.2338 19.533 19.3629 19.5834 19.464 19.5956L20.4164 11.6525C23.4981 12.0219 25.891 14.2077 26.6871 17.1027L18.9734 19.2238ZM19.4892 19.5985L19.157 19.5608L20.0591 11.6118L20.3913 11.6495L19.4892 19.5985ZM15.6416 15.0693L15.6622 14.9117L23.5951 15.9457L23.5745 16.1033L15.6416 15.0693ZM15.6582 14.9433C16.0211 11.9742 18.2187 9.52709 21.2463 8.9777L22.6746 16.8492C22.9138 16.8058 23.1457 16.6797 23.3194 16.4923C23.4918 16.3064 23.5771 16.0938 23.5991 15.9141L15.6582 14.9433ZM21.2343 8.97989C22.0684 8.82591 22.7799 8.82942 23.5853 8.9676L22.2326 16.8524C22.1998 16.8468 22.2921 16.8646 22.4437 16.8642C22.5989 16.8637 22.6993 16.8446 22.6866 16.847L21.2343 8.97989ZM21.7101 12.5315C23.8889 13.2896 25.5594 15.0348 26.1513 17.3222L18.4065 19.3265C18.4476 19.4855 18.5372 19.6619 18.6804 19.8151C18.8223 19.9671 18.9731 20.0496 19.0812 20.0872L21.7101 12.5315ZM26.1549 17.336C26.4884 18.6442 26.3926 20.1108 25.9503 21.3403L18.4226 18.6323C18.3672 18.7864 18.3581 18.8836 18.3555 18.9301C18.3538 18.9613 18.3535 19.0029 18.3581 19.0575C18.3625 19.1102 18.3734 19.1969 18.4029 19.3126L26.1549 17.336ZM25.9402 21.3682C25.8234 21.6853 25.6453 22.0201 25.6321 22.0459C25.5572 22.1914 25.4649 22.3658 25.3665 22.5491C25.168 22.9193 24.9174 23.3775 24.6719 23.8211C24.4268 24.2637 24.1779 24.7075 23.9832 25.0471C23.8883 25.2126 23.7933 25.376 23.7134 25.5081C23.6782 25.5662 23.6188 25.6633 23.5518 25.7636C23.5272 25.8005 23.446 25.922 23.3338 26.0628C23.2914 26.1159 23.1432 26.3017 22.922 26.507C22.8221 26.5998 22.5683 26.8286 22.1926 27.0446C21.9769 27.1687 20.833 27.8297 19.2969 27.475L21.0971 19.6802C20.2793 19.4913 19.587 19.5992 19.1554 19.7157C18.7227 19.8325 18.3975 19.9986 18.2042 20.1098C17.8296 20.3252 17.5772 20.5529 17.4788 20.6443C17.2608 20.8467 17.1165 21.028 17.079 21.0751C16.9764 21.2037 16.9081 21.3071 16.8995 21.32C16.8645 21.3723 16.8495 21.3985 16.8693 21.3657C16.8994 21.316 16.9569 21.2181 17.0431 21.0677C17.2106 20.7756 17.4384 20.3698 17.6731 19.9458C17.9073 19.5228 18.1398 19.0976 18.3163 18.7684C18.4055 18.602 18.4737 18.4728 18.5185 18.3857C18.5416 18.3408 18.5507 18.3223 18.5503 18.323C18.5502 18.3232 18.5413 18.3414 18.5277 18.3716C18.5209 18.3867 18.4794 18.4778 18.4327 18.6044L25.9402 21.3682ZM19.3467 27.4861C19.0378 27.4189 18.8047 27.3278 18.7667 27.3132C18.6827 27.2811 18.6167 27.2527 18.5825 27.2377C18.5119 27.2067 18.4556 27.1796 18.4305 27.1674C18.3743 27.1402 18.3241 27.1144 18.2942 27.099C18.2283 27.0649 18.152 27.0245 18.0772 26.9845C17.9232 26.9021 17.7169 26.7903 17.4822 26.6623C17.0102 26.4048 16.3928 26.0653 15.781 25.7273C15.1692 25.3893 14.5565 25.0492 14.094 24.7903C13.8642 24.6618 13.6635 24.5488 13.5163 24.4648C13.4456 24.4244 13.3713 24.3817 13.3077 24.344C13.2811 24.3283 13.2254 24.2952 13.1635 24.256C13.1411 24.2418 13.0618 24.1916 12.9663 24.1232C12.9294 24.0969 12.8054 24.008 12.6589 23.88C12.5934 23.8227 12.4298 23.6771 12.2486 23.465C12.158 23.355 11.9535 23.073 11.8443 22.8982C11.6956 22.6216 11.4145 21.8563 11.321 21.3628L19.2594 20.3712C19.1659 19.8778 18.8849 19.1126 18.7363 18.8362C18.6272 18.6615 18.4227 18.3797 18.3323 18.2699C18.1515 18.0581 17.9883 17.913 17.9234 17.8563C17.7782 17.7293 17.6559 17.6418 17.6214 17.6171C17.5306 17.5522 17.4583 17.5066 17.4452 17.4982C17.4194 17.4819 17.4006 17.4705 17.3941 17.4665C17.3899 17.464 17.3867 17.4621 17.385 17.4611C17.3841 17.4605 17.3834 17.4601 17.383 17.4599C17.3825 17.4596 17.3823 17.4595 17.3823 17.4595C17.3823 17.4595 17.3825 17.4596 17.3829 17.4598C17.3832 17.46 17.3837 17.4603 17.3844 17.4607C17.3859 17.4616 17.3878 17.4627 17.3904 17.4642C17.3956 17.4673 17.4026 17.4713 17.4115 17.4764C17.4294 17.4868 17.4526 17.5001 17.4813 17.5165C17.5989 17.5836 17.7763 17.6835 18.0006 17.809C18.4461 18.0583 19.0451 18.3909 19.6497 18.725C20.2544 19.059 20.8581 19.391 21.313 19.6391C21.5418 19.7639 21.7253 19.8633 21.8502 19.9301C21.9149 19.9647 21.9504 19.9833 21.9638 19.9902C21.9735 19.9953 21.9548 19.9855 21.9216 19.9693C21.9079 19.9627 21.8609 19.9399 21.7973 19.912C21.7666 19.8986 21.7036 19.8713 21.622 19.8401C21.5863 19.8265 21.3551 19.7359 21.0474 19.669L19.3467 27.4861ZM11.2971 21.1017C11.2621 20.5061 11.3739 20.0464 11.396 19.9522C11.4367 19.7786 11.4807 19.6437 11.5041 19.5749C11.5522 19.4333 11.5983 19.3241 11.6169 19.2806C11.6592 19.1816 11.6982 19.101 11.7147 19.0672C11.7538 18.9868 11.795 18.9073 11.8257 18.8486C11.8919 18.7222 11.9773 18.5634 12.0689 18.3951C12.2551 18.0529 12.5002 17.6095 12.7463 17.1687C12.9924 16.7276 13.246 16.2774 13.4496 15.9214C13.5504 15.745 13.6451 15.5809 13.7231 15.4489C13.7612 15.3842 13.8037 15.3132 13.8451 15.2461C13.8469 15.2432 13.9676 15.0422 14.1219 14.8415L20.4647 19.7168C20.5581 19.5953 20.6208 19.498 20.6247 19.4919C20.6343 19.4772 20.6413 19.4663 20.6449 19.4605C20.6487 19.4545 20.651 19.4508 20.6514 19.4502C20.6519 19.4494 20.6488 19.4544 20.6413 19.4668C20.6342 19.4788 20.6246 19.4948 20.6125 19.5153C20.562 19.6009 20.4882 19.7283 20.3946 19.8921C20.2092 20.2164 19.9699 20.6411 19.732 21.0674C19.4939 21.4939 19.2637 21.9105 19.096 22.2187C19.0107 22.3755 18.9496 22.4895 18.9136 22.5582C18.8933 22.5971 18.8945 22.5957 18.9066 22.5709C18.9095 22.5649 18.9382 22.5065 18.9736 22.4235C18.9888 22.3881 19.0323 22.2855 19.0787 22.1488C19.1012 22.0825 19.1446 21.9497 19.1849 21.7778C19.2055 21.6898 19.2336 21.557 19.2553 21.3934C19.2752 21.2443 19.3033 20.9725 19.2833 20.6323L11.2971 21.1017ZM14.1242 14.8386C15.1255 13.5383 16.5747 12.6361 18.1721 12.3017L19.8113 20.132C20.0665 20.0786 20.2898 19.944 20.4625 19.7197L14.1242 14.8386ZM18.1753 12.301C18.6088 12.2107 19.0447 12.2018 19.1038 12.1998C19.2963 12.1933 19.5129 12.1921 19.7257 12.1976L19.5178 20.1949C19.4669 20.1936 19.4096 20.1941 19.3735 20.1953C19.3551 20.1959 19.3641 20.196 19.3955 20.1936C19.4114 20.1924 19.4487 20.1893 19.5007 20.1832C19.5275 20.18 19.5656 20.1751 19.612 20.1681C19.6563 20.1613 19.7245 20.1501 19.8081 20.1326L18.1753 12.301ZM19.6853 12.1968C19.8752 12.1998 20.2553 12.204 20.66 12.2642C21.157 12.3381 21.5358 12.4703 21.7201 12.535L19.0711 20.0837C19.0227 20.0667 19.0657 20.083 19.141 20.1042C19.2377 20.1314 19.3551 20.1581 19.4833 20.1772C19.598 20.1943 19.6759 20.1982 19.6831 20.1986C19.6843 20.1987 19.6563 20.1973 19.5582 20.1958L19.6853 12.1968ZM31.1501 18.8436C31.3577 19.3465 31.5562 19.8336 31.7091 20.2161C31.7961 20.4336 32.0187 20.9798 32.1118 21.3152L24.4032 23.4549C24.4317 23.5575 24.4571 23.6314 24.4602 23.6406C24.4677 23.6627 24.4721 23.6746 24.4709 23.6712C24.4685 23.6648 24.4595 23.6404 24.4411 23.5925C24.4051 23.4988 24.3512 23.3619 24.2811 23.1867C24.1422 22.8393 23.9554 22.3807 23.7556 21.8966L31.1501 18.8436ZM32.1177 21.3369C32.3064 22.0319 32.3211 22.7387 32.32 23.0859C32.3189 23.4316 32.2998 24.136 32.1084 24.8256L24.3998 22.6859C24.3593 22.832 24.3404 22.9401 24.3329 22.987C24.3243 23.0406 24.321 23.0746 24.32 23.0849C24.3183 23.103 24.3199 23.0918 24.32 23.06C24.3201 23.0283 24.3186 23.0174 24.3202 23.0359C24.3211 23.0464 24.3243 23.0805 24.3326 23.1342C24.3399 23.1815 24.358 23.2887 24.3973 23.4332L32.1177 21.3369ZM32.0998 24.8559C30.9984 28.7059 26.8743 30.9333 22.9985 29.4119L25.9217 21.9651C25.6245 21.8484 25.2607 21.8656 24.9567 22.0206C24.6572 22.1733 24.4738 22.4268 24.4084 22.6556L32.0998 24.8559ZM23.0034 29.4138C21.6692 28.8921 20.4679 27.8775 19.7258 26.6857L26.5167 22.4569C26.4075 22.2815 26.3146 22.1975 26.2719 22.1618C26.23 22.1268 26.1237 22.044 25.9168 21.9631L23.0034 29.4138ZM19.7425 26.7123C19.5113 26.3474 19.2892 25.8461 19.2086 25.6669C19.0658 25.3494 18.8996 24.9631 18.7357 24.5659L26.1303 21.5132C26.2677 21.846 26.4011 22.1552 26.5049 22.3861C26.5574 22.5029 26.5954 22.5841 26.618 22.6307C26.6295 22.6545 26.6303 22.6553 26.6222 22.6398C26.6178 22.6315 26.6071 22.6111 26.5908 22.5822C26.5766 22.5568 26.5452 22.5016 26.5 22.4303L19.7425 26.7123ZM18.7423 24.5819L18.2082 23.3038L25.5895 20.219L26.1237 21.4972L18.7423 24.5819ZM18.3952 19.8314L18.6897 19.2968L25.6969 23.1568L25.4024 23.6914L18.3952 19.8314ZM18.7097 19.2611C18.7706 19.1531 18.8399 19.0255 18.9021 18.9083C18.9326 18.8507 18.959 18.8002 18.9795 18.7604C19.0022 18.7164 19.0103 18.6997 19.0077 18.705L26.2007 22.2066C26.0911 22.4317 25.8694 22.8515 25.677 23.1925L18.7097 19.2611ZM18.9856 18.7512L19.0986 18.5113L26.3358 21.9205L26.2228 22.1604L18.9856 18.7512ZM21.1819 16.5223L23.1439 15.7067L26.2146 23.0939L24.2525 23.9095L21.1819 16.5223ZM23.1423 15.7074C23.6852 15.4814 24.1864 15.274 24.5565 15.1221C24.7403 15.0467 24.8984 14.9822 25.0153 14.9352C25.0714 14.9126 25.131 14.8888 25.1834 14.8685C25.2061 14.8597 25.2508 14.8425 25.302 14.8239C25.323 14.8164 25.3817 14.7952 25.4562 14.7715C25.4896 14.7608 25.5706 14.7353 25.6749 14.7084C25.7264 14.6951 25.821 14.6717 25.9409 14.6493C26.0178 14.635 26.3042 14.5813 26.6755 14.5813V22.5813C26.8853 22.5813 27.0537 22.5647 27.1528 22.5527C27.2596 22.5399 27.3478 22.5249 27.409 22.5135C27.5284 22.4912 27.6225 22.4679 27.6733 22.4548C27.7762 22.4282 27.8553 22.4033 27.8866 22.3933C27.9565 22.371 28.0091 22.352 28.0223 22.3472C28.0432 22.3397 28.0583 22.334 28.064 22.3318C28.0676 22.3305 28.0703 22.3294 28.0719 22.3288C28.0736 22.3282 28.0745 22.3278 28.0747 22.3277C28.075 22.3276 28.0734 22.3282 28.0696 22.3298C28.0658 22.3312 28.0607 22.3332 28.054 22.3359C28.0405 22.3413 28.023 22.3483 28.0009 22.3572C27.9103 22.3936 27.7727 22.4497 27.5944 22.5229C27.2403 22.6682 26.7519 22.8703 26.2162 23.0933L23.1423 15.7074ZM26.6755 14.5813C28.1327 14.5813 29.0622 15.3661 29.2007 15.4788C29.4971 15.7199 29.6914 15.9498 29.7698 16.0452C29.9418 16.2548 30.0541 16.4363 30.0876 16.4907C30.1745 16.6315 30.236 16.7509 30.2553 16.7885C30.3069 16.8888 30.352 16.9853 30.3792 17.0442C30.4408 17.1774 30.5136 17.3422 30.588 17.5136C30.7405 17.8646 30.9388 18.3337 31.1482 18.839L23.7574 21.9012C23.5594 21.4231 23.3793 20.9977 23.2501 20.7003C23.1837 20.5473 23.1399 20.4494 23.1175 20.4008C23.1027 20.3689 23.114 20.3947 23.141 20.4472C23.148 20.4608 23.1994 20.562 23.2787 20.6905C23.3085 20.7388 23.4176 20.9157 23.5871 21.1221C23.6641 21.2159 23.8573 21.4447 24.1527 21.685C24.3042 21.8083 24.563 22.0009 24.9196 22.1752C25.2635 22.3433 25.8755 22.5813 26.6755 22.5813V14.5813ZM19.4105 19.2475L21.8759 20.6045L18.0183 27.613L15.5529 26.256L19.4105 19.2475ZM23.454 26.0326L23.3581 26.2074L16.3442 22.3596L16.4401 22.1848L23.454 26.0326ZM23.365 26.1947C22.9046 27.0412 22.4444 27.8723 22.0786 28.5208C21.8965 28.8438 21.7321 29.1315 21.6001 29.3573C21.5307 29.4762 21.3227 29.8375 21.1282 30.1003L14.698 25.3408C14.5948 25.4802 14.5373 25.5809 14.5862 25.501C14.606 25.4686 14.6408 25.4103 14.693 25.321C14.796 25.1447 14.9382 24.8964 15.1104 24.5909C15.4535 23.9827 15.8938 23.1877 16.3373 22.3723L23.365 26.1947ZM21.0888 30.1526C20.1637 31.3606 18.8071 32.2269 17.3757 32.5992L15.362 24.8568C15.2176 24.8944 15.1176 24.9455 15.0447 24.9932C14.974 25.0394 14.8617 25.1262 14.7374 25.2885L21.0888 30.1526ZM17.3959 32.5939C16.342 32.8739 15.0248 32.8787 13.9548 32.5893L16.0435 24.8668C15.895 24.8266 15.7947 24.8141 15.7595 24.8102C15.7175 24.8055 15.6929 24.8051 15.6814 24.8051C15.6698 24.8051 15.6468 24.8055 15.6078 24.8098C15.575 24.8134 15.4813 24.825 15.3417 24.8621L17.3959 32.5939ZM13.9736 32.5943C12.6458 32.2421 11.3342 31.4459 10.4164 30.3203L16.6166 25.2648C16.4796 25.0968 16.3654 25.0163 16.31 24.9814C16.2511 24.9442 16.1634 24.8985 16.0247 24.8617L13.9736 32.5943ZM10.4458 30.3559C9.8319 29.6205 9.35551 28.6632 9.11427 27.8343L16.7956 25.5987C16.7738 25.5241 16.7562 25.4802 16.7507 25.4671C16.7442 25.4513 16.7404 25.4439 16.7387 25.4405C16.7371 25.4375 16.73 25.424 16.7137 25.3986C16.6997 25.3768 16.6594 25.3157 16.5871 25.2291L10.4458 30.3559ZM9.10604 27.8056C8.91501 27.1305 8.87221 26.4613 8.87146 25.99C8.87072 25.5267 8.90947 24.831 9.11777 24.1235L16.7921 26.383C16.8499 26.1865 16.8646 26.0565 16.8675 26.0304C16.8699 26.008 16.8708 25.9939 16.8711 25.9877C16.8714 25.9813 16.8715 25.9781 16.8714 25.9772C16.8714 25.9764 16.8714 25.9741 16.8712 25.9695C16.871 25.9651 16.8703 25.954 16.8682 25.9356C16.866 25.9155 16.8534 25.8027 16.8038 25.6274L9.10604 27.8056ZM9.10568 24.1654C9.36104 23.2619 9.75027 22.6107 10.5878 21.0896L17.5957 24.9484C17.0878 25.8707 16.8686 26.2711 16.7557 26.4926C16.7069 26.5883 16.72 26.5696 16.7493 26.4965C16.7884 26.3987 16.8101 26.32 16.8042 26.3411L9.10568 24.1654ZM10.5841 21.0964C10.8079 20.688 11.0161 20.3093 11.171 20.0276C11.2492 19.8852 11.3118 19.7716 11.3585 19.6866C11.4127 19.5881 11.4272 19.5615 11.4219 19.5714L18.4668 23.3619C18.4337 23.4236 18.027 24.1615 17.5994 24.9416L10.5841 21.0964ZM11.3661 19.6789C11.4853 19.4403 11.6242 19.2173 11.776 19.0147C11.8455 18.922 11.9759 18.7553 12.1611 18.5699C12.2457 18.4852 12.4293 18.3078 12.6925 18.1224C12.7484 18.0831 13.6487 17.3913 14.9991 17.3913V25.3913C15.78 25.3913 16.3642 25.1627 16.6349 25.0412C16.9409 24.904 17.1678 24.7555 17.2988 24.6632C17.5591 24.4799 17.7393 24.3055 17.8201 24.2246C17.9976 24.047 18.1185 23.8914 18.1778 23.8124C18.309 23.6373 18.4239 23.4519 18.5226 23.2544L11.3661 19.6789ZM14.9991 17.3913C15.5058 17.3913 15.8928 17.4913 15.981 17.5136C16.1329 17.5521 16.251 17.5916 16.3124 17.613C16.438 17.6566 16.5339 17.6971 16.571 17.713C16.6554 17.749 16.7204 17.7803 16.7403 17.7899C16.7916 17.8146 16.8327 17.8358 16.8463 17.8428C16.8817 17.861 16.9154 17.8789 16.9368 17.8904C16.9846 17.9159 17.0451 17.9486 17.1108 17.9843C17.2451 18.0573 17.4334 18.1603 17.6593 18.2842C18.1126 18.5329 18.7334 18.8745 19.4118 19.2482L15.5515 26.2552C14.8739 25.8819 14.2586 25.5433 13.8122 25.2985C13.5883 25.1757 13.4109 25.0787 13.2906 25.0133C13.229 24.9798 13.19 24.9588 13.1695 24.9478C13.1568 24.941 13.1641 24.945 13.1814 24.9539C13.1859 24.9562 13.22 24.9739 13.2663 24.9962C13.2838 25.0047 13.3469 25.0351 13.4298 25.0705C13.4662 25.086 13.5616 25.1264 13.6868 25.1698C13.748 25.1911 13.8659 25.2306 14.0176 25.269C14.089 25.2864 14.2559 25.3216 14.3515 25.3385C14.4832 25.3579 14.8071 25.3867 14.9991 25.3913V17.3913Z" fill="#095FBA" mask="url(#path-1-inside-1_192_410)"/>
<mask id="path-3-inside-2_192_410" fill="white">
<path d="M22.995 22.0666C22.9025 22.1009 22.8272 22.1866 22.8067 22.2791C22.7758 22.4265 23.4675 24.0645 23.6935 24.3831C24.1078 24.9623 24.7687 25.2947 25.5049 25.2981C26.0459 25.2981 26.4602 25.1576 26.5287 24.9486C26.5698 24.8252 26.5013 24.6813 26.3746 24.6196C26.2925 24.5785 26.2479 24.5819 26.0493 24.6436C25.7138 24.7464 25.4809 24.7635 25.2002 24.7053C24.7413 24.6059 24.3578 24.3523 24.125 23.9925C24.0565 23.8863 23.851 23.4339 23.6661 22.9919C23.4812 22.5464 23.3066 22.1626 23.2758 22.1352C23.2073 22.0735 23.0669 22.0392 22.995 22.0666Z"/>
</mask>
<path d="M22.995 22.0666C22.9025 22.1009 22.8272 22.1866 22.8067 22.2791C22.7758 22.4265 23.4675 24.0645 23.6935 24.3831C24.1078 24.9623 24.7687 25.2947 25.5049 25.2981C26.0459 25.2981 26.4602 25.1576 26.5287 24.9486C26.5698 24.8252 26.5013 24.6813 26.3746 24.6196C26.2925 24.5785 26.2479 24.5819 26.0493 24.6436C25.7138 24.7464 25.4809 24.7635 25.2002 24.7053C24.7413 24.6059 24.3578 24.3523 24.125 23.9925C24.0565 23.8863 23.851 23.4339 23.6661 22.9919C23.4812 22.5464 23.3066 22.1626 23.2758 22.1352C23.2073 22.0735 23.0669 22.0392 22.995 22.0666Z" fill="#095FBA"/>
<path d="M22.995 22.0666L24.4199 25.8042L24.4026 25.8108L24.3852 25.8173L22.995 22.0666ZM22.8067 22.2791L18.8914 21.4602L18.8964 21.4361L18.9018 21.412L22.8067 22.2791ZM23.6935 24.3831L20.4403 26.7106L20.4355 26.7038L20.4307 26.697L23.6935 24.3831ZM25.5049 25.2981V29.2981H25.4956L25.4863 29.2981L25.5049 25.2981ZM26.5287 24.9486L22.7275 23.7032L22.7306 23.6939L22.7337 23.6845L26.5287 24.9486ZM26.3746 24.6196L24.6237 28.216L24.6041 28.2065L24.5847 28.1968L26.3746 24.6196ZM26.0493 24.6436L27.2358 28.4636L27.2284 28.4659L27.221 28.4681L26.0493 24.6436ZM25.2002 24.7053L24.3876 28.6219L24.3705 28.6183L24.3534 28.6146L25.2002 24.7053ZM24.125 23.9925L20.7668 26.1657L20.763 26.1598L24.125 23.9925ZM23.6661 22.9919L19.9759 24.5354L19.9717 24.5253L23.6661 22.9919ZM23.2758 22.1352L20.6172 25.1238L20.608 25.1156L20.5988 25.1073L23.2758 22.1352ZM24.3852 25.8173C25.0113 25.5852 25.5068 25.2118 25.8702 24.8009C26.2315 24.3924 26.558 23.8378 26.7116 23.1462L18.9018 21.412C19.2258 19.9528 20.2788 18.8075 21.6048 18.316L24.3852 25.8173ZM26.7219 23.098C26.7766 22.8365 26.7951 22.6157 26.8019 22.4635C26.8088 22.3063 26.8051 22.1737 26.7997 22.0758C26.7892 21.8857 26.7667 21.7366 26.7525 21.6532C26.7244 21.4877 26.6922 21.3698 26.6828 21.3358C26.6612 21.2573 26.6493 21.2291 26.6673 21.2795C26.6976 21.3643 26.7577 21.5188 26.8393 21.7122C26.9189 21.901 26.9995 22.0807 27.0626 22.2124C27.0776 22.2437 27.09 22.2689 27.0998 22.2883C27.1045 22.2978 27.1083 22.3052 27.1111 22.3106C27.1125 22.3132 27.1135 22.3152 27.1142 22.3166C27.115 22.318 27.1153 22.3187 27.1153 22.3186C27.1153 22.3186 27.1148 22.3177 27.1139 22.316C27.113 22.3144 27.1115 22.3117 27.1095 22.3081C27.1057 22.3013 27.0987 22.289 27.0888 22.2722C27.0741 22.2473 27.0284 22.1709 26.9564 22.0693L20.4307 26.697C20.1481 26.2985 19.9277 25.8354 19.8479 25.6689C19.7187 25.3993 19.586 25.1005 19.4683 24.8216C19.3525 24.5472 19.2314 24.2446 19.1336 23.9709C19.0876 23.8421 19.0249 23.6592 18.9705 23.4617C18.9447 23.3682 18.9006 23.1996 18.8656 22.9938C18.859 22.9548 18.7206 22.2767 18.8914 21.4602L26.7219 23.098ZM26.9467 22.0557C26.5795 21.5425 26.0113 21.3004 25.5235 21.2981L25.4863 29.2981C23.5261 29.2889 21.6362 28.3821 20.4403 26.7106L26.9467 22.0557ZM25.5049 21.2981C25.4721 21.2981 25.2509 21.2972 24.9039 21.4155C24.7309 21.4744 24.3963 21.607 24.0206 21.8879C23.6527 22.1629 23.0445 22.7356 22.7275 23.7032L30.3299 26.1939C29.6698 28.2089 27.8891 28.85 27.4841 28.988C26.7776 29.2287 26.0787 29.2981 25.5049 29.2981V21.2981ZM22.7337 23.6845C22.0494 25.7391 23.2193 27.5323 24.6237 28.216L28.1256 21.0232C29.7834 21.8303 31.0903 23.9113 30.3237 26.2126L22.7337 23.6845ZM24.5847 28.1968C24.7038 28.2563 24.9915 28.3932 25.3879 28.4879C25.815 28.5899 26.2126 28.6072 26.5514 28.5821C26.8485 28.5601 27.0682 28.5072 27.1432 28.4884C27.2225 28.4686 27.2697 28.4531 27.2358 28.4636L24.8629 20.8236C24.8822 20.8176 25.381 20.6469 25.9599 20.604C26.9278 20.5322 27.6872 20.8036 28.1646 21.0424L24.5847 28.1968ZM27.221 28.4681C26.3882 28.7233 25.4618 28.8447 24.3876 28.6219L26.0127 20.7887C25.8381 20.7524 25.5932 20.725 25.3136 20.7454C25.0587 20.764 24.8933 20.8142 24.8777 20.819L27.221 28.4681ZM24.3534 28.6146C22.975 28.3161 21.6348 27.507 20.7668 26.1657L27.4831 21.8193C27.0808 21.1976 26.5077 20.8957 26.0469 20.7959L24.3534 28.6146ZM20.763 26.1598C20.5394 25.813 20.3458 25.3784 20.3014 25.2813C20.1977 25.0544 20.0826 24.7904 19.9759 24.5354L27.3563 21.4483C27.4345 21.6354 27.5147 21.8186 27.577 21.9549C27.6088 22.0244 27.6283 22.065 27.6358 22.0801C27.6396 22.0878 27.6334 22.075 27.6192 22.0485C27.6118 22.0346 27.5984 22.0099 27.5799 21.9777C27.5629 21.9481 27.531 21.8936 27.4869 21.8252L20.763 26.1598ZM19.9717 24.5253C19.8921 24.3335 19.8205 24.1691 19.7729 24.0647C19.747 24.0077 19.7413 23.9975 19.7521 24.0188C19.7549 24.0245 19.7838 24.0822 19.8307 24.1633C19.8529 24.2017 19.9042 24.289 19.9781 24.3975C20.0157 24.4527 20.0775 24.5403 20.1604 24.6435C20.2312 24.7317 20.3868 24.9188 20.6172 25.1238L25.9344 19.1465C26.3272 19.496 26.5593 19.8488 26.5883 19.8913C26.6683 20.0087 26.7267 20.1075 26.7569 20.1598C26.82 20.269 26.869 20.3646 26.8955 20.4171C26.9534 20.532 27.0087 20.6507 27.0534 20.7488C27.1471 20.9545 27.2552 21.2048 27.3605 21.4584L19.9717 24.5253ZM20.5988 25.1073C21.205 25.6533 21.8255 25.8649 22.1882 25.9534C22.4098 26.0075 22.6859 26.0525 23.0068 26.0568C23.2975 26.0606 23.8166 26.0342 24.4199 25.8042L21.5701 18.3291C22.7102 17.8944 23.7043 18.0886 24.0852 18.1816C24.5531 18.2958 25.2781 18.5553 25.9528 19.163L20.5988 25.1073Z" fill="#095FBA" mask="url(#path-3-inside-2_192_410)"/>
<mask id="path-5-inside-3_192_410" fill="white">
<path d="M14.6085 23.3854C14.499 23.4437 13.708 24.8692 13.5642 25.2633C13.4717 25.5272 13.4614 25.5957 13.458 25.9658C13.458 26.329 13.4683 26.4113 13.5573 26.682C13.7217 27.1823 14.0401 27.5969 14.4647 27.8711C14.7489 28.0561 15.016 27.9773 15.016 27.71C15.016 27.5764 15.0023 27.5592 14.6393 27.2748C14.1291 26.8773 13.8929 26.1268 14.0881 25.51C14.1223 25.3969 14.3449 24.9515 14.5846 24.5197C15.0331 23.7007 15.0708 23.591 14.9578 23.4505C14.879 23.3614 14.7147 23.3306 14.6085 23.3854Z"/>
</mask>
<path d="M14.6085 23.3854C14.499 23.4437 13.708 24.8692 13.5642 25.2633C13.4717 25.5272 13.4614 25.5957 13.458 25.9658C13.458 26.329 13.4683 26.4113 13.5573 26.682C13.7217 27.1823 14.0401 27.5969 14.4647 27.8711C14.7489 28.0561 15.016 27.9773 15.016 27.71C15.016 27.5764 15.0023 27.5592 14.6393 27.2748C14.1291 26.8773 13.8929 26.1268 14.0881 25.51C14.1223 25.3969 14.3449 24.9515 14.5846 24.5197C15.0331 23.7007 15.0708 23.591 14.9578 23.4505C14.879 23.3614 14.7147 23.3306 14.6085 23.3854Z" fill="#095FBA"/>
<path d="M14.6085 23.3854L12.7308 19.8535L12.7518 19.8424L12.7728 19.8315L14.6085 23.3854ZM13.5642 25.2633L9.78917 23.9406L9.79771 23.9162L9.80656 23.892L13.5642 25.2633ZM13.458 25.9658H9.45801V25.9473L9.45818 25.9288L13.458 25.9658ZM13.5573 26.682L17.3571 25.4324L17.3575 25.4336L13.5573 26.682ZM14.4647 27.8711L16.6344 24.5106L16.6408 24.5148L16.6473 24.519L14.4647 27.8711ZM14.6393 27.2748L17.0978 24.1194L17.1065 24.1263L14.6393 27.2748ZM14.0881 25.51L17.9164 26.6692L17.9092 26.693L17.9017 26.7167L14.0881 25.51ZM14.5846 24.5197L18.0928 26.4412L18.0873 26.4511L18.0818 26.4611L14.5846 24.5197ZM14.9578 23.4505L17.9548 20.8014L18.0164 20.8711L18.0748 20.9437L14.9578 23.4505ZM16.4863 26.9173C16.7351 26.785 16.9229 26.651 17.0414 26.5599C17.1655 26.4645 17.2631 26.3776 17.3314 26.3136C17.464 26.1893 17.5593 26.0823 17.6094 26.0242C17.7099 25.9077 17.775 25.8168 17.7923 25.7926C17.8336 25.7348 17.8456 25.7128 17.8184 25.7566C17.7724 25.8308 17.6927 25.9666 17.5958 26.1411C17.5014 26.311 17.4106 26.4816 17.342 26.6172C17.3076 26.6853 17.2857 26.7307 17.2749 26.7542C17.256 26.7948 17.2826 26.7419 17.3218 26.6346L9.80656 23.892C10.0049 23.3486 10.4007 22.6192 10.6026 22.2558C10.7351 22.0173 10.8827 21.7612 11.0203 21.5393C11.0849 21.4352 11.1778 21.2891 11.2839 21.1407C11.3336 21.0712 11.4271 20.9434 11.5512 20.7994C11.6132 20.7276 11.7191 20.6092 11.8612 20.476C11.9689 20.3751 12.2721 20.0974 12.7308 19.8535L16.4863 26.9173ZM17.3391 26.586C17.3055 26.6819 17.3881 26.4682 17.4329 26.1719C17.4526 26.0415 17.4576 25.9471 17.4588 25.9214C17.4595 25.9053 17.4586 25.9163 17.4578 26.0028L9.45818 25.9288C9.45958 25.7773 9.45963 25.3941 9.52253 24.9775C9.59638 24.4884 9.73032 24.1086 9.78917 23.9406L17.3391 26.586ZM17.458 25.9658C17.458 26.0479 17.4588 26.0591 17.4582 26.0435C17.4573 26.0188 17.4534 25.9332 17.4371 25.8147C17.4001 25.5448 17.3315 25.3544 17.3571 25.4324L9.75751 27.9316C9.69413 27.7389 9.57586 27.372 9.51142 26.9024C9.45563 26.4959 9.45801 26.1272 9.45801 25.9658H17.458ZM17.3575 25.4336C17.2446 25.09 17.0017 24.7478 16.6344 24.5106L12.295 31.2315C11.0785 30.4461 10.1987 29.2746 9.75712 27.9304L17.3575 25.4336ZM16.6473 24.519C16.197 24.2258 15.1176 23.7125 13.7218 24.1217C12.9725 24.3413 12.2261 24.8189 11.6936 25.5791C11.1721 26.3236 11.016 27.1069 11.016 27.71H19.016C19.016 28.4467 18.8265 29.3402 18.246 30.1689C17.6546 31.0132 16.8237 31.5491 15.972 31.7987C14.3716 32.2678 13.0167 31.7014 12.2822 31.2232L16.6473 24.519ZM11.016 27.71C11.016 27.7159 11.016 27.7457 11.017 27.7865C11.0181 27.8282 11.0205 27.8948 11.0269 27.9774C11.0402 28.1463 11.0717 28.402 11.1563 28.704C11.3465 29.3835 11.6824 29.869 11.9355 30.1623C12.0471 30.2916 12.1424 30.3833 12.1929 30.4304C12.2449 30.4788 12.2816 30.5094 12.2876 30.5144C12.2911 30.5173 12.2717 30.5013 12.1721 30.4233L17.1065 24.1263C17.1193 24.1363 17.6214 24.5061 17.9921 24.9356C18.2939 25.2854 18.656 25.8181 18.8601 26.5473C19.0319 27.1608 19.016 27.6917 19.016 27.71H11.016ZM12.1809 30.4302C10.3629 29.0137 9.57042 26.5282 10.2744 24.3033L17.9017 26.7167C18.0807 26.1511 18.0322 25.649 17.9164 25.2794C17.8008 24.91 17.5568 24.4771 17.0977 24.1195L12.1809 30.4302ZM10.2597 24.3508C10.3971 23.8972 10.6436 23.4213 10.6827 23.3432C10.7997 23.1096 10.9419 22.8401 11.0873 22.5782L18.0818 26.4611C17.9875 26.631 17.8986 26.8002 17.8358 26.9255C17.8208 26.9556 17.8086 26.9803 17.7994 26.9995C17.7948 27.009 17.7912 27.0164 17.7886 27.022C17.7874 27.0247 17.7864 27.0268 17.7857 27.0282C17.785 27.0297 17.7847 27.0304 17.7847 27.0304C17.7847 27.0304 17.7848 27.0302 17.785 27.0297C17.7852 27.0293 17.7855 27.0286 17.7859 27.0277C17.7867 27.026 17.788 27.0231 17.7897 27.0191C17.7929 27.0118 17.7991 26.9974 17.8075 26.9773C17.8153 26.9581 17.8287 26.9251 17.8449 26.8816C17.8596 26.8422 17.8867 26.7673 17.9164 26.6692L10.2597 24.3508ZM11.0763 22.5982C11.1876 22.3949 11.2477 22.2823 11.2818 22.2152C11.3281 22.1241 11.2708 22.2244 11.2046 22.4141C11.1456 22.5834 10.9355 23.2126 11.0411 24.0574C11.1633 25.0364 11.625 25.6891 11.8408 25.9574L18.0748 20.9437C18.347 21.2822 18.8464 22.0013 18.9794 23.0659C19.0956 23.9964 18.8693 24.7306 18.7589 25.0473C18.572 25.5833 18.2487 26.1566 18.0928 26.4412L11.0763 22.5982ZM11.9608 26.0997C12.6465 26.8754 13.4709 27.1861 14.0589 27.296C14.6479 27.406 15.527 27.4131 16.4442 26.9393L12.7728 19.8315C13.7962 19.3029 14.8105 19.298 15.528 19.432C16.2444 19.5658 17.1903 19.9365 17.9548 20.8014L11.9608 26.0997Z" fill="#095FBA" mask="url(#path-5-inside-3_192_410)"/>
</g>
<path d="M22.1722 2.28409C19.0765 2.21863 16.0195 2.90875 13.2454 4.28182C11.7504 5.03002 8.98207 7.14251 7.86539 8.38721C4.96643 11.6428 3.26307 15.763 3.08413 19.9596C3.01309 21.7908 3.08209 22.8435 3.38728 24.4909C4.30685 29.3163 7.15526 33.6512 11.2605 36.3969C17.17 40.3589 24.8667 40.6223 30.967 37.0829L31.8578 36.5581L36.0916 42.0881C39.8476 46.9909 40.3699 47.6357 40.7617 47.7706C41.672 48.0574 42.5208 47.4097 42.4854 46.4553C42.4592 46.0414 41.9761 45.3666 38.2462 40.4439L34.0385 34.8941L34.78 34.1733C37.6676 31.35 39.58 27.5042 40.1278 23.4393C41.3444 14.4114 35.9841 5.93925 27.3153 3.15306C26.1351 2.78297 23.33 2.29942 22.1722 2.28409ZM26.4761 5.64275C27.8043 6.04452 29.5003 6.84756 30.6147 7.61913C34.8708 10.5493 37.3822 15.0381 37.6973 20.2628C37.7826 21.7163 37.4195 24.4109 36.9447 25.8476C34.7898 32.2753 29.1356 36.5899 22.3717 36.9681C20.8616 37.0459 18.1692 36.6831 16.7911 36.216C11.078 34.2737 6.9841 29.6184 5.92247 23.8477C5.02901 19.0024 6.4106 14.0533 9.69627 10.2754C10.6239 9.21621 13.2632 7.19186 14.5163 6.58692C18.3784 4.7039 22.3448 4.39427 26.4761 5.64275Z" fill="#095FBA"/>
<defs>
<clipPath id="clip0_192_410">
<rect width="17.5317" height="17.5451" fill="white" transform="translate(11.832 12.0704)"/>
</clipPath>
</defs>
</svg>
