<svg width="96" height="96" viewBox="0 0 96 96" fill="none" xmlns="http://www.w3.org/2000/svg">
<circle cx="48" cy="48" r="48" fill="#EBF4F9"/>
<g clip-path="url(#clip0_191_333)">
<mask id="path-2-inside-1_191_333" fill="white">
<path d="M45.7276 36.3754C44.875 36.5638 44.1183 37.0744 43.6423 37.7803C43.3239 38.2464 43.1081 38.8426 43.067 39.3601L43.0465 39.6205L42.752 39.6925C41.9371 39.8878 41.1769 40.4018 40.7386 41.0563C40.5434 41.351 36.6604 48.4136 36.544 48.6844C36.366 49.1127 36.2975 49.4691 36.3009 50.0002C36.3043 50.5897 36.3968 50.9906 36.6502 51.508C37.1159 52.4538 37.9822 53.1083 39.0539 53.3277C39.4751 53.4133 40.1942 53.3825 40.6085 53.2591C41.444 53.0158 42.1733 52.4641 42.5877 51.7685C42.6493 51.6622 43.3376 50.4183 44.1183 48.9996C44.899 47.5809 45.5427 46.4295 45.5496 46.4364C45.5598 46.4432 45.7516 46.9024 45.981 47.4541C46.2104 48.0059 46.457 48.5679 46.5255 48.6981C46.8371 49.2909 47.3575 49.7878 48.0047 50.103C48.4533 50.3258 48.8368 50.4252 49.3264 50.4526C50.7851 50.5314 52.1137 49.685 52.6581 48.3314C52.8328 47.9031 52.8944 47.5707 52.8944 47.0532C52.8944 46.5598 52.8328 46.2239 52.6513 45.7647C52.3773 45.0794 49.5524 38.3115 49.4737 38.1539C49.234 37.6741 48.7854 37.1669 48.354 36.8825C48.0732 36.6941 47.6246 36.4919 47.313 36.4062C46.9227 36.3034 46.1283 36.2863 45.7276 36.3754ZM46.909 36.9099C47.7034 37.0504 48.4464 37.5507 48.8539 38.2155C48.9224 38.3321 49.3127 39.2264 49.7202 40.2031C50.1277 41.1797 50.4667 41.9919 50.4735 42.0021C50.4838 42.0193 46.9706 43.5065 46.9192 43.5065C46.9158 43.5065 46.909 43.2632 46.9055 42.9651C46.9021 42.5299 46.8884 42.3757 46.8302 42.1632C46.4467 40.7685 45.3407 39.7919 43.9402 39.624L43.6081 39.5863L43.6286 39.4286C43.7861 38.1402 44.7141 37.1395 45.9605 36.9134C46.3132 36.8483 46.5494 36.8483 46.909 36.9099ZM44.3956 40.3093C45.351 40.6417 46.0324 41.3716 46.2789 42.3243C46.4056 42.8211 46.3714 43.4722 46.1865 43.9862C46.0906 44.2467 44.2415 47.5878 44.197 47.5775C44.1183 47.5604 39.2936 44.8943 39.2902 44.8669C39.2868 44.8087 41.1564 41.4573 41.2933 41.2791C41.7077 40.7411 42.3206 40.3573 42.9917 40.2168C43.0739 40.1996 43.3581 40.1894 43.6218 40.1962C44.0532 40.2031 44.132 40.2168 44.3956 40.3093ZM51.4528 44.37C51.8603 45.357 52.2233 46.2616 52.2575 46.385C52.3431 46.7003 52.3397 47.4473 52.2541 47.7557C51.7747 49.4314 50.0489 50.3121 48.4601 49.6884C47.9431 49.4862 47.4157 49.0442 47.1213 48.5713C47.0322 48.4308 46.7343 47.7694 46.433 47.0395L45.8988 45.7613L46.1933 45.2267C46.3577 44.9355 46.5391 44.5894 46.6042 44.4557L46.7172 44.2158L48.6793 43.4003C49.7579 42.9514 50.6584 42.5813 50.6755 42.5813C50.6961 42.5813 51.0453 43.3866 51.4528 44.37ZM41.4817 46.7517L43.9471 48.1087L43.8512 48.2834C42.9472 49.9454 42.0501 51.5354 41.9131 51.7205C41.5536 52.19 40.9749 52.5703 40.3688 52.728C39.9819 52.8308 39.3792 52.8308 38.9991 52.728C38.4307 52.5772 37.8657 52.2208 37.5165 51.7925C37.2905 51.5217 37.0576 51.0694 36.9549 50.7164C36.8453 50.3292 36.8419 49.637 36.9549 49.2532C37.0508 48.914 37.1124 48.7974 38.0917 47.0189C38.5369 46.2068 38.9204 45.5112 38.9444 45.4666C38.9649 45.4255 38.9923 45.3912 38.9991 45.3912C39.0094 45.3912 40.1257 46.0046 41.4817 46.7517Z"/>
</mask>
<path d="M45.7276 36.3754C44.875 36.5638 44.1183 37.0744 43.6423 37.7803C43.3239 38.2464 43.1081 38.8426 43.067 39.3601L43.0465 39.6205L42.752 39.6925C41.9371 39.8878 41.1769 40.4018 40.7386 41.0563C40.5434 41.351 36.6604 48.4136 36.544 48.6844C36.366 49.1127 36.2975 49.4691 36.3009 50.0002C36.3043 50.5897 36.3968 50.9906 36.6502 51.508C37.1159 52.4538 37.9822 53.1083 39.0539 53.3277C39.4751 53.4133 40.1942 53.3825 40.6085 53.2591C41.444 53.0158 42.1733 52.4641 42.5877 51.7685C42.6493 51.6622 43.3376 50.4183 44.1183 48.9996C44.899 47.5809 45.5427 46.4295 45.5496 46.4364C45.5598 46.4432 45.7516 46.9024 45.981 47.4541C46.2104 48.0059 46.457 48.5679 46.5255 48.6981C46.8371 49.2909 47.3575 49.7878 48.0047 50.103C48.4533 50.3258 48.8368 50.4252 49.3264 50.4526C50.7851 50.5314 52.1137 49.685 52.6581 48.3314C52.8328 47.9031 52.8944 47.5707 52.8944 47.0532C52.8944 46.5598 52.8328 46.2239 52.6513 45.7647C52.3773 45.0794 49.5524 38.3115 49.4737 38.1539C49.234 37.6741 48.7854 37.1669 48.354 36.8825C48.0732 36.6941 47.6246 36.4919 47.313 36.4062C46.9227 36.3034 46.1283 36.2863 45.7276 36.3754ZM46.909 36.9099C47.7034 37.0504 48.4464 37.5507 48.8539 38.2155C48.9224 38.3321 49.3127 39.2264 49.7202 40.2031C50.1277 41.1797 50.4667 41.9919 50.4735 42.0021C50.4838 42.0193 46.9706 43.5065 46.9192 43.5065C46.9158 43.5065 46.909 43.2632 46.9055 42.9651C46.9021 42.5299 46.8884 42.3757 46.8302 42.1632C46.4467 40.7685 45.3407 39.7919 43.9402 39.624L43.6081 39.5863L43.6286 39.4286C43.7861 38.1402 44.7141 37.1395 45.9605 36.9134C46.3132 36.8483 46.5494 36.8483 46.909 36.9099ZM44.3956 40.3093C45.351 40.6417 46.0324 41.3716 46.2789 42.3243C46.4056 42.8211 46.3714 43.4722 46.1865 43.9862C46.0906 44.2467 44.2415 47.5878 44.197 47.5775C44.1183 47.5604 39.2936 44.8943 39.2902 44.8669C39.2868 44.8087 41.1564 41.4573 41.2933 41.2791C41.7077 40.7411 42.3206 40.3573 42.9917 40.2168C43.0739 40.1996 43.3581 40.1894 43.6218 40.1962C44.0532 40.2031 44.132 40.2168 44.3956 40.3093ZM51.4528 44.37C51.8603 45.357 52.2233 46.2616 52.2575 46.385C52.3431 46.7003 52.3397 47.4473 52.2541 47.7557C51.7747 49.4314 50.0489 50.3121 48.4601 49.6884C47.9431 49.4862 47.4157 49.0442 47.1213 48.5713C47.0322 48.4308 46.7343 47.7694 46.433 47.0395L45.8988 45.7613L46.1933 45.2267C46.3577 44.9355 46.5391 44.5894 46.6042 44.4557L46.7172 44.2158L48.6793 43.4003C49.7579 42.9514 50.6584 42.5813 50.6755 42.5813C50.6961 42.5813 51.0453 43.3866 51.4528 44.37ZM41.4817 46.7517L43.9471 48.1087L43.8512 48.2834C42.9472 49.9454 42.0501 51.5354 41.9131 51.7205C41.5536 52.19 40.9749 52.5703 40.3688 52.728C39.9819 52.8308 39.3792 52.8308 38.9991 52.728C38.4307 52.5772 37.8657 52.2208 37.5165 51.7925C37.2905 51.5217 37.0576 51.0694 36.9549 50.7164C36.8453 50.3292 36.8419 49.637 36.9549 49.2532C37.0508 48.914 37.1124 48.7974 38.0917 47.0189C38.5369 46.2068 38.9204 45.5112 38.9444 45.4666C38.9649 45.4255 38.9923 45.3912 38.9991 45.3912C39.0094 45.3912 40.1257 46.0046 41.4817 46.7517Z" fill="black"/>
<path d="M45.7276 36.3754L46.596 40.28L46.591 40.2811L45.7276 36.3754ZM43.6423 37.7803L46.9589 40.0165L46.9519 40.0268L46.9449 40.037L43.6423 37.7803ZM43.067 39.3601L39.0794 39.0455L39.0796 39.0434L43.067 39.3601ZM43.0465 39.6205L47.0341 39.9351L46.8066 42.8194L43.9961 43.5062L43.0465 39.6205ZM42.752 39.6925L43.7016 43.5781L43.693 43.5803L43.6843 43.5823L42.752 39.6925ZM40.7386 41.0563L37.4037 38.8477L37.4093 38.8392L37.415 38.8307L40.7386 41.0563ZM36.544 48.6844L32.8504 47.149L32.8598 47.1265L32.8694 47.1041L36.544 48.6844ZM36.3009 50.0002L40.3008 49.9745L40.3008 49.977L36.3009 50.0002ZM36.6502 51.508L33.0616 53.275L33.0578 53.2672L36.6502 51.508ZM39.0539 53.3277L38.2566 57.2474L38.252 57.2464L39.0539 53.3277ZM40.6085 53.2591L39.467 49.4254L39.4786 49.422L39.4901 49.4186L40.6085 53.2591ZM42.5877 51.7685L46.0475 53.7759L46.036 53.7957L46.0243 53.8153L42.5877 51.7685ZM45.5496 46.4364L43.3296 49.7638L43.0001 49.544L42.7201 49.2637L45.5496 46.4364ZM46.5255 48.6981L50.0657 46.8362L50.0662 46.837L46.5255 48.6981ZM48.0047 50.103L49.7565 46.507L49.7701 46.5137L49.7837 46.5204L48.0047 50.103ZM49.3264 50.4526L49.1106 54.4468L49.1028 54.4463L49.3264 50.4526ZM52.6581 48.3314L48.9471 46.8387L48.9506 46.83L48.9541 46.8213L52.6581 48.3314ZM52.6513 45.7647L56.3656 44.2802L56.3684 44.2873L56.3713 44.2945L52.6513 45.7647ZM49.4737 38.1539L45.8954 39.9416L49.4737 38.1539ZM48.354 36.8825L46.1524 40.2221L46.1385 40.213L46.1246 40.2037L48.354 36.8825ZM47.313 36.4062L48.3317 32.5381L48.3526 32.5436L48.3734 32.5493L47.313 36.4062ZM46.909 36.9099L47.5853 32.9675L47.5955 32.9693L47.6056 32.9711L46.909 36.9099ZM48.8539 38.2155L52.2642 36.1252L52.2836 36.1567L52.3023 36.1886L48.8539 38.2155ZM50.4735 42.0021L53.8025 39.7845L53.8553 39.8637L53.9042 39.9453L50.4735 42.0021ZM46.9055 42.9651L42.9058 43.011L42.9057 43.0038L42.9057 42.9965L46.9055 42.9651ZM46.8302 42.1632L50.6871 41.1027L50.688 41.1062L46.8302 42.1632ZM43.9402 39.624L44.3913 35.6495L44.4038 35.6509L44.4164 35.6524L43.9402 39.624ZM43.6081 39.5863L43.157 43.5607L39.116 43.1021L39.6416 39.0693L43.6081 39.5863ZM43.6286 39.4286L47.5991 39.914L47.5971 39.9298L47.5951 39.9456L43.6286 39.4286ZM45.9605 36.9134L46.6866 40.8469L46.6746 40.8491L45.9605 36.9134ZM44.3956 40.3093L43.0812 44.0872L43.0711 44.0837L44.3956 40.3093ZM46.2789 42.3243L50.1513 41.3221L50.1531 41.329L50.1549 41.336L46.2789 42.3243ZM46.1865 43.9862L49.9503 45.3402L49.9453 45.3542L49.9402 45.3681L46.1865 43.9862ZM44.197 47.5775L45.0474 43.6689L45.0723 43.6744L45.0971 43.6801L44.197 47.5775ZM39.2902 44.8669L35.321 45.3627L35.3048 45.2326L35.2971 45.1016L39.2902 44.8669ZM41.2933 41.2791L38.1219 38.8414L38.1242 38.8385L41.2933 41.2791ZM42.9917 40.2168L42.1721 36.3017L42.1753 36.301L42.9917 40.2168ZM43.6218 40.1962L43.5582 44.1957L43.538 44.1954L43.5178 44.1949L43.6218 40.1962ZM51.4528 44.37L55.1482 42.839L55.1501 42.8435L51.4528 44.37ZM52.2575 46.385L56.1118 45.3152L56.1148 45.326L56.1177 45.3368L52.2575 46.385ZM52.2541 47.7557L56.1084 48.8255L56.1041 48.8407L56.0998 48.8559L52.2541 47.7557ZM48.4601 49.6884L49.9168 45.9631L49.9217 45.965L48.4601 49.6884ZM47.1213 48.5713L50.5 46.4303L50.5084 46.4435L50.5167 46.4569L47.1213 48.5713ZM46.433 47.0395L50.1237 45.4971L50.127 45.5051L50.1303 45.5131L46.433 47.0395ZM45.8988 45.7613L42.2082 47.3037L41.4637 45.5224L42.3952 43.8313L45.8988 45.7613ZM46.1933 45.2267L42.6897 43.2967L42.6996 43.2788L42.7097 43.261L46.1933 45.2267ZM46.6042 44.4557L50.2228 46.1603L50.2119 46.1835L50.2007 46.2065L46.6042 44.4557ZM46.7172 44.2158L43.0986 42.5112L43.7564 41.1147L45.1819 40.5222L46.7172 44.2158ZM48.6793 43.4003L50.2162 47.0932L50.2146 47.0939L48.6793 43.4003ZM41.4817 46.7517L39.5529 50.2559L39.5515 50.2551L41.4817 46.7517ZM43.9471 48.1087L45.8759 44.6044L49.3752 46.5305L47.454 50.0326L43.9471 48.1087ZM43.8512 48.2834L40.3373 46.3722L40.3408 46.3659L40.3442 46.3595L43.8512 48.2834ZM41.9131 51.7205L45.1282 54.1002L45.1087 54.1266L45.0888 54.1526L41.9131 51.7205ZM40.3688 52.728L39.3417 48.8621L39.3518 48.8594L39.362 48.8568L40.3688 52.728ZM38.9991 52.728L40.0247 48.8617L40.0341 48.8642L40.0435 48.8667L38.9991 52.728ZM37.5165 51.7925L40.5871 49.229L40.602 49.2468L40.6166 49.2647L37.5165 51.7925ZM36.9549 50.7164L33.1143 51.8342L33.1101 51.8199L33.106 51.8056L36.9549 50.7164ZM36.9549 49.2532L40.8042 50.341L40.7982 50.362L40.7921 50.3829L36.9549 49.2532ZM38.0917 47.0189L41.5994 48.9415L41.5957 48.9483L38.0917 47.0189ZM38.9444 45.4666L42.5226 47.2544L42.4955 47.3086L42.4668 47.3619L38.9444 45.4666ZM46.591 40.2811C46.6623 40.2653 46.7245 40.2377 46.7794 40.2007C46.834 40.1639 46.8985 40.1061 46.9589 40.0165L40.3257 35.5442C41.3895 33.9665 43.0354 32.8739 44.8643 32.4696L46.591 40.2811ZM46.9449 40.037C46.9893 39.9722 47.0037 39.9347 47.01 39.9175C47.0147 39.9045 47.0219 39.8826 47.0295 39.8492C47.0369 39.8168 47.0479 39.7593 47.0545 39.6767L39.0796 39.0434C39.1799 37.7803 39.6572 36.5224 40.3397 35.5237L46.9449 40.037ZM47.0547 39.6747L47.0341 39.9351L39.0589 39.306L39.0794 39.0455L47.0547 39.6747ZM43.9961 43.5062L43.7016 43.5781L41.8025 35.8068L42.097 35.7349L43.9961 43.5062ZM43.6843 43.5823C43.7658 43.5628 43.8132 43.5371 43.8467 43.5144C43.8776 43.4935 43.963 43.4302 44.0622 43.282L37.415 38.8307C38.453 37.2806 40.0994 36.215 41.8197 35.8027L43.6843 43.5823ZM44.0735 43.265C44.1379 43.1679 43.9769 43.4437 43.5137 44.2774C43.1243 44.9782 42.62 45.8916 42.1169 46.8066C41.6137 47.7217 41.1144 48.6335 40.7347 49.3314C40.5444 49.6812 40.3871 49.9719 40.2752 50.1805C40.0966 50.5138 40.1451 50.4356 40.2186 50.2646L32.8694 47.1041C32.972 46.8655 33.1674 46.5073 33.2241 46.4014C33.3477 46.1708 33.5143 45.8631 33.7075 45.5081C34.0947 44.7963 34.6001 43.8734 35.1067 42.9521C35.6133 42.0308 36.1236 41.1063 36.5208 40.3916C36.8441 39.8097 37.2418 39.0922 37.4037 38.8477L44.0735 43.265ZM40.2376 50.2197C40.2339 50.2287 40.2416 50.2111 40.2532 50.1736C40.2653 50.1343 40.2773 50.0871 40.2867 50.0365C40.3063 49.9313 40.3003 49.8885 40.3008 49.9745L32.301 50.026C32.2945 49.0123 32.4473 48.1187 32.8504 47.149L40.2376 50.2197ZM40.3008 49.977C40.3011 50.0232 40.303 50.0285 40.3007 50.006C40.2981 49.9805 40.2918 49.9356 40.2788 49.8793C40.2657 49.8227 40.2508 49.7764 40.2394 49.7458C40.2291 49.718 40.2265 49.7161 40.2426 49.7489L33.0578 53.2672C32.5321 52.1937 32.3078 51.1974 32.301 50.0235L40.3008 49.977ZM40.2388 49.7411C40.1954 49.653 40.1253 49.5663 40.0382 49.5004C39.9526 49.4356 39.8819 49.4142 39.8558 49.4089L38.252 57.2464C36.0265 56.791 34.0991 55.3822 33.0616 53.275L40.2388 49.7411ZM39.8512 49.4079C39.7753 49.3925 39.7197 49.385 39.6897 49.3815C39.6583 49.3778 39.6391 49.3766 39.6331 49.3763C39.6238 49.3758 39.6348 49.3766 39.6591 49.3756C39.6834 49.3745 39.694 49.3727 39.6841 49.3741C39.6779 49.375 39.6585 49.3779 39.6271 49.3845C39.597 49.3907 39.5418 49.4032 39.467 49.4254L41.75 57.0928C41.1144 57.282 40.4752 57.3476 40.0084 57.368C39.5413 57.3884 38.9019 57.3786 38.2566 57.2474L39.8512 49.4079ZM39.4901 49.4186C39.4342 49.4349 39.3896 49.4581 39.3477 49.4896C39.3074 49.5201 39.2306 49.588 39.151 49.7216L46.0243 53.8153C45.0562 55.4407 43.4649 56.5935 41.7269 57.0996L39.4901 49.4186ZM39.1278 49.7611C39.1192 49.7759 39.1494 49.7225 39.2463 49.5482C39.3299 49.3976 39.4448 49.1903 39.5828 48.9406C39.8587 48.4416 40.2247 47.7784 40.6139 47.0711L47.6227 50.9281C46.8611 52.312 46.139 53.6182 46.0475 53.7759L39.1278 49.7611ZM40.6139 47.0711C41.0072 46.3563 41.3675 45.7062 41.632 45.2327C41.7635 44.9973 41.8751 44.7988 41.9565 44.6557C41.9957 44.587 42.0361 44.5165 42.0712 44.4569C42.0854 44.4327 42.117 44.3792 42.1544 44.3198C42.1657 44.3017 42.2189 44.2168 42.2916 44.115C42.3115 44.0871 42.4264 43.924 42.5967 43.7378C42.6484 43.6812 42.9129 43.3869 43.3291 43.1092C43.5147 42.9853 44.0454 42.6465 44.8232 42.5028C45.7642 42.3291 47.2197 42.4488 48.3791 43.609L42.7201 49.2637C43.8794 50.4239 45.3348 50.5436 46.2757 50.3699C47.0535 50.2263 47.584 49.8875 47.7695 49.7637C48.1854 49.4862 48.4496 49.1921 48.5008 49.1361C48.6703 48.9507 48.7841 48.7891 48.8026 48.7632C48.8724 48.6655 48.9214 48.5868 48.9275 48.5771C48.9543 48.5345 48.9706 48.5064 48.965 48.5159C48.9606 48.5235 48.9435 48.5528 48.9091 48.6133C48.8435 48.7285 48.7441 48.9052 48.6162 49.1342C48.3619 49.5894 48.01 50.2242 47.6227 50.9281L40.6139 47.0711ZM47.7695 43.109C48.3621 43.5043 48.6991 43.9698 48.7331 44.0144C48.8429 44.1587 48.9193 44.2798 48.9544 44.3366C49.0286 44.4568 49.0804 44.5552 49.0987 44.5902C49.1423 44.6736 49.1746 44.7427 49.1858 44.7667C49.214 44.8271 49.2392 44.8844 49.2542 44.9187C49.2879 44.9958 49.3282 45.0904 49.3685 45.1859C49.451 45.3816 49.5602 45.6437 49.6744 45.9183L42.2876 48.99C42.1724 48.7129 42.071 48.4695 41.9978 48.296C41.9601 48.2068 41.9362 48.1509 41.9239 48.1228C41.9159 48.1044 41.9226 48.1204 41.9375 48.1523C41.942 48.1619 41.969 48.2199 42.0085 48.2955C42.0248 48.3267 42.0748 48.4221 42.1477 48.5401C42.1822 48.5958 42.258 48.7161 42.3673 48.8597C42.4228 48.9326 42.5145 49.048 42.6389 49.18C42.746 49.2937 42.98 49.5306 43.3296 49.7638L47.7695 43.109ZM49.6744 45.9183C49.78 46.1721 49.8891 46.4275 49.9775 46.6294C50.022 46.7308 50.0577 46.8108 50.0828 46.8659C50.0955 46.8937 50.1024 46.9083 50.1043 46.9123C50.1103 46.9249 50.0946 46.8912 50.0657 46.8362L42.9852 50.5599C42.8145 50.2354 42.4935 49.4852 42.2876 48.99L49.6744 45.9183ZM50.0662 46.837C49.9563 46.628 49.8251 46.5405 49.7565 46.507L46.2529 53.6991C44.8899 53.0351 43.7178 51.9538 42.9848 50.5591L50.0662 46.837ZM49.7837 46.5204C49.7983 46.5277 49.792 46.5238 49.7686 46.5148C49.7441 46.5054 49.7097 46.4937 49.6685 46.4829C49.6273 46.472 49.5916 46.4652 49.5656 46.4614C49.5408 46.4577 49.5335 46.4579 49.55 46.4588L49.1028 54.4463C48.0776 54.3889 47.1644 54.1518 46.2257 53.6857L49.7837 46.5204ZM49.5422 46.4584C49.2927 46.4449 49.0419 46.6031 48.9471 46.8387L56.3692 49.8241C55.1855 52.7669 52.2776 54.6179 49.1106 54.4468L49.5422 46.4584ZM48.9541 46.8213C48.9605 46.8057 48.9538 46.8203 48.9426 46.857C48.9307 46.8962 48.9183 46.9449 48.9085 46.9982C48.8881 47.108 48.8944 47.1529 48.8944 47.0532H56.8944C56.8944 48.0289 56.7535 48.8815 56.3621 49.8415L48.9541 46.8213ZM48.8944 47.0532C48.8944 47.0124 48.8931 47.0073 48.8946 47.0262C48.8963 47.0477 48.9005 47.0858 48.9095 47.1337C48.9185 47.1818 48.9288 47.2208 48.9362 47.2455C48.943 47.2677 48.944 47.2671 48.9313 47.235L56.3713 44.2945C56.7432 45.2355 56.8944 46.0713 56.8944 47.0532H48.8944ZM48.937 47.2493C48.8147 46.9433 48.057 45.1205 47.298 43.3024C46.4862 41.3576 45.854 39.8588 45.8954 39.9416L53.0519 36.3661C53.1721 36.6066 53.9918 38.5705 54.6805 40.2205C55.4222 41.997 56.214 43.9008 56.3656 44.2802L48.937 47.2493ZM45.8954 39.9416C45.9303 40.0115 45.9571 40.0517 45.9669 40.066C45.9778 40.0816 45.9837 40.0884 45.9855 40.0905C45.9873 40.0925 45.9951 40.1013 46.0135 40.1178C46.0302 40.1327 46.0748 40.171 46.1524 40.2221L50.5555 33.5429C51.5881 34.2236 52.5052 35.2718 53.0519 36.3661L45.8954 39.9416ZM46.1246 40.2037C46.1557 40.2245 46.1783 40.2384 46.1907 40.2458C46.2034 40.2534 46.2106 40.2573 46.2117 40.2579C46.2127 40.2584 46.2034 40.2535 46.1869 40.2459C46.1795 40.2426 46.1727 40.2396 46.1671 40.2373C46.1615 40.2349 46.1588 40.2339 46.1595 40.2342C46.1601 40.2344 46.1669 40.237 46.1801 40.2414C46.1928 40.2456 46.2173 40.2534 46.2526 40.2631L48.3734 32.5493C49.0889 32.746 49.934 33.1256 50.5833 33.5614L46.1246 40.2037ZM46.2943 40.2743C46.3876 40.2989 46.4536 40.3109 46.4817 40.3156C46.498 40.3184 46.5097 40.3201 46.5165 40.321C46.52 40.3215 46.5226 40.3218 46.5242 40.322C46.5258 40.3222 46.5267 40.3223 46.5268 40.3223C46.5268 40.3223 46.5244 40.322 46.5196 40.3216C46.5149 40.3212 46.5085 40.3208 46.5005 40.3203C46.4842 40.3193 46.4647 40.3184 46.4435 40.318C46.4224 40.3176 46.403 40.3176 46.3867 40.318C46.3788 40.3181 46.3725 40.3184 46.3678 40.3186C46.3631 40.3188 46.3609 40.3189 46.361 40.3189C46.3611 40.3189 46.3648 40.3187 46.3718 40.318C46.3787 40.3173 46.3907 40.3161 46.4072 40.3139C46.4358 40.3102 46.5021 40.3008 46.596 40.28L44.8593 32.4708C45.5141 32.3251 46.179 32.311 46.6048 32.3196C47.0304 32.3282 47.6898 32.369 48.3317 32.5381L46.2943 40.2743ZM47.6056 32.9711C49.4903 33.3044 51.239 34.4526 52.2642 36.1252L45.4435 40.3059C45.5665 40.5065 45.6986 40.6211 45.7958 40.6864C45.8944 40.7526 46.0283 40.8163 46.2123 40.8488L47.6056 32.9711ZM52.3023 36.1886C52.4933 36.5136 52.7335 37.0748 52.8265 37.2879C52.9934 37.6707 53.2012 38.1582 53.4118 38.6629L46.0286 41.7433C45.8317 41.2713 45.6406 40.8233 45.4933 40.4856C45.4191 40.3153 45.3606 40.1837 45.3205 40.0956C45.3109 40.0745 45.3032 40.0578 45.2974 40.0453C45.2945 40.0391 45.2923 40.0344 45.2907 40.0311C45.2892 40.0277 45.2885 40.0263 45.2886 40.0266C45.2887 40.0268 45.2901 40.0298 45.2927 40.035C45.2952 40.0401 45.2999 40.0495 45.3064 40.0623C45.3125 40.0742 45.3493 40.1469 45.4055 40.2425L52.3023 36.1886ZM53.4118 38.6629C53.6157 39.1516 53.8016 39.597 53.9372 39.9213C54.0053 40.084 54.0594 40.2132 54.0965 40.3012C54.1154 40.3461 54.1277 40.3751 54.1344 40.3907C54.1384 40.4001 54.1367 40.3961 54.1321 40.3855C54.1307 40.3823 54.1218 40.3619 54.1092 40.3346C54.1039 40.3229 54.0887 40.2897 54.068 40.2473C54.058 40.2269 54.0377 40.1857 54.0106 40.1342C53.9967 40.108 53.9751 40.0676 53.9473 40.0189C53.9233 39.977 53.8729 39.8902 53.8025 39.7845L47.1445 44.2198C47.0253 44.0407 46.9468 43.8897 46.936 43.8693C46.9087 43.8175 46.8881 43.7758 46.8779 43.7548C46.8567 43.7114 46.8408 43.6767 46.8346 43.6631C46.8203 43.632 46.8091 43.6064 46.8047 43.5964C46.7942 43.5723 46.7841 43.5489 46.7774 43.5332C46.7626 43.4986 46.7441 43.4548 46.7239 43.4069C46.6828 43.3092 46.6254 43.1724 46.5569 43.0086C46.4196 42.6802 46.2322 42.2312 46.0286 41.7433L53.4118 38.6629ZM53.9042 39.9453C55.082 41.9099 54.1245 43.692 53.9032 44.0607C53.5972 44.5707 53.2491 44.8858 53.1491 44.9759C52.8928 45.2065 52.6626 45.3509 52.6166 45.3801C52.4669 45.4753 52.3419 45.5401 52.3167 45.5532C52.2328 45.597 52.161 45.6308 52.1372 45.642C52.0726 45.6724 52.004 45.7031 51.9505 45.7269C51.835 45.7782 51.6824 45.8446 51.5144 45.9171C51.1742 46.0639 50.7252 46.2553 50.2787 46.4443C49.8322 46.6333 49.3795 46.8236 49.0317 46.968C48.8596 47.0395 48.7031 47.1039 48.5827 47.1524C48.5256 47.1755 48.4579 47.2025 48.3941 47.2268C48.3666 47.2373 48.3082 47.2595 48.2392 47.2833C48.2091 47.2937 48.1338 47.3194 48.0378 47.3473C47.9918 47.3606 47.8983 47.3869 47.7788 47.4132C47.7351 47.4228 47.3786 47.5065 46.9192 47.5065V39.5065C46.4607 39.5065 46.1054 39.59 46.0633 39.5993C45.9454 39.6251 45.854 39.651 45.8105 39.6636C45.7194 39.69 45.6507 39.7136 45.6288 39.7212C45.5984 39.7317 45.5756 39.74 45.5649 39.7439C45.5529 39.7484 45.5446 39.7515 45.5414 39.7527C45.5347 39.7553 45.5477 39.7504 45.5916 39.7327C45.6731 39.6998 45.7994 39.6479 45.9637 39.5797C46.2888 39.4447 46.7234 39.2621 47.1603 39.0772C47.5972 38.8922 48.0278 38.7086 48.345 38.5717C48.5058 38.5024 48.6263 38.4498 48.7012 38.4165C48.7429 38.398 48.7488 38.395 48.7345 38.4017C48.729 38.4043 48.717 38.41 48.7005 38.418C48.6864 38.4249 48.6541 38.4407 48.6121 38.4627C48.5932 38.4725 48.4729 38.5347 48.3263 38.6279C48.2819 38.6561 48.0527 38.7997 47.7971 39.0298C47.6974 39.1195 47.3496 39.4343 47.0437 39.9441C46.8225 40.3126 45.8651 42.0945 47.0428 44.059L53.9042 39.9453ZM46.9192 47.5065C45.3349 47.5065 44.3455 46.6181 43.9717 46.2106C43.5779 45.7814 43.3738 45.368 43.2949 45.199C43.1238 44.8328 43.0498 44.5239 43.0309 44.4457C42.9781 44.2271 42.9561 44.0515 42.9514 44.0151C42.9363 43.8981 42.9297 43.8044 42.9282 43.7831C42.9233 43.7163 42.9208 43.6589 42.9198 43.6351C42.9172 43.575 42.9153 43.5098 42.9138 43.4523C42.9106 43.3313 42.9077 43.176 42.9058 43.011L50.9053 42.9191C50.9068 43.0522 50.909 43.1677 50.911 43.2429C50.9121 43.2835 50.9127 43.2977 50.9125 43.2926C50.9124 43.29 50.912 43.2824 50.9114 43.2712C50.9109 43.2617 50.9097 43.2387 50.9074 43.2078C50.9064 43.1937 50.9003 43.1056 50.8857 42.9923C50.8813 42.9577 50.8595 42.7835 50.8069 42.5659C50.7881 42.4881 50.7142 42.1796 50.5433 41.8137C50.4644 41.6447 50.2603 41.2314 49.8666 40.8023C49.4928 40.3949 48.5035 39.5065 46.9192 39.5065V47.5065ZM42.9057 42.9965C42.9049 42.903 42.9038 42.8507 42.9028 42.8215C42.9018 42.7932 42.9017 42.8093 42.9056 42.8515C42.9101 42.8997 42.9186 42.9684 42.9337 43.0493C42.9486 43.1293 42.9641 43.1901 42.9724 43.2202L50.688 41.1062C50.8905 41.8453 50.9015 42.434 50.9054 42.9336L42.9057 42.9965ZM42.9734 43.2237C42.9809 43.2513 43.0174 43.3426 43.1243 43.4366C43.2338 43.5329 43.3629 43.5834 43.464 43.5955L44.4164 35.6524C47.4981 36.0219 49.891 38.2076 50.6871 41.1027L42.9734 43.2237ZM43.4892 43.5984L43.157 43.5607L44.0591 35.6118L44.3913 35.6495L43.4892 43.5984ZM39.6416 39.0693L39.6622 38.9117L47.5951 39.9456L47.5745 40.1032L39.6416 39.0693ZM39.6582 38.9432C40.0211 35.9741 42.2187 33.527 45.2463 32.9776L46.6746 40.8491C46.9138 40.8057 47.1457 40.6796 47.3194 40.4922C47.4918 40.3063 47.5771 40.0937 47.5991 39.914L39.6582 38.9432ZM45.2343 32.9798C46.0684 32.8258 46.7799 32.8294 47.5853 32.9675L46.2326 40.8523C46.1998 40.8467 46.2921 40.8645 46.4437 40.8641C46.5989 40.8636 46.6993 40.8446 46.6866 40.8469L45.2343 32.9798ZM45.7101 36.5314C47.8889 37.2895 49.5594 39.0348 50.1513 41.3221L42.4065 43.3264C42.4476 43.4854 42.5372 43.6619 42.6804 43.8151C42.8223 43.967 42.9731 44.0496 43.0812 44.0872L45.7101 36.5314ZM50.1549 41.336C50.4884 42.6441 50.3926 44.1107 49.9503 45.3402L42.4226 42.6323C42.3672 42.7864 42.3581 42.8835 42.3555 42.9301C42.3538 42.9613 42.3535 43.0029 42.3581 43.0574C42.3625 43.1102 42.3734 43.1969 42.4029 43.3125L50.1549 41.336ZM49.9402 45.3681C49.8234 45.6853 49.6453 46.0201 49.6321 46.0459C49.5572 46.1913 49.4649 46.3657 49.3665 46.5491C49.168 46.9192 48.9174 47.3775 48.6719 47.821C48.4268 48.2636 48.1779 48.7074 47.9832 49.047C47.8883 49.2125 47.7933 49.3759 47.7134 49.508C47.6782 49.5662 47.6188 49.6633 47.5518 49.7636C47.5272 49.8004 47.446 49.922 47.3338 50.0627C47.2914 50.1158 47.1432 50.3016 46.922 50.5069C46.8221 50.5997 46.5683 50.8285 46.1926 51.0446C45.9769 51.1686 44.833 51.8297 43.2969 51.4749L45.0971 43.6801C44.2793 43.4912 43.587 43.5992 43.1554 43.7157C42.7227 43.8324 42.3975 43.9985 42.2042 44.1097C41.8296 44.3251 41.5772 44.5528 41.4788 44.6442C41.2608 44.8466 41.1165 45.0279 41.079 45.075C40.9764 45.2037 40.9081 45.307 40.8995 45.3199C40.8645 45.3723 40.8495 45.3984 40.8693 45.3656C40.8994 45.316 40.9569 45.218 41.0431 45.0677C41.2106 44.7756 41.4384 44.3697 41.6731 43.9458C41.9073 43.5228 42.1398 43.0975 42.3163 42.7683C42.4055 42.602 42.4737 42.4727 42.5185 42.3856C42.5416 42.3408 42.5507 42.3222 42.5503 42.323C42.5502 42.3232 42.5413 42.3413 42.5277 42.3715C42.5209 42.3867 42.4794 42.4778 42.4327 42.6044L49.9402 45.3681ZM43.3467 51.4861C43.0378 51.4189 42.8047 51.3277 42.7667 51.3132C42.6827 51.2811 42.6167 51.2526 42.5825 51.2376C42.5119 51.2066 42.4556 51.1795 42.4305 51.1673C42.3743 51.1401 42.3241 51.1143 42.2942 51.0989C42.2283 51.0649 42.152 51.0244 42.0772 50.9845C41.9232 50.902 41.7169 50.7902 41.4822 50.6622C41.0102 50.4047 40.3928 50.0653 39.781 49.7272C39.1692 49.3892 38.5565 49.0491 38.094 48.7903C37.8642 48.6617 37.6635 48.5487 37.5163 48.4647C37.4456 48.4244 37.3713 48.3816 37.3077 48.344C37.2811 48.3283 37.2254 48.2952 37.1635 48.256C37.1411 48.2418 37.0618 48.1915 36.9663 48.1232C36.9294 48.0968 36.8054 48.0079 36.6589 47.8799C36.5934 47.8227 36.4298 47.677 36.2486 47.4649C36.158 47.3549 35.9535 47.073 35.8443 46.8981C35.6956 46.6215 35.4145 45.8562 35.321 45.3627L43.2594 44.3712C43.1659 43.8777 42.8849 43.1125 42.7363 42.8361C42.6272 42.6614 42.4227 42.3796 42.3323 42.2698C42.1515 42.0581 41.9883 41.9129 41.9234 41.8562C41.7782 41.7293 41.6559 41.6418 41.6214 41.6171C41.5306 41.5521 41.4583 41.5065 41.4452 41.4982C41.4194 41.4818 41.4006 41.4704 41.3941 41.4665C41.3899 41.4639 41.3867 41.4621 41.385 41.461C41.3841 41.4605 41.3834 41.4601 41.383 41.4598C41.3825 41.4595 41.3823 41.4594 41.3823 41.4594C41.3823 41.4594 41.3825 41.4595 41.3829 41.4597C41.3832 41.4599 41.3837 41.4603 41.3844 41.4607C41.3859 41.4615 41.3878 41.4627 41.3904 41.4642C41.3956 41.4672 41.4026 41.4712 41.4115 41.4764C41.4294 41.4867 41.4526 41.5 41.4813 41.5164C41.5989 41.5835 41.7763 41.6835 42.0006 41.809C42.4461 42.0583 43.0451 42.3909 43.6497 42.7249C44.2544 43.059 44.8581 43.3909 45.313 43.639C45.5418 43.7638 45.7253 43.8633 45.8502 43.93C45.9149 43.9646 45.9504 43.9833 45.9638 43.9902C45.9735 43.9952 45.9548 43.9854 45.9216 43.9693C45.9079 43.9626 45.8609 43.9399 45.7973 43.912C45.7666 43.8985 45.7036 43.8713 45.622 43.8401C45.5863 43.8264 45.3551 43.7359 45.0474 43.6689L43.3467 51.4861ZM35.2971 45.1016C35.2621 44.5061 35.3739 44.0463 35.396 43.9522C35.4367 43.7786 35.4807 43.6437 35.5041 43.5749C35.5522 43.4332 35.5983 43.324 35.6169 43.2806C35.6592 43.1815 35.6982 43.1009 35.7147 43.0671C35.7538 42.9868 35.795 42.9072 35.8257 42.8485C35.8919 42.7221 35.9773 42.5633 36.0689 42.395C36.2551 42.0529 36.5002 41.6095 36.7463 41.1686C36.9924 40.7275 37.246 40.2773 37.4496 39.9213C37.5504 39.7449 37.6451 39.5809 37.7231 39.4488C37.7612 39.3842 37.8037 39.3131 37.8451 39.2461C37.8469 39.2432 37.9676 39.0422 38.1219 38.8414L44.4647 43.7168C44.5581 43.5952 44.6208 43.4979 44.6247 43.4919C44.6343 43.4772 44.6413 43.4663 44.6449 43.4605C44.6487 43.4544 44.651 43.4508 44.6514 43.4501C44.6519 43.4493 44.6488 43.4543 44.6413 43.4667C44.6342 43.4787 44.6246 43.4947 44.6125 43.5153C44.562 43.6008 44.4882 43.7283 44.3946 43.892C44.2092 44.2164 43.9699 44.641 43.732 45.0673C43.4939 45.4939 43.2637 45.9104 43.096 46.2186C43.0107 46.3755 42.9496 46.4895 42.9136 46.5581C42.8933 46.597 42.8945 46.5956 42.9066 46.5709C42.9095 46.5648 42.9382 46.5064 42.9736 46.4235C42.9888 46.3881 43.0323 46.2854 43.0787 46.1487C43.1012 46.0824 43.1446 45.9497 43.1849 45.7778C43.2055 45.6898 43.2336 45.5569 43.2553 45.3933C43.2752 45.2442 43.3033 44.9725 43.2833 44.6322L35.2971 45.1016ZM38.1242 38.8385C39.1255 37.5383 40.5747 36.6361 42.1721 36.3017L43.8113 44.1319C44.0665 44.0785 44.2898 43.9439 44.4625 43.7197L38.1242 38.8385ZM42.1753 36.301C42.6088 36.2106 43.0447 36.2018 43.1038 36.1998C43.2963 36.1933 43.5129 36.192 43.7257 36.1976L43.5178 44.1949C43.4669 44.1935 43.4096 44.194 43.3735 44.1952C43.3551 44.1959 43.3641 44.1959 43.3955 44.1935C43.4114 44.1923 43.4487 44.1892 43.5007 44.1831C43.5275 44.1799 43.5656 44.1751 43.612 44.168C43.6563 44.1613 43.7245 44.15 43.8081 44.1326L42.1753 36.301ZM43.6853 36.1967C43.8752 36.1997 44.2553 36.204 44.66 36.2641C45.157 36.3381 45.5358 36.4703 45.7201 36.535L43.0711 44.0837C43.0227 44.0667 43.0657 44.083 43.141 44.1041C43.2377 44.1313 43.3551 44.1581 43.4833 44.1771C43.598 44.1942 43.6759 44.1982 43.6831 44.1985C43.6843 44.1986 43.6563 44.1973 43.5582 44.1957L43.6853 36.1967ZM55.1501 42.8435C55.3577 43.3464 55.5562 43.8336 55.7091 44.216C55.7961 44.4335 56.0187 44.9797 56.1118 45.3152L48.4032 47.4548C48.4317 47.5574 48.4571 47.6313 48.4602 47.6405C48.4677 47.6626 48.4721 47.6746 48.4709 47.6711C48.4685 47.6647 48.4595 47.6404 48.4411 47.5924C48.4051 47.4987 48.3512 47.3618 48.2811 47.1867C48.1422 46.8392 47.9554 46.3806 47.7556 45.8966L55.1501 42.8435ZM56.1177 45.3368C56.3064 46.0318 56.3211 46.7387 56.32 47.0859C56.3189 47.4315 56.2998 48.1359 56.1084 48.8255L48.3998 46.6859C48.3593 46.8319 48.3404 46.9401 48.3329 46.987C48.3243 47.0405 48.321 47.0745 48.32 47.0848C48.3183 47.1029 48.3199 47.0917 48.32 47.06C48.3201 47.0282 48.3186 47.0173 48.3202 47.0358C48.3211 47.0463 48.3243 47.0805 48.3326 47.1341C48.3399 47.1814 48.358 47.2886 48.3973 47.4332L56.1177 45.3368ZM56.0998 48.8559C54.9984 52.7058 50.8743 54.9332 46.9985 53.4118L49.9217 45.965C49.6245 45.8483 49.2607 45.8656 48.9567 46.0205C48.6572 46.1732 48.4738 46.4268 48.4084 46.6555L56.0998 48.8559ZM47.0034 53.4137C45.6692 52.892 44.4679 51.8774 43.7258 50.6857L50.5167 46.4569C50.4075 46.2815 50.3146 46.1974 50.2719 46.1618C50.23 46.1267 50.1237 46.044 49.9168 45.9631L47.0034 53.4137ZM43.7425 50.7123C43.5113 50.3474 43.2892 49.8461 43.2086 49.6668C43.0658 49.3494 42.8996 48.963 42.7357 48.5659L50.1303 45.5131C50.2677 45.8459 50.4011 46.1552 50.5049 46.386C50.5574 46.5029 50.5954 46.584 50.618 46.6307C50.6295 46.6544 50.6303 46.6552 50.6222 46.6397C50.6178 46.6315 50.6071 46.611 50.5908 46.5821C50.5766 46.5567 50.5452 46.5015 50.5 46.4303L43.7425 50.7123ZM42.7423 48.5819L42.2082 47.3037L49.5895 44.2189L50.1237 45.4971L42.7423 48.5819ZM42.3952 43.8313L42.6897 43.2967L49.6969 47.1567L49.4024 47.6913L42.3952 43.8313ZM42.7097 43.261C42.7706 43.153 42.8399 43.0254 42.9021 42.9082C42.9326 42.8507 42.959 42.8001 42.9795 42.7603C43.0022 42.7163 43.0103 42.6996 43.0077 42.7049L50.2007 46.2065C50.0911 46.4316 49.8694 46.8515 49.677 47.1925L42.7097 43.261ZM42.9856 42.7511L43.0986 42.5112L50.3358 45.9204L50.2228 46.1603L42.9856 42.7511ZM45.1819 40.5222L47.1439 39.7067L50.2146 47.0939L48.2525 47.9094L45.1819 40.5222ZM47.1423 39.7073C47.6852 39.4814 48.1864 39.274 48.5565 39.122C48.7403 39.0466 48.8984 38.9821 49.0153 38.9351C49.0714 38.9125 49.131 38.8888 49.1834 38.8684C49.2061 38.8596 49.2508 38.8424 49.302 38.8239C49.323 38.8163 49.3817 38.7951 49.4562 38.7714C49.4896 38.7607 49.5706 38.7353 49.6749 38.7083C49.7264 38.695 49.821 38.6716 49.9409 38.6493C50.0178 38.6349 50.3042 38.5813 50.6755 38.5813V46.5813C50.8853 46.5813 51.0537 46.5646 51.1528 46.5527C51.2596 46.5398 51.3478 46.5248 51.409 46.5134C51.5284 46.4911 51.6225 46.4678 51.6733 46.4547C51.7762 46.4282 51.8553 46.4032 51.8866 46.3933C51.9565 46.371 52.0091 46.3519 52.0223 46.3472C52.0432 46.3396 52.0583 46.3339 52.064 46.3318C52.0676 46.3304 52.0703 46.3294 52.0719 46.3287C52.0736 46.3281 52.0745 46.3277 52.0747 46.3277C52.075 46.3276 52.0734 46.3282 52.0696 46.3297C52.0658 46.3312 52.0607 46.3332 52.054 46.3358C52.0405 46.3412 52.023 46.3482 52.0009 46.3571C51.9103 46.3935 51.7727 46.4496 51.5944 46.5228C51.2403 46.6682 50.7519 46.8702 50.2162 47.0932L47.1423 39.7073ZM50.6755 38.5813C52.1327 38.5813 53.0622 39.366 53.2007 39.4787C53.4971 39.7198 53.6914 39.9498 53.7698 40.0452C53.9418 40.2547 54.0541 40.4362 54.0876 40.4906C54.1745 40.6314 54.236 40.7508 54.2553 40.7884C54.3069 40.8888 54.352 40.9852 54.3792 41.0442C54.4408 41.1773 54.5136 41.3421 54.588 41.5135C54.7405 41.8645 54.9388 42.3336 55.1482 42.839L47.7574 45.9011C47.5594 45.423 47.3793 44.9977 47.2501 44.7002C47.1837 44.5473 47.1399 44.4493 47.1175 44.4008C47.1027 44.3688 47.114 44.3947 47.141 44.4472C47.148 44.4608 47.1994 44.5619 47.2787 44.6905C47.3085 44.7387 47.4176 44.9156 47.5871 45.122C47.6641 45.2159 47.8573 45.4447 48.1527 45.685C48.3042 45.8082 48.563 46.0008 48.9196 46.1751C49.2635 46.3432 49.8755 46.5813 50.6755 46.5813V38.5813ZM43.4105 43.2474L45.8759 44.6044L42.0183 51.6129L39.5529 50.2559L43.4105 43.2474ZM47.454 50.0326L47.3581 50.2073L40.3442 46.3595L40.4401 46.1848L47.454 50.0326ZM47.365 50.1947C46.9046 51.0412 46.4444 51.8723 46.0786 52.5208C45.8965 52.8437 45.7321 53.1314 45.6001 53.3573C45.5307 53.4761 45.3227 53.8374 45.1282 54.1002L38.698 49.3408C38.5948 49.4801 38.5373 49.5808 38.5862 49.5009C38.606 49.4686 38.6408 49.4103 38.693 49.3209C38.796 49.1447 38.9382 48.8963 39.1104 48.5908C39.4535 47.9826 39.8938 47.1877 40.3373 46.3722L47.365 50.1947ZM45.0888 54.1526C44.1637 55.3605 42.8071 56.2269 41.3757 56.5992L39.362 48.8568C39.2176 48.8943 39.1176 48.9454 39.0447 48.9931C38.974 49.0393 38.8617 49.1262 38.7374 49.2884L45.0888 54.1526ZM41.3959 56.5938C40.342 56.8739 39.0248 56.8786 37.9548 56.5892L40.0435 48.8667C39.895 48.8265 39.7947 48.814 39.7595 48.8101C39.7175 48.8055 39.6929 48.8051 39.6814 48.8051C39.6698 48.8051 39.6468 48.8055 39.6078 48.8098C39.575 48.8134 39.4813 48.825 39.3417 48.8621L41.3959 56.5938ZM37.9736 56.5943C36.6458 56.2421 35.3342 55.4458 34.4164 54.3202L40.6166 49.2647C40.4796 49.0967 40.3654 49.0163 40.31 48.9813C40.2511 48.9442 40.1634 48.8984 40.0247 48.8617L37.9736 56.5943ZM34.4458 54.3559C33.8319 53.6205 33.3555 52.6631 33.1143 51.8342L40.7956 49.5987C40.7738 49.524 40.7562 49.4802 40.7507 49.467C40.7442 49.4513 40.7404 49.4439 40.7387 49.4405C40.7371 49.4375 40.73 49.424 40.7137 49.3985C40.6997 49.3768 40.6594 49.3156 40.5871 49.229L34.4458 54.3559ZM33.106 51.8056C32.915 51.1305 32.8722 50.4612 32.8715 49.9899C32.8707 49.5266 32.9095 48.831 33.1178 48.1235L40.7921 50.3829C40.8499 50.1864 40.8646 50.0565 40.8675 50.0303C40.8699 50.008 40.8708 49.9938 40.8711 49.9876C40.8714 49.9812 40.8715 49.978 40.8714 49.9772C40.8714 49.9763 40.8714 49.9741 40.8712 49.9695C40.871 49.9651 40.8703 49.9539 40.8682 49.9355C40.866 49.9154 40.8534 49.8027 40.8038 49.6273L33.106 51.8056ZM33.1057 48.1654C33.361 47.2618 33.7503 46.6106 34.5878 45.0896L41.5957 48.9483C41.0878 49.8707 40.8686 50.271 40.7557 50.4926C40.7069 50.5882 40.72 50.5695 40.7493 50.4965C40.7884 50.3987 40.8101 50.3199 40.8042 50.341L33.1057 48.1654ZM34.5841 45.0964C34.8079 44.688 35.0161 44.3092 35.171 44.0276C35.2492 43.8852 35.3118 43.7716 35.3585 43.6865C35.4127 43.588 35.4272 43.5614 35.4219 43.5713L42.4668 47.3619C42.4337 47.4235 42.027 48.1614 41.5994 48.9415L34.5841 45.0964ZM35.3661 43.6789C35.4853 43.4402 35.6242 43.2172 35.776 43.0147C35.8455 42.9219 35.9759 42.7552 36.1611 42.5699C36.2457 42.4852 36.4293 42.3077 36.6925 42.1224C36.7484 42.083 37.6487 41.3912 38.9991 41.3912V49.3912C39.78 49.3912 40.3642 49.1626 40.6349 49.0412C40.9409 48.9039 41.1678 48.7555 41.2988 48.6632C41.5591 48.4798 41.7393 48.3054 41.8201 48.2246C41.9976 48.0469 42.1185 47.8913 42.1778 47.8123C42.309 47.6372 42.4239 47.4519 42.5226 47.2544L35.3661 43.6789ZM38.9991 41.3912C39.5058 41.3912 39.8928 41.4912 39.981 41.5136C40.1329 41.552 40.251 41.5916 40.3124 41.6129C40.438 41.6565 40.5339 41.6971 40.571 41.7129C40.6554 41.7489 40.7204 41.7802 40.7403 41.7898C40.7916 41.8145 40.8327 41.8357 40.8463 41.8427C40.8817 41.861 40.9154 41.8789 40.9368 41.8903C40.9846 41.9158 41.0451 41.9485 41.1108 41.9843C41.2451 42.0572 41.4334 42.1603 41.6593 42.2842C42.1126 42.5328 42.7334 42.8744 43.4118 43.2482L39.5515 50.2551C38.8739 49.8819 38.2586 49.5433 37.8122 49.2984C37.5883 49.1756 37.4109 49.0786 37.2906 49.0132C37.229 48.9798 37.19 48.9587 37.1695 48.9478C37.1568 48.941 37.1641 48.945 37.1814 48.9539C37.1859 48.9562 37.22 48.9738 37.2663 48.9962C37.2838 49.0046 37.3469 49.035 37.4298 49.0704C37.4662 49.086 37.5616 49.1263 37.6868 49.1698C37.748 49.191 37.8659 49.2305 38.0176 49.2689C38.089 49.2863 38.2559 49.3216 38.3515 49.3384C38.4832 49.3578 38.8071 49.3866 38.9991 49.3912V41.3912Z" fill="black" mask="url(#path-2-inside-1_191_333)"/>
<mask id="path-4-inside-2_191_333" fill="white">
<path d="M46.995 46.0666C46.9025 46.1008 46.8272 46.1865 46.8067 46.279C46.7758 46.4264 47.4675 48.0644 47.6935 48.3831C48.1078 48.9622 48.7687 49.2946 49.5049 49.298C50.0459 49.298 50.4602 49.1575 50.5287 48.9485C50.5698 48.8251 50.5013 48.6812 50.3746 48.6195C50.2925 48.5784 50.2479 48.5818 50.0493 48.6435C49.7138 48.7463 49.4809 48.7635 49.2002 48.7052C48.7413 48.6058 48.3578 48.3522 48.125 47.9924C48.0565 47.8862 47.851 47.4339 47.6661 46.9918C47.4812 46.5463 47.3066 46.1625 47.2758 46.1351C47.2073 46.0734 47.0669 46.0392 46.995 46.0666Z"/>
</mask>
<path d="M46.995 46.0666C46.9025 46.1008 46.8272 46.1865 46.8067 46.279C46.7758 46.4264 47.4675 48.0644 47.6935 48.3831C48.1078 48.9622 48.7687 49.2946 49.5049 49.298C50.0459 49.298 50.4602 49.1575 50.5287 48.9485C50.5698 48.8251 50.5013 48.6812 50.3746 48.6195C50.2925 48.5784 50.2479 48.5818 50.0493 48.6435C49.7138 48.7463 49.4809 48.7635 49.2002 48.7052C48.7413 48.6058 48.3578 48.3522 48.125 47.9924C48.0565 47.8862 47.851 47.4339 47.6661 46.9918C47.4812 46.5463 47.3066 46.1625 47.2758 46.1351C47.2073 46.0734 47.0669 46.0392 46.995 46.0666Z" fill="black"/>
<path d="M46.995 46.0666L48.4199 49.8042L48.4026 49.8108L48.3852 49.8172L46.995 46.0666ZM46.8067 46.279L42.8914 45.4602L42.8964 45.436L42.9018 45.412L46.8067 46.279ZM47.6935 48.3831L44.4403 50.7105L44.4355 50.7037L44.4307 50.6969L47.6935 48.3831ZM49.5049 49.298V53.298H49.4956L49.4863 53.298L49.5049 49.298ZM50.5287 48.9485L46.7275 47.7032L46.7306 47.6938L46.7337 47.6845L50.5287 48.9485ZM50.3746 48.6195L48.6237 52.2159L48.6041 52.2064L48.5847 52.1967L50.3746 48.6195ZM50.0493 48.6435L51.2358 52.4635L51.2284 52.4658L51.221 52.4681L50.0493 48.6435ZM49.2002 48.7052L48.3876 52.6218L48.3705 52.6183L48.3534 52.6146L49.2002 48.7052ZM48.125 47.9924L44.7668 50.1656L44.763 50.1598L48.125 47.9924ZM47.6661 46.9918L43.9759 48.5354L43.9717 48.5252L47.6661 46.9918ZM47.2758 46.1351L44.6172 49.1237L44.608 49.1155L44.5988 49.1073L47.2758 46.1351ZM48.3852 49.8172C49.0113 49.5852 49.5068 49.2118 49.8702 48.8009C50.2315 48.3923 50.558 47.8377 50.7116 47.1461L42.9018 45.412C43.2258 43.9528 44.2788 42.8074 45.6048 42.3159L48.3852 49.8172ZM50.7219 47.0979C50.7766 46.8364 50.7951 46.6156 50.8019 46.4634C50.8088 46.3062 50.8051 46.1737 50.7997 46.0758C50.7892 45.8857 50.7667 45.7365 50.7525 45.6531C50.7244 45.4877 50.6922 45.3697 50.6828 45.3357C50.6612 45.2572 50.6493 45.229 50.6673 45.2794C50.6976 45.3643 50.7577 45.5188 50.8393 45.7121C50.9189 45.9009 50.9995 46.0806 51.0626 46.2123C51.0776 46.2436 51.09 46.2689 51.0998 46.2882C51.1045 46.2977 51.1083 46.3051 51.1111 46.3105C51.1125 46.3131 51.1135 46.3151 51.1142 46.3165C51.115 46.3179 51.1153 46.3186 51.1153 46.3186C51.1153 46.3185 51.1148 46.3176 51.1139 46.316C51.113 46.3143 51.1115 46.3116 51.1095 46.308C51.1057 46.3012 51.0987 46.2889 51.0888 46.2721C51.0741 46.2472 51.0284 46.1709 50.9564 46.0693L44.4307 50.6969C44.1481 50.2984 43.9277 49.8354 43.8479 49.6689C43.7187 49.3992 43.586 49.1005 43.4683 48.8215C43.3525 48.5471 43.2314 48.2445 43.1336 47.9709C43.0876 47.842 43.0249 47.6591 42.9705 47.4617C42.9447 47.3681 42.9006 47.1996 42.8656 46.9938C42.859 46.9547 42.7206 46.2766 42.8914 45.4602L50.7219 47.0979ZM50.9467 46.0557C50.5795 45.5424 50.0113 45.3003 49.5235 45.2981L49.4863 53.298C47.5261 53.2889 45.6362 52.382 44.4403 50.7105L50.9467 46.0557ZM49.5049 45.298C49.4721 45.298 49.2509 45.2972 48.9039 45.4154C48.7309 45.4744 48.3963 45.6069 48.0206 45.8879C47.6527 46.1629 47.0445 46.7356 46.7275 47.7032L54.3299 50.1938C53.6698 52.2089 51.8891 52.8499 51.4841 52.9879C50.7776 53.2286 50.0787 53.298 49.5049 53.298V45.298ZM46.7337 47.6845C46.0494 49.7391 47.2193 51.5322 48.6237 52.2159L52.1256 45.0231C53.7834 45.8302 55.0903 47.9112 54.3237 50.2125L46.7337 47.6845ZM48.5847 52.1967C48.7038 52.2563 48.9915 52.3932 49.3879 52.4878C49.815 52.5898 50.2126 52.6071 50.5514 52.582C50.8485 52.56 51.0682 52.5071 51.1432 52.4884C51.2225 52.4685 51.2697 52.453 51.2358 52.4635L48.8629 44.8235C48.8822 44.8175 49.381 44.6468 49.9599 44.6039C50.9278 44.5322 51.6872 44.8035 52.1646 45.0424L48.5847 52.1967ZM51.221 52.4681C50.3882 52.7232 49.4618 52.8447 48.3876 52.6218L50.0127 44.7886C49.8381 44.7524 49.5932 44.725 49.3136 44.7453C49.0587 44.7639 48.8933 44.8142 48.8777 44.819L51.221 52.4681ZM48.3534 52.6146C46.975 52.316 45.6348 51.5069 44.7668 50.1656L51.4831 45.8193C51.0808 45.1976 50.5077 44.8956 50.0469 44.7958L48.3534 52.6146ZM44.763 50.1598C44.5394 49.8129 44.3458 49.3783 44.3014 49.2813C44.1977 49.0544 44.0826 48.7904 43.9759 48.5354L51.3563 45.4483C51.4345 45.6353 51.5147 45.8185 51.577 45.9549C51.6088 46.0243 51.6283 46.065 51.6358 46.08C51.6396 46.0877 51.6334 46.075 51.6192 46.0484C51.6118 46.0345 51.5984 46.0099 51.5799 45.9776C51.5629 45.9481 51.531 45.8936 51.4869 45.8251L44.763 50.1598ZM43.9717 48.5252C43.8921 48.3334 43.8205 48.169 43.7729 48.0646C43.747 48.0077 43.7413 47.9974 43.7521 48.0187C43.7549 48.0244 43.7838 48.0821 43.8307 48.1633C43.8529 48.2016 43.9042 48.289 43.9781 48.3975C44.0157 48.4526 44.0775 48.5402 44.1604 48.6435C44.2312 48.7317 44.3868 48.9188 44.6172 49.1237L49.9344 43.1465C50.3272 43.496 50.5593 43.8487 50.5883 43.8913C50.6683 44.0086 50.7267 44.1075 50.7569 44.1598C50.82 44.2689 50.869 44.3646 50.8955 44.4171C50.9534 44.5319 51.0087 44.6506 51.0534 44.7487C51.1471 44.9545 51.2552 45.2047 51.3605 45.4584L43.9717 48.5252ZM44.5988 49.1073C45.205 49.6533 45.8255 49.8648 46.1882 49.9534C46.4098 50.0075 46.6859 50.0525 47.0068 50.0567C47.2975 50.0605 47.8166 50.0342 48.4199 49.8042L45.5701 42.329C46.7102 41.8943 47.7043 42.0886 48.0852 42.1815C48.5531 42.2957 49.2781 42.5553 49.9528 43.163L44.5988 49.1073Z" fill="black" mask="url(#path-4-inside-2_191_333)"/>
<mask id="path-6-inside-3_191_333" fill="white">
<path d="M38.6085 47.3854C38.499 47.4436 37.708 48.8692 37.5642 49.2632C37.4717 49.5271 37.4614 49.5956 37.458 49.9657C37.458 50.329 37.4683 50.4112 37.5573 50.6819C37.7217 51.1822 38.0401 51.5969 38.4647 51.871C38.7489 52.0561 39.016 51.9772 39.016 51.71C39.016 51.5763 39.0023 51.5592 38.6393 51.2748C38.1291 50.8772 37.8929 50.1268 38.0881 49.51C38.1223 49.3969 38.3449 48.9514 38.5846 48.5196C39.0331 47.7006 39.0708 47.591 38.9578 47.4505C38.879 47.3614 38.7147 47.3305 38.6085 47.3854Z"/>
</mask>
<path d="M38.6085 47.3854C38.499 47.4436 37.708 48.8692 37.5642 49.2632C37.4717 49.5271 37.4614 49.5956 37.458 49.9657C37.458 50.329 37.4683 50.4112 37.5573 50.6819C37.7217 51.1822 38.0401 51.5969 38.4647 51.871C38.7489 52.0561 39.016 51.9772 39.016 51.71C39.016 51.5763 39.0023 51.5592 38.6393 51.2748C38.1291 50.8772 37.8929 50.1268 38.0881 49.51C38.1223 49.3969 38.3449 48.9514 38.5846 48.5196C39.0331 47.7006 39.0708 47.591 38.9578 47.4505C38.879 47.3614 38.7147 47.3305 38.6085 47.3854Z" fill="black"/>
<path d="M38.6085 47.3854L36.7308 43.8535L36.7518 43.8423L36.7728 43.8314L38.6085 47.3854ZM37.5642 49.2632L33.7892 47.9405L33.7977 47.9162L33.8066 47.8919L37.5642 49.2632ZM37.458 49.9657H33.458V49.9472L33.4582 49.9287L37.458 49.9657ZM37.5573 50.6819L41.3571 49.4323L41.3575 49.4335L37.5573 50.6819ZM38.4647 51.871L40.6344 48.5106L40.6408 48.5147L40.6473 48.5189L38.4647 51.871ZM38.6393 51.2748L41.0978 48.1194L41.1065 48.1263L38.6393 51.2748ZM38.0881 49.51L41.9164 50.6692L41.9092 50.693L41.9017 50.7167L38.0881 49.51ZM38.5846 48.5196L42.0928 50.4411L42.0873 50.4511L42.0818 50.4611L38.5846 48.5196ZM38.9578 47.4505L41.9548 44.8013L42.0164 44.8711L42.0748 44.9436L38.9578 47.4505ZM40.4863 50.9172C40.7351 50.785 40.9229 50.651 41.0414 50.5598C41.1655 50.4644 41.2631 50.3775 41.3314 50.3135C41.464 50.1892 41.5593 50.0822 41.6094 50.0241C41.7099 49.9076 41.775 49.8167 41.7923 49.7926C41.8336 49.7348 41.8456 49.7127 41.8184 49.7566C41.7724 49.8307 41.6927 49.9665 41.5958 50.141C41.5014 50.3109 41.4106 50.4815 41.342 50.6172C41.3076 50.6852 41.2857 50.7306 41.2749 50.7541C41.256 50.7948 41.2826 50.7419 41.3218 50.6345L33.8066 47.8919C34.0049 47.3485 34.4007 46.6191 34.6026 46.2557C34.7351 46.0173 34.8827 45.7611 35.0203 45.5393C35.0849 45.4352 35.1778 45.2891 35.2839 45.1406C35.3336 45.0711 35.4271 44.9433 35.5512 44.7993C35.6132 44.7275 35.7191 44.6091 35.8612 44.476C35.9689 44.3751 36.2721 44.0974 36.7308 43.8535L40.4863 50.9172ZM41.3391 50.5859C41.3055 50.6818 41.3881 50.4682 41.4329 50.1719C41.4526 50.0414 41.4576 49.947 41.4588 49.9214C41.4595 49.9052 41.4586 49.9163 41.4578 50.0027L33.4582 49.9287C33.4596 49.7772 33.4596 49.394 33.5225 48.9774C33.5964 48.4883 33.7303 48.1085 33.7892 47.9405L41.3391 50.5859ZM41.458 49.9657C41.458 50.0479 41.4588 50.059 41.4582 50.0435C41.4573 50.0188 41.4534 49.9332 41.4371 49.8147C41.4001 49.5447 41.3315 49.3543 41.3571 49.4323L33.7575 51.9315C33.6941 51.7388 33.5759 51.3719 33.5114 50.9024C33.4556 50.4959 33.458 50.1271 33.458 49.9657H41.458ZM41.3575 49.4335C41.2446 49.09 41.0017 48.7477 40.6344 48.5106L36.295 55.2314C35.0785 54.446 34.1987 53.2745 33.7571 51.9303L41.3575 49.4335ZM40.6473 48.5189C40.197 48.2257 39.1176 47.7125 37.7218 48.1216C36.9725 48.3412 36.2261 48.8189 35.6936 49.579C35.1721 50.3235 35.016 51.1069 35.016 51.71H43.016C43.016 52.4467 42.8265 53.3401 42.246 54.1688C41.6546 55.0131 40.8237 55.549 39.972 55.7986C38.3716 56.2677 37.0167 55.7013 36.2822 55.2231L40.6473 48.5189ZM35.016 51.71C35.016 51.7158 35.016 51.7457 35.017 51.7864C35.0181 51.8281 35.0205 51.8947 35.0269 51.9773C35.0402 52.1462 35.0717 52.4019 35.1563 52.7039C35.3465 53.3834 35.6824 53.869 35.9355 54.1622C36.0471 54.2915 36.1424 54.3833 36.1929 54.4303C36.2449 54.4787 36.2816 54.5093 36.2876 54.5143C36.2911 54.5173 36.2717 54.5013 36.1721 54.4232L41.1065 48.1263C41.1193 48.1362 41.6214 48.506 41.9921 48.9356C42.2939 49.2854 42.656 49.818 42.8601 50.5472C43.0319 51.1608 43.016 51.6916 43.016 51.71H35.016ZM36.1809 54.4301C34.3629 53.0137 33.5704 50.5281 34.2744 48.3032L41.9017 50.7167C42.0807 50.1511 42.0322 49.6489 41.9164 49.2794C41.8008 48.9099 41.5568 48.4771 41.0977 48.1194L36.1809 54.4301ZM34.2597 48.3507C34.3971 47.8971 34.6436 47.4212 34.6827 47.3431C34.7997 47.1095 34.9419 46.8401 35.0873 46.5782L42.0818 50.4611C41.9875 50.6309 41.8986 50.8001 41.8358 50.9255C41.8208 50.9555 41.8086 50.9802 41.7994 50.9994C41.7948 51.0089 41.7912 51.0164 41.7886 51.0219C41.7874 51.0246 41.7864 51.0267 41.7857 51.0282C41.785 51.0296 41.7847 51.0304 41.7847 51.0304C41.7847 51.0303 41.7848 51.0301 41.785 51.0297C41.7852 51.0293 41.7855 51.0286 41.7859 51.0277C41.7867 51.0259 41.788 51.023 41.7897 51.019C41.7929 51.0117 41.7991 50.9974 41.8075 50.9772C41.8153 50.9581 41.8287 50.925 41.8449 50.8816C41.8596 50.8422 41.8867 50.7672 41.9164 50.6692L34.2597 48.3507ZM35.0763 46.5981C35.1876 46.3948 35.2477 46.2823 35.2818 46.2152C35.3281 46.124 35.2708 46.2243 35.2046 46.414C35.1456 46.5833 34.9355 47.2126 35.0411 48.0574C35.1633 49.0364 35.625 49.689 35.8408 49.9573L42.0748 44.9436C42.347 45.2821 42.8464 46.0012 42.9794 47.0659C43.0956 47.9964 42.8693 48.7305 42.7589 49.0472C42.572 49.5832 42.2487 50.1565 42.0928 50.4411L35.0763 46.5981ZM35.9608 50.0996C36.6465 50.8754 37.4709 51.1861 38.0589 51.2959C38.6479 51.406 39.527 51.413 40.4442 50.9393L36.7728 43.8314C37.7962 43.3029 38.8105 43.2979 39.528 43.432C40.2444 43.5658 41.1903 43.9365 41.9548 44.8013L35.9608 50.0996Z" fill="black" mask="url(#path-6-inside-3_191_333)"/>
</g>
<path d="M46.1722 26.2837C43.0765 26.2183 40.0195 26.9084 37.2454 28.2815C35.7504 29.0297 32.9821 31.1421 31.8654 32.3868C28.9664 35.6424 27.2631 39.7626 27.0841 43.9592C27.0131 45.7904 27.0821 46.8432 27.3873 48.4905C28.3069 53.3159 31.1553 57.6509 35.2605 60.3965C41.17 64.3585 48.8667 64.6219 54.967 61.0826L55.8578 60.5578L60.0916 66.0877C63.8476 70.9905 64.3699 71.6354 64.7617 71.7703C65.672 72.0571 66.5208 71.4094 66.4854 70.4549C66.4592 70.0411 65.9761 69.3663 62.2462 64.4436L58.0385 58.8937L58.78 58.1729C61.6676 55.3496 63.58 51.5038 64.1278 47.4389C65.3444 38.411 59.9841 29.9389 51.3153 27.1527C50.1351 26.7826 47.33 26.2991 46.1722 26.2837ZM50.4761 29.6424C51.8043 30.0441 53.5003 30.8472 54.6147 31.6188C58.8708 34.5489 61.3822 39.0378 61.6973 44.2624C61.7826 45.716 61.4195 48.4105 60.9447 49.8473C58.7898 56.2749 53.1356 60.5895 46.3717 60.9677C44.8616 61.0456 42.1692 60.6827 40.7911 60.2156C35.078 58.2733 30.9841 53.6181 29.9225 47.8473C29.029 43.002 30.4106 38.053 33.6963 34.275C34.6239 33.2158 37.2632 31.1915 38.5163 30.5866C42.3784 28.7035 46.3448 28.3939 50.4761 29.6424Z" fill="black"/>
<defs>
<clipPath id="clip0_191_333">
<rect width="17.5317" height="17.5451" fill="white" transform="translate(35.832 36.0704)"/>
</clipPath>
</defs>
</svg>
