<svg width="48" height="48" viewBox="0 0 48 48" fill="none" xmlns="http://www.w3.org/2000/svg">
<path d="M4.84783 0.131285C4.30402 0.328209 3.8821 0.703303 3.61957 1.23781C3.37579 1.71606 3.37579 1.75357 3.37579 3.81658C3.37579 6.11403 3.40392 6.27344 3.93836 6.88297C4.27589 7.25806 4.66969 7.50188 5.11036 7.59565L5.39165 7.65191L5.41977 10.6058L5.43853 13.5503L2.86011 15.5945C1.44432 16.7198 0.225431 17.7044 0.141046 17.7794C0.019157 17.9107 0.000404836 19.3455 0.000404836 30.3545C0.000404836 44.111 -0.0370995 43.2764 0.60985 44.533C1.37869 46.024 2.59758 47.0555 4.21964 47.5619L4.92284 47.7776H13.6426H22.3623L23.3468 47.515C24.5376 47.2055 25.4846 46.7554 26.1128 46.2022L26.5722 45.7896L26.9191 46.2303C27.5661 47.0555 28.6724 47.7025 29.7788 47.9182C30.1726 47.9932 32.3572 48.012 37.2234 47.9932L44.1148 47.9651L44.6774 47.7494C46.2244 47.168 47.4246 45.874 47.8653 44.3173C48.0903 43.5484 48.0247 41.898 47.734 41.1665C47.1433 39.6286 45.7369 38.4002 44.1523 38.0251C43.646 37.9126 42.549 37.8845 37.3922 37.8845C33.998 37.8845 31.2227 37.8657 31.2227 37.8563C31.2227 37.8376 31.7103 36.9842 32.301 35.9621C33.4824 33.9085 33.7355 33.2989 33.8105 32.2581C33.9887 29.97 32.5729 27.8226 30.407 27.0911C29.7413 26.8661 28.3537 26.7817 27.6879 26.9317L27.3785 26.9974V22.5431C27.3785 20.0675 27.341 18.0139 27.2942 17.9295C27.2473 17.8357 26.0003 16.823 24.5282 15.6602L21.856 13.5503L21.8467 10.6245V7.6988L22.2029 7.60503C22.8311 7.43623 23.375 7.01425 23.675 6.46099L23.9563 5.95461L23.9844 4.06039C24.0219 1.91298 23.9375 1.42536 23.4312 0.806454C23.2624 0.609529 22.9155 0.346964 22.653 0.225058L22.1748 2.23167e-06L13.6895 0.00937957C6.84494 0.00937957 5.13849 0.0281343 4.84783 0.131285ZM22.2405 1.67855L22.5499 1.95049L22.578 3.6853C22.6061 5.12941 22.5874 5.47637 22.4561 5.7108C22.1467 6.31095 22.5686 6.28282 13.6988 6.28282C8.90767 6.28282 5.54166 6.24531 5.4104 6.19843C5.27913 6.14216 5.08224 6.01088 4.9791 5.89835C4.79158 5.69205 4.7822 5.57952 4.7822 3.81658V1.95049L5.05411 1.67855L5.32601 1.4066H13.6332H21.9404L22.2405 1.67855ZM20.4402 8.58027V9.47112H13.6426H6.84494V8.58027V7.68942H13.6426H20.4402V8.58027ZM20.4402 12.5094C20.4402 13.9254 20.459 14.1598 20.609 14.3286C20.6934 14.4317 21.931 15.4351 23.3468 16.551C25.2502 18.0608 25.9346 18.6515 25.9534 18.8109L25.9815 19.036H13.6988H1.40682V18.8109C1.40682 18.6234 1.82874 18.2483 3.63832 16.823C4.85721 15.8571 6.08548 14.8818 6.35738 14.6474L6.84494 14.2348V12.5563V10.8777H13.6426H20.4402V12.5094ZM25.9721 24.006V27.5694L25.2502 28.2914C24.5563 28.9854 24.3782 29.2761 21.4247 34.4148L18.3213 39.8068L9.86403 39.8349L1.40682 39.8537V30.1482V20.4426H13.6895H25.9721V24.006ZM30.1164 28.4977C30.7445 28.7416 31.5603 29.4449 31.9166 30.045C32.2072 30.542 32.4416 31.3953 32.4416 31.9392C32.4416 32.6613 32.1041 33.4302 30.7539 35.7839C30.0132 37.0686 29.3663 38.1752 29.31 38.2314C29.2256 38.3252 28.513 37.9501 26.0846 36.5529C24.3782 35.5589 22.9718 34.7243 22.9718 34.6868C22.9718 34.4899 25.8784 29.6324 26.169 29.3417C26.6003 28.9103 27.2473 28.5259 27.8286 28.3571C28.4287 28.1883 29.46 28.2446 30.1164 28.4977ZM25.4096 37.8094C27.0316 38.7472 28.4005 39.5349 28.438 39.5724C28.5505 39.6755 25.8221 44.383 25.3439 44.9175C24.6407 45.7052 23.2999 46.2303 22.2967 46.099C21.0591 45.9302 19.9433 45.1331 19.3901 44.0079C19.0151 43.2389 18.9213 42.198 19.1745 41.4291C19.2589 41.1572 19.9714 39.8256 20.7497 38.4659C21.8185 36.6279 22.2123 36.0184 22.3155 36.0559C22.3905 36.0934 23.7875 36.8811 25.4096 37.8094ZM36.192 42.9576V46.6148L33.0323 46.5866L29.8632 46.5585L29.3288 46.3053C28.6724 46.0052 27.9505 45.3394 27.6598 44.7862L27.4348 44.383L28.5881 42.3762C29.2256 41.2697 29.8913 40.1256 30.0695 39.8256L30.3883 39.2911H33.2948H36.192V42.9576ZM44.4617 39.638C45.24 40.0037 45.915 40.6508 46.2713 41.3916C46.6182 42.0949 46.7026 43.2108 46.4776 43.9891C46.1588 45.0863 45.1743 46.0803 44.0773 46.4178C43.5429 46.5866 43.2147 46.6054 40.5425 46.6054H37.5985V42.9388V39.2817L40.7207 39.3098L43.8335 39.3379L44.4617 39.638ZM17.6462 42.1324C17.6274 42.6106 17.6556 43.2483 17.7212 43.539C17.8712 44.2892 18.3963 45.2926 18.9588 45.9021L19.4276 46.4178H12.5362C8.2701 46.4178 5.45728 46.3803 5.14787 46.3241C3.73208 46.0521 2.46631 45.0769 1.81936 43.7453C1.50058 43.0795 1.4537 42.9013 1.42557 42.123L1.38806 41.2603H9.53587H17.6837L17.6462 42.1324Z" fill="white"/>
<path d="M5.43848 3.84442V5.06348H6.14168H6.84489V3.84442V2.62537H6.14168H5.43848V3.84442Z" fill="white"/>
<path d="M8.43848 3.84442V5.06348H9.14168H9.84489V3.84442V2.62537H9.14168H8.43848V3.84442Z" fill="white"/>
<path d="M11.4385 3.84442V5.06348H12.1417H12.8449V3.84442V2.62537H12.1417H11.4385V3.84442Z" fill="white"/>
<path d="M14.4385 3.84442V5.06348H15.1417H15.8449V3.84442V2.62537H15.1417H14.4385V3.84442Z" fill="white"/>
<path d="M17.4404 3.84442V5.06348H18.1436H18.8468V3.84442V2.62537H18.1436H17.4404V3.84442Z" fill="white"/>
<path d="M20.4414 3.84442V5.06348H21.1446H21.8478V3.84442V2.62537H21.1446H20.4414V3.84442Z" fill="white"/>
<path d="M11.3735 22.1964C10.9047 22.2902 10.8766 22.459 10.8766 25.0096V27.3821H8.44816C6.03851 27.3821 6.01038 27.3821 5.86974 27.5884C5.73848 27.7666 5.71973 28.1792 5.71973 30.1672C5.71973 32.4177 5.7291 32.549 5.90725 32.7272C6.08539 32.9054 6.21666 32.9147 8.48567 32.9147H10.8766V35.3059C10.8766 37.5753 10.8859 37.7065 11.0641 37.8847C11.2422 38.0629 11.3735 38.0723 13.6706 38.0723C16.0147 38.0723 16.1084 38.0629 16.2772 37.8753C16.4366 37.6972 16.4553 37.4815 16.4835 35.2966L16.5116 32.9147H18.8837C21.1715 32.9147 21.2653 32.9054 21.434 32.7178C21.6028 32.5303 21.6122 32.3521 21.6122 30.1484C21.6122 27.9447 21.6028 27.7666 21.434 27.579C21.2653 27.3915 21.1715 27.3821 18.8837 27.3821H16.5116L16.4835 24.9909C16.4553 22.6465 16.4553 22.5997 16.2397 22.3934C16.0334 22.1777 15.9865 22.1777 13.8019 22.1683C12.583 22.1589 11.486 22.1683 11.3735 22.1964ZM15.0958 25.9474C15.0958 28.0573 15.1146 28.3761 15.2552 28.5261C15.3958 28.6855 15.6021 28.6949 17.8336 28.6949H20.2526V30.1015V31.5081H17.918C15.7052 31.5081 15.574 31.5175 15.3396 31.7051L15.0958 31.8926V34.2838V36.6657H13.6894H12.283V34.3307C12.283 32.1739 12.2736 31.977 12.1048 31.7801C11.9267 31.555 11.9173 31.555 9.52641 31.5269L7.12614 31.4987V30.1015V28.6949H9.49828C11.4016 28.6949 11.9079 28.6668 12.058 28.5636C12.2267 28.4417 12.2361 28.2823 12.2642 25.9849L12.2924 23.5374H13.6894H15.0958V25.9474Z" fill="white"/>
</svg>
