<svg width="96" height="96" viewBox="0 0 96 96" fill="none" xmlns="http://www.w3.org/2000/svg">
<circle cx="48" cy="48" r="48" fill="#095FBA" fill-opacity="0.08"/>
<path d="M28.8478 24.1312C28.304 24.3281 27.8821 24.7032 27.6196 25.2377C27.3758 25.7159 27.3758 25.7534 27.3758 27.8165C27.3758 30.1139 27.4039 30.2733 27.9384 30.8829C28.2759 31.2579 28.6697 31.5018 29.1104 31.5955L29.3916 31.6518L29.4198 34.6057L29.4385 37.5501L26.8601 39.5944C25.4443 40.7197 24.2254 41.7043 24.141 41.7793C24.0192 41.9106 24.0004 43.3453 24.0004 54.3543C24.0004 68.1109 23.9629 67.2763 24.6098 68.5329C25.3787 70.0239 26.5976 71.0554 28.2196 71.5618L28.9228 71.7774H37.6426H46.3623L47.3468 71.5149C48.5376 71.2054 49.4846 70.7553 50.1128 70.202L50.5722 69.7894L50.9191 70.2302C51.5661 71.0554 52.6724 71.7024 53.7788 71.9181C54.1726 71.9931 56.3572 72.0119 61.2234 71.9931L68.1148 71.965L68.6774 71.7493C70.2244 71.1679 71.4246 69.8738 71.8653 68.3172C72.0903 67.5483 72.0247 65.8978 71.734 65.1664C71.1433 63.6285 69.7369 62.4001 68.1523 62.025C67.646 61.9125 66.549 61.8843 61.3922 61.8843C57.998 61.8843 55.2227 61.8656 55.2227 61.8562C55.2227 61.8375 55.7103 60.9841 56.301 59.962C57.4824 57.9083 57.7355 57.2988 57.8105 56.2579C57.9887 53.9699 56.5729 51.8225 54.407 51.091C53.7413 50.866 52.3537 50.7816 51.688 50.9316L51.3785 50.9972V46.543C51.3785 44.0674 51.341 42.0138 51.2942 41.9294C51.2473 41.8356 50.0003 40.8228 48.5282 39.66L45.856 37.5501L45.8467 34.6244V31.6987L46.2029 31.6049C46.8311 31.4361 47.375 31.0141 47.675 30.4609L47.9563 29.9545L47.9844 28.0603C48.0219 25.9129 47.9375 25.4252 47.4312 24.8063C47.2624 24.6094 46.9155 24.3468 46.653 24.2249L46.1748 23.9999L37.6895 24.0093C30.8449 24.0093 29.1385 24.028 28.8478 24.1312ZM46.2405 25.6784L46.5499 25.9504L46.578 27.6852C46.6061 29.1293 46.5874 29.4762 46.4561 29.7107C46.1467 30.3108 46.5686 30.2827 37.6988 30.2827C32.9077 30.2827 29.5417 30.2452 29.4104 30.1983C29.2791 30.142 29.0822 30.0108 28.9791 29.8982C28.7916 29.6919 28.7822 29.5794 28.7822 27.8165V25.9504L29.0541 25.6784L29.326 25.4065H37.6332H45.9404L46.2405 25.6784ZM44.4402 32.5801V33.471H37.6426H30.8449V32.5801V31.6893H37.6426H44.4402V32.5801ZM44.4402 36.5093C44.4402 37.9252 44.459 38.1597 44.609 38.3285C44.6934 38.4316 45.931 39.435 47.3468 40.5509C49.2502 42.0606 49.9346 42.6514 49.9534 42.8108L49.9815 43.0359H37.6988H25.4068V42.8108C25.4068 42.6233 25.8287 42.2482 27.6383 40.8228C28.8572 39.857 30.0855 38.8817 30.3574 38.6473L30.8449 38.2347V36.5561V34.8776H37.6426H44.4402V36.5093ZM49.9721 48.0059V51.5693L49.2502 52.2913C48.5563 52.9852 48.3782 53.2759 45.4247 58.4147L42.3213 63.8067L33.864 63.8348L25.4068 63.8536V54.148V44.4425H37.6895H49.9721V48.0059ZM54.1164 52.4976C54.7445 52.7414 55.5603 53.4447 55.9166 54.0449C56.2072 54.5419 56.4416 55.3952 56.4416 55.9391C56.4416 56.6612 56.1041 57.4301 54.7539 59.7838C54.0132 61.0685 53.3663 62.175 53.31 62.2313C53.2256 62.3251 52.513 61.95 50.0846 60.5528C48.3782 59.5588 46.9718 58.7242 46.9718 58.6867C46.9718 58.4897 49.8784 53.6323 50.169 53.3416C50.6003 52.9102 51.2473 52.5258 51.8286 52.357C52.4287 52.1882 53.46 52.2444 54.1164 52.4976ZM49.4096 61.8093C51.0316 62.7471 52.4005 63.5348 52.438 63.5723C52.5505 63.6754 49.8221 68.3828 49.3439 68.9173C48.6407 69.705 47.2999 70.2302 46.2967 70.0989C45.0591 69.9301 43.9433 69.133 43.3901 68.0077C43.0151 67.2388 42.9213 66.1979 43.1745 65.429C43.2589 65.157 43.9714 63.8254 44.7497 62.4657C45.8185 60.6278 46.2123 60.0182 46.3155 60.0558C46.3905 60.0933 47.7875 60.881 49.4096 61.8093ZM60.192 66.9575V70.6146L57.0323 70.5865L53.8632 70.5584L53.3288 70.3052C52.6724 70.0051 51.9505 69.3393 51.6598 68.7861L51.4348 68.3828L52.5881 66.3761C53.2256 65.2696 53.8913 64.1255 54.0695 63.8254L54.3883 63.2909H57.2948H60.192V66.9575ZM68.4617 63.6379C69.24 64.0036 69.915 64.6507 70.2713 65.3915C70.6182 66.0948 70.7026 67.2107 70.4776 67.989C70.1588 69.0861 69.1743 70.0801 68.0773 70.4177C67.5429 70.5865 67.2147 70.6053 64.5425 70.6053H61.5985V66.9387V63.2816L64.7207 63.3097L67.8335 63.3378L68.4617 63.6379ZM41.6462 66.1323C41.6274 66.6105 41.6556 67.2482 41.7212 67.5389C41.8712 68.2891 42.3963 69.2924 42.9588 69.902L43.4276 70.4177H36.5362C32.2701 70.4177 29.4573 70.3802 29.1479 70.3239C27.7321 70.052 26.4663 69.0768 25.8194 67.7452C25.5006 67.0794 25.4537 66.9012 25.4256 66.1229L25.3881 65.2602H33.5359H41.6837L41.6462 66.1323Z" fill="black"/>
<path d="M29.4385 27.8443V29.0634H30.1417H30.8449V27.8443V26.6252H30.1417H29.4385V27.8443Z" fill="black"/>
<path d="M32.4385 27.8443V29.0634H33.1417H33.8449V27.8443V26.6252H33.1417H32.4385V27.8443Z" fill="black"/>
<path d="M35.4385 27.8443V29.0634H36.1417H36.8449V27.8443V26.6252H36.1417H35.4385V27.8443Z" fill="black"/>
<path d="M38.4385 27.8443V29.0634H39.1417H39.8449V27.8443V26.6252H39.1417H38.4385V27.8443Z" fill="black"/>
<path d="M41.4404 27.8443V29.0634H42.1436H42.8468V27.8443V26.6252H42.1436H41.4404V27.8443Z" fill="black"/>
<path d="M44.4414 27.8443V29.0634H45.1446H45.8478V27.8443V26.6252H45.1446H44.4414V27.8443Z" fill="black"/>
<path d="M35.3735 46.1959C34.9047 46.2897 34.8766 46.4585 34.8766 49.0091V51.3816H32.4482C30.0385 51.3816 30.0104 51.3816 29.8697 51.5879C29.7385 51.7661 29.7197 52.1787 29.7197 54.1667C29.7197 56.4172 29.7291 56.5485 29.9072 56.7267C30.0854 56.9049 30.2167 56.9142 32.4857 56.9142H34.8766V59.3055C34.8766 61.5748 34.8859 61.7061 35.0641 61.8842C35.2422 62.0624 35.3735 62.0718 37.6706 62.0718C40.0147 62.0718 40.1084 62.0624 40.2772 61.8749C40.4366 61.6967 40.4553 61.481 40.4835 59.2961L40.5116 56.9142H42.8837C45.1715 56.9142 45.2653 56.9049 45.434 56.7173C45.6028 56.5298 45.6122 56.3516 45.6122 54.1479C45.6122 51.9442 45.6028 51.7661 45.434 51.5785C45.2653 51.391 45.1715 51.3816 42.8837 51.3816H40.5116L40.4835 48.9904C40.4553 46.6461 40.4553 46.5992 40.2397 46.3929C40.0334 46.1772 39.9865 46.1772 37.8019 46.1678C36.583 46.1584 35.486 46.1678 35.3735 46.1959ZM39.0958 49.9469C39.0958 52.0568 39.1146 52.3756 39.2552 52.5256C39.3958 52.6851 39.6021 52.6944 41.8336 52.6944H44.2526V54.101V55.5076H41.918C39.7052 55.5076 39.574 55.517 39.3396 55.7046L39.0958 55.8921V58.2833V60.6652H37.6894H36.283V58.3302C36.283 56.1734 36.2736 55.9765 36.1048 55.7796C35.9267 55.5545 35.9173 55.5545 33.5264 55.5264L31.1261 55.4983V54.101V52.6944H33.4983C35.4016 52.6944 35.9079 52.6663 36.058 52.5632C36.2267 52.4412 36.2361 52.2818 36.2642 49.9844L36.2924 47.5369H37.6894H39.0958V49.9469Z" fill="black"/>
</svg>
