<svg width="96" height="96" viewBox="0 0 96 96" fill="none" xmlns="http://www.w3.org/2000/svg">
<circle cx="48" cy="48" r="48" fill="#095FBA" fill-opacity="0.08"/>
<g clip-path="url(#clip0_15_298)">
<mask id="path-2-inside-1_15_298" fill="white">
<path d="M45.7276 36.3753C44.875 36.5638 44.1183 37.0744 43.6423 37.7803C43.3239 38.2463 43.1081 38.8426 43.067 39.36L43.0465 39.6205L42.752 39.6924C41.9371 39.8878 41.1769 40.4018 40.7386 41.0563C40.5434 41.351 36.6604 48.4136 36.544 48.6843C36.366 49.1126 36.2975 49.469 36.3009 50.0002C36.3043 50.5896 36.3968 50.9905 36.6502 51.508C37.1159 52.4538 37.9822 53.1083 39.0539 53.3276C39.4751 53.4133 40.1942 53.3824 40.6085 53.2591C41.444 53.0158 42.1733 52.464 42.5877 51.7684C42.6493 51.6622 43.3376 50.4183 44.1183 48.9996C44.899 47.5809 45.5427 46.4295 45.5496 46.4363C45.5598 46.4432 45.7516 46.9024 45.981 47.4541C46.2104 48.0058 46.457 48.5678 46.5255 48.698C46.8371 49.2908 47.3575 49.7877 48.0047 50.103C48.4533 50.3257 48.8368 50.4251 49.3264 50.4525C50.7851 50.5313 52.1137 49.6849 52.6581 48.3313C52.8328 47.903 52.8944 47.5706 52.8944 47.0532C52.8944 46.5597 52.8328 46.2239 52.6513 45.7647C52.3773 45.0793 49.5524 38.3114 49.4737 38.1538C49.234 37.6741 48.7854 37.1669 48.354 36.8825C48.0732 36.694 47.6246 36.4918 47.313 36.4061C46.9227 36.3033 46.1283 36.2862 45.7276 36.3753ZM46.909 36.9099C47.7034 37.0504 48.4464 37.5507 48.8539 38.2155C48.9224 38.332 49.3127 39.2264 49.7202 40.203C50.1277 41.1796 50.4667 41.9918 50.4735 42.0021C50.4838 42.0192 46.9706 43.5064 46.9192 43.5064C46.9158 43.5064 46.909 43.2631 46.9055 42.965C46.9021 42.5298 46.8884 42.3756 46.8302 42.1631C46.4467 40.7684 45.3407 39.7918 43.9402 39.6239L43.6081 39.5862L43.6286 39.4286C43.7861 38.1401 44.7141 37.1395 45.9605 36.9133C46.3132 36.8482 46.5494 36.8482 46.909 36.9099ZM44.3956 40.3092C45.351 40.6416 46.0324 41.3715 46.2789 42.3242C46.4056 42.8211 46.3714 43.4722 46.1865 43.9862C46.0906 44.2466 44.2415 47.5877 44.197 47.5774C44.1183 47.5603 39.2936 44.8943 39.2902 44.8669C39.2868 44.8086 41.1564 41.4572 41.2933 41.279C41.7077 40.741 42.3206 40.3572 42.9917 40.2167C43.0739 40.1996 43.3581 40.1893 43.6218 40.1962C44.0532 40.203 44.132 40.2167 44.3956 40.3092ZM51.4528 44.37C51.8603 45.3569 52.2233 46.2616 52.2575 46.3849C52.3431 46.7002 52.3397 47.4472 52.2541 47.7556C51.7747 49.4313 50.0489 50.312 48.4601 49.6883C47.9431 49.4862 47.4157 49.0441 47.1213 48.5712C47.0322 48.4307 46.7343 47.7693 46.433 47.0394L45.8988 45.7613L46.1933 45.2267C46.3577 44.9354 46.5392 44.5893 46.6042 44.4557L46.7172 44.2158L48.6793 43.4002C49.7579 42.9513 50.6584 42.5812 50.6755 42.5812C50.6961 42.5812 51.0453 43.3865 51.4528 44.37ZM41.4817 46.7516L43.9471 48.1086L43.8512 48.2834C42.9472 49.9454 42.0501 51.5354 41.9131 51.7204C41.5536 52.1899 40.9749 52.5703 40.3688 52.7279C39.9819 52.8307 39.3792 52.8307 38.9991 52.7279C38.4307 52.5771 37.8657 52.2207 37.5165 51.7924C37.2905 51.5217 37.0576 51.0693 36.9549 50.7164C36.8453 50.3292 36.8419 49.6369 36.9549 49.2531C37.0508 48.9139 37.1124 48.7974 38.0917 47.0189C38.5369 46.2067 38.9204 45.5111 38.9444 45.4666C38.9649 45.4254 38.9923 45.3912 38.9991 45.3912C39.0094 45.3912 40.1257 46.0046 41.4817 46.7516Z"/>
</mask>
<path d="M45.7276 36.3753C44.875 36.5638 44.1183 37.0744 43.6423 37.7803C43.3239 38.2463 43.1081 38.8426 43.067 39.36L43.0465 39.6205L42.752 39.6924C41.9371 39.8878 41.1769 40.4018 40.7386 41.0563C40.5434 41.351 36.6604 48.4136 36.544 48.6843C36.366 49.1126 36.2975 49.469 36.3009 50.0002C36.3043 50.5896 36.3968 50.9905 36.6502 51.508C37.1159 52.4538 37.9822 53.1083 39.0539 53.3276C39.4751 53.4133 40.1942 53.3824 40.6085 53.2591C41.444 53.0158 42.1733 52.464 42.5877 51.7684C42.6493 51.6622 43.3376 50.4183 44.1183 48.9996C44.899 47.5809 45.5427 46.4295 45.5496 46.4363C45.5598 46.4432 45.7516 46.9024 45.981 47.4541C46.2104 48.0058 46.457 48.5678 46.5255 48.698C46.8371 49.2908 47.3575 49.7877 48.0047 50.103C48.4533 50.3257 48.8368 50.4251 49.3264 50.4525C50.7851 50.5313 52.1137 49.6849 52.6581 48.3313C52.8328 47.903 52.8944 47.5706 52.8944 47.0532C52.8944 46.5597 52.8328 46.2239 52.6513 45.7647C52.3773 45.0793 49.5524 38.3114 49.4737 38.1538C49.234 37.6741 48.7854 37.1669 48.354 36.8825C48.0732 36.694 47.6246 36.4918 47.313 36.4061C46.9227 36.3033 46.1283 36.2862 45.7276 36.3753ZM46.909 36.9099C47.7034 37.0504 48.4464 37.5507 48.8539 38.2155C48.9224 38.332 49.3127 39.2264 49.7202 40.203C50.1277 41.1796 50.4667 41.9918 50.4735 42.0021C50.4838 42.0192 46.9706 43.5064 46.9192 43.5064C46.9158 43.5064 46.909 43.2631 46.9055 42.965C46.9021 42.5298 46.8884 42.3756 46.8302 42.1631C46.4467 40.7684 45.3407 39.7918 43.9402 39.6239L43.6081 39.5862L43.6286 39.4286C43.7861 38.1401 44.7141 37.1395 45.9605 36.9133C46.3132 36.8482 46.5494 36.8482 46.909 36.9099ZM44.3956 40.3092C45.351 40.6416 46.0324 41.3715 46.2789 42.3242C46.4056 42.8211 46.3714 43.4722 46.1865 43.9862C46.0906 44.2466 44.2415 47.5877 44.197 47.5774C44.1183 47.5603 39.2936 44.8943 39.2902 44.8669C39.2868 44.8086 41.1564 41.4572 41.2933 41.279C41.7077 40.741 42.3206 40.3572 42.9917 40.2167C43.0739 40.1996 43.3581 40.1893 43.6218 40.1962C44.0532 40.203 44.132 40.2167 44.3956 40.3092ZM51.4528 44.37C51.8603 45.3569 52.2233 46.2616 52.2575 46.3849C52.3431 46.7002 52.3397 47.4472 52.2541 47.7556C51.7747 49.4313 50.0489 50.312 48.4601 49.6883C47.9431 49.4862 47.4157 49.0441 47.1213 48.5712C47.0322 48.4307 46.7343 47.7693 46.433 47.0394L45.8988 45.7613L46.1933 45.2267C46.3577 44.9354 46.5392 44.5893 46.6042 44.4557L46.7172 44.2158L48.6793 43.4002C49.7579 42.9513 50.6584 42.5812 50.6755 42.5812C50.6961 42.5812 51.0453 43.3865 51.4528 44.37ZM41.4817 46.7516L43.9471 48.1086L43.8512 48.2834C42.9472 49.9454 42.0501 51.5354 41.9131 51.7204C41.5536 52.1899 40.9749 52.5703 40.3688 52.7279C39.9819 52.8307 39.3792 52.8307 38.9991 52.7279C38.4307 52.5771 37.8657 52.2207 37.5165 51.7924C37.2905 51.5217 37.0576 51.0693 36.9549 50.7164C36.8453 50.3292 36.8419 49.6369 36.9549 49.2531C37.0508 48.9139 37.1124 48.7974 38.0917 47.0189C38.5369 46.2067 38.9204 45.5111 38.9444 45.4666C38.9649 45.4254 38.9923 45.3912 38.9991 45.3912C39.0094 45.3912 40.1257 46.0046 41.4817 46.7516Z" fill="black"/>
<path d="M45.7276 36.3753L46.596 40.2799L46.591 40.281L45.7276 36.3753ZM43.6423 37.7803L46.9589 40.0164L46.9519 40.0267L46.9449 40.037L43.6423 37.7803ZM43.067 39.36L39.0794 39.0455L39.0796 39.0434L43.067 39.36ZM43.0465 39.6205L47.0341 39.935L46.8066 42.8193L43.9961 43.5061L43.0465 39.6205ZM42.752 39.6924L43.7016 43.5781L43.693 43.5802L43.6843 43.5823L42.752 39.6924ZM40.7386 41.0563L37.4037 38.8476L37.4093 38.8391L37.415 38.8306L40.7386 41.0563ZM36.544 48.6843L32.8504 47.1489L32.8598 47.1264L32.8694 47.104L36.544 48.6843ZM36.3009 50.0002L40.3008 49.9744L40.3008 49.9769L36.3009 50.0002ZM36.6502 51.508L33.0616 53.2749L33.0578 53.2671L36.6502 51.508ZM39.0539 53.3276L38.2566 57.2473L38.252 57.2464L39.0539 53.3276ZM40.6085 53.2591L39.467 49.4254L39.4786 49.4219L39.4901 49.4186L40.6085 53.2591ZM42.5877 51.7684L46.0475 53.7758L46.036 53.7956L46.0243 53.8153L42.5877 51.7684ZM45.5496 46.4363L43.3296 49.7637L43.0001 49.5439L42.7201 49.2637L45.5496 46.4363ZM46.5255 48.698L50.0657 46.8361L50.0662 46.837L46.5255 48.698ZM48.0047 50.103L49.7565 46.507L49.7701 46.5136L49.7837 46.5204L48.0047 50.103ZM49.3264 50.4525L49.1106 54.4467L49.1028 54.4463L49.3264 50.4525ZM52.6581 48.3313L48.9471 46.8387L48.9506 46.83L48.9541 46.8213L52.6581 48.3313ZM52.6513 45.7647L56.3656 44.2801L56.3684 44.2873L56.3713 44.2945L52.6513 45.7647ZM49.4737 38.1538L45.8954 39.9416L49.4737 38.1538ZM48.354 36.8825L46.1524 40.2221L46.1385 40.2129L46.1246 40.2036L48.354 36.8825ZM47.313 36.4061L48.3317 32.538L48.3526 32.5435L48.3734 32.5493L47.313 36.4061ZM46.909 36.9099L47.5853 32.9675L47.5955 32.9692L47.6056 32.971L46.909 36.9099ZM48.8539 38.2155L52.2642 36.1252L52.2836 36.1567L52.3023 36.1886L48.8539 38.2155ZM50.4735 42.0021L53.8025 39.7844L53.8552 39.8636L53.9042 39.9452L50.4735 42.0021ZM46.9055 42.965L42.9058 43.0109L42.9057 43.0037L42.9057 42.9965L46.9055 42.965ZM46.8302 42.1631L50.6871 41.1026L50.688 41.1062L46.8302 42.1631ZM43.9402 39.6239L44.3913 35.6494L44.4038 35.6508L44.4164 35.6523L43.9402 39.6239ZM43.6081 39.5862L43.157 43.5607L39.116 43.1021L39.6416 39.0692L43.6081 39.5862ZM43.6286 39.4286L47.5991 39.9139L47.5971 39.9297L47.5951 39.9455L43.6286 39.4286ZM45.9605 36.9133L46.6866 40.8469L46.6746 40.849L45.9605 36.9133ZM44.3956 40.3092L43.0812 44.0871L43.0711 44.0836L44.3956 40.3092ZM46.2789 42.3242L50.1513 41.322L50.1531 41.329L50.1549 41.3359L46.2789 42.3242ZM46.1865 43.9862L49.9503 45.3401L49.9453 45.3541L49.9402 45.3681L46.1865 43.9862ZM44.197 47.5774L45.0474 43.6689L45.0723 43.6743L45.0971 43.68L44.197 47.5774ZM39.2902 44.8669L35.321 45.3626L35.3048 45.2325L35.2971 45.1016L39.2902 44.8669ZM41.2933 41.279L38.1219 38.8414L38.1242 38.8384L41.2933 41.279ZM42.9917 40.2167L42.1721 36.3016L42.1753 36.3009L42.9917 40.2167ZM43.6218 40.1962L43.5582 44.1957L43.538 44.1953L43.5178 44.1948L43.6218 40.1962ZM51.4528 44.37L55.1482 42.8389L55.1501 42.8435L51.4528 44.37ZM52.2575 46.3849L56.1118 45.3151L56.1148 45.3259L56.1177 45.3368L52.2575 46.3849ZM52.2541 47.7556L56.1084 48.8255L56.1041 48.8407L56.0998 48.8558L52.2541 47.7556ZM48.4601 49.6883L49.9168 45.963L49.9217 45.9649L48.4601 49.6883ZM47.1213 48.5712L50.5 46.4302L50.5084 46.4435L50.5167 46.4568L47.1213 48.5712ZM46.433 47.0394L50.1237 45.4971L50.127 45.5051L50.1303 45.5131L46.433 47.0394ZM45.8988 45.7613L42.2082 47.3036L41.4637 45.5223L42.3952 43.8313L45.8988 45.7613ZM46.1933 45.2267L42.6897 43.2967L42.6996 43.2788L42.7097 43.2609L46.1933 45.2267ZM46.6042 44.4557L50.2228 46.1603L50.2119 46.1834L50.2007 46.2064L46.6042 44.4557ZM46.7172 44.2158L43.0986 42.5112L43.7564 41.1147L45.1819 40.5222L46.7172 44.2158ZM48.6793 43.4002L50.2162 47.0931L50.2146 47.0938L48.6793 43.4002ZM41.4817 46.7516L39.5529 50.2558L39.5515 50.2551L41.4817 46.7516ZM43.9471 48.1086L45.8759 44.6044L49.3752 46.5305L47.454 50.0325L43.9471 48.1086ZM43.8512 48.2834L40.3373 46.3721L40.3408 46.3658L40.3442 46.3595L43.8512 48.2834ZM41.9131 51.7204L45.1282 54.1002L45.1087 54.1265L45.0888 54.1525L41.9131 51.7204ZM40.3688 52.7279L39.3417 48.862L39.3518 48.8593L39.362 48.8567L40.3688 52.7279ZM38.9991 52.7279L40.0247 48.8616L40.0341 48.8641L40.0435 48.8666L38.9991 52.7279ZM37.5165 51.7924L40.5871 49.229L40.602 49.2467L40.6166 49.2647L37.5165 51.7924ZM36.9549 50.7164L33.1143 51.8342L33.1101 51.8198L33.106 51.8055L36.9549 50.7164ZM36.9549 49.2531L40.8042 50.341L40.7982 50.362L40.7921 50.3829L36.9549 49.2531ZM38.0917 47.0189L41.5994 48.9415L41.5957 48.9483L38.0917 47.0189ZM38.9444 45.4666L42.5226 47.2543L42.4955 47.3085L42.4668 47.3618L38.9444 45.4666ZM46.591 40.281C46.6623 40.2652 46.7245 40.2377 46.7794 40.2007C46.834 40.1638 46.8985 40.106 46.9589 40.0164L40.3257 35.5441C41.3895 33.9665 43.0354 32.8739 44.8643 32.4696L46.591 40.281ZM46.9449 40.037C46.9893 39.9721 47.0037 39.9347 47.01 39.9174C47.0147 39.9044 47.0219 39.8826 47.0295 39.8491C47.0369 39.8167 47.0479 39.7592 47.0545 39.6767L39.0796 39.0434C39.1799 37.7803 39.6572 36.5224 40.3397 35.5236L46.9449 40.037ZM47.0547 39.6746L47.0341 39.935L39.0589 39.3059L39.0794 39.0455L47.0547 39.6746ZM43.9961 43.5061L43.7016 43.5781L41.8025 35.8068L42.097 35.7348L43.9961 43.5061ZM43.6843 43.5823C43.7658 43.5627 43.8132 43.5371 43.8467 43.5144C43.8776 43.4935 43.963 43.4301 44.0622 43.2819L37.415 38.8306C38.453 37.2805 40.0994 36.2149 41.8197 35.8026L43.6843 43.5823ZM44.0735 43.265C44.1379 43.1678 43.9769 43.4436 43.5137 44.2773C43.1243 44.9782 42.62 45.8915 42.1169 46.8066C41.6137 47.7216 41.1144 48.6335 40.7347 49.3313C40.5444 49.6811 40.3871 49.9718 40.2752 50.1805C40.0966 50.5138 40.1451 50.4355 40.2186 50.2646L32.8694 47.104C32.972 46.8654 33.1674 46.5072 33.2241 46.4013C33.3477 46.1708 33.5143 45.863 33.7075 45.508C34.0947 44.7963 34.6001 43.8733 35.1067 42.952C35.6133 42.0307 36.1236 41.1063 36.5208 40.3915C36.8441 39.8096 37.2418 39.0921 37.4037 38.8476L44.0735 43.265ZM40.2376 50.2197C40.2339 50.2287 40.2416 50.2111 40.2532 50.1736C40.2653 50.1342 40.2773 50.087 40.2867 50.0364C40.3063 49.9312 40.3003 49.8885 40.3008 49.9744L32.301 50.026C32.2945 49.0123 32.4473 48.1187 32.8504 47.1489L40.2376 50.2197ZM40.3008 49.9769C40.3011 50.0232 40.303 50.0284 40.3007 50.0059C40.2981 49.9804 40.2918 49.9355 40.2788 49.8792C40.2657 49.8227 40.2508 49.7763 40.2394 49.7457C40.2291 49.7179 40.2265 49.716 40.2426 49.7488L33.0578 53.2671C32.5321 52.1936 32.3078 51.1973 32.301 50.0234L40.3008 49.9769ZM40.2388 49.741C40.1954 49.653 40.1253 49.5663 40.0382 49.5003C39.9526 49.4356 39.8819 49.4141 39.8558 49.4088L38.252 57.2464C36.0265 56.791 34.0991 55.3821 33.0616 53.2749L40.2388 49.741ZM39.8512 49.4079C39.7753 49.3924 39.7197 49.3849 39.6897 49.3814C39.6583 49.3777 39.6391 49.3766 39.6331 49.3763C39.6238 49.3757 39.6348 49.3766 39.6591 49.3755C39.6834 49.3745 39.694 49.3727 39.6841 49.3741C39.6779 49.375 39.6585 49.3779 39.6271 49.3844C39.597 49.3907 39.5418 49.4031 39.467 49.4254L41.75 57.0927C41.1144 57.282 40.4752 57.3475 40.0084 57.3679C39.5413 57.3883 38.9019 57.3786 38.2566 57.2473L39.8512 49.4079ZM39.4901 49.4186C39.4342 49.4349 39.3896 49.458 39.3477 49.4896C39.3074 49.52 39.2306 49.5879 39.151 49.7215L46.0243 53.8153C45.0562 55.4407 43.4649 56.5934 41.7269 57.0995L39.4901 49.4186ZM39.1278 49.761C39.1192 49.7758 39.1494 49.7225 39.2463 49.5481C39.3299 49.3975 39.4448 49.1902 39.5828 48.9406C39.8587 48.4416 40.2247 47.7783 40.6139 47.0711L47.6227 50.9281C46.8611 52.3119 46.139 53.6181 46.0475 53.7758L39.1278 49.761ZM40.6139 47.0711C41.0072 46.3563 41.3675 45.7061 41.632 45.2326C41.7635 44.9973 41.8751 44.7987 41.9565 44.6557C41.9957 44.587 42.0361 44.5164 42.0712 44.4568C42.0854 44.4327 42.117 44.3792 42.1544 44.3198C42.1658 44.3017 42.2189 44.2167 42.2916 44.1149C42.3115 44.087 42.4264 43.924 42.5967 43.7377C42.6484 43.6812 42.9129 43.3868 43.3291 43.1091C43.5147 42.9853 44.0454 42.6464 44.8232 42.5028C45.7642 42.329 47.2197 42.4487 48.3791 43.609L42.7201 49.2637C43.8794 50.4239 45.3348 50.5435 46.2757 50.3698C47.0535 50.2262 47.584 49.8874 47.7695 49.7636C48.1854 49.4861 48.4496 49.1921 48.5008 49.136C48.6703 48.9506 48.7841 48.7891 48.8026 48.7632C48.8724 48.6654 48.9214 48.5868 48.9275 48.577C48.9543 48.5345 48.9706 48.5064 48.965 48.5158C48.9606 48.5234 48.9435 48.5528 48.9091 48.6132C48.8435 48.7284 48.7441 48.9051 48.6162 49.1341C48.3619 49.5893 48.01 50.2242 47.6227 50.9281L40.6139 47.0711ZM47.7695 43.1089C48.3621 43.5043 48.6991 43.9697 48.7331 44.0144C48.8429 44.1586 48.9193 44.2797 48.9544 44.3365C49.0286 44.4568 49.0804 44.5552 49.0987 44.5902C49.1423 44.6736 49.1746 44.7427 49.1858 44.7666C49.214 44.8271 49.2392 44.8843 49.2542 44.9186C49.2879 44.9957 49.3282 45.0904 49.3685 45.1858C49.451 45.3815 49.5602 45.6436 49.6744 45.9183L42.2876 48.9899C42.1724 48.7128 42.071 48.4695 41.9978 48.2959C41.9601 48.2068 41.9362 48.1509 41.9239 48.1227C41.9159 48.1043 41.9226 48.1203 41.9375 48.1522C41.942 48.1619 41.969 48.2198 42.0085 48.2955C42.0248 48.3266 42.0748 48.422 42.1477 48.5401C42.1822 48.5958 42.258 48.716 42.3673 48.8596C42.4228 48.9325 42.5145 49.048 42.6389 49.18C42.746 49.2936 42.98 49.5305 43.3296 49.7637L47.7695 43.1089ZM49.6744 45.9183C49.78 46.1721 49.8891 46.4275 49.9775 46.6293C50.022 46.7308 50.0577 46.8107 50.0828 46.8659C50.0955 46.8936 50.1024 46.9082 50.1043 46.9123C50.1103 46.9248 50.0946 46.8911 50.0657 46.8361L42.9852 50.5599C42.8145 50.2353 42.4935 49.4851 42.2876 48.9899L49.6744 45.9183ZM50.0662 46.837C49.9563 46.6279 49.8251 46.5404 49.7565 46.507L46.2529 53.699C44.8899 53.035 43.7178 51.9537 42.9848 50.559L50.0662 46.837ZM49.7837 46.5204C49.7983 46.5276 49.792 46.5238 49.7686 46.5147C49.7441 46.5053 49.7097 46.4936 49.6685 46.4828C49.6273 46.4719 49.5916 46.4652 49.5656 46.4613C49.5408 46.4576 49.5335 46.4578 49.55 46.4588L49.1028 54.4463C48.0776 54.3889 47.1644 54.1517 46.2257 53.6856L49.7837 46.5204ZM49.5422 46.4583C49.2927 46.4449 49.0419 46.603 48.9471 46.8387L56.3692 49.824C55.1855 52.7668 52.2776 54.6178 49.1106 54.4467L49.5422 46.4583ZM48.9541 46.8213C48.9605 46.8056 48.9538 46.8203 48.9426 46.857C48.9307 46.8961 48.9183 46.9448 48.9085 46.9981C48.8881 47.108 48.8944 47.1529 48.8944 47.0532H56.8944C56.8944 48.0289 56.7535 48.8814 56.3621 49.8414L48.9541 46.8213ZM48.8944 47.0532C48.8944 47.0123 48.8931 47.0073 48.8946 47.0261C48.8963 47.0477 48.9005 47.0858 48.9095 47.1337C48.9185 47.1817 48.9288 47.2207 48.9362 47.2454C48.943 47.2677 48.944 47.2671 48.9313 47.2349L56.3713 44.2945C56.7432 45.2354 56.8944 46.0713 56.8944 47.0532H48.8944ZM48.937 47.2493C48.8147 46.9432 48.057 45.1205 47.298 43.3023C46.4862 41.3576 45.854 39.8587 45.8954 39.9416L53.0519 36.366C53.1721 36.6065 53.9918 38.5704 54.6805 40.2204C55.4222 41.9969 56.214 43.9008 56.3656 44.2801L48.937 47.2493ZM45.8954 39.9416C45.9303 40.0115 45.9571 40.0516 45.9669 40.0659C45.9778 40.0816 45.9837 40.0883 45.9855 40.0904C45.9873 40.0924 45.9951 40.1013 46.0135 40.1177C46.0302 40.1326 46.0748 40.171 46.1524 40.2221L50.5555 33.5429C51.5881 34.2235 52.5052 35.2718 53.0519 36.366L45.8954 39.9416ZM46.1246 40.2036C46.1557 40.2245 46.1783 40.2383 46.1907 40.2457C46.2034 40.2533 46.2106 40.2572 46.2117 40.2579C46.2127 40.2584 46.2034 40.2534 46.1869 40.2459C46.1795 40.2425 46.1727 40.2396 46.1671 40.2372C46.1615 40.2349 46.1588 40.2339 46.1595 40.2342C46.1601 40.2344 46.1669 40.2369 46.1801 40.2413C46.1928 40.2455 46.2173 40.2533 46.2526 40.263L48.3734 32.5493C49.0889 32.746 49.934 33.1255 50.5833 33.5613L46.1246 40.2036ZM46.2943 40.2742C46.3876 40.2988 46.4536 40.3108 46.4817 40.3155C46.498 40.3183 46.5097 40.32 46.5165 40.3209C46.52 40.3214 46.5226 40.3217 46.5242 40.3219C46.5258 40.3221 46.5267 40.3222 46.5268 40.3222C46.5268 40.3222 46.5244 40.322 46.5196 40.3216C46.5149 40.3212 46.5085 40.3207 46.5005 40.3202C46.4842 40.3192 46.4647 40.3184 46.4435 40.3179C46.4224 40.3175 46.403 40.3176 46.3867 40.3179C46.3788 40.3181 46.3725 40.3183 46.3678 40.3185C46.3631 40.3187 46.3609 40.3189 46.361 40.3188C46.3611 40.3188 46.3648 40.3186 46.3718 40.3179C46.3787 40.3173 46.3907 40.316 46.4072 40.3139C46.4358 40.3102 46.5021 40.3008 46.596 40.2799L44.8593 32.4707C45.5141 32.3251 46.179 32.311 46.6048 32.3196C47.0304 32.3282 47.6898 32.369 48.3317 32.538L46.2943 40.2742ZM47.6056 32.971C49.4903 33.3043 51.239 34.4525 52.2642 36.1252L45.4435 40.3058C45.5665 40.5064 45.6986 40.621 45.7958 40.6863C45.8944 40.7525 46.0283 40.8162 46.2123 40.8488L47.6056 32.971ZM52.3023 36.1886C52.4933 36.5135 52.7335 37.0747 52.8265 37.2879C52.9934 37.6706 53.2012 38.1582 53.4118 38.6628L46.0286 41.7432C45.8317 41.2712 45.6406 40.8233 45.4933 40.4855C45.4191 40.3152 45.3606 40.1837 45.3205 40.0956C45.3109 40.0744 45.3032 40.0578 45.2974 40.0452C45.2945 40.0391 45.2923 40.0344 45.2907 40.031C45.2892 40.0277 45.2885 40.0262 45.2886 40.0265C45.2887 40.0267 45.2901 40.0297 45.2927 40.035C45.2952 40.04 45.2999 40.0494 45.3064 40.0623C45.3125 40.0742 45.3493 40.1468 45.4055 40.2424L52.3023 36.1886ZM53.4118 38.6628C53.6157 39.1515 53.8015 39.5969 53.9372 39.9213C54.0053 40.0839 54.0594 40.2131 54.0965 40.3011C54.1154 40.3461 54.1277 40.375 54.1344 40.3907C54.1384 40.4 54.1367 40.3961 54.1321 40.3855C54.1307 40.3823 54.1218 40.3619 54.1092 40.3345C54.1039 40.3228 54.0887 40.2896 54.068 40.2472C54.058 40.2268 54.0377 40.1856 54.0106 40.1341C53.9967 40.108 53.9751 40.0676 53.9473 40.0189C53.9233 39.9769 53.8729 39.8902 53.8025 39.7844L47.1445 44.2197C47.0253 44.0407 46.9468 43.8896 46.936 43.8692C46.9087 43.8174 46.8881 43.7757 46.8779 43.7548C46.8567 43.7113 46.8408 43.6766 46.8346 43.663C46.8203 43.6319 46.8091 43.6063 46.8047 43.5963C46.7942 43.5722 46.7841 43.5489 46.7774 43.5331C46.7626 43.4985 46.7441 43.4547 46.7239 43.4068C46.6828 43.3091 46.6254 43.1723 46.5569 43.0086C46.4196 42.6801 46.2322 42.2311 46.0286 41.7432L53.4118 38.6628ZM53.9042 39.9452C55.082 41.9099 54.1245 43.6919 53.9032 44.0607C53.5972 44.5706 53.2491 44.8858 53.1491 44.9758C52.8928 45.2065 52.6626 45.3509 52.6166 45.3801C52.4669 45.4752 52.3419 45.54 52.3167 45.5532C52.2328 45.597 52.161 45.6307 52.1372 45.6419C52.0726 45.6723 52.004 45.7031 51.9505 45.7268C51.835 45.7782 51.6824 45.8446 51.5144 45.9171C51.1742 46.0639 50.7252 46.2553 50.2787 46.4443C49.8322 46.6333 49.3795 46.8235 49.0317 46.968C48.8596 47.0394 48.7031 47.1039 48.5827 47.1524C48.5256 47.1754 48.4579 47.2024 48.3941 47.2268C48.3666 47.2373 48.3082 47.2594 48.2392 47.2832C48.2091 47.2936 48.1338 47.3194 48.0378 47.3472C47.9918 47.3605 47.8983 47.3869 47.7788 47.4131C47.7351 47.4227 47.3786 47.5064 46.9192 47.5064V39.5064C46.4607 39.5064 46.1054 39.59 46.0633 39.5992C45.9454 39.6251 45.854 39.6509 45.8105 39.6635C45.7194 39.6899 45.6507 39.7135 45.6288 39.7211C45.5984 39.7316 45.5756 39.7399 45.5649 39.7439C45.5529 39.7483 45.5446 39.7514 45.5414 39.7527C45.5347 39.7552 45.5477 39.7503 45.5916 39.7326C45.6731 39.6997 45.7994 39.6479 45.9637 39.5796C46.2888 39.4446 46.7234 39.262 47.1603 39.0771C47.5972 38.8921 48.0278 38.7085 48.345 38.5717C48.5058 38.5023 48.6263 38.4497 48.7012 38.4164C48.7429 38.3979 48.7488 38.3949 48.7345 38.4017C48.729 38.4042 48.717 38.4099 48.7005 38.418C48.6864 38.4248 48.6541 38.4407 48.6121 38.4626C48.5932 38.4725 48.4729 38.5346 48.3263 38.6278C48.2819 38.656 48.0527 38.7996 47.7971 39.0297C47.6974 39.1194 47.3496 39.4343 47.0437 39.944C46.8225 40.3125 45.8651 42.0944 47.0428 44.0589L53.9042 39.9452ZM46.9192 47.5064C45.3349 47.5064 44.3455 46.618 43.9717 46.2106C43.5779 45.7814 43.3738 45.3679 43.2949 45.1989C43.1238 44.8327 43.0498 44.5238 43.0309 44.4456C42.9781 44.227 42.9561 44.0515 42.9514 44.015C42.9363 43.898 42.9297 43.8044 42.9282 43.7831C42.9233 43.7163 42.9208 43.6588 42.9198 43.635C42.9172 43.5749 42.9153 43.5097 42.9138 43.4522C42.9106 43.3312 42.9077 43.176 42.9058 43.0109L50.9053 42.9191C50.9068 43.0522 50.909 43.1676 50.911 43.2428C50.9121 43.2834 50.9127 43.2977 50.9125 43.2925C50.9124 43.2899 50.912 43.2823 50.9114 43.2711C50.9109 43.2617 50.9097 43.2386 50.9074 43.2077C50.9064 43.1937 50.9003 43.1055 50.8857 42.9922C50.8813 42.9576 50.8595 42.7835 50.8069 42.5658C50.7881 42.4881 50.7142 42.1796 50.5433 41.8136C50.4644 41.6447 50.2603 41.2313 49.8666 40.8022C49.4928 40.3948 48.5035 39.5064 46.9192 39.5064V47.5064ZM42.9057 42.9965C42.9049 42.9029 42.9038 42.8506 42.9028 42.8214C42.9018 42.7931 42.9017 42.8092 42.9056 42.8514C42.9101 42.8997 42.9186 42.9684 42.9337 43.0492C42.9486 43.1292 42.9641 43.19 42.9724 43.2201L50.688 41.1062C50.8905 41.8453 50.9015 42.434 50.9054 42.9335L42.9057 42.9965ZM42.9734 43.2237C42.9809 43.2513 43.0174 43.3425 43.1243 43.4365C43.2338 43.5328 43.3629 43.5833 43.464 43.5954L44.4164 35.6523C47.4981 36.0218 49.891 38.2076 50.6871 41.1026L42.9734 43.2237ZM43.4892 43.5984L43.157 43.5607L44.0591 35.6117L44.3913 35.6494L43.4892 43.5984ZM39.6416 39.0692L39.6622 38.9116L47.5951 39.9455L47.5745 40.1032L39.6416 39.0692ZM39.6582 38.9432C40.0211 35.9741 42.2187 33.527 45.2463 32.9776L46.6746 40.849C46.9138 40.8056 47.1457 40.6796 47.3194 40.4922C47.4918 40.3062 47.5771 40.0937 47.5991 39.9139L39.6582 38.9432ZM45.2343 32.9798C46.0684 32.8258 46.7799 32.8293 47.5853 32.9675L46.2326 40.8523C46.1998 40.8467 46.2921 40.8645 46.4437 40.864C46.5989 40.8636 46.6993 40.8445 46.6866 40.8468L45.2343 32.9798ZM45.7101 36.5314C47.8889 37.2895 49.5594 39.0347 50.1513 41.322L42.4065 43.3264C42.4476 43.4853 42.5372 43.6618 42.6804 43.815C42.8223 43.9669 42.9731 44.0495 43.0812 44.0871L45.7101 36.5314ZM50.1549 41.3359C50.4884 42.644 50.3926 44.1107 49.9503 45.3401L42.4226 42.6322C42.3672 42.7863 42.3581 42.8834 42.3555 42.93C42.3538 42.9612 42.3535 43.0028 42.3581 43.0573C42.3625 43.1101 42.3734 43.1968 42.4029 43.3125L50.1549 41.3359ZM49.9402 45.3681C49.8234 45.6852 49.6453 46.02 49.6321 46.0458C49.5572 46.1912 49.4649 46.3657 49.3665 46.549C49.168 46.9192 48.9174 47.3774 48.6719 47.821C48.4268 48.2636 48.1779 48.7073 47.9832 49.047C47.8883 49.2125 47.7933 49.3759 47.7134 49.508C47.6782 49.5661 47.6188 49.6632 47.5518 49.7635C47.5272 49.8003 47.446 49.9219 47.3338 50.0627C47.2914 50.1158 47.1432 50.3015 46.922 50.5068C46.8221 50.5997 46.5683 50.8284 46.1926 51.0445C45.9769 51.1686 44.833 51.8296 43.2969 51.4749L45.0971 43.68C44.2793 43.4912 43.587 43.5991 43.1554 43.7156C42.7227 43.8324 42.3975 43.9984 42.2042 44.1096C41.8296 44.3251 41.5772 44.5528 41.4788 44.6442C41.2608 44.8466 41.1165 45.0278 41.079 45.0749C40.9764 45.2036 40.9081 45.307 40.8995 45.3198C40.8645 45.3722 40.8495 45.3983 40.8693 45.3656C40.8994 45.3159 40.9569 45.2179 41.0431 45.0676C41.2106 44.7755 41.4384 44.3696 41.6731 43.9457C41.9073 43.5227 42.1398 43.0975 42.3163 42.7683C42.4055 42.6019 42.4737 42.4727 42.5185 42.3856C42.5416 42.3407 42.5507 42.3222 42.5503 42.3229C42.5502 42.3231 42.5413 42.3413 42.5277 42.3714C42.5209 42.3866 42.4794 42.4777 42.4327 42.6043L49.9402 45.3681ZM43.3467 51.486C43.0378 51.4188 42.8047 51.3277 42.7667 51.3131C42.6827 51.281 42.6167 51.2526 42.5825 51.2375C42.5119 51.2066 42.4556 51.1795 42.4305 51.1673C42.3743 51.1401 42.3241 51.1143 42.2942 51.0989C42.2283 51.0648 42.152 51.0244 42.0772 50.9844C41.9232 50.902 41.7169 50.7901 41.4822 50.6621C41.0102 50.4047 40.3928 50.0652 39.781 49.7272C39.1692 49.3892 38.5565 49.049 38.094 48.7902C37.8642 48.6616 37.6635 48.5487 37.5163 48.4646C37.4456 48.4243 37.3713 48.3816 37.3077 48.3439C37.2811 48.3282 37.2254 48.2951 37.1635 48.2559C37.1411 48.2417 37.0618 48.1915 36.9663 48.1231C36.9294 48.0967 36.8054 48.0078 36.6589 47.8798C36.5934 47.8226 36.4298 47.677 36.2486 47.4648C36.158 47.3549 35.9535 47.0729 35.8443 46.8981C35.6956 46.6215 35.4145 45.8562 35.321 45.3626L43.2594 44.3711C43.1659 43.8777 42.8849 43.1125 42.7363 42.836C42.6272 42.6614 42.4227 42.3795 42.3323 42.2698C42.1515 42.058 41.9883 41.9128 41.9234 41.8561C41.7782 41.7292 41.6559 41.6417 41.6214 41.617C41.5306 41.552 41.4583 41.5065 41.4452 41.4981C41.4194 41.4818 41.4006 41.4703 41.3941 41.4664C41.3899 41.4639 41.3867 41.462 41.385 41.4609C41.3841 41.4604 41.3834 41.46 41.383 41.4597C41.3825 41.4595 41.3823 41.4594 41.3823 41.4593C41.3823 41.4593 41.3825 41.4594 41.3829 41.4597C41.3832 41.4599 41.3837 41.4602 41.3844 41.4606C41.3859 41.4614 41.3878 41.4626 41.3904 41.4641C41.3956 41.4671 41.4026 41.4712 41.4115 41.4763C41.4294 41.4867 41.4526 41.5 41.4813 41.5164C41.5989 41.5835 41.7763 41.6834 42.0006 41.8089C42.4461 42.0582 43.0451 42.3908 43.6497 42.7248C44.2544 43.0589 44.8581 43.3909 45.313 43.6389C45.5418 43.7637 45.7253 43.8632 45.8502 43.93C45.9149 43.9646 45.9504 43.9832 45.9638 43.9901C45.9735 43.9952 45.9548 43.9853 45.9216 43.9692C45.9079 43.9626 45.8609 43.9398 45.7973 43.9119C45.7666 43.8984 45.7036 43.8712 45.622 43.84C45.5863 43.8264 45.3551 43.7358 45.0474 43.6689L43.3467 51.486ZM35.2971 45.1016C35.2621 44.506 35.3739 44.0463 35.396 43.9521C35.4367 43.7785 35.4807 43.6436 35.5041 43.5748C35.5522 43.4332 35.5983 43.3239 35.6169 43.2805C35.6592 43.1814 35.6982 43.1009 35.7147 43.0671C35.7538 42.9867 35.795 42.9072 35.8257 42.8485C35.8919 42.722 35.9773 42.5633 36.0689 42.3949C36.2551 42.0528 36.5002 41.6094 36.7463 41.1686C36.9924 40.7275 37.246 40.2772 37.4496 39.9213C37.5504 39.7449 37.6451 39.5808 37.7231 39.4487C37.7612 39.3841 37.8037 39.3131 37.8451 39.246C37.8469 39.2431 37.9676 39.0421 38.1219 38.8414L44.4647 43.7167C44.5581 43.5952 44.6208 43.4978 44.6247 43.4918C44.6343 43.4771 44.6413 43.4662 44.6449 43.4604C44.6487 43.4543 44.651 43.4507 44.6514 43.4501C44.6519 43.4493 44.6488 43.4542 44.6413 43.4667C44.6342 43.4786 44.6246 43.4947 44.6125 43.5152C44.562 43.6007 44.4882 43.7282 44.3946 43.892C44.2092 44.2163 43.9699 44.641 43.732 45.0673C43.4939 45.4938 43.2637 45.9103 43.096 46.2186C43.0107 46.3754 42.9496 46.4894 42.9136 46.5581C42.8933 46.597 42.8945 46.5956 42.9066 46.5708C42.9095 46.5648 42.9382 46.5064 42.9736 46.4234C42.9888 46.388 43.0323 46.2854 43.0787 46.1487C43.1012 46.0824 43.1446 45.9496 43.1849 45.7777C43.2055 45.6897 43.2336 45.5568 43.2553 45.3933C43.2752 45.2442 43.3033 44.9724 43.2833 44.6322L35.2971 45.1016ZM38.1242 38.8384C39.1255 37.5382 40.5747 36.636 42.1721 36.3016L43.8113 44.1319C44.0665 44.0784 44.2898 43.9438 44.4625 43.7196L38.1242 38.8384ZM42.1753 36.3009C42.6088 36.2105 43.0447 36.2017 43.1038 36.1997C43.2963 36.1932 43.5129 36.192 43.7257 36.1975L43.5178 44.1948C43.4669 44.1935 43.4096 44.194 43.3735 44.1952C43.3551 44.1958 43.3641 44.1959 43.3955 44.1935C43.4114 44.1922 43.4487 44.1892 43.5007 44.183C43.5275 44.1799 43.5656 44.175 43.612 44.168C43.6563 44.1612 43.7245 44.15 43.8081 44.1325L42.1753 36.3009ZM43.6853 36.1967C43.8752 36.1997 44.2553 36.2039 44.66 36.2641C45.157 36.338 45.5358 36.4702 45.7201 36.5349L43.0711 44.0836C43.0227 44.0666 43.0657 44.0829 43.141 44.1041C43.2377 44.1313 43.3551 44.158 43.4833 44.1771C43.598 44.1941 43.6759 44.1981 43.6831 44.1985C43.6843 44.1985 43.6563 44.1972 43.5582 44.1957L43.6853 36.1967ZM55.1501 42.8435C55.3577 43.3463 55.5562 43.8335 55.7091 44.216C55.7961 44.4334 56.0187 44.9797 56.1118 45.3151L48.4032 47.4547C48.4317 47.5573 48.4571 47.6313 48.4602 47.6404C48.4677 47.6626 48.4721 47.6745 48.4709 47.6711C48.4685 47.6646 48.4595 47.6403 48.4411 47.5924C48.4051 47.4987 48.3512 47.3618 48.2811 47.1866C48.1422 46.8391 47.9554 46.3805 47.7556 45.8965L55.1501 42.8435ZM56.1177 45.3368C56.3064 46.0317 56.3211 46.7386 56.32 47.0858C56.3189 47.4315 56.2998 48.1358 56.1084 48.8255L48.3998 46.6858C48.3593 46.8318 48.3404 46.94 48.3329 46.9869C48.3243 47.0404 48.321 47.0745 48.32 47.0847C48.3183 47.1029 48.3199 47.0916 48.32 47.0599C48.3201 47.0282 48.3186 47.0172 48.3202 47.0358C48.3211 47.0463 48.3243 47.0804 48.3326 47.134C48.3399 47.1814 48.358 47.2885 48.3973 47.4331L56.1177 45.3368ZM56.0998 48.8558C54.9984 52.7057 50.8743 54.9332 46.9985 53.4118L49.9217 45.9649C49.6245 45.8483 49.2607 45.8655 48.9567 46.0205C48.6572 46.1731 48.4738 46.4267 48.4084 46.6555L56.0998 48.8558ZM47.0034 53.4137C45.6692 52.892 44.4679 51.8774 43.7258 50.6856L50.5167 46.4568C50.4075 46.2814 50.3146 46.1974 50.2719 46.1617C50.23 46.1267 50.1237 46.0439 49.9168 45.963L47.0034 53.4137ZM43.7425 50.7122C43.5113 50.3473 43.2892 49.846 43.2086 49.6668C43.0658 49.3493 42.8996 48.9629 42.7357 48.5658L50.1303 45.5131C50.2677 45.8459 50.4011 46.1551 50.5049 46.3859C50.5574 46.5028 50.5954 46.584 50.618 46.6306C50.6295 46.6543 50.6303 46.6551 50.6222 46.6397C50.6178 46.6314 50.6071 46.611 50.5908 46.5821C50.5766 46.5566 50.5452 46.5014 50.5 46.4302L43.7425 50.7122ZM42.7423 48.5818L42.2082 47.3036L49.5895 44.2189L50.1237 45.4971L42.7423 48.5818ZM42.3952 43.8313L42.6897 43.2967L49.6969 47.1567L49.4024 47.6912L42.3952 43.8313ZM42.7097 43.2609C42.7706 43.153 42.8399 43.0254 42.9021 42.9081C42.9326 42.8506 42.959 42.8 42.9795 42.7603C43.0022 42.7162 43.0103 42.6995 43.0077 42.7049L50.2007 46.2064C50.0911 46.4315 49.8694 46.8514 49.677 47.1924L42.7097 43.2609ZM42.9856 42.751L43.0986 42.5112L50.3358 45.9204L50.2228 46.1603L42.9856 42.751ZM45.1819 40.5222L47.1439 39.7066L50.2146 47.0938L48.2525 47.9094L45.1819 40.5222ZM47.1423 39.7073C47.6852 39.4813 48.1864 39.2739 48.5565 39.122C48.7403 39.0465 48.8984 38.982 49.0153 38.935C49.0714 38.9125 49.131 38.8887 49.1834 38.8684C49.2061 38.8596 49.2508 38.8423 49.302 38.8238C49.323 38.8162 49.3817 38.7951 49.4562 38.7713C49.4896 38.7607 49.5706 38.7352 49.6749 38.7083C49.7264 38.695 49.821 38.6716 49.9409 38.6492C50.0178 38.6348 50.3042 38.5812 50.6755 38.5812V46.5812C50.8853 46.5812 51.0537 46.5645 51.1528 46.5526C51.2596 46.5398 51.3478 46.5248 51.409 46.5133C51.5284 46.491 51.6225 46.4678 51.6733 46.4547C51.7762 46.4281 51.8553 46.4032 51.8866 46.3932C51.9565 46.3709 52.0091 46.3519 52.0223 46.3471C52.0432 46.3396 52.0583 46.3339 52.064 46.3317C52.0676 46.3303 52.0703 46.3293 52.0719 46.3287C52.0736 46.3281 52.0745 46.3277 52.0747 46.3276C52.075 46.3275 52.0734 46.3281 52.0696 46.3296C52.0658 46.3311 52.0607 46.3331 52.054 46.3358C52.0405 46.3411 52.023 46.3482 52.0009 46.357C51.9103 46.3935 51.7727 46.4496 51.5944 46.5227C51.2403 46.6681 50.7519 46.8702 50.2162 47.0931L47.1423 39.7073ZM50.6755 38.5812C52.1327 38.5812 53.0622 39.3659 53.2007 39.4787C53.4971 39.7197 53.6914 39.9497 53.7698 40.0451C53.9418 40.2547 54.0541 40.4362 54.0876 40.4906C54.1745 40.6314 54.236 40.7508 54.2553 40.7883C54.3069 40.8887 54.352 40.9852 54.3792 41.0441C54.4408 41.1773 54.5136 41.3421 54.588 41.5134C54.7405 41.8645 54.9388 42.3335 55.1482 42.8389L47.7574 45.901C47.5594 45.4229 47.3793 44.9976 47.2501 44.7001C47.1837 44.5472 47.1399 44.4492 47.1175 44.4007C47.1027 44.3688 47.114 44.3946 47.141 44.4471C47.148 44.4607 47.1994 44.5619 47.2787 44.6904C47.3085 44.7386 47.4176 44.9155 47.5871 45.122C47.6641 45.2158 47.8573 45.4446 48.1527 45.6849C48.3042 45.8081 48.563 46.0008 48.9196 46.175C49.2635 46.3432 49.8755 46.5812 50.6755 46.5812V38.5812ZM43.4105 43.2474L45.8759 44.6044L42.0183 51.6128L39.5529 50.2558L43.4105 43.2474ZM47.454 50.0325L47.3581 50.2073L40.3442 46.3595L40.4401 46.1847L47.454 50.0325ZM47.365 50.1946C46.9046 51.0411 46.4444 51.8722 46.0786 52.5207C45.8965 52.8437 45.7321 53.1313 45.6001 53.3572C45.5307 53.476 45.3227 53.8374 45.1282 54.1002L38.698 49.3407C38.5948 49.4801 38.5373 49.5807 38.5862 49.5009C38.606 49.4685 38.6408 49.4102 38.693 49.3209C38.796 49.1446 38.9382 48.8962 39.1104 48.5908C39.4535 47.9825 39.8938 47.1876 40.3373 46.3721L47.365 50.1946ZM45.0888 54.1525C44.1637 55.3604 42.8071 56.2268 41.3757 56.5991L39.362 48.8567C39.2176 48.8942 39.1176 48.9454 39.0447 48.993C38.974 49.0393 38.8617 49.1261 38.7374 49.2884L45.0888 54.1525ZM41.3959 56.5938C40.342 56.8738 39.0248 56.8786 37.9548 56.5892L40.0435 48.8666C39.895 48.8265 39.7947 48.8139 39.7595 48.8101C39.7175 48.8054 39.6929 48.805 39.6814 48.805C39.6698 48.805 39.6468 48.8054 39.6078 48.8097C39.575 48.8133 39.4813 48.8249 39.3417 48.862L41.3959 56.5938ZM37.9736 56.5942C36.6458 56.242 35.3342 55.4458 34.4164 54.3201L40.6166 49.2647C40.4796 49.0967 40.3654 49.0162 40.31 48.9813C40.2511 48.9441 40.1634 48.8984 40.0247 48.8616L37.9736 56.5942ZM34.4458 54.3558C33.8319 53.6204 33.3555 52.663 33.1143 51.8342L40.7956 49.5986C40.7738 49.5239 40.7562 49.4801 40.7507 49.4669C40.7442 49.4512 40.7404 49.4438 40.7387 49.4404C40.7371 49.4374 40.73 49.4239 40.7137 49.3985C40.6997 49.3767 40.6594 49.3155 40.5871 49.229L34.4458 54.3558ZM33.106 51.8055C32.915 51.1304 32.8722 50.4611 32.8715 49.9898C32.8707 49.5266 32.9095 48.8309 33.1178 48.1234L40.7921 50.3829C40.8499 50.1864 40.8646 50.0564 40.8675 50.0303C40.8699 50.0079 40.8708 49.9937 40.8711 49.9876C40.8714 49.9811 40.8715 49.978 40.8714 49.9771C40.8714 49.9762 40.8714 49.974 40.8712 49.9694C40.871 49.965 40.8703 49.9539 40.8682 49.9355C40.866 49.9154 40.8534 49.8026 40.8038 49.6273L33.106 51.8055ZM33.1057 48.1653C33.361 47.2617 33.7503 46.6105 34.5878 45.0895L41.5957 48.9483C41.0878 49.8706 40.8686 50.271 40.7557 50.4925C40.7069 50.5881 40.72 50.5695 40.7493 50.4964C40.7884 50.3986 40.8101 50.3198 40.8042 50.341L33.1057 48.1653ZM34.5841 45.0963C34.8079 44.6879 35.0161 44.3092 35.171 44.0275C35.2492 43.8851 35.3118 43.7715 35.3585 43.6865C35.4127 43.588 35.4272 43.5614 35.4219 43.5713L42.4668 47.3618C42.4337 47.4235 42.027 48.1614 41.5994 48.9415L34.5841 45.0963ZM35.3661 43.6788C35.4853 43.4402 35.6242 43.2171 35.776 43.0146C35.8455 42.9219 35.9759 42.7551 36.1611 42.5698C36.2457 42.4851 36.4293 42.3077 36.6925 42.1223C36.7484 42.083 37.6487 41.3912 38.9991 41.3912V49.3912C39.78 49.3912 40.3642 49.1625 40.6349 49.0411C40.9409 48.9038 41.1678 48.7554 41.2988 48.6631C41.5591 48.4798 41.7393 48.3053 41.8201 48.2245C41.9976 48.0469 42.1185 47.8913 42.1778 47.8123C42.309 47.6371 42.4239 47.4518 42.5226 47.2543L35.3661 43.6788ZM38.9991 41.3912C39.5058 41.3912 39.8928 41.4912 39.981 41.5135C40.1329 41.552 40.251 41.5915 40.3124 41.6128C40.438 41.6565 40.5339 41.697 40.571 41.7129C40.6554 41.7489 40.7204 41.7802 40.7403 41.7898C40.7916 41.8145 40.8327 41.8357 40.8463 41.8427C40.8817 41.8609 40.9154 41.8788 40.9368 41.8902C40.9846 41.9158 41.0451 41.9485 41.1108 41.9842C41.2451 42.0572 41.4334 42.1602 41.6593 42.2841C42.1126 42.5327 42.7334 42.8744 43.4118 43.2481L39.5515 50.2551C38.8739 49.8818 38.2586 49.5432 37.8122 49.2984C37.5883 49.1756 37.4109 49.0785 37.2906 49.0131C37.229 48.9797 37.19 48.9586 37.1695 48.9477C37.1568 48.9409 37.1641 48.9449 37.1814 48.9538C37.1859 48.9561 37.22 48.9738 37.2663 48.9961C37.2838 49.0045 37.3469 49.0349 37.4298 49.0704C37.4662 49.0859 37.5616 49.1262 37.6868 49.1697C37.748 49.191 37.8659 49.2305 38.0176 49.2689C38.089 49.2862 38.2559 49.3215 38.3515 49.3384C38.4832 49.3577 38.8071 49.3865 38.9991 49.3912V41.3912Z" fill="black" mask="url(#path-2-inside-1_15_298)"/>
<mask id="path-4-inside-2_15_298" fill="white">
<path d="M46.995 46.0663C46.9025 46.1005 46.8272 46.1862 46.8067 46.2787C46.7758 46.4261 47.4675 48.0641 47.6935 48.3828C48.1078 48.9619 48.7687 49.2943 49.5049 49.2977C50.0459 49.2977 50.4602 49.1572 50.5287 48.9482C50.5698 48.8248 50.5013 48.6809 50.3746 48.6192C50.2925 48.5781 50.2479 48.5815 50.0493 48.6432C49.7138 48.746 49.4809 48.7632 49.2002 48.7049C48.7413 48.6055 48.3578 48.3519 48.125 47.9921C48.0565 47.8859 47.851 47.4336 47.6661 46.9915C47.4812 46.546 47.3066 46.1622 47.2758 46.1348C47.2073 46.0731 47.0669 46.0389 46.995 46.0663Z"/>
</mask>
<path d="M46.995 46.0663C46.9025 46.1005 46.8272 46.1862 46.8067 46.2787C46.7758 46.4261 47.4675 48.0641 47.6935 48.3828C48.1078 48.9619 48.7687 49.2943 49.5049 49.2977C50.0459 49.2977 50.4602 49.1572 50.5287 48.9482C50.5698 48.8248 50.5013 48.6809 50.3746 48.6192C50.2925 48.5781 50.2479 48.5815 50.0493 48.6432C49.7138 48.746 49.4809 48.7632 49.2002 48.7049C48.7413 48.6055 48.3578 48.3519 48.125 47.9921C48.0565 47.8859 47.851 47.4336 47.6661 46.9915C47.4812 46.546 47.3066 46.1622 47.2758 46.1348C47.2073 46.0731 47.0669 46.0389 46.995 46.0663Z" fill="black"/>
<path d="M46.995 46.0663L48.4199 49.8039L48.4026 49.8105L48.3852 49.8169L46.995 46.0663ZM46.8067 46.2787L42.8914 45.4599L42.8964 45.4357L42.9018 45.4116L46.8067 46.2787ZM47.6935 48.3828L44.4403 50.7102L44.4355 50.7034L44.4307 50.6966L47.6935 48.3828ZM49.5049 49.2977V53.2977H49.4956L49.4863 53.2977L49.5049 49.2977ZM50.5287 48.9482L46.7275 47.7029L46.7306 47.6935L46.7337 47.6842L50.5287 48.9482ZM50.3746 48.6192L48.6237 52.2156L48.6041 52.2061L48.5847 52.1964L50.3746 48.6192ZM50.0493 48.6432L51.2358 52.4632L51.2284 52.4655L51.221 52.4678L50.0493 48.6432ZM49.2002 48.7049L48.3876 52.6215L48.3705 52.6179L48.3534 52.6143L49.2002 48.7049ZM48.125 47.9921L44.7668 50.1653L44.763 50.1595L48.125 47.9921ZM47.6661 46.9915L43.9759 48.5351L43.9717 48.5249L47.6661 46.9915ZM47.2758 46.1348L44.6172 49.1234L44.608 49.1152L44.5988 49.107L47.2758 46.1348ZM48.3852 49.8169C49.0113 49.5848 49.5068 49.2115 49.8702 48.8006C50.2315 48.392 50.558 47.8374 50.7116 47.1458L42.9018 45.4116C43.2258 43.9525 44.2788 42.8071 45.6048 42.3156L48.3852 49.8169ZM50.7219 47.0976C50.7766 46.8361 50.7951 46.6153 50.8019 46.4631C50.8088 46.3059 50.8051 46.1734 50.7997 46.0755C50.7892 45.8854 50.7667 45.7362 50.7525 45.6528C50.7244 45.4874 50.6922 45.3694 50.6828 45.3354C50.6612 45.2569 50.6493 45.2287 50.6673 45.2791C50.6976 45.364 50.7577 45.5185 50.8393 45.7118C50.9189 45.9006 50.9995 46.0803 51.0626 46.212C51.0776 46.2433 51.09 46.2686 51.0998 46.2879C51.1045 46.2974 51.1083 46.3048 51.1111 46.3102C51.1125 46.3128 51.1135 46.3148 51.1142 46.3162C51.115 46.3176 51.1153 46.3183 51.1153 46.3183C51.1153 46.3182 51.1148 46.3173 51.1139 46.3157C51.113 46.314 51.1115 46.3113 51.1095 46.3077C51.1057 46.3009 51.0987 46.2886 51.0888 46.2718C51.0741 46.2469 51.0284 46.1706 50.9564 46.069L44.4307 50.6966C44.1481 50.2981 43.9277 49.8351 43.8479 49.6685C43.7187 49.3989 43.586 49.1002 43.4683 48.8212C43.3525 48.5468 43.2314 48.2442 43.1336 47.9706C43.0876 47.8417 43.0249 47.6588 42.9705 47.4614C42.9447 47.3678 42.9006 47.1993 42.8656 46.9934C42.859 46.9544 42.7206 46.2763 42.8914 45.4599L50.7219 47.0976ZM50.9467 46.0554C50.5795 45.5421 50.0113 45.3 49.5235 45.2978L49.4863 53.2977C47.5261 53.2886 45.6362 52.3817 44.4403 50.7102L50.9467 46.0554ZM49.5049 45.2977C49.4721 45.2977 49.2509 45.2969 48.9039 45.4151C48.7309 45.4741 48.3963 45.6066 48.0206 45.8875C47.6527 46.1626 47.0445 46.7353 46.7275 47.7029L54.3299 50.1935C53.6698 52.2086 51.8891 52.8496 51.4841 52.9876C50.7776 53.2283 50.0787 53.2977 49.5049 53.2977V45.2977ZM46.7337 47.6842C46.0494 49.7387 47.2193 51.5319 48.6237 52.2156L52.1256 45.0228C53.7834 45.8299 55.0903 47.9109 54.3237 50.2122L46.7337 47.6842ZM48.5847 52.1964C48.7038 52.256 48.9915 52.3929 49.3879 52.4875C49.815 52.5895 50.2126 52.6068 50.5514 52.5817C50.8485 52.5597 51.0682 52.5068 51.1432 52.4881C51.2225 52.4682 51.2697 52.4527 51.2358 52.4632L48.8629 44.8232C48.8822 44.8172 49.381 44.6465 49.9599 44.6036C50.9278 44.5319 51.6872 44.8032 52.1646 45.0421L48.5847 52.1964ZM51.221 52.4678C50.3882 52.7229 49.4618 52.8444 48.3876 52.6215L50.0127 44.7883C49.8381 44.7521 49.5932 44.7247 49.3136 44.745C49.0587 44.7636 48.8933 44.8139 48.8777 44.8187L51.221 52.4678ZM48.3534 52.6143C46.975 52.3157 45.6348 51.5066 44.7668 50.1653L51.4831 45.819C51.0808 45.1973 50.5077 44.8953 50.0469 44.7955L48.3534 52.6143ZM44.763 50.1595C44.5394 49.8126 44.3458 49.378 44.3014 49.281C44.1977 49.0541 44.0826 48.7901 43.9759 48.5351L51.3563 45.448C51.4345 45.635 51.5147 45.8182 51.577 45.9545C51.6088 46.024 51.6283 46.0647 51.6358 46.0797C51.6396 46.0874 51.6334 46.0747 51.6192 46.0481C51.6118 46.0342 51.5984 46.0095 51.5799 45.9773C51.5629 45.9478 51.531 45.8933 51.4869 45.8248L44.763 50.1595ZM43.9717 48.5249C43.8921 48.3331 43.8205 48.1687 43.7729 48.0643C43.747 48.0074 43.7413 47.9971 43.7521 48.0184C43.7549 48.0241 43.7838 48.0818 43.8307 48.163C43.8529 48.2013 43.9042 48.2887 43.9781 48.3972C44.0157 48.4523 44.0775 48.5399 44.1604 48.6432C44.2312 48.7314 44.3868 48.9185 44.6172 49.1234L49.9344 43.1462C50.3272 43.4957 50.5593 43.8484 50.5883 43.891C50.6683 44.0083 50.7267 44.1071 50.7569 44.1595C50.82 44.2686 50.869 44.3643 50.8955 44.4168C50.9534 44.5316 51.0087 44.6503 51.0534 44.7484C51.1471 44.9542 51.2552 45.2044 51.3605 45.4581L43.9717 48.5249ZM44.5988 49.107C45.205 49.653 45.8255 49.8645 46.1882 49.953C46.4098 50.0072 46.6859 50.0522 47.0068 50.0564C47.2975 50.0602 47.8166 50.0339 48.4199 49.8039L45.5701 42.3287C46.7102 41.894 47.7043 42.0883 48.0852 42.1812C48.5531 42.2954 49.2781 42.555 49.9528 43.1627L44.5988 49.107Z" fill="black" mask="url(#path-4-inside-2_15_298)"/>
<mask id="path-6-inside-3_15_298" fill="white">
<path d="M38.6085 47.3855C38.499 47.4438 37.708 48.8693 37.5642 49.2634C37.4717 49.5273 37.4614 49.5958 37.458 49.9659C37.458 50.3291 37.4683 50.4114 37.5573 50.6821C37.7217 51.1824 38.0401 51.5971 38.4647 51.8712C38.7489 52.0562 39.016 51.9774 39.016 51.7101C39.016 51.5765 39.0023 51.5594 38.6393 51.2749C38.1291 50.8774 37.8929 50.127 38.0881 49.5101C38.1223 49.3971 38.3449 48.9516 38.5846 48.5198C39.0331 47.7008 39.0708 47.5911 38.9578 47.4506C38.879 47.3615 38.7147 47.3307 38.6085 47.3855Z"/>
</mask>
<path d="M38.6085 47.3855C38.499 47.4438 37.708 48.8693 37.5642 49.2634C37.4717 49.5273 37.4614 49.5958 37.458 49.9659C37.458 50.3291 37.4683 50.4114 37.5573 50.6821C37.7217 51.1824 38.0401 51.5971 38.4647 51.8712C38.7489 52.0562 39.016 51.9774 39.016 51.7101C39.016 51.5765 39.0023 51.5594 38.6393 51.2749C38.1291 50.8774 37.8929 50.127 38.0881 49.5101C38.1223 49.3971 38.3449 48.9516 38.5846 48.5198C39.0331 47.7008 39.0708 47.5911 38.9578 47.4506C38.879 47.3615 38.7147 47.3307 38.6085 47.3855Z" fill="black"/>
<path d="M38.6085 47.3855L36.7308 43.8537L36.7518 43.8425L36.7728 43.8316L38.6085 47.3855ZM37.5642 49.2634L33.7892 47.9407L33.7977 47.9164L33.8066 47.8921L37.5642 49.2634ZM37.458 49.9659H33.458V49.9474L33.4582 49.9289L37.458 49.9659ZM37.5573 50.6821L41.3571 49.4325L41.3575 49.4337L37.5573 50.6821ZM38.4647 51.8712L40.6344 48.5108L40.6408 48.5149L40.6473 48.5191L38.4647 51.8712ZM38.6393 51.2749L41.0978 48.1196L41.1065 48.1265L38.6393 51.2749ZM38.0881 49.5101L41.9164 50.6694L41.9092 50.6932L41.9017 50.7169L38.0881 49.5101ZM38.5846 48.5198L42.0928 50.4413L42.0873 50.4513L42.0818 50.4612L38.5846 48.5198ZM38.9578 47.4506L41.9548 44.8015L42.0164 44.8712L42.0748 44.9438L38.9578 47.4506ZM40.4863 50.9174C40.7351 50.7851 40.9229 50.6511 41.0414 50.56C41.1655 50.4646 41.2631 50.3777 41.3314 50.3137C41.464 50.1894 41.5593 50.0824 41.6094 50.0243C41.7099 49.9078 41.775 49.8169 41.7923 49.7927C41.8336 49.735 41.8456 49.7129 41.8184 49.7568C41.7724 49.8309 41.6927 49.9667 41.5958 50.1412C41.5014 50.3111 41.4106 50.4817 41.342 50.6174C41.3076 50.6854 41.2857 50.7308 41.2749 50.7543C41.256 50.7949 41.2826 50.7421 41.3218 50.6347L33.8066 47.8921C34.0049 47.3487 34.4007 46.6193 34.6026 46.2559C34.7351 46.0175 34.8827 45.7613 35.0203 45.5395C35.0849 45.4353 35.1778 45.2893 35.2839 45.1408C35.3336 45.0713 35.4271 44.9435 35.5512 44.7995C35.6132 44.7277 35.7191 44.6093 35.8612 44.4761C35.9689 44.3753 36.2721 44.0975 36.7308 43.8537L40.4863 50.9174ZM41.3391 50.5861C41.3055 50.682 41.3881 50.4684 41.4329 50.172C41.4526 50.0416 41.4576 49.9472 41.4588 49.9215C41.4595 49.9054 41.4586 49.9165 41.4578 50.0029L33.4582 49.9289C33.4596 49.7774 33.4596 49.3942 33.5225 48.9776C33.5964 48.4885 33.7303 48.1087 33.7892 47.9407L41.3391 50.5861ZM41.458 49.9659C41.458 50.048 41.4588 50.0592 41.4582 50.0437C41.4573 50.0189 41.4534 49.9334 41.4371 49.8149C41.4001 49.5449 41.3315 49.3545 41.3571 49.4325L33.7575 51.9317C33.6941 51.739 33.5759 51.3721 33.5114 50.9025C33.4556 50.496 33.458 50.1273 33.458 49.9659H41.458ZM41.3575 49.4337C41.2446 49.0901 41.0017 48.7479 40.6344 48.5108L36.295 55.2316C35.0785 54.4462 34.1987 53.2747 33.7571 51.9305L41.3575 49.4337ZM40.6473 48.5191C40.197 48.2259 39.1176 47.7127 37.7218 48.1218C36.9725 48.3414 36.2261 48.8191 35.6936 49.5792C35.1721 50.3237 35.016 51.1071 35.016 51.7101H43.016C43.016 52.4469 42.8265 53.3403 42.246 54.169C41.6546 55.0133 40.8237 55.5492 39.972 55.7988C38.3716 56.2679 37.0167 55.7015 36.2822 55.2233L40.6473 48.5191ZM35.016 51.7101C35.016 51.716 35.016 51.7459 35.017 51.7866C35.0181 51.8283 35.0205 51.8949 35.0269 51.9775C35.0402 52.1464 35.0717 52.4021 35.1563 52.7041C35.3465 53.3836 35.6824 53.8691 35.9355 54.1624C36.0471 54.2917 36.1424 54.3834 36.1929 54.4305C36.2449 54.4789 36.2816 54.5095 36.2876 54.5145C36.2911 54.5174 36.2717 54.5015 36.1721 54.4234L41.1065 48.1265C41.1193 48.1364 41.6214 48.5062 41.9921 48.9357C42.2939 49.2856 42.656 49.8182 42.8601 50.5474C43.0319 51.1609 43.016 51.6918 43.016 51.7101H35.016ZM36.1809 54.4303C34.3629 53.0138 33.5704 50.5283 34.2744 48.3034L41.9017 50.7169C42.0807 50.1513 42.0322 49.6491 41.9164 49.2796C41.8008 48.9101 41.5568 48.4773 41.0977 48.1196L36.1809 54.4303ZM34.2597 48.3509C34.3971 47.8973 34.6436 47.4214 34.6827 47.3433C34.7997 47.1097 34.9419 46.8403 35.0873 46.5784L42.0818 50.4612C41.9875 50.6311 41.8986 50.8003 41.8358 50.9257C41.8208 50.9557 41.8086 50.9804 41.7994 50.9996C41.7948 51.0091 41.7912 51.0166 41.7886 51.0221C41.7874 51.0248 41.7864 51.0269 41.7857 51.0283C41.785 51.0298 41.7847 51.0305 41.7847 51.0305C41.7847 51.0305 41.7848 51.0303 41.785 51.0299C41.7852 51.0294 41.7855 51.0288 41.7859 51.0279C41.7867 51.0261 41.788 51.0232 41.7897 51.0192C41.7929 51.0119 41.7991 50.9976 41.8075 50.9774C41.8153 50.9583 41.8287 50.9252 41.8449 50.8818C41.8596 50.8424 41.8867 50.7674 41.9164 50.6694L34.2597 48.3509ZM35.0763 46.5983C35.1876 46.395 35.2477 46.2825 35.2818 46.2153C35.3281 46.1242 35.2708 46.2245 35.2046 46.4142C35.1456 46.5835 34.9355 47.2127 35.0411 48.0576C35.1633 49.0365 35.625 49.6892 35.8408 49.9575L42.0748 44.9438C42.347 45.2823 42.8464 46.0014 42.9794 47.066C43.0956 47.9965 42.8693 48.7307 42.7589 49.0474C42.572 49.5834 42.2487 50.1567 42.0928 50.4413L35.0763 46.5983ZM35.9608 50.0998C36.6465 50.8755 37.4709 51.1863 38.0589 51.2961C38.6479 51.4061 39.527 51.4132 40.4442 50.9394L36.7728 43.8316C37.7962 43.3031 38.8105 43.2981 39.528 43.4321C40.2444 43.566 41.1903 43.9367 41.9548 44.8015L35.9608 50.0998Z" fill="black" mask="url(#path-6-inside-3_15_298)"/>
</g>
<path d="M46.1722 26.2836C43.0765 26.2181 40.0195 26.9083 37.2454 28.2813C35.7504 29.0295 32.9821 31.142 31.8654 32.3867C28.9664 35.6423 27.2631 39.7625 27.0841 43.9591C27.0131 45.7903 27.0821 46.843 27.3873 48.4904C28.3069 53.3158 31.1553 57.6507 35.2605 60.3964C41.17 64.3584 48.8667 64.6218 54.967 61.0824L55.8578 60.5576L60.0916 66.0876C63.8476 70.9904 64.3699 71.6353 64.7617 71.7701C65.672 72.057 66.5208 71.4093 66.4854 70.4548C66.4592 70.0409 65.9761 69.3662 62.2462 64.4434L58.0385 58.8936L58.78 58.1728C61.6676 55.3495 63.58 51.5037 64.1278 47.4388C65.3444 38.4109 59.9841 29.9388 51.3153 27.1526C50.1351 26.7825 47.33 26.2989 46.1722 26.2836ZM50.4761 29.6423C51.8043 30.044 53.5003 30.8471 54.6147 31.6186C58.8708 34.5488 61.3822 39.0376 61.6973 44.2623C61.7826 45.7158 61.4195 48.4104 60.9447 49.8471C58.7898 56.2748 53.1356 60.5894 46.3717 60.9676C44.8616 61.0455 42.1692 60.6826 40.7911 60.2155C35.078 58.2732 30.9841 53.6179 29.9225 47.8472C29.029 43.0019 30.4106 38.0528 33.6963 34.2749C34.6239 33.2157 37.2632 31.1914 38.5163 30.5864C42.3784 28.7034 46.3448 28.3938 50.4761 29.6423Z" fill="black"/>
<defs>
<clipPath id="clip0_15_298">
<rect width="17.5317" height="17.5451" fill="white" transform="translate(35.832 36.0703)"/>
</clipPath>
</defs>
</svg>
