<svg width="24" height="25" viewBox="0 0 24 25" fill="none" xmlns="http://www.w3.org/2000/svg">
<ellipse cx="12" cy="12.3062" rx="12" ry="12.2298" fill="#095FBA"/>
<ellipse cx="12" cy="12.3062" rx="12" ry="12.2298" fill="#095FBA"/>
<path d="M16.1532 7.60254H7.84555C7.47845 7.60296 7.1265 7.76078 6.86692 8.04137C6.60734 8.32195 6.46133 8.70239 6.46094 9.09919V15.5134C6.46133 15.9102 6.60734 16.2907 6.86692 16.5712C7.1265 16.8518 7.47845 17.0097 7.84555 17.0101H16.1532C16.5203 17.0097 16.8723 16.8518 17.1319 16.5712C17.3915 16.2907 17.5375 15.9102 17.5379 15.5134V9.09919C17.5375 8.70239 17.3915 8.32195 17.1319 8.04137C16.8723 7.76078 16.5203 7.60296 16.1532 7.60254ZM15.8026 10.0782L12.2422 13.0715C12.1728 13.1298 12.0873 13.1615 11.9994 13.1615C11.9115 13.1615 11.826 13.1298 11.7566 13.0715L8.19616 10.0782C8.15433 10.044 8.11919 10.0012 8.09279 9.95227C8.06639 9.90332 8.04925 9.84919 8.04238 9.79301C8.0355 9.73684 8.03902 9.67975 8.05273 9.62506C8.06645 9.57038 8.09008 9.51918 8.12225 9.47445C8.15443 9.42972 8.19451 9.39234 8.24016 9.3645C8.28582 9.33665 8.33614 9.3189 8.38819 9.31225C8.44025 9.30561 8.49301 9.31022 8.54341 9.32581C8.59381 9.3414 8.64084 9.36766 8.68176 9.40307L11.9994 12.1922L15.317 9.40307C15.4 9.33535 15.5043 9.30565 15.6073 9.32039C15.7104 9.33513 15.8039 9.39312 15.8678 9.48183C15.9316 9.57054 15.9605 9.68284 15.9483 9.79443C15.9361 9.90602 15.8838 10.008 15.8026 10.0782Z" fill="white"/>
</svg>
