<svg width="24" height="25" viewBox="0 0 24 25" fill="none" xmlns="http://www.w3.org/2000/svg">
<ellipse cx="12" cy="12.3062" rx="12" ry="12.2298" fill="#095FBA"/>
<path d="M9.43017 12.3484C9.96803 13.4804 10.8662 14.3934 11.9783 14.9387C12.0603 14.9783 12.1511 14.9954 12.2416 14.9884C12.3321 14.9814 12.4192 14.9505 12.4945 14.8987L14.1279 13.7867C14.2 13.7368 14.2834 13.7064 14.3703 13.6982C14.4571 13.6901 14.5445 13.7045 14.6244 13.7401L17.6822 15.0785C17.7867 15.1228 17.874 15.2009 17.9307 15.3008C17.9873 15.4007 18.0102 15.5168 17.9958 15.6312C17.8989 16.4021 17.5297 17.1106 16.9572 17.6241C16.3848 18.1377 15.6484 18.421 14.8858 18.4212C12.5291 18.4212 10.269 17.4671 8.60258 15.7688C6.93618 14.0705 6 11.7671 6 9.36527C6.00017 8.58806 6.27821 7.83754 6.7821 7.25414C7.28598 6.67075 7.98118 6.29446 8.7376 6.19569C8.84988 6.181 8.96378 6.20432 9.06177 6.26207C9.15976 6.31983 9.2364 6.40881 9.2799 6.51532L10.5932 9.63828C10.6273 9.71842 10.6416 9.80588 10.6348 9.89297C10.6279 9.98006 10.6002 10.0641 10.554 10.1377L9.46284 11.829C9.41426 11.9055 9.38575 11.9934 9.38003 12.0844C9.37431 12.1753 9.39157 12.2662 9.43017 12.3484V12.3484Z" stroke="white" stroke-linecap="round" stroke-linejoin="round"/>
</svg>
