<svg width="24" height="24" viewBox="0 0 24 24" fill="none" xmlns="http://www.w3.org/2000/svg">
<g clip-path="url(#clip0_0_2477)">
<path d="M13.1961 0.0328598C16.3414 0.370361 19.1914 1.87505 21.1977 4.26567C22.6086 5.9438 23.4852 7.84692 23.8742 10.0782C23.9633 10.5891 23.9727 10.8375 23.9727 12C23.9727 13.1625 23.9633 13.411 23.8742 13.9219C23.4336 16.4532 22.3742 18.5485 20.6258 20.3625C18.8305 22.2282 16.5664 23.4094 13.9227 23.8735C13.4117 23.9625 13.1633 23.9719 12.0008 23.9719C10.5336 23.9719 10.093 23.925 8.93985 23.6297C4.80547 22.561 1.43985 19.1954 0.371096 15.061C0.0757828 13.9079 0.0289078 13.4672 0.0289078 12C0.0289078 10.5329 0.0757828 10.0922 0.371096 8.93911C1.43985 4.80942 4.80547 1.43911 8.93985 0.370361C10.0039 0.0984859 10.5055 0.0375481 11.8133 0.0234852C12.4695 0.0141106 13.093 0.0187988 13.1961 0.0328598ZM13.6039 6.11724C13.3836 6.21099 8.34922 11.2219 8.16641 11.5313C7.99297 11.8219 7.99297 12.1782 8.16641 12.4688C8.34922 12.7782 13.3836 17.7891 13.6039 17.8829C13.9461 18.0235 14.4055 17.9438 14.668 17.7047C14.9305 17.461 15.0289 16.9594 14.8789 16.6032C14.832 16.486 14.1055 15.7266 12.5961 14.2125L10.3836 12L12.5961 9.78286C14.1055 8.27349 14.832 7.51411 14.8789 7.39692C15.0242 7.05474 14.9445 6.59536 14.7055 6.33286C14.4617 6.07036 13.9602 5.97192 13.6039 6.11724Z" fill="#095FBA"/>
</g>
<defs>
<clipPath id="clip0_0_2477">
<rect width="24" height="24" fill="white" transform="matrix(-1 0 0 1 24 0)"/>
</clipPath>
</defs>
</svg>
