<svg width="14" height="21" viewBox="0 0 14 21" fill="none" xmlns="http://www.w3.org/2000/svg">
<path d="M5.93831 0.506628C2.88091 0.996454 0.519787 3.45361 0.056898 6.6174C-0.0208984 7.13132 -0.0170086 8.20331 0.056898 8.74935C0.22416 9.9177 0.601473 11.0861 1.28219 12.5074C2.04849 14.1133 2.83812 15.3981 4.93862 18.4495C5.42485 19.1561 5.98888 19.9872 6.19504 20.2964C6.40509 20.6136 6.61903 20.8906 6.68515 20.9307C6.83297 21.0231 7.16749 21.0231 7.31531 20.9307C7.38143 20.8906 7.59537 20.6136 7.80542 20.2964C8.01158 19.9872 8.57561 19.1561 9.06184 18.4495C11.1623 15.3981 11.952 14.1133 12.7183 12.5074C13.399 11.082 13.7724 9.93376 13.9397 8.74935C14.0175 8.1993 14.0214 7.13533 13.9436 6.60937C13.4807 3.42952 11.104 0.980394 8.01936 0.502613C7.54869 0.426329 6.40509 0.430344 5.93831 0.506628ZM7.89489 1.74725C10.2443 2.1086 12.1698 4.00366 12.6988 6.46483C12.7377 6.65354 12.7727 7.03897 12.7844 7.48865C12.8 8.10695 12.7922 8.28361 12.7222 8.71321C12.5082 10.0181 11.9481 11.4715 10.999 13.1698C10.326 14.3783 9.53639 15.5989 7.82098 18.0881C7.40866 18.6824 7.05469 19.2003 7.03524 19.2324C7.00412 19.2846 6.99634 19.2846 6.96522 19.2324C6.94577 19.2003 6.5918 18.6824 6.17948 18.0881C4.46407 15.5989 3.67443 14.3783 3.00149 13.1698C2.05238 11.4715 1.49224 10.0181 1.2783 8.71321C1.20829 8.28361 1.20051 8.10695 1.21606 7.48865C1.22773 7.03897 1.26274 6.65354 1.30164 6.46483C1.69062 4.65409 2.84201 3.12037 4.4135 2.30935C5.5221 1.73922 6.65793 1.55855 7.89489 1.74725Z" fill="#008037"/>
<path d="M6.62368 4.15624C5.38283 4.48546 4.41427 5.49322 4.09919 6.77399C3.96694 7.31601 3.96694 8.02265 4.09919 8.56467C4.41816 9.85347 5.39061 10.8572 6.63924 11.1864C7.16437 11.3229 7.84898 11.3229 8.3741 11.1864C9.62274 10.8572 10.5952 9.85347 10.9142 8.56467C11.0464 8.02265 11.0464 7.31601 10.9142 6.77399C10.5952 5.48118 9.62663 4.48145 8.3741 4.15222C7.85287 4.01571 7.14103 4.01973 6.62368 4.15624ZM8.18739 5.40088C8.92646 5.63374 9.54105 6.30023 9.74332 7.08716C9.81723 7.3923 9.81723 7.94636 9.74332 8.2515C9.5994 8.81359 9.22209 9.34758 8.73975 9.67681C8.17961 10.0542 7.42888 10.1546 6.79873 9.92975C6.3903 9.78521 6.09467 9.58045 5.80293 9.25122C5.39839 8.79753 5.21168 8.29165 5.21168 7.64524C5.21168 6.28818 6.35529 5.19611 7.68172 5.29247C7.79063 5.3005 8.01624 5.34868 8.18739 5.40088Z" fill="#008037"/>
</svg>
