<svg width="96" height="96" viewBox="0 0 96 96" fill="none" xmlns="http://www.w3.org/2000/svg">
<circle cx="48" cy="48" r="48" fill="#095FBA" fill-opacity="0.08"/>
<path d="M26.5227 24.1059C25.9414 24.2561 25.3039 24.6503 24.9383 25.0727C24.4133 25.6639 24.2071 26.2552 24.0946 27.4566C23.7758 30.8541 25.0696 34.4769 27.5446 37.133L27.9571 37.5741L27.4414 38.2123C26.2883 39.6577 25.3977 41.2345 24.8446 42.8206C24.4977 43.7967 24.5164 44.1721 24.8914 44.5288C25.0602 44.679 25.2383 44.7446 25.5383 44.754C26.0914 44.7634 26.3727 44.5006 26.6352 43.6935C27.1696 42.0416 28.2571 40.2302 29.5321 38.8693C30.3852 37.9589 31.3039 37.2175 32.8133 36.2226C33.9195 35.4812 35.5602 33.9232 36.1133 33.0691C36.6383 32.2713 37.0883 31.314 37.3227 30.535C37.4914 29.9625 37.5289 29.5777 37.5477 28.3106C37.5664 26.5931 37.6133 26.4335 38.2883 26.0957C38.907 25.7859 39.7133 26.1426 39.9289 26.8184C40.0977 27.3533 40.1445 28.5077 40.0414 29.4275C39.6383 33.0315 37.4539 36.1851 33.657 38.6347C32.5883 39.3292 31.782 40.0144 31.0508 40.8684C27.6289 44.8667 27.5539 50.7889 30.8633 54.9091L31.4445 55.6318L31.2195 55.782C31.0977 55.8665 30.6758 56.1574 30.2914 56.439C29.8977 56.7112 29.5414 56.9552 29.4758 56.9833C29.3352 57.0396 28.3883 55.8195 27.7977 54.8153C27.3383 54.0269 26.7946 52.8349 26.5414 52.0278C26.3727 51.5022 26.0352 51.2394 25.5383 51.2488C25.2383 51.2582 25.0602 51.3239 24.8914 51.474C24.5164 51.8307 24.4977 52.2061 24.8446 53.1822C25.3883 54.759 26.2508 56.2888 27.3664 57.6966L27.9477 58.4287L27.3664 59.0575C25.0227 61.6198 23.7852 65.205 24.0946 68.5369C24.2539 70.2263 24.7508 71.0803 25.9133 71.6529C27.5446 72.4506 29.4571 71.803 30.2539 70.17C30.4977 69.6631 30.5164 69.5693 30.4977 68.4806L30.4883 67.3355H33.0664H35.6445L35.5789 68.2178C35.4852 69.4754 35.7102 70.2075 36.4133 70.9865C37.932 72.6477 40.7352 72.1972 41.6633 70.1418C42.2914 68.7621 42.1695 65.8339 41.382 63.5813C40.8008 61.8826 39.8633 60.3058 38.7195 59.0575L38.1477 58.4287L38.6352 57.8374C43.2945 52.2437 43.2945 43.7686 38.6258 38.156L38.157 37.5929L38.7289 36.9547C40.2758 35.2184 41.3633 33.0879 41.8227 30.8917C42.0852 29.6528 42.1133 27.3346 41.8789 26.4429C41.607 25.4293 41.0352 24.7254 40.1164 24.3124C38.2695 23.4677 36.2352 24.4063 35.6727 26.3585C35.5508 26.7808 35.532 27.0811 35.5789 27.7851L35.6445 28.6673H33.0664H30.4883L30.4977 27.5129C30.5164 26.4335 30.4977 26.3397 30.2539 25.8329C29.5696 24.4438 27.9852 23.7118 26.5227 24.1059ZM27.9946 26.1801C28.4914 26.4992 28.5383 26.7057 28.5571 28.3294C28.5664 29.5777 28.6039 29.9625 28.7727 30.5256C29.1477 31.7927 29.9258 33.1442 30.8914 34.1954L31.4164 34.7585L30.8258 35.1527C30.4977 35.3685 30.0477 35.697 29.8227 35.8847L29.4102 36.2132L28.9133 35.6689C27.7883 34.43 26.7289 32.5341 26.3446 31.0606C25.9227 29.4275 25.9133 27.0811 26.3258 26.5086C26.7196 25.9737 27.4602 25.8235 27.9946 26.1801ZM35.157 30.7133C35.157 30.9855 34.0133 32.5998 33.3945 33.2005L33.0289 33.5571L32.4852 32.9659C31.9227 32.3652 31.2008 31.3234 31.032 30.8823L30.9383 30.6382H33.0477C34.2102 30.6382 35.157 30.6758 35.157 30.7133ZM37.2945 39.6953C39.2164 42.1636 40.1539 44.9042 40.1539 48.0483C40.1445 52.6097 37.8945 56.7018 33.9383 59.3485C32.4289 60.3621 31.7633 60.8877 31.0039 61.6949C29.2133 63.6001 28.3883 65.7588 28.5383 68.1333C28.6039 69.0155 28.5946 69.1 28.3883 69.4003C27.8539 70.1981 26.8039 70.2263 26.2977 69.4567C26.0633 69.1 25.9508 67.7391 26.0633 66.6222C26.3164 64.182 27.3758 61.9576 29.2321 60.0055C30.1883 58.9918 30.9289 58.3912 32.4383 57.3775C35.5695 55.2752 37.2664 52.5346 37.6133 49.0151C37.9039 46.1712 37.0695 43.4025 35.2508 41.1125C34.9414 40.7183 34.6883 40.3804 34.6883 40.3522C34.6883 40.3335 34.8008 40.249 34.9508 40.1739C35.0914 40.0988 35.5227 39.8079 35.907 39.5169C36.2914 39.226 36.6383 38.9913 36.6758 38.9913C36.7133 38.9913 36.9852 39.3104 37.2945 39.6953ZM34.1258 42.9332C34.3133 43.2148 34.5852 43.6747 34.7258 43.9375L34.9695 44.4349H33.0383H31.1164L31.4727 43.7686C31.6695 43.4025 32.1008 42.7643 32.4289 42.342L33.0289 41.5817L33.4039 42.0041C33.6102 42.2293 33.9289 42.6517 34.1258 42.9332ZM35.6633 47.2224C35.7102 47.6823 35.7102 48.3205 35.6633 48.771L35.5789 49.55L33.0758 49.5782L30.5633 49.597L30.4977 49.3435C30.4039 49.0057 30.4039 46.9972 30.4977 46.6593L30.5633 46.4059L33.0758 46.4247L35.5789 46.4528L35.6633 47.2224ZM34.7258 52.056C34.4164 52.666 33.882 53.4544 33.3945 53.9987L33.0289 54.4211L32.4289 53.6609C32.1008 53.2385 31.6695 52.6003 31.4727 52.2343L31.1164 51.5679H33.0383H34.9695L34.7258 52.056ZM37.2664 60.4184C39.282 62.6709 40.3602 65.7588 40.0508 68.4055C39.9477 69.344 39.7883 69.635 39.2445 69.9072C38.832 70.1136 38.3914 70.0573 38.0164 69.757C37.5945 69.4285 37.5102 69.1 37.5664 67.9456C37.6789 65.6931 36.9102 63.6846 35.2602 61.8732L34.6883 61.2537L35.3164 60.822C35.6727 60.5968 36.1039 60.2776 36.282 60.1181C36.4602 59.9585 36.6383 59.8365 36.6758 59.8271C36.7133 59.8271 36.9758 60.0899 37.2664 60.4184ZM34.1727 63.6752C34.5477 64.1632 35.157 65.1675 35.157 65.2989C35.157 65.3364 34.2102 65.3646 33.0477 65.3646C30.6383 65.3646 30.807 65.4678 31.4445 64.4073C31.6602 64.06 32.1008 63.4781 32.4289 63.1121L33.0289 62.4363L33.3945 62.8023C33.6008 62.9994 33.9477 63.3936 34.1727 63.6752Z" fill="black"/>
<path d="M47.3719 24.7159C47.1 24.8191 46.7625 24.9787 46.6125 25.0913C46.1625 25.4104 45.5625 26.1143 45.3469 26.5836C45.15 27.0059 45.1406 27.128 45.1406 29.9812V32.9376L45.4125 33.4913C46.6969 36.1193 50.4281 36.1193 51.7125 33.4913L51.9844 32.9376V29.9812V27.0247L51.6937 26.4616C51.3375 25.7952 50.6062 25.0725 49.9875 24.791C49.35 24.5094 48.0375 24.4719 47.3719 24.7159ZM49.3125 26.715C50.0156 27.1937 50.0156 27.1843 50.0437 29.8967C50.0719 32.2806 50.0625 32.3369 49.8562 32.7123C49.275 33.7541 47.7844 33.7541 47.25 32.6936C47.0812 32.3651 47.0625 32.1398 47.0625 29.953C47.0625 27.6254 47.0719 27.5597 47.2781 27.25C47.775 26.5179 48.6656 26.2833 49.3125 26.715Z" fill="black"/>
<path d="M61.9969 24.7064C61.0687 25.0349 60.2062 25.8983 59.8875 26.8181C59.7469 27.2405 59.7281 27.6628 59.7188 29.9998C59.7188 32.5057 59.7281 32.731 59.9156 33.219C60.2906 34.2233 61.1812 35.0586 62.2031 35.3401C62.4094 35.4058 62.8781 35.4528 63.2344 35.4434C64.7906 35.434 66.1125 34.4298 66.5156 32.9562C66.6469 32.4588 66.6656 31.9708 66.6375 29.7464C66.6094 27.1278 66.6094 27.1185 66.3562 26.5835C66.0281 25.8702 65.4187 25.2414 64.7344 24.8847C64.2562 24.6407 64.05 24.5938 63.3281 24.5656C62.6812 24.5374 62.3719 24.575 61.9969 24.7064ZM63.9375 26.7149C64.6312 27.1935 64.6406 27.2029 64.6687 29.7276C64.6875 30.9759 64.6687 32.1397 64.6406 32.3086C64.5562 32.7591 64.0219 33.3129 63.5437 33.4443C63.0844 33.5663 62.6906 33.4912 62.2594 33.1815C61.725 32.7967 61.6875 32.5808 61.6875 29.9529C61.6875 27.6253 61.6969 27.5596 61.9031 27.2498C62.4 26.5178 63.2906 26.2831 63.9375 26.7149Z" fill="black"/>
<path d="M53.7857 24.9695C53.4482 25.3074 53.3825 25.6828 53.5982 26.1146C53.795 26.5181 54.1606 26.6871 54.8638 26.6871L55.3044 26.6965L55.3325 30.7322L55.3606 34.768L55.6231 35.0214C55.8294 35.2279 55.97 35.2842 56.3075 35.2842C56.6731 35.2842 56.7763 35.2373 57.0106 34.9745L57.2825 34.6741V29.972V25.2699L57.0106 24.9977L56.7388 24.7255H55.3794C54.0481 24.7255 54.02 24.7255 53.7857 24.9695Z" fill="black"/>
<path d="M68.5031 24.8287C68.2969 24.9507 68.0625 25.4013 68.0625 25.6828C68.0625 26.3023 68.6344 26.6964 69.5437 26.6964H69.9375V30.6853V34.6741L70.2094 34.9745C70.4437 35.2373 70.5469 35.2842 70.9219 35.2842C71.2969 35.2842 71.4 35.2373 71.6344 34.9745L71.9062 34.6741V30.0658C71.9062 25.1572 71.8969 25.0634 71.4469 24.8194C71.2125 24.6973 68.7187 24.6973 68.5031 24.8287Z" fill="black"/>
<path d="M47.5781 38.2687C46.6219 38.5878 45.8906 39.2073 45.4406 40.0707L45.1406 40.6339V43.5903V46.5467L45.3937 47.0817C46.2187 48.8556 48.3562 49.597 50.1375 48.7335C50.7375 48.4426 51.4312 47.7293 51.7312 47.0817L51.9844 46.5467V43.6372V40.7277L51.6844 40.1083C51.0937 38.9069 50.0344 38.2312 48.7031 38.1749C48.2531 38.1561 47.8031 38.203 47.5781 38.2687ZM49.3875 40.3711C49.5187 40.4649 49.7156 40.6714 49.8187 40.8122C50.0062 41.0562 50.0156 41.2158 50.0437 43.4964C50.0719 45.7771 50.0625 45.9461 49.8844 46.2933C49.6781 46.6969 49.2281 47.0254 48.7594 47.1192C48.3281 47.2037 47.6719 46.9315 47.3625 46.5186L47.1094 46.1901L47.0812 43.7874C47.0625 42.464 47.0719 41.2908 47.1094 41.1782C47.1844 40.8779 47.6156 40.3898 47.9531 40.2491C48.3281 40.0707 49.0781 40.1364 49.3875 40.3711Z" fill="black"/>
<path d="M67.4906 38.2972C66.5437 38.5882 65.6062 39.4892 65.2781 40.4465C65.1281 40.8501 65.1094 41.2818 65.1094 43.6845V46.4532L65.4 47.0633C65.7656 47.8423 66.3562 48.4242 67.125 48.7902C67.6594 49.0342 67.8375 49.0718 68.5312 49.0718C69.1312 49.0718 69.4594 49.0155 69.8625 48.8559C70.575 48.5837 71.325 47.8892 71.6719 47.1853L71.9531 46.6409L71.9812 43.769C72.0094 40.5591 71.9812 40.3714 71.3344 39.5173C70.4531 38.3723 68.8687 37.8655 67.4906 38.2972ZM69.3562 40.3714C69.7594 40.6718 70.0125 41.1223 70.0781 41.6666C70.1156 41.9388 70.125 43.0275 70.1062 44.0787C70.0687 46.1435 70.0219 46.3688 69.5156 46.7723C68.8969 47.251 68.1844 47.251 67.6219 46.7536C67.0594 46.2561 67.0312 46.106 67.0312 43.6094C67.0312 41.4789 67.0406 41.3569 67.2469 40.9627C67.6406 40.1743 68.6906 39.874 69.3562 40.3714Z" fill="black"/>
<path d="M53.7079 38.794C53.3329 39.1788 53.3235 39.7138 53.6985 40.1268C53.9329 40.3896 54.0266 40.4271 54.636 40.474L55.311 40.521V44.5473V48.5737L55.536 48.799C55.9579 49.2213 56.5391 49.2213 56.961 48.799L57.186 48.5737V43.7871V39.0099L56.8954 38.7659C56.6141 38.5312 56.5672 38.5218 55.2922 38.5218H53.9797L53.7079 38.794Z" fill="black"/>
<path d="M59.5782 38.7471C59.2969 39.0287 59.2032 39.3853 59.3063 39.7608C59.4376 40.2113 59.8126 40.4271 60.5157 40.4741L61.1251 40.5116V44.4911V48.4705L61.3969 48.7708C61.6313 49.0336 61.7344 49.0806 62.1001 49.0806C62.4376 49.0806 62.5782 49.0243 62.7844 48.8178L63.0469 48.5644L63.0751 43.9467C63.0938 40.5867 63.0657 39.254 62.9907 39.0569C62.7844 38.5688 62.6157 38.5219 61.1438 38.5219C59.8501 38.5219 59.7938 38.5313 59.5782 38.7471Z" fill="black"/>
<path d="M24.2437 47.3064C24.0469 47.5035 24 47.6443 24 48.0009C24 48.6203 24.3187 48.9395 24.9375 48.9395C25.5562 48.9395 25.875 48.6203 25.875 48.0009C25.875 47.3815 25.5562 47.0624 24.9375 47.0624C24.5812 47.0624 24.4406 47.1093 24.2437 47.3064Z" fill="black"/>
<path d="M52.6406 52.6099C49.4437 54.4401 49.4344 54.4495 49.3219 54.7686C49.2562 54.9563 49.2187 55.8949 49.2187 57.237V59.405L47.3344 60.4844C46.2937 61.0757 45.3656 61.6576 45.2719 61.789C45.1031 61.9954 45.0938 62.2019 45.0938 64.7548C45.0938 67.3546 45.1031 67.5141 45.2812 67.7394C45.3844 67.8708 46.4625 68.5465 47.6719 69.2504C49.3969 70.2453 49.95 70.5269 50.2125 70.5269C50.475 70.5269 50.9812 70.2828 52.3969 69.4757C53.4094 68.8938 54.2812 68.4057 54.3469 68.387C54.4125 68.3682 55.3031 68.8469 56.3344 69.4381C57.8062 70.2922 58.2844 70.5269 58.5562 70.5269C58.8281 70.5269 59.3156 70.2922 60.7781 69.4475C61.8 68.8562 62.6812 68.3682 62.7281 68.3682C62.775 68.3682 63.6562 68.8562 64.6875 69.4475C66.1406 70.2922 66.6281 70.5269 66.8906 70.5269C67.1625 70.5269 67.7062 70.2547 69.4593 69.2504C70.6781 68.5559 71.7468 67.8895 71.8406 67.7863C71.9812 67.6174 72 67.3264 72 64.7642C71.9906 62.5586 71.9625 61.9016 71.8687 61.7702C71.8031 61.6857 70.8843 61.1132 69.8343 60.5031L67.9218 59.3957L67.875 57.0305C67.8281 54.8249 67.8187 54.656 67.6406 54.487C67.2843 54.1492 63.1406 51.8309 62.8125 51.784C62.5312 51.7465 62.2312 51.8873 60.525 52.8727C59.4375 53.4922 58.5375 53.9802 58.5094 53.9708C56.2781 52.6569 54.7312 51.8216 54.4687 51.784C54.1875 51.7465 53.925 51.8685 52.6406 52.6099ZM55.9875 54.8155L57.5625 55.7259V57.5655L57.5531 59.405L55.9781 60.3061L54.3937 61.2164L52.8187 60.2967L51.2344 59.3769L51.2062 57.5655L51.1875 55.7447L52.7531 54.8343C53.625 54.3369 54.3469 53.9239 54.3656 53.9145C54.3937 53.9145 55.1156 54.3181 55.9875 54.8155ZM64.3312 54.8249L65.9062 55.7353L65.8875 57.5655L65.8593 59.405L64.2937 60.3061L62.7281 61.2164L61.1531 60.3061L59.5781 59.3957L59.55 57.5655L59.5312 55.7447L61.0969 54.8343C61.9687 54.3369 62.6906 53.9239 62.7094 53.9239C62.7281 53.9145 63.4594 54.3275 64.3312 54.8249ZM51.8625 62.0518L53.4375 62.9621V64.7642V66.5662L51.8812 67.4672C51.0281 67.9646 50.2781 68.3682 50.2125 68.3682C50.1562 68.3682 49.4344 67.974 48.6094 67.4953L47.1094 66.6225L47.0812 64.7829L47.0625 62.9434L48.5812 62.0518C49.425 61.5543 50.1469 61.1507 50.1937 61.1507C50.2406 61.1414 50.9906 61.5543 51.8625 62.0518ZM60.1969 62.0518L61.7812 62.9715V64.7735V66.5756L60.2062 67.4672C59.3437 67.9646 58.5937 68.3682 58.5469 68.3682C58.4906 68.3682 57.7781 67.974 56.9531 67.4953L55.4531 66.6225V64.7642V62.9058L56.9531 62.033C57.7781 61.5449 58.4906 61.1507 58.5281 61.1507C58.575 61.1414 59.325 61.5543 60.1969 62.0518ZM68.4843 62.0236L69.9843 62.8964L70.0031 64.7642L70.0312 66.6319L68.4656 67.5235L66.9 68.4151L65.325 67.5235L63.75 66.6319L63.7781 64.7642L63.7969 62.9058L65.2969 62.0236C66.1218 61.5449 66.8437 61.1507 66.8906 61.1507C66.9468 61.1507 67.6593 61.5449 68.4843 62.0236Z" fill="black"/>
</svg>
