<svg width="48" height="48" viewBox="0 0 48 48" fill="none" xmlns="http://www.w3.org/2000/svg">
<path d="M2.52268 0.106067C1.94143 0.256235 1.30393 0.650426 0.938306 1.07277C0.413306 1.66406 0.207056 2.25534 0.0945564 3.45669C-0.224193 6.85424 1.06956 10.477 3.54455 13.1331L3.95705 13.5743L3.44143 14.2125C2.2883 15.6578 1.39768 17.2346 0.844556 18.8207C0.497681 19.7968 0.516431 20.1723 0.891431 20.5289C1.06018 20.6791 1.23831 20.7448 1.5383 20.7542C2.09143 20.7635 2.37268 20.5007 2.63518 19.6936C3.16955 18.0417 4.25705 16.2303 5.53205 14.8695C6.38517 13.9591 7.30392 13.2176 8.8133 12.2227C9.91955 11.4813 11.5602 9.92329 12.1133 9.06921C12.6383 8.27145 13.0883 7.31413 13.3227 6.53513C13.4914 5.96262 13.5289 5.57781 13.5477 4.31077C13.5664 2.59322 13.6133 2.43367 14.2883 2.09579C14.907 1.78607 15.7133 2.14272 15.9289 2.81847C16.0977 3.35345 16.1445 4.50786 16.0414 5.42764C15.6383 9.03167 13.4539 12.1852 9.65705 14.6348C8.5883 15.3293 7.78205 16.0145 7.0508 16.8686C3.62893 20.8668 3.55393 26.789 6.8633 30.9093L7.44455 31.6319L7.21955 31.7821C7.09767 31.8666 6.6758 32.1575 6.29143 32.4391C5.89768 32.7113 5.54143 32.9553 5.4758 32.9835C5.33518 33.0398 4.3883 31.8197 3.79768 30.8154C3.3383 30.027 2.79455 28.8351 2.54143 28.0279C2.37268 27.5023 2.03518 27.2395 1.5383 27.2489C1.23831 27.2583 1.06018 27.324 0.891431 27.4742C0.516431 27.8308 0.497681 28.2062 0.844556 29.1823C1.38831 30.7591 2.2508 32.2889 3.36643 33.6968L3.94768 34.4288L3.36643 35.0577C1.02268 37.6199 -0.214818 41.2052 0.0945564 44.537C0.253931 46.2264 0.750806 47.0805 1.9133 47.653C3.54455 48.4508 5.45705 47.8032 6.25393 46.1701C6.49768 45.6633 6.51643 45.5694 6.49768 44.4807L6.4883 43.3357H9.06642H11.6445L11.5789 44.2179C11.4852 45.4756 11.7102 46.2076 12.4133 46.9866C13.932 48.6478 16.7352 48.1973 17.6633 46.1419C18.2914 44.7623 18.1695 41.834 17.382 39.5815C16.8008 37.8827 15.8633 36.3059 14.7195 35.0577L14.1477 34.4288L14.6352 33.8375C19.2945 28.2438 19.2945 19.7687 14.6258 14.1562L14.157 13.593L14.7289 12.9548C16.2758 11.2185 17.3633 9.08799 17.8227 6.89178C18.0852 5.65289 18.1133 3.33468 17.8789 2.44305C17.607 1.42942 17.0352 0.725509 16.1164 0.312547C14.2695 -0.532148 12.2352 0.406402 11.6727 2.35859C11.5508 2.78093 11.532 3.08127 11.5789 3.78518L11.6445 4.66741H9.06642H6.4883L6.49768 3.513C6.51643 2.43367 6.49768 2.33981 6.25393 1.833C5.56955 0.443943 3.98518 -0.288124 2.52268 0.106067ZM3.99455 2.18026C4.49143 2.49937 4.5383 2.70585 4.55705 4.32954C4.56643 5.57781 4.60393 5.96261 4.77268 6.52574C5.14768 7.79279 5.9258 9.1443 6.89142 10.1955L7.41642 10.7586L6.8258 11.1528C6.49768 11.3687 6.04768 11.6972 5.82268 11.8849L5.41018 12.2134L4.9133 11.669C3.7883 10.4301 2.72893 8.53424 2.34455 7.06072C1.92268 5.42764 1.9133 3.08127 2.3258 2.50875C2.71955 1.97378 3.46018 1.82361 3.99455 2.18026ZM11.157 6.71345C11.157 6.98563 10.0133 8.59994 9.39455 9.20061L9.02892 9.55726L8.48517 8.96597C7.92267 8.3653 7.2008 7.32351 7.03205 6.88239L6.9383 6.63837H9.04767C10.2102 6.63837 11.157 6.67591 11.157 6.71345ZM13.2945 15.6954C15.2164 18.1638 16.1539 20.9043 16.1539 24.0485C16.1445 28.6098 13.8945 32.7019 9.9383 35.3486C8.42892 36.3622 7.7633 36.8878 7.00392 37.695C5.2133 39.6002 4.3883 41.7589 4.5383 44.1334C4.60393 45.0157 4.59455 45.1001 4.3883 45.4005C3.85393 46.1982 2.80393 46.2264 2.29768 45.4568C2.0633 45.1001 1.9508 43.7392 2.0633 42.6224C2.31643 40.1821 3.3758 37.9578 5.23205 36.0056C6.1883 34.992 6.92892 34.3913 8.4383 33.3776C11.5695 31.2753 13.2664 28.5347 13.6133 25.0152C13.9039 22.1714 13.0695 19.4026 11.2508 17.1126C10.9414 16.7184 10.6883 16.3805 10.6883 16.3524C10.6883 16.3336 10.8008 16.2491 10.9508 16.174C11.0914 16.099 11.5227 15.808 11.907 15.5171C12.2914 15.2261 12.6383 14.9915 12.6758 14.9915C12.7133 14.9915 12.9852 15.3106 13.2945 15.6954ZM10.1258 18.9334C10.3133 19.2149 10.5852 19.6748 10.7258 19.9376L10.9695 20.4351H9.0383H7.11642L7.47267 19.7687C7.66955 19.4026 8.1008 18.7644 8.42892 18.3421L9.02892 17.5819L9.40392 18.0042C9.61017 18.2295 9.92892 18.6518 10.1258 18.9334ZM11.6633 23.2225C11.7102 23.6824 11.7102 24.3206 11.6633 24.7711L11.5789 25.5501L9.0758 25.5783L6.5633 25.5971L6.49768 25.3437C6.40393 25.0058 6.40393 22.9973 6.49768 22.6594L6.5633 22.406L9.0758 22.4248L11.5789 22.4529L11.6633 23.2225ZM10.7258 28.0561C10.4164 28.6661 9.88205 29.4545 9.39455 29.9989L9.02892 30.4212L8.42892 29.661C8.1008 29.2386 7.66955 28.6004 7.47267 28.2344L7.11642 27.568H9.0383H10.9695L10.7258 28.0561ZM13.2664 36.4185C15.282 38.6711 16.3602 41.7589 16.0508 44.4056C15.9477 45.3442 15.7883 45.6351 15.2445 45.9073C14.832 46.1138 14.3914 46.0575 14.0164 45.7571C13.5945 45.4286 13.5102 45.1001 13.5664 43.9457C13.6789 41.6932 12.9102 39.6847 11.2602 37.8733L10.6883 37.2539L11.3164 36.8221C11.6727 36.5969 12.1039 36.2778 12.282 36.1182C12.4602 35.9587 12.6383 35.8366 12.6758 35.8273C12.7133 35.8273 12.9758 36.0901 13.2664 36.4185ZM10.1727 39.6753C10.5477 40.1634 11.157 41.1676 11.157 41.299C11.157 41.3365 10.2102 41.3647 9.04767 41.3647C6.6383 41.3647 6.80705 41.4679 7.44455 40.4074C7.66017 40.0601 8.1008 39.4782 8.42892 39.1122L9.02892 38.4364L9.39455 38.8025C9.6008 38.9996 9.94767 39.3937 10.1727 39.6753Z" fill="black"/>
<path d="M23.3719 0.716499C23.1 0.81974 22.7625 0.979293 22.6125 1.09192C22.1625 1.41103 21.5625 2.11494 21.3469 2.58421C21.15 3.00656 21.1406 3.12857 21.1406 5.98176V8.93819L21.4125 9.49194C22.6969 12.1199 26.4281 12.1199 27.7125 9.49194L27.9844 8.93819V5.98176V3.02533L27.6937 2.4622C27.3375 1.79583 26.6062 1.07315 25.9875 0.791583C25.35 0.510019 24.0375 0.472477 23.3719 0.716499ZM25.3125 2.71561C26.0156 3.19427 26.0156 3.18488 26.0437 5.89729C26.0719 8.28121 26.0625 8.33752 25.8562 8.71294C25.275 9.75473 23.7844 9.75473 23.25 8.69417C23.0812 8.36568 23.0625 8.14043 23.0625 5.95361C23.0625 3.626 23.0719 3.5603 23.2781 3.25058C23.775 2.51851 24.6656 2.28388 25.3125 2.71561Z" fill="black"/>
<path d="M37.9969 0.706134C37.0687 1.03463 36.2062 1.89809 35.8875 2.81787C35.7469 3.24022 35.7281 3.66256 35.7188 5.99955C35.7188 8.50548 35.7281 8.73073 35.9156 9.21878C36.2906 10.223 37.1812 11.0583 38.2031 11.3399C38.4094 11.4056 38.8781 11.4525 39.2344 11.4431C40.7906 11.4338 42.1125 10.4295 42.5156 8.95598C42.6469 8.45855 42.6656 7.97051 42.6375 5.74614C42.6094 3.12759 42.6094 3.11821 42.3562 2.58323C42.0281 1.86994 41.4187 1.24111 40.7344 0.884459C40.2562 0.640436 40.05 0.593508 39.3281 0.565352C38.6812 0.537195 38.3719 0.574737 37.9969 0.706134ZM39.9375 2.71463C40.6312 3.19329 40.6406 3.20268 40.6687 5.72737C40.6875 6.97564 40.6687 8.13945 40.6406 8.30838C40.5562 8.75889 40.0219 9.31263 39.5437 9.44403C39.0844 9.56604 38.6906 9.49096 38.2594 9.18124C37.725 8.79643 37.6875 8.58056 37.6875 5.95263C37.6875 3.62502 37.6969 3.55932 37.9031 3.2496C38.4 2.51753 39.2906 2.2829 39.9375 2.71463Z" fill="black"/>
<path d="M29.7857 0.969642C29.4482 1.30752 29.3825 1.68294 29.5982 2.11467C29.795 2.51825 30.1606 2.68719 30.8638 2.68719L31.3044 2.69657L31.3325 6.73234L31.3606 10.7681L31.6231 11.0215C31.8294 11.228 31.97 11.2843 32.3075 11.2843C32.6731 11.2843 32.7763 11.2374 33.0106 10.9746L33.2825 10.6742V5.97211V1.26998L33.0106 0.997799L32.7388 0.725619H31.3794C30.0481 0.725619 30.02 0.725619 29.7857 0.969642Z" fill="black"/>
<path d="M44.5031 0.8289C44.2969 0.950911 44.0625 1.40142 44.0625 1.68298C44.0625 2.30242 44.6344 2.69661 45.5437 2.69661H45.9375V6.68545V10.6743L46.2094 10.9746C46.4437 11.2374 46.5469 11.2843 46.9219 11.2843C47.2969 11.2843 47.4 11.2374 47.6344 10.9746L47.9062 10.6743V6.06601C47.9062 1.15739 47.8969 1.06354 47.4469 0.819514C47.2125 0.697503 44.7187 0.697503 44.5031 0.8289Z" fill="black"/>
<path d="M23.5781 14.2685C22.6219 14.5876 21.8906 15.207 21.4406 16.0705L21.1406 16.6336V19.59V22.5465L21.3937 23.0815C22.2187 24.8553 24.3562 25.5968 26.1375 24.7333C26.7375 24.4423 27.4312 23.7291 27.7312 23.0815L27.9844 22.5465V19.637V16.7275L27.6844 16.108C27.0937 14.9067 26.0344 14.2309 24.7031 14.1746C24.2531 14.1558 23.8031 14.2028 23.5781 14.2685ZM25.3875 16.3708C25.5187 16.4647 25.7156 16.6712 25.8187 16.8119C26.0062 17.056 26.0156 17.2155 26.0437 19.4962C26.0719 21.7769 26.0625 21.9458 25.8844 22.2931C25.6781 22.6966 25.2281 23.0251 24.7594 23.119C24.3281 23.2035 23.6719 22.9313 23.3625 22.5183L23.1094 22.1898L23.0812 19.7871C23.0625 18.4638 23.0719 17.2906 23.1094 17.178C23.1844 16.8776 23.6156 16.3896 23.9531 16.2488C24.3281 16.0705 25.0781 16.1362 25.3875 16.3708Z" fill="black"/>
<path d="M43.4906 14.2977C42.5437 14.5887 41.6062 15.4897 41.2781 16.447C41.1281 16.8506 41.1094 17.2823 41.1094 19.685V22.4537L41.4 23.0638C41.7656 23.8428 42.3562 24.4247 43.125 24.7907C43.6594 25.0347 43.8375 25.0723 44.5312 25.0723C45.1312 25.0723 45.4594 25.016 45.8625 24.8564C46.575 24.5842 47.325 23.8897 47.6719 23.1858L47.9531 22.6414L47.9812 19.7695C48.0094 16.5596 47.9812 16.3719 47.3344 15.5178C46.4531 14.3728 44.8687 13.866 43.4906 14.2977ZM45.3562 16.3719C45.7594 16.6722 46.0125 17.1228 46.0781 17.6671C46.1156 17.9393 46.125 19.028 46.1062 20.0792C46.0687 22.144 46.0219 22.3692 45.5156 22.7728C44.8969 23.2515 44.1844 23.2515 43.6219 22.754C43.0594 22.2566 43.0312 22.1064 43.0312 19.6099C43.0312 17.4794 43.0406 17.3574 43.2469 16.9632C43.6406 16.1748 44.6906 15.8745 45.3562 16.3719Z" fill="black"/>
<path d="M29.7079 14.7945C29.3329 15.1793 29.3235 15.7143 29.6985 16.1273C29.9329 16.39 30.0266 16.4276 30.636 16.4745L31.311 16.5214V20.5478V24.5742L31.536 24.7995C31.9579 25.2218 32.5391 25.2218 32.961 24.7995L33.186 24.5742V19.7876V15.0104L32.8954 14.7664C32.6141 14.5317 32.5672 14.5223 31.2922 14.5223H29.9797L29.7079 14.7945Z" fill="black"/>
<path d="M35.5782 14.7476C35.2969 15.0292 35.2032 15.3858 35.3063 15.7613C35.4376 16.2118 35.8126 16.4276 36.5157 16.4746L37.1251 16.5121V20.4915V24.471L37.3969 24.7713C37.6313 25.0341 37.7344 25.0811 38.1001 25.0811C38.4376 25.0811 38.5782 25.0247 38.7844 24.8183L39.0469 24.5649L39.0751 19.9472C39.0938 16.5872 39.0657 15.2544 38.9907 15.0573C38.7844 14.5693 38.6157 14.5224 37.1438 14.5224C35.8501 14.5224 35.7938 14.5318 35.5782 14.7476Z" fill="black"/>
<path d="M0.24375 23.3065C0.0468749 23.5036 0 23.6444 0 24.0011C0 24.6205 0.31875 24.9396 0.937499 24.9396C1.55625 24.9396 1.875 24.6205 1.875 24.0011C1.875 23.3816 1.55625 23.0625 0.937499 23.0625C0.581249 23.0625 0.440624 23.1094 0.24375 23.3065Z" fill="black"/>
<path d="M28.6406 28.6104C25.4437 30.4406 25.4344 30.45 25.3219 30.7691C25.2562 30.9568 25.2187 31.8954 25.2187 33.2375V35.4055L23.3344 36.4849C22.2937 37.0761 21.3656 37.6581 21.2719 37.7894C21.1031 37.9959 21.0938 38.2024 21.0938 40.7553C21.0938 43.355 21.1031 43.5146 21.2812 43.7399C21.3844 43.8712 22.4625 44.547 23.6719 45.2509C25.3969 46.2458 25.95 46.5273 26.2125 46.5273C26.475 46.5273 26.9812 46.2833 28.3969 45.4762C29.4094 44.8943 30.2812 44.4062 30.3469 44.3875C30.4125 44.3687 31.3031 44.8473 32.3344 45.4386C33.8062 46.2927 34.2844 46.5273 34.5562 46.5273C34.8281 46.5273 35.3156 46.2927 36.7781 45.448C37.8 44.8567 38.6812 44.3687 38.7281 44.3687C38.775 44.3687 39.6562 44.8567 40.6875 45.448C42.1406 46.2927 42.6281 46.5273 42.8906 46.5273C43.1625 46.5273 43.7062 46.2552 45.4593 45.2509C46.6781 44.5564 47.7468 43.89 47.8406 43.7868C47.9812 43.6178 48 43.3269 48 40.7646C47.9906 38.5591 47.9625 37.9021 47.8687 37.7707C47.8031 37.6862 46.8843 37.1137 45.8343 36.5036L43.9218 35.3961L43.875 33.031C43.8281 30.8254 43.8187 30.6565 43.6406 30.4875C43.2843 30.1497 39.1406 27.8314 38.8125 27.7845C38.5312 27.747 38.2312 27.8877 36.525 28.8732C35.4375 29.4927 34.5375 29.9807 34.5094 29.9713C32.2781 28.6574 30.7312 27.8221 30.4687 27.7845C30.1875 27.747 29.925 27.869 28.6406 28.6104ZM31.9875 30.816L33.5625 31.7264V33.566L33.5531 35.4055L31.9781 36.3065L30.3937 37.2169L28.8187 36.2972L27.2344 35.3774L27.2062 33.566L27.1875 31.7452L28.7531 30.8348C29.625 30.3374 30.3469 29.9244 30.3656 29.915C30.3937 29.915 31.1156 30.3186 31.9875 30.816ZM40.3312 30.8254L41.9062 31.7358L41.8875 33.566L41.8593 35.4055L40.2937 36.3065L38.7281 37.2169L37.1531 36.3065L35.5781 35.3961L35.55 33.566L35.5312 31.7452L37.0969 30.8348C37.9687 30.3374 38.6906 29.9244 38.7094 29.9244C38.7281 29.915 39.4594 30.328 40.3312 30.8254ZM27.8625 38.0522L29.4375 38.9626V40.7646V42.5667L27.8812 43.4677C27.0281 43.9651 26.2781 44.3687 26.2125 44.3687C26.1562 44.3687 25.4344 43.9745 24.6094 43.4958L23.1094 42.623L23.0812 40.7834L23.0625 38.9439L24.5812 38.0522C25.425 37.5548 26.1469 37.1512 26.1937 37.1512C26.2406 37.1418 26.9906 37.5548 27.8625 38.0522ZM36.1969 38.0522L37.7812 38.972V40.774V42.5761L36.2062 43.4677C35.3437 43.9651 34.5937 44.3687 34.5469 44.3687C34.4906 44.3687 33.7781 43.9745 32.9531 43.4958L31.4531 42.623V40.7646V38.9063L32.9531 38.0335C33.7781 37.5454 34.4906 37.1512 34.5281 37.1512C34.575 37.1418 35.325 37.5548 36.1969 38.0522ZM44.4843 38.0241L45.9843 38.8969L46.0031 40.7646L46.0312 42.6324L44.4656 43.524L42.9 44.4156L41.325 43.524L39.75 42.6324L39.7781 40.7646L39.7969 38.9063L41.2968 38.0241C42.1218 37.5454 42.8437 37.1512 42.8906 37.1512C42.9468 37.1512 43.6593 37.5454 44.4843 38.0241Z" fill="black"/>
</svg>
