<svg width="27" height="36" viewBox="0 0 27 36" fill="none" xmlns="http://www.w3.org/2000/svg">
<path d="M17.3372 20.7025C18.717 22.3526 19.8669 23.7104 19.8885 23.7104C19.9101 23.7104 18.7889 22.3526 17.409 20.7025C16.0292 19.0439 14.8793 17.6946 14.8577 17.6946C14.8362 17.6946 15.9573 19.0439 17.3372 20.7025Z" fill="#EC6B15"/>
<path d="M17.3736 14.5573L14.8223 17.6082L17.3736 20.6591C18.775 22.3349 19.9465 23.71 19.9752 23.71C20.004 23.71 20.4855 23.392 21.0532 22.9967C21.621 22.6013 22.7709 21.8021 23.6045 21.2263C24.4885 20.6161 25.2575 20.0145 25.43 19.8083C26.4433 18.6051 26.4002 16.4652 25.3438 15.348C25.1569 15.1503 24.5604 14.6776 24.0142 14.3081C23.4608 13.93 22.3253 13.1479 21.4844 12.5635C20.6436 11.9791 19.9536 11.5065 19.9393 11.5065C19.9321 11.5065 18.775 12.8815 17.3736 14.5573Z" fill="#ECC115"/>
<path d="M12.1991 20.7625C10.7977 22.4556 7.6786 26.2111 5.26384 29.1073L0.879883 34.3755L1.05955 34.5473C1.41889 34.8911 2.00103 35.1661 2.49691 35.2091C3.43839 35.2864 2.84907 35.656 10.5461 30.2675C11.8326 29.3651 13.6437 28.1104 14.5708 27.4745C15.4979 26.8385 16.813 25.9361 17.4814 25.4721C18.157 25.008 18.9619 24.4494 19.2781 24.2431C19.5943 24.0283 19.8674 23.8392 19.889 23.822C19.9177 23.7876 14.851 17.6945 14.7864 17.6945C14.7648 17.6945 13.6005 19.0781 12.1991 20.7625Z" fill="#EC4040"/>
<path d="M1.9583 0.0858803C1.64927 0.189009 0.952148 0.704649 0.952148 0.824966C0.952148 0.87653 4.07122 4.67509 7.88023 9.27288L14.8083 17.6177L17.3524 14.584C18.7467 12.9167 19.8894 11.5245 19.8894 11.4901C19.8894 11.4558 19.6091 11.2409 19.2641 11.0089C18.912 10.7682 18.1143 10.2268 17.4818 9.78853C16.8494 9.35023 15.5701 8.47364 14.643 7.82909C13.7159 7.19313 12.3432 6.2392 11.5886 5.70637C6.39975 2.03672 3.84843 0.283543 3.5394 0.146038C3.15131 -0.0172482 2.33202 -0.0516243 1.9583 0.0858803Z" fill="#15EC6B"/>
<path d="M0.592926 1.27151C0.0539153 2.1481 0.0898493 1.21995 0.0898493 13.0109C0.0826625 18.8205 0.0970361 22.8081 0.104223 21.8628L0.125783 20.1526L3.25205 23.8824L6.37831 27.6122L6.14833 27.9216C6.01897 28.0848 7.57132 26.2457 9.598 23.8394C11.6247 21.4245 13.6154 19.0353 14.0107 18.5283L14.7366 17.6001L12.9111 15.3915C11.9122 14.1797 8.7787 10.4155 5.96147 7.0295L0.830091 0.86759L0.592926 1.27151Z" fill="#15C1EC"/>
<path d="M0.103254 22.696C0.031386 26.4 0.0457597 32.0119 0.124815 32.5963C0.196683 33.1464 0.390727 33.6706 0.656639 34.0659L0.836309 34.3237L3.17921 31.5307C4.47283 29.9923 5.71615 28.4798 5.94613 28.1704L6.37015 27.6118L3.25826 23.8906L0.146375 20.1694L0.103254 22.696Z" fill="#15ECEC"/>
</svg>
