<svg width="24" height="24" viewBox="0 0 24 24" fill="none" xmlns="http://www.w3.org/2000/svg">
<g clip-path="url(#clip0_0_3861)">
<path d="M10.8049 0.0327988C7.65957 0.3703 4.80957 1.87499 2.80332 4.26561C1.39238 5.94374 0.51582 7.84686 0.126758 10.0781C0.0376953 10.589 0.0283203 10.8375 0.0283203 12C0.0283203 13.1625 0.0376953 13.4109 0.126758 13.9219C0.567383 16.4531 1.62676 18.5484 3.3752 20.3625C5.17051 22.2281 7.43457 23.4094 10.0783 23.8734C10.5893 23.9625 10.8377 23.9719 12.0002 23.9719C13.4674 23.9719 13.908 23.925 15.0611 23.6297C19.1955 22.5609 22.5611 19.1953 23.6299 15.0609C23.9252 13.9078 23.9721 13.4672 23.9721 12C23.9721 10.5328 23.9252 10.0922 23.6299 8.93905C22.5611 4.80936 19.1955 1.43905 15.0611 0.3703C13.9971 0.0984249 13.4955 0.037487 12.1877 0.0234241C11.5314 0.0140495 10.908 0.0187378 10.8049 0.0327988ZM10.3971 6.11717C10.6174 6.21092 15.6518 11.2219 15.8346 11.5312C16.008 11.8219 16.008 12.1781 15.8346 12.4687C15.6518 12.7781 10.6174 17.7891 10.3971 17.8828C10.0549 18.0234 9.59551 17.9437 9.33301 17.7047C9.07051 17.4609 8.97207 16.9594 9.12207 16.6031C9.16894 16.4859 9.89551 15.7266 11.4049 14.2125L13.6174 12L11.4049 9.7828C9.89551 8.27343 9.16894 7.51405 9.12207 7.39686C8.97676 7.05467 9.05645 6.5953 9.29551 6.3328C9.53926 6.0703 10.0408 5.97186 10.3971 6.11717Z" fill="#095FBA"/>
</g>
<defs>
<clipPath id="clip0_0_3861">
<rect width="24" height="24" fill="white"/>
</clipPath>
</defs>
</svg>
