<svg width="48" height="48" viewBox="0 0 48 48" fill="none" xmlns="http://www.w3.org/2000/svg">
<path d="M21.316 0.185375C20.2671 0.547839 19.277 1.36094 18.8359 2.22301C18.385 3.11448 18.3066 3.63369 18.3458 5.63214L18.3752 7.51304L18.7477 8.25756C19.0026 8.78656 19.277 9.15882 19.6985 9.55068L20.2867 10.0895L20.1887 10.9418C20.1299 11.4708 20.1299 11.8528 20.1887 11.9606C20.3847 12.3328 21.0905 12.2839 21.2082 11.892C21.3062 11.5491 21.4728 9.69762 21.414 9.52129C21.3846 9.42333 21.1493 9.20781 20.8749 9.03147C20.1985 8.59064 19.6495 7.74815 19.5025 6.88607C19.3358 5.97501 19.4241 3.83941 19.6495 3.21244C19.875 2.57568 20.6592 1.74299 21.3454 1.40992C21.8551 1.15521 21.9924 1.13562 23.0315 1.13562C24.1098 1.13562 24.1882 1.14542 24.8156 1.4589C25.5998 1.84096 26.1781 2.45813 26.4624 3.20265C26.629 3.66308 26.6585 3.96676 26.6585 5.34805C26.6585 6.74892 26.629 7.03302 26.4526 7.51304C26.2369 8.07143 25.6096 8.81595 24.943 9.27638L24.6587 9.4821L24.7665 10.6675C24.845 11.6373 24.9136 11.9214 25.1194 12.2741C25.541 12.999 25.8546 13.1068 28.2955 13.381C31.0991 13.7043 32.0695 13.8317 35.873 14.4195C39.598 14.9876 39.7156 15.017 39.9803 15.3599C40.245 15.6832 40.2352 15.9967 39.9803 16.5453C39.5294 17.4759 38.5197 18.1323 37.5591 18.1323C37.265 18.1323 35.3534 17.9363 33.3047 17.6914C29.3052 17.2212 28.8249 17.182 28.6386 17.3682C28.5504 17.4563 28.521 18.0931 28.521 19.6115C28.521 21.414 28.5406 21.7667 28.6778 21.8941C28.8739 22.09 29.0993 22.09 29.3836 21.8941C29.5895 21.7471 29.5993 21.6883 29.5993 20.0817C29.5993 18.7494 29.6287 18.4262 29.7365 18.4262C29.8051 18.4262 31.5598 18.6319 33.6282 18.8768C37.6277 19.347 38.01 19.3568 38.9608 19.0041C40.1862 18.5437 41.2939 17.0645 41.2939 15.8889C41.2939 14.7917 40.7057 14.1158 39.549 13.8709C37.6473 13.4888 31.1873 12.5484 27.9818 12.2055C27.178 12.1173 26.4428 11.9998 26.3448 11.9508C26.0801 11.8038 25.9821 11.5491 25.9135 10.8046L25.8448 10.1189L26.4526 9.53109C27.1192 8.88453 27.5701 8.05184 27.7368 7.17017C27.8642 6.49422 27.8642 4.21167 27.7368 3.53572C27.4329 1.93892 26.3154 0.675192 24.8057 0.204967C23.9725 -0.0595338 22.0414 -0.0693301 21.316 0.185375Z" fill="black"/>
<path d="M0.152963 1.83131C-0.0234856 1.99785 -0.0528936 2.33092 0.0941467 2.55624C0.172568 2.68359 0.878362 2.71298 5.11313 2.75217C9.92625 2.80115 10.0537 2.81094 10.436 3.01667C10.6516 3.12443 10.9261 3.33015 11.0438 3.4575C11.1614 3.57506 12.7788 5.6029 14.6511 7.94423L18.0429 12.2056L17.0332 12.333C12.6024 12.8718 6.29925 13.8514 5.89734 14.0571C5.50523 14.2629 5.0347 14.8115 4.89747 15.2425C4.51516 16.4083 5.45622 18.152 6.8286 18.8574C7.87748 19.3766 8.15196 19.3864 12.4749 18.8769C14.6315 18.6222 16.396 18.4263 16.4156 18.4459C16.4352 18.4655 16.4842 19.9154 16.5137 21.6591L16.5725 24.8429L13.7199 27.4879C12.1515 28.9378 10.8477 30.2309 10.8183 30.3485C10.7105 30.7697 11.2398 31.2007 11.6025 30.995C11.9456 30.7991 20.9641 22.2861 21.0131 22.1097C21.1111 21.7179 20.67 21.2966 20.2975 21.4436C20.1897 21.4828 19.5427 22.0314 18.8663 22.6681L17.641 23.8241V20.7285C17.641 18.779 17.6018 17.5642 17.5429 17.4369C17.3959 17.1724 17.092 17.1822 12.818 17.6916C8.6715 18.1814 8.35782 18.201 7.71084 17.9757C6.43649 17.5446 5.53464 15.8891 6.22083 15.2523C6.42669 15.0564 6.76978 14.978 8.34801 14.7233C11.3967 14.2237 14.014 13.8416 16.2196 13.5771C17.3567 13.4498 18.4154 13.3126 18.582 13.293C18.8467 13.2538 18.9349 13.3028 19.2388 13.7045C19.4349 13.9592 19.6799 14.2629 19.7976 14.3804C20.1799 14.7919 20.7778 14.5862 20.7778 14.0376C20.7778 13.8416 19.6799 12.4016 16.2882 8.14016C12.3475 3.193 11.7397 2.46807 11.2692 2.18398C10.9751 2.00764 10.5732 1.82151 10.387 1.77253C10.1811 1.71375 8.03433 1.67457 5.17194 1.67457C0.878362 1.67457 0.290201 1.69416 0.152963 1.83131Z" fill="black"/>
<path d="M0.132269 4.85822C-0.0735875 5.1815 0.0244394 5.57335 0.347928 5.69091C0.740036 5.84765 8.41554 5.81826 8.71943 5.66152C9.02331 5.50478 9.10173 5.06394 8.85666 4.79944C8.69982 4.62311 8.50377 4.61331 4.49447 4.61331H0.289112L0.132269 4.85822Z" fill="black"/>
<path d="M0.133804 7.8954C-0.0818556 8.22847 0.025974 8.61053 0.369068 8.73788C0.516109 8.79666 1.19249 8.82605 1.9375 8.80646C3.18244 8.77707 3.26086 8.76727 3.43731 8.54195C3.64317 8.28725 3.61376 7.97377 3.34909 7.76804C3.24126 7.68967 2.75112 7.65049 1.74145 7.65049C0.310252 7.65049 0.290647 7.65049 0.133804 7.8954Z" fill="black"/>
<path d="M5.72028 7.90442C5.50462 8.2277 5.63205 8.63915 5.97515 8.73711C6.41627 8.86446 8.45523 8.83507 8.7199 8.69793C9.02378 8.54118 9.1022 8.10035 8.85714 7.83585C8.7101 7.66931 8.54345 7.64972 7.28871 7.64972C5.88692 7.64972 5.87712 7.64972 5.72028 7.90442Z" fill="black"/>
<path d="M44.5018 20.0817C43.4137 20.4148 42.7471 21.3356 42.7373 22.5014C42.7373 23.1675 42.8647 23.6182 43.1588 24.0492C43.2961 24.2353 43.3549 24.4607 43.3353 24.7056C43.3059 25.2248 43.5509 25.6362 44.0313 25.8811C44.6194 26.1848 45.0998 26.0966 45.6193 25.597C45.835 25.3815 46.1977 25.1268 46.4035 25.0484C47.6387 24.539 48.2072 23.4418 47.9327 22.1193C47.7857 21.3748 47.3152 20.7087 46.6584 20.307C46.1879 20.0327 46.0506 19.9935 45.433 20.0033C45.0605 20.0033 44.639 20.0425 44.5018 20.0817ZM46.08 21.2964C46.4819 21.5609 46.8544 22.2565 46.8544 22.7365C46.8544 23.2753 46.5506 23.6672 45.8546 24.0198C45.5115 24.1864 45.1194 24.4313 44.9723 24.5684C44.6684 24.8525 44.5018 24.7937 44.5018 24.4019C44.5018 24.2451 44.3449 23.8141 44.1489 23.4418C43.845 22.8541 43.8058 22.7071 43.8646 22.3544C44.0411 21.3258 45.2566 20.7478 46.08 21.2964Z" fill="black"/>
<path d="M37.6393 20.8361C36.3845 21.3749 35.9826 23.1481 36.8747 24.1669C37.306 24.6567 37.6883 24.8232 38.3745 24.8232C39.639 24.8232 40.6193 23.8632 40.6095 22.6289C40.5997 21.9921 40.4232 21.61 39.9527 21.1888C39.3743 20.6892 38.3451 20.5324 37.6393 20.8361ZM39.2469 22.1586C39.3841 22.3252 39.5018 22.5701 39.5018 22.7072C39.5018 23.0403 38.8254 23.7163 38.4921 23.7163C37.7079 23.7163 37.306 22.9815 37.6883 22.2468C37.8647 21.9137 37.953 21.8745 38.5411 21.8647C38.9332 21.855 39.0313 21.8941 39.2469 22.1586Z" fill="black"/>
<path d="M26.2673 22.4329C26.1203 22.717 26.1497 22.9815 26.3457 23.148C26.434 23.2264 26.9437 23.5007 27.4731 23.7456L28.4239 24.1962V31.7296C28.4239 35.8735 28.3945 40.8598 28.3553 42.8191C28.2965 46.2968 28.2867 46.3752 28.0808 46.6201C27.7867 46.9531 27.3456 46.9531 26.6496 46.6103C25.8556 46.2282 25.3361 45.7286 24.993 45.0429L24.6891 44.4257L24.5519 37.627C24.4636 33.8162 24.3558 30.6618 24.3068 30.4561C24.1499 29.9173 23.7186 29.594 23.1109 29.594C22.5423 29.594 22.1502 29.79 21.9051 30.2112C21.7483 30.4659 21.7189 31.1027 21.6012 36.6866C21.4346 44.8273 21.4542 44.4257 21.1503 45.0233C21.0033 45.2878 20.6994 45.6992 20.4641 45.9245C20.072 46.3066 18.9349 46.9336 18.6408 46.9336C18.3762 46.9336 17.9546 46.6397 17.8566 46.3752C17.788 46.189 17.739 43.1522 17.7194 36.7552C17.6802 27.7033 17.6802 27.4192 17.4939 27.2821C17.2488 27.096 16.9058 27.1058 16.7195 27.3017C16.5823 27.4388 16.5627 28.154 16.5725 33.7869C16.5823 37.2744 16.6117 41.6239 16.6509 43.4656C16.7097 46.7866 16.7097 46.8062 16.945 47.1491C17.3763 47.7662 17.7684 47.9622 18.6114 47.9622C19.2584 47.9622 19.4446 47.9132 20.0132 47.6389C20.9249 47.1981 21.7777 46.385 22.16 45.611C22.5619 44.7882 22.6011 44.2494 22.7384 36.7454C22.807 33.444 22.8952 30.7794 22.9442 30.7206C23.2383 30.4169 23.2677 30.8871 23.3951 37.3625C23.4638 40.9284 23.5618 44.1318 23.6108 44.4649C23.6598 44.8077 23.8265 45.3367 23.9637 45.6306C24.7773 47.2764 27.1594 48.4618 28.3945 47.825C28.8944 47.5801 29.2768 47.1295 29.3944 46.6593C29.4434 46.4535 29.512 41.6043 29.5414 35.5796C29.5806 29.6822 29.6198 24.833 29.6493 24.8134C29.6689 24.784 30.9138 25.3326 32.4038 26.0184C35.0015 27.2233 35.129 27.2723 35.374 27.1351C35.6975 26.9588 35.7661 26.469 35.5113 26.2535C35.1584 25.9498 26.9927 22.2468 26.679 22.2468C26.4732 22.2468 26.3359 22.3153 26.2673 22.4329Z" fill="black"/>
<path d="M1.60337 24.4508C1.42692 24.7251 1.46613 25.3227 1.721 26.2631C2.01509 27.3015 2.76989 28.291 3.81878 28.9865L4.37753 29.3588L3.97562 29.5939C3.43648 29.9074 2.61305 30.7009 2.26015 31.2495C1.31909 32.7189 1.27008 34.9623 2.13272 36.4513C2.47581 37.0391 3.24042 37.8424 3.82858 38.2245L4.30892 38.5282L3.72075 38.92C2.53463 39.7037 1.76022 40.9381 1.55436 42.3487C1.45633 43.0149 1.46613 43.1422 1.60337 43.3578C1.7112 43.5243 1.85824 43.6027 2.0543 43.6027C2.4464 43.6027 2.64246 43.3675 2.64246 42.8875C2.64246 42.6622 2.68167 42.4271 2.72088 42.3585C2.76989 42.2704 3.47569 42.2312 5.26958 42.2116C7.34775 42.1822 7.75946 42.1626 7.83789 42.0352C7.97512 41.8197 7.95552 41.2809 7.81828 41.183C7.74966 41.1438 6.68117 41.085 5.43623 41.0556L3.18161 41.0066L3.71095 40.4384C4.08345 40.0466 4.47556 39.7625 5.01471 39.4882C5.77932 39.1061 5.79893 39.1061 6.15182 39.2531C7.74966 39.9094 8.72013 41.0556 8.93579 42.5251C9.08283 43.4851 9.15145 43.6027 9.54355 43.6027C10.0043 43.6027 10.1219 43.4067 10.1023 42.721C10.0631 41.4377 9.36711 40.0466 8.33782 39.2237C7.78887 38.7829 6.35768 38.0187 6.0832 38.0187C5.74011 38.0187 4.29911 37.2056 3.81878 36.7452C3.33845 36.2848 2.84831 35.4031 2.70127 34.7566L2.64246 34.4921H5.81853H8.9946L8.87697 34.9525L8.75934 35.4227L6.63215 35.4717C5.16175 35.5011 4.47556 35.5599 4.39714 35.6382C4.2403 35.795 4.2403 36.324 4.39714 36.4807C4.47556 36.5591 5.04412 36.6081 6.18123 36.6277L7.84769 36.6571L7.5438 36.9999C7.38696 37.1861 7.24972 37.4212 7.24972 37.5093C7.24972 37.8228 7.49479 38.0481 7.82808 38.0481C8.45546 38.0481 9.67099 36.5101 9.98468 35.2954C10.1317 34.7468 10.1317 33.2773 9.98468 32.6699C9.7004 31.5238 8.89658 30.407 7.83789 29.7212L7.26933 29.3392L7.80848 29.0061C9.05342 28.2224 9.92586 26.8509 10.0729 25.45C10.1709 24.5292 10.0827 24.2647 9.64158 24.2255C9.25928 24.1863 9.01421 24.4116 9.01421 24.7839C9.01421 24.9406 8.9848 25.2051 8.95539 25.3717L8.89658 25.6754H5.82833H2.76009L2.70127 25.45C2.67187 25.3325 2.64246 25.0778 2.64246 24.8819C2.64246 24.2451 1.93666 23.9414 1.60337 24.4508ZM8.33782 26.9391C8.14177 27.3015 7.12229 28.1244 6.49492 28.4281C5.86754 28.7318 5.85774 28.7318 5.44603 28.5751C5.21076 28.4869 4.81866 28.2812 4.57359 28.1244C4.11286 27.8403 3.23062 26.9881 3.23062 26.8313C3.23062 26.7921 4.39714 26.753 5.82833 26.753C8.33782 26.753 8.42605 26.7627 8.33782 26.9391ZM6.57334 30.2992C7.45558 30.7401 8.42605 31.7197 8.70052 32.4642C9.09263 33.5026 9.36711 33.4145 5.78912 33.4145H2.66206L2.75029 33.003C2.8091 32.7777 2.86792 32.5622 2.89733 32.5132C2.92674 32.474 3.84819 32.4348 4.95589 32.4348C6.15182 32.4348 7.04387 32.3956 7.1615 32.3369C7.37716 32.2193 7.42617 31.6707 7.23012 31.4748C7.1517 31.3964 6.60275 31.3572 5.39701 31.3572H3.68154L4.02464 31.0046C4.33832 30.6813 5.56366 29.9857 5.82833 29.9857C5.88715 29.9857 6.23024 30.1229 6.57334 30.2992Z" fill="black"/>
<path d="M39.5012 26.2146C38.1778 26.5869 37.1485 27.3706 36.7074 28.3502C36.3937 29.036 36.2369 30.0058 36.3055 30.7209C36.3545 31.1716 36.3251 31.3871 36.1879 31.6418C35.933 32.1512 35.786 32.2002 35.139 31.9944C33.5411 31.4948 32.2178 32.5626 32.2178 34.3456C32.2178 35.7562 33.0902 36.8338 34.4136 37.0788C35.5605 37.2845 36.8741 36.393 37.1583 35.2272C37.3152 34.5611 37.3642 34.4729 37.6779 34.3652C37.8837 34.2966 38.1092 34.326 38.5993 34.4827C39.0797 34.6493 39.4522 34.6982 40.0501 34.6786C40.7657 34.6591 40.8834 34.6884 41.1774 34.904C41.5401 35.1685 42.0597 35.3742 42.3832 35.3742C43.5007 35.3742 44.4417 34.2966 44.2653 33.2092C44.2261 32.9349 44.2751 32.7096 44.4809 32.2785C44.7162 31.7593 44.7456 31.5928 44.7456 30.623C44.7456 29.5454 44.7456 29.5454 44.3143 28.6637C43.7555 27.5273 42.9517 26.6848 42.1087 26.3713C41.3441 26.0873 40.207 26.0187 39.5012 26.2146ZM41.5009 27.351C41.9518 27.4783 42.7263 28.1739 43.0694 28.7519C43.1968 28.9772 43.4026 29.4474 43.5203 29.7903C43.7948 30.5838 43.7359 31.1422 43.3242 31.9944C43.0596 32.543 43.0301 32.6704 43.089 33.1602C43.1478 33.6598 43.1282 33.7382 42.9321 33.9537C42.6086 34.2966 42.2459 34.2672 41.746 33.846L41.3147 33.4933L40.4716 33.5619C39.756 33.6108 39.5404 33.5913 39.0503 33.4247C37.9425 33.0329 36.776 33.2484 36.3643 33.9243C36.2663 34.1007 36.1487 34.4337 36.1094 34.6689C35.9624 35.6289 34.9821 36.2167 34.2077 35.815C33.2961 35.3448 33.0412 34.0321 33.7176 33.317C33.9823 33.0329 34.0509 33.0133 34.4234 33.0525C34.6586 33.0818 35.0311 33.1602 35.2566 33.2288C35.786 33.3855 36.2957 33.2484 36.7466 32.8075C37.3152 32.2492 37.4426 31.8769 37.4426 30.7307C37.4426 29.5943 37.5896 28.9772 38.0014 28.4384C38.6974 27.5175 40.305 27.0179 41.5009 27.351Z" fill="black"/>
<path d="M38.9131 28.4183C38.6778 28.6534 38.668 28.8885 38.8739 29.1824C39.1876 29.6331 39.9914 29.349 39.9914 28.7906C39.9914 28.5359 39.6385 28.2224 39.3542 28.2224C39.217 28.2224 39.0209 28.3106 38.9131 28.4183Z" fill="black"/>
<path d="M40.3339 29.7114C39.3732 30.2405 38.8537 31.6217 39.3634 32.3173C39.6771 32.7483 40.3339 33.0226 41.0299 33.0226C41.4906 33.0226 41.7063 32.9736 41.9513 32.7973C42.5101 32.425 42.6767 32.1116 42.716 31.3768C42.7454 30.8086 42.716 30.6715 42.5199 30.3776C42.1474 29.829 41.7161 29.5939 41.0789 29.5939C40.775 29.5939 40.4417 29.6527 40.3339 29.7114ZM41.4514 30.9262C41.7063 31.2495 41.7063 31.367 41.4514 31.7001C41.2652 31.9254 41.1965 31.9548 40.8829 31.896C40.1967 31.7687 40.1182 31.5042 40.6182 31.0046C41.0201 30.6029 41.1867 30.5931 41.4514 30.9262Z" fill="black"/>
<path d="M43.9909 36.0497C43.0989 36.3436 42.6381 36.9804 42.5695 38.009C42.5107 38.8221 42.7754 39.3903 43.4027 39.8311C43.7752 40.0858 43.9125 40.125 44.481 40.125C44.9614 40.1152 45.2457 40.0564 45.5495 39.8997C47.0199 39.1258 47.167 37.0881 45.8142 36.2946C45.3437 36.0203 44.4614 35.9028 43.9909 36.0497ZM45.1966 37.2351C45.2947 37.2939 45.4515 37.4702 45.5299 37.6269C45.6574 37.8816 45.6672 37.96 45.5397 38.2441C45.2555 38.9396 44.5006 39.2041 43.9909 38.8025C43.8537 38.6947 43.7164 38.4988 43.687 38.3519C43.6184 37.9796 43.785 37.4604 44.0399 37.2841C44.285 37.1175 44.9124 37.0881 45.1966 37.2351Z" fill="black"/>
</svg>
