<svg width="96" height="96" viewBox="0 0 96 96" fill="none" xmlns="http://www.w3.org/2000/svg">
<circle cx="48" cy="48" r="48" fill="#095FBA" fill-opacity="0.08"/>
<path d="M45.316 24.1849C44.2671 24.5474 43.277 25.3604 42.8359 26.2225C42.385 27.114 42.3066 27.6332 42.3458 29.6317L42.3752 31.5126L42.7477 32.2571C43.0026 32.7861 43.277 33.1583 43.6985 33.5502L44.2867 34.089L44.1887 34.9413C44.1299 35.4703 44.1299 35.8523 44.1887 35.9601C44.3847 36.3324 45.0905 36.2834 45.2082 35.8915C45.3062 35.5486 45.4728 33.6971 45.414 33.5208C45.3846 33.4228 45.1493 33.2073 44.8749 33.031C44.1985 32.5901 43.6495 31.7477 43.5025 30.8856C43.3358 29.9745 43.4241 27.8389 43.6495 27.212C43.875 26.5752 44.6592 25.7425 45.3454 25.4094C45.8551 25.1547 45.9924 25.1351 47.0315 25.1351C48.1098 25.1351 48.1882 25.1449 48.8156 25.4584C49.5998 25.8405 50.1781 26.4576 50.4624 27.2022C50.629 27.6626 50.6585 27.9663 50.6585 29.3476C50.6585 30.7484 50.629 31.0325 50.4526 31.5126C50.2369 32.0709 49.6096 32.8155 48.943 33.2759L48.6587 33.4816L48.7665 34.667C48.845 35.6368 48.9136 35.9209 49.1194 36.2736C49.541 36.9985 49.8546 37.1063 52.2955 37.3806C55.0991 37.7038 56.0695 37.8312 59.873 38.419C63.598 38.9872 63.7156 39.0165 63.9803 39.3594C64.245 39.6827 64.2352 39.9962 63.9803 40.5448C63.5294 41.4754 62.5197 42.1318 61.5591 42.1318C61.265 42.1318 59.3534 41.9359 57.3047 41.691C53.3052 41.2207 52.8249 41.1815 52.6386 41.3677C52.5504 41.4558 52.521 42.0926 52.521 43.611C52.521 45.4136 52.5406 45.7662 52.6778 45.8936C52.8739 46.0895 53.0993 46.0895 53.3836 45.8936C53.5895 45.7466 53.5993 45.6879 53.5993 44.0813C53.5993 42.749 53.6287 42.4257 53.7365 42.4257C53.8051 42.4257 55.5598 42.6314 57.6282 42.8763C61.6277 43.3465 62.01 43.3563 62.9608 43.0037C64.1862 42.5432 65.2939 41.064 65.2939 39.8884C65.2939 38.7912 64.7057 38.1153 63.549 37.8704C61.6473 37.4883 55.1873 36.5479 51.9818 36.205C51.178 36.1168 50.4428 35.9993 50.3448 35.9503C50.0801 35.8033 49.9821 35.5486 49.9135 34.8041L49.8448 34.1184L50.4526 33.5306C51.1192 32.884 51.5701 32.0513 51.7368 31.1697C51.8642 30.4937 51.8642 28.2112 51.7368 27.5352C51.4329 25.9384 50.3154 24.6747 48.8057 24.2045C47.9725 23.94 46.0414 23.9302 45.316 24.1849Z" fill="black"/>
<path d="M24.153 25.8312C23.9765 25.9977 23.9471 26.3308 24.0941 26.5561C24.1726 26.6834 24.8784 26.7128 29.1131 26.752C33.9262 26.801 34.0537 26.8108 34.436 27.0165C34.6516 27.1243 34.9261 27.33 35.0438 27.4574C35.1614 27.5749 36.7788 29.6028 38.6511 31.9441L42.0429 36.2055L41.0332 36.3328C36.6024 36.8716 30.2993 37.8513 29.8973 38.057C29.5052 38.2627 29.0347 38.8113 28.8975 39.2424C28.5152 40.4081 29.4562 42.1519 30.8286 42.8572C31.8775 43.3764 32.152 43.3862 36.4749 42.8768C38.6315 42.6221 40.396 42.4262 40.4156 42.4458C40.4352 42.4654 40.4842 43.9152 40.5137 45.659L40.5725 48.8428L37.7199 51.4878C36.1515 52.9376 34.8477 54.2308 34.8183 54.3483C34.7105 54.7696 35.2398 55.2006 35.6025 54.9949C35.9456 54.7989 44.9641 46.2859 45.0131 46.1096C45.1111 45.7177 44.67 45.2965 44.2975 45.4434C44.1897 45.4826 43.5427 46.0312 42.8663 46.668L41.641 47.824V44.7283C41.641 42.7788 41.6018 41.5641 41.5429 41.4367C41.3959 41.1722 41.092 41.182 36.818 41.6914C32.6715 42.1813 32.3578 42.2008 31.7108 41.9755C30.4365 41.5445 29.5346 39.8889 30.2208 39.2522C30.4267 39.0562 30.7698 38.9779 32.348 38.7231C35.3967 38.2235 38.014 37.8415 40.2196 37.577C41.3567 37.4496 42.4154 37.3125 42.582 37.2929C42.8467 37.2537 42.9349 37.3027 43.2388 37.7043C43.4349 37.959 43.6799 38.2627 43.7976 38.3803C44.1799 38.7917 44.7778 38.586 44.7778 38.0374C44.7778 37.8415 43.6799 36.4014 40.2882 32.14C36.3475 27.1929 35.7397 26.4679 35.2692 26.1838C34.9751 26.0075 34.5732 25.8214 34.387 25.7724C34.1811 25.7136 32.0343 25.6744 29.1719 25.6744C24.8784 25.6744 24.2902 25.694 24.153 25.8312Z" fill="black"/>
<path d="M24.1323 28.8581C23.9264 29.1814 24.0244 29.5732 24.3479 29.6908C24.74 29.8475 32.4155 29.8181 32.7194 29.6614C33.0233 29.5047 33.1017 29.0638 32.8567 28.7993C32.6998 28.623 32.5038 28.6132 28.4945 28.6132H24.2891L24.1323 28.8581Z" fill="black"/>
<path d="M24.1338 31.8948C23.9181 32.2279 24.026 32.6099 24.3691 32.7373C24.5161 32.796 25.1925 32.8254 25.9375 32.8058C27.1824 32.7765 27.2609 32.7667 27.4373 32.5413C27.6432 32.2866 27.6138 31.9732 27.3491 31.7674C27.2413 31.6891 26.7511 31.6499 25.7414 31.6499C24.3103 31.6499 24.2906 31.6499 24.1338 31.8948Z" fill="black"/>
<path d="M29.7203 31.9048C29.5046 32.2281 29.6321 32.6395 29.9751 32.7375C30.4163 32.8648 32.4552 32.8354 32.7199 32.6983C33.0238 32.5415 33.1022 32.1007 32.8571 31.8362C32.7101 31.6697 32.5435 31.6501 31.2887 31.6501C29.8869 31.6501 29.8771 31.6501 29.7203 31.9048Z" fill="black"/>
<path d="M68.5018 44.0816C67.4137 44.4146 66.7471 45.3355 66.7373 46.5013C66.7373 47.1674 66.8647 47.618 67.1588 48.0491C67.2961 48.2352 67.3549 48.4605 67.3353 48.7054C67.3059 49.2246 67.5509 49.6361 68.0313 49.881C68.6194 50.1847 69.0998 50.0965 69.6193 49.5969C69.835 49.3814 70.1977 49.1267 70.4035 49.0483C71.6387 48.5389 72.2072 47.4417 71.9327 46.1192C71.7857 45.3747 71.3152 44.7085 70.6584 44.3069C70.1879 44.0326 70.0506 43.9934 69.433 44.0032C69.0605 44.0032 68.639 44.0424 68.5018 44.0816ZM70.08 45.2963C70.4819 45.5608 70.8544 46.2564 70.8544 46.7364C70.8544 47.2752 70.5506 47.667 69.8546 48.0197C69.5115 48.1862 69.1194 48.4311 68.9723 48.5683C68.6684 48.8524 68.5018 48.7936 68.5018 48.4018C68.5018 48.245 68.3449 47.814 68.1489 47.4417C67.845 46.8539 67.8058 46.707 67.8646 46.3543C68.0411 45.3257 69.2566 44.7477 70.08 45.2963Z" fill="black"/>
<path d="M61.6393 44.836C60.3845 45.3748 59.9826 47.1479 60.8747 48.1668C61.306 48.6566 61.6883 48.8231 62.3745 48.8231C63.639 48.8231 64.6193 47.8631 64.6095 46.6287C64.5997 45.992 64.4232 45.6099 63.9527 45.1887C63.3743 44.6891 62.3451 44.5323 61.6393 44.836ZM63.2469 46.1585C63.3841 46.3251 63.5018 46.57 63.5018 46.7071C63.5018 47.0402 62.8254 47.7161 62.4921 47.7161C61.7079 47.7161 61.306 46.9814 61.6883 46.2467C61.8647 45.9136 61.953 45.8744 62.5411 45.8646C62.9332 45.8548 63.0313 45.894 63.2469 46.1585Z" fill="black"/>
<path d="M50.2673 46.4328C50.1203 46.7169 50.1497 46.9814 50.3457 47.1479C50.434 47.2263 50.9437 47.5006 51.4731 47.7455L52.4239 48.1961V55.7295C52.4239 59.8734 52.3945 64.8597 52.3553 66.819C52.2965 70.2967 52.2867 70.375 52.0808 70.6199C51.7867 70.953 51.3456 70.953 50.6496 70.6102C49.8556 70.2281 49.3361 69.7285 48.993 69.0427L48.6891 68.4256L48.5519 61.6269C48.4636 57.8161 48.3558 54.6617 48.3068 54.456C48.1499 53.9172 47.7186 53.5939 47.1109 53.5939C46.5423 53.5939 46.1502 53.7898 45.9051 54.2111C45.7483 54.4658 45.7189 55.1025 45.6012 60.6865C45.4346 68.8272 45.4542 68.4256 45.1503 69.0231C45.0033 69.2876 44.6994 69.6991 44.4641 69.9244C44.072 70.3065 42.9349 70.9334 42.6408 70.9334C42.3762 70.9334 41.9546 70.6395 41.8566 70.375C41.788 70.1889 41.739 67.152 41.7194 60.755C41.6802 51.7032 41.6802 51.4191 41.4939 51.282C41.2488 51.0958 40.9058 51.1056 40.7195 51.3016C40.5823 51.4387 40.5627 52.1538 40.5725 57.7867C40.5823 61.2742 40.6117 65.6238 40.6509 67.4655C40.7097 70.7865 40.7097 70.8061 40.945 71.149C41.3763 71.7661 41.7684 71.962 42.6114 71.962C43.2584 71.962 43.4446 71.9131 44.0132 71.6388C44.9249 71.1979 45.7777 70.3848 46.16 69.6109C46.5619 68.788 46.6011 68.2492 46.7384 60.7452C46.807 57.4439 46.8952 54.7793 46.9442 54.7205C47.2383 54.4168 47.2677 54.887 47.3951 61.3624C47.4638 64.9283 47.5618 68.1317 47.6108 68.4648C47.6598 68.8076 47.8265 69.3366 47.9637 69.6305C48.7773 71.2763 51.1594 72.4617 52.3945 71.8249C52.8944 71.58 53.2767 71.1294 53.3944 70.6591C53.4434 70.4534 53.512 65.6042 53.5414 59.5795C53.5806 53.6821 53.6198 48.8329 53.6493 48.8133C53.6689 48.7839 54.9138 49.3325 56.4038 50.0182C59.0015 51.2232 59.129 51.2722 59.374 51.135C59.6975 50.9587 59.7661 50.4689 59.5113 50.2533C59.1584 49.9497 50.9927 46.2466 50.679 46.2466C50.4732 46.2466 50.3359 46.3152 50.2673 46.4328Z" fill="black"/>
<path d="M25.6034 48.4507C25.4269 48.725 25.4661 49.3226 25.721 50.263C26.0151 51.3014 26.7699 52.2909 27.8188 52.9864L28.3775 53.3587L27.9756 53.5938C27.4365 53.9073 26.613 54.7008 26.2602 55.2494C25.3191 56.7188 25.2701 58.9622 26.1327 60.4512C26.4758 61.039 27.2404 61.8423 27.8286 62.2243L28.3089 62.528L27.7208 62.9199C26.5346 63.7036 25.7602 64.9379 25.5544 66.3486C25.4563 67.0148 25.4661 67.1421 25.6034 67.3576C25.7112 67.5242 25.8582 67.6025 26.0543 67.6025C26.4464 67.6025 26.6425 67.3674 26.6425 66.8874C26.6425 66.6621 26.6817 66.427 26.7209 66.3584C26.7699 66.2702 27.4757 66.2311 29.2696 66.2115C31.3478 66.1821 31.7595 66.1625 31.8379 66.0351C31.9751 65.8196 31.9555 65.2808 31.8183 65.1828C31.7497 65.1437 30.6812 65.0849 29.4362 65.0555L27.1816 65.0065L27.711 64.4383C28.0835 64.0465 28.4756 63.7624 29.0147 63.4881C29.7793 63.106 29.7989 63.106 30.1518 63.253C31.7497 63.9093 32.7201 65.0555 32.9358 66.5249C33.0828 67.485 33.1514 67.6025 33.5436 67.6025C34.0043 67.6025 34.1219 67.4066 34.1023 66.7209C34.0631 65.4375 33.3671 64.0465 32.3378 63.2236C31.7889 62.7827 30.3577 62.0186 30.0832 62.0186C29.7401 62.0186 28.2991 61.2055 27.8188 60.7451C27.3384 60.2847 26.8483 59.403 26.7013 58.7564L26.6425 58.4919H29.8185H32.9946L32.877 58.9524L32.7593 59.4226L30.6322 59.4716C29.1618 59.501 28.4756 59.5597 28.3971 59.6381C28.2403 59.7949 28.2403 60.3239 28.3971 60.4806C28.4756 60.559 29.0441 60.608 30.1812 60.6275L31.8477 60.6569L31.5438 60.9998C31.387 61.1859 31.2497 61.421 31.2497 61.5092C31.2497 61.8227 31.4948 62.048 31.8281 62.048C32.4555 62.048 33.671 60.51 33.9847 59.2952C34.1317 58.7466 34.1317 57.2772 33.9847 56.6698C33.7004 55.5236 32.8966 54.4069 31.8379 53.7211L31.2693 53.3391L31.8085 53.006C33.0534 52.2223 33.9259 50.8508 34.0729 49.4499C34.1709 48.5291 34.0827 48.2646 33.6416 48.2254C33.2593 48.1862 33.0142 48.4115 33.0142 48.7838C33.0142 48.9405 32.9848 49.205 32.9554 49.3715L32.8966 49.6752H29.8283H26.7601L26.7013 49.4499C26.6719 49.3324 26.6425 49.0777 26.6425 48.8817C26.6425 48.245 25.9367 47.9413 25.6034 48.4507ZM32.3378 50.939C32.1418 51.3014 31.1223 52.1243 30.4949 52.428C29.8675 52.7317 29.8577 52.7317 29.446 52.5749C29.2108 52.4868 28.8187 52.2811 28.5736 52.1243C28.1129 51.8402 27.2306 50.9879 27.2306 50.8312C27.2306 50.792 28.3971 50.7528 29.8283 50.7528C32.3378 50.7528 32.426 50.7626 32.3378 50.939ZM30.5733 54.2991C31.4556 54.7399 32.426 55.7196 32.7005 56.4641C33.0926 57.5025 33.3671 57.4143 29.7891 57.4143H26.6621L26.7503 57.0029C26.8091 56.7776 26.8679 56.5621 26.8973 56.5131C26.9267 56.4739 27.8482 56.4347 28.9559 56.4347C30.1518 56.4347 31.0439 56.3955 31.1615 56.3367C31.3772 56.2192 31.4262 55.6706 31.2301 55.4747C31.1517 55.3963 30.6027 55.3571 29.397 55.3571H27.6815L28.0246 55.0044C28.3383 54.6812 29.5637 53.9856 29.8283 53.9856C29.8871 53.9856 30.2302 54.1228 30.5733 54.2991Z" fill="black"/>
<path d="M63.5012 50.2141C62.1778 50.5864 61.1485 51.3701 60.7074 52.3497C60.3937 53.0355 60.2369 54.0053 60.3055 54.7204C60.3545 55.1711 60.3251 55.3866 60.1879 55.6413C59.933 56.1507 59.786 56.1997 59.139 55.994C57.5411 55.4943 56.2178 56.5621 56.2178 58.3451C56.2178 59.7558 57.0902 60.8334 58.4136 61.0783C59.5605 61.284 60.8741 60.3925 61.1583 59.2268C61.3152 58.5606 61.3642 58.4724 61.6779 58.3647C61.8837 58.2961 62.1092 58.3255 62.5993 58.4822C63.0797 58.6488 63.4522 58.6978 64.0501 58.6782C64.7657 58.6586 64.8834 58.688 65.1774 58.9035C65.5401 59.168 66.0597 59.3737 66.3832 59.3737C67.5007 59.3737 68.4417 58.2961 68.2653 57.2087C68.2261 56.9344 68.2751 56.7091 68.4809 56.2781C68.7162 55.7588 68.7456 55.5923 68.7456 54.6225C68.7456 53.5449 68.7456 53.5449 68.3143 52.6632C67.7555 51.5268 66.9517 50.6843 66.1087 50.3709C65.3441 50.0868 64.207 50.0182 63.5012 50.2141ZM65.5009 51.3505C65.9518 51.4778 66.7263 52.1734 67.0694 52.7514C67.1968 52.9767 67.4026 53.4469 67.5203 53.7898C67.7948 54.5833 67.7359 55.1417 67.3242 55.994C67.0596 56.5426 67.0301 56.6699 67.089 57.1597C67.1478 57.6593 67.1282 57.7377 66.9321 57.9532C66.6086 58.2961 66.2459 58.2667 65.746 57.8455L65.3147 57.4928L64.4716 57.5614C63.756 57.6104 63.5404 57.5908 63.0503 57.4242C61.9425 57.0324 60.776 57.2479 60.3643 57.9238C60.2663 58.1002 60.1487 58.4333 60.1094 58.6684C59.9624 59.6284 58.9821 60.2162 58.2077 59.8145C57.2961 59.3443 57.0412 58.0316 57.7176 57.3165C57.9823 57.0324 58.0509 57.0128 58.4234 57.052C58.6586 57.0814 59.0311 57.1597 59.2566 57.2283C59.786 57.385 60.2957 57.2479 60.7466 56.8071C61.3152 56.2487 61.4426 55.8764 61.4426 54.7302C61.4426 53.5939 61.5896 52.9767 62.0014 52.4379C62.6974 51.517 64.305 51.0174 65.5009 51.3505Z" fill="black"/>
<path d="M62.9131 52.4182C62.6778 52.6533 62.668 52.8884 62.8739 53.1823C63.1876 53.6329 63.9914 53.3488 63.9914 52.7905C63.9914 52.5358 63.6385 52.2223 63.3542 52.2223C63.217 52.2223 63.0209 52.3104 62.9131 52.4182Z" fill="black"/>
<path d="M64.3339 53.7113C63.3732 54.2403 62.8537 55.6216 63.3634 56.3171C63.6771 56.7482 64.3339 57.0225 65.0299 57.0225C65.4906 57.0225 65.7063 56.9735 65.9513 56.7971C66.5101 56.4249 66.6767 56.1114 66.716 55.3767C66.7454 54.8085 66.716 54.6713 66.5199 54.3774C66.1474 53.8289 65.7161 53.5937 65.0789 53.5937C64.775 53.5937 64.4417 53.6525 64.3339 53.7113ZM65.4514 54.926C65.7063 55.2493 65.7063 55.3669 65.4514 55.7C65.2652 55.9253 65.1965 55.9547 64.8829 55.8959C64.1967 55.7685 64.1182 55.504 64.6182 55.0044C65.0201 54.6028 65.1867 54.593 65.4514 54.926Z" fill="black"/>
<path d="M67.9909 60.0496C67.0989 60.3435 66.6381 60.9803 66.5695 62.0089C66.5107 62.822 66.7754 63.3902 67.4027 63.831C67.7752 64.0857 67.9125 64.1249 68.481 64.1249C68.9614 64.1151 69.2457 64.0563 69.5495 63.8996C71.0199 63.1257 71.167 61.088 69.8142 60.2945C69.3437 60.0202 68.4614 59.9027 67.9909 60.0496ZM69.1966 61.235C69.2947 61.2937 69.4515 61.4701 69.5299 61.6268C69.6574 61.8815 69.6672 61.9599 69.5397 62.244C69.2555 62.9395 68.5006 63.204 67.9909 62.8024C67.8537 62.6946 67.7164 62.4987 67.687 62.3517C67.6184 61.9795 67.785 61.4603 68.0399 61.2839C68.285 61.1174 68.9124 61.088 69.1966 61.235Z" fill="black"/>
</svg>
