<svg width="24" height="24" viewBox="0 0 24 24" fill="none" xmlns="http://www.w3.org/2000/svg">
<path d="M10.9219 0.0562477C9.42187 0.304686 8.25468 0.815624 7.13906 1.72031C5.74218 2.85 4.79531 4.40625 4.39687 6.23437C4.30312 6.67031 4.28906 6.85312 4.29374 7.80469C4.29374 8.81719 4.30312 8.91562 4.42499 9.44531C4.65468 10.4297 5.06249 11.3812 5.61562 12.2016C6.09843 12.9141 7.92656 15.8062 7.90781 15.825C7.89843 15.8344 7.62656 15.8953 7.30781 15.9562C6.45468 16.125 6.14531 16.2 5.37656 16.4344C3.49687 17.0062 2.25468 17.7797 1.72499 18.7031C1.50468 19.0922 1.43906 19.3734 1.46249 19.8703C1.47656 20.2687 1.49999 20.3625 1.64531 20.6719C1.99218 21.3984 2.62031 21.9516 3.67968 22.4766C5.25937 23.2547 7.44843 23.7609 10.0547 23.9531C10.8984 24.0141 13.1109 24.0141 13.9266 23.9531C17.9953 23.6437 21.0516 22.5797 22.1109 21.0984C22.425 20.6672 22.5469 20.2828 22.5469 19.7625C22.5469 19.1203 22.3219 18.6234 21.7922 18.0937C20.8594 17.1609 19.0969 16.4203 16.6922 15.9562C16.3734 15.8953 16.1016 15.8344 16.0922 15.825C16.0828 15.8156 16.6594 14.8922 17.3719 13.7766C18.0891 12.6562 18.7734 11.55 18.8953 11.3203C19.1859 10.7625 19.4156 10.1344 19.575 9.44531C19.6969 8.91562 19.7062 8.81719 19.7062 7.80469C19.7109 6.85312 19.6969 6.67031 19.6031 6.23437C18.8906 2.96719 16.4062 0.590624 13.1625 0.0749989C12.6562 -0.00937653 11.3578 -0.0187511 10.9219 0.0562477ZM13.0172 1.52344C15.5578 1.93594 17.6203 3.93281 18.1734 6.51562C18.2766 7.0125 18.2906 8.53125 18.1922 8.97656C18.0703 9.525 17.8078 10.2469 17.5641 10.6969C17.3203 11.1562 12.0422 19.4484 12 19.4484C11.9859 19.4484 10.9453 17.8219 9.67968 15.8344C8.41874 13.8516 7.19531 11.9344 6.97031 11.5875C6.04218 10.1578 5.71874 9.17812 5.71874 7.75781C5.71874 5.54531 6.83437 3.55312 8.74218 2.35312C9.32812 1.9875 10.2469 1.64531 10.9687 1.52344C11.4609 1.43906 12.5016 1.43906 13.0172 1.52344ZM10.1484 19.2844C10.875 20.4234 11.5219 21.3891 11.5922 21.4406C11.7797 21.5766 12.2203 21.5766 12.4078 21.4406C12.4781 21.3891 13.1203 20.4375 13.8375 19.3078C14.5547 18.1875 15.1687 17.2547 15.2016 17.2312C15.2859 17.175 16.5562 17.3859 17.4187 17.6016C19.0078 17.9906 20.2219 18.5625 20.8031 19.1906C21.1594 19.575 21.1922 19.8797 20.9203 20.2312C20.7234 20.4937 20.6484 20.5641 20.2969 20.8078C19.0922 21.6469 16.6219 22.2984 13.8984 22.5C13.0547 22.5609 10.9453 22.5609 10.1016 22.5C6.69843 22.2516 3.86249 21.3281 3.06093 20.2125C2.80781 19.8656 2.84999 19.5656 3.19687 19.1906C3.93281 18.3937 5.62499 17.7234 7.89843 17.325C8.25937 17.2594 8.61562 17.2125 8.69531 17.2172C8.82187 17.2266 8.92499 17.3719 10.1484 19.2844Z" fill="#1A998E"/>
<path d="M11.1094 4.35937C10.9172 4.41094 10.5797 4.54219 10.3594 4.65C10.0359 4.80937 9.87656 4.93125 9.51562 5.29688C9.15 5.65781 9.02813 5.81719 8.86875 6.14062C8.59219 6.69375 8.48438 7.1625 8.48438 7.78125C8.48438 8.4 8.59219 8.86875 8.86875 9.42187C9.02813 9.74531 9.15 9.90469 9.51562 10.2656C9.87656 10.6312 10.0359 10.7531 10.3594 10.9125C10.9125 11.1891 11.3813 11.2969 12 11.2969C12.6188 11.2969 13.0875 11.1891 13.6406 10.9125C13.9641 10.7531 14.1234 10.6312 14.4844 10.2656C14.85 9.90469 14.9719 9.74531 15.1313 9.42187C15.4078 8.86875 15.5156 8.4 15.5156 7.78125C15.5156 7.1625 15.4078 6.69375 15.1313 6.14062C14.9719 5.81719 14.85 5.65781 14.4844 5.29688C14.1234 4.93125 13.9641 4.80937 13.6406 4.65C13.4203 4.54219 13.0734 4.41094 12.8719 4.35937C12.375 4.23281 11.5969 4.2375 11.1094 4.35937ZM12.7641 5.85469C13.2703 6.05625 13.725 6.50625 13.9313 7.02187C14.0859 7.40625 14.0859 8.15625 13.9313 8.54531C13.725 9.05625 13.275 9.50625 12.7594 9.7125C12.375 9.86719 11.625 9.86719 11.2406 9.7125C10.725 9.50625 10.275 9.05156 10.0734 8.54531C9.92813 8.175 9.9 7.55156 10.0078 7.20937C10.2375 6.52031 10.65 6.07969 11.3063 5.83125C11.7 5.68125 12.3516 5.69062 12.7641 5.85469Z" fill="#1A998E"/>
</svg>
