<svg width="16" height="16" viewBox="0 0 16 16" fill="none" xmlns="http://www.w3.org/2000/svg">
<path d="M4 3.32503V3.99378L5.30625 4.00941C6.16563 4.01878 6.6625 4.03753 6.76562 4.06253C6.85313 4.08128 7.04063 4.15628 7.1875 4.22503C7.53125 4.39066 7.89688 4.74378 8.075 5.08441L8.19063 5.31253H6.09687H4V6.00003V6.68753H6.09375H8.1875L8.075 6.91253C7.9125 7.23441 7.5375 7.60628 7.21875 7.75941C6.77813 7.97503 6.75312 7.97816 5.30625 7.99378L4 8.00628V8.82191V9.64066L5.85312 11.4938L7.70312 13.3438H8.67188H9.64062L7.64375 11.3469L5.65 9.35316L6.26875 9.33441C7.04063 9.31253 7.30938 9.25316 7.85938 8.97503C8.46563 8.67191 8.95625 8.19378 9.27813 7.59066C9.40938 7.35003 9.59375 6.85003 9.59375 6.74378C9.59375 6.69066 9.64375 6.68753 10.4688 6.68753H11.3438V6.00003V5.31253H10.4781H9.60938L9.5375 5.05628C9.45625 4.76878 9.30938 4.44378 9.14375 4.19378C9.08125 4.10003 9.03125 4.01878 9.03125 4.01253C9.03125 4.00628 9.55312 4.00003 10.1875 4.00003H11.3438V3.32816V2.65628H7.67188H4V3.32503Z" fill="black"/>
</svg>
