<svg width="12" height="12" viewBox="0 0 12 12" fill="none" xmlns="http://www.w3.org/2000/svg">
<path d="M8.26661 0.037487C7.85645 0.112488 7.40176 0.297644 7.03145 0.543737C6.77598 0.714831 0.715044 6.77577 0.543951 7.03124C0.293169 7.41092 0.110357 7.86327 0.0353569 8.28749C-0.0115181 8.55702 -0.0115181 9.11483 0.0377007 9.38671C0.267388 10.6969 1.32676 11.7539 2.6252 11.9648C2.90879 12.0094 3.41739 12.0094 3.69864 11.9648C4.12754 11.8945 4.58926 11.7094 4.96895 11.4539C5.22207 11.2828 11.2127 5.30389 11.4166 5.01561C11.6908 4.63124 11.89 4.15077 11.965 3.69843C12.0096 3.41718 12.0096 2.90858 11.965 2.62499C11.7518 1.32186 10.676 0.248425 9.37051 0.0351439C9.09864 -0.00938797 8.51504 -0.00704384 8.26661 0.037487ZM9.10567 0.87655C9.83926 0.9328 10.601 1.48827 10.9338 2.21014C11.0838 2.53358 11.1213 2.72811 11.1213 3.16405C11.1213 3.59999 11.0838 3.79452 10.9338 4.11796C10.7627 4.48593 10.69 4.56796 9.28848 5.97655L7.94551 7.32421L6.31192 5.68827L4.67598 4.05468L6.02364 2.71171C7.0127 1.72499 7.41582 1.33827 7.54004 1.25624C7.75801 1.11561 8.00879 0.998425 8.23848 0.935143C8.41426 0.888268 8.76348 0.846081 8.88301 0.8578C8.91582 0.862488 9.01661 0.869518 9.10567 0.87655ZM5.69551 6.31639L7.32442 7.9453L5.97676 9.28827C4.9877 10.275 4.58458 10.6617 4.46036 10.7437C3.99629 11.0484 3.52051 11.1703 2.96504 11.1281C2.17286 11.0695 1.44864 10.568 1.0877 9.83202C0.916607 9.47811 0.881451 9.31405 0.879107 8.83593C0.879107 8.37655 0.909576 8.22186 1.06661 7.88202C1.2377 7.50936 1.30801 7.43202 2.70489 6.02811C3.43848 5.29217 4.04786 4.68749 4.05489 4.68749C4.06192 4.68749 4.8002 5.42108 5.69551 6.31639Z" fill="#1A998E"/>
<path d="M8.52683 1.36406C8.1823 1.39687 7.85417 1.52812 7.57761 1.7414C7.40183 1.87734 7.34558 1.93828 7.30105 2.04375C7.19089 2.31093 7.36433 2.61093 7.65027 2.6414C7.79089 2.65781 7.89167 2.62031 8.04167 2.4914C8.3862 2.19843 8.80808 2.13984 9.20417 2.33437C9.33777 2.39765 9.40808 2.4539 9.54167 2.60156C9.76902 2.85234 9.91667 2.90859 10.1206 2.82421C10.2987 2.74921 10.3901 2.61328 10.3901 2.42343C10.3901 2.28046 10.3292 2.16093 10.1581 1.97109C9.75964 1.52578 9.15495 1.30078 8.52683 1.36406Z" fill="#1A998E"/>
</svg>
