<svg width="18" height="18" viewBox="0 0 18 18" fill="none" xmlns="http://www.w3.org/2000/svg">
<path d="M6.54618 0.0843754C6.0329 0.277735 5.65672 0.678516 5.50555 1.1918C5.46688 1.31836 5.4493 1.52227 5.4493 1.78242V2.17969H4.26454C2.99188 2.17969 2.88641 2.19024 2.54891 2.36602C1.96883 2.66133 1.66297 3.21328 1.69461 3.90938C1.70516 4.19766 1.72274 4.26797 1.83524 4.5C2.0075 4.85156 2.25711 5.10117 2.60868 5.26641L2.8829 5.39648L2.88993 10.8281L2.90047 16.2598L2.99891 16.534C3.24852 17.2441 3.80399 17.775 4.48251 17.9473C4.6618 17.993 5.26297 18 8.99305 18C12.8075 18 13.3208 17.993 13.5141 17.9438C14.0837 17.7961 14.604 17.3707 14.8677 16.8363C15.1313 16.2949 15.1173 16.65 15.1173 10.7016C15.1173 5.66016 15.1208 5.37539 15.1806 5.35781C15.3809 5.29102 15.6481 5.13281 15.7958 4.9957C16.7309 4.12031 16.3372 2.55586 15.0997 2.23242C14.9309 2.19024 14.6602 2.17969 13.7216 2.17969H12.5509V1.84922C12.5509 1.66992 12.5333 1.43789 12.5157 1.33242C12.4313 0.896484 12.129 0.464064 11.7493 0.232031C11.3556 -0.00351524 11.4083 0 8.96844 0.00351524H6.76766L6.54618 0.0843754ZM11.2114 0.942188C11.5559 1.12852 11.6684 1.35 11.672 1.83516V2.17969H8.99657H6.32118L6.33524 1.78242C6.34579 1.42734 6.35633 1.37461 6.44422 1.24102C6.56376 1.05117 6.76415 0.917578 6.98563 0.878906C7.07704 0.864843 8.03329 0.854298 9.10555 0.854298L11.0567 0.861328L11.2114 0.942188ZM14.9696 3.11484C15.4618 3.31875 15.5849 3.92695 15.2122 4.30313C15.1278 4.3875 15.0013 4.46836 14.9204 4.49297C14.727 4.54922 3.29071 4.55625 3.08329 4.49648C3.00946 4.47891 2.89344 4.41211 2.82313 4.34883C2.41883 3.99375 2.51375 3.35391 3.00594 3.12539C3.13954 3.06211 3.3786 3.05859 8.99305 3.05859C14.1997 3.05859 14.8536 3.06563 14.9696 3.11484ZM14.2384 10.6945C14.2384 15.1242 14.2313 16.0031 14.1891 16.1402C14.0169 16.7063 13.6337 17.0473 13.0888 17.1246C12.9411 17.1457 11.2606 17.1527 8.82079 17.1492L4.79891 17.1387L4.59852 17.0578C4.23993 16.9137 3.94813 16.5902 3.80751 16.1859C3.75126 16.0277 3.74422 15.6199 3.73719 10.7121L3.72313 5.41406H8.98251H14.2384V10.6945Z" fill="#1A998E"/>
<path d="M6.30707 6.56016C6.06449 6.67969 6.08207 6.36328 6.08207 10.9441V15.075L6.17348 15.184C6.42308 15.4828 6.88715 15.3316 6.9434 14.9309C6.95394 14.85 6.96098 12.9867 6.95394 10.793C6.9434 6.90117 6.9434 6.79922 6.87308 6.70078C6.75355 6.52149 6.50746 6.4582 6.30707 6.56016Z" fill="#1A998E"/>
<path d="M8.7998 6.56016C8.73652 6.5918 8.65918 6.6586 8.62402 6.71133C8.56426 6.79922 8.56074 7.0207 8.55019 10.793C8.54316 12.9867 8.55019 14.85 8.56074 14.9309C8.61699 15.3316 9.08105 15.4828 9.33066 15.184L9.42207 15.075V10.9441C9.42207 6.35274 9.43965 6.67617 9.19004 6.55664C9.04941 6.48985 8.94043 6.48985 8.7998 6.56016Z" fill="#1A998E"/>
<path d="M11.2852 6.56367C11.2149 6.59883 11.134 6.67969 11.0989 6.75C11.0426 6.86602 11.0391 7.12266 11.0461 10.9688C11.0567 14.7164 11.0602 15.0715 11.1164 15.1453C11.2114 15.2824 11.3133 15.3352 11.4785 15.3352C11.6789 15.3352 11.8336 15.2297 11.8828 15.0539C11.911 14.9625 11.918 13.6688 11.911 10.8387L11.9004 6.75L11.7949 6.64805C11.6578 6.51094 11.4539 6.47578 11.2852 6.56367Z" fill="#1A998E"/>
</svg>
