<svg width="16" height="16" viewBox="0 0 16 16" fill="none" xmlns="http://www.w3.org/2000/svg">
<g clip-path="url(#clip0_343_47)">
<path d="M1.45317 0.0593696C0.934422 0.20937 0.468797 0.58437 0.228172 1.04687C-0.00307786 1.49687 -0.00307786 1.48124 0.00629714 3.30624L0.0156721 4.92812L0.106297 5.05624C0.334422 5.38749 0.843797 5.43749 1.13442 5.16249C1.33442 4.97499 1.32817 5.03749 1.3438 3.35937L1.35942 1.82812L1.44692 1.68124C1.50317 1.58437 1.58442 1.50312 1.6813 1.44687L1.82817 1.35937L3.35942 1.34374C5.03755 1.32812 4.97505 1.33437 5.16255 1.13437C5.43755 0.843745 5.38755 0.33437 5.0563 0.106245L4.92817 0.0156198L3.28442 0.00936937C1.80317 0.00311947 1.62192 0.00936937 1.45317 0.0593696Z" fill="white"/>
<path d="M11.047 0.0437441C10.6376 0.224994 10.5282 0.809369 10.8376 1.13437C11.0251 1.33437 10.9626 1.32812 12.6407 1.34374L14.172 1.35937L14.3189 1.44687C14.4157 1.50312 14.497 1.58437 14.5532 1.68124L14.6407 1.82812L14.6564 3.35937C14.672 5.03749 14.6657 4.97499 14.8657 5.16249C15.1564 5.43749 15.6657 5.38749 15.8939 5.05624L15.9845 4.92812L15.9939 3.30624C16.0032 1.48124 16.0032 1.49687 15.772 1.04687C15.597 0.709369 15.2907 0.403119 14.9532 0.228119C14.5095 -5.72205e-06 14.5189 -5.72205e-06 12.7314 -5.72205e-06C11.4782 0.00311899 11.122 0.0124941 11.047 0.0437441Z" fill="white"/>
<path d="M4.32859 3.36255C3.85047 3.47818 3.46609 3.87193 3.35984 4.35318C3.31922 4.5438 3.31297 4.76568 3.31922 5.7188L3.32859 6.85943L3.40672 7.00005C3.45047 7.07505 3.54734 7.1813 3.61922 7.23443C3.74422 7.3188 3.77859 7.32818 4.00047 7.32818C4.22234 7.32818 4.25672 7.3188 4.38172 7.23443C4.45359 7.1813 4.55047 7.07505 4.59422 7.00005L4.67234 6.85943L4.68172 5.77193L4.69109 4.68755H8.00047H11.3098L11.3192 5.77193L11.3286 6.85943L11.4067 7.00005C11.4505 7.07505 11.5473 7.1813 11.6192 7.23443C11.7442 7.3188 11.7786 7.32818 12.0005 7.32818C12.2223 7.32818 12.2567 7.3188 12.3817 7.23443C12.4536 7.1813 12.5505 7.07505 12.5942 7.00005L12.6723 6.85943L12.6817 5.7188C12.688 4.76568 12.6817 4.5438 12.6411 4.35318C12.5317 3.86255 12.1473 3.47818 11.6567 3.36255C11.363 3.29068 4.61922 3.2938 4.32859 3.36255Z" fill="white"/>
<path d="M2.35353 8.73441C2.11915 8.85316 2.01915 9.01254 2.00665 9.29691C1.99728 9.47504 2.00665 9.54691 2.05665 9.64379C2.20665 9.93441 2.3629 10 2.90665 10H3.3129V10.7219C3.3129 11.5657 3.34728 11.7719 3.52853 12.0532C3.73165 12.3688 4.03165 12.575 4.4004 12.6532C4.51603 12.6782 5.59728 12.6875 8.00353 12.6875C11.8504 12.6875 11.7098 12.6938 12.0535 12.4719C12.3629 12.2719 12.5567 12 12.6379 11.6563C12.6754 11.5063 12.6879 11.2688 12.6879 10.725V10H13.1035C13.4785 10 13.5348 9.99379 13.6598 9.92816C13.7442 9.88441 13.8379 9.79691 13.9004 9.70004C14.0004 9.55316 14.0067 9.53441 13.9942 9.30941C13.9817 9.01254 13.8879 8.85629 13.6473 8.73441L13.4879 8.65629H8.0004H2.5129L2.35353 8.73441Z" fill="white"/>
<path d="M0.353172 10.7344C0.253172 10.7844 0.162547 10.8625 0.106297 10.9437L0.0156721 11.0719L0.00629714 12.6937C-0.00307786 14.5187 -0.00307786 14.5031 0.228172 14.9531C0.403172 15.2937 0.709422 15.5969 1.05005 15.775C1.48755 16 1.50942 16.0031 3.32505 15.9937L4.92817 15.9844L5.0563 15.8937C5.38755 15.6656 5.43755 15.1562 5.16255 14.8656C4.97505 14.6656 5.03755 14.6719 3.35942 14.6562L1.82817 14.6406L1.6813 14.5531C1.58442 14.4969 1.50317 14.4156 1.44692 14.3187L1.35942 14.1719L1.3438 12.6406C1.32817 10.9625 1.33442 11.025 1.13442 10.8375C0.931297 10.6406 0.621922 10.6031 0.353172 10.7344Z" fill="white"/>
<path d="M15.0627 10.7062C14.9314 10.7625 14.7939 10.8875 14.7252 11.0156C14.6783 11.0969 14.6689 11.2906 14.6564 12.6406L14.6408 14.1719L14.5533 14.3187C14.497 14.4156 14.4158 14.4969 14.3189 14.5531L14.172 14.6406L12.6408 14.6562C10.9627 14.6719 11.0252 14.6656 10.8377 14.8656C10.5627 15.1562 10.6127 15.6656 10.9439 15.8937L11.072 15.9844L12.6752 15.9937C14.4908 16.0031 14.5127 16 14.9502 15.775C15.2908 15.5969 15.597 15.2937 15.772 14.9531C16.0033 14.5031 16.0033 14.5187 15.9939 12.6937L15.9845 11.0719L15.8939 10.9437C15.722 10.6969 15.3408 10.5875 15.0627 10.7062Z" fill="white"/>
</g>
<defs>
<clipPath id="clip0_343_47">
<rect width="16" height="16" fill="white"/>
</clipPath>
</defs>
</svg>
