<svg width="18" height="18" viewBox="0 0 18 18" fill="none" xmlns="http://www.w3.org/2000/svg">
<path d="M12.9023 1.74023C12.5578 1.81758 12.2273 1.95469 11.9426 2.14453C11.7492 2.27109 10.6137 3.39258 7.1332 6.87656L2.57695 11.4434L2.13047 13.5352C1.88789 14.6848 1.6875 15.6973 1.6875 15.7852C1.6875 16.0945 1.9125 16.3125 2.23594 16.3125C2.48906 16.3125 6.49336 15.4477 6.62695 15.3633C6.78516 15.2613 15.6902 6.33516 15.8098 6.15234C15.9715 5.90977 16.1227 5.59688 16.2141 5.30859C16.2844 5.08008 16.2949 4.97461 16.2949 4.5C16.2949 4.02539 16.2844 3.91992 16.2141 3.69141C16.0418 3.14297 15.7254 2.66133 15.307 2.31328C15.068 2.11289 14.5617 1.85273 14.2559 1.77188C13.9605 1.69102 13.1941 1.67344 12.9023 1.74023ZM13.9395 2.90039C14.3227 3.00234 14.6883 3.26953 14.9133 3.62109C15.2332 4.12383 15.2297 4.87969 14.9027 5.39648C14.843 5.49141 14.5055 5.86055 14.1539 6.21562L13.5176 6.85898L12.3398 5.67773L11.1621 4.5L11.8652 3.80039C12.5895 3.0832 12.7406 2.9707 13.1027 2.88633C13.3172 2.83711 13.7145 2.84414 13.9395 2.90039ZM11.5242 6.51445L12.6914 7.68164L9.35859 11.0145L6.0293 14.3438L4.54219 14.6637C3.72305 14.8395 3.04805 14.9766 3.0375 14.966C3.03047 14.959 3.16406 14.291 3.33633 13.4824L3.65273 12.0094L6.98555 8.67656C8.81719 6.84492 10.3254 5.34375 10.3359 5.34375C10.3465 5.34375 10.8809 5.87109 11.5242 6.51445Z" fill="#1A998E"/>
</svg>
