<svg width="24" height="24" viewBox="0 0 24 24" fill="none" xmlns="http://www.w3.org/2000/svg">
<path d="M17.2031 2.32031C16.7438 2.42344 16.3031 2.60625 15.9234 2.85938C15.6656 3.02812 14.1516 4.52344 9.51094 9.16875L3.43594 15.2578L2.84063 18.0469C2.51719 19.5797 2.25 20.9297 2.25 21.0469C2.25 21.4594 2.55 21.75 2.98125 21.75C3.31875 21.75 8.65781 20.5969 8.83594 20.4844C9.04688 20.3484 20.9203 8.44687 21.0797 8.20312C21.2953 7.87969 21.4969 7.4625 21.6188 7.07812C21.7125 6.77344 21.7266 6.63281 21.7266 6C21.7266 5.36719 21.7125 5.22656 21.6188 4.92188C21.3891 4.19062 20.9672 3.54844 20.4094 3.08437C20.0906 2.81719 19.4156 2.47031 19.0078 2.3625C18.6141 2.25469 17.5922 2.23125 17.2031 2.32031ZM18.5859 3.86719C19.0969 4.00312 19.5844 4.35938 19.8844 4.82812C20.3109 5.49844 20.3063 6.50625 19.8703 7.19531C19.7906 7.32187 19.3406 7.81406 18.8719 8.2875L18.0234 9.14531L16.4531 7.57031L14.8828 6L15.8203 5.06719C16.7859 4.11094 16.9875 3.96094 17.4703 3.84844C17.7563 3.78281 18.2859 3.79219 18.5859 3.86719ZM15.3656 8.68594L16.9219 10.2422L12.4781 14.6859L8.03906 19.125L6.05625 19.5516C4.96406 19.7859 4.06406 19.9687 4.05 19.9547C4.04063 19.9453 4.21875 19.0547 4.44844 17.9766L4.87031 16.0125L9.31406 11.5687C11.7563 9.12656 13.7672 7.125 13.7812 7.125C13.7953 7.125 14.5078 7.82812 15.3656 8.68594Z" fill="#1A998E"/>
</svg>
