<svg width="16" height="16" viewBox="0 0 16 16" fill="none" xmlns="http://www.w3.org/2000/svg">
<g clip-path="url(#clip0_305_354)">
<path d="M0.556214 0.062501C0.268714 0.215626 0.128089 0.556251 0.218714 0.881251C0.237464 0.950001 1.32184 2.5 2.92184 4.75625C4.39371 6.825 5.63434 8.6 5.68434 8.70313C5.73434 8.80625 5.79059 8.975 5.80934 9.075C5.83121 9.2 5.84371 10.275 5.84371 12.3719C5.84371 15.8875 5.82496 15.6219 6.09371 15.8531C6.24371 15.9812 6.36559 16.0156 6.60309 15.9937C6.81559 15.975 9.84684 14.8187 9.95934 14.7125C10.0031 14.6719 10.0687 14.5844 10.1031 14.5156C10.1718 14.3906 10.1718 14.3812 10.1875 11.6875C10.2031 8.99062 10.2031 8.98438 10.2718 8.81563C10.3625 8.59688 10.1343 8.925 13.1093 4.73438C14.55 2.70625 15.7468 1.00313 15.7687 0.946876C15.825 0.818751 15.825 0.528126 15.7687 0.396876C15.7468 0.340626 15.6812 0.250001 15.625 0.193751C15.4156 -0.0156231 16.0437 9.53674e-07 7.98746 9.53674e-07C0.818714 0.00312614 0.668714 0.00312614 0.556214 0.062501ZM14.7531 0.943751C14.7031 1.01875 13.5437 2.65313 12.175 4.57813C10.7843 6.53438 9.64059 8.175 9.58121 8.29688C9.52184 8.41875 9.44371 8.63125 9.40934 8.77188C9.34684 9.01875 9.34371 9.09688 9.34371 11.5563V14.0844L8.02496 14.5875L6.70309 15.0875L6.68746 12.0219C6.66871 8.99062 6.66871 8.95 6.60309 8.73438C6.50309 8.40938 6.42496 8.24063 6.25621 7.99063C6.17184 7.86563 4.99684 6.20625 3.64684 4.30313C2.29371 2.4 1.18746 0.834376 1.18746 0.828126C1.18746 0.818751 4.25934 0.812501 8.01559 0.812501H14.8468L14.7531 0.943751Z" fill="white"/>
</g>
<defs>
<clipPath id="clip0_305_354">
<rect width="16" height="16" fill="white"/>
</clipPath>
</defs>
</svg>
