<svg width="24" height="24" viewBox="0 0 24 24" fill="none" xmlns="http://www.w3.org/2000/svg">
<g clip-path="url(#clip0_2_1320)">
<path d="M1.33594 0.089077C0.829688 0.271889 0.403125 0.656263 0.159375 1.14845L0.0234375 1.4297V10.9922V20.5547L0.173438 20.8594C0.257813 21.0281 0.389063 21.2391 0.464063 21.3328C0.792188 21.7266 0.9375 21.7875 4.35 22.9266L7.57031 24.0047L8.0625 23.9906C8.5125 23.9766 8.5875 23.9625 8.87344 23.8219C9.25313 23.6344 9.60469 23.3016 9.76875 22.9781C9.97031 22.5844 10.0312 22.2563 10.0312 21.6V21H11.8781C13.725 21 13.7297 21 14.1047 20.8828C15.0234 20.5922 15.7594 19.7766 15.9609 18.8203C16.0172 18.5578 16.0312 18.0141 16.0312 16.0547C16.0312 13.6172 16.0312 13.6125 15.9281 13.4063C15.7781 13.1203 15.6188 13.0172 15.2953 12.9938C15.0656 12.9797 14.9953 12.9938 14.8594 13.0875C14.7703 13.1484 14.6484 13.2703 14.5922 13.3547L14.4844 13.5141V15.9375C14.4844 18.661 14.4844 18.6703 14.1563 19.0406C14.0484 19.1625 13.8703 19.2984 13.725 19.3641C13.4813 19.4766 13.4531 19.4766 11.7563 19.4906L10.0312 19.5047V11.6813C10.0312 6.59064 10.0125 3.76876 9.98438 3.6047C9.89062 3.11251 9.5625 2.61564 9.13594 2.31564C9.02344 2.23595 8.52656 2.03908 7.95 1.8422L6.96094 1.5047L10.2188 1.51408L13.4766 1.52345L13.725 1.63595C13.8703 1.70158 14.0484 1.83751 14.1563 1.95939C14.4844 2.3297 14.4844 2.33908 14.4844 5.06251V7.48595L14.5922 7.64533C14.6484 7.7297 14.7703 7.85158 14.8594 7.91251C14.9953 8.00626 15.0656 8.02033 15.2953 8.00626C15.6188 7.98283 15.7781 7.8797 15.9281 7.59376C16.0312 7.38751 16.0312 7.38283 16.0312 4.94533C16.0312 2.98595 16.0172 2.4422 15.9609 2.1797C15.7594 1.22345 15.0234 0.407825 14.1047 0.117201L13.7297 1.33514e-05H7.65C1.90313 0.00470161 1.55625 0.00938797 1.33594 0.089077ZM5.13281 2.54533C6.78281 3.09845 8.17969 3.57189 8.24063 3.6047C8.49844 3.74533 8.48438 3.15939 8.48438 12.9797C8.48438 18.5016 8.46563 22.0688 8.44219 22.1391C8.36719 22.3313 8.20312 22.4531 8.02031 22.4531C7.92656 22.4531 6.49219 21.9984 4.80938 21.4406C2.49375 20.6672 1.73906 20.3953 1.65938 20.3156C1.60313 20.2547 1.54688 20.1235 1.52813 20.025C1.47656 19.7109 1.49531 2.10001 1.54688 1.91251C1.60781 1.70158 1.79063 1.54689 1.9875 1.54689C2.06719 1.54689 3.48281 1.99689 5.13281 2.54533Z" fill="#1A998E"/>
<path d="M19.0875 6.09375C18.8625 6.22969 18.75 6.44531 18.75 6.74062C18.75 6.87656 18.7734 7.03594 18.8016 7.09219C18.8297 7.14844 19.425 7.77187 20.1234 8.47031L21.3984 9.75H17.4375H13.4766L13.3078 9.8625C12.8766 10.1578 12.8766 10.8422 13.3078 11.1375L13.4766 11.25H17.4375H21.3984L20.1234 12.525C19.425 13.2281 18.8297 13.8516 18.8016 13.9078C18.7734 13.9641 18.75 14.1234 18.75 14.2594C18.75 14.7141 19.0359 15 19.4906 15C19.6266 15 19.7859 14.9766 19.8422 14.9484C19.9875 14.8734 23.85 11.0203 23.9344 10.8656C23.9719 10.7953 24 10.6312 24 10.5C24 10.3687 23.9719 10.2047 23.9344 10.1344C23.85 9.97969 19.9875 6.12656 19.8422 6.05156C19.6734 5.96719 19.2609 5.99062 19.0875 6.09375Z" fill="#1A998E"/>
</g>
<defs>
<clipPath id="clip0_2_1320">
<rect width="24" height="24" fill="white"/>
</clipPath>
</defs>
</svg>
