<svg width="24" height="24" viewBox="0 0 24 24" fill="none" xmlns="http://www.w3.org/2000/svg">
<path d="M8.08134 5.03437C7.8704 5.12812 7.61728 5.40937 7.55634 5.62031C7.44853 5.98125 7.51415 6.38906 7.72509 6.62812C7.76728 6.675 9.1829 7.89844 10.8657 9.3375C12.5438 10.7812 13.922 11.9719 13.9173 11.9906C13.9173 12.0094 12.511 13.2234 10.7907 14.6953C7.38759 17.6062 7.45322 17.5359 7.45322 18.0234C7.45322 18.3469 7.63134 18.6984 7.88447 18.8719C8.11884 19.0359 8.59697 19.0828 8.86415 18.9703C8.9579 18.9328 10.6642 17.5078 12.661 15.8016C16.6454 12.3937 16.547 12.4922 16.547 11.9812C16.547 11.4891 16.6548 11.5969 12.7501 8.24062C10.7767 6.54375 9.07978 5.11875 8.97197 5.0625C8.75165 4.95 8.30634 4.93594 8.08134 5.03437Z" fill="#1A998E"/>
</svg>
