<svg width="36" height="36" viewBox="0 0 36 36" fill="none" xmlns="http://www.w3.org/2000/svg">
<rect width="36" height="36" rx="6" fill="white"/>
<g clip-path="url(#clip0_2_906)">
<path d="M10.3957 9.26719C7.70625 10.3113 5.50195 11.1814 5.50195 11.1973C5.50195 11.2289 8.92969 12.5684 9.00879 12.5684C9.04043 12.5684 11.2975 11.6982 14.0344 10.633C17.3197 9.35684 18.9861 8.68711 18.9334 8.66074C18.6539 8.50254 15.5689 7.34766 15.4424 7.35293C15.358 7.3582 13.0852 8.21777 10.3957 9.26719Z" fill="#1A998E"/>
<path d="M17.5148 11.9725C14.7938 13.0324 12.5684 13.9184 12.5684 13.9342C12.5684 13.9553 13.2223 14.2242 14.0186 14.5354L15.474 15.0996L20.4521 13.159C23.1943 12.0938 25.4355 11.2131 25.4355 11.1973C25.4355 11.1709 22.5299 10.0318 22.4824 10.0424C22.4666 10.0424 20.2307 10.9125 17.5148 11.9725Z" fill="#1A998E"/>
<path d="M4.92188 17.6309V23.4264L5.04316 23.5582C5.12754 23.6584 6.3668 24.1647 10.0898 25.6096C12.8004 26.6643 15.0363 27.5133 15.0627 27.4922C15.0838 27.4764 15.0943 24.8291 15.0891 21.6176L15.0732 15.7799L13.5229 15.1734C12.6738 14.8412 11.9672 14.5723 11.9566 14.5723C11.9461 14.5723 11.9355 15.1523 11.9355 15.859C11.9355 16.6025 11.9145 17.1615 11.8881 17.1826C11.8459 17.2037 10.8439 16.4022 10.2586 15.8748L10.1426 15.7693L9.34629 16.0172C8.89805 16.1596 8.52891 16.2492 8.50254 16.2229C8.47617 16.1965 8.4498 15.5057 8.44453 14.683L8.42871 13.1959L7.00488 12.6369C6.22441 12.3363 5.4334 12.0305 5.2541 11.9619L4.92188 11.8354V17.6309Z" fill="#1A998E"/>
<path d="M20.9531 13.7971L15.917 15.7588L15.9012 21.6492L15.8906 27.5396L16.3494 27.3551C16.6078 27.2549 17.6467 26.8541 18.6645 26.4586L20.5154 25.7414L20.3941 25.3459C19.9354 23.9063 20.0461 22.398 20.7105 21.0322C21.6281 19.1602 23.3473 17.9578 25.4355 17.7311L26.0156 17.6678V14.7463C26.0156 13.1432 26.0104 11.8301 26.0051 11.8354C25.9945 11.8354 23.7217 12.7213 20.9531 13.7971Z" fill="#1A998E"/>
<path d="M25.2773 18.5326C24.0328 18.6908 22.8093 19.3975 21.9972 20.4205C20.4363 22.3822 20.5734 25.2563 22.3084 27.0756C22.9676 27.7611 23.6636 28.1883 24.6181 28.473C25.0506 28.6049 25.1718 28.6207 25.9629 28.6207C26.7222 28.626 26.891 28.6102 27.2812 28.4994C30.4084 27.6293 31.9588 24.2332 30.5508 21.3434C29.5804 19.35 27.508 18.2426 25.2773 18.5326ZM28.8 21.201C28.9634 21.3012 29.1269 21.5807 29.1269 21.76C29.1269 21.8443 29.09 21.9867 29.0478 22.0816C28.9424 22.3031 25.2931 25.9418 25.1033 26.0104C24.9082 26.0842 24.7342 26.0842 24.5549 25.9998C24.3914 25.926 22.7724 23.9221 22.6564 23.6426C22.551 23.4 22.6353 23.1258 22.8779 22.9096C23.0888 22.725 23.3842 22.6881 23.632 22.8199C23.7111 22.8621 24.0222 23.2049 24.3228 23.5846C24.6234 23.9643 24.8871 24.2754 24.9029 24.2754C24.9187 24.2754 25.6095 23.5951 26.4375 22.7672C27.4025 21.8021 28.0142 21.2221 28.1513 21.1588C28.3781 21.0533 28.589 21.0639 28.8 21.201Z" fill="#1A998E"/>
</g>
<defs>
<clipPath id="clip0_2_906">
<rect width="27" height="27" fill="white" transform="translate(4.5 4.5)"/>
</clipPath>
</defs>
</svg>
