<svg width="160" height="160" viewBox="0 0 160 160" fill="none" xmlns="http://www.w3.org/2000/svg">
<g clip-path="url(#clip0_1_901)">
<path d="M74.8438 0.59375C69.1875 2.21875 64.5 6.65625 62.4375 12.375C61.5312 14.9688 61.3125 20.0625 62.0312 22.7812C63.125 27 65.9688 31.2188 69.2812 33.4688L70.625 34.4062V37.5C70.625 40.5625 70.625 40.625 69.9062 40.625C68.0938 40.625 65.8438 39.625 64.4062 38.1875C63.0938 36.875 62.8438 36.4062 62.0625 33.5938C61.5938 31.875 60.8438 29.8125 60.4062 29C59.4062 27.1875 56.5625 24.375 54.7188 23.4375C51.75 21.9375 51.1562 21.875 38.9062 21.875C23.3438 21.8438 22.6875 21.7812 12.0312 19.0625C2.625 16.6562 2.125 16.625 0.75 17.9688C0.09375 18.625 0 19 0 21.0312C0 24.0312 0.46875 26.4688 1.59375 29.4062C2.53125 31.8125 4.4375 35.0938 5.78125 36.5625C6.28125 37.125 6.53125 37.9062 6.6875 39.3125C6.96875 42.4062 7.71875 44.9062 9.28125 48.0938C10.4688 50.4688 11.2812 51.5938 13.5938 54.0312C15.1562 55.6875 17.125 57.9375 17.9688 59.0625C25.8125 69.5 36.6562 74.7812 49.0625 74.2812C56.5312 73.9375 63.0625 71.6875 68.6562 67.4688C69.5625 66.8125 70.375 66.25 70.4688 66.25C70.5625 66.25 70.625 68.625 70.625 71.5625V76.875H67.75C64.0312 76.875 61.5 77.5 58.3125 79.125C50.1562 83.3438 45.8438 93.0625 48.0938 101.937C48.8125 104.781 50.0312 107.281 51 107.937C51.9688 108.625 54.0625 108.562 54.9688 107.812C56.25 106.75 56.3438 105.25 55.2812 102.625C52.7812 96.3437 54.5 89.9375 59.75 86.0625C61.9688 84.4375 64.625 83.5312 68.0625 83.25L70.625 83.0312V97V110.937H66.2812C61.25 110.937 59.2812 111.25 56.7188 112.469C51.5625 114.875 48.4062 119.906 48.3438 125.781C48.2812 132.656 52.125 138.094 58.6562 140.344C60.125 140.844 61.2812 140.937 66.0938 140.937H71.7812L72.3438 143.531C73.75 150.031 76.7188 158.344 78.0312 159.375C79.2188 160.281 81.25 160.219 82.25 159.219C83.5938 157.875 87 147.719 88 142.062L88.2188 140.844L90.6562 141.031C94.2812 141.312 96.25 142.531 97.3438 145.062C98.9688 149.031 96.3438 152.937 91.5938 153.594C88.2812 154.031 87.0312 157.031 89.2188 159.25C89.8438 159.875 90.2812 160 91.9375 160C96.875 160 101 157.25 103.25 152.531C104.125 150.656 104.219 150.187 104.219 147.344C104.219 144.5 104.125 144.031 103.25 142.156C100.906 137.25 96.875 134.687 91.4375 134.687H89L89.1875 133.719C89.2812 133.187 89.375 129.312 89.375 125.156V117.594L92.2812 117.406C97.7812 117.031 102.125 115.125 105.812 111.437C116.438 100.812 112.438 83.1875 98.1875 77.875C96.625 77.2812 95.2812 77.0625 92.75 76.9375L89.375 76.7812V71.5312C89.375 68.625 89.4375 66.25 89.5312 66.25C89.625 66.25 90.4375 66.8125 91.3438 67.4688C100.25 74.1875 112.562 76.1562 123.594 72.625C130.688 70.3438 137.062 65.6875 142.031 59.0625C142.875 57.9375 144.844 55.6875 146.406 54.0312C148.719 51.5938 149.531 50.4688 150.719 48.0938C152.281 44.9375 153 42.4375 153.344 39.3125C153.5 37.75 153.719 37.125 154.5 36.1875C157.875 32.2188 159.969 26.4375 160 21.1562C160 19 159.906 18.625 159.25 17.9688C157.875 16.625 157.375 16.6562 147.969 19.0625C137.312 21.7812 136.656 21.8438 121.094 21.875C108.594 21.875 108.094 21.9375 104.969 23.625C103.156 24.625 100.344 27.4688 99.4375 29.2812C99.0625 29.9688 98.375 31.9375 97.9062 33.625C97.1562 36.4062 96.9062 36.875 95.5938 38.1875C94.1562 39.625 91.9062 40.625 90.0938 40.625C89.375 40.625 89.375 40.5625 89.375 37.5V34.4062L90.7188 33.4688C94.0312 31.2188 96.875 27 97.9688 22.7812C98.6875 20.0625 98.4688 14.9688 97.5625 12.375C95.4688 6.5625 90.5312 1.96875 84.8125 0.5C82.2188 -0.15625 77.3125 -0.125 74.8438 0.59375ZM83.2812 6.96875C86.6875 8.03125 89.25 10.25 90.75 13.4375C91.625 15.2812 91.7188 15.75 91.7188 18.4375C91.7188 21.1875 91.625 21.5938 90.6875 23.5C89.4062 26.0938 86.9688 28.4375 84.4375 29.4062C81.9375 30.4062 78.0625 30.4062 75.5625 29.4062C73.0312 28.4375 70.5938 26.0938 69.3125 23.5C68.375 21.5938 68.2812 21.1875 68.2812 18.4375C68.2812 15.75 68.375 15.2812 69.25 13.4375C70.7188 10.3438 73.2812 8.09375 76.5625 7C78.0625 6.5 81.75 6.46875 83.2812 6.96875ZM11.5625 25.7812C20.625 28.0625 18.8125 27.9062 34.8438 28.0938C51.5625 28.3438 51.125 28.25 53.5625 30.9688C54.7188 32.25 55.0312 32.9375 55.7812 35.625C57.625 42.3125 61.6562 46 68.0625 46.9062L70.625 47.2812V52.0312V56.8125L68 59.2812C63.8438 63.2188 59.8438 65.5312 54.75 66.9375C51.25 67.9062 43.7188 67.9062 40.1562 66.9375C37.25 66.125 31.9062 63.5625 30.3125 62.2188L29.2188 61.2812L33.375 61.25H37.5625L38.4688 60.3438C39.7188 59.0625 39.75 57.1875 38.5 55.9688C37.6562 55.125 37.5312 55.0938 32.9688 54.9062C27.8125 54.6875 25.9062 54.2812 22.8125 52.7812C20.1875 51.4688 16.4375 47.75 15.2188 45.25C14.75 44.2812 14.375 43.4062 14.375 43.3438C14.375 43.25 15.1875 43.5312 16.1875 43.9375C19.1875 45.1562 23.2188 45.6875 28.4688 45.5625C33.0625 45.4688 33.125 45.4688 33.9688 44.5938C35.2188 43.375 35.2188 41.3125 33.9688 40.0938C33.125 39.2188 33.0938 39.2188 27.4062 39.0312C21.2188 38.8125 19 38.3125 15.7188 36.375C12.2812 34.4062 8.03125 28.9688 7.34375 25.6875C7.15625 24.75 7.1875 24.6562 7.6875 24.8125C8.03125 24.9062 9.75 25.3438 11.5625 25.7812ZM152.656 25.6875C151.969 28.9688 147.688 34.4062 144.281 36.375C141 38.3125 138.781 38.8125 132.594 39.0312C126.906 39.2188 126.875 39.2188 126.031 40.0938C124.781 41.3125 124.781 43.375 126.031 44.5938C126.875 45.4688 126.938 45.4688 131.531 45.5625C136.781 45.6875 140.812 45.1562 143.812 43.9375C144.812 43.5312 145.625 43.25 145.625 43.3438C145.625 43.4062 145.25 44.2812 144.781 45.25C143.562 47.75 139.812 51.4688 137.188 52.7812C134.094 54.2812 132.188 54.6875 127.031 54.9062C122.469 55.0938 122.344 55.125 121.5 55.9688C120.25 57.1875 120.281 59.0625 121.531 60.3438L122.438 61.25H126.625L130.781 61.2812L129.688 62.2188C128.094 63.5625 122.75 66.125 119.844 66.9375C116.281 67.9062 108.75 67.9062 105.25 66.9375C100.156 65.5312 96.1562 63.2188 92 59.2812L89.375 56.8125V52.0312V47.2812L91.9375 46.9062C98.3438 46 102.375 42.3125 104.219 35.625C104.969 32.9375 105.281 32.25 106.438 30.9688C108.875 28.25 108.438 28.3438 125.156 28.0938C141.375 27.9062 139.812 28.0625 149.531 25.5C151.094 25.0938 152.469 24.7188 152.594 24.7188C152.75 24.6875 152.75 25.1562 152.656 25.6875ZM83.125 73.8125V110.937H80H76.875V73.8125V36.7188H80H83.125V73.8125ZM95.4062 83.9688C100.312 85.5 103.875 89.4688 104.875 94.5C106.625 103.062 99.7812 110.906 90.5625 110.937H89.375V97V83.0938L91.6562 83.2812C92.875 83.4062 94.5938 83.6875 95.4062 83.9688ZM70.625 124.906C70.625 129 70.7188 132.906 70.8438 133.562L71.0312 134.781L66.3438 134.625C62.2188 134.5 61.5 134.375 59.9688 133.687C54.3125 131.094 53.0625 124.187 57.5 119.844C59.4062 117.969 61.0312 117.531 66.1875 117.5H70.625V124.906ZM83.125 120.844C83.125 125.937 82.5625 134.5 82.0625 137.656C81.375 141.875 80.25 146.625 80 146.344C79.625 145.906 78.8125 142.5 78.125 138.594C77.4688 134.687 76.9062 126.656 76.875 120.844V117.5H80H83.125V120.844Z" fill="#DBEEFA"/>
<path d="M65.1875 154.562C64.5312 155.219 64.375 155.688 64.375 156.875C64.375 158.938 65.4375 160 67.5 160C69.5625 160 70.625 158.938 70.625 156.875C70.625 155.688 70.4688 155.219 69.8125 154.562C69.1562 153.906 68.6875 153.75 67.5 153.75C66.3125 153.75 65.8438 153.906 65.1875 154.562Z" fill="#DBEEFA"/>
</g>
<defs>
<clipPath id="clip0_1_901">
<rect width="160" height="160" fill="white"/>
</clipPath>
</defs>
</svg>
