<svg width="7" height="10" viewBox="0 0 7 10" fill="none" xmlns="http://www.w3.org/2000/svg">
<path d="M0.5 0.909375V1.49453L1.64297 1.5082C2.39492 1.51641 2.82969 1.53281 2.91992 1.55469C2.99648 1.57109 3.16055 1.63672 3.28906 1.69688C3.58984 1.8418 3.90977 2.15078 4.06562 2.44883L4.1668 2.64844H2.33477H0.5V3.25V3.85156H2.33203H4.16406L4.06562 4.04844C3.92344 4.33008 3.59531 4.65547 3.31641 4.78945C2.93086 4.97813 2.90898 4.98086 1.64297 4.99453L0.5 5.00547V5.71914V6.43555L2.12148 8.05703L3.74023 9.67578H4.58789H5.43555L3.68828 7.92852L1.94375 6.18398L2.48516 6.16758C3.16055 6.14844 3.3957 6.09648 3.87695 5.85313C4.40742 5.58789 4.83672 5.16953 5.11836 4.6418C5.2332 4.43125 5.39453 3.99375 5.39453 3.90078C5.39453 3.8543 5.43828 3.85156 6.16016 3.85156H6.92578V3.25V2.64844H6.16836H5.4082L5.34531 2.42422C5.27422 2.17266 5.1457 1.88828 5.00078 1.66953C4.94609 1.5875 4.90234 1.51641 4.90234 1.51094C4.90234 1.50547 5.35898 1.5 5.91406 1.5H6.92578V0.912109V0.324219H3.71289H0.5V0.909375Z" fill="#1A998E"/>
</svg>
