<svg width="16" height="16" viewBox="0 0 16 16" fill="none" xmlns="http://www.w3.org/2000/svg">
<g clip-path="url(#clip0_305_349)">
<path d="M5.70308 0.0625C4.2437 0.2875 2.96245 0.9375 1.92183 1.98438C0.849951 3.05937 0.215576 4.35 0.0312012 5.84375C-0.00942383 6.18437 -0.00942383 7.06563 0.0312012 7.40625C0.149951 8.35625 0.487451 9.32188 0.978076 10.0938C1.5187 10.9531 2.34058 11.7625 3.19058 12.275C4.03433 12.7812 4.96558 13.1 5.93745 13.2187C6.33745 13.2656 7.22495 13.2562 7.6312 13.2C8.79683 13.0375 9.85308 12.6156 10.7562 11.95C10.8625 11.875 10.9593 11.8156 10.9718 11.8187C10.9843 11.825 11.925 12.7406 13.0625 13.8594C14.2 14.975 15.1718 15.9156 15.2281 15.9437C15.4406 16.0625 15.7781 15.9906 15.9125 15.8031C15.9937 15.6875 16.025 15.4156 15.9687 15.2812C15.9406 15.2094 13.025 12.3031 11.8625 11.1844L11.7406 11.0656L11.9343 10.8375C12.3781 10.3187 12.8625 9.47812 13.0906 8.83125C13.6781 7.16562 13.5812 5.34375 12.8281 3.7875C12.4812 3.07187 12.0906 2.525 11.5062 1.94375C10.4468 0.8875 9.04995 0.215625 7.5312 0.03125C7.10308 -0.0187492 6.13433 -0.00312424 5.70308 0.0625ZM7.19683 1.0625C9.60933 1.2625 11.6125 2.92813 12.2281 5.25C12.3531 5.725 12.3906 6.0375 12.3906 6.625C12.3906 7.2125 12.3531 7.525 12.2281 8C11.9656 8.98437 11.4875 9.81875 10.7625 10.5437C9.23745 12.0719 6.9562 12.6 4.89683 11.9031C3.27183 11.3531 1.96245 10.0844 1.39683 8.51562C0.818701 6.9125 0.993701 5.16562 1.87495 3.74375C2.9062 2.08438 4.67495 1.08438 6.67183 1.0375C6.75933 1.03438 6.9937 1.04688 7.19683 1.0625Z" fill="#2D3748"/>
</g>
<defs>
<clipPath id="clip0_305_349">
<rect width="16" height="16" fill="white"/>
</clipPath>
</defs>
</svg>
