<svg width="101" height="100" viewBox="0 0 101 100" fill="none" xmlns="http://www.w3.org/2000/svg">
<g clip-path="url(#clip0_4_1413)">
<path d="M14.7131 0.410156C13.3239 0.957031 11.8956 2.38281 11.3674 3.80859C11.0347 4.6875 10.9565 5.35156 10.9565 7.10938V9.33594L8.27602 9.41406C5.77164 9.47266 5.49772 9.53125 4.40206 10.0586C2.91508 10.7812 1.40854 12.2656 0.665054 13.7695L0.0976562 14.9414V54.6875V94.4336L0.665054 95.6055C1.40854 97.1094 2.89552 98.5938 4.40206 99.3359L5.57598 99.9023H50.0874H94.5988L95.7727 99.3359C96.4184 99.0039 97.3967 98.3008 97.9445 97.7734C98.4728 97.2266 99.1771 96.25 99.5097 95.6055C100.038 94.5117 100.077 94.2578 100.136 91.7578L100.214 89.0625H98.6489H97.1032L97.0054 91.0742C96.8684 93.4766 96.4967 94.4922 95.3423 95.5273C93.8553 96.875 97.3771 96.7773 49.9896 96.7773H6.94557L6.06512 96.3672C4.94989 95.8398 4.16727 95.0586 3.639 93.9453L3.22813 93.0664L3.16943 60.5859L3.1303 28.125H10.1739H17.2174V26.5625V25H10.1543H3.09117L3.16943 20.6445C3.22813 16.7578 3.28683 16.2109 3.639 15.4297C4.57815 13.4375 5.86947 12.7148 8.82385 12.5586L10.9565 12.4414V14.707C10.9565 17.5586 11.3282 18.7109 12.7174 20.1172C15.8478 23.2227 21.561 22.1094 23.0675 18.0664C23.4001 17.1875 23.4784 16.5234 23.4784 14.7461V12.5H33.6524H43.8265V14.7461C43.8265 17.5586 44.1982 18.7305 45.5873 20.1172C48.7178 23.2227 54.4309 22.1094 55.9375 18.0664C56.2701 17.1875 56.3483 16.5234 56.3483 14.7461V12.5H66.5224H76.6964V14.7461C76.6964 17.5586 77.0682 18.7305 78.4573 20.1172C81.5878 23.2227 87.3009 22.1094 88.8074 18.0664C89.14 17.1875 89.2183 16.5234 89.2183 14.707V12.4414L91.3509 12.5586C94.3053 12.7148 95.5966 13.4375 96.5358 15.4297C96.888 16.2109 96.9467 16.7578 97.0054 20.6445L97.0836 25H61.8462H26.6088V26.5625V28.125H61.8267H97.0445V53.9062V79.6875H98.6097H100.175L100.136 47.3047L100.077 14.9414L99.5097 13.7695C98.7663 12.2656 97.2793 10.7812 95.7727 10.0391C94.6771 9.51172 94.4227 9.47266 91.9183 9.41406L89.2183 9.33594V7.10938C89.2183 4.31641 88.827 3.14453 87.4574 1.75781C84.3269 -1.34766 78.6138 -0.234375 77.1073 3.80859C76.7747 4.6875 76.6964 5.35156 76.6964 7.12891V9.375H66.5224H56.3483V7.12891C56.3483 5.35156 56.2701 4.6875 55.9375 3.80859C54.4309 -0.234375 48.7178 -1.34766 45.5873 1.75781C44.1982 3.14453 43.8265 4.31641 43.8265 7.12891V9.375H33.6524H23.4784V7.12891C23.4784 4.31641 23.1066 3.14453 21.7175 1.75781C19.9762 0.0390625 17.1196 -0.507812 14.7131 0.410156ZM18.7827 3.76953C19.1544 4.00391 19.624 4.51172 19.8392 4.88281C20.2305 5.52734 20.2501 5.87891 20.2501 10.9375C20.2501 15.9961 20.2305 16.3477 19.8392 16.9922C18.6066 19.082 15.8283 19.082 14.5957 16.9922C14.2043 16.3477 14.1848 15.9961 14.1848 10.9375C14.1848 5.87891 14.2043 5.52734 14.5957 4.88281C15.1826 3.88672 16.1218 3.32031 17.2174 3.32031C17.8435 3.32031 18.3522 3.45703 18.7827 3.76953ZM51.6526 3.76953C52.0244 4.00391 52.4939 4.51172 52.7092 4.88281C53.1005 5.52734 53.12 5.87891 53.12 10.9375C53.12 15.9961 53.1005 16.3477 52.7092 16.9922C51.4765 19.082 48.6982 19.082 47.4656 16.9922C47.0743 16.3477 47.0547 15.9961 47.0547 10.9375C47.0547 5.87891 47.0743 5.52734 47.4656 4.88281C48.0526 3.88672 48.9917 3.32031 50.0874 3.32031C50.7135 3.32031 51.2222 3.45703 51.6526 3.76953ZM84.5226 3.76953C84.8943 4.00391 85.3639 4.51172 85.5791 4.88281C85.9704 5.52734 85.99 5.87891 85.99 10.9375C85.99 15.9961 85.9704 16.3477 85.5791 16.9922C84.3465 19.082 81.5682 19.082 80.3356 16.9922C79.9443 16.3477 79.9247 15.9961 79.9247 10.9375C79.9247 5.87891 79.9443 5.52734 80.3356 4.88281C80.9226 3.88672 81.8617 3.32031 82.9574 3.32031C83.5835 3.32031 84.0922 3.45703 84.5226 3.76953Z" fill="#888888"/>
<path d="M20.3481 26.5625V28.125H21.9134H23.4786V26.5625V25H21.9134H20.3481V26.5625Z" fill="#888888"/>
<path d="M45.3331 36.2501C40.6961 37.0899 36.1569 39.2774 32.4786 42.4415C28.0373 46.2696 24.809 52.0118 23.772 57.9493C23.3807 60.1954 23.3807 64.8047 23.772 67.0508C25.709 78.1055 34.4352 86.8165 45.4897 88.7501C47.7592 89.1407 52.1615 89.1602 54.5876 88.7696C62.7855 87.4415 70.1421 81.9922 73.9378 74.4532C75.8357 70.6837 76.6966 66.9141 76.6966 62.4024C76.6966 57.8907 75.8357 54.2969 73.8204 50.3321C70.0247 42.9102 62.9029 37.6758 54.6659 36.2305C52.5332 35.8594 47.4462 35.879 45.3331 36.2501ZM52.4354 39.336C57.3854 39.6876 62.7268 42.2266 66.5225 46.0743C69.6139 49.1797 71.6095 52.5977 72.7248 56.7774C73.2139 58.5352 73.253 58.9844 73.253 62.5001C73.253 66.0157 73.2139 66.4649 72.7248 68.2227C72.0791 70.6641 71.14 72.8126 69.8095 74.961C68.4008 77.2657 64.879 80.7813 62.5703 82.1876C54.7441 86.9922 45.431 86.9922 37.6048 82.1876C35.2961 80.7813 31.7743 77.2657 30.3656 74.961C26.2372 68.2618 25.6112 60.1563 28.7221 53.1446C31.0308 47.9102 35.6091 43.3594 40.8331 41.0938C43.6505 39.8829 48.3462 38.9454 50.4788 39.1797C50.7528 39.2188 51.6332 39.2774 52.4354 39.336Z" fill="#888888"/>
<path d="M50.1268 43.7695L50.1855 45.4102L51.6529 45.5273C56.466 45.9375 60.9465 48.4961 63.94 52.5586C65.6618 54.8828 67.1096 58.8867 67.1096 61.3672V62.5H68.8118H70.4945L70.3771 60.5859C70.0836 55.9766 67.8922 51.3867 64.3313 47.9297C60.8487 44.5312 56.4856 42.5195 51.9855 42.2461L50.0681 42.1289L50.1268 43.7695Z" fill="#888888"/>
<path d="M44.218 50.3906C43.8658 50.7421 43.8267 51.0351 43.8267 53.5156V56.2499H41.0875C37.2527 56.2499 37.5657 55.6835 37.5657 62.4999C37.5657 69.3164 37.2527 68.7499 41.0875 68.7499H43.8267V71.4843C43.8267 75.3124 43.2593 74.9999 50.0876 74.9999C56.916 74.9999 56.3486 75.3124 56.3486 71.4843V68.7499H59.0877C62.9226 68.7499 62.6095 69.3164 62.6095 62.4999C62.6095 55.6835 62.9226 56.2499 59.0877 56.2499H56.3486V53.5156C56.3486 49.6874 56.916 49.9999 50.0876 49.9999C44.8637 49.9999 44.5897 50.0195 44.218 50.3906ZM53.2181 55.8593C53.2181 58.3398 53.2572 58.6328 53.6094 58.9843C53.9616 59.3359 54.2551 59.3749 56.7399 59.3749H59.479V62.4999V65.6249H56.7399C54.2551 65.6249 53.9616 65.664 53.6094 66.0156C53.2572 66.3671 53.2181 66.6601 53.2181 69.1406V71.8749H50.0876H46.9572V69.1406C46.9572 66.6601 46.918 66.3671 46.5658 66.0156C46.2137 65.664 45.9202 65.6249 43.4354 65.6249H40.6962V62.4999V59.3749H43.4354C45.9202 59.3749 46.2137 59.3359 46.5658 58.9843C46.918 58.6328 46.9572 58.3398 46.9572 55.8593V53.1249H50.0876H53.2181V55.8593Z" fill="#888888"/>
<path d="M67.3052 67.1875V68.75H68.8704H70.4356V67.1875V65.625H68.8704H67.3052V67.1875Z" fill="#888888"/>
<path d="M97.0447 84.375V85.9375H98.6099H100.175V84.375V82.8125H98.6099H97.0447V84.375Z" fill="#888888"/>
</g>
<defs>
<clipPath id="clip0_4_1413">
<rect width="100.175" height="100" fill="white"/>
</clipPath>
</defs>
</svg>
