<svg width="24" height="24" viewBox="0 0 24 24" fill="none" xmlns="http://www.w3.org/2000/svg">
<circle cx="12" cy="12" r="12" fill="#51A7D6"/>
<path d="M9.62822 12.0381C10.1247 13.0634 10.9538 13.8904 11.9803 14.3842C12.0561 14.4201 12.1398 14.4356 12.2234 14.4292C12.3069 14.4229 12.3874 14.3949 12.4568 14.348L13.9646 13.3408C14.0312 13.2957 14.1082 13.2681 14.1883 13.2607C14.2685 13.2533 14.3492 13.2664 14.4229 13.2986L17.2455 14.5109C17.3419 14.551 17.4225 14.6218 17.4748 14.7122C17.5271 14.8027 17.5483 14.9078 17.535 15.0114C17.4455 15.7097 17.1047 16.3514 16.5763 16.8165C16.0479 17.2816 15.3681 17.5383 14.6642 17.5385C12.4888 17.5385 10.4025 16.6743 8.8643 15.1361C7.32608 13.5979 6.46191 11.5116 6.46191 9.3362C6.46207 8.63226 6.71873 7.95249 7.18385 7.42409C7.64897 6.89569 8.29069 6.55488 8.98893 6.46542C9.09257 6.4521 9.19771 6.47323 9.28816 6.52554C9.37861 6.57785 9.44936 6.65844 9.48951 6.75491L10.7018 9.58348C10.7333 9.65606 10.7465 9.73528 10.7402 9.81416C10.7338 9.89304 10.7082 9.96916 10.6656 10.0358L9.65838 11.5677C9.61354 11.637 9.58722 11.7166 9.58194 11.799C9.57666 11.8813 9.5926 11.9637 9.62822 12.0381Z" fill="white"/>
</svg>
