<svg width="64" height="64" viewBox="0 0 64 64" fill="none" xmlns="http://www.w3.org/2000/svg">
<path d="M31.4 3.08747C31.3125 3.12497 30.5625 4.51247 29.725 6.16247C28.9 7.82497 28.1625 9.22497 28.1 9.26247C28.0375 9.29997 26.6875 9.51247 25.0875 9.73747C23.4875 9.96247 21.975 10.2 21.725 10.2625C21.175 10.4 21 10.675 21 11.3375C21 11.7875 21.1125 11.925 23.425 14.1875L25.8625 16.5625L25.2875 19.9125L24.7 23.25L24.9625 23.6C25.1 23.7875 25.3875 23.9875 25.6 24.05C25.95 24.15 26.275 24 29 22.575L32.0125 20.9875L34.9125 22.525C38.1125 24.2125 38.4375 24.3 38.95 23.7C39.1125 23.5125 39.25 23.2375 39.25 23.0875C39.2375 22.9375 38.9875 21.4 38.6875 19.6875L38.1375 16.5625L40.575 14.1875C42.975 11.8375 43 11.8125 43 11.275C43 10.7875 42.7 10.2625 42.4125 10.25C42.1 10.2375 35.8625 9.27497 35.825 9.23747C35.8 9.21247 35.1 7.82497 34.275 6.17497C33.4375 4.51247 32.675 3.12497 32.5625 3.07497C32.325 2.98747 31.6375 2.98747 31.4 3.08747ZM34.4125 11.1C34.525 11.2 35.7125 11.425 37.0625 11.625C38.4125 11.825 39.55 12 39.575 12.0375C39.6125 12.0625 38.8125 12.875 37.8125 13.8375C35.675 15.9125 35.7875 15.5 36.375 18.8C36.575 19.9625 36.725 20.9375 36.7 20.9625C36.6875 20.9875 35.7 20.5 34.525 19.875C33.1625 19.1625 32.25 18.75 32 18.75C31.75 18.75 30.8375 19.15 29.475 19.875C28.3 20.5 27.325 20.9875 27.3 20.9625C27.275 20.9375 27.425 19.9625 27.625 18.8C28.2125 15.5 28.325 15.9125 26.1875 13.8375C25.1875 12.875 24.3875 12.0625 24.425 12.0375C24.45 12 25.5875 11.825 26.9375 11.625C28.2875 11.425 29.475 11.2 29.575 11.1125C29.6875 11.025 30.275 9.94997 30.8875 8.72497L32.0125 6.48747L33.1125 8.71247C33.725 9.93747 34.3 11.0125 34.4125 11.1Z" fill="#888888"/>
<path d="M13.4 11.0875C13.3125 11.125 12.7 12.225 12.0375 13.5375C11.3875 14.8625 10.825 15.9625 10.8 15.9875C10.775 16.0125 9.575 16.2125 8.1375 16.425C5.1625 16.875 5 16.95 5 17.8C5 18.2875 5.075 18.3875 6.925 20.25L8.85 22.1875L8.425 24.5625C7.925 27.4375 7.9125 27.55 8.3125 27.9375C8.8125 28.45 9.2 28.35 11.6 27.0875C12.825 26.4625 13.9 25.9375 14 25.9375C14.1 25.9375 15.175 26.4625 16.4 27.0875C18.8 28.35 19.1875 28.45 19.6875 27.9375C20.0875 27.55 20.075 27.45 19.575 24.5375L19.1625 22.15L21.0875 20.225L23.0125 18.3125L22.975 17.7625C22.9125 16.9125 22.7 16.8125 20 16.4375C18.725 16.2625 17.575 16.1 17.4375 16.0625C17.25 16.025 16.8625 15.3625 16 13.625C15.35 12.3 14.7125 11.175 14.6 11.1125C14.375 10.9875 13.675 10.975 13.4 11.0875ZM15.7875 17.8625C15.9 17.95 16.8125 18.1375 17.8125 18.2875L19.6375 18.5375L18.325 19.8625C17.0375 21.1625 17 21.2125 17 21.75C17 22.0625 17.1125 22.925 17.25 23.675C17.3875 24.425 17.5 25.0875 17.5 25.1375C17.5 25.1875 16.7125 24.825 15.75 24.325L14 23.4375L12.25 24.3375C11.2875 24.825 10.5 25.1875 10.5 25.1375C10.5 25.0875 10.6125 24.425 10.75 23.675C11.175 21.3125 11.2125 21.425 9.6875 19.875L8.3625 18.5375L10.1875 18.2875C11.1875 18.1375 12.1 17.95 12.2 17.8625C12.3125 17.775 12.7625 16.975 13.2 16.0875L14.0125 14.4875L14.8 16.0875C15.2375 16.9625 15.675 17.7625 15.7875 17.8625Z" fill="#888888"/>
<path d="M49.4 11.0875C49.3125 11.125 48.7 12.225 48.0375 13.5375C47.3875 14.8625 46.825 15.9625 46.8 15.9875C46.775 16.0125 45.575 16.2125 44.1375 16.425C41.1625 16.875 41 16.95 41 17.8C41 18.2875 41.075 18.3875 42.925 20.25L44.85 22.1875L44.425 24.5625C43.925 27.4375 43.9125 27.55 44.3125 27.9375C44.8125 28.45 45.2 28.35 47.6 27.0875C48.825 26.4625 49.9 25.9375 50 25.9375C50.1 25.9375 51.175 26.4625 52.4 27.0875C54.8 28.35 55.1875 28.45 55.6875 27.9375C56.0875 27.55 56.075 27.45 55.575 24.5375L55.1625 22.15L57.0875 20.225L59.0125 18.3125L58.975 17.7625C58.9125 16.9125 58.7 16.8125 56 16.4375C54.725 16.2625 53.575 16.1 53.4375 16.0625C53.25 16.025 52.8625 15.3625 52 13.625C51.35 12.3 50.7125 11.175 50.6 11.1125C50.375 10.9875 49.675 10.975 49.4 11.0875ZM51.7875 17.8625C51.9 17.95 52.8125 18.1375 53.8125 18.2875L55.6375 18.5375L54.325 19.8625C53.0375 21.1625 53 21.2125 53 21.75C53 22.0625 53.1125 22.925 53.25 23.675C53.3875 24.425 53.5 25.0875 53.5 25.1375C53.5 25.1875 52.7125 24.825 51.75 24.325L50 23.4375L48.25 24.3375C47.2875 24.825 46.5 25.1875 46.5 25.1375C46.5 25.0875 46.6125 24.425 46.75 23.675C47.175 21.3125 47.2125 21.425 45.6875 19.875L44.3625 18.5375L46.1875 18.2875C47.1875 18.1375 48.1 17.95 48.2 17.8625C48.3125 17.775 48.7625 16.975 49.2 16.0875L50.0125 14.4875L50.8 16.0875C51.2375 16.9625 51.675 17.7625 51.7875 17.8625Z" fill="#888888"/>
<path d="M29.8124 27.2375C27.1124 28.0125 24.8874 30.275 24.1999 32.95C23.9374 33.9625 23.9374 36.0375 24.1999 37.05C24.5374 38.35 25.3249 39.6875 26.3499 40.725C26.8624 41.225 27.2499 41.65 27.2249 41.675C27.2124 41.6875 26.8499 41.825 26.4374 41.9875C22.1499 43.6625 18.7624 47.4125 17.5124 51.8875C17.3749 52.4 17.2499 52.95 17.2499 53.1C17.2499 53.25 17.1874 53.375 17.1124 53.375C16.9124 53.375 15.3499 51.8375 14.4374 50.75C11.7249 47.5 9.9499 43.5375 9.3124 39.275C9.0874 37.8 9.0749 34.8125 9.2749 32.975C9.4249 31.6375 9.4249 31.625 9.1249 31.3125C8.7499 30.9125 7.8999 30.875 7.5749 31.2375C6.8874 31.9875 6.8124 38.025 7.4374 41C9.5249 50.925 17.0624 58.525 26.7749 60.5C27.9249 60.7375 28.1499 60.75 28.4624 60.6C28.9624 60.3625 29.1749 59.85 28.9999 59.325C28.8374 58.8125 28.5999 58.6875 27.1249 58.375C24.7249 57.8625 22.0249 56.7875 20.0249 55.5375L19.0999 54.975L19.1874 54.325C19.7749 50 22.3999 46.35 26.3124 44.4375C27.8874 43.6625 29.2624 43.275 30.8749 43.15C33.3374 42.95 35.4749 43.35 37.6874 44.4375C41.5999 46.35 44.2249 50 44.8124 54.325L44.8999 54.975L43.9749 55.5375C41.9749 56.7875 39.2749 57.8625 36.8749 58.375C35.3999 58.6875 35.1624 58.8125 34.9999 59.325C34.8249 59.85 35.0374 60.3625 35.5374 60.6C35.8499 60.75 36.0749 60.7375 37.2249 60.5C46.9374 58.525 54.4749 50.925 56.5624 41C57.1874 38.025 57.1124 31.9875 56.4249 31.2375C56.0999 30.875 55.2499 30.9125 54.8749 31.3125C54.5749 31.625 54.5749 31.6375 54.7249 32.975C54.9249 34.825 54.9124 37.8125 54.6874 39.3125C53.9249 44.3625 51.5249 49.05 47.8999 52.525C46.9874 53.4 46.7499 53.5375 46.7499 53.15C46.7499 52.6875 46.2249 50.9625 45.7749 49.9C44.2499 46.375 40.9499 43.2125 37.4374 41.9375C37.0999 41.8125 36.7874 41.6875 36.7749 41.675C36.7499 41.6625 37.1374 41.225 37.6499 40.725C39.2624 39.1125 39.9999 37.3125 39.9999 34.95C39.9999 33.45 39.7749 32.5125 39.0874 31.1875C38.1124 29.3 36.1374 27.7375 34.0499 27.2C32.9999 26.925 30.8124 26.95 29.8124 27.2375ZM33.8124 29.375C35.1749 29.85 36.4374 30.875 37.1499 32.125C38.1249 33.8 38.1249 36.2 37.1499 37.875C35.1374 41.35 30.4374 41.925 27.7249 39.025C26.6249 37.85 26.1249 36.6 26.1249 35C26.1249 32.9375 27.1374 31.125 28.8874 29.9875C30.2499 29.125 32.3249 28.8625 33.8124 29.375Z" fill="#888888"/>
<path d="M31.25 59.25C31.0875 59.4125 31 59.6625 31 60C31 60.6625 31.3375 61 32 61C32.6625 61 33 60.6625 33 60C33 59.3375 32.6625 59 32 59C31.6625 59 31.4125 59.0875 31.25 59.25Z" fill="#888888"/>
</svg>
