<svg width="16" height="16" viewBox="0 0 16 16" fill="none" xmlns="http://www.w3.org/2000/svg">
<path d="M0.41251 0.0812407C0.140635 0.215615 1.01663e-05 0.459365 1.01663e-05 0.78749C1.01663e-05 0.915615 0.0218852 1.03437 0.0656352 1.12499C0.11251 1.23437 0.871885 2.00937 3.49376 4.63124L6.85938 7.99999L3.48126 11.3812C-0.271865 15.1406 -0.0187398 14.8562 0.00626017 15.275C0.0281352 15.6969 0.303135 15.9719 0.72501 15.9937C1.14376 16.0187 0.859385 16.2719 4.61876 12.5187L8.00001 9.14062L11.3844 12.5187C15.1406 16.2719 14.8563 16.0187 15.275 15.9937C15.6969 15.9719 15.9719 15.6969 15.9938 15.275C16.0188 14.8562 16.2719 15.1406 12.5188 11.3844L9.14063 7.99999L12.5188 4.61562C16.2719 0.859366 16.0188 1.14374 15.9938 0.72499C15.9719 0.303115 15.6969 0.0281153 15.275 0.00623989C14.8563 -0.0187588 15.1406 -0.271883 11.3813 3.48124L8.00001 6.85937L4.63126 3.49374C2.00939 0.871866 1.23439 0.112491 1.12501 0.0656157C0.915635 -0.0312595 0.621885 -0.0218849 0.41251 0.0812407Z" fill="white"/>
</svg>
