<svg width="175" height="175" viewBox="0 0 175 175" fill="none" xmlns="http://www.w3.org/2000/svg">
<circle cx="87.5" cy="87.5" r="87.5" fill="#5FC69B" fill-opacity="0.05"/>
<g clip-path="url(#clip0_4_1271)">
<path d="M100.798 41.5769C100.634 41.7399 100.256 42.6366 99.9609 43.5658C99.682 44.495 99.2883 45.7666 99.0914 46.4024C98.9109 47.0219 98.7141 47.5925 98.6484 47.6577C98.5992 47.7229 97.2375 48.1794 95.6133 48.6685C92.4469 49.6466 92.0859 49.8585 92.0859 50.7878C92.0859 51.6518 92.5453 51.9615 94.9078 52.6789C96.1055 53.0375 97.4508 53.4777 97.8937 53.6244L98.7141 53.9015L99.3375 55.9393C99.682 57.0642 100.076 58.3684 100.223 58.8575C100.568 59.966 100.929 60.341 101.733 60.341C102.701 60.341 102.947 59.9334 103.898 56.836C104.374 55.3035 104.801 53.9994 104.883 53.9341C104.948 53.8526 106.294 53.3962 107.852 52.9071C111.38 51.8311 111.888 51.4073 111.199 50.0705C110.986 49.6792 110.707 49.5325 109.28 49.0923C108.345 48.8152 106.966 48.3913 106.212 48.1468L104.817 47.7066L103.882 44.6907C103.308 42.8485 102.832 41.6095 102.652 41.4791C102.209 41.153 101.159 41.2182 100.798 41.5769ZM102.143 48.5543C102.291 49.076 102.487 49.5977 102.57 49.7281C102.635 49.8422 103.275 50.1357 103.964 50.3802L105.211 50.8204L103.964 51.179C102.783 51.5377 102.717 51.5703 102.405 52.255C102.241 52.6463 102.045 53.2005 101.995 53.4777C101.93 53.7548 101.831 53.9831 101.766 53.9831C101.7 53.9831 101.52 53.5592 101.372 53.0375C101.044 51.8474 100.65 51.4725 99.3211 51.1138L98.2711 50.8204L99.3867 50.4454C100.01 50.2498 100.634 49.9563 100.781 49.8259C100.929 49.6955 101.191 49.1412 101.355 48.6032C101.52 48.0653 101.7 47.6251 101.766 47.6251C101.831 47.6251 101.995 48.049 102.143 48.5543Z" fill="#FED337"/>
<path d="M67.3124 49.1902C61.8983 49.8749 57.764 51.8475 54.089 55.5155C52.0382 57.5533 50.9062 59.1347 49.7413 61.5474C47.4444 66.3403 47.0015 71.8506 48.5108 76.9858C49.0851 78.9584 49.528 79.8714 50.8897 81.9418C52.2515 83.9959 54.7124 88.8703 55.5655 91.1527C56.9929 95.0163 57.4687 97.0052 59.2733 106.558C61.439 117.97 63.2108 122.861 65.721 124.312C66.6562 124.866 68.0343 124.899 69.0679 124.393C70.0194 123.937 71.496 122.29 72.464 120.562C74.203 117.53 76.4343 111.596 77.3202 107.667C78.5507 102.173 80.0108 98.2931 81.2577 97.103L81.7499 96.6303L82.1765 97.0215C83.4562 98.2279 84.8507 101.945 86.0976 107.52C87.1804 112.264 89.5429 118.313 91.6101 121.573C92.3647 122.747 93.8249 124.165 94.6288 124.491C94.9405 124.622 95.564 124.736 96.0233 124.736C98.7632 124.736 100.65 121.752 102.487 114.547C103.045 112.411 103.587 109.705 105.211 101.26C105.588 99.3365 106.113 96.9074 106.376 95.8804C107.376 92.1634 109.198 87.7291 111.068 84.4524C112.2 82.4471 112.298 82.17 112.069 81.5179C111.872 80.9473 111.494 80.7191 110.723 80.7191C110.264 80.7191 110.067 80.8332 109.673 81.306C108.984 82.1374 106.704 86.6206 105.736 89.0333C104.013 93.3209 103.324 95.9456 101.93 103.461C99.8788 114.449 98.4515 119.454 96.7616 121.459C96.171 122.144 95.7608 122.095 94.9405 121.247C92.939 119.16 90.0022 112.036 88.5421 105.743C86.3272 96.076 83.4233 92.3427 79.896 94.5762C78.0257 95.7499 76.221 99.8745 74.7772 106.232C73.2351 113.096 69.4452 121.459 67.7062 121.899C66.8038 122.127 65.7538 120.481 64.6218 117.041C63.703 114.27 62.9647 111.042 61.8163 104.928C60.5694 98.2605 60.3397 97.103 59.6671 94.674C58.2726 89.6202 55.9921 84.5502 53.0718 80.067C51.628 77.8499 50.9882 76.0892 50.578 73.3015C49.4788 65.5252 53.8101 57.4392 60.9796 53.9342C64.6218 52.1572 68.428 51.5214 72.2343 52.092C75.0233 52.5159 77.878 53.6081 80.1585 55.1406C81.6022 56.1187 81.7335 56.1187 83.7022 54.896C84.6374 54.3091 86.0976 53.5592 86.9343 53.2332C88.9522 52.467 89.428 51.8801 88.9522 50.8204C88.6569 50.2009 87.9351 49.9727 87.0163 50.2172C86.2616 50.4128 83.046 51.9127 82.2093 52.4507C81.7663 52.7441 81.7499 52.7441 81.1429 52.3691C78.9772 51.0812 76.0733 49.9564 73.6616 49.4999C72.3327 49.2391 68.428 49.0597 67.3124 49.1902Z" fill="#FED337"/>
<path d="M113.512 54.1298C113.365 54.2928 112.725 56.1024 112.085 58.1565C111.445 60.2106 110.855 61.9386 110.773 61.9876C110.674 62.0365 108.968 62.5744 106.966 63.1776C103.062 64.3514 102.586 64.6122 102.586 65.5578C102.586 66.5033 103.062 66.7642 106.966 67.9379C108.968 68.5411 110.674 69.0791 110.773 69.128C110.855 69.1769 111.445 70.905 112.085 72.9591C112.725 75.0132 113.365 76.8228 113.512 76.9858C113.939 77.4586 115.104 77.4097 115.498 76.9043C115.662 76.6924 116.318 74.8665 116.941 72.8287L118.073 69.1443L119.058 68.8346C119.616 68.6553 121.322 68.1336 122.848 67.6771C125.85 66.7805 126.375 66.4707 126.375 65.5578C126.375 64.7264 125.801 64.3351 123.75 63.7156C122.716 63.3896 121.01 62.8679 119.977 62.5581L118.073 61.9713L116.941 58.2869C116.318 56.2491 115.662 54.4232 115.498 54.2113C115.104 53.7059 113.939 53.657 113.512 54.1298ZM115.12 61.955C115.432 62.9657 115.809 63.9275 115.957 64.0906C116.088 64.2373 117.056 64.6122 118.09 64.922C119.123 65.2317 119.977 65.5089 119.977 65.5578C119.977 65.6067 119.123 65.8838 118.073 66.1936C116.81 66.5685 116.088 66.8783 115.908 67.1065C115.76 67.3022 115.383 68.3129 115.071 69.3563L114.497 71.2636L113.89 69.291C113.562 68.2151 113.168 67.2043 113.02 67.0413C112.873 66.8783 111.905 66.5033 110.871 66.1936C109.837 65.8838 108.984 65.6067 108.984 65.5578C108.984 65.5089 109.837 65.2317 110.887 64.922C112.184 64.5307 112.873 64.2373 113.07 63.9928C113.217 63.7971 113.595 62.7864 113.906 61.743C114.218 60.6997 114.497 59.9171 114.513 59.9824C114.546 60.0476 114.809 60.9279 115.12 61.955Z" fill="#FED337"/>
<path d="M66.0984 54.733C57.764 56.5752 52.1859 64.1558 53.0554 72.4537C53.3015 74.9154 54.089 77.4097 54.7289 77.8662C55.5164 78.4041 56.6812 77.9803 56.9109 77.051C56.9601 76.8228 56.8617 76.2685 56.6484 75.7305C55.4179 72.4211 55.5328 68.4759 56.9437 65.3459C58.4203 62.1017 61.0453 59.5748 64.2937 58.2217C68.3953 56.5263 73.3664 56.999 77.0414 59.4281C78.321 60.2758 78.8296 60.341 79.4531 59.7215C79.9781 59.1999 80.0765 58.613 79.7648 58.0424C79.5515 57.6348 77.6976 56.4284 76.4015 55.8579C74.1375 54.8634 72.8414 54.5863 69.9375 54.5374C67.9359 54.4885 66.9351 54.5537 66.0984 54.733Z" fill="#FED337"/>
<path d="M91.9874 57.1946C91.7906 57.2273 91.5117 57.3903 91.3804 57.537C91.2492 57.6837 90.4945 59.8682 89.7234 62.3625C88.9359 64.8731 88.2796 66.9435 88.2632 66.9761C88.2304 66.9924 86.1468 67.6445 83.6203 68.427C81.1101 69.1932 78.9117 69.9432 78.764 70.0736C78.321 70.4648 78.3703 71.606 78.846 72.0299C79.0593 72.2418 80.9296 72.8776 83.7515 73.7253L88.2796 75.0947L89.6906 79.6594C91.1999 84.5501 91.4132 84.9577 92.3976 84.9577C93.3492 84.9577 93.5132 84.648 95.039 79.7409L96.4828 75.111L101.126 73.6927C104.587 72.6331 105.851 72.1766 106.064 71.9158C106.458 71.4267 106.441 70.5953 106.031 70.1551C105.703 69.8127 105.359 69.6986 99.4851 67.9217C97.9265 67.4326 96.5812 66.9924 96.5156 66.9109C96.4499 66.8457 95.7773 64.8079 95.039 62.3788C94.2843 59.9661 93.5953 57.8467 93.4968 57.7C93.3656 57.4718 92.4304 56.999 92.3484 57.0968C92.332 57.1131 92.1679 57.162 91.9874 57.1946ZM93.0703 65.5904C94.0382 68.7042 94.1859 69.0791 94.596 69.2748C94.7929 69.3889 96.1382 69.829 97.582 70.2692C99.0257 70.7257 100.158 71.0843 100.109 71.0843C99.6164 71.1332 94.5796 72.7961 94.3828 72.9754C94.2187 73.1221 93.7429 74.3774 93.3164 75.7957C92.8898 77.1977 92.4796 78.4041 92.414 78.4856C92.3648 78.5508 92.1843 78.2248 92.0531 77.752C90.5765 72.9917 90.6093 73.0569 90.1499 72.8287C89.9039 72.7146 88.6734 72.2907 87.4101 71.9158C86.1468 71.5408 85.0148 71.1821 84.8999 71.1169C84.7851 71.0517 85.9007 70.6442 87.3609 70.204C88.9687 69.7149 90.1664 69.2585 90.3632 69.0628C90.5765 68.8672 91.0195 67.6771 91.5117 66.0795C91.9546 64.6286 92.3484 63.4385 92.3648 63.4385C92.3812 63.4385 92.7093 64.4166 93.0703 65.5904Z" fill="#FED337"/>
</g>
<defs>
<clipPath id="clip0_4_1271">
<rect width="84" height="83.4685" fill="white" transform="translate(45 41.2672)"/>
</clipPath>
</defs>
</svg>
