<svg width="175" height="175" viewBox="0 0 175 175" fill="none" xmlns="http://www.w3.org/2000/svg">
<circle cx="87.5" cy="87.5" r="87.5" fill="#5FC69B" fill-opacity="0.05"/>
<g clip-path="url(#clip0_4_1297)">
<path d="M71.807 46.2297C70.675 46.5906 69.7398 47.2305 68.7555 48.2969L67.8367 49.2812L67 48.6906C63.4398 46.1313 58.4195 47.3781 56.5164 51.2828C55.8109 52.7102 55.6797 53.6453 55.6797 57.0578V60.0273L54.6625 60.2242C54.0883 60.3391 52.9234 60.7656 52.0703 61.1922C49.5109 62.4719 47.5586 64.6867 46.525 67.525L46.082 68.7227V78.9766V89.2305L46.5906 90.7398C46.8695 91.5602 47.3781 92.725 47.7063 93.3156C48.0508 93.9227 50.8234 97.5977 53.875 101.486C56.9594 105.407 59.6992 109.049 60.0109 109.64C61.1594 111.838 61.143 111.773 61.2414 119.664C61.3398 126.456 61.3563 126.834 61.6844 127.539C62.1109 128.458 62.9313 129.295 63.8008 129.688C64.4242 129.984 65.2773 130 79.4523 130C90.3625 130 94.6117 129.951 95.0711 129.803C95.9734 129.541 97.007 128.605 97.45 127.638C97.7945 126.899 97.8438 126.555 97.8438 124.799C97.8438 122.847 97.8602 122.781 98.2211 122.716C102.684 121.846 106.195 120.517 109.213 118.581C109.82 118.188 110.378 117.859 110.444 117.859C110.493 117.859 113.167 120.468 116.383 123.667C120.468 127.752 122.404 129.557 122.847 129.738C123.651 130.066 125.242 130.082 126.03 129.754C126.817 129.409 129.295 126.981 129.688 126.145C130.066 125.324 130.098 123.716 129.738 122.847C129.557 122.404 127.752 120.468 123.667 116.383C120.468 113.167 117.859 110.493 117.859 110.444C117.859 110.378 118.204 109.804 118.614 109.164C119.024 108.508 119.73 107.245 120.156 106.326C123.438 99.4023 123.963 91.6422 121.616 84.4563C118.975 76.3023 112.888 69.7234 104.948 66.4094L103.422 65.7695V61.6188C103.422 57.8781 103.389 57.3695 103.094 56.4836C102.06 53.432 99.5172 51.5781 96.3344 51.5781C94.8578 51.5781 93.5617 51.9555 92.4789 52.7266L91.7734 53.2188L91.3633 52.3984C90.7891 51.2664 89.5094 50.0523 88.2297 49.4289C87.2781 48.9531 86.9172 48.8711 85.6211 48.8219C83.8492 48.7398 82.7992 48.9859 81.4211 49.8227L80.5023 50.3805L80.3055 49.8227C79.9609 48.8875 78.2547 47.2141 77.0406 46.6234C76.0563 46.1313 75.7938 46.082 74.2188 46.0492C73.1031 46.0164 72.25 46.082 71.807 46.2297ZM75.6133 49.2977C76.5977 49.757 77.5984 50.9219 77.9102 51.9555C78.0578 52.4805 78.1563 53.4648 78.1563 54.6297V56.4672L78.6813 56.9102C79.1078 57.2711 79.3211 57.3367 79.7805 57.2547C80.6172 57.1234 80.9453 56.6969 81.1094 55.5648C81.4211 53.2516 83.0289 51.7586 85.1781 51.7422C86.2445 51.7422 86.95 52.0211 87.8359 52.825C89.0008 53.875 89.1977 54.4492 89.3125 57.0414C89.3945 59.2891 89.3945 59.3219 89.8539 59.7156C90.1164 59.9453 90.5266 60.1094 90.8055 60.1094C91.4781 60.1094 92.2656 59.3219 92.2656 58.6656C92.2656 56.4672 94.1852 54.5312 96.3508 54.5312C97.4992 54.5312 98.4344 54.9578 99.2875 55.8438C100.338 56.9266 100.469 57.5172 100.469 61.4711V64.9164L99.8617 64.8016C96.6461 64.2438 95.8422 64.1781 92.8398 64.2602C90.543 64.3094 89.2469 64.4242 87.918 64.7031C84.0625 65.4742 80.3547 67.0328 76.9094 69.3133C74.4648 70.9375 70.9703 74.432 69.3133 76.893C61.7008 88.1969 62.5703 102.946 71.4625 113.102C75.5805 117.81 81.1914 121.075 87.5406 122.437C89.3781 122.83 92.6922 123.159 93.9883 123.077L94.8906 123.027V124.602C94.8906 125.948 94.8414 126.243 94.5461 126.62L94.218 127.047H79.6492H65.0805L64.6867 126.62L64.293 126.194L64.1945 119.123C64.0961 111.33 64.0797 111.28 62.9805 108.902C62.2258 107.245 61.7336 106.572 55.9422 99.2383C50.4789 92.2984 49.7078 91.15 49.1992 88.9844C49.0023 88.0984 48.9531 86.3758 48.9531 78.8781C48.9531 70.2648 48.9695 69.7727 49.2813 68.7555C49.675 67.4594 50.6758 65.9336 51.7094 65.0148C52.4641 64.3422 54.3344 63.3414 55.2203 63.1281L55.6797 63.0297L55.7125 73.0703L55.7617 83.1109L56.2211 83.5047C56.8938 84.0789 57.8617 83.9805 58.4195 83.2586C58.5836 83.0617 58.6164 79.6656 58.6328 68.6242C58.6328 56.3852 58.6656 54.1375 58.8789 53.432C59.5516 51.1516 61.9141 49.8063 63.9977 50.4953C65.6383 51.0367 66.6555 52.382 66.918 54.3344C67 54.9742 67.1313 55.2695 67.443 55.5156C68.0172 55.9586 68.8375 55.9422 69.3953 55.4664C69.8055 55.1055 69.8383 54.9578 69.9367 53.3664C70.0352 51.9883 70.1336 51.5125 70.4125 51.0531C70.8719 50.3313 71.7906 49.4781 72.4797 49.1828C73.2672 48.8383 74.7602 48.9039 75.6133 49.2977ZM95.957 67.2461C96.7773 67.2953 98.1227 67.4758 98.9594 67.6563C108.196 69.625 115.743 76.3188 118.68 85.1945C120.993 92.1672 120.484 99.0578 117.17 105.588C115.874 108.163 114.513 110.034 112.445 112.134C108.409 116.235 103.635 118.729 97.9258 119.763C95.7273 120.156 91.4617 120.156 89.3617 119.763C83.6031 118.713 78.8453 116.252 74.875 112.281C69.8875 107.277 67.1477 100.731 67.1477 93.7422C67.1477 90.9367 67.3445 89.3945 67.9844 86.9008C70.3797 77.6477 77.8281 70.2484 87.1141 67.9188C89.493 67.3281 92.2984 67 93.9883 67.1148C94.2672 67.1313 95.1531 67.1969 95.957 67.2461ZM116.793 113.758L117.613 114.578L116.088 116.104L114.578 117.613L113.741 116.777L112.905 115.94L114.365 114.463C115.152 113.643 115.841 112.97 115.891 112.954C115.94 112.954 116.35 113.315 116.793 113.758ZM127.047 124.422C127.047 124.996 124.996 127.047 124.422 127.047C124.11 127.047 123.191 126.227 120.37 123.405L116.711 119.746L118.22 118.237L119.746 116.711L123.388 120.353C126.194 123.159 127.047 124.11 127.047 124.422Z" fill="#FED337"/>
<path d="M90.0508 69.9695C87.7047 70.3141 85.0633 71.1672 82.7336 72.332C79.0094 74.2188 75.5805 77.3523 73.2836 81.0273C72.5617 82.1758 71.3805 84.7352 70.8883 86.1953C70.0352 88.7711 69.8711 89.9688 69.8711 93.5781C69.8711 96.5148 69.9203 97.1547 70.2484 98.6477C71.643 104.882 75.2031 110.05 80.4859 113.545C86.5234 117.515 94.1195 118.532 101.076 116.284C101.781 116.055 103.176 115.48 104.16 115.005C114.972 109.738 120.091 97.1547 116.12 85.6539C113.725 78.7633 108.163 73.2836 101.158 70.9375C99.3859 70.3469 98.8281 70.3305 98.2375 70.8227C97.9094 71.118 97.7945 71.3641 97.7781 71.8891C97.7617 72.775 98.1227 73.1359 99.4023 73.5297L100.387 73.825L100.436 82.4875C100.469 89.9031 100.436 91.2812 100.223 92.1344C100.075 92.6758 98.9758 95.35 97.7617 98.0734C96.5641 100.78 95.4484 103.455 95.3008 103.996C95.0711 104.784 95.0055 105.916 94.9398 109.689L94.8578 114.398L94.218 114.496C93.3156 114.644 90.1492 114.283 88.3773 113.823C79.1898 111.445 72.7422 103.127 72.7422 93.6437C72.7422 87.9508 74.8258 82.9305 78.8781 78.8781C81.3227 76.4336 84.0297 74.7602 87.1797 73.7266C89.0008 73.1359 90.2477 72.9062 92.4953 72.7586C94.1688 72.6437 94.3164 72.6109 94.6773 72.1844C95.1859 71.5773 95.1859 70.7242 94.6445 70.1992C94.2836 69.8219 94.1359 69.7891 92.643 69.8055C91.757 69.8219 90.5922 69.8875 90.0508 69.9695ZM105.801 76.6633C111.248 80.6336 114.463 86.9008 114.463 93.5781C114.463 99.3531 112.248 104.554 108.048 108.639C105.456 111.166 101.765 113.184 98.2867 113.987L97.8109 114.102L97.8766 109.787C97.9586 104.652 97.7617 105.391 100.682 98.8281C101.83 96.2523 102.913 93.5617 103.094 92.8562C103.405 91.6422 103.422 91.0516 103.422 83.3734V75.2031L104.045 75.5148C104.373 75.6789 105.177 76.2039 105.801 76.6633Z" fill="#FED337"/>
<path d="M95.5305 75.5805C95.0711 75.925 94.8906 76.4664 94.8906 77.5C94.8906 79.0258 95.3172 79.6164 96.4164 79.6328C96.8594 79.6328 97.1547 79.518 97.4336 79.2227C97.7945 78.8617 97.8437 78.6977 97.8437 77.5C97.8437 76.3023 97.7945 76.1383 97.4336 75.7773C96.9906 75.318 95.9898 75.2195 95.5305 75.5805Z" fill="#FED337"/>
<path d="M90.1984 76.8438C89.5422 77.1063 89.3125 77.6477 89.3125 78.9438C89.3125 80.0594 89.3453 80.1906 89.7883 80.6336C90.1164 80.9617 90.4281 81.1094 90.7891 81.1094C91.15 81.1094 91.4617 80.9617 91.7898 80.6336C92.2328 80.1906 92.2656 80.0594 92.2656 78.9109C92.2656 77.8773 92.2164 77.6148 91.9047 77.2703C91.4945 76.7945 90.7234 76.6141 90.1984 76.8438Z" fill="#FED337"/>
<path d="M84.6203 79.6328C83.9641 79.8953 83.7344 80.4367 83.7344 81.7328C83.7344 82.8484 83.7672 82.9797 84.2102 83.4227C84.5383 83.7508 84.85 83.8984 85.2109 83.8984C85.5719 83.8984 85.8836 83.7508 86.2117 83.4227C86.6547 82.9797 86.6875 82.8484 86.6875 81.7C86.6875 80.6664 86.6383 80.4039 86.3266 80.0594C85.9164 79.5836 85.1453 79.4031 84.6203 79.6328Z" fill="#FED337"/>
<path d="M95.7437 82.5039C95.0875 82.7992 94.8906 83.2914 94.8906 84.6531C94.8906 85.6211 94.9398 85.7687 95.3664 86.2117C95.875 86.7203 96.4656 86.8187 97.0727 86.4906C97.7125 86.1625 97.8273 85.8344 97.8437 84.5219C97.8437 83.439 97.7945 83.2094 97.4828 82.8484C97.007 82.3234 96.4164 82.2086 95.7437 82.5039Z" fill="#FED337"/>
<path d="M89.7883 84.2102C89.3453 84.6531 89.3125 84.7844 89.3125 85.9492C89.3125 87.0484 89.3617 87.2453 89.7227 87.5898C90.018 87.9016 90.2969 88 90.7891 88C91.2812 88 91.5602 87.9016 91.8555 87.5898C92.2164 87.2453 92.2656 87.0484 92.2656 85.9C92.2656 84.7188 92.2328 84.5547 91.8391 84.1609C91.232 83.5539 90.4281 83.5867 89.7883 84.2102Z" fill="#FED337"/>
<path d="M79.1898 85.1617C78.4844 85.293 78.1562 85.9656 78.1562 87.2781C78.1562 88.7219 78.2219 88.9352 78.8289 89.2305C79.5344 89.6078 80.0922 89.5258 80.6336 89.0008C81.0602 88.5578 81.1094 88.4102 81.1094 87.4258C81.1094 86.1133 80.8141 85.4735 80.1086 85.2274C79.8133 85.1289 79.5836 85.0633 79.5672 85.0633C79.5508 85.0797 79.3867 85.1289 79.1898 85.1617Z" fill="#FED337"/>
<path d="M84.4562 86.7203C83.9312 86.9664 83.7344 87.557 83.7344 88.8039C83.7344 90.0836 84.0625 90.6906 84.8336 90.8383C85.4078 90.9531 86.2773 90.5922 86.507 90.1656C86.6055 89.9688 86.6875 89.2961 86.6875 88.6563C86.6875 87.5734 86.6547 87.4422 86.2117 86.9992C85.7031 86.4906 85.0961 86.3922 84.4562 86.7203Z" fill="#FED337"/>
<path d="M95.3664 89.7883C94.9398 90.2312 94.8906 90.3789 94.8906 91.3469C94.8906 92.7414 95.0875 93.2172 95.793 93.5125C96.4984 93.8078 97.0891 93.6765 97.5156 93.1351C97.7781 92.7906 97.8437 92.4625 97.8437 91.4617C97.8273 90.1656 97.6961 89.8375 97.0727 89.5094C96.4656 89.1812 95.875 89.2797 95.3664 89.7883Z" fill="#FED337"/>
<path d="M89.7882 91.1008C89.4764 91.3469 89.3944 91.593 89.3452 92.4789C89.3124 93.086 89.3288 93.7586 89.378 93.9719C89.6569 95.0711 91.1007 95.4485 91.8554 94.6282C92.2163 94.2344 92.2655 94.0375 92.2655 92.8891C92.2655 91.7407 92.2163 91.5438 91.8554 91.1992C91.3632 90.6907 90.346 90.6414 89.7882 91.1008Z" fill="#FED337"/>
<path d="M78.8945 92.2984C78.2875 92.643 78.1727 92.9711 78.1562 94.2508C78.1562 95.268 78.2219 95.5797 78.4844 95.9242C78.9273 96.482 79.6328 96.6297 80.2891 96.2852C80.9617 95.9406 81.1586 95.3828 81.0766 94.0047C81.0273 93.0203 80.9617 92.8399 80.568 92.4953C80.0758 92.0688 79.4195 92.0031 78.8945 92.2984Z" fill="#FED337"/>
<path d="M84.1445 93.9883C83.7836 94.3492 83.7344 94.5133 83.7344 95.7109C83.7344 96.9086 83.7836 97.0726 84.1445 97.4336C84.9156 98.2211 86.3594 97.8437 86.6219 96.7609C86.6711 96.5476 86.6875 95.875 86.6547 95.2679C86.6055 94.382 86.5234 94.1359 86.2117 93.8898C85.6539 93.4304 84.6367 93.4797 84.1445 93.9883Z" fill="#FED337"/>
<path d="M90.1984 97.8437C89.5422 98.1062 89.3125 98.6476 89.3125 99.9437C89.3125 101.059 89.3453 101.191 89.7883 101.634C90.4445 102.273 91.1336 102.273 91.7898 101.634C92.2328 101.191 92.2656 101.059 92.2656 99.9109C92.2656 98.8773 92.2164 98.6148 91.9047 98.2703C91.4945 97.7945 90.7234 97.6141 90.1984 97.8437Z" fill="#FED337"/>
<path d="M78.5664 99.5664C78.2055 99.9273 78.1562 100.091 78.1562 101.289C78.1562 102.487 78.2055 102.651 78.5664 103.012C78.8453 103.307 79.1406 103.422 79.5836 103.422C80.6992 103.405 81.1094 102.815 81.1094 101.223C81.1094 100.321 81.0437 100.091 80.6828 99.6648C80.125 98.9922 79.1734 98.943 78.5664 99.5664Z" fill="#FED337"/>
<path d="M84.6203 100.633C83.9641 100.895 83.7344 101.437 83.7344 102.733C83.7344 103.848 83.7672 103.98 84.2102 104.423C84.8664 105.062 85.5555 105.062 86.2117 104.423C86.6547 103.98 86.6875 103.848 86.6875 102.7C86.6875 101.666 86.6383 101.404 86.3266 101.059C85.9164 100.584 85.1453 100.403 84.6203 100.633Z" fill="#FED337"/>
<path d="M89.7883 105.21C89.3453 105.653 89.3125 105.784 89.3125 106.949C89.3125 108.048 89.3617 108.245 89.7227 108.59C90.2805 109.164 91.2977 109.164 91.8555 108.59C92.2164 108.245 92.2656 108.048 92.2656 106.9C92.2656 105.719 92.2328 105.555 91.8391 105.161C91.232 104.554 90.4281 104.587 89.7883 105.21Z" fill="#FED337"/>
</g>
<defs>
<clipPath id="clip0_4_1297">
<rect width="84" height="84" fill="white" transform="translate(46 46)"/>
</clipPath>
</defs>
</svg>
