<svg width="175" height="175" viewBox="0 0 175 175" fill="none" xmlns="http://www.w3.org/2000/svg">
<circle cx="87.5" cy="87.5" r="87.5" fill="#5FC69B" fill-opacity="0.05"/>
<path d="M77.5 52.5789C73.9563 53.2023 70.8391 54.8102 68.1977 57.3695C66.6063 58.9117 65.425 60.5523 64.5063 62.5047C63.2922 65.1133 63.1774 65.9008 61.9141 79.5344C61.2907 86.3758 60.7657 92.4461 60.7657 93.0203C60.7657 94.6937 61.2414 95.7273 62.718 97.2039C63.7844 98.2867 64.2438 98.5984 65.8024 99.3367L67.6235 100.223L66.2782 100.879C65.0969 101.47 64.9493 101.584 64.9 102.027C64.8508 102.47 64.6868 102.602 63.4727 103.241C61.6352 104.209 59.65 105.719 58.0422 107.392C54.318 111.264 52.3821 116.071 52.1196 122.043C52.0375 124.094 52.0539 124.389 52.3 124.635C52.5625 124.898 54.3672 124.914 80.3875 124.914C107.966 124.914 108.18 124.914 108.508 124.586C108.885 124.209 108.918 123.503 108.672 121.141C108.541 119.795 108.557 119.713 108.951 119.123C109.476 118.368 109.82 117.088 109.82 115.973C109.82 115.3 109.919 114.988 110.395 114.283C110.723 113.823 111.002 113.43 111.034 113.43C111.067 113.43 111.363 113.84 111.691 114.332C112.216 115.12 112.281 115.349 112.281 116.268C112.281 118.237 113.102 119.648 114.759 120.566C115.612 121.026 115.759 121.059 118.04 121.108C119.894 121.157 120.648 121.108 121.338 120.911C122.486 120.583 123.684 119.549 124.192 118.434C124.537 117.695 124.586 117.367 124.586 115.431C124.586 113.02 124.455 112.56 123.602 112.052C123.208 111.822 122.486 111.789 118.384 111.789C113.955 111.789 113.61 111.805 113.249 112.101C112.856 112.412 112.856 112.412 112.314 111.937C111.904 111.576 111.609 111.461 111.084 111.461C110.395 111.461 109.328 111.953 109.328 112.281C109.328 112.363 109.082 112.298 108.803 112.117C108.409 111.871 107.966 111.789 107.179 111.789H106.08L104.981 110.132C103.799 108.36 101.995 106.441 100.387 105.21C99.2219 104.308 96.3836 102.602 96.0719 102.602C95.9407 102.602 95.8914 102.487 95.9571 102.306C96.0391 102.011 95.4977 101.125 95.2352 101.125C95.1532 101.125 94.6446 100.912 94.0868 100.666L93.0696 100.206L94.3493 99.6812L95.6289 99.1562H107.72C119.516 99.1562 119.828 99.1562 119.992 98.8445C120.107 98.6312 120.156 92.0687 120.156 78.7469C120.156 60.9953 120.123 58.9609 119.894 58.7312C119.664 58.5016 118.253 58.4687 106.752 58.4687H93.8571L92.643 57.3039C90.3954 55.1875 87.7047 53.6781 84.7188 52.8906C83.1274 52.4805 79.075 52.3 77.5 52.5789ZM84.6039 54.925C87.2125 55.6961 89.1321 56.8281 91.1008 58.6984C93.0368 60.5687 94.3985 62.718 95.186 65.1953C95.6782 66.7047 95.8094 67.6398 96.2688 72.8242C96.4985 75.3508 96.7282 77.7461 96.7938 78.1398L96.8922 78.8617L96.2688 78.468C95.9243 78.2547 95.3172 78.0086 94.8907 77.8937L94.1524 77.7133L94.0704 76.7945C93.9555 75.482 93.3321 74.6945 91.4454 73.4477C89.575 72.2172 88.5907 71.282 88.0821 70.2812C87.6227 69.3789 87.2454 68.05 87.0977 66.8852C86.9664 65.8844 86.7368 65.6383 85.9985 65.7203C85.5063 65.7695 85.4079 65.868 84.7844 67.1148C84.4071 67.8531 83.8329 68.8211 83.5211 69.2641C82.6516 70.4289 80.5516 72.3812 79.1735 73.2836C75.8594 75.4656 70.8391 77.3852 67.7547 77.6641C65.9008 77.8445 65.1625 78.0414 64.4571 78.5664L63.9649 78.9437L64.4899 73.2508C64.7688 70.1172 65.1297 67.0656 65.261 66.4586C66.6227 60.5852 71.2985 55.9586 77.1719 54.6789C79.2555 54.2195 82.6352 54.3344 84.6039 54.925ZM118.188 78.8945V97.3516H108.163H98.1391L98.6149 96.7281C99.4188 95.6945 99.6485 95.2516 99.911 94.2508C100.141 93.2992 100.108 92.807 99.0086 80.6664C98.3688 73.743 97.729 67.4102 97.5977 66.6227C97.3024 64.9328 96.6133 62.9477 95.793 61.4875L95.2188 60.4375H106.703H118.188V78.8945ZM87.3274 72.775C87.7047 73.1852 88.7547 74.0547 89.6735 74.6781C90.6086 75.3016 91.5438 76.0234 91.7735 76.2695L92.1836 76.7125V81.4047C92.1836 85.7852 92.1508 86.1953 91.8063 87.393C90.6907 91.3141 87.6227 94.9727 83.7344 97.0727C81.1422 98.4672 79.9938 98.4836 77.418 97.2039C73.6118 95.3008 70.5602 91.9539 69.2477 88.1969C68.7391 86.8023 68.7391 86.6875 68.6735 83.2422L68.6079 79.7148L70.3633 79.2555C76.5649 77.6477 82.1922 74.3828 84.8829 70.8227L85.6211 69.8383L86.1461 70.9375C86.425 71.5281 86.9664 72.3648 87.3274 72.775ZM66.6719 82.4055V85.0305L66.1961 84.8664C65.5399 84.6367 64.7524 83.8164 64.5391 83.1437C64.1782 82.0773 64.7196 80.732 65.7204 80.125C66.6719 79.5508 66.6719 79.5508 66.6719 82.4055ZM95.0547 80.1578C95.9735 80.7977 96.2852 81.3555 96.2852 82.3891C96.2852 83.5047 95.8586 84.2266 94.8907 84.7187C94.5297 84.8992 94.2016 85.0469 94.1524 85.0469C94.0375 85.0469 94.0539 81.4867 94.1688 80.5516C94.2344 80.1414 94.3329 79.7969 94.3985 79.7969C94.4641 79.7969 94.7594 79.9609 95.0547 80.1578ZM65.1297 86.6055C65.4414 86.7367 65.95 86.8844 66.2618 86.95C66.7704 87.032 66.8524 87.1305 67 87.7375C67.7055 90.5102 69.3954 93.3156 71.8235 95.7109L72.9063 96.7609V97.7453C72.9063 98.5164 72.8571 98.6805 72.7094 98.5328C72.4305 98.2539 72.0696 98.2867 71.2 98.6641L70.4454 99.0086L68.936 98.5C64.9329 97.1547 62.7344 95.1695 62.7344 92.8891C62.7344 92.0359 63.1282 87.475 63.325 86.0641L63.4071 85.3586L63.9813 85.8672C64.293 86.1297 64.8016 86.4742 65.1297 86.6055ZM97.811 89.2797C98.0243 91.757 98.1063 93.3812 98.0243 93.693C97.45 95.6781 95.1204 97.4664 91.6586 98.5492L90.3133 98.9758L89.4766 98.6312C88.8039 98.3523 88.5743 98.3195 88.2461 98.4672C87.836 98.6641 87.836 98.6477 87.836 97.7453V96.8266L89.2469 95.3992C91.4782 93.168 93.0532 90.5594 93.6766 88.0984C93.8735 87.2945 94.0211 87.0156 94.218 87.0156C94.825 87.0156 96.0391 86.4742 96.6461 85.9492C96.9907 85.6375 97.3024 85.3914 97.3516 85.375C97.4008 85.375 97.6141 87.1305 97.811 89.2797ZM78.1891 99.7141C80.3547 100.452 82.1266 100.206 84.686 98.8445L85.8672 98.2211V99.632C85.8672 101.092 86.0969 101.781 86.6055 101.781C86.7368 101.781 86.8844 101.863 86.9336 101.962C86.9993 102.044 86.8024 103.422 86.5071 104.997L85.9657 107.884L85.375 108.18C83.8164 108.984 81.2243 109.361 79.0586 109.131C77.8938 109.016 75.6297 108.393 75.0883 108.048C74.8586 107.901 73.6774 102.323 73.8086 101.995C73.8414 101.88 73.9891 101.781 74.1204 101.781C74.711 101.781 74.875 101.305 74.875 99.7141V98.1555L75.9086 98.7297C76.4664 99.0414 77.5 99.4844 78.1891 99.7141ZM73.0868 109.115C73.9727 113.594 74.6782 117.285 74.6454 117.318C74.6125 117.351 73.6446 116.35 72.4961 115.12C71.3313 113.873 70.0188 112.478 69.5758 112.019L68.7883 111.182L69.5266 109.492C69.9368 108.573 70.2813 107.687 70.2813 107.523C70.2813 107.376 69.625 106.211 68.8211 104.964C68.0008 103.717 67.3938 102.634 67.4594 102.569C67.6399 102.388 71.3313 100.813 71.3969 100.879C71.4461 100.912 72.2008 104.62 73.0868 109.115ZM91.4946 101.699C92.5446 102.142 93.4141 102.569 93.4141 102.634C93.4141 102.7 92.8727 103.586 92.2 104.62C91.5274 105.653 90.8711 106.72 90.7235 106.998C90.4282 107.573 90.4446 107.605 91.3961 109.771L91.9868 111.116L91.4289 111.756C90.6086 112.708 86.1297 117.515 86.0969 117.482C86.0149 117.384 89.3782 100.797 89.4766 100.83C89.5422 100.862 90.461 101.24 91.4946 101.699ZM67.0493 105.948L68.1485 107.638L67.4102 109.328C67 110.263 66.6719 111.215 66.6719 111.445C66.6883 111.773 67.7055 112.97 71.1016 116.629L75.5313 121.387V122.158V122.945H64.7852H54.0391V122.158C54.0391 121.059 54.4657 118.335 54.8758 116.908C56.0079 112.855 58.4524 109.197 61.6516 106.802C62.718 105.998 65.6055 104.242 65.868 104.242C65.9172 104.242 66.4586 105.013 67.0493 105.948ZM95.7602 104.669C97.368 105.489 99.304 106.851 100.649 108.13C101.913 109.328 103.586 111.346 103.586 111.641C103.586 111.723 102.536 111.789 101.256 111.789C98.5821 111.789 98.0243 111.986 97.5813 113.02C97.2696 113.791 97.2696 116.711 97.5977 117.81C97.9586 119.024 98.8118 120.041 99.9274 120.599C100.813 121.026 101.043 121.059 103.192 121.108C104.456 121.141 105.768 121.091 106.096 121.009L106.703 120.845V121.387C106.703 121.682 106.752 122.158 106.802 122.437L106.916 122.945H96.1375H85.375V122.076L85.3914 121.223L89.7227 116.563C92.118 114.004 94.1032 111.773 94.1524 111.609C94.218 111.428 93.9391 110.591 93.5125 109.591C93.1024 108.639 92.7579 107.786 92.7579 107.671C92.7579 107.507 94.743 104.259 94.8579 104.242C94.8743 104.242 95.2844 104.439 95.7602 104.669ZM80.2891 111.034C82.5696 111.051 83.3735 110.985 84.2102 110.755C84.7844 110.591 85.2766 110.493 85.3258 110.526C85.3586 110.575 84.9485 112.872 84.3907 115.645C83.7672 118.844 83.4063 121.108 83.4063 121.813V122.945H80.4532H77.5V122.092C77.5 121.452 75.8922 112.642 75.4164 110.69L75.3344 110.345L76.3844 110.69C77.2704 110.985 77.8118 111.034 80.2891 111.034ZM107.819 115.284C107.868 117.006 107.556 117.892 106.621 118.614C106.014 119.073 105.899 119.09 104.029 119.139C101.65 119.205 101.125 119.123 100.452 118.565C99.6157 117.859 99.3204 117.023 99.3204 115.267V113.758L103.553 113.791L107.77 113.84L107.819 115.284ZM122.584 115.595C122.535 117.236 122.486 117.515 122.141 118.007C121.485 118.909 120.698 119.172 118.45 119.172C116.055 119.172 115.3 118.893 114.66 117.794C114.299 117.17 114.25 116.908 114.25 115.431V113.758H118.45H122.65L122.584 115.595Z" fill="#FED337"/>
<path d="M99.4844 70.0352V75.8594H103.75H108.016V74.7109V73.5625H105.145H102.273V72.332V71.1016H104.57H106.867V69.9531V68.8047H104.57H102.273V67.6562V66.5078H105.145H108.016V65.3594V64.2109H103.75H99.4844V70.0352Z" fill="#FED337"/>
<path d="M107.523 85.1125V89.1484H108.508H109.492V87.6883V86.2445L110.854 86.1625C111.805 86.1133 112.429 85.982 112.872 85.7523C114.578 84.8664 114.562 82.3727 112.855 81.5359C112.33 81.2734 111.756 81.1914 109.87 81.1422L107.523 81.0602V85.1125ZM111.756 83.0125C112.265 83.357 112.183 84.0625 111.625 84.3414C111.395 84.4562 110.821 84.5547 110.362 84.5547H109.492V83.6523V82.75H110.444C111.051 82.75 111.527 82.8484 111.756 83.0125Z" fill="#FED337"/>
<path d="M101.617 92.9219V93.9062H103.75H105.883V92.9219V91.9375H103.75H101.617V92.9219Z" fill="#FED337"/>
<path d="M109.656 92.9219V93.9062H111.707H113.758V92.9219V91.9375H111.707H109.656V92.9219Z" fill="#FED337"/>
<path d="M73.7103 80.2234C73.1197 80.8469 73.1525 81.9789 73.7759 82.5203C74.4486 83.0945 75.4002 83.0617 76.04 82.4383C76.6634 81.7984 76.6798 81.0109 76.0892 80.3055C75.7283 79.8625 75.5478 79.7969 74.8916 79.7969C74.2681 79.7969 74.0384 79.8789 73.7103 80.2234Z" fill="#FED337"/>
<path d="M84.8337 80.125C84.2759 80.568 84.1119 81.4047 84.4564 82.0609C84.7845 82.6844 85.1783 82.9141 85.9494 82.9141C87.4423 82.9141 88.0658 80.9289 86.8681 80.0102C86.4416 79.682 85.3095 79.7477 84.8337 80.125Z" fill="#FED337"/>
<path d="M76.5648 89.0172L75.8757 89.5258L76.2039 89.9852C76.6468 90.6086 77.8117 91.4125 78.7468 91.7242C79.2718 91.9047 79.8789 91.9539 80.7648 91.9047C82.225 91.8227 83.2914 91.3305 84.325 90.2805L84.9648 89.6242L84.3085 89.0664C83.9476 88.7547 83.5867 88.5086 83.5046 88.4922C83.439 88.4922 83.1109 88.7219 82.7828 89.0008C81.2898 90.3297 79.2882 90.2805 78.0085 88.9188C77.5 88.3774 77.4015 88.3938 76.5648 89.0172Z" fill="#FED337"/>
</svg>
