<svg width="175" height="175" viewBox="0 0 175 175" fill="none" xmlns="http://www.w3.org/2000/svg">
<circle cx="87.5" cy="87.5" r="87.5" fill="#5FC69B" fill-opacity="0.05"/>
<path d="M63.932 46.1969C63.8336 46.3117 63.5219 46.8695 63.2266 47.4437C62.5867 48.6578 61.5367 49.6422 60.2734 50.2492C59.3875 50.6594 59.3219 50.6758 54.7773 50.725C50.8727 50.7742 50.1344 50.8234 49.9047 51.0367C49.6258 51.2828 49.6094 51.9062 49.6094 59.6992C49.6094 68.7883 49.6586 69.5266 50.5281 72.2828C51.0695 73.9891 52.2672 76.3844 53.3992 77.9922C54.5477 79.6492 56.7953 81.8312 58.5344 82.9797C59.7977 83.8328 64.2109 86.0312 64.6211 86.0312C64.7031 86.0312 65.7203 85.5883 66.8688 85.0633C70.3633 83.4391 72.6273 81.8148 74.6453 79.4687C75.5805 78.3859 75.8594 77.9594 75.8594 77.582C75.8594 76.9422 75.5969 76.6797 74.9898 76.6797C74.6125 76.6797 74.1695 77.0406 72.6109 78.632C70.4289 80.8469 69.4609 81.5359 66.6227 82.9305L64.5883 83.9312L62.5539 82.9141C59.9945 81.6344 58.9117 80.8961 57.2875 79.3375C55.0727 77.2211 53.5797 74.8914 52.5789 72.0203C51.6766 69.4281 51.5781 68.3617 51.5781 60.1422V52.7266H55.2367C59.1578 52.7266 60.0602 52.5953 61.5531 51.8406C62.5375 51.3484 63.5547 50.5117 64.1617 49.757L64.6375 49.15L64.9984 49.7078C65.4414 50.3805 66.7211 51.4141 67.7219 51.9062C69.2148 52.6117 69.9859 52.7266 73.9398 52.7266H77.6805L77.6148 60.7984C77.5492 69.9039 77.5492 69.8711 76.1711 73.2836C75.5641 74.793 75.5313 74.9406 75.7609 75.2852C76.0891 75.7773 76.5648 75.925 77.0242 75.6953C77.5164 75.4164 78.4352 73.3328 79.0258 71.118L79.5344 69.2148L79.6 60.2734C79.6492 51.775 79.6328 51.2992 79.3539 51.0531C79.0914 50.807 78.4516 50.7742 74.4648 50.725L69.8547 50.6758L68.8047 50.1508C67.4758 49.4945 66.475 48.4937 65.8023 47.132C65.3102 46.1641 65.2281 46.082 64.6867 46.0328C64.3422 46 64.0305 46.0656 63.932 46.1969Z" fill="#FED337"/>
<path d="M95.0876 51.3649C95.0055 51.5289 94.7758 52.218 94.579 52.8742C93.8243 55.368 92.3969 57.7469 90.1001 60.2899C89.2469 61.2414 88.5415 61.8156 87.1633 62.6688C83.9313 64.6867 82.8649 65.95 82.6516 68.1156C82.3891 70.6258 84.0133 73.7594 86.3594 75.2195L87.0977 75.6789L85.293 76.5156C81.6673 78.1891 80.4532 78.9274 78.2055 80.8141C72.6602 85.4406 69.7071 92.7578 70.2813 100.436C70.5602 104.013 71.3969 106.998 73.0212 110.181C74.268 112.626 75.6462 114.529 77.6477 116.498L79.3376 118.188L79.0751 119.959C78.7141 122.404 78.5173 124.455 78.386 127.129C78.2876 129.18 78.304 129.475 78.5501 129.721C78.8782 130.049 79.8462 130.098 80.0923 129.787C80.1743 129.688 80.3055 128.671 80.3548 127.539C80.5024 125.062 80.7157 122.699 80.9782 120.78L81.1751 119.352L81.8313 119.763C82.8813 120.419 84.9977 121.387 86.4579 121.863C88.886 122.666 90.7891 122.945 94.3329 123.06C97.5485 123.159 97.6469 123.142 97.9915 122.798C98.4016 122.388 98.4344 122.01 98.0899 121.534C97.8766 121.206 97.6469 121.19 94.6118 121.091C91.0188 120.977 89.2469 120.698 86.7368 119.812C84.8665 119.155 83.8165 118.614 81.9462 117.351C78.8782 115.3 76.4173 112.429 74.6126 108.754C72.7751 105.013 72.1516 102.044 72.2993 97.7617C72.4305 94.0539 72.9883 91.7899 74.5469 88.6563C76.3024 85.1453 79.1735 82.1758 82.9141 79.9609C83.4063 79.682 85.3094 78.7469 87.1633 77.8938C89.0173 77.0406 90.6743 76.1875 90.8383 76.007C91.4618 75.2359 91.0352 74.5633 89.7883 74.3664C88.5743 74.1695 87.0157 73.3656 86.2774 72.5617C85.3258 71.4953 84.6532 69.9203 84.6532 68.7391C84.6696 67.0328 85.293 66.2617 87.9837 64.5719L89.6243 63.5547H94.1032C96.5805 63.5547 98.9102 63.4727 99.3204 63.3742C102.306 62.6852 105.03 59.9289 105.702 56.9102C105.883 56.0406 106.211 53.0547 106.211 52.1524C106.211 51.4797 105.85 51.086 105.227 51.086C104.488 51.086 104.291 51.5781 104.078 53.875C103.98 55.007 103.799 56.3031 103.652 56.7789C103.291 58.075 102.191 59.568 100.994 60.3883C99.4024 61.4711 98.7462 61.6024 95.0219 61.5531L91.8063 61.5039L92.8235 60.2406C94.743 57.8617 96.2852 54.843 96.7282 52.6281C96.8758 51.8406 96.8758 51.693 96.6133 51.4141C96.236 50.9875 95.2844 50.9711 95.0876 51.3649Z" fill="#FED337"/>
<path d="M107.802 51.332C107.458 51.6602 107.294 53.9898 107.425 56.2047C107.77 61.6188 109.049 65.425 111.477 68.3125L112.117 69.0672L110.657 73.4477C109.853 75.8594 108.984 78.6648 108.754 79.6984L108.311 81.5687L100.469 85.3586L92.6266 89.132L89.2797 89.9031C87.4422 90.3133 85.7523 90.7727 85.5227 90.9039C84.0953 91.7406 84.1937 94.218 85.6867 94.8578L86.3102 95.1203L85.3258 95.957C84.7844 96.4 83.275 97.5812 81.9625 98.582C79.2062 100.666 78.8125 101.125 78.8125 102.355C78.8125 103.816 79.8789 104.915 81.3062 104.931C82.1266 104.948 89.3617 102.913 90.4609 102.355C91.4781 101.847 92.3148 100.879 93.5617 98.8281L94.6117 97.1055L100.846 94.2344C104.259 92.6594 107.113 91.3469 107.179 91.3141C107.261 91.2977 107.359 92.282 107.425 93.5289C107.638 97.6961 108.245 101.289 109.427 105.177C109.738 106.195 110.969 109.476 112.183 112.478C115.12 119.795 116.366 123.684 117.137 128.031C117.285 128.884 117.482 129.688 117.58 129.787C117.794 130.082 118.778 130.049 119.073 129.738C119.402 129.409 119.402 129.229 119.008 127.096C118.188 122.781 116.842 118.565 114.414 112.609C111.494 105.473 110.706 102.995 110.001 98.8445C109.607 96.5312 109.279 92.643 109.361 91.232L109.41 90.2805L117.777 86.4086C122.387 84.2922 126.243 82.4711 126.358 82.3891C126.456 82.2906 126.555 81.9953 126.555 81.7164C126.555 81.1914 116.514 52.0539 116.12 51.4469C115.661 50.7414 114.414 51.1188 114.414 51.9883C114.414 52.2836 119.205 66.2289 124.11 80.2562L124.405 81.1258L123.224 81.6672C112.642 86.5234 93.7422 95.3008 93.4797 95.4648C93.2828 95.5961 92.5445 96.6297 91.8391 97.7781C91.1172 98.9102 90.2969 100.042 90.0016 100.272C89.6242 100.551 88.2461 101.043 85.6539 101.798C81.6508 102.979 81.2898 103.045 80.9781 102.733C80.5352 102.29 80.8305 101.945 82.8977 100.42C86.0969 98.057 90.625 94.2344 90.7234 93.7914C90.8547 93.2828 90.3953 92.5937 89.9195 92.5937C89.7062 92.5937 88.9023 92.7414 88.0984 92.9055C86.868 93.1844 86.6547 93.1844 86.5727 92.9875C86.5234 92.8562 86.5234 92.7086 86.5727 92.6594C86.6219 92.6102 88.1969 92.2164 90.0672 91.7734L93.4961 90.9859L105.555 85.1617C115.251 80.4859 117.646 79.2719 117.827 78.9273C118.007 78.5664 117.909 78.2055 116.941 75.5969C116.35 73.9727 115.743 72.5289 115.595 72.3648C115.202 71.9383 114.398 72.0531 114.102 72.5945C113.873 73.0047 113.922 73.1852 114.775 75.5312L115.694 78.025L113.216 79.2062C111.838 79.8625 110.706 80.3875 110.673 80.3711C110.559 80.2727 111.264 77.9266 112.708 73.6609C113.561 71.1344 114.25 68.8867 114.25 68.6406C114.25 68.3617 114.037 68.0008 113.577 67.5742C112.609 66.6391 111.395 64.7359 110.837 63.2594C109.837 60.6672 109.197 56.0898 109.427 53.1695C109.525 51.9227 109.492 51.693 109.246 51.4141C108.902 51.0203 108.147 50.9875 107.802 51.332Z" fill="#FED337"/>
<path d="M63.079 52.1523C60.9954 53.5305 60.1423 53.7438 56.4181 53.8422C54.7118 53.875 53.1696 53.9734 53.022 54.0555C52.5954 54.2852 52.6118 55.45 53.0384 55.6797C53.547 55.9422 58.5509 55.893 60.0603 55.5977C61.2415 55.368 63.5056 54.4164 64.2767 53.8422C64.5556 53.6125 64.6704 53.6453 65.3267 54.0883C66.2946 54.7445 68.165 55.4664 69.4775 55.6633C70.0517 55.7617 71.4298 55.8438 72.5454 55.8438H74.5634L74.5142 62.275L74.4485 68.7227L74.0056 70.1664C72.6439 74.5633 69.8384 77.9102 65.8353 79.8789L64.5884 80.5023L63.1282 79.7477C59.6009 77.9102 57.0579 75.1211 55.6798 71.5609C54.8103 69.2969 54.6954 68.3289 54.6954 62.6852C54.6954 57.9438 54.679 57.4844 54.4001 57.1563C54.0392 56.7133 53.3009 56.6641 52.9235 57.0578C52.6775 57.2875 52.6446 57.8617 52.5954 61.1922C52.5134 67.7219 52.8743 70.3797 54.2853 73.3492C56.1228 77.2375 58.9939 80.0758 62.9806 81.9461C63.7353 82.2906 64.4735 82.5859 64.6212 82.5859C65.179 82.5859 68.2962 80.9453 69.5923 79.9609C72.7751 77.5656 74.8915 74.4156 76.04 70.3633C76.4009 69.1 76.4173 68.7555 76.4829 61.7336C76.5321 55.1219 76.5157 54.3836 76.2696 54.1375C76.04 53.9242 75.5806 53.875 73.2509 53.875C69.4446 53.875 67.9353 53.4813 65.704 51.8898C65.2118 51.5289 64.736 51.25 64.6212 51.25C64.5228 51.25 63.8337 51.6602 63.079 52.1523Z" fill="#FED337"/>
<path d="M62.6525 58.1735C62.2095 58.2555 61.2907 58.5836 60.6345 58.8953C56.5165 60.8805 54.8103 66.1305 56.9267 70.2977C57.8454 72.1188 59.9946 73.8578 62.0946 74.4813C63.079 74.7766 65.5071 74.8094 66.4751 74.5633C70.1993 73.5461 72.7423 70.2649 72.7423 66.4258C72.7423 65.0313 72.529 64.6539 71.7579 64.6539C71.0196 64.6539 70.7736 65.0477 70.7736 66.2782C70.7736 71.6758 64.6376 74.7274 60.454 71.4297C56.09 67.9844 57.8454 61.1922 63.3579 60.1094C65.0642 59.7649 66.9509 60.3063 68.5423 61.5696C69.3298 62.2094 70.0025 62.2422 70.3798 61.668C70.7736 61.061 70.5603 60.536 69.5759 59.7977C67.5579 58.2719 65.1298 57.6977 62.6525 58.1735Z" fill="#FED337"/>
<path d="M68.0663 64.5391L63.8007 68.8047L62.1601 67.1641C60.7819 65.8023 60.4374 65.5234 60.0108 65.5234C59.7319 65.5234 59.3874 65.6547 59.2397 65.8188C58.6655 66.4586 58.8624 66.8031 61.1429 69.0836C62.9476 70.8883 63.4069 71.2656 63.8007 71.2656C64.2108 71.2656 64.9819 70.5766 69.0015 66.5406C71.6101 63.9484 73.7757 61.668 73.8413 61.4547C73.8905 61.2414 73.8577 60.8969 73.7429 60.6672C73.6116 60.3555 73.4476 60.2734 72.9554 60.2734C72.3647 60.2734 72.1351 60.4703 68.0663 64.5391Z" fill="#FED337"/>
<path d="M64.5719 87.1141C64.2438 87.3438 64.2109 87.4914 64.2109 88.9516C64.2109 91.5109 64.7688 93.0859 66.2289 94.6774C67.5086 96.0719 68.575 96.3836 69.0016 95.4649C69.2641 94.8906 69.0508 94.3656 68.2961 93.8242C66.9016 92.7906 66.1797 91.1172 66.1797 88.8695C66.1797 87.7211 66.1305 87.4586 65.8516 87.1797C65.4578 86.7859 65.0641 86.7695 64.5719 87.1141Z" fill="#FED337"/>
</svg>
