<svg width="24" height="24" viewBox="0 0 24 24" fill="none" xmlns="http://www.w3.org/2000/svg">
<circle cx="12" cy="12" r="12" fill="#51A7D6"/>
<circle cx="12" cy="12" r="12" fill="#51A7D6"/>
<path d="M16.5 7H7.5C7.10231 7.00045 6.72102 7.16821 6.43981 7.46646C6.1586 7.76472 6.00043 8.16911 6 8.59091V15.4091C6.00043 15.8309 6.1586 16.2353 6.43981 16.5335C6.72102 16.8318 7.10231 16.9995 7.5 17H16.5C16.8977 16.9995 17.279 16.8318 17.5602 16.5335C17.8414 16.2353 17.9996 15.8309 18 15.4091V8.59091C17.9996 8.16911 17.8414 7.76472 17.5602 7.46646C17.279 7.16821 16.8977 7.00045 16.5 7ZM16.1202 9.63153L12.263 12.8134C12.1878 12.8754 12.0953 12.909 12 12.909C11.9047 12.909 11.8122 12.8754 11.737 12.8134L7.87982 9.63153C7.8345 9.59524 7.79644 9.54975 7.76784 9.49771C7.73924 9.44568 7.72068 9.38814 7.71323 9.32843C7.70578 9.26872 7.70959 9.20803 7.72445 9.1499C7.7393 9.09177 7.7649 9.03734 7.79976 8.9898C7.83462 8.94225 7.87804 8.90252 7.92749 8.87292C7.97695 8.84333 8.03146 8.82445 8.08786 8.81739C8.14426 8.81033 8.20142 8.81523 8.25601 8.8318C8.31061 8.84837 8.36156 8.87628 8.40589 8.91392L12 11.8787L15.5941 8.91392C15.684 8.84194 15.797 8.81037 15.9086 8.82604C16.0202 8.8417 16.1216 8.90335 16.1907 8.99765C16.2598 9.09194 16.2912 9.21131 16.278 9.32993C16.2648 9.44855 16.2081 9.5569 16.1202 9.63153Z" fill="white"/>
</svg>
