<svg width="175" height="175" viewBox="0 0 175 175" fill="none" xmlns="http://www.w3.org/2000/svg">
<circle cx="87.5" cy="87.5" r="87.5" fill="#5FC69B" fill-opacity="0.05"/>
<g clip-path="url(#clip0_4_1261)">
<path d="M111.281 46.9188C108.246 47.5586 104.719 49.6422 104.719 50.7906C104.719 51.0203 104.866 51.3977 105.063 51.6438C105.572 52.2836 106.392 52.2344 107.426 51.4797C108.509 50.6922 110.28 49.8719 111.626 49.5438C112.971 49.2156 115.76 49.1992 117.138 49.5274C121.519 50.5609 125.046 54.1211 126.129 58.5836C126.572 60.4211 126.408 63.3742 125.768 65.1461C125.079 67.0164 124.357 68.1813 122.93 69.6414C121.519 71.0688 119.911 72.0859 118.057 72.7094C116.925 73.0867 116.515 73.1359 114.48 73.1524C112.364 73.1524 112.069 73.1195 110.707 72.6766C106.835 71.3969 103.751 68.0664 102.734 64.0305C102.209 61.9797 102.34 59.4203 103.062 57.4024C103.784 55.4008 103.849 54.8758 103.406 54.4C102.898 53.875 101.897 53.8914 101.454 54.4656C100.699 55.4172 99.9773 57.9602 99.8297 60.1586L99.7148 61.75L98.107 62.4719C96.007 63.4234 93.6773 64.982 91.6758 66.8031L90.0352 68.2797L88.5586 66.918C85.2117 63.85 81.9961 62.0781 77.9766 61.0773C76.6477 60.7492 75.9914 60.7 73.5469 60.7C71.0859 60.7 70.4789 60.7492 69.2977 61.0609C66.4594 61.8156 64.0641 63.1281 61.9805 65.0969C61.1109 65.9172 60.9141 66.1961 60.9141 66.6063C60.9141 67.3773 61.4719 67.9844 62.1609 67.9844C62.6203 67.9844 62.9648 67.7711 64.1625 66.7375C68.2641 63.1938 73.6945 62.275 79.2234 64.2273C82.1109 65.2445 84.1289 66.5078 86.918 69.0836C89.0672 71.0523 89.3789 71.2656 90.068 71.2656C90.7242 71.2656 91.282 70.8719 93.3164 68.9852C94.3008 68.05 95.6625 66.9344 96.3516 66.4914C97.5 65.7203 99.9445 64.457 100.043 64.5719C100.059 64.6047 100.207 65.0313 100.371 65.5234C101.634 69.4445 104.341 72.6273 107.918 74.4156C111.33 76.1219 115.875 76.3352 119.566 74.9734C120.206 74.7274 120.78 74.5141 120.863 74.4977C121.273 74.3828 122.077 78.0086 122.208 80.6172C122.438 85.2109 121.109 89.8539 118.484 93.5781C117.696 94.6774 110.346 102.339 101.93 110.821L99.0586 113.709L96.9586 114.086C95.4656 114.348 94.5305 114.43 93.7594 114.365C92.2992 114.234 81.9961 112.33 81.5859 112.117C80.7984 111.691 80.5195 110.542 81.0609 109.886C81.5695 109.246 81.8813 109.197 83.7188 109.427C89.2313 110.148 91.2492 110.313 92.3648 110.148C95.4 109.656 97.1719 107.802 97.1719 105.063C97.1719 103.52 96.6141 102.224 95.4328 101.076C94.0711 99.7305 92.857 99.2547 88.7227 98.5164C81.8484 97.2531 81.3563 97.2695 72.907 98.7461C70.0688 99.2383 67.6242 99.6484 67.4602 99.6484C67.0008 99.6484 62.3578 94.7266 61.275 93.0859C58.6828 89.1649 57.4688 84.2594 57.9281 79.6656C58.207 76.893 58.5516 75.6789 60.1266 71.9055C60.5367 70.9375 59.4867 69.8711 58.4859 70.2156C57.6492 70.5109 56.2055 73.9891 55.5656 77.2539C55.1555 79.2883 55.1555 83.7344 55.5492 85.7852C56.5992 91.15 58.8305 95.1367 63.1125 99.3203L64.0477 100.223L61.5375 100.633L59.0273 101.059L58.9125 100.633C58.732 100.009 58.207 99.5172 57.518 99.3367C56.6977 99.107 47.1 99.107 46.2797 99.3203C45.9516 99.4188 45.525 99.6813 45.3281 99.9274C45 100.338 45 100.518 45 111.904V123.47L45.4758 123.946L45.9516 124.422H51.8578H57.7641L58.2727 123.995C58.5516 123.766 58.8305 123.372 58.8961 123.126L59.0273 122.666L70.3477 125.767C76.582 127.457 82.2914 128.966 83.0625 129.114C85.1133 129.508 88.5258 129.36 90.593 128.786C93.1852 128.064 115.76 120.796 116.384 120.484C117.302 120.009 118.549 118.778 119.058 117.843C120.026 116.088 119.78 113.659 118.533 112.38C117.04 110.821 114.727 110.444 111.33 111.198C110.264 111.428 108.148 111.871 106.638 112.183L103.882 112.724L105.326 111.231C106.13 110.411 109.526 106.916 112.905 103.471C116.269 100.026 119.435 96.6953 119.927 96.0883C122.175 93.2828 123.717 89.8539 124.521 85.9328C124.734 84.8336 124.816 83.7344 124.8 81.5195C124.8 78.3695 124.538 76.6141 123.701 74.1695L123.323 73.0375L124.816 71.5281C126.391 69.9203 127.064 68.9195 127.934 66.8852C129.082 64.2109 129.345 60.5524 128.606 57.6156C127.294 52.4313 123.225 48.3625 118.041 47.05C116.777 46.7383 116.088 46.6563 114.415 46.6727C113.283 46.6727 111.872 46.7875 111.281 46.9188ZM87.4922 100.977C91.7414 101.732 92.3156 101.913 93.3328 102.815C94.2352 103.602 94.5469 104.193 94.5469 105.079C94.5469 106.014 94.0383 106.769 93.1195 107.212C92.1023 107.704 90.7078 107.671 85.8516 107.048C81.4875 106.49 80.8969 106.523 79.7484 107.425C78.3703 108.459 77.8125 110.378 78.3375 112.183C78.6 113.052 79.9617 114.43 80.8477 114.709C82.1602 115.12 92.3813 116.891 93.8906 116.99C95.3672 117.072 95.843 116.99 103.455 115.497C107.869 114.627 111.888 113.807 112.397 113.676C113.562 113.364 115.071 113.364 115.777 113.659C116.072 113.774 116.482 114.086 116.679 114.348C117.483 115.366 116.794 117.138 115.235 117.991C114.858 118.204 111.134 119.484 106.966 120.813C102.799 122.141 97.4016 123.88 94.957 124.668C92.5289 125.439 89.9039 126.227 89.1328 126.407C87.5906 126.752 84.7852 126.817 83.5547 126.555C83.1445 126.456 77.4516 124.93 70.8891 123.142L58.9453 119.91V111.838V103.783L59.3883 103.684C59.6508 103.635 62.5055 103.143 65.7539 102.618C69.0023 102.077 73.1859 101.388 75.0398 101.059C81.2906 99.9602 81.8813 99.9602 87.4922 100.977ZM56.3203 111.789V121.797H51.8906H47.4609V111.789V101.781H51.8906H56.3203V111.789Z" fill="#FED337"/>
<path d="M113.808 55.2039C113.233 55.4993 113.086 56.0735 113.086 58.0586V59.9454H111.035C109.198 59.9454 108.951 59.9782 108.656 60.2735C108.115 60.8149 108.164 61.668 108.755 62.193C109.132 62.5375 109.329 62.5704 111.133 62.5704H113.086V64.5227C113.086 66.3274 113.119 66.5243 113.463 66.9016C113.988 67.4922 114.841 67.5414 115.383 67C115.678 66.7047 115.711 66.4586 115.711 64.6211V62.5704H117.598C118.631 62.5704 119.648 62.4883 119.878 62.3899C120.698 62.0125 120.813 60.7 120.091 60.1914C119.829 60.011 119.238 59.9454 117.729 59.9454H115.711V57.911C115.711 56.2211 115.662 55.8274 115.432 55.5321C115.087 55.1219 114.283 54.9579 113.808 55.2039Z" fill="#FED337"/>
<path d="M89.6414 77.7133C89.3789 77.8445 88.4438 79.3375 86.8524 82.1266C85.5399 84.4563 84.4243 86.343 84.375 86.343C84.3258 86.3594 83.7352 85.457 83.0625 84.3578C81.3727 81.618 81.2086 81.4375 80.4375 81.4375C80.0766 81.4375 79.6993 81.5523 79.5516 81.7C79.4039 81.8313 78.6657 83.0125 77.8782 84.3086L76.4672 86.6711L72.6938 86.7203L68.9204 86.7695L68.5266 87.2289C68.0508 87.7867 68.018 88.3117 68.4774 88.8859L68.8055 89.3125H73.3008H77.7797L78.1735 88.8531C78.3868 88.5906 78.961 87.7047 79.4532 86.8844C79.9454 86.0477 80.3883 85.375 80.4375 85.375C80.5032 85.375 81.1922 86.4086 81.9797 87.6719C82.7836 88.9352 83.5711 90.0508 83.7352 90.1328C84.1454 90.3625 84.9164 90.3297 85.2282 90.0836C85.3758 89.9852 86.5407 88.0328 87.8204 85.7852C89.1164 83.5211 90.1829 81.6672 90.1993 81.6344C90.2157 81.618 90.9868 82.9797 91.9219 84.6695C96.4008 92.8891 96.6961 93.3813 97.1883 93.5945C98.1727 93.9883 98.4516 93.693 100.716 89.8703L102.799 86.3594H107.852H112.906L113.234 85.9328C113.677 85.375 113.677 84.8828 113.234 84.325L112.906 83.8984H107.098H101.29L100.978 84.3086C100.798 84.5383 99.9938 85.8344 99.2063 87.1797C98.4188 88.5414 97.7133 89.5914 97.6477 89.5094C97.5821 89.4438 96.1219 86.8023 94.3829 83.6359C90.9047 77.2703 90.7899 77.1227 89.6414 77.7133Z" fill="#FED337"/>
</g>
<defs>
<clipPath id="clip0_4_1261">
<rect width="84" height="84" fill="white" transform="translate(45 46)"/>
</clipPath>
</defs>
</svg>
