<svg width="175" height="175" viewBox="0 0 175 175" fill="none" xmlns="http://www.w3.org/2000/svg">
<circle cx="87.5" cy="87.5" r="87.5" fill="#5FC69B" fill-opacity="0.05"/>
<path d="M89.3945 46.1148C87.9999 46.2461 84.5874 46.8531 83.0945 47.2305C69.5593 50.6594 59.8632 59.8305 57.4843 71.4625C57.107 73.382 56.8281 76.5156 56.8281 79.1242C56.8281 83.0453 55.5976 86.0148 51.8077 91.232C49.396 94.5461 48.7726 96.7117 49.6913 98.5984C50.3148 99.8781 51.3484 100.502 53.7109 101.027C54.0882 101.109 54.121 101.191 54.1374 102.06C54.1374 103.077 54.4491 103.865 55.1382 104.587L55.532 105.013L55.2202 105.571C54.3835 107.015 54.6952 108.688 56.0241 110.017L56.8609 110.838L56.4835 112.183C56.2046 113.167 56.1062 113.955 56.0898 115.234C56.0898 116.76 56.139 117.055 56.5163 117.859C57.0906 119.106 57.7796 119.845 58.9281 120.452C60.5195 121.305 61.7991 121.534 64.7851 121.518C67.1148 121.518 70.8718 121.124 72.4304 120.73C72.8241 120.632 72.8405 120.698 73.546 123.634C73.9398 125.291 74.3991 126.998 74.5796 127.424C74.9898 128.376 76.2366 129.541 77.139 129.803C77.6148 129.951 82.2249 130 95.2351 130H112.691L113.528 129.606C115.152 128.852 116.169 127.08 116.022 125.275C115.973 124.701 115.612 123.47 115.103 122.125C113.101 116.793 112.429 112.511 113.019 108.672C113.495 105.538 114.709 102.831 117.367 98.9758C122.666 91.2977 123.962 89.0664 125.144 85.5391C126.358 81.9133 126.899 77.8281 126.587 74.6617C125.39 62.6852 119.024 53.4813 108.819 49.0188C105.604 47.6242 101.699 46.5742 98.0898 46.1641C96.7116 46.0164 90.8874 45.9836 89.3945 46.1148ZM98.4343 49.0352C104.734 49.8719 110.427 52.3 114.66 55.9586C117.219 58.1734 119.155 60.7328 120.747 63.9648C122.387 67.2789 123.355 70.7078 123.782 74.7273C124.094 77.7461 123.667 80.9453 122.437 84.6203C121.337 87.9344 119.976 90.3133 115.431 96.7281C112.675 100.649 111.313 103.356 110.509 106.523C110.116 108.114 110.066 108.524 110.083 111.379C110.083 114.119 110.132 114.742 110.526 116.629C110.772 117.794 111.428 120.058 111.969 121.633C113.446 125.915 113.38 125.652 113.052 126.276C112.462 127.359 113.643 127.293 95.8749 127.342C86.9827 127.375 79.321 127.342 78.8288 127.293C77.3195 127.113 77.2374 126.932 76.1218 122.338C74.9898 117.695 74.9405 117.597 73.5296 117.745C73.0538 117.794 71.807 117.974 70.7734 118.155C67.9843 118.647 65.1296 118.893 63.5874 118.762C58.9445 118.401 57.878 116.514 59.6171 111.74C59.896 111.018 60.1093 110.23 60.1093 109.984C60.1093 109.394 59.7155 108.885 59.0429 108.672C58.7476 108.573 58.2554 108.229 57.9765 107.901C57.5171 107.392 57.4843 107.294 57.6812 106.998C57.8124 106.818 58.2062 106.506 58.5507 106.309C59.0101 106.047 59.2726 105.768 59.3874 105.374C59.6827 104.521 59.3874 103.996 58.321 103.455C57.8288 103.209 57.2874 102.815 57.107 102.585C56.746 102.093 56.8445 101.781 57.6648 100.83C58.2554 100.157 58.2882 99.4516 57.7632 98.9266C57.4351 98.5984 57.1398 98.5164 55.9913 98.4344C52.8577 98.1719 51.939 97.7289 52.1195 96.5805C52.2507 95.7602 52.9562 94.3984 53.7437 93.3977C56.057 90.4609 58.2882 86.4578 59.0593 83.8164C59.4202 82.5531 59.5023 81.8477 59.6171 78.9766C59.814 74.6125 59.896 73.6281 60.3062 71.7742C61.4054 66.5898 64.096 61.9961 68.3124 58.0586C72.2991 54.3344 77.8445 51.4469 83.8984 49.9375C85.621 49.5109 88.164 49.0516 89.6405 48.9039C91.3468 48.7234 96.6788 48.8055 98.4343 49.0352Z" fill="#FED337"/>
<path d="M90.8711 50.8398L90.461 51.2336V55.7945V60.339L89.9195 59.814C89.1977 59.1086 88.1969 59.0758 87.6883 59.7156C86.9828 60.6015 87.1633 60.9625 89.2961 63.1281C91.9211 65.7695 91.7735 65.7695 94.3985 63.1445C96.0719 61.4711 96.3672 61.1101 96.3672 60.6672C96.3672 59.3054 94.8414 58.7968 93.7914 59.814L93.25 60.339V55.7945V51.2336L92.8399 50.8398C92.2985 50.282 91.4125 50.282 90.8711 50.8398Z" fill="#FED337"/>
<path d="M85.375 54.925C77.3359 57.1727 70.9375 63.243 68.3781 71.0523C67.607 73.3984 67.5085 74.3336 67.9843 74.9078C68.2632 75.2688 68.4765 75.3672 68.9687 75.3672C69.8875 75.3672 70.1828 74.9898 70.6914 73.2344C72.1187 68.0992 74.7601 64.2438 78.9929 61.0938C81.0929 59.5352 83.7507 58.3211 87.0484 57.4023C88.4593 57.025 88.9351 56.0242 88.1312 55.1219C87.6062 54.5312 86.9828 54.482 85.375 54.925Z" fill="#FED337"/>
<path d="M96.0881 54.6953C95.4975 54.9414 95.1694 55.5977 95.2842 56.2539C95.4155 56.9594 95.7928 57.2055 97.2694 57.5828C104.816 59.4367 110.985 65.5399 113.019 73.1688C113.298 74.2024 113.577 74.8914 113.79 75.0719C114.299 75.5149 115.267 75.4492 115.726 74.957C116.055 74.6125 116.087 74.4485 116.005 73.6774C115.89 72.4633 114.922 69.6578 114.004 67.8039C111.904 63.5875 108.442 59.8633 104.406 57.468C101.617 55.811 97.0561 54.2852 96.0881 54.6953Z" fill="#FED337"/>
<path d="M89.7227 67C87.2945 67.443 85.293 68.5422 83.3898 70.4289C81.0273 72.8078 79.9609 75.4 79.9609 78.8125C79.9609 82.2086 81.0109 84.7844 83.4062 87.1961C84.9484 88.7711 86.2937 89.5914 88.2953 90.2641C89.3781 90.625 89.8703 90.6906 91.7734 90.6906C93.6602 90.707 94.1687 90.6414 95.2187 90.3297C97.1219 89.7226 98.5656 88.8859 99.993 87.5406C102.798 84.8992 104.127 81.3719 103.75 77.5328C103.274 72.8242 99.8945 68.7555 95.3008 67.3281C93.9883 66.9344 91.068 66.7539 89.7227 67ZM93.8898 69.8711C97.1875 70.6586 100.009 73.4641 100.797 76.7617C101.043 77.8117 101.043 79.8133 100.797 80.8633C99.6977 85.457 95.1039 88.5742 90.5266 87.8687C86.95 87.3109 83.9148 84.5875 82.9961 81.1094C82.8648 80.6172 82.75 79.5836 82.75 78.8125C82.75 76.2695 83.6031 74.1859 85.375 72.4141C87.6719 70.1172 90.8547 69.1656 93.8898 69.8711Z" fill="#FED337"/>
<path d="M93.8733 77.1227L90.9529 80.0266L89.017 78.1234C87.9342 77.057 86.9006 76.1711 86.6545 76.1055C85.7193 75.8758 84.735 76.8602 84.9647 77.7953C85.0303 78.0578 86.0967 79.2719 87.6553 80.8141C91.1662 84.3578 90.4936 84.4562 95.2022 79.7313L98.8772 76.0398L98.7787 75.4164C98.6475 74.6453 98.1553 74.2188 97.3842 74.2188C96.8428 74.2188 96.5639 74.4484 93.8733 77.1227Z" fill="#FED337"/>
<path d="M73.1358 74.3828C72.9389 74.4648 72.66 74.6945 72.5124 74.9078C72.0858 75.5148 72.1842 76.1219 72.8405 76.8437L73.4311 77.5H68.8374C64.5717 77.5 64.2272 77.5164 63.8663 77.8117C63.3249 78.2547 63.3249 79.3703 63.8663 79.8133C64.2272 80.1086 64.5717 80.125 68.8374 80.125H73.4311L72.8405 80.7812C72.135 81.5687 72.0694 82.1922 72.6436 82.8484C72.9389 83.193 73.1686 83.3078 73.628 83.3078C74.1858 83.3078 74.3991 83.1437 76.1874 81.3555C78.8124 78.7305 78.8124 78.8945 76.2366 76.3187C74.3006 74.3992 73.8084 74.1039 73.1358 74.3828Z" fill="#FED337"/>
<path d="M109.574 74.3664C109.394 74.4484 108.409 75.3672 107.409 76.3844C104.931 78.8945 104.931 78.7305 107.507 81.3391C109.312 83.1437 109.509 83.3078 110.066 83.3078C110.542 83.3078 110.772 83.193 111.067 82.8484C111.641 82.1922 111.576 81.5687 110.87 80.7812L110.28 80.125H114.873C119.139 80.125 119.484 80.1086 119.845 79.8133C120.386 79.3703 120.386 78.2547 119.845 77.8117C119.484 77.5164 119.139 77.5 114.873 77.5H110.28L110.87 76.8437C111.576 76.0726 111.641 75.4164 111.1 74.8094C110.673 74.3336 110.066 74.1695 109.574 74.3664Z" fill="#FED337"/>
<path d="M67.9842 82.7008C67.5084 83.3078 67.6233 84.2593 68.4108 86.6383C71.0686 94.5789 77.6311 100.698 85.6537 102.749C87.1795 103.143 87.6881 103.077 88.1639 102.487C88.9022 101.535 88.4428 100.6 87.0483 100.223C82.3889 98.9265 79.1897 97.1383 76.2366 94.1359C73.4803 91.3304 71.8069 88.3773 70.6748 84.3742C70.1826 82.6351 69.8873 82.2578 68.9686 82.2578C68.4764 82.2578 68.2631 82.3562 67.9842 82.7008Z" fill="#FED337"/>
<path d="M113.791 82.5367C113.577 82.7336 113.298 83.4227 113.019 84.4562C110.969 92.1508 104.948 98.0734 97.1874 100.059C95.7929 100.42 95.4156 100.666 95.2843 101.371C95.1531 102.06 95.514 102.7 96.1702 102.946C96.9249 103.241 100.551 102.159 103.11 100.879C106.08 99.3859 109.64 96.3672 111.723 93.5781C113.676 90.9531 115.776 86.2609 116.005 83.9477C116.087 83.1766 116.055 83.0125 115.726 82.668C115.267 82.1758 114.299 82.1102 113.791 82.5367Z" fill="#FED337"/>
<path d="M91.3633 92.5773C91.1828 92.6594 90.1984 93.5781 89.1977 94.5953C87.6555 96.1539 87.3438 96.564 87.3438 96.9742C87.3438 98.3359 88.8695 98.8281 89.9195 97.8109L90.4609 97.2859V101.83V106.391L90.8711 106.785C91.4125 107.343 92.2984 107.343 92.8398 106.785L93.25 106.391V101.847V97.3187L93.8242 97.8273C94.9398 98.7953 96.3672 98.3195 96.3672 96.9578C96.3672 96.5148 96.0883 96.1539 94.4477 94.5297C92.5281 92.6265 92.0195 92.2984 91.3633 92.5773Z" fill="#FED337"/>
</svg>
