<svg width="64" height="64" viewBox="0 0 64 64" fill="none" xmlns="http://www.w3.org/2000/svg">
<path d="M23.5625 14.1125C20.6875 15.425 17.025 18.05 14.775 20.425C10.4125 25.0375 8.25 30.1375 8.25 35.775C8.25 39.6 8.975 42.325 10.6625 44.925C12.575 47.8375 14.5 49.2375 17.5625 49.95C19.375 50.3625 22.1125 50.1375 23.7125 49.4375C27.0375 47.9625 29.3125 44.075 29.0875 40.25C28.875 36.7125 27.0625 33.975 23.9375 32.425C23.325 32.125 22.45 31.7875 22 31.675C20.175 31.2125 17.9 31.25 16.45 31.75C16.0375 31.8875 15.6875 31.975 15.65 31.95C15.5375 31.825 15.9 30.1375 16.3125 28.9125C17.1875 26.275 18.425 24.25 20.375 22.2C22.075 20.4375 23.9625 18.9625 26.1625 17.7C26.7375 17.375 26.7625 17.3375 26.5875 17.0875C26.4875 16.9375 25.9375 16.125 25.35 15.3L24.3 13.775L23.5625 14.1125Z" fill="#212B36"/>
<path d="M49.2874 14.625C39.9749 19.4625 34.5249 27.8375 34.9124 36.7375C35.0624 40.3125 35.9124 42.95 37.7624 45.5375C39.9624 48.6375 42.8374 50.15 46.4999 50.1375C48.2874 50.1375 49.4749 49.8875 50.8624 49.225C53.0749 48.175 54.9249 45.6 55.5749 42.675C55.8749 41.3 55.7749 39.1625 55.3374 37.8125C54.2999 34.6375 51.5874 32.2625 48.1874 31.5625C46.2999 31.175 43.7749 31.35 42.6124 31.9375C42.1624 32.175 42.1624 32.15 42.4999 30.65C43.5874 25.7625 46.3749 21.9375 51.2249 18.7125C51.9624 18.2125 52.7624 17.725 52.9749 17.6375C53.1999 17.55 53.3749 17.4125 53.3749 17.35C53.3749 17.25 51.2874 14.1625 51.0124 13.85C50.9749 13.8 50.1874 14.15 49.2874 14.625Z" fill="#212B36"/>
</svg>
