<svg width="101" height="100" viewBox="0 0 101 100" fill="none" xmlns="http://www.w3.org/2000/svg">
<path d="M49.1483 4.82424C49.0114 4.88284 47.8374 7.05081 46.5266 9.62893C45.2352 12.2266 44.0809 14.4141 43.9831 14.4727C43.8852 14.5313 41.7722 14.8633 39.2678 15.2149C36.7634 15.5664 34.396 15.9375 34.0047 16.0352C33.1438 16.25 32.8699 16.6797 32.8699 17.7149C32.8699 18.418 33.046 18.6328 36.6656 22.168L40.4808 25.8789L39.5808 31.1133L38.6612 36.3281L39.0721 36.875C39.2873 37.168 39.7373 37.4805 40.07 37.5781C40.6178 37.7344 41.1265 37.5 45.3918 35.2735L50.107 32.793L54.6462 35.1953C59.655 37.8321 60.1637 37.9688 60.9659 37.0313C61.2202 36.7383 61.4354 36.3086 61.4354 36.0742C61.4159 35.8399 61.0246 33.4375 60.555 30.7617L59.6941 25.8789L63.5094 22.168C67.2659 18.4961 67.3051 18.4571 67.3051 17.6172C67.3051 16.8555 66.8355 16.0352 66.3855 16.0156C65.8964 15.9961 56.1332 14.4922 56.0745 14.4336C56.0354 14.3946 54.9397 12.2266 53.6484 9.64846C52.3375 7.05081 51.144 4.88284 50.9679 4.80471C50.5962 4.66799 49.5201 4.66799 49.1483 4.82424ZM53.8636 17.3438C54.0397 17.5 55.8984 17.8516 58.0115 18.1641C60.1246 18.4766 61.905 18.75 61.9441 18.8086C62.0028 18.8477 60.7507 20.1172 59.1854 21.6211C55.8397 24.8633 56.0158 24.2188 56.9354 29.375C57.2484 31.1914 57.4832 32.7149 57.4441 32.7539C57.4245 32.793 55.8789 32.0313 54.0397 31.0547C51.9071 29.9414 50.4788 29.2969 50.0875 29.2969C49.6962 29.2969 48.2679 29.9219 46.1353 31.0547C44.2961 32.0313 42.77 32.793 42.7309 32.7539C42.6917 32.7149 42.9265 31.1914 43.2396 29.375C44.1591 24.2188 44.3352 24.8633 40.9895 21.6211C39.4243 20.1172 38.1721 18.8477 38.2308 18.8086C38.2699 18.75 40.0504 18.4766 42.1635 18.1641C44.2765 17.8516 46.1353 17.5 46.2918 17.3633C46.4679 17.2266 47.3874 15.5469 48.3461 13.6328L50.107 10.1367L51.8288 13.6133C52.7875 15.5274 53.6875 17.2071 53.8636 17.3438Z" fill="#888888"/>
<path d="M20.9742 17.3242C20.8372 17.3828 19.8785 19.1015 18.8415 21.1523C17.8241 23.2226 16.9437 24.9414 16.9045 24.9804C16.8654 25.0195 14.9871 25.332 12.7371 25.664C8.08052 26.3672 7.82617 26.4844 7.82617 27.8125C7.82617 28.5742 7.94356 28.7304 10.8393 31.6406L13.8523 34.668L13.1871 38.3789C12.4045 42.8711 12.3849 43.0469 13.011 43.6523C13.7936 44.4531 14.4002 44.2969 18.1567 42.3242C20.0741 41.3476 21.7568 40.5273 21.9133 40.5273C22.0698 40.5273 23.7525 41.3476 25.6699 42.3242C29.4264 44.2969 30.033 44.4531 30.8156 43.6523C31.4417 43.0469 31.4221 42.8906 30.6395 38.3398L29.9938 34.6094L33.0069 31.6015L36.02 28.6133L35.9613 27.7539C35.8635 26.4258 35.5309 26.2695 31.3047 25.6836C29.309 25.4101 27.509 25.1562 27.2938 25.0976C27.0003 25.039 26.3938 24.0039 25.0438 21.289C24.0264 19.2187 23.0285 17.4609 22.8524 17.3633C22.5003 17.168 21.4046 17.1484 20.9742 17.3242ZM24.7112 27.9101C24.8872 28.0469 26.3155 28.3398 27.8808 28.5742L30.7373 28.9648L28.6829 31.0351C26.6677 33.0664 26.609 33.1445 26.609 33.9844C26.609 34.4726 26.7851 35.8203 27.0003 36.9922C27.2155 38.164 27.3916 39.1992 27.3916 39.2773C27.3916 39.3555 26.159 38.789 24.6525 38.0078L21.9133 36.6211L19.1741 38.0273C17.6676 38.789 16.435 39.3555 16.435 39.2773C16.435 39.1992 16.6111 38.164 16.8263 36.9922C17.4915 33.3008 17.5502 33.4765 15.1632 31.0547L13.0893 28.9648L15.9458 28.5742C17.5111 28.3398 18.9394 28.0469 19.0959 27.9101C19.272 27.7734 19.9763 26.5234 20.6611 25.1367L21.9329 22.6367L23.1655 25.1367C23.8503 26.5039 24.5351 27.7539 24.7112 27.9101Z" fill="#888888"/>
<path d="M77.3228 17.3242C77.1858 17.3828 76.2271 19.1015 75.1902 21.1523C74.1728 23.2226 73.2923 24.9414 73.2532 24.9804C73.214 25.0195 71.3358 25.332 69.0857 25.664C64.4292 26.3672 64.1748 26.4844 64.1748 27.8125C64.1748 28.5742 64.2922 28.7304 67.1879 31.6406L70.201 34.668L69.5357 38.3789C68.7531 42.8711 68.7336 43.0469 69.3597 43.6523C70.1423 44.4531 70.7488 44.2969 74.5054 42.3242C76.4228 41.3476 78.1054 40.5273 78.2619 40.5273C78.4185 40.5273 80.1011 41.3476 82.0185 42.3242C85.7751 44.2969 86.3816 44.4531 87.1642 43.6523C87.7903 43.0469 87.7707 42.8906 86.9881 38.3398L86.3425 34.6094L89.3555 31.6015L92.3686 28.6133L92.3099 27.7539C92.2121 26.4258 91.8795 26.2695 87.6534 25.6836C85.6577 25.4101 83.8577 25.1562 83.6424 25.0976C83.349 25.039 82.7424 24.0039 81.3924 21.289C80.375 19.2187 79.3772 17.4609 79.2011 17.3633C78.8489 17.168 77.7532 17.1484 77.3228 17.3242ZM81.0598 27.9101C81.2359 28.0469 82.6642 28.3398 84.2294 28.5742L87.086 28.9648L85.0316 31.0351C83.0163 33.0664 82.9576 33.1445 82.9576 33.9844C82.9576 34.4726 83.1337 35.8203 83.349 36.9922C83.5642 38.164 83.7403 39.1992 83.7403 39.2773C83.7403 39.3555 82.5076 38.789 81.0011 38.0078L78.2619 36.6211L75.5228 38.0273C74.0162 38.789 72.7836 39.3555 72.7836 39.2773C72.7836 39.1992 72.9597 38.164 73.1749 36.9922C73.8401 33.3008 73.8988 33.4765 71.5119 31.0547L69.4379 28.9648L72.2945 28.5742C73.8597 28.3398 75.288 28.0469 75.4445 27.9101C75.6206 27.7734 76.325 26.5234 77.0097 25.1367L78.2815 22.6367L79.5141 25.1367C80.1989 26.5039 80.8837 27.7539 81.0598 27.9101Z" fill="#888888"/>
<path d="M46.6636 42.5587C42.4375 43.7696 38.9548 47.3048 37.8787 51.4844C37.4679 53.0665 37.4679 56.3087 37.8787 57.8907C38.407 59.9219 39.6396 62.0118 41.244 63.6329C42.0462 64.4141 42.6527 65.0782 42.6136 65.1173C42.594 65.1368 42.0266 65.3516 41.3809 65.6055C34.67 68.2227 29.3678 74.0821 27.4112 81.0743C27.196 81.8751 27.0003 82.7344 27.0003 82.9688C27.0003 83.2032 26.9025 83.3985 26.7851 83.3985C26.4721 83.3985 24.0264 80.9962 22.5981 79.2969C18.3524 74.2188 15.5741 68.0274 14.5763 61.3672C14.2241 59.0626 14.2045 54.3946 14.5176 51.5235C14.7524 49.4337 14.7524 49.4141 14.2828 48.9258C13.6958 48.3008 12.3654 48.2423 11.8567 48.8087C10.7806 49.9805 10.6632 59.4141 11.6415 64.0626C14.9089 79.5704 26.7069 91.4454 41.9092 94.5313C43.7092 94.9024 44.0614 94.9219 44.5505 94.6876C45.3332 94.3165 45.6658 93.5157 45.3919 92.6954C45.1375 91.8946 44.7658 91.6993 42.457 91.211C38.7005 90.4102 34.4743 88.7305 31.3439 86.7774L29.896 85.8985L30.033 84.8829C30.9526 78.1251 35.0613 72.4219 41.1853 69.4337C43.6505 68.2227 45.8027 67.6173 48.3267 67.4219C52.1811 67.1094 55.5268 67.7344 58.9899 69.4337C65.1138 72.4219 69.2226 78.1251 70.1422 84.8829L70.2791 85.8985L68.8313 86.7774C65.7008 88.7305 61.4747 90.4102 57.7181 91.211C55.4094 91.6993 55.0376 91.8946 54.7833 92.6954C54.5094 93.5157 54.842 94.3165 55.6246 94.6876C56.1137 94.9219 56.4659 94.9024 58.2659 94.5313C73.4683 91.4454 85.2663 79.5704 88.5337 64.0626C89.512 59.4141 89.3946 49.9805 88.3185 48.8087C87.8098 48.2423 86.4793 48.3008 85.8924 48.9258C85.4228 49.4141 85.4228 49.4337 85.6576 51.5235C85.9706 54.4141 85.951 59.0821 85.5989 61.4258C84.4054 69.3165 80.6488 76.6407 74.9748 82.0704C73.5466 83.4376 73.1748 83.6524 73.1748 83.0469C73.1748 82.3243 72.3531 79.629 71.6487 77.9688C69.2617 72.461 64.0964 67.5196 58.5985 65.5274C58.0703 65.3321 57.5811 65.1368 57.5616 65.1173C57.5224 65.0977 58.129 64.4141 58.9312 63.6329C61.4551 61.1133 62.6095 58.3008 62.6095 54.6094C62.6095 52.2657 62.2573 50.8008 61.1812 48.7305C59.6551 45.7813 56.5637 43.3399 53.2963 42.5001C51.6528 42.0704 48.2289 42.1094 46.6636 42.5587ZM52.9246 45.8985C55.0572 46.6407 57.0333 48.2423 58.1485 50.1954C59.6746 52.8126 59.6746 56.5626 58.1485 59.1798C54.9985 64.6094 47.6419 65.5079 43.3962 60.9766C41.6744 59.1407 40.8918 57.1876 40.8918 54.6876C40.8918 51.4649 42.4766 48.6329 45.2158 46.8555C47.3484 45.5079 50.5963 45.0977 52.9246 45.8985Z" fill="#888888"/>
<path d="M48.9135 92.5781C48.6592 92.832 48.5222 93.2227 48.5222 93.75C48.5222 94.7852 49.0505 95.3125 50.0875 95.3125C51.1244 95.3125 51.6527 94.7852 51.6527 93.75C51.6527 92.7148 51.1244 92.1875 50.0875 92.1875C49.5592 92.1875 49.1679 92.3242 48.9135 92.5781Z" fill="#888888"/>
</svg>
