<svg width="48" height="48" viewBox="0 0 48 48" fill="none" xmlns="http://www.w3.org/2000/svg">
<path d="M19.9688 30.8906C19.8375 30.9656 19.5469 31.1063 19.3125 31.2094C19.0781 31.3125 18.5719 31.5375 18.1875 31.7156C17.8032 31.8938 17.2782 32.1281 17.0156 32.25C16.7625 32.3625 16.3407 32.5594 16.0781 32.6719C15.825 32.7938 15.4594 32.9531 15.2625 33.0375L14.925 33.1875L14.9625 34.2469C15.0469 36.4219 15.6281 38.4657 16.575 39.9094C16.875 40.3781 16.9125 40.4063 17.2782 40.4063C18.5438 40.4063 19.0688 42.0375 18.0656 42.8438C17.8313 43.0313 17.6719 43.0782 17.2313 43.0782C16.7344 43.0782 16.6594 43.05 16.35 42.7407C15.9657 42.3563 15.8438 41.9344 15.9563 41.4094C16.0313 41.0813 16.0031 40.9875 15.675 40.4719C15.3563 39.9563 14.9344 39.1313 14.7094 38.5782C14.325 37.6219 13.875 35.3063 13.875 34.2469C13.875 33.975 13.8375 33.75 13.7813 33.75C13.7344 33.75 13.1532 33.9938 12.4969 34.3031C11.8313 34.6031 11.0906 34.95 10.8282 35.0625C9.21565 35.7844 9.03752 35.8969 8.68127 36.5156C8.45627 36.8906 8.39065 37.275 7.96877 40.5188C7.36877 45.1219 7.34065 45.5344 7.53752 45.9188C7.6219 46.0782 7.7719 46.2563 7.86565 46.3125C7.98752 46.3782 13.2281 46.4063 23.9531 46.4063C41.4094 46.4063 40.2469 46.4438 40.5 45.8438C40.5844 45.6375 40.6031 45.3375 40.5563 44.8313C40.4907 44.0625 40.4719 43.9407 40.2563 42.3282C39.9938 40.3875 39.7407 38.3906 39.6938 37.875C39.5532 36.4969 39.1782 35.9813 37.8094 35.3344C37.275 35.0813 36.8156 34.875 36.7969 34.875C36.7782 34.875 36.3469 34.6875 35.85 34.4531C35.3438 34.2188 34.9032 34.0594 34.8563 34.1063C34.7719 34.1906 33.75 37.05 33.75 37.2094C33.75 37.2656 33.9282 37.4907 34.1532 37.7063C35.025 38.5782 35.2031 39.4594 34.8375 41.0157C34.3219 43.1813 34.1438 43.7157 33.8438 43.9875C33.4969 44.3063 32.9531 44.3344 32.3906 44.0625C32.1844 43.9594 31.9594 43.8844 31.9032 43.875C31.8375 43.875 31.7157 43.7719 31.6313 43.6407C31.5094 43.4438 31.4907 43.35 31.575 43.1719C31.7344 42.8344 32.0813 42.7875 32.6438 43.0219C33.0188 43.1813 33.1406 43.2 33.1969 43.1063C33.2625 43.0032 33.6656 41.4844 33.9563 40.2375C34.0781 39.7032 33.9282 39.0844 33.5438 38.6063C33.2063 38.175 32.8875 37.9969 32.3156 37.9219C31.8094 37.8469 31.0969 38.1188 30.7219 38.5125C30.4313 38.8313 29.025 41.5219 29.1094 41.6063C29.1375 41.6438 29.3438 41.7563 29.5594 41.8594C29.8875 42.0094 29.9625 42.1032 29.9813 42.3469C30.0094 42.5813 29.9625 42.675 29.775 42.8063C29.5406 42.9469 29.5031 42.9469 28.9875 42.7407C28.3688 42.4875 28.2 42.3469 28.0406 41.9438C27.8813 41.55 27.9656 41.2875 28.6125 40.0875C28.9219 39.525 29.2313 38.9344 29.3063 38.775C29.5969 38.1563 29.7375 37.9688 30.1219 37.6313C30.7125 37.1157 31.2375 36.9188 32.0063 36.9C32.3719 36.9 32.7 36.8438 32.7375 36.7969C32.8313 36.6656 33.8719 33.5531 33.825 33.525C33.8156 33.5156 33.525 33.3844 33.1875 33.2344C32.85 33.0938 31.8 32.6156 30.8438 32.175C29.8875 31.7438 28.8938 31.2844 28.6219 31.1625C28.0219 30.8813 27.6563 30.7406 27.6563 30.7875C27.6563 30.8625 28.6688 33.5813 28.9031 34.1531L29.0532 34.5L28.35 35.8594C27.9656 36.6 27.5063 37.4907 27.3375 37.8375C27.1688 38.1844 27.0094 38.4282 26.9813 38.3813C26.9531 38.3344 26.775 37.7719 26.5781 37.125C25.725 34.2844 25.575 33.7875 25.4907 33.5813C25.35 33.2156 25.3875 33.0844 25.8281 32.6156C26.3063 32.1094 26.3438 31.9031 26.0344 31.6125C25.8281 31.4156 25.7344 31.4063 23.9719 31.4063C22.1813 31.4063 22.1344 31.4156 21.9938 31.6125C21.7594 31.9406 21.8156 32.1094 22.3125 32.6344C22.575 32.9063 22.7719 33.1781 22.7531 33.2344C22.7344 33.2813 22.3407 34.4531 21.8813 35.8406C21.4313 37.2188 21.0188 38.3344 20.9719 38.3156C20.925 38.3063 20.7469 38.0344 20.5875 37.7344C20.4188 37.425 20.0719 36.7688 19.8094 36.2813C19.5469 35.7938 19.2282 35.1938 19.0969 34.95L18.8625 34.5094L19.3781 33.2625C19.6594 32.5781 19.9219 31.9031 19.9594 31.7719C20.0063 31.6406 20.1094 31.4063 20.1938 31.2375C20.4469 30.75 20.3907 30.6656 19.9688 30.8906Z" fill="#51A7D6"/>
<path d="M36.375 1.79057C35.8406 2.03432 33.1687 4.65932 32.9062 5.20307C32.8031 5.4187 32.6906 5.84995 32.6625 6.15932L32.5968 6.7312L31.5 7.82807L30.3937 8.93432L29.8875 8.6062C28.6875 7.80932 27.4125 7.27495 26.0156 6.97495C23.2687 6.38432 20.1375 6.9937 17.7656 8.5687C13.3031 11.5499 11.6531 17.1843 13.7906 22.0874C14.5031 23.7187 15.8062 25.3593 17.25 26.4468C18.525 27.4031 20.3812 28.1906 21.9844 28.4531C27.9094 29.4187 33.4125 25.5562 34.5469 19.6499C34.7344 18.6937 34.725 16.6499 34.5469 15.6749C34.275 14.2687 33.6562 12.7312 32.925 11.6531L32.5406 11.0906L33.6375 10.0031C34.6781 8.96245 34.7531 8.9062 35.1187 8.9062C35.325 8.9062 35.7281 8.84057 36.0093 8.7562C36.4687 8.62495 36.6562 8.46557 38.0437 7.09682C39.7781 5.37182 39.9656 5.09057 39.9656 4.13432C39.975 3.10307 39.4031 2.18432 38.4937 1.77182C37.9594 1.52807 36.9375 1.53745 36.375 1.79057ZM26.2969 8.95307C29.4 9.87182 31.7625 12.3093 32.5968 15.4406C32.8031 16.2093 32.8406 16.5656 32.8406 17.6249C32.8406 19.0406 32.7094 19.7906 32.2593 20.9531C31.6781 22.4718 30.7594 23.7093 29.4375 24.7781C25.9312 27.6093 20.9156 27.4031 17.6062 24.2906C16.1718 22.9406 15.2906 21.3656 14.8875 19.4062C14.625 18.1593 14.6906 16.4343 15.0468 15.2343C16.0218 11.9156 18.5906 9.53432 22.0031 8.77495C22.4719 8.66245 23.0156 8.63432 24.0469 8.66245C25.2281 8.69057 25.5844 8.73745 26.2969 8.95307Z" fill="#51A7D6"/>
</svg>
