<svg width="27" height="33" viewBox="0 0 27 33" fill="none" xmlns="http://www.w3.org/2000/svg">
<path d="M19.3097 0.125483C17.6935 0.445467 15.9624 1.33013 14.9074 2.37165C13.6361 3.63276 12.9531 5.10092 12.9531 6.60046V7.08984H13.3792C15.0968 7.08984 17.0714 6.28047 18.4036 5.04446C19.8372 3.71432 20.669 1.87598 20.5405 0.326258L20.5134 -9.53674e-07L20.2024 0.00627327C20.0265 0.00627327 19.6276 0.0627413 19.3097 0.125483Z" fill="white"/>
<path d="M18.429 8.12004C17.6242 8.27062 16.921 8.48394 15.5888 8.97333C13.7088 9.66349 13.7291 9.66976 11.1865 8.76001C9.67172 8.2267 8.96168 8.08867 7.94732 8.13886C6.08092 8.2267 4.32271 8.96078 2.88909 10.2533C1.44195 11.5457 0.481692 13.4155 0.0962383 15.6867C-0.045771 16.4898 -0.0254839 18.9744 0.123288 19.8904C0.387019 21.4527 0.975344 23.473 1.55691 24.7718C2.82823 27.6077 5.03275 30.544 6.62867 31.5291C7.37929 31.9871 7.74445 32.0938 8.58975 32.0938C9.46885 32.0938 9.90841 32.0059 10.8213 31.6546C12.4984 31.0083 12.8027 30.933 13.8982 30.8891C15.0816 30.8452 15.724 30.9769 17.1374 31.5542C17.489 31.6985 17.9962 31.8742 18.2802 31.9432C18.8888 32.1 19.9167 32.1314 20.4577 32.0059C21.3503 31.8051 22.3241 31.1463 23.2099 30.1613C24.0147 29.2578 25.2792 27.4383 25.8608 26.3529C26.395 25.349 27.051 23.8181 26.9969 23.6926C26.9766 23.655 26.8143 23.5546 26.6385 23.4667C26.1516 23.2346 25.2792 22.6511 24.8532 22.2684C23.2167 20.7939 22.4458 18.8175 22.6351 16.5714C22.7636 14.984 23.5075 13.5221 24.7788 12.3175C25.2048 11.9159 25.827 11.4265 26.1245 11.2571C26.1921 11.2195 25.8946 10.8305 25.4821 10.4038C24.4001 9.27449 22.9597 8.52159 21.2692 8.18278C20.5794 8.05102 18.9902 8.01338 18.429 8.12004Z" fill="white"/>
</svg>
