<svg width="153" height="57" viewBox="0 0 153 57" fill="none" xmlns="http://www.w3.org/2000/svg">
<rect width="152" height="57" rx="5" fill="black"/>
<path d="M59.582 16.3477H62.7812V20.6484C62.332 20.7969 61.8672 20.9121 61.3867 20.9941C60.9062 21.0762 60.3672 21.1172 59.7695 21.1172C58.8984 21.1172 58.1602 20.9453 57.5547 20.6016C56.9531 20.2539 56.4961 19.752 56.1836 19.0957C55.8711 18.4355 55.7148 17.6406 55.7148 16.7109C55.7148 15.8164 55.8887 15.041 56.2363 14.3848C56.584 13.7246 57.0898 13.2148 57.7539 12.8555C58.418 12.4922 59.2227 12.3105 60.168 12.3105C60.6328 12.3105 61.082 12.3574 61.5156 12.4512C61.9531 12.541 62.3535 12.666 62.7168 12.8262L62.2246 13.9863C61.9355 13.8496 61.6113 13.7344 61.252 13.6406C60.8926 13.5469 60.5195 13.5 60.1328 13.5C59.5195 13.5 58.9902 13.6328 58.5449 13.8984C58.1035 14.1641 57.7637 14.5391 57.5254 15.0234C57.2871 15.5039 57.168 16.0723 57.168 16.7285C57.168 17.3652 57.2637 17.9238 57.4551 18.4043C57.6465 18.8848 57.9453 19.2598 58.3516 19.5293C58.7617 19.7949 59.291 19.9277 59.9395 19.9277C60.2637 19.9277 60.5391 19.9102 60.7656 19.875C60.9922 19.8398 61.2012 19.8008 61.3926 19.7578V17.5488H59.582V16.3477ZM69.6836 21H64.832V12.4336H69.6836V13.6172H66.2383V15.9434H69.4668V17.1211H66.2383V19.8105H69.6836V21ZM74.5059 21H73.0938V13.6289H70.5859V12.4336H77.0078V13.6289H74.5059V21ZM81.4375 21V12.4336H82.8438V21H81.4375ZM88.0762 21H86.6641V13.6289H84.1562V12.4336H90.5781V13.6289H88.0762V21ZM102.613 16.7051C102.613 17.3652 102.529 17.9668 102.361 18.5098C102.197 19.0488 101.949 19.5137 101.617 19.9043C101.285 20.291 100.869 20.5898 100.369 20.8008C99.8691 21.0117 99.2832 21.1172 98.6113 21.1172C97.9277 21.1172 97.334 21.0117 96.8301 20.8008C96.3301 20.5898 95.9141 20.2891 95.582 19.8984C95.2539 19.5078 95.0078 19.041 94.8438 18.498C94.6797 17.9551 94.5977 17.3535 94.5977 16.6934C94.5977 15.8105 94.7422 15.041 95.0312 14.3848C95.3242 13.7246 95.7676 13.2129 96.3613 12.8496C96.959 12.4824 97.7129 12.2988 98.623 12.2988C99.5137 12.2988 100.254 12.4805 100.844 12.8438C101.434 13.207 101.875 13.7188 102.168 14.3789C102.465 15.0352 102.613 15.8105 102.613 16.7051ZM96.0742 16.7051C96.0742 17.3652 96.1641 17.9375 96.3438 18.4219C96.5234 18.9023 96.7988 19.2734 97.1699 19.5352C97.5449 19.793 98.0254 19.9219 98.6113 19.9219C99.2012 19.9219 99.6816 19.793 100.053 19.5352C100.424 19.2734 100.697 18.9023 100.873 18.4219C101.049 17.9375 101.137 17.3652 101.137 16.7051C101.137 15.7012 100.936 14.916 100.533 14.3496C100.135 13.7793 99.498 13.4941 98.623 13.4941C98.0371 13.4941 97.5547 13.623 97.1758 13.8809C96.8008 14.1387 96.5234 14.5078 96.3438 14.9883C96.1641 15.4648 96.0742 16.0371 96.0742 16.7051ZM111.602 21H109.873L105.678 14.1621H105.625C105.641 14.3926 105.654 14.6367 105.666 14.8945C105.682 15.1523 105.693 15.418 105.701 15.6914C105.713 15.9648 105.723 16.2422 105.73 16.5234V21H104.453V12.4336H106.17L110.359 19.2246H110.4C110.393 19.0254 110.383 18.7969 110.371 18.5391C110.359 18.2812 110.348 18.0156 110.336 17.7422C110.328 17.4648 110.322 17.1973 110.318 16.9395V12.4336H111.602V21ZM63.5781 43L62.4609 39.8281H58.0938L56.9766 43H55L59.25 31.5312H61.3281L65.5703 43H63.5781ZM61.9766 38.2188L60.8906 35.0938C60.849 34.9583 60.7891 34.7682 60.7109 34.5234C60.6328 34.2734 60.5547 34.0208 60.4766 33.7656C60.3984 33.5052 60.3333 33.2865 60.2812 33.1094C60.2292 33.3229 60.1641 33.5625 60.0859 33.8281C60.013 34.0885 59.9401 34.3333 59.8672 34.5625C59.7995 34.7917 59.7474 34.9688 59.7109 35.0938L58.6172 38.2188H61.9766ZM71.3281 34.1875C72.3542 34.1875 73.1771 34.5625 73.7969 35.3125C74.4219 36.0625 74.7344 37.1771 74.7344 38.6562C74.7344 39.6354 74.5885 40.4609 74.2969 41.1328C74.0104 41.7995 73.6068 42.3047 73.0859 42.6484C72.5703 42.987 71.9688 43.1562 71.2812 43.1562C70.8438 43.1562 70.4635 43.099 70.1406 42.9844C69.8177 42.8698 69.5417 42.7214 69.3125 42.5391C69.0833 42.3516 68.8906 42.1484 68.7344 41.9297H68.625C68.651 42.138 68.6745 42.3698 68.6953 42.625C68.7214 42.875 68.7344 43.1042 68.7344 43.3125V46.8359H66.8906V34.3516H68.3906L68.6484 35.5469H68.7344C68.8958 35.3021 69.0911 35.0755 69.3203 34.8672C69.5547 34.6589 69.8359 34.4948 70.1641 34.375C70.4974 34.25 70.8854 34.1875 71.3281 34.1875ZM70.8359 35.6875C70.3307 35.6875 69.9245 35.7891 69.6172 35.9922C69.3151 36.1901 69.0938 36.4896 68.9531 36.8906C68.8177 37.2917 68.7448 37.7943 68.7344 38.3984V38.6562C68.7344 39.2969 68.7995 39.8411 68.9297 40.2891C69.0651 40.7318 69.2865 41.0703 69.5938 41.3047C69.9062 41.5339 70.3281 41.6484 70.8594 41.6484C71.3073 41.6484 71.6771 41.526 71.9688 41.2812C72.2656 41.0365 72.487 40.6875 72.6328 40.2344C72.7786 39.7812 72.8516 39.2474 72.8516 38.6328C72.8516 37.7005 72.6849 36.9766 72.3516 36.4609C72.0234 35.9453 71.5182 35.6875 70.8359 35.6875ZM81.2969 34.1875C82.3229 34.1875 83.1458 34.5625 83.7656 35.3125C84.3906 36.0625 84.7031 37.1771 84.7031 38.6562C84.7031 39.6354 84.5573 40.4609 84.2656 41.1328C83.9792 41.7995 83.5755 42.3047 83.0547 42.6484C82.5391 42.987 81.9375 43.1562 81.25 43.1562C80.8125 43.1562 80.4323 43.099 80.1094 42.9844C79.7865 42.8698 79.5104 42.7214 79.2812 42.5391C79.0521 42.3516 78.8594 42.1484 78.7031 41.9297H78.5938C78.6198 42.138 78.6432 42.3698 78.6641 42.625C78.6901 42.875 78.7031 43.1042 78.7031 43.3125V46.8359H76.8594V34.3516H78.3594L78.6172 35.5469H78.7031C78.8646 35.3021 79.0599 35.0755 79.2891 34.8672C79.5234 34.6589 79.8047 34.4948 80.1328 34.375C80.4661 34.25 80.8542 34.1875 81.2969 34.1875ZM80.8047 35.6875C80.2995 35.6875 79.8932 35.7891 79.5859 35.9922C79.2839 36.1901 79.0625 36.4896 78.9219 36.8906C78.7865 37.2917 78.7135 37.7943 78.7031 38.3984V38.6562C78.7031 39.2969 78.7682 39.8411 78.8984 40.2891C79.0339 40.7318 79.2552 41.0703 79.5625 41.3047C79.875 41.5339 80.2969 41.6484 80.8281 41.6484C81.276 41.6484 81.6458 41.526 81.9375 41.2812C82.2344 41.0365 82.4557 40.6875 82.6016 40.2344C82.7474 39.7812 82.8203 39.2474 82.8203 38.6328C82.8203 37.7005 82.6536 36.9766 82.3203 36.4609C81.9922 35.9453 81.487 35.6875 80.8047 35.6875ZM97.7656 39.8906C97.7656 40.5677 97.599 41.151 97.2656 41.6406C96.9375 42.1302 96.4635 42.5052 95.8438 42.7656C95.2292 43.026 94.4948 43.1562 93.6406 43.1562C93.224 43.1562 92.8255 43.1328 92.4453 43.0859C92.0651 43.0391 91.7057 42.9714 91.3672 42.8828C91.0339 42.7891 90.7292 42.6771 90.4531 42.5469V40.7812C90.9167 40.9844 91.4349 41.1693 92.0078 41.3359C92.5807 41.4974 93.1641 41.5781 93.7578 41.5781C94.2422 41.5781 94.6432 41.5156 94.9609 41.3906C95.2839 41.2604 95.5234 41.0781 95.6797 40.8438C95.8359 40.6042 95.9141 40.3255 95.9141 40.0078C95.9141 39.6693 95.8229 39.3828 95.6406 39.1484C95.4583 38.9141 95.1823 38.7005 94.8125 38.5078C94.4479 38.3099 93.9896 38.099 93.4375 37.875C93.0625 37.724 92.7031 37.5521 92.3594 37.3594C92.0208 37.1667 91.7188 36.9401 91.4531 36.6797C91.1875 36.4193 90.9766 36.112 90.8203 35.7578C90.6693 35.3984 90.5938 34.9766 90.5938 34.4922C90.5938 33.8464 90.7474 33.2943 91.0547 32.8359C91.3672 32.3776 91.8047 32.026 92.3672 31.7812C92.9349 31.5365 93.5964 31.4141 94.3516 31.4141C94.9505 31.4141 95.513 31.4766 96.0391 31.6016C96.5703 31.7266 97.0911 31.9036 97.6016 32.1328L97.0078 33.6406C96.5391 33.4479 96.0833 33.2943 95.6406 33.1797C95.2031 33.0651 94.7552 33.0078 94.2969 33.0078C93.901 33.0078 93.5651 33.0677 93.2891 33.1875C93.013 33.3073 92.8021 33.4766 92.6562 33.6953C92.5156 33.9089 92.4453 34.1641 92.4453 34.4609C92.4453 34.7943 92.526 35.0755 92.6875 35.3047C92.8542 35.5286 93.1094 35.7344 93.4531 35.9219C93.8021 36.1094 94.25 36.3177 94.7969 36.5469C95.4271 36.8073 95.9609 37.0807 96.3984 37.3672C96.8411 37.6536 97.1797 37.9974 97.4141 38.3984C97.6484 38.7943 97.7656 39.2917 97.7656 39.8906ZM103 41.6719C103.24 41.6719 103.477 41.651 103.711 41.6094C103.945 41.5625 104.159 41.5078 104.352 41.4453V42.8359C104.148 42.9245 103.885 43 103.562 43.0625C103.24 43.125 102.904 43.1562 102.555 43.1562C102.065 43.1562 101.625 43.0755 101.234 42.9141C100.844 42.7474 100.534 42.4635 100.305 42.0625C100.076 41.6615 99.9609 41.1068 99.9609 40.3984V35.75H98.7812V34.9297L100.047 34.2812L100.648 32.4297H101.805V34.3516H104.281V35.75H101.805V40.375C101.805 40.8125 101.914 41.138 102.133 41.3516C102.352 41.5651 102.641 41.6719 103 41.6719ZM113.766 38.6562C113.766 39.375 113.672 40.013 113.484 40.5703C113.297 41.1276 113.023 41.599 112.664 41.9844C112.305 42.3646 111.872 42.6562 111.367 42.8594C110.862 43.0573 110.292 43.1562 109.656 43.1562C109.062 43.1562 108.518 43.0573 108.023 42.8594C107.529 42.6562 107.099 42.3646 106.734 41.9844C106.375 41.599 106.096 41.1276 105.898 40.5703C105.701 40.013 105.602 39.375 105.602 38.6562C105.602 37.7031 105.766 36.8958 106.094 36.2344C106.427 35.5677 106.901 35.0599 107.516 34.7109C108.13 34.362 108.862 34.1875 109.711 34.1875C110.508 34.1875 111.211 34.362 111.82 34.7109C112.43 35.0599 112.906 35.5677 113.25 36.2344C113.594 36.901 113.766 37.7083 113.766 38.6562ZM107.492 38.6562C107.492 39.2865 107.568 39.8255 107.719 40.2734C107.875 40.7214 108.115 41.0651 108.438 41.3047C108.76 41.5391 109.177 41.6562 109.688 41.6562C110.198 41.6562 110.615 41.5391 110.938 41.3047C111.26 41.0651 111.497 40.7214 111.648 40.2734C111.799 39.8255 111.875 39.2865 111.875 38.6562C111.875 38.026 111.799 37.4922 111.648 37.0547C111.497 36.612 111.26 36.276 110.938 36.0469C110.615 35.8125 110.195 35.6953 109.68 35.6953C108.919 35.6953 108.365 35.9505 108.016 36.4609C107.667 36.9714 107.492 37.7031 107.492 38.6562ZM120.258 34.1875C120.404 34.1875 120.562 34.1953 120.734 34.2109C120.906 34.2266 121.055 34.2474 121.18 34.2734L121.008 35.9922C120.898 35.9609 120.763 35.9375 120.602 35.9219C120.445 35.9062 120.305 35.8984 120.18 35.8984C119.852 35.8984 119.539 35.9531 119.242 36.0625C118.945 36.1667 118.682 36.3281 118.453 36.5469C118.224 36.7604 118.044 37.0286 117.914 37.3516C117.784 37.6745 117.719 38.0495 117.719 38.4766V43H115.875V34.3516H117.312L117.562 35.875H117.648C117.82 35.5677 118.034 35.2865 118.289 35.0312C118.544 34.776 118.836 34.5729 119.164 34.4219C119.497 34.2656 119.862 34.1875 120.258 34.1875ZM126.227 34.1875C126.997 34.1875 127.659 34.3464 128.211 34.6641C128.763 34.9818 129.188 35.4323 129.484 36.0156C129.781 36.599 129.93 37.2969 129.93 38.1094V39.0938H124.156C124.177 39.9323 124.401 40.5781 124.828 41.0312C125.26 41.4844 125.865 41.7109 126.641 41.7109C127.193 41.7109 127.688 41.6589 128.125 41.5547C128.568 41.4453 129.023 41.2865 129.492 41.0781V42.5703C129.06 42.7734 128.62 42.9219 128.172 43.0156C127.724 43.1094 127.188 43.1562 126.562 43.1562C125.714 43.1562 124.966 42.9922 124.32 42.6641C123.68 42.3307 123.177 41.8359 122.812 41.1797C122.453 40.5234 122.273 39.7083 122.273 38.7344C122.273 37.7656 122.438 36.9427 122.766 36.2656C123.094 35.5885 123.555 35.0729 124.148 34.7188C124.742 34.3646 125.435 34.1875 126.227 34.1875ZM126.227 35.5703C125.648 35.5703 125.18 35.7578 124.82 36.1328C124.466 36.5078 124.258 37.0573 124.195 37.7812H128.133C128.128 37.349 128.055 36.9661 127.914 36.6328C127.779 36.2995 127.57 36.0391 127.289 35.8516C127.013 35.6641 126.659 35.5703 126.227 35.5703Z" fill="white"/>
<path d="M33.3078 12.1257C31.6916 12.4457 29.9604 13.3304 28.9055 14.3719C27.6342 15.633 26.9512 17.1012 26.9512 18.6007V19.0901H27.3772C29.0948 19.0901 31.0694 18.2807 32.4016 17.0447C33.8352 15.7146 34.667 13.8762 34.5385 12.3265L34.5115 12.0002L34.2004 12.0065C34.0246 12.0065 33.6256 12.063 33.3078 12.1257Z" fill="white"/>
<path d="M32.429 20.1188C31.6242 20.2694 30.921 20.4827 29.5888 20.9721C27.7088 21.6623 27.7291 21.6685 25.1865 20.7588C23.6717 20.2255 22.9617 20.0874 21.9473 20.1376C20.0809 20.2255 18.3227 20.9596 16.8891 22.252C15.4419 23.5445 14.4817 25.4142 14.0962 27.6855C13.9542 28.4886 13.9745 30.9732 14.1233 31.8892C14.387 33.4515 14.9753 35.4718 15.5569 36.7705C16.8282 39.6065 19.0328 42.5428 20.6287 43.5279C21.3793 43.9859 21.7445 44.0925 22.5897 44.0925C23.4689 44.0925 23.9084 44.0047 24.8213 43.6533C26.4984 43.0071 26.8027 42.9318 27.8982 42.8879C29.0816 42.844 29.724 42.9757 31.1374 43.5529C31.489 43.6973 31.9962 43.8729 32.2802 43.9419C32.8888 44.0988 33.9167 44.1302 34.4577 44.0047C35.3503 43.8039 36.3241 43.1451 37.2099 42.1601C38.0147 41.2566 39.2792 39.4371 39.8608 38.3516C40.395 37.3478 41.051 35.8169 40.9969 35.6914C40.9766 35.6537 40.8143 35.5533 40.6385 35.4655C40.1516 35.2334 39.2792 34.6499 38.8532 34.2671C37.2167 32.7927 36.4458 30.8163 36.6351 28.5702C36.7636 26.9828 37.5075 25.5209 38.7788 24.3163C39.2048 23.9147 39.827 23.4253 40.1245 23.2559C40.1921 23.2183 39.8946 22.8293 39.4821 22.4026C38.4001 21.2733 36.9597 20.5204 35.2692 20.1816C34.5794 20.0498 32.9902 20.0122 32.429 20.1188Z" fill="white"/>
</svg>
