<svg width="48" height="48" viewBox="0 0 48 48" fill="none" xmlns="http://www.w3.org/2000/svg">
<path d="M23.638 1.08796L23.6304 1.0928L23.6228 1.0975C23.6237 1.09691 23.5371 1.15755 23.3138 1.32653C23.1133 1.47826 22.8399 1.68859 22.5025 1.95037C21.8284 2.47348 20.9078 3.19516 19.8235 4.04955C17.6554 5.75797 14.8383 7.99246 12.0408 10.2201C9.24323 12.4478 6.46651 14.6677 4.37916 16.3468C3.33521 17.1866 2.46519 17.8899 1.85165 18.3909C1.5444 18.6418 1.30423 18.8397 1.13956 18.9778C1.1028 19.0087 1.07069 19.0358 1.04306 19.0593C1.01065 19.1732 0.981393 19.3788 1.0142 19.6661C1.05699 20.0409 1.18538 20.3626 1.32092 20.5381C1.44292 20.695 1.48272 20.7291 1.49727 20.74C1.49973 20.7418 1.50207 20.7436 1.51076 20.7473C1.52164 20.752 1.54953 20.7627 1.60594 20.7751C1.89904 20.8393 2.43759 20.8553 3.73728 20.8553C5.53755 20.8553 6.99772 22.3133 7.00044 24.1136L7.01578 34.2922L7.01578 34.293L7.0429 46.2867C7.04314 46.3919 7.07264 46.4949 7.12809 46.5843L6.27833 47.1115L7.12595 46.5809L7.1261 46.5811L7.12659 46.5819L7.1285 46.5847L7.13591 46.5949C7.14252 46.6037 7.15159 46.6149 7.16333 46.6284C7.1872 46.6558 7.21783 46.6874 7.25373 46.7202C7.32975 46.7896 7.40323 46.8407 7.45046 46.8665C7.61136 46.9541 7.79165 47 7.97486 47H24H40.0251C40.2084 47 40.3886 46.9541 40.5495 46.8665L41.027 47.7433L40.5495 46.8665C40.5968 46.8407 40.6703 46.7896 40.7463 46.7202C40.7822 46.6874 40.8128 46.6558 40.8367 46.6284C40.8484 46.6149 40.8575 46.6037 40.8641 46.5949L40.8715 46.5847L40.8734 46.5819L40.8736 46.5816C40.9279 46.4929 40.9569 46.3908 40.9571 46.2867L40.9842 34.293L40.9842 34.2922L40.9996 24.1136C41.0023 22.3133 42.4624 20.8553 44.2627 20.8553C45.5624 20.8553 46.101 20.8393 46.3941 20.7751C46.4505 20.7627 46.4784 20.752 46.4892 20.7473C46.4978 20.7436 46.5002 20.7418 46.5026 20.74L46.5027 20.74C46.5173 20.7291 46.5571 20.695 46.6792 20.5379C46.8147 20.3624 46.943 20.0408 46.9858 19.6661C47.0186 19.3788 46.9894 19.1732 46.9569 19.0593C46.9293 19.0358 46.8972 19.0087 46.8604 18.9778C46.6958 18.8397 46.4556 18.6418 46.1484 18.3909C45.5348 17.8899 44.6648 17.1866 43.6208 16.3468C41.5335 14.6677 38.7568 12.4478 35.9592 10.2201C33.1617 7.99246 30.3446 5.75797 28.1765 4.04955C27.0922 3.19516 26.1716 2.47348 25.4975 1.95037C25.1601 1.68859 24.8867 1.47826 24.6862 1.32653C24.4629 1.15755 24.3763 1.09691 24.3772 1.0975L24.3696 1.0928L24.362 1.08796C24.2715 1.03019 24.2012 1 24 1C23.7988 1 23.7285 1.03019 23.638 1.08796ZM26.02 16.7342L26.0208 16.7343C31.6558 17.7275 35.9237 22.5141 36.8036 28.5714C36.9113 29.2835 36.927 30.276 36.8849 31.2154C36.8428 32.1566 36.7381 33.141 36.571 33.8342C35.2925 39.1736 31.5364 43.1512 26.5389 44.2872C25.0604 44.6271 22.9397 44.6271 21.4612 44.2872C16.4635 43.1512 12.7072 39.1733 11.4289 33.8336C11.2618 33.1404 11.1572 32.1563 11.1151 31.2154C11.073 30.2761 11.0887 29.2836 11.1964 28.5715C11.9767 23.2066 15.3719 18.8474 20.1968 17.192C21.9896 16.575 24.1673 16.4091 26.02 16.7342Z" fill="#095FBA" stroke="#095FBA" stroke-width="2"/>
<path d="M21.001 23.9989V24.2664C21.001 25.9236 19.6576 27.2669 18.0005 27.2669C16.3434 27.2669 15 28.6103 15 30.2674V30.5861V30.9047C15 32.5619 16.3434 33.9052 18.0005 33.9052C19.6576 33.9052 21.001 35.2486 21.001 36.9057V37.1733V37.4409C21.001 39.098 22.3444 40.4414 24.0015 40.4414C25.6586 40.4414 27.002 39.098 27.002 37.4409V37.1733V36.9057C27.002 35.2486 28.3453 33.9052 30.0025 33.9052C31.6596 33.9052 33.003 32.5619 33.003 30.9047V30.5861V30.2674C33.003 28.6103 31.6596 27.2669 30.0025 27.2669C28.3453 27.2669 27.002 25.9236 27.002 24.2664V23.9989V23.7313C27.002 22.0741 25.6586 20.7308 24.0015 20.7308C22.3444 20.7308 21.001 22.0741 21.001 23.7313V23.9989Z" fill="#095FBA"/>
</svg>
