<svg width="48" height="48" viewBox="0 0 48 48" fill="none" xmlns="http://www.w3.org/2000/svg">
<path d="M6.68659 22.3697C6.85941 25.7141 8.13762 28.8867 10.3296 31.3914C13.0762 34.537 16.6155 36.3493 20.7879 36.7607C25.9296 37.2668 30.8936 35.3178 34.2579 31.4931C35.8561 29.6732 36.961 27.5342 37.5902 25.0338C37.8485 24.0225 38.036 21.0977 37.9138 20.0995C37.7257 18.62 37.4598 17.5409 36.9566 16.2158C36.734 15.6238 36.1283 14.3867 35.8654 13.9586C35.7903 13.8528 35.7374 13.7484 35.7384 13.7339C35.7397 13.7123 36.1002 13.4304 36.5303 13.1093L37.3278 12.5139L37.6107 12.8636L37.893 13.2206L38.564 12.7404C38.931 12.4734 39.7897 11.8527 40.469 11.3586C41.1484 10.8645 42.0933 10.1768 42.5697 9.82954C44.0609 8.74813 47.7707 6.4424 47.7026 6.34427C47.6687 6.2916 47.7104 6.32734 47.5069 6.01852C46.4887 4.48162 44.9458 2.23178 44.9162 2.22998C44.894 2.22864 40.5987 5.38559 39.5523 6.14677C36.7403 8.20418 35.5768 9.0523 35.296 9.25231C35.1555 9.35228 35.0447 9.45405 35.0434 9.47563C35.0415 9.50451 35.1496 9.67738 35.2943 9.85963C35.431 10.0487 35.5094 10.2198 35.47 10.2536C35.431 10.2802 35.1734 10.4671 34.8926 10.667C34.6192 10.8675 34.2837 11.1076 34.1586 11.2013L33.931 11.3827L33.2217 10.7179C31.1494 8.78458 28.7223 7.50966 25.7969 6.80481C24.8653 6.58937 21.8192 6.37626 20.9418 6.47507C16.9522 6.92811 13.7378 8.41155 11.1378 10.9953C8.46552 13.6615 6.90445 17.1107 6.70425 20.8158C6.67751 21.3494 6.66982 22.0505 6.68659 22.3697ZM9.30181 19.6639C9.81599 16.6359 11.342 13.9655 13.6715 12.0019C16.3476 9.74097 19.6483 8.65321 23.1709 8.86622C29.7563 9.26443 35.0201 14.3703 35.4718 20.798C35.7124 24.2477 34.4706 27.7091 32.0658 30.2684C31.4031 30.9661 30.0918 32.0294 29.2479 32.5353C24.2921 35.5189 17.778 34.937 13.4809 31.1262C10.1703 28.1852 8.59333 23.8663 9.30181 19.6639Z" fill="black"/>
<path d="M22.2168 34.4947C29.5624 34.4947 35.5171 28.6778 35.5171 21.5022C35.5171 14.3267 29.5624 8.50977 22.2168 8.50977C14.8713 8.50977 8.9165 14.3267 8.9165 21.5022C8.9165 28.6778 14.8713 34.4947 22.2168 34.4947Z" fill="#FED337"/>
<path d="M20.3107 9.61638C20.0952 9.703 19.8351 9.82571 19.7385 9.88345C19.4116 10.0928 18.8395 10.6053 18.7057 10.8074C18.6314 10.9156 18.4977 11.0311 18.4085 11.06C18.193 11.1177 17.9255 11.3632 17.7918 11.6086C17.658 11.8612 17.658 11.9262 17.7992 11.8107C17.933 11.7024 17.9404 11.7674 17.8215 11.9767C17.6209 12.3376 17.6803 14.9866 17.9181 16.5168C18.0073 17.0438 18.3193 17.7511 18.6537 18.1625C18.7726 18.3069 18.9435 18.6101 19.0252 18.8338C19.3447 19.6639 20.0803 20.429 20.9274 20.8116C21.3063 20.9848 21.4549 21.0137 22.0717 21.0137C22.6884 21.0137 22.837 20.9848 23.2159 20.8116C24.0407 20.4435 24.7763 19.6856 25.0809 18.9132C25.1553 18.7183 25.3782 18.3286 25.5713 18.0543C26.1732 17.1881 26.2475 16.8705 26.2921 14.965C26.3144 13.9111 26.3515 13.3481 26.3961 13.4131C26.5076 13.5647 26.3813 13.0522 26.1881 12.5397C26.0543 12.2077 26.0395 12.1066 26.1212 12.1716C26.2698 12.2943 26.2624 12.2221 26.0766 11.8612C25.876 11.4859 25.3113 10.8362 24.9695 10.6053C24.754 10.4537 24.7392 10.432 24.8952 10.4753C24.9992 10.5042 25.1924 10.5764 25.3336 10.6269C25.6457 10.7496 25.72 10.7063 25.4673 10.5475C25.1701 10.3598 24.5237 10.165 23.9441 10.0928C23.3348 10.0062 23.1639 9.93398 23.58 9.93398C23.7361 9.93398 23.8549 9.90511 23.8549 9.86902C23.8549 9.78962 22.8221 9.69578 22.4209 9.74631C22.1088 9.7824 22.1088 9.7824 22.4803 9.68135L22.8518 9.58751L22.5175 9.58029C22.3317 9.57308 21.9008 9.6236 21.559 9.68135C21.2097 9.73909 20.92 9.77518 20.9051 9.76074C20.8754 9.73187 21.3732 9.59473 21.8487 9.50089C22.1237 9.45037 22.0568 9.44315 21.4475 9.45037C20.8828 9.4648 20.6079 9.5009 20.3107 9.61638ZM24.5162 13.4636C24.8878 13.5647 25.0066 13.8389 25.0438 14.7195C25.0735 15.4413 25.1032 15.5496 25.2518 15.694C25.4005 15.8383 25.4153 15.9033 25.3707 16.2353C25.3187 16.6756 25.0066 17.3686 24.6946 17.7439C24.5757 17.8883 24.4122 18.1625 24.3379 18.3574C23.4091 20.761 20.7713 20.7755 19.8054 18.3791C19.7088 18.1481 19.5305 17.8305 19.4116 17.6789C19.0698 17.2675 18.884 16.8633 18.7949 16.3653C18.7131 15.9394 18.7206 15.8961 18.884 15.6868C19.0401 15.4847 19.0698 15.3547 19.0995 14.6113C19.1441 13.5863 19.1887 13.5286 19.8648 13.4636C20.5039 13.4059 24.3008 13.3986 24.5162 13.4636Z" fill="#404040"/>
<path d="M19.0846 21.2157C18.9137 21.5622 18.1781 22.3129 17.866 22.4572C17.7248 22.5222 17.4871 22.5944 17.3459 22.616C17.2121 22.6377 17.0933 22.681 17.0933 22.7171C17.0933 22.8254 17.3236 23.7637 17.4722 24.2329L17.6208 24.7093L18.2227 24.7526C18.9211 24.8103 19.4412 25.0124 19.8648 25.4094C20.0208 25.5538 20.1768 25.6693 20.1991 25.6693C20.3329 25.6693 20.9422 26.3261 21.1279 26.6726C21.3285 27.019 21.3434 27.1201 21.3806 28.0584C21.4251 29.1917 21.3434 29.5598 20.9496 30.13C20.8307 30.3033 20.7341 30.4981 20.7341 30.5703C20.7341 30.9168 20.0951 31.0684 19.7607 30.8013C19.6121 30.6858 19.5973 30.6353 19.6567 30.4621C19.7236 30.2744 19.9019 30.1517 20.4369 29.9279C20.4963 29.9063 20.6301 29.7258 20.7341 29.5309C20.8902 29.2278 20.9124 29.069 20.9199 28.4987C20.9199 27.8419 20.9124 27.8202 20.7193 27.6759C20.6078 27.6037 20.4518 27.4016 20.3775 27.2356C20.0059 26.4416 19.1217 26.059 18.0592 26.2467C17.4128 26.3622 17.0189 26.5354 16.6177 26.8963C16.2462 27.2284 16.053 27.6831 16.053 28.2245C16.053 28.3905 16.001 28.5781 15.949 28.6503C15.8672 28.7514 15.8598 28.8452 15.9193 29.0473C16.0604 29.5381 16.4171 30.1228 16.7292 30.3899C17.0264 30.6353 17.0635 30.6425 17.435 30.6064C17.7843 30.5631 17.8437 30.5775 18.0146 30.7436C18.245 30.9673 18.2004 31.1911 17.8809 31.3787C17.5539 31.5736 17.3459 31.552 17.1601 31.3066C17.071 31.1839 16.9001 31.0539 16.7886 31.0106C16.2759 30.8013 15.6592 29.9279 15.4511 29.0978C15.3991 28.8957 15.31 28.6792 15.2505 28.6142C15.035 28.3616 15.1539 27.3727 15.4883 26.7664C15.5477 26.6581 15.6369 26.4344 15.6889 26.2611C15.8004 25.8786 16.1719 25.4599 16.64 25.164L16.9967 24.933L16.8258 24.4061C16.7292 24.1174 16.6103 23.6627 16.5657 23.4028C16.5137 23.143 16.4468 22.9264 16.4097 22.9264C16.2536 22.9264 15.5254 23.3378 15.1019 23.6699C14.188 24.3917 13.6902 25.3733 13.4895 26.8747C13.222 28.8741 13.3558 29.2999 14.5967 30.2816C18.1409 33.0966 22.9335 33.7463 27.1242 31.9778C28.1942 31.5303 29.5242 30.693 30.1558 30.0795C30.7725 29.4732 30.8691 28.939 30.6536 27.1851C30.5199 26.059 30.3936 25.5899 30.0518 24.933C29.7174 24.2906 28.9224 23.4966 28.2759 23.1718C27.4809 22.7676 27.5254 22.7315 27.5552 23.6699C27.57 24.1102 27.5477 24.6587 27.5106 24.8753L27.4363 25.2723L27.7261 25.561C28.1496 25.9724 28.3428 26.4055 28.3428 26.9324C28.3354 28.9174 25.6307 29.5742 24.635 27.8202C24.4493 27.5027 24.4121 27.3583 24.4121 26.9324C24.4121 26.29 24.635 25.8281 25.1403 25.4455C25.549 25.1279 25.8833 25.0196 26.4332 25.0196H26.8121L26.9013 24.4999C27.0053 23.9225 26.9682 23.1357 26.827 22.8398C26.7676 22.7243 26.6189 22.6088 26.4183 22.5294C25.9948 22.3778 25.4895 21.9375 25.1255 21.4034C24.8282 20.9703 24.8282 20.9703 24.7168 21.1363C24.6573 21.2302 24.4493 21.6344 24.2635 22.0458C24.0778 22.4572 23.8028 23.0563 23.6468 23.3811C23.4908 23.706 23.2456 24.2329 23.1044 24.5433L22.8518 25.1207L22.7329 24.2906L22.6214 23.4678L22.9038 23.179C23.0598 23.0202 23.201 22.7893 23.2307 22.6593C23.2679 22.4717 23.2381 22.3923 23.0301 22.1757C22.822 21.9592 22.7106 21.9087 22.3837 21.8726C21.4846 21.7715 20.8827 22.0458 20.8827 22.5583C20.8827 22.7748 20.9422 22.9048 21.1874 23.1646L21.4846 23.5039L21.4028 24.0596C21.3583 24.37 21.3063 24.7165 21.284 24.8248C21.2394 25.0485 21.3137 25.1784 20.5112 23.5399C19.5676 21.6127 19.248 20.9775 19.2258 20.9775C19.2109 20.9775 19.1515 21.0858 19.0846 21.2157Z" fill="#406BC1"/>
<path d="M25.787 25.4744C25.3634 25.691 25.1777 25.8498 24.9845 26.1674C24.6427 26.7376 24.7616 27.647 25.2446 28.0657C25.4823 28.275 26.0322 28.4843 26.3665 28.4843C26.961 28.4843 27.6074 28.0801 27.8377 27.5532C27.9715 27.2501 27.9715 26.6004 27.8377 26.2973C27.704 25.9869 27.3771 25.6765 27.013 25.5177C26.6638 25.3589 26.0545 25.3445 25.787 25.4744ZM26.8198 26.4344C27.1393 26.6943 27.1467 27.1057 26.8347 27.4089C26.478 27.7481 25.9653 27.6543 25.7498 27.2067C25.4229 26.5355 26.2328 25.9508 26.8198 26.4344Z" fill="#406BC1"/>
<path d="M1.82715 35.2293L6.19739 32.1416L8.10322 34.6872L7.63377 35.0189L6.11283 32.9873L4.63617 34.0306L6.01435 35.8715L5.54489 36.2031L4.1667 34.3624L2.21205 35.7434L1.82715 35.2293Z" fill="black"/>
<path d="M4.82666 38.873L7.71349 36.1095L8.15054 36.5404L5.26374 39.3039L4.82666 38.873ZM8.41684 35.8681C8.33162 35.784 8.28763 35.6834 8.28473 35.5662C8.28317 35.4502 8.32367 35.3526 8.40637 35.2734C8.48907 35.1943 8.59012 35.1564 8.70953 35.1596C8.83012 35.1641 8.93303 35.2083 9.01826 35.2923C9.10341 35.3763 9.14688 35.4763 9.14844 35.5923C9.15133 35.7096 9.11136 35.8077 9.02866 35.8869C8.94596 35.9661 8.84431 36.0034 8.72372 35.9989C8.60431 35.9956 8.502 35.952 8.41684 35.8681Z" fill="black"/>
<path d="M8.41808 38.9119L6.95521 40.8066L6.45703 40.4437L8.88879 37.2939L9.37005 37.6446L8.99006 38.1368L9.03234 38.1675C9.23177 38.063 9.44636 38.0185 9.67611 38.0342C9.90689 38.0486 10.1447 38.145 10.3896 38.3234C10.6091 38.4833 10.7675 38.667 10.8646 38.8745C10.9627 39.0806 10.9895 39.305 10.9448 39.5481C10.9011 39.7897 10.7759 40.0445 10.5691 40.3124L9.02387 42.3138L8.52574 41.9508L10.0455 39.9823C10.2366 39.7349 10.3193 39.4939 10.2936 39.2594C10.269 39.0236 10.1412 38.8216 9.91046 38.6535C9.75145 38.5376 9.58345 38.4676 9.40646 38.4433C9.23088 38.4201 9.05768 38.4466 8.88663 38.5228C8.71566 38.599 8.55948 38.7287 8.41808 38.9119Z" fill="black"/>
<path d="M11.8713 43.8966C11.5646 43.7594 11.3294 43.563 11.166 43.3073C11.0033 43.05 10.9211 42.7537 10.9194 42.418C10.9186 42.0809 11.0079 41.723 11.1875 41.3443C11.3656 40.9687 11.5865 40.6724 11.8501 40.4555C12.1137 40.2385 12.3995 40.1078 12.7073 40.063C13.0152 40.0182 13.324 40.0652 13.634 40.2039C13.8737 40.3112 14.0446 40.4347 14.1468 40.5745C14.2514 40.7135 14.3172 40.8483 14.3443 40.979C14.3738 41.1088 14.3945 41.2141 14.4066 41.2947L14.4546 41.3161L15.2892 39.5562L15.8548 39.8092L13.5938 44.5772L13.0474 44.3326L13.308 43.7832L13.2409 43.7532C13.1684 43.7998 13.0703 43.8556 12.9465 43.9206C12.8235 43.9841 12.6724 44.0228 12.4934 44.0368C12.3152 44.0492 12.1078 44.0025 11.8713 43.8966ZM12.1821 43.4374C12.4089 43.5389 12.6279 43.5673 12.8389 43.5225C13.0507 43.4762 13.246 43.3688 13.4246 43.2004C13.6039 43.0304 13.7576 42.8104 13.8857 42.5404C14.0123 42.2734 14.0831 42.022 14.0981 41.786C14.114 41.5485 14.0701 41.3388 13.9665 41.157C13.8636 40.9736 13.6972 40.8305 13.4671 40.7275C13.2275 40.6203 12.9994 40.5906 12.783 40.6386C12.5688 40.6858 12.3736 40.7933 12.1973 40.9608C12.0234 41.1275 11.8768 41.3366 11.7576 41.588C11.6368 41.8426 11.5671 42.0917 11.5484 42.3355C11.532 42.5783 11.5738 42.7965 11.6738 42.9898C11.7762 43.1824 11.9456 43.3316 12.1821 43.4374Z" fill="black"/>
<path d="M18.3794 40.6184L19.159 40.6658L20.7113 45.1264L20.7745 45.1303L22.8879 40.8928L23.6675 40.9403L23.3295 46.1796L22.7185 46.1423L22.9753 42.1618L22.9226 42.1586L20.9804 46.0366L20.3905 46.0006L18.9619 41.9174L18.9092 41.9143L18.6524 45.8948L18.0415 45.8576L18.3794 40.6184Z" fill="black"/>
<path d="M25.8382 47.3108C25.7345 47.3298 25.6404 47.3383 25.5559 47.3363C25.4717 47.3361 25.4126 47.3313 25.3785 47.3218L25.4326 46.7694C25.5884 46.7792 25.7223 46.7686 25.8345 46.7377C25.9467 46.7067 26.0381 46.6386 26.1091 46.5335C26.1821 46.4297 26.2367 46.2728 26.2729 46.0628L26.3284 45.7396L24.1016 42.1198L24.7653 41.9984L26.4626 44.8804L26.504 44.8728L27.0057 41.5885L27.6695 41.467L26.8384 46.2097C26.8011 46.4235 26.7389 46.6061 26.652 46.7577C26.5653 46.9108 26.4538 47.0329 26.3175 47.124C26.1829 47.2147 26.0232 47.2769 25.8382 47.3108Z" fill="black"/>
<path d="M33.7759 43.1816L32.326 43.9819L29.6562 39.4178L31.1704 38.582C31.6262 38.3304 32.0696 38.2065 32.5007 38.2103C32.931 38.2126 33.332 38.3361 33.7039 38.5809C34.0749 38.8243 34.3985 39.1822 34.6749 39.6547C34.953 40.1301 35.1052 40.5876 35.1316 41.027C35.1571 41.4649 35.0571 41.868 34.8314 42.2363C34.6049 42.6031 34.253 42.9182 33.7759 43.1816ZM32.6081 43.1775L33.4523 42.7115C33.8409 42.4971 34.1202 42.2466 34.2904 41.9601C34.4607 41.6734 34.5299 41.3611 34.498 41.0229C34.4661 40.6848 34.3415 40.33 34.1243 39.9586C33.9087 39.5902 33.6613 39.3071 33.3818 39.1096C33.1015 38.9105 32.7965 38.8077 32.4669 38.8009C32.1364 38.7927 31.7875 38.8899 31.4204 39.0925L30.512 39.594L32.6081 43.1775Z" fill="black"/>
<path d="M38.5502 39.9464C38.2812 40.1872 37.9861 40.3364 37.665 40.3937C37.3452 40.45 37.0223 40.4173 36.6962 40.2955C36.3715 40.1726 36.0672 39.9615 35.7836 39.6625C35.4975 39.3609 35.304 39.0473 35.2032 38.7216C35.1036 38.3948 35.0957 38.0788 35.1795 37.7737C35.2645 37.4675 35.4416 37.194 35.7107 36.9531C35.9798 36.7122 36.2742 36.5637 36.594 36.5075C36.9151 36.45 37.2386 36.4834 37.5645 36.6076C37.8918 36.7307 38.1984 36.9429 38.4845 37.2445C38.7683 37.5436 38.9593 37.856 39.0577 38.1815C39.1573 38.5059 39.1646 38.8212 39.0795 39.1275C38.9957 39.4325 38.8193 39.7055 38.5502 39.9464ZM38.1711 39.5468C38.3756 39.3638 38.4954 39.1623 38.5308 38.9425C38.5662 38.7225 38.5369 38.5013 38.4429 38.2786C38.349 38.056 38.2102 37.848 38.0266 37.6545C37.843 37.461 37.6402 37.309 37.4183 37.1986C37.1964 37.0882 36.9706 37.0406 36.7409 37.0557C36.5112 37.0708 36.2942 37.1697 36.0898 37.3527C35.8854 37.5357 35.7661 37.7378 35.7319 37.959C35.6977 38.1801 35.7282 38.4026 35.8234 38.6265C35.9186 38.8503 36.0579 39.0591 36.2415 39.2526C36.4251 39.4461 36.6272 39.5974 36.848 39.7065C37.0687 39.8156 37.2933 39.8621 37.5218 39.8457C37.7503 39.8294 37.9667 39.7298 38.1711 39.5468Z" fill="black"/>
<path d="M41.8718 36.2869C41.6498 36.5865 41.3859 36.7935 41.0799 36.908C40.774 37.0225 40.45 37.0486 40.1082 36.9864C39.7663 36.9241 39.4312 36.7782 39.1028 36.5486C38.7689 36.3149 38.5182 36.0491 38.351 35.7511C38.1836 35.4508 38.1073 35.1426 38.1225 34.8269C38.1372 34.5087 38.2514 34.2054 38.4653 33.917C38.6318 33.6923 38.8247 33.5197 39.0439 33.3994C39.2632 33.279 39.4926 33.2152 39.7321 33.2079C39.9715 33.2006 40.2043 33.2551 40.4304 33.371L40.0666 33.862C39.889 33.7946 39.6945 33.7849 39.4833 33.8331C39.2717 33.8788 39.0857 34.0098 38.9253 34.2261C38.7835 34.4175 38.7105 34.6212 38.7064 34.8374C38.7019 35.0511 38.7627 35.263 38.8886 35.4733C39.0142 35.6811 39.2012 35.872 39.4496 36.0457C39.7037 36.2234 39.9538 36.3393 40.1997 36.3935C40.4468 36.4462 40.6753 36.4376 40.8854 36.3676C41.0965 36.2963 41.274 36.1636 41.4179 35.9694C41.5124 35.8419 41.5754 35.7101 41.6069 35.5741C41.6382 35.4382 41.6379 35.3042 41.6056 35.1722C41.5734 35.0401 41.5086 34.9169 41.4114 34.8025L41.7752 34.3116C41.9488 34.4751 42.0728 34.6661 42.1472 34.8845C42.2212 35.1005 42.2376 35.3299 42.1964 35.5727C42.1548 35.8131 42.0466 36.0512 41.8718 36.2869Z" fill="black"/>
</svg>
