<svg width="48" height="48" viewBox="0 0 48 48" fill="none" xmlns="http://www.w3.org/2000/svg">
<path d="M31.4262 6.04331C28.502 5.90111 26.4623 7.64292 25.2424 9.40576C24.2387 10.8563 24.0516 12.6724 24.0762 14.4362L24.3406 33.406C24.1898 36.5971 25.4562 42.8058 31.7277 42.1123C32.3681 42.0415 32.9558 41.9216 33.4946 41.7607C39.4635 39.9777 44.1656 31.1426 44.9568 24.9636C45.5289 20.4955 42.0616 17.7834 39.738 16.7274C39.3271 16.5406 39.0395 16.1433 39.0395 15.692V13.1668C39.0395 10.0385 36.8535 6.30723 31.4262 6.04331Z" fill="#095FBA"/>
<path d="M24 33V15" stroke="#095FBA" stroke-width="2" stroke-linecap="round" stroke-linejoin="round"/>
<path d="M16.5 27C17.9834 27 19.4334 27.4399 20.6668 28.264C21.9001 29.0881 22.8614 30.2594 23.4291 31.6299C23.9968 33.0003 24.1453 34.5083 23.8559 35.9632C23.5665 37.418 22.8522 38.7544 21.8033 39.8033C20.7544 40.8522 19.418 41.5665 17.9632 41.8559C16.5083 42.1453 15.0003 41.9968 13.6299 41.4291C12.2594 40.8614 11.0881 39.9001 10.264 38.6668C9.43987 37.4334 9 35.9834 9 34.5V33.2438" stroke="#095FBA" stroke-width="2" stroke-linecap="round" stroke-linejoin="round"/>
<path d="M31.5 27C30.0166 27 28.5666 27.4399 27.3332 28.264C26.0999 29.0881 25.1386 30.2594 24.5709 31.6299C24.0032 33.0003 23.8547 34.5083 24.1441 35.9632C24.4335 37.418 25.1478 38.7544 26.1967 39.8033C27.2456 40.8522 28.582 41.5665 30.0368 41.8559C31.4917 42.1453 32.9997 41.9968 34.3701 41.4291C35.7406 40.8614 36.9119 39.9001 37.736 38.6668C38.5601 37.4334 39 35.9834 39 34.5V33.2438" stroke="#095FBA" stroke-width="2" stroke-linecap="round" stroke-linejoin="round"/>
<path d="M13.5007 33.75H12.0007C9.87341 33.7557 7.81282 33.0077 6.18456 31.6386C4.5563 30.2695 3.46564 28.368 3.10607 26.2712C2.7465 24.1745 3.14128 22.0182 4.22036 20.1848C4.82889 19.1509 5.63287 18.2575 6.57841 17.5487C7.89941 16.5584 9.00074 15.151 9.00074 13.5V13.5C9.00074 11.5109 9.79091 9.60322 11.1974 8.1967C12.604 6.79018 14.5116 6 16.5007 6C18.4899 6 20.3975 6.79018 21.804 8.1967C23.2106 9.60322 24.0007 11.5109 24.0007 13.5V34.5" stroke="#095FBA" stroke-width="2" stroke-linecap="round" stroke-linejoin="round"/>
<path d="M34.5 33.75H36C38.1273 33.7557 40.1879 33.0077 41.8162 31.6386C43.4444 30.2695 44.5351 28.368 44.8947 26.2712C45.2542 24.1745 44.8595 22.0182 43.7804 20.1848C43.1718 19.1509 42.3679 18.2575 41.4223 17.5487C40.1013 16.5584 39 15.151 39 13.5V13.5C39 11.5109 38.2098 9.60322 36.8033 8.1967C35.3968 6.79018 33.4891 6 31.5 6C29.5109 6 27.6032 6.79018 26.1967 8.1967C24.7902 9.60322 24 11.5109 24 13.5" stroke="#095FBA" stroke-width="2" stroke-linecap="round" stroke-linejoin="round"/>
<path d="M16.5 15.75V17.25C16.5 18.6424 15.9469 19.9777 14.9623 20.9623C13.9777 21.9469 12.6424 22.5 11.25 22.5" stroke="#095FBA" stroke-width="2" stroke-linecap="round" stroke-linejoin="round"/>
<path d="M31.5 15.75V17.25C31.5 18.6424 32.0531 19.9777 33.0377 20.9623C34.0223 21.9469 35.3576 22.5 36.75 22.5" stroke="white" stroke-width="2" stroke-linecap="round" stroke-linejoin="round"/>
</svg>
