<svg width="169" height="48" viewBox="0 0 169 48" fill="none" xmlns="http://www.w3.org/2000/svg">
<path d="M52.8516 17.9375V35H49.6289V17.9375H52.8516ZM59.7305 25.3086V27.8516H52.0078V25.3086H59.7305ZM60.6328 17.9375V20.4805H52.0078V17.9375H60.6328ZM65.8711 22.3203V35H62.7656V22.3203H65.8711ZM62.5547 19.0039C62.5547 18.543 62.7109 18.1602 63.0234 17.8555C63.3438 17.5508 63.7734 17.3984 64.3125 17.3984C64.8516 17.3984 65.2773 17.5508 65.5898 17.8555C65.9102 18.1602 66.0703 18.543 66.0703 19.0039C66.0703 19.457 65.9102 19.8359 65.5898 20.1406C65.2773 20.4453 64.8516 20.5977 64.3125 20.5977C63.7734 20.5977 63.3438 20.4453 63.0234 20.1406C62.7109 19.8359 62.5547 19.457 62.5547 19.0039ZM71.8594 25.0273V35H68.7656V22.3203H71.6719L71.8594 25.0273ZM71.3672 28.2031H70.4531C70.4609 27.2812 70.5859 26.4453 70.8281 25.6953C71.0703 24.9453 71.4102 24.3008 71.8477 23.7617C72.293 23.2227 72.8203 22.8086 73.4297 22.5195C74.0391 22.2305 74.7188 22.0859 75.4688 22.0859C76.0781 22.0859 76.6289 22.1719 77.1211 22.3438C77.6133 22.5156 78.0352 22.7891 78.3867 23.1641C78.7461 23.5391 79.0195 24.0312 79.207 24.6406C79.4023 25.2422 79.5 25.9844 79.5 26.8672V35H76.3828V26.8438C76.3828 26.2656 76.2969 25.8086 76.125 25.4727C75.9609 25.1367 75.7188 24.8984 75.3984 24.7578C75.0859 24.6172 74.6992 24.5469 74.2383 24.5469C73.7617 24.5469 73.3438 24.6445 72.9844 24.8398C72.6328 25.0273 72.3359 25.2891 72.0938 25.625C71.8594 25.9609 71.6797 26.3477 71.5547 26.7852C71.4297 27.2227 71.3672 27.6953 71.3672 28.2031ZM89.8359 32.3047V17H92.9531V35H90.1406L89.8359 32.3047ZM81.6914 28.8125V28.5664C81.6914 27.5977 81.8008 26.7188 82.0195 25.9297C82.2461 25.1328 82.5742 24.4492 83.0039 23.8789C83.4336 23.3086 83.9531 22.8672 84.5625 22.5547C85.1797 22.2422 85.8789 22.0859 86.6602 22.0859C87.418 22.0859 88.0781 22.2383 88.6406 22.543C89.2109 22.8477 89.6953 23.2812 90.0938 23.8438C90.5 24.4062 90.8242 25.0742 91.0664 25.8477C91.3086 26.6133 91.4844 27.457 91.5938 28.3789V29.0469C91.4844 29.9453 91.3086 30.7695 91.0664 31.5195C90.8242 32.2695 90.5 32.9258 90.0938 33.4883C89.6953 34.043 89.2109 34.4727 88.6406 34.7773C88.0703 35.082 87.4023 35.2344 86.6367 35.2344C85.8633 35.2344 85.168 35.0742 84.5508 34.7539C83.9414 34.4336 83.4219 33.9844 82.9922 33.4062C82.5703 32.8281 82.2461 32.1484 82.0195 31.3672C81.8008 30.5859 81.6914 29.7344 81.6914 28.8125ZM84.7969 28.5664V28.8125C84.7969 29.3594 84.8438 29.8711 84.9375 30.3477C85.0312 30.8242 85.1836 31.2461 85.3945 31.6133C85.6055 31.9727 85.875 32.2539 86.2031 32.457C86.5391 32.6602 86.9453 32.7617 87.4219 32.7617C88.0312 32.7617 88.5312 32.6289 88.9219 32.3633C89.3203 32.0898 89.6289 31.7188 89.8477 31.25C90.0664 30.7734 90.207 30.2383 90.2695 29.6445V27.8047C90.2383 27.3359 90.1562 26.9023 90.0234 26.5039C89.8984 26.1055 89.7188 25.7617 89.4844 25.4727C89.2578 25.1836 88.9766 24.957 88.6406 24.793C88.3047 24.6289 87.9062 24.5469 87.4453 24.5469C86.9688 24.5469 86.5625 24.6523 86.2266 24.8633C85.8906 25.0664 85.6172 25.3516 85.4062 25.7188C85.1953 26.0859 85.0391 26.5117 84.9375 26.9961C84.8438 27.4805 84.7969 28.0039 84.7969 28.5664ZM98.8359 24.9219V35H95.7422V22.3203H98.6602L98.8359 24.9219ZM98.3789 28.2031H97.4297C97.4297 27.3203 97.5352 26.5078 97.7461 25.7656C97.9648 25.0234 98.2852 24.3789 98.707 23.832C99.1289 23.2773 99.6484 22.8477 100.266 22.543C100.891 22.2383 101.613 22.0859 102.434 22.0859C103.004 22.0859 103.527 22.1719 104.004 22.3438C104.48 22.5078 104.891 22.7695 105.234 23.1289C105.586 23.4805 105.855 23.9414 106.043 24.5117C106.23 25.0742 106.324 25.75 106.324 26.5391V35H103.23V26.8555C103.23 26.2617 103.145 25.7969 102.973 25.4609C102.809 25.125 102.57 24.8906 102.258 24.7578C101.945 24.6172 101.57 24.5469 101.133 24.5469C100.648 24.5469 100.23 24.6445 99.8789 24.8398C99.5352 25.0273 99.25 25.2891 99.0234 25.625C98.8047 25.9609 98.6406 26.3477 98.5312 26.7852C98.4297 27.2227 98.3789 27.6953 98.3789 28.2031ZM106.09 27.6289L104.812 27.8633C104.82 27.0664 104.93 26.3203 105.141 25.625C105.352 24.9219 105.66 24.3086 106.066 23.7852C106.48 23.2539 106.992 22.8398 107.602 22.543C108.219 22.2383 108.93 22.0859 109.734 22.0859C110.359 22.0859 110.922 22.1758 111.422 22.3555C111.93 22.5273 112.363 22.8047 112.723 23.1875C113.082 23.5625 113.355 24.0508 113.543 24.6523C113.738 25.2539 113.836 25.9883 113.836 26.8555V35H110.719V26.8438C110.719 26.2266 110.633 25.7539 110.461 25.4258C110.297 25.0977 110.059 24.8711 109.746 24.7461C109.434 24.6133 109.066 24.5469 108.645 24.5469C108.215 24.5469 107.84 24.6289 107.52 24.793C107.207 24.9492 106.941 25.168 106.723 25.4492C106.512 25.7305 106.352 26.0586 106.242 26.4336C106.141 26.8008 106.09 27.1992 106.09 27.6289ZM120.328 33.5938L123.727 22.3203H127.043L121.957 36.9219C121.84 37.2344 121.688 37.5742 121.5 37.9414C121.32 38.3086 121.078 38.6562 120.773 38.9844C120.469 39.3203 120.086 39.5938 119.625 39.8047C119.172 40.0156 118.621 40.1211 117.973 40.1211C117.691 40.1211 117.441 40.1016 117.223 40.0625C117.004 40.0234 116.773 39.9727 116.531 39.9102V37.5898C116.609 37.5977 116.699 37.6016 116.801 37.6016C116.91 37.6094 117.004 37.6133 117.082 37.6133C117.535 37.6133 117.91 37.5586 118.207 37.4492C118.504 37.3477 118.742 37.1797 118.922 36.9453C119.109 36.7188 119.266 36.4219 119.391 36.0547L120.328 33.5938ZM118.652 22.3203L121.523 31.6602L122.027 34.9297L119.895 35.3164L115.312 22.3203H118.652ZM133.875 35H130.195L130.219 32.4688H133.875C134.867 32.4688 135.699 32.25 136.371 31.8125C137.043 31.3672 137.551 30.7305 137.895 29.9023C138.238 29.0664 138.41 28.0664 138.41 26.9023V26.0234C138.41 25.125 138.312 24.332 138.117 23.6445C137.922 22.957 137.633 22.3789 137.25 21.9102C136.875 21.4414 136.41 21.0859 135.855 20.8438C135.301 20.6016 134.664 20.4805 133.945 20.4805H130.125V17.9375H133.945C135.086 17.9375 136.125 18.1289 137.062 18.5117C138.008 18.8945 138.824 19.4453 139.512 20.1641C140.207 20.875 140.738 21.7266 141.105 22.7188C141.48 23.7109 141.668 24.8203 141.668 26.0469V26.9023C141.668 28.1211 141.48 29.2305 141.105 30.2305C140.738 31.2227 140.207 32.0742 139.512 32.7852C138.824 33.4961 138.004 34.043 137.051 34.4258C136.098 34.8086 135.039 35 133.875 35ZM132 17.9375V35H128.777V17.9375H132ZM143.625 28.7891V28.543C143.625 27.6133 143.758 26.7578 144.023 25.9766C144.289 25.1875 144.676 24.5039 145.184 23.9258C145.691 23.3477 146.312 22.8984 147.047 22.5781C147.781 22.25 148.617 22.0859 149.555 22.0859C150.508 22.0859 151.352 22.25 152.086 22.5781C152.828 22.8984 153.453 23.3477 153.961 23.9258C154.469 24.5039 154.855 25.1875 155.121 25.9766C155.387 26.7578 155.52 27.6133 155.52 28.543V28.7891C155.52 29.7109 155.387 30.5664 155.121 31.3555C154.855 32.1367 154.469 32.8203 153.961 33.4062C153.453 33.9844 152.832 34.4336 152.098 34.7539C151.363 35.0742 150.523 35.2344 149.578 35.2344C148.641 35.2344 147.801 35.0742 147.059 34.7539C146.316 34.4336 145.691 33.9844 145.184 33.4062C144.676 32.8203 144.289 32.1367 144.023 31.3555C143.758 30.5664 143.625 29.7109 143.625 28.7891ZM146.719 28.543V28.7891C146.719 29.3438 146.773 29.8633 146.883 30.3477C146.992 30.832 147.16 31.2578 147.387 31.625C147.613 31.9922 147.906 32.2812 148.266 32.4922C148.633 32.6953 149.07 32.7969 149.578 32.7969C150.078 32.7969 150.508 32.6953 150.867 32.4922C151.227 32.2812 151.52 31.9922 151.746 31.625C151.98 31.2578 152.152 30.832 152.262 30.3477C152.371 29.8633 152.426 29.3438 152.426 28.7891V28.543C152.426 27.9961 152.371 27.4844 152.262 27.0078C152.152 26.5234 151.98 26.0977 151.746 25.7305C151.52 25.3555 151.223 25.0625 150.855 24.8516C150.496 24.6328 150.062 24.5234 149.555 24.5234C149.055 24.5234 148.625 24.6328 148.266 24.8516C147.906 25.0625 147.613 25.3555 147.387 25.7305C147.16 26.0977 146.992 26.5234 146.883 27.0078C146.773 27.4844 146.719 27.9961 146.719 28.543ZM162.973 32.7969C163.41 32.7969 163.801 32.7109 164.145 32.5391C164.488 32.3672 164.762 32.125 164.965 31.8125C165.176 31.5 165.289 31.1367 165.305 30.7227H168.223C168.207 31.582 167.965 32.3516 167.496 33.0312C167.027 33.7109 166.402 34.25 165.621 34.6484C164.848 35.0391 163.98 35.2344 163.02 35.2344C162.043 35.2344 161.191 35.0703 160.465 34.7422C159.738 34.4141 159.133 33.957 158.648 33.3711C158.172 32.7852 157.812 32.1055 157.57 31.332C157.336 30.5586 157.219 29.7305 157.219 28.8477V28.4727C157.219 27.5898 157.336 26.7617 157.57 25.9883C157.812 25.2148 158.172 24.5352 158.648 23.9492C159.133 23.3633 159.738 22.9062 160.465 22.5781C161.191 22.25 162.039 22.0859 163.008 22.0859C164.031 22.0859 164.93 22.2852 165.703 22.6836C166.484 23.082 167.094 23.6445 167.531 24.3711C167.977 25.0977 168.207 25.9531 168.223 26.9375H165.305C165.289 26.4844 165.188 26.0781 165 25.7188C164.812 25.3594 164.547 25.0703 164.203 24.8516C163.859 24.6328 163.441 24.5234 162.949 24.5234C162.426 24.5234 161.988 24.6328 161.637 24.8516C161.293 25.0703 161.023 25.3711 160.828 25.7539C160.641 26.1289 160.508 26.5508 160.43 27.0195C160.359 27.4805 160.324 27.9648 160.324 28.4727V28.8477C160.324 29.3633 160.359 29.8555 160.43 30.3242C160.508 30.793 160.641 31.2148 160.828 31.5898C161.023 31.957 161.293 32.25 161.637 32.4688C161.988 32.6875 162.434 32.7969 162.973 32.7969Z" fill="#FED337"/>
<path d="M19.9688 30.8906C19.8375 30.9656 19.5469 31.1063 19.3125 31.2094C19.0781 31.3125 18.5719 31.5375 18.1875 31.7156C17.8032 31.8938 17.2782 32.1281 17.0156 32.25C16.7625 32.3625 16.3407 32.5594 16.0781 32.6719C15.825 32.7938 15.4594 32.9531 15.2625 33.0375L14.925 33.1875L14.9625 34.2469C15.0469 36.4219 15.6281 38.4657 16.575 39.9094C16.875 40.3781 16.9125 40.4063 17.2782 40.4063C18.5438 40.4063 19.0688 42.0375 18.0656 42.8438C17.8313 43.0313 17.6719 43.0782 17.2313 43.0782C16.7344 43.0782 16.6594 43.05 16.35 42.7407C15.9657 42.3563 15.8438 41.9344 15.9563 41.4094C16.0313 41.0813 16.0031 40.9875 15.675 40.4719C15.3563 39.9563 14.9344 39.1313 14.7094 38.5782C14.325 37.6219 13.875 35.3063 13.875 34.2469C13.875 33.975 13.8375 33.75 13.7813 33.75C13.7344 33.75 13.1532 33.9938 12.4969 34.3031C11.8313 34.6031 11.0906 34.95 10.8282 35.0625C9.21565 35.7844 9.03752 35.8969 8.68127 36.5156C8.45627 36.8906 8.39065 37.275 7.96877 40.5188C7.36877 45.1219 7.34065 45.5344 7.53752 45.9188C7.6219 46.0782 7.7719 46.2563 7.86565 46.3125C7.98752 46.3782 13.2281 46.4063 23.9531 46.4063C41.4094 46.4063 40.2469 46.4438 40.5 45.8438C40.5844 45.6375 40.6031 45.3375 40.5563 44.8313C40.4907 44.0625 40.4719 43.9407 40.2563 42.3282C39.9938 40.3875 39.7407 38.3906 39.6938 37.875C39.5532 36.4969 39.1782 35.9813 37.8094 35.3344C37.275 35.0813 36.8156 34.875 36.7969 34.875C36.7782 34.875 36.3469 34.6875 35.85 34.4531C35.3438 34.2188 34.9032 34.0594 34.8563 34.1063C34.7719 34.1906 33.75 37.05 33.75 37.2094C33.75 37.2656 33.9282 37.4907 34.1532 37.7063C35.025 38.5782 35.2031 39.4594 34.8375 41.0157C34.3219 43.1813 34.1438 43.7157 33.8438 43.9875C33.4969 44.3063 32.9531 44.3344 32.3906 44.0625C32.1844 43.9594 31.9594 43.8844 31.9032 43.875C31.8375 43.875 31.7157 43.7719 31.6313 43.6407C31.5094 43.4438 31.4907 43.35 31.575 43.1719C31.7344 42.8344 32.0813 42.7875 32.6438 43.0219C33.0188 43.1813 33.1406 43.2 33.1969 43.1063C33.2625 43.0032 33.6656 41.4844 33.9563 40.2375C34.0781 39.7032 33.9282 39.0844 33.5438 38.6063C33.2063 38.175 32.8875 37.9969 32.3156 37.9219C31.8094 37.8469 31.0969 38.1188 30.7219 38.5125C30.4313 38.8313 29.025 41.5219 29.1094 41.6063C29.1375 41.6438 29.3438 41.7563 29.5594 41.8594C29.8875 42.0094 29.9625 42.1032 29.9813 42.3469C30.0094 42.5813 29.9625 42.675 29.775 42.8063C29.5406 42.9469 29.5031 42.9469 28.9875 42.7407C28.3688 42.4875 28.2 42.3469 28.0406 41.9438C27.8813 41.55 27.9656 41.2875 28.6125 40.0875C28.9219 39.525 29.2313 38.9344 29.3063 38.775C29.5969 38.1563 29.7375 37.9688 30.1219 37.6313C30.7125 37.1157 31.2375 36.9188 32.0063 36.9C32.3719 36.9 32.7 36.8438 32.7375 36.7969C32.8313 36.6656 33.8719 33.5531 33.825 33.525C33.8156 33.5156 33.525 33.3844 33.1875 33.2344C32.85 33.0938 31.8 32.6156 30.8438 32.175C29.8875 31.7438 28.8938 31.2844 28.6219 31.1625C28.0219 30.8813 27.6563 30.7406 27.6563 30.7875C27.6563 30.8625 28.6688 33.5813 28.9031 34.1531L29.0532 34.5L28.35 35.8594C27.9656 36.6 27.5063 37.4907 27.3375 37.8375C27.1688 38.1844 27.0094 38.4282 26.9813 38.3813C26.9531 38.3344 26.775 37.7719 26.5781 37.125C25.725 34.2844 25.575 33.7875 25.4907 33.5813C25.35 33.2156 25.3875 33.0844 25.8281 32.6156C26.3063 32.1094 26.3438 31.9031 26.0344 31.6125C25.8281 31.4156 25.7344 31.4063 23.9719 31.4063C22.1813 31.4063 22.1344 31.4156 21.9938 31.6125C21.7594 31.9406 21.8156 32.1094 22.3125 32.6344C22.575 32.9063 22.7719 33.1781 22.7531 33.2344C22.7344 33.2813 22.3407 34.4531 21.8813 35.8406C21.4313 37.2188 21.0188 38.3344 20.9719 38.3156C20.925 38.3063 20.7469 38.0344 20.5875 37.7344C20.4188 37.425 20.0719 36.7688 19.8094 36.2813C19.5469 35.7938 19.2282 35.1938 19.0969 34.95L18.8625 34.5094L19.3781 33.2625C19.6594 32.5781 19.9219 31.9031 19.9594 31.7719C20.0063 31.6406 20.1094 31.4063 20.1938 31.2375C20.4469 30.75 20.3907 30.6656 19.9688 30.8906Z" fill="#51A7D6"/>
<path d="M36.375 1.79057C35.8406 2.03432 33.1687 4.65932 32.9062 5.20307C32.8031 5.4187 32.6906 5.84995 32.6625 6.15932L32.5968 6.7312L31.5 7.82807L30.3937 8.93432L29.8875 8.6062C28.6875 7.80932 27.4125 7.27495 26.0156 6.97495C23.2687 6.38432 20.1375 6.9937 17.7656 8.5687C13.3031 11.5499 11.6531 17.1843 13.7906 22.0874C14.5031 23.7187 15.8062 25.3593 17.25 26.4468C18.525 27.4031 20.3812 28.1906 21.9844 28.4531C27.9094 29.4187 33.4125 25.5562 34.5469 19.6499C34.7344 18.6937 34.725 16.6499 34.5469 15.6749C34.275 14.2687 33.6562 12.7312 32.925 11.6531L32.5406 11.0906L33.6375 10.0031C34.6781 8.96245 34.7531 8.9062 35.1187 8.9062C35.325 8.9062 35.7281 8.84057 36.0093 8.7562C36.4687 8.62495 36.6562 8.46557 38.0437 7.09682C39.7781 5.37182 39.9656 5.09057 39.9656 4.13432C39.975 3.10307 39.4031 2.18432 38.4937 1.77182C37.9594 1.52807 36.9375 1.53745 36.375 1.79057ZM26.2969 8.95307C29.4 9.87182 31.7625 12.3093 32.5968 15.4406C32.8031 16.2093 32.8406 16.5656 32.8406 17.6249C32.8406 19.0406 32.7094 19.7906 32.2593 20.9531C31.6781 22.4718 30.7594 23.7093 29.4375 24.7781C25.9312 27.6093 20.9156 27.4031 17.6062 24.2906C16.1718 22.9406 15.2906 21.3656 14.8875 19.4062C14.625 18.1593 14.6906 16.4343 15.0468 15.2343C16.0218 11.9156 18.5906 9.53432 22.0031 8.77495C22.4719 8.66245 23.0156 8.63432 24.0469 8.66245C25.2281 8.69057 25.5844 8.73745 26.2969 8.95307Z" fill="#51A7D6"/>
</svg>
