<svg width="48" height="48" viewBox="0 0 48 48" fill="none" xmlns="http://www.w3.org/2000/svg">
<path d="M17.4915 16.7721L6.87765 27.4227C3.08838 31.2133 3.08532 37.3559 6.87081 41.1427C10.6563 44.9295 16.7968 44.9264 20.5861 41.1358L30.6322 30.9495L23.5458 23.4479L17.4915 16.7721Z" fill="#095FBA" stroke="#095FBA" stroke-width="2" stroke-linecap="round" stroke-linejoin="round"/>
<path d="M27.4295 6.86192L6.87667 27.4218C3.08742 31.2123 3.08437 37.3549 6.86986 41.1417C10.6553 44.9285 16.7959 44.9254 20.5851 41.1349L41.138 20.5751C44.9272 16.7845 44.9303 10.6419 41.1448 6.8551C37.3593 3.06833 31.2188 3.07138 27.4295 6.86192Z" stroke="#095FBA" stroke-width="2" stroke-linecap="round" stroke-linejoin="round"/>
<path d="M17.1484 17.1602L30.8568 30.8732" stroke="#095FBA" stroke-width="2" stroke-linecap="round" stroke-linejoin="round"/>
<path d="M29.8789 18.6075L35.1052 13.5508" stroke="#095FBA" stroke-width="2" stroke-linecap="round" stroke-linejoin="round"/>
</svg>
