<svg width="26" height="26" viewBox="0 0 26 26" fill="none" xmlns="http://www.w3.org/2000/svg">
<circle cx="13" cy="13" r="13" fill="#095FBA"/>
<path d="M18.25 8H7.75C7.28602 8.00045 6.84119 8.16821 6.51311 8.46646C6.18503 8.76472 6.0005 9.16911 6 9.59091V16.4091C6.0005 16.8309 6.18503 17.2353 6.51311 17.5335C6.84119 17.8318 7.28602 17.9995 7.75 18H18.25C18.714 17.9995 19.1588 17.8318 19.4869 17.5335C19.815 17.2353 19.9995 16.8309 20 16.4091V9.59091C19.9995 9.16911 19.815 8.76472 19.4869 8.46646C19.1588 8.16821 18.714 8.00045 18.25 8ZM17.8069 10.6315L13.3069 13.8134C13.2191 13.8754 13.1111 13.909 13 13.909C12.8889 13.909 12.7809 13.8754 12.6931 13.8134L8.19313 10.6315C8.14025 10.5952 8.09585 10.5497 8.06248 10.4977C8.02911 10.4457 8.00746 10.3881 7.99877 10.3284C7.99007 10.2687 7.99452 10.208 8.01185 10.1499C8.02919 10.0918 8.05905 10.0373 8.09972 9.9898C8.14039 9.94225 8.19104 9.90252 8.24874 9.87292C8.30645 9.84333 8.37004 9.82445 8.43584 9.81739C8.50164 9.81033 8.56832 9.81523 8.63201 9.8318C8.69571 9.84837 8.75515 9.87629 8.80687 9.91392L13 12.8787L17.1931 9.91392C17.298 9.84194 17.4298 9.81037 17.56 9.82604C17.6903 9.8417 17.8085 9.90335 17.8892 9.99765C17.9698 10.0919 18.0064 10.2113 17.991 10.3299C17.9756 10.4486 17.9095 10.5569 17.8069 10.6315Z" fill="white"/>
</svg>
