<svg width="48" height="48" viewBox="0 0 48 48" fill="none" xmlns="http://www.w3.org/2000/svg">
<path d="M26.25 11.25L9.43126 28.0687C9.29387 28.2068 9.18506 28.3706 9.11106 28.5508C9.03707 28.731 8.99933 28.924 9.00001 29.1188C9.00001 34.576 13.424 39 18.8813 39C19.076 39.0007 19.269 38.9629 19.4492 38.8889C19.6294 38.8149 19.7932 38.7061 19.9313 38.5687L36.75 21.75" fill="#095FBA"/>
<path d="M26.25 11.25L9.43126 28.0687C9.29387 28.2068 9.18506 28.3706 9.11106 28.5508C9.03707 28.731 8.99933 28.924 9.00001 29.1188V29.1188C9.00001 34.576 13.424 39 18.8813 39V39C19.076 39.0007 19.269 38.9629 19.4492 38.8889C19.6294 38.8149 19.7932 38.7061 19.9313 38.5687L36.75 21.75" stroke="#095FBA" stroke-width="2" stroke-linecap="round" stroke-linejoin="round"/>
<path d="M34.5 4.5L43.5 13.5" stroke="#095FBA" stroke-width="2" stroke-linecap="round" stroke-linejoin="round"/>
<path d="M24 9L39 24" stroke="#095FBA" stroke-width="2" stroke-linecap="round" stroke-linejoin="round"/>
<path d="M19.125 18.375L24 23.25" stroke="#095FBA" stroke-width="2" stroke-linecap="round" stroke-linejoin="round"/>
<path d="M13.875 23.625L18.75 28.5" stroke="#095FBA" stroke-width="2" stroke-linecap="round" stroke-linejoin="round"/>
<path d="M31.5 16.5L39 9" stroke="#095FBA" stroke-width="2" stroke-linecap="round" stroke-linejoin="round"/>
<path d="M9 39L4.5 43.5" stroke="#095FBA" stroke-width="2" stroke-linecap="round" stroke-linejoin="round"/>
</svg>
