<svg width="118" height="32" viewBox="0 0 118 32" fill="none" xmlns="http://www.w3.org/2000/svg">
<path d="M53.75 16.75H51.6484V24H49.8125V16.75H48.3984V15.8672L49.8125 15.3281V14.7266C49.8125 13.9922 49.9271 13.4089 50.1562 12.9766C50.3906 12.5443 50.724 12.2344 51.1562 12.0469C51.5938 11.8542 52.1146 11.7578 52.7188 11.7578C53.1146 11.7578 53.4766 11.7917 53.8047 11.8594C54.1328 11.9219 54.4089 11.9948 54.6328 12.0781L54.1562 13.4688C53.9792 13.4115 53.7812 13.3594 53.5625 13.3125C53.3438 13.2604 53.1094 13.2344 52.8594 13.2344C52.4427 13.2344 52.1354 13.3646 51.9375 13.625C51.7448 13.8854 51.6484 14.2656 51.6484 14.7656V15.3516H53.75V16.75ZM62.8828 19.6562C62.8828 20.375 62.7891 21.013 62.6016 21.5703C62.4141 22.1276 62.1406 22.599 61.7812 22.9844C61.4219 23.3646 60.9896 23.6562 60.4844 23.8594C59.9792 24.0573 59.4089 24.1562 58.7734 24.1562C58.1797 24.1562 57.6354 24.0573 57.1406 23.8594C56.6458 23.6562 56.2161 23.3646 55.8516 22.9844C55.4922 22.599 55.2135 22.1276 55.0156 21.5703C54.8177 21.013 54.7188 20.375 54.7188 19.6562C54.7188 18.7031 54.8828 17.8958 55.2109 17.2344C55.5443 16.5677 56.0182 16.0599 56.6328 15.7109C57.2474 15.362 57.9792 15.1875 58.8281 15.1875C59.625 15.1875 60.3281 15.362 60.9375 15.7109C61.5469 16.0599 62.0234 16.5677 62.3672 17.2344C62.7109 17.901 62.8828 18.7083 62.8828 19.6562ZM56.6094 19.6562C56.6094 20.2865 56.6849 20.8255 56.8359 21.2734C56.9922 21.7214 57.2318 22.0651 57.5547 22.3047C57.8776 22.5391 58.2943 22.6562 58.8047 22.6562C59.3151 22.6562 59.7318 22.5391 60.0547 22.3047C60.3776 22.0651 60.6146 21.7214 60.7656 21.2734C60.9167 20.8255 60.9922 20.2865 60.9922 19.6562C60.9922 19.026 60.9167 18.4922 60.7656 18.0547C60.6146 17.612 60.3776 17.276 60.0547 17.0469C59.7318 16.8125 59.3125 16.6953 58.7969 16.6953C58.0365 16.6953 57.4818 16.9505 57.1328 17.4609C56.7839 17.9714 56.6094 18.7031 56.6094 19.6562ZM69.375 15.1875C69.5208 15.1875 69.6797 15.1953 69.8516 15.2109C70.0234 15.2266 70.1719 15.2474 70.2969 15.2734L70.125 16.9922C70.0156 16.9609 69.8802 16.9375 69.7188 16.9219C69.5625 16.9062 69.4219 16.8984 69.2969 16.8984C68.9688 16.8984 68.6562 16.9531 68.3594 17.0625C68.0625 17.1667 67.7995 17.3281 67.5703 17.5469C67.3411 17.7604 67.1615 18.0286 67.0312 18.3516C66.901 18.6745 66.8359 19.0495 66.8359 19.4766V24H64.9922V15.3516H66.4297L66.6797 16.875H66.7656C66.9375 16.5677 67.151 16.2865 67.4062 16.0312C67.6615 15.776 67.9531 15.5729 68.2812 15.4219C68.6146 15.2656 68.9792 15.1875 69.375 15.1875ZM76.2422 24V12.5781H78.1172V22.4062H82.9688V24H76.2422ZM86.5938 15.3516V24H84.7578V15.3516H86.5938ZM85.6875 12.0391C85.9688 12.0391 86.2109 12.1146 86.4141 12.2656C86.6224 12.4167 86.7266 12.6771 86.7266 13.0469C86.7266 13.4115 86.6224 13.6719 86.4141 13.8281C86.2109 13.9792 85.9688 14.0547 85.6875 14.0547C85.3958 14.0547 85.1484 13.9792 84.9453 13.8281C84.7474 13.6719 84.6484 13.4115 84.6484 13.0469C84.6484 12.6771 84.7474 12.4167 84.9453 12.2656C85.1484 12.1146 85.3958 12.0391 85.6875 12.0391ZM93.7344 15.1875C94.7083 15.1875 95.4661 15.4401 96.0078 15.9453C96.5547 16.4453 96.8281 17.25 96.8281 18.3594V24H94.9922V18.7031C94.9922 18.0312 94.8542 17.5286 94.5781 17.1953C94.3021 16.8568 93.875 16.6875 93.2969 16.6875C92.4583 16.6875 91.875 16.9453 91.5469 17.4609C91.224 17.9766 91.0625 18.724 91.0625 19.7031V24H89.2266V15.3516H90.6562L90.9141 16.5234H91.0156C91.2031 16.2214 91.4349 15.974 91.7109 15.7812C91.9922 15.5833 92.3047 15.4349 92.6484 15.3359C92.9974 15.237 93.3594 15.1875 93.7344 15.1875ZM106.938 15.3516V24H105.492L105.242 22.8359H105.141C104.958 23.1328 104.727 23.3802 104.445 23.5781C104.164 23.7708 103.852 23.9141 103.508 24.0078C103.164 24.1068 102.802 24.1562 102.422 24.1562C101.771 24.1562 101.214 24.0469 100.75 23.8281C100.292 23.6042 99.9401 23.2604 99.6953 22.7969C99.4505 22.3333 99.3281 21.7344 99.3281 21V15.3516H101.172V20.6562C101.172 21.3281 101.307 21.8307 101.578 22.1641C101.854 22.4974 102.281 22.6641 102.859 22.6641C103.417 22.6641 103.859 22.5495 104.188 22.3203C104.516 22.0911 104.747 21.7526 104.883 21.3047C105.023 20.8568 105.094 20.3073 105.094 19.6562V15.3516H106.938ZM111.484 19.5781L108.594 15.3516H110.688L112.664 18.3906L114.648 15.3516H116.734L113.828 19.5781L116.883 24H114.781L112.664 20.7578L110.539 24H108.453L111.484 19.5781Z" fill="white"/>
<path d="M12.6155 9.03157L12.728 11.0513L10.9282 13.6856L8.11613 17.9884L7.55371 21.5888L9.57843 26.6819L14.1903 28.7016H21.1643L27.6884 24.8378L30.613 18.7788L23.8639 12.3684L21.9517 8.76813L12.6155 9.03157Z" fill="#ECEFF1"/>
<path d="M28.5884 14.0368C26.7887 12.0171 25.3264 10.7878 24.539 8.24121C23.7516 5.69465 24.764 6.39715 24.089 4.20184C23.7516 3.06028 23.1892 2.26996 22.6268 1.65528C21.9518 1.04059 21.1645 0.689339 20.7145 0.601526C19.7022 0.162464 17.34 -0.540037 14.4154 0.689338C11.3783 1.91871 11.7158 4.55309 12.2782 9.90965C12.2782 10.2609 12.1657 10.7 11.9407 11.0512C11.4908 11.8415 10.7034 12.544 10.0285 13.1587C9.24113 14.0368 8.45374 14.915 7.89132 15.8809C6.5415 17.9006 5.30418 20.4471 5.64163 21.4131C6.20405 21.3253 13.2906 29.7553 13.2906 29.9309C13.7405 29.8431 15.6527 29.8431 17.34 29.8431C19.7022 29.7553 21.052 29.6675 22.9642 30.0187C22.9642 29.7553 22.8517 29.4918 22.8517 29.2284C22.8517 28.7015 22.9642 28.2625 23.0767 27.6478C23.1892 27.2087 23.3017 26.7696 23.4141 26.2428C22.2893 27.0331 20.2646 27.9112 18.3524 28.1746C16.6651 28.4381 13.853 27.999 12.5032 26.6818C12.6157 26.6818 12.8406 26.6818 12.9531 26.594C13.2906 26.5062 13.628 26.4184 13.7405 26.2428C14.0779 25.8037 13.853 25.3646 13.628 25.1012C13.403 24.8378 11.7158 23.8718 10.9284 23.345C10.141 22.8181 9.69106 22.5546 9.24113 22.2034C9.24113 22.2034 8.56622 21.6765 8.34125 21.5009C8.11628 21.3253 8.0038 21.1496 7.89132 21.0618C7.66635 20.6228 7.55386 20.0959 7.66635 19.3934C7.77883 18.4275 8.22877 17.6371 8.79119 16.759C9.01616 16.4078 9.57858 15.7053 9.57858 15.7053C9.57858 15.7053 7.66635 19.3934 8.67871 20.535C8.67871 20.535 8.79119 19.3934 9.24113 18.2518C9.57858 17.4615 10.141 16.32 10.8159 15.7053C11.4908 15.0906 13.1781 12.8075 13.2906 11.4025C13.2906 10.7878 13.403 10.1731 13.403 9.73402C12.9531 9.38277 20.827 8.50465 21.2769 9.47059C21.3894 9.82184 22.9642 12.9831 23.8641 14.6515C24.314 15.4418 24.8764 16.1443 25.2139 17.0225C25.5513 17.9884 25.7763 19.3056 25.7763 20.6228C25.7763 20.8862 25.7763 21.3253 25.6638 21.7643C25.8888 21.7643 30.2757 18.0762 25.1014 15.0028C25.1014 15.0028 28.251 16.1443 28.3634 18.4275C28.4759 20.2715 27.4636 21.7643 27.2386 22.0278C27.3511 22.0278 29.6008 22.8181 29.7133 22.8181C30.1632 22.8181 31.0631 22.5546 31.0631 22.5546C31.1756 22.2912 31.513 21.5887 31.513 21.3253C32.3004 19.3056 30.3882 16.0565 28.5884 14.0368Z" fill="#263238"/>
<path d="M14.3026 8.24132C15.1102 8.24132 15.7649 7.45502 15.7649 6.48507C15.7649 5.51512 15.1102 4.72882 14.3026 4.72882C13.495 4.72882 12.8403 5.51512 12.8403 6.48507C12.8403 7.45502 13.495 8.24132 14.3026 8.24132Z" fill="#ECEFF1"/>
<path d="M19.3644 8.41694C20.4205 8.41694 21.2766 7.51269 21.2766 6.39725C21.2766 5.28181 20.4205 4.37756 19.3644 4.37756C18.3083 4.37756 17.4521 5.28181 17.4521 6.39725C17.4521 7.51269 18.3083 8.41694 19.3644 8.41694Z" fill="#ECEFF1"/>
<path d="M15.1196 6.60485C15.0262 6.02748 14.6006 5.59394 14.1692 5.63651C13.7378 5.67908 13.4638 6.18164 13.5573 6.75902C13.6508 7.33639 14.0763 7.76993 14.5077 7.72736C14.9392 7.68479 15.2131 7.18223 15.1196 6.60485Z" fill="#212121"/>
<path d="M19.2523 7.88981C19.8735 7.88981 20.3771 7.37872 20.3771 6.74825C20.3771 6.11778 19.8735 5.60669 19.2523 5.60669C18.6311 5.60669 18.1274 6.11778 18.1274 6.74825C18.1274 7.37872 18.6311 7.88981 19.2523 7.88981Z" fill="#212121"/>
<path d="M34.2123 26.0671C33.7624 25.8915 32.975 25.6281 32.3001 24.8378C31.9627 24.3987 32.0751 23.1693 31.5127 22.6425C31.1753 22.2912 30.7253 22.4668 30.6128 22.4668C29.6005 22.6425 27.2383 23.8718 25.6635 22.4668C25.4386 22.2912 25.1011 22.0278 24.5387 22.0278C23.9763 22.0278 23.7513 22.2034 23.5263 22.5546C23.3014 22.9059 23.3014 23.1693 23.3014 24.0475C23.3014 24.75 23.3014 25.5403 23.1889 26.155C22.9639 27.6478 22.6265 28.5259 22.6265 29.404C22.6265 30.37 22.9639 30.9846 23.4139 31.2481C23.7513 31.5115 24.3137 31.6871 25.5511 31.6871C26.7884 31.6871 27.5758 31.3359 28.3632 30.7212C28.9256 30.2821 29.3755 30.1065 30.9503 29.2284C32.1876 28.6137 34.0999 27.8234 34.4373 27.56C34.6623 27.3843 34.9997 27.2965 34.9997 26.7696C34.9997 26.3306 34.5498 26.155 34.2123 26.0671Z" fill="#FFC107"/>
<path d="M11.6033 26.3306C10.4784 24.9256 10.366 24.6621 9.57856 23.784C8.90366 22.9059 7.44136 21.2374 6.54149 21.2374C5.86658 21.2374 5.52913 21.5009 5.07919 21.8521C4.62926 22.2034 4.17932 22.9937 3.39193 23.4327C2.71702 23.8718 0.804791 23.784 0.354854 24.3109C-0.0950831 24.8377 0.804792 25.6281 0.804792 26.9452C0.804792 27.4721 0.24237 27.8234 0.129886 28.1746C0.0174014 28.6137 -0.0950829 28.8771 0.129886 29.2284C0.579823 29.7552 1.14224 29.9309 4.96671 30.5456C6.99143 30.8968 8.90366 31.7749 10.141 31.8627C11.3783 31.9506 13.5155 31.8627 13.5155 29.4918C13.628 28.0868 12.6156 27.7356 11.6033 26.3306Z" fill="#FFC107"/>
<path d="M13.7403 10.4366C13.0654 10.0854 12.5029 9.73411 12.5029 9.20723C12.5029 8.68036 12.9529 8.50473 13.6278 8.06567C13.7403 7.97786 14.9776 7.09973 16.2149 7.09973C17.4522 7.09973 18.9145 7.71442 19.477 7.89004C20.4893 8.06567 21.5017 8.24129 21.3892 8.85598C21.2767 9.73411 21.1642 9.90973 20.0394 10.3488C19.252 10.5244 17.7897 11.4904 16.7773 11.4904C16.3274 11.4904 15.6525 11.4904 15.2026 11.4025C14.8651 11.3147 14.3027 10.8757 13.7403 10.4366Z" fill="#FFC107"/>
<path d="M13.5155 9.73403C13.7405 9.90965 14.0779 10.0853 14.4154 10.1731C14.6403 10.2609 14.9778 10.3487 14.9778 10.3487C15.4277 10.3487 15.7652 10.3487 15.9901 10.3487C16.5526 10.3487 17.3399 10.1731 18.1273 9.82184C18.9147 9.5584 19.0272 9.38277 19.5896 9.20715C20.1521 8.94371 20.7145 8.68028 20.4895 8.59246C20.2645 8.50465 20.0396 8.59246 19.2522 8.94371C18.5773 9.29496 18.0149 9.47059 17.3399 9.73403C17.0025 9.82184 16.5526 9.99746 16.2151 9.99746C15.8777 9.99746 15.5402 9.99746 15.2027 9.99746C14.8653 9.99746 14.6403 9.90965 14.3029 9.82184C14.0779 9.73403 13.9654 9.64621 13.8529 9.64621C13.628 9.5584 13.178 9.20715 12.9531 9.11934C12.9531 9.11934 12.7281 9.11934 12.8406 9.20715C13.178 9.47059 13.2905 9.5584 13.5155 9.73403Z" fill="#634703"/>
<path d="M16.8901 7.80225C17.0026 7.97787 17.2276 7.97787 17.3401 8.06569C17.4526 8.1535 17.565 8.1535 17.565 8.1535C17.6775 8.06569 17.565 7.89006 17.4526 7.89006C17.4526 7.71444 16.8901 7.71444 16.8901 7.80225Z" fill="#634703"/>
<path d="M15.0903 7.97791C15.0903 8.06573 15.3153 8.15354 15.3153 8.06573C15.4278 7.97791 15.5403 7.8901 15.6528 7.8901C15.8777 7.80229 15.7652 7.71448 15.4278 7.71448C15.2028 7.80229 15.2028 7.8901 15.0903 7.97791Z" fill="#634703"/>
<path d="M26.0012 23.5207C26.0012 23.6085 26.0012 23.6963 26.0012 23.7841C26.2262 24.1354 26.7886 24.2232 27.2385 24.2232C27.9134 24.2232 28.5883 23.872 28.9258 23.5207C28.9258 23.4329 29.0383 23.3451 29.1508 23.2573C29.3757 22.9938 29.4882 22.8182 29.6007 22.7304C29.6007 22.7304 29.4882 22.6426 29.4882 22.5548C29.3757 22.3791 29.0383 22.2035 28.5883 22.1157C28.2509 22.0279 27.6885 21.9401 27.4635 21.9401C26.4511 21.8523 25.8887 22.1157 25.5513 22.3791C25.5513 22.3791 25.6638 22.3791 25.6638 22.4669C25.8887 22.6426 26.0012 22.8182 26.0012 23.0816C26.1137 23.2573 26.0012 23.3451 26.0012 23.5207Z" fill="#455A64"/>
</svg>
