<svg width="96" height="32" viewBox="0 0 96 32" fill="none" xmlns="http://www.w3.org/2000/svg">
<path d="M42.6328 16.7498H40.5312V23.9998H38.6953V16.7498H37.2812V15.8669L38.6953 15.3279V14.7263C38.6953 13.9919 38.8099 13.4086 39.0391 12.9763C39.2734 12.544 39.6068 12.2341 40.0391 12.0466C40.4766 11.8539 40.9974 11.7576 41.6016 11.7576C41.9974 11.7576 42.3594 11.7914 42.6875 11.8591C43.0156 11.9216 43.2917 11.9945 43.5156 12.0779L43.0391 13.4685C42.862 13.4112 42.6641 13.3591 42.4453 13.3123C42.2266 13.2602 41.9922 13.2341 41.7422 13.2341C41.3255 13.2341 41.0182 13.3643 40.8203 13.6248C40.6276 13.8852 40.5312 14.2654 40.5312 14.7654V15.3513H42.6328V16.7498ZM51.7656 19.656C51.7656 20.3748 51.6719 21.0128 51.4844 21.5701C51.2969 22.1274 51.0234 22.5987 50.6641 22.9841C50.3047 23.3643 49.8724 23.656 49.3672 23.8591C48.862 24.057 48.2917 24.156 47.6562 24.156C47.0625 24.156 46.5182 24.057 46.0234 23.8591C45.5286 23.656 45.099 23.3643 44.7344 22.9841C44.375 22.5987 44.0964 22.1274 43.8984 21.5701C43.7005 21.0128 43.6016 20.3748 43.6016 19.656C43.6016 18.7029 43.7656 17.8956 44.0938 17.2341C44.4271 16.5675 44.901 16.0597 45.5156 15.7107C46.1302 15.3617 46.862 15.1873 47.7109 15.1873C48.5078 15.1873 49.2109 15.3617 49.8203 15.7107C50.4297 16.0597 50.9062 16.5675 51.25 17.2341C51.5938 17.9008 51.7656 18.7081 51.7656 19.656ZM45.4922 19.656C45.4922 20.2862 45.5677 20.8253 45.7188 21.2732C45.875 21.7211 46.1146 22.0649 46.4375 22.3044C46.7604 22.5388 47.1771 22.656 47.6875 22.656C48.1979 22.656 48.6146 22.5388 48.9375 22.3044C49.2604 22.0649 49.4974 21.7211 49.6484 21.2732C49.7995 20.8253 49.875 20.2862 49.875 19.656C49.875 19.0258 49.7995 18.4919 49.6484 18.0544C49.4974 17.6117 49.2604 17.2758 48.9375 17.0466C48.6146 16.8123 48.1953 16.6951 47.6797 16.6951C46.9193 16.6951 46.3646 16.9503 46.0156 17.4607C45.6667 17.9711 45.4922 18.7029 45.4922 19.656ZM58.2578 15.1873C58.4036 15.1873 58.5625 15.1951 58.7344 15.2107C58.9062 15.2263 59.0547 15.2472 59.1797 15.2732L59.0078 16.9919C58.8984 16.9607 58.763 16.9373 58.6016 16.9216C58.4453 16.906 58.3047 16.8982 58.1797 16.8982C57.8516 16.8982 57.5391 16.9529 57.2422 17.0623C56.9453 17.1664 56.6823 17.3279 56.4531 17.5466C56.224 17.7602 56.0443 18.0284 55.9141 18.3513C55.7839 18.6742 55.7188 19.0492 55.7188 19.4763V23.9998H53.875V15.3513H55.3125L55.5625 16.8748H55.6484C55.8203 16.5675 56.0339 16.2862 56.2891 16.031C56.5443 15.7758 56.8359 15.5727 57.1641 15.4216C57.4974 15.2654 57.862 15.1873 58.2578 15.1873ZM70.0547 23.9998L66.7656 14.4607H66.6953C66.7109 14.6742 66.7292 14.9659 66.75 15.3357C66.7708 15.7055 66.7891 16.1013 66.8047 16.5232C66.8203 16.9451 66.8281 17.3487 66.8281 17.7341V23.9998H65.125V12.5779H67.7578L70.9219 21.6951H70.9688L74.2422 12.5779H76.8672V23.9998H75.0781V17.6404C75.0781 17.2914 75.0833 16.9138 75.0938 16.5076C75.1094 16.1013 75.125 15.7159 75.1406 15.3513C75.1615 14.9867 75.1771 14.6951 75.1875 14.4763H75.125L71.7109 23.9998H70.0547ZM83.0781 15.1873C84.1719 15.1873 84.9974 15.4294 85.5547 15.9138C86.1172 16.3982 86.3984 17.1534 86.3984 18.1794V23.9998H85.0938L84.7422 22.7732H84.6797C84.4349 23.0857 84.1823 23.3435 83.9219 23.5466C83.6615 23.7498 83.3594 23.9008 83.0156 23.9998C82.6771 24.1039 82.263 24.156 81.7734 24.156C81.2578 24.156 80.7969 24.0623 80.3906 23.8748C79.9844 23.682 79.6641 23.3904 79.4297 22.9998C79.1953 22.6091 79.0781 22.1143 79.0781 21.5154C79.0781 20.6248 79.4089 19.9555 80.0703 19.5076C80.737 19.0597 81.7422 18.8123 83.0859 18.7654L84.5859 18.7107V18.2576C84.5859 17.6586 84.4453 17.2315 84.1641 16.9763C83.888 16.7211 83.4974 16.5935 82.9922 16.5935C82.5599 16.5935 82.1406 16.656 81.7344 16.781C81.3281 16.906 80.9323 17.0597 80.5469 17.2419L79.9531 15.9451C80.375 15.7211 80.8542 15.5388 81.3906 15.3982C81.9323 15.2576 82.4948 15.1873 83.0781 15.1873ZM84.5781 19.8669L83.4609 19.906C82.5443 19.9373 81.901 20.0935 81.5312 20.3748C81.1615 20.656 80.9766 21.0414 80.9766 21.531C80.9766 21.9581 81.1042 22.2706 81.3594 22.4685C81.6146 22.6612 81.9505 22.7576 82.3672 22.7576C83.0026 22.7576 83.5286 22.5779 83.9453 22.2185C84.3672 21.8539 84.5781 21.3201 84.5781 20.6169V19.8669ZM92.4531 24.156C91.6354 24.156 90.9271 23.9972 90.3281 23.6794C89.7292 23.3617 89.2682 22.8748 88.9453 22.2185C88.6224 21.5623 88.4609 20.7289 88.4609 19.7185C88.4609 18.6664 88.638 17.807 88.9922 17.1404C89.3464 16.4737 89.8359 15.9815 90.4609 15.6638C91.0911 15.3461 91.8125 15.1873 92.625 15.1873C93.1406 15.1873 93.6068 15.2393 94.0234 15.3435C94.4453 15.4425 94.8021 15.5649 95.0938 15.7107L94.5469 17.1794C94.2292 17.0492 93.9036 16.9399 93.5703 16.8513C93.237 16.7628 92.9167 16.7185 92.6094 16.7185C92.1042 16.7185 91.6823 16.8305 91.3438 17.0544C91.0104 17.2784 90.7604 17.6117 90.5938 18.0544C90.4323 18.4972 90.3516 19.0466 90.3516 19.7029C90.3516 20.3383 90.4349 20.8748 90.6016 21.3123C90.7682 21.7445 91.0156 22.0727 91.3438 22.2966C91.6719 22.5154 92.0755 22.6248 92.5547 22.6248C93.0286 22.6248 93.4531 22.5675 93.8281 22.4529C94.2031 22.3383 94.5573 22.1899 94.8906 22.0076V23.6013C94.5625 23.7888 94.2109 23.9268 93.8359 24.0154C93.4609 24.1091 93 24.156 92.4531 24.156Z" fill="white"/>
<path d="M19.3078 0.125176C17.6916 0.444238 15.9604 1.32635 14.9055 2.36486C13.6342 3.62234 12.9512 5.08627 12.9512 6.58148V7.06946H13.3772C15.0948 7.06946 17.0694 6.26242 18.4016 5.02997C19.8352 3.70367 20.667 1.87063 20.5385 0.325372L20.5115 5.41946e-05L20.2004 0.0063103C20.0246 0.0063103 19.6256 0.0626153 19.3078 0.125176Z" fill="white"/>
<path d="M18.429 8.09516C17.6242 8.24531 16.921 8.45802 15.5888 8.94599C13.7088 9.63416 13.7291 9.64042 11.1865 8.73328C9.67172 8.20152 8.96168 8.06388 7.94732 8.11393C6.08092 8.20152 4.32271 8.93348 2.88909 10.2222C1.44195 11.511 0.481692 13.3753 0.0962383 15.64C-0.045771 16.4408 -0.0254839 18.9182 0.123288 19.8316C0.387019 21.3894 0.975344 23.4039 1.55691 24.6989C2.82823 27.5266 5.03275 30.4545 6.62867 31.4367C7.37929 31.8934 7.74445 31.9998 8.58975 31.9998C9.46885 31.9998 9.90841 31.9122 10.8213 31.5618C12.4984 30.9174 12.8027 30.8424 13.8982 30.7986C15.0816 30.7548 15.724 30.8862 17.1374 31.4617C17.489 31.6056 17.9962 31.7808 18.2802 31.8496C18.8888 32.006 19.9167 32.0373 20.4577 31.9122C21.3503 31.712 22.3241 31.0551 23.2099 30.0729C24.0147 29.172 25.2792 27.3577 25.8608 26.2754C26.395 25.2744 27.051 23.7479 26.9969 23.6228C26.9766 23.5853 26.8143 23.4852 26.6385 23.3976C26.1516 23.1661 25.2792 22.5843 24.8532 22.2027C23.2167 20.7325 22.4458 18.7618 22.6351 16.5221C22.7636 14.9393 23.5075 13.4817 24.7788 12.2805C25.2048 11.8801 25.827 11.3921 26.1245 11.2232C26.1921 11.1857 25.8946 10.7978 25.4821 10.3724C24.4001 9.24629 22.9597 8.49555 21.2692 8.15772C20.5794 8.02634 18.9902 7.98881 18.429 8.09516Z" fill="white"/>
</svg>
