<svg width="48" height="48" viewBox="0 0 48 48" fill="none" xmlns="http://www.w3.org/2000/svg">
<path d="M8.88624 2.6077L8.88352 2.60868L8.05151 5.50527C8.05151 5.50538 8.0515 5.50549 8.0515 5.5056C8.0421 6.41011 8.77275 7.14844 9.67735 7.14844H18.3203H26.9259C27.8651 7.14844 28.6265 6.38703 28.6265 5.44778C28.6265 5.31097 28.6266 5.18093 28.6267 5.05719C28.6273 4.38816 28.6277 3.90307 28.6103 3.5259C28.5901 3.08691 28.5479 2.92644 28.5258 2.87159C28.5143 2.86368 28.4923 2.84988 28.4545 2.83068C28.3072 2.75599 28.1098 2.68761 27.7479 2.56221C27.6779 2.53795 27.6017 2.51156 27.5185 2.48257C25.6179 1.83095 23.5613 1.35982 21.4976 1.12443L21.4944 1.12406C20.0554 0.955245 16.5449 0.964167 15.1206 1.13314C13.1013 1.3778 10.7024 1.9422 8.88624 2.6077Z" fill="#095FBA" stroke="#095FBA" stroke-width="2"/>
<path d="M3.31358 13.5092V12.087C2.76064 12.3133 2.21793 12.883 2.02456 13.4973C1.9676 13.6822 1.93477 13.9777 1.95541 14.3099C1.97623 14.645 2.04487 14.913 2.11242 15.056C2.38879 15.6274 2.82537 16.0177 3.35055 16.2034C3.32701 15.5296 3.31358 14.4893 3.31358 13.5092Z" fill="#095FBA" stroke="#095FBA" stroke-width="2"/>
<path d="M8.41302 19.0863L8.41312 19.0867C9.35811 22.8164 12.394 25.7174 16.2386 26.5404C16.6987 26.6368 17.4701 26.6969 18.291 26.6992C19.1146 26.7014 19.8771 26.6452 20.3218 26.5502C22.4517 26.093 24.1416 25.1733 25.6325 23.6649L25.634 23.6634C26.8218 22.4667 27.5932 21.228 28.1344 19.6388C28.563 18.3774 28.625 17.9098 28.625 14.2779C28.625 12.9969 27.5865 11.9584 26.3054 11.9584H18.3281H9.62876C8.74692 11.9584 8.03196 12.6729 8.03125 13.5546C8.04068 16.7132 8.13805 18.0028 8.41302 19.0863ZM17.9254 18.0456L17.9254 18.0456L17.9298 18.0521C18.0532 18.2357 18.1132 18.2682 18.1202 18.2721L18.1204 18.2722L18.1207 18.2723C18.1254 18.275 18.1767 18.3041 18.375 18.3041C18.5732 18.3041 18.6245 18.275 18.6293 18.2723L18.6295 18.2722L18.6297 18.2721C18.6368 18.2682 18.6967 18.2357 18.8202 18.0521L18.8202 18.0521L18.8243 18.0461C19.466 17.1068 20.5378 16.8141 21.4477 17.0712C22.3649 17.3304 23.125 18.1543 23.125 19.3135C23.125 20.0523 22.7302 20.7336 22.292 21.2405C21.8321 21.7726 21.2085 22.2503 20.5096 22.5802C20.2125 22.7217 19.9316 22.8514 19.5598 22.917C19.2299 22.9751 18.8553 22.9767 18.375 22.9767C17.8946 22.9767 17.5201 22.9751 17.1901 22.917C16.818 22.8514 16.5369 22.7214 16.2395 22.5798C15.3726 22.1688 14.5523 21.4695 14.0514 20.706L14.0513 20.7061L14.0438 20.6943C13.3518 19.6066 13.4783 18.0617 14.6956 17.3247C15.0662 17.0979 15.4964 17.0098 15.8649 16.9977C16.2353 16.9856 16.6666 17.0462 17.0478 17.241C17.2516 17.3443 17.4297 17.4968 17.546 17.6073C17.6754 17.7302 17.8149 17.8841 17.9254 18.0456Z" fill="#095FBA" stroke="#095FBA" stroke-width="2"/>
<path d="M34.1619 15.6964L34.1672 15.6909L34.1727 15.6855C34.4575 15.4046 34.5758 15.2207 34.6428 15.0505C34.7137 14.87 34.7611 14.6176 34.7656 14.1423C34.7656 13.7007 34.7565 13.5829 34.7409 13.5101C34.7324 13.4701 34.7201 13.4229 34.5678 13.1419L34.5677 13.1417C34.267 12.587 33.8489 12.2337 33.3438 12.0704V14.1469V16.225C33.642 16.1279 33.9039 15.9588 34.1619 15.6964Z" fill="#095FBA" stroke="#095FBA" stroke-width="2"/>
<path d="M37.8025 20.7481L37.8025 20.7482L37.7904 20.7411C37.4036 20.5143 37.226 20.4532 37.1382 20.4376C37.1071 20.4321 37.0913 20.4332 37.0777 20.4354C37.0602 20.4381 37.0211 20.4468 36.9473 20.4796C36.9063 20.4987 36.8434 20.5354 36.784 20.5795C36.7652 20.5934 36.7506 20.6053 36.7401 20.6144C36.7315 20.6283 36.7198 20.6474 36.7044 20.6727C36.6666 20.7351 36.6164 20.8193 36.5548 20.9233C36.432 21.131 36.2687 21.4103 36.0782 21.738C35.6974 22.393 35.2115 23.2355 34.7316 24.0719C34.2517 24.9084 33.7788 25.7372 33.424 26.3649C33.3662 26.4671 33.3117 26.5638 33.2609 26.6541C33.3398 26.7031 33.4248 26.7555 33.5155 26.811C34.1607 27.2058 35.0643 27.7403 36.0767 28.3237L36.079 28.3249C37.4679 29.13 38.3627 29.6392 38.9219 29.9378C38.9743 29.8484 39.0307 29.7521 39.0904 29.6498C39.4419 29.0477 39.9057 28.246 40.3769 27.4276C41.2745 25.8684 42.1728 24.2927 42.3909 23.8882C42.391 23.8875 42.391 23.8868 42.3911 23.8861C42.3956 23.8342 42.3956 23.7568 42.3863 23.6665C42.377 23.5767 42.3608 23.496 42.3434 23.4371C42.3434 23.437 42.3433 23.4368 42.3433 23.4366C42.3141 23.4125 42.2766 23.383 42.2308 23.3488C42.0977 23.2494 41.9275 23.1351 41.7597 23.0352L41.7583 23.0343C40.8851 22.5126 40.602 21.3881 41.1038 20.5156C41.1969 20.3527 41.2581 20.2422 41.3014 20.1569C41.3439 20.0729 41.3565 20.0371 41.3601 20.0257C41.3603 20.0252 41.3604 20.0248 41.3605 20.0245C41.3612 20.0227 41.3615 20.0217 41.3621 20.0119C41.3636 19.9886 41.3639 19.9441 41.3576 19.8387C41.3453 19.658 41.3119 19.5831 41.2987 19.5593C41.2915 19.5461 41.2787 19.5232 41.2154 19.4864L41.2154 19.4864L41.21 19.4832C41.0982 19.4173 40.9216 19.4022 40.8101 19.4409C40.6448 19.5016 40.6392 19.5197 40.6385 19.5218C40.6385 19.5219 40.6385 19.5219 40.6384 19.5219C40.5908 19.5711 40.5059 19.6865 40.2842 20.0767C40.1772 20.2702 40.0681 20.4524 39.9773 20.5928C39.9329 20.6614 39.8844 20.7331 39.8377 20.795C39.8166 20.8228 39.7796 20.8704 39.733 20.9195C39.7117 20.9419 39.6648 20.9898 39.5986 21.0397C39.5654 21.0647 39.5065 21.1061 39.4265 21.1446C39.3558 21.1785 39.1999 21.2442 38.99 21.2442C38.8432 21.2442 38.7291 21.2108 38.7022 21.2029L38.7002 21.2024C38.6558 21.1894 38.6195 21.1758 38.598 21.1673C38.5537 21.1499 38.5132 21.1312 38.4847 21.1176C38.4246 21.089 38.356 21.0535 38.2889 21.0177C38.1517 20.9446 37.9785 20.848 37.8025 20.7481ZM36.7222 20.6308C36.7222 20.6308 36.7229 20.6302 36.7241 20.6288C36.7228 20.6302 36.7221 20.6309 36.7222 20.6308ZM32.624 26.2397C32.6221 26.2381 32.621 26.2373 32.621 26.2373C32.6209 26.2373 32.6219 26.2381 32.624 26.2397ZM39.5119 30.2281C39.5119 30.2281 39.5107 30.2277 39.5085 30.227C39.5108 30.2278 39.5119 30.2282 39.5119 30.2281ZM38.5191 30.6133C38.5191 30.6132 38.5192 30.6131 38.5194 30.6128C38.5194 30.6127 38.5194 30.6127 38.5195 30.6127C38.5192 30.6131 38.519 30.6133 38.5191 30.6133Z" fill="#095FBA" stroke="#095FBA" stroke-width="2"/>
<path d="M41.529 34.8402C41.5105 34.8729 41.4922 34.9051 41.4742 34.9368C41.9938 35.2309 42.3445 35.7886 42.3445 36.4283V38.529C42.3445 40.6349 40.6373 42.3421 38.5313 42.3421H35.5976C35.4435 42.3421 35.2934 42.3421 35.1472 42.3421C32.2447 42.342 30.8691 42.3419 30.1092 42.4076C29.726 42.4407 29.5928 42.4848 29.5335 42.5103C29.463 42.5405 29.4205 42.5715 29.1758 42.7517C29.0147 42.8755 28.7711 43.1214 28.6636 43.2664C28.4424 43.5955 28.3809 43.7257 28.3328 43.9731C28.2671 44.3121 28.2402 44.8382 28.2162 45.9768L28.2162 45.9768L28.216 45.9833C28.2007 46.5402 28.648 47 29.2052 47H37.1351C41.9453 47 44.4295 46.9976 45.746 46.9744C46.3932 46.9629 46.7215 46.9468 46.8958 46.9286C46.9013 46.9233 46.907 46.9177 46.9127 46.912C46.9204 46.9043 46.9278 46.8968 46.9348 46.8894C46.9499 46.7514 46.9645 46.4962 46.9752 46.0078C46.9983 44.9492 47.0007 42.9665 47.0007 39.1291C47.0007 38.8614 47.0008 38.6024 47.0008 38.3518C47.001 34.5123 47.0011 32.6459 46.9426 31.6099C46.9118 31.0652 46.8675 30.8214 46.8235 30.6711C46.7847 30.5385 46.7421 30.4538 46.6275 30.2255C46.6119 30.1944 46.5949 30.1606 46.5764 30.1236C46.4755 29.9334 46.2444 29.6359 45.9236 29.3274C45.6146 29.0302 45.2983 28.7959 45.0635 28.6743C44.9293 28.9052 44.7563 29.2043 44.5571 29.5499C44.1255 30.2985 43.572 31.2626 43.0245 32.219C42.4769 33.1755 41.9359 34.1236 41.529 34.8402Z" fill="#095FBA" stroke="#095FBA" stroke-width="2"/>
<path d="M24.5915 32.9823C24.5591 33.1955 24.543 33.4082 24.5298 33.6406C24.51 33.9584 24.5035 34.2448 24.537 34.5359C24.5714 34.8352 24.6431 35.0986 24.7406 35.381C24.9874 36.12 25.3032 36.7381 25.8447 37.3104C26.2298 37.7173 26.704 38.0738 27.2836 38.4346C26.8976 38.6497 26.5278 38.9024 26.1873 39.1769C25.4089 39.8042 24.7072 40.6064 24.2901 41.4698L24.289 41.4721C23.9915 42.092 23.788 42.5856 23.6689 43.2639C23.5577 43.8977 23.5249 44.6698 23.4971 45.8368M24.5915 32.9823L1.15191 33.8329C1.09166 34.058 1.04989 34.2141 1.0266 35.0895C1.00244 35.9974 1 37.5928 1 40.6857C1 43.7603 1.00244 45.3506 1.02542 46.2079C1.03567 46.5903 1.05213 46.7912 1.0619 46.8851C1.07012 46.8938 1.07887 46.9028 1.08805 46.912C1.09243 46.9164 1.09678 46.9207 1.10107 46.9249C1.10344 46.9251 1.10586 46.9254 1.10834 46.9256C1.31427 46.9457 1.70583 46.9625 2.48771 46.9743C4.03433 46.9976 6.97025 47 12.6656 47H22.3018C22.9496 47 23.4795 46.4842 23.4971 45.8368M24.5915 32.9823C23.9173 33.5128 23.2141 33.9163 22.3821 34.2648L24.5915 32.9823ZM23.4971 45.8368C23.4971 45.8373 23.4971 45.8377 23.4971 45.8382L24.4968 45.862L23.4972 45.8357C23.4972 45.8361 23.4972 45.8364 23.4971 45.8368ZM4.50824 30.3312C2.83519 30.8858 1.62384 32.1558 1.15192 33.8328L10.5844 29.8831L9.80054 30.5041C9.8003 30.5038 9.80007 30.5035 9.79984 30.5032C9.46301 30.0781 9.23761 29.8064 9.08371 29.6373C8.96887 29.6518 8.83173 29.6695 8.6769 29.6897C8.23879 29.7468 7.66253 29.8238 7.05592 29.9078C6.45547 29.991 5.85613 30.0832 5.37608 30.1646C5.13573 30.2053 4.92929 30.2426 4.7696 30.2742C4.68965 30.2899 4.62504 30.3035 4.57577 30.3148C4.53608 30.3238 4.51524 30.3293 4.50824 30.3312ZM9.77469 35.1524L9.77539 35.1528C10.3424 35.5266 10.6975 36.0624 10.8073 36.6978C11.2766 36.8072 11.715 37.02 12.062 37.3654C12.5041 37.8053 12.7187 38.3831 12.7187 38.9978C12.7187 39.6126 12.5041 40.1903 12.062 40.6303C11.7145 40.9761 11.2754 41.189 10.8053 41.2983C10.521 42.8719 8.7152 43.7199 7.28567 42.8411L7.28565 42.8411L7.27927 42.8371C6.97337 42.6459 6.70733 42.395 6.51091 42.0472C6.37547 41.8075 6.29039 41.5517 6.23422 41.2914C5.76441 41.1812 5.32247 40.9677 4.97504 40.613C4.54183 40.1707 4.34374 39.5982 4.34374 38.9978C4.34374 38.3975 4.54183 37.8249 4.97504 37.3826C5.3227 37.0277 5.76498 36.8142 6.23513 36.7041C6.37755 36.0581 6.68451 35.5108 7.28732 35.1442C7.67984 34.9026 8.13677 34.8148 8.52673 34.8131C8.912 34.8113 9.38089 34.8932 9.77469 35.1524Z" fill="#095FBA" stroke="#095FBA" stroke-width="2"/>
<path d="M29.3694 34.1811L29.3767 34.1875L29.3795 34.1902C29.3745 34.1856 29.3718 34.183 29.372 34.1827C29.3729 34.1816 29.4245 34.2203 29.5698 34.3133C29.7241 34.4122 29.9328 34.5405 30.1818 34.6902C30.6785 34.9886 31.3159 35.3597 31.9569 35.7255C32.5979 36.0912 33.2371 36.4484 33.7373 36.7192C33.9882 36.855 34.1988 36.9663 34.3551 37.0453C34.4153 37.0757 34.4636 37.0994 34.5007 37.1169C34.5052 37.1167 34.5101 37.1165 34.5155 37.1161C34.5569 37.113 34.609 37.1035 34.665 37.0858C34.721 37.0681 34.7696 37.0458 34.8062 37.0239C34.8213 37.0149 34.8321 37.0073 34.8393 37.0019C34.8507 36.9849 34.8742 36.95 34.9123 36.8898C34.9827 36.7789 35.076 36.6265 35.186 36.4429C35.4052 36.077 35.6798 35.6059 35.9491 35.1358C36.1697 34.7506 36.3849 34.3695 36.5614 34.0509C36.4597 33.99 36.3496 33.9245 36.2322 33.8548C35.5578 33.4543 34.6564 32.9262 33.7503 32.3996C32.8442 31.873 31.9361 31.3495 31.2487 30.9582C31.1263 30.8886 31.0113 30.8233 30.9048 30.7632C30.7129 31.0877 30.4793 31.4883 30.2297 31.9205C29.7375 32.782 29.4722 33.2604 29.3273 33.5637C29.2568 33.7114 29.2309 33.7849 29.2214 33.818C29.2202 33.8222 29.2193 33.8255 29.2188 33.8278C29.2196 34.0017 29.2661 34.0896 29.3694 34.1811ZM34.5655 37.1461C34.5654 37.1461 34.5644 37.1457 34.5623 37.1449C34.5645 37.1458 34.5655 37.1462 34.5655 37.1461ZM34.8608 36.9814C34.8572 36.9854 34.8538 36.9891 34.8508 36.9925C34.8508 36.9925 34.8508 36.9925 34.8508 36.9925L34.8551 36.9877L34.8608 36.9814Z" fill="#095FBA" stroke="#095FBA" stroke-width="2"/>
</svg>
