<svg width="26" height="26" viewBox="0 0 26 26" fill="none" xmlns="http://www.w3.org/2000/svg">
<circle cx="13" cy="13" r="13" fill="#095FBA"/>
<path d="M10.4302 13.0413C10.968 14.152 11.8662 15.0479 12.9783 15.5829C13.0603 15.6217 13.1511 15.6386 13.2416 15.6317C13.3321 15.6248 13.4192 15.5945 13.4945 15.5437L15.1279 14.4526C15.2 14.4036 15.2834 14.3738 15.3703 14.3658C15.4571 14.3578 15.5445 14.3719 15.6244 14.4068L18.6822 15.7201C18.7867 15.7636 18.874 15.8402 18.9307 15.9382C18.9873 16.0362 19.0102 16.1501 18.9958 16.2624C18.8989 17.0188 18.5297 17.714 17.9572 18.2179C17.3848 18.7218 16.6484 18.9998 15.8858 19C13.5291 19 11.269 18.0638 9.60258 16.3974C7.93618 14.731 7 12.4709 7 10.1142C7.00017 9.35162 7.27821 8.6152 7.7821 8.04277C8.28598 7.47034 8.98118 7.10112 9.7376 7.00421C9.84988 6.98979 9.96378 7.01267 10.0618 7.06934C10.1598 7.12601 10.2364 7.21332 10.2799 7.31782L11.5932 10.3821C11.6273 10.4607 11.6416 10.5466 11.6348 10.632C11.6279 10.7175 11.6002 10.7999 11.554 10.8721L10.4628 12.5317C10.4143 12.6067 10.3857 12.693 10.38 12.7822C10.3743 12.8715 10.3916 12.9607 10.4302 13.0413Z" fill="white"/>
</svg>
