<svg width="152" height="57" viewBox="0 0 152 57" fill="none" xmlns="http://www.w3.org/2000/svg">
<rect width="152" height="57" rx="5" fill="black"/>
<path d="M53.582 17.3477H56.7812V21.6484C56.332 21.7969 55.8672 21.9121 55.3867 21.9941C54.9062 22.0762 54.3672 22.1172 53.7695 22.1172C52.8984 22.1172 52.1602 21.9453 51.5547 21.6016C50.9531 21.2539 50.4961 20.752 50.1836 20.0957C49.8711 19.4355 49.7148 18.6406 49.7148 17.7109C49.7148 16.8164 49.8887 16.041 50.2363 15.3848C50.584 14.7246 51.0898 14.2148 51.7539 13.8555C52.418 13.4922 53.2227 13.3105 54.168 13.3105C54.6328 13.3105 55.082 13.3574 55.5156 13.4512C55.9531 13.541 56.3535 13.666 56.7168 13.8262L56.2246 14.9863C55.9355 14.8496 55.6113 14.7344 55.252 14.6406C54.8926 14.5469 54.5195 14.5 54.1328 14.5C53.5195 14.5 52.9902 14.6328 52.5449 14.8984C52.1035 15.1641 51.7637 15.5391 51.5254 16.0234C51.2871 16.5039 51.168 17.0723 51.168 17.7285C51.168 18.3652 51.2637 18.9238 51.4551 19.4043C51.6465 19.8848 51.9453 20.2598 52.3516 20.5293C52.7617 20.7949 53.291 20.9277 53.9395 20.9277C54.2637 20.9277 54.5391 20.9102 54.7656 20.875C54.9922 20.8398 55.2012 20.8008 55.3926 20.7578V18.5488H53.582V17.3477ZM63.6836 22H58.832V13.4336H63.6836V14.6172H60.2383V16.9434H63.4668V18.1211H60.2383V20.8105H63.6836V22ZM68.5059 22H67.0938V14.6289H64.5859V13.4336H71.0078V14.6289H68.5059V22ZM75.4375 22V13.4336H76.8438V22H75.4375ZM82.0762 22H80.6641V14.6289H78.1562V13.4336H84.5781V14.6289H82.0762V22ZM96.6133 17.7051C96.6133 18.3652 96.5293 18.9668 96.3613 19.5098C96.1973 20.0488 95.9492 20.5137 95.6172 20.9043C95.2852 21.291 94.8691 21.5898 94.3691 21.8008C93.8691 22.0117 93.2832 22.1172 92.6113 22.1172C91.9277 22.1172 91.334 22.0117 90.8301 21.8008C90.3301 21.5898 89.9141 21.2891 89.582 20.8984C89.2539 20.5078 89.0078 20.041 88.8438 19.498C88.6797 18.9551 88.5977 18.3535 88.5977 17.6934C88.5977 16.8105 88.7422 16.041 89.0312 15.3848C89.3242 14.7246 89.7676 14.2129 90.3613 13.8496C90.959 13.4824 91.7129 13.2988 92.623 13.2988C93.5137 13.2988 94.2539 13.4805 94.8438 13.8438C95.4336 14.207 95.875 14.7188 96.168 15.3789C96.4648 16.0352 96.6133 16.8105 96.6133 17.7051ZM90.0742 17.7051C90.0742 18.3652 90.1641 18.9375 90.3438 19.4219C90.5234 19.9023 90.7988 20.2734 91.1699 20.5352C91.5449 20.793 92.0254 20.9219 92.6113 20.9219C93.2012 20.9219 93.6816 20.793 94.0527 20.5352C94.4238 20.2734 94.6973 19.9023 94.873 19.4219C95.0488 18.9375 95.1367 18.3652 95.1367 17.7051C95.1367 16.7012 94.9355 15.916 94.5332 15.3496C94.1348 14.7793 93.498 14.4941 92.623 14.4941C92.0371 14.4941 91.5547 14.623 91.1758 14.8809C90.8008 15.1387 90.5234 15.5078 90.3438 15.9883C90.1641 16.4648 90.0742 17.0371 90.0742 17.7051ZM105.602 22H103.873L99.6777 15.1621H99.625C99.6406 15.3926 99.6543 15.6367 99.666 15.8945C99.6816 16.1523 99.6934 16.418 99.7012 16.6914C99.7129 16.9648 99.7227 17.2422 99.7305 17.5234V22H98.4531V13.4336H100.17L104.359 20.2246H104.4C104.393 20.0254 104.383 19.7969 104.371 19.5391C104.359 19.2812 104.348 19.0156 104.336 18.7422C104.328 18.4648 104.322 18.1973 104.318 17.9395V13.4336H105.602V22ZM55.1094 37.7969H59.375V43.5312C58.776 43.7292 58.1562 43.8828 57.5156 43.9922C56.875 44.1016 56.1562 44.1562 55.3594 44.1562C54.1979 44.1562 53.2135 43.9271 52.4062 43.4688C51.6042 43.0052 50.9948 42.3359 50.5781 41.4609C50.1615 40.5807 49.9531 39.5208 49.9531 38.2812C49.9531 37.0885 50.1849 36.0547 50.6484 35.1797C51.112 34.2995 51.7865 33.6198 52.6719 33.1406C53.5573 32.6562 54.6302 32.4141 55.8906 32.4141C56.5104 32.4141 57.1094 32.4766 57.6875 32.6016C58.2708 32.7214 58.8047 32.888 59.2891 33.1016L58.6328 34.6484C58.2474 34.4661 57.8151 34.3125 57.3359 34.1875C56.8568 34.0625 56.3594 34 55.8438 34C55.026 34 54.3203 34.1771 53.7266 34.5312C53.138 34.8854 52.6849 35.3854 52.3672 36.0312C52.0495 36.6719 51.8906 37.4297 51.8906 38.3047C51.8906 39.1536 52.0182 39.8984 52.2734 40.5391C52.5286 41.1797 52.9271 41.6797 53.4688 42.0391C54.0156 42.3932 54.7214 42.5703 55.5859 42.5703C56.0182 42.5703 56.3854 42.5469 56.6875 42.5C56.9896 42.4531 57.2682 42.401 57.5234 42.3438V39.3984H55.1094V37.7969ZM69.5781 39.6562C69.5781 40.375 69.4844 41.013 69.2969 41.5703C69.1094 42.1276 68.8359 42.599 68.4766 42.9844C68.1172 43.3646 67.6849 43.6562 67.1797 43.8594C66.6745 44.0573 66.1042 44.1562 65.4688 44.1562C64.875 44.1562 64.3307 44.0573 63.8359 43.8594C63.3411 43.6562 62.9115 43.3646 62.5469 42.9844C62.1875 42.599 61.9089 42.1276 61.7109 41.5703C61.513 41.013 61.4141 40.375 61.4141 39.6562C61.4141 38.7031 61.5781 37.8958 61.9062 37.2344C62.2396 36.5677 62.7135 36.0599 63.3281 35.7109C63.9427 35.362 64.6745 35.1875 65.5234 35.1875C66.3203 35.1875 67.0234 35.362 67.6328 35.7109C68.2422 36.0599 68.7188 36.5677 69.0625 37.2344C69.4062 37.901 69.5781 38.7083 69.5781 39.6562ZM63.3047 39.6562C63.3047 40.2865 63.3802 40.8255 63.5312 41.2734C63.6875 41.7214 63.9271 42.0651 64.25 42.3047C64.5729 42.5391 64.9896 42.6562 65.5 42.6562C66.0104 42.6562 66.4271 42.5391 66.75 42.3047C67.0729 42.0651 67.3099 41.7214 67.4609 41.2734C67.612 40.8255 67.6875 40.2865 67.6875 39.6562C67.6875 39.026 67.612 38.4922 67.4609 38.0547C67.3099 37.612 67.0729 37.276 66.75 37.0469C66.4271 36.8125 66.0078 36.6953 65.4922 36.6953C64.7318 36.6953 64.1771 36.9505 63.8281 37.4609C63.4792 37.9714 63.3047 38.7031 63.3047 39.6562ZM79.3438 39.6562C79.3438 40.375 79.25 41.013 79.0625 41.5703C78.875 42.1276 78.6016 42.599 78.2422 42.9844C77.8828 43.3646 77.4505 43.6562 76.9453 43.8594C76.4401 44.0573 75.8698 44.1562 75.2344 44.1562C74.6406 44.1562 74.0964 44.0573 73.6016 43.8594C73.1068 43.6562 72.6771 43.3646 72.3125 42.9844C71.9531 42.599 71.6745 42.1276 71.4766 41.5703C71.2786 41.013 71.1797 40.375 71.1797 39.6562C71.1797 38.7031 71.3438 37.8958 71.6719 37.2344C72.0052 36.5677 72.4792 36.0599 73.0938 35.7109C73.7083 35.362 74.4401 35.1875 75.2891 35.1875C76.0859 35.1875 76.7891 35.362 77.3984 35.7109C78.0078 36.0599 78.4844 36.5677 78.8281 37.2344C79.1719 37.901 79.3438 38.7083 79.3438 39.6562ZM73.0703 39.6562C73.0703 40.2865 73.1458 40.8255 73.2969 41.2734C73.4531 41.7214 73.6927 42.0651 74.0156 42.3047C74.3385 42.5391 74.7552 42.6562 75.2656 42.6562C75.776 42.6562 76.1927 42.5391 76.5156 42.3047C76.8385 42.0651 77.0755 41.7214 77.2266 41.2734C77.3776 40.8255 77.4531 40.2865 77.4531 39.6562C77.4531 39.026 77.3776 38.4922 77.2266 38.0547C77.0755 37.612 76.8385 37.276 76.5156 37.0469C76.1927 36.8125 75.7734 36.6953 75.2578 36.6953C74.4974 36.6953 73.9427 36.9505 73.5938 37.4609C73.2448 37.9714 73.0703 38.7031 73.0703 39.6562ZM83.9219 47.8438C82.75 47.8438 81.8516 47.6328 81.2266 47.2109C80.6016 46.7891 80.2891 46.1979 80.2891 45.4375C80.2891 44.9062 80.4557 44.4557 80.7891 44.0859C81.1224 43.7214 81.599 43.4688 82.2188 43.3281C81.9844 43.224 81.7812 43.0625 81.6094 42.8438C81.4427 42.6198 81.3594 42.3724 81.3594 42.1016C81.3594 41.7786 81.4505 41.5026 81.6328 41.2734C81.8151 41.0443 82.0885 40.8229 82.4531 40.6094C82 40.4167 81.6354 40.1042 81.3594 39.6719C81.0885 39.2344 80.9531 38.7214 80.9531 38.1328C80.9531 37.5078 81.0859 36.9766 81.3516 36.5391C81.6172 36.0964 82.0052 35.7604 82.5156 35.5312C83.026 35.2969 83.6432 35.1797 84.3672 35.1797C84.5234 35.1797 84.6927 35.1901 84.875 35.2109C85.0625 35.2266 85.2344 35.2474 85.3906 35.2734C85.5521 35.2943 85.6745 35.3177 85.7578 35.3438H88.75V36.3672L87.2812 36.6406C87.4219 36.8385 87.5339 37.0651 87.6172 37.3203C87.7005 37.5703 87.7422 37.8438 87.7422 38.1406C87.7422 39.0365 87.4323 39.7422 86.8125 40.2578C86.1979 40.7682 85.349 41.0234 84.2656 41.0234C84.0052 41.013 83.7526 40.9922 83.5078 40.9609C83.3203 41.0755 83.1771 41.2031 83.0781 41.3438C82.9792 41.4792 82.9297 41.6328 82.9297 41.8047C82.9297 41.9453 82.9792 42.0599 83.0781 42.1484C83.1771 42.2318 83.3229 42.2943 83.5156 42.3359C83.7135 42.3776 83.9531 42.3984 84.2344 42.3984H85.7266C86.6745 42.3984 87.3984 42.599 87.8984 43C88.3984 43.401 88.6484 43.9896 88.6484 44.7656C88.6484 45.75 88.2422 46.5078 87.4297 47.0391C86.6172 47.5755 85.4479 47.8438 83.9219 47.8438ZM83.9922 46.5547C84.6328 46.5547 85.1719 46.4922 85.6094 46.3672C86.0469 46.2422 86.3776 46.0625 86.6016 45.8281C86.8255 45.599 86.9375 45.3255 86.9375 45.0078C86.9375 44.7266 86.8672 44.5104 86.7266 44.3594C86.5859 44.2083 86.375 44.1042 86.0938 44.0469C85.8125 43.9896 85.4635 43.9609 85.0469 43.9609H83.6875C83.349 43.9609 83.0495 44.013 82.7891 44.1172C82.5286 44.2266 82.3255 44.3828 82.1797 44.5859C82.0391 44.7891 81.9688 45.0339 81.9688 45.3203C81.9688 45.7161 82.1432 46.0208 82.4922 46.2344C82.8464 46.4479 83.3464 46.5547 83.9922 46.5547ZM84.3516 39.8203C84.888 39.8203 85.2865 39.6745 85.5469 39.3828C85.8073 39.0859 85.9375 38.6693 85.9375 38.1328C85.9375 37.5495 85.8021 37.112 85.5312 36.8203C85.2656 36.5286 84.8698 36.3828 84.3438 36.3828C83.8281 36.3828 83.4349 36.5312 83.1641 36.8281C82.8984 37.125 82.7656 37.5651 82.7656 38.1484C82.7656 38.6745 82.8984 39.0859 83.1641 39.3828C83.4349 39.6745 83.8307 39.8203 84.3516 39.8203ZM92.1719 44H90.3281V31.8438H92.1719V44ZM98.2422 35.1875C99.013 35.1875 99.6745 35.3464 100.227 35.6641C100.779 35.9818 101.203 36.4323 101.5 37.0156C101.797 37.599 101.945 38.2969 101.945 39.1094V40.0938H96.1719C96.1927 40.9323 96.4167 41.5781 96.8438 42.0312C97.276 42.4844 97.8802 42.7109 98.6562 42.7109C99.2083 42.7109 99.7031 42.6589 100.141 42.5547C100.583 42.4453 101.039 42.2865 101.508 42.0781V43.5703C101.076 43.7734 100.635 43.9219 100.188 44.0156C99.7396 44.1094 99.2031 44.1562 98.5781 44.1562C97.7292 44.1562 96.9818 43.9922 96.3359 43.6641C95.6953 43.3307 95.1927 42.8359 94.8281 42.1797C94.4688 41.5234 94.2891 40.7083 94.2891 39.7344C94.2891 38.7656 94.4531 37.9427 94.7812 37.2656C95.1094 36.5885 95.5703 36.0729 96.1641 35.7188C96.7578 35.3646 97.4505 35.1875 98.2422 35.1875ZM98.2422 36.5703C97.6641 36.5703 97.1953 36.7578 96.8359 37.1328C96.4818 37.5078 96.2734 38.0573 96.2109 38.7812H100.148C100.143 38.349 100.07 37.9661 99.9297 37.6328C99.7943 37.2995 99.5859 37.0391 99.3047 36.8516C99.0286 36.6641 98.6745 36.5703 98.2422 36.5703ZM111.68 32.5781C113.154 32.5781 114.229 32.8802 114.906 33.4844C115.583 34.0885 115.922 34.9349 115.922 36.0234C115.922 36.5182 115.844 36.9896 115.688 37.4375C115.536 37.8802 115.286 38.2734 114.938 38.6172C114.589 38.9557 114.128 39.224 113.555 39.4219C112.987 39.6198 112.286 39.7188 111.453 39.7188H110.234V44H108.359V32.5781H111.68ZM111.555 34.1328H110.234V38.1562H111.258C111.846 38.1562 112.346 38.0885 112.758 37.9531C113.169 37.8125 113.482 37.5911 113.695 37.2891C113.909 36.987 114.016 36.5885 114.016 36.0938C114.016 35.4323 113.815 34.9401 113.414 34.6172C113.018 34.2943 112.398 34.1328 111.555 34.1328ZM119.859 44H118.016V31.8438H119.859V44ZM125.875 35.1875C126.969 35.1875 127.794 35.4297 128.352 35.9141C128.914 36.3984 129.195 37.1536 129.195 38.1797V44H127.891L127.539 42.7734H127.477C127.232 43.0859 126.979 43.3438 126.719 43.5469C126.458 43.75 126.156 43.901 125.812 44C125.474 44.1042 125.06 44.1562 124.57 44.1562C124.055 44.1562 123.594 44.0625 123.188 43.875C122.781 43.6823 122.461 43.3906 122.227 43C121.992 42.6094 121.875 42.1146 121.875 41.5156C121.875 40.625 122.206 39.9557 122.867 39.5078C123.534 39.0599 124.539 38.8125 125.883 38.7656L127.383 38.7109V38.2578C127.383 37.6589 127.242 37.2318 126.961 36.9766C126.685 36.7214 126.294 36.5938 125.789 36.5938C125.357 36.5938 124.938 36.6562 124.531 36.7812C124.125 36.9062 123.729 37.0599 123.344 37.2422L122.75 35.9453C123.172 35.7214 123.651 35.5391 124.188 35.3984C124.729 35.2578 125.292 35.1875 125.875 35.1875ZM127.375 39.8672L126.258 39.9062C125.341 39.9375 124.698 40.0938 124.328 40.375C123.958 40.6562 123.773 41.0417 123.773 41.5312C123.773 41.9583 123.901 42.2708 124.156 42.4688C124.411 42.6615 124.747 42.7578 125.164 42.7578C125.799 42.7578 126.326 42.5781 126.742 42.2188C127.164 41.8542 127.375 41.3203 127.375 40.6172V39.8672ZM130.461 35.3516H132.461L134.234 40.2891C134.312 40.513 134.383 40.7344 134.445 40.9531C134.513 41.1667 134.57 41.3776 134.617 41.5859C134.669 41.7943 134.711 42.0026 134.742 42.2109H134.789C134.841 41.9401 134.914 41.638 135.008 41.3047C135.107 40.9661 135.216 40.6276 135.336 40.2891L137.039 35.3516H139.016L135.305 45.1875C135.091 45.75 134.828 46.2292 134.516 46.625C134.208 47.026 133.844 47.3281 133.422 47.5312C133 47.7396 132.518 47.8438 131.977 47.8438C131.716 47.8438 131.49 47.8281 131.297 47.7969C131.104 47.7708 130.94 47.7422 130.805 47.7109V46.2422C130.914 46.2682 131.052 46.2917 131.219 46.3125C131.385 46.3333 131.557 46.3438 131.734 46.3438C132.062 46.3438 132.346 46.2786 132.586 46.1484C132.826 46.0182 133.029 45.8333 133.195 45.5938C133.362 45.3594 133.5 45.0911 133.609 44.7891L133.914 43.9766L130.461 35.3516Z" fill="white"/>
<path d="M30.8716 31.8512C32.2188 33.3537 33.3415 34.5901 33.3626 34.5901C33.3836 34.5901 32.289 33.3537 30.9418 31.8512C29.5946 30.3409 28.4719 29.1123 28.4509 29.1123C28.4298 29.1123 29.5244 30.3409 30.8716 31.8512Z" fill="#EC6B15"/>
<path d="M30.9067 26.256L28.4158 29.034L30.9067 31.812C32.275 33.338 33.4187 34.5901 33.4468 34.5901C33.4748 34.5901 33.945 34.3005 34.4993 33.9406C35.0536 33.5806 36.1763 32.8528 36.9902 32.3285C37.8533 31.7729 38.6041 31.2251 38.7725 31.0373C39.7618 29.9418 39.7197 27.9932 38.6883 26.9759C38.5058 26.7959 37.9234 26.3655 37.3902 26.029C36.8499 25.6847 35.7412 24.9726 34.9203 24.4405C34.0993 23.9083 33.4257 23.4779 33.4117 23.4779C33.4047 23.4779 32.275 24.73 30.9067 26.256Z" fill="#ECC115"/>
<path d="M25.8546 31.906C24.4863 33.4476 21.441 36.8673 19.0834 39.5045L14.8032 44.3015L14.9786 44.458C15.3295 44.7711 15.8978 45.0215 16.382 45.0606C17.3012 45.131 16.7258 45.4675 24.2407 40.561C25.4967 39.7393 27.2649 38.5968 28.1701 38.0177C29.0752 37.4386 30.3593 36.6169 31.0119 36.1944C31.6714 35.7718 32.4573 35.2631 32.766 35.0753C33.0748 34.8797 33.3414 34.7075 33.3625 34.6919C33.3905 34.6606 28.4437 29.1123 28.3806 29.1123C28.3595 29.1123 27.2228 30.3722 25.8546 31.906Z" fill="#EC4040"/>
<path d="M15.8558 13.0778C15.5541 13.1717 14.8735 13.6412 14.8735 13.7508C14.8735 13.7977 17.9187 17.2566 21.6376 21.4432L28.4017 29.0417L30.8856 26.2794C32.2469 24.7612 33.3626 23.4935 33.3626 23.4622C33.3626 23.4309 33.0889 23.2353 32.7521 23.024C32.4083 22.8049 31.6294 22.3119 31.0119 21.9128C30.3945 21.5137 29.1455 20.7155 28.2403 20.1285C27.3352 19.5495 25.995 18.6808 25.2582 18.1957C20.1922 14.8542 17.7012 13.2578 17.3995 13.1326C17.0206 12.9839 16.2207 12.9526 15.8558 13.0778Z" fill="#15EC6B"/>
<path d="M14.5226 14.1577C13.9964 14.9559 14.0315 14.1107 14.0315 24.8472C14.0244 30.1372 14.0385 33.7683 14.0455 32.9075L14.0665 31.3502L17.1188 34.7464L20.1711 38.1427L19.9466 38.4244C19.8203 38.5731 21.3359 36.8984 23.3146 34.7073C25.2933 32.5084 27.2369 30.3329 27.6229 29.8712L28.3315 29.026L26.5493 27.0149C25.574 25.9115 22.5147 22.4839 19.7641 19.4007L14.7542 13.7899L14.5226 14.1577Z" fill="#15C1EC"/>
<path d="M14.0455 33.6668C13.9753 37.0396 13.9894 42.1496 14.0666 42.6817C14.1367 43.1826 14.3262 43.6599 14.5858 44.0199L14.7612 44.2546L17.0487 41.7114C18.3117 40.3106 19.5256 38.9333 19.7501 38.6516L20.1641 38.143L17.1259 34.7545L14.0876 31.3661L14.0455 33.6668Z" fill="#15ECEC"/>
</svg>
