<svg width="26" height="33" viewBox="0 0 26 33" fill="none" xmlns="http://www.w3.org/2000/svg">
<path d="M16.8703 18.8509C18.2175 20.3534 19.3402 21.5898 19.3612 21.5898C19.3823 21.5898 18.2877 20.3534 16.9405 18.8509C15.5932 17.3406 14.4706 16.112 14.4495 16.112C14.4285 16.112 15.5231 17.3406 16.8703 18.8509Z" fill="#EC6B15"/>
<path d="M16.905 13.2557L14.4141 16.0338L16.905 18.8118C18.2733 20.3378 19.417 21.5898 19.4451 21.5898C19.4731 21.5898 19.9432 21.3003 20.4976 20.9403C21.0519 20.5804 22.1746 19.8526 22.9885 19.3283C23.8516 18.7727 24.6024 18.2249 24.7708 18.0371C25.7601 16.9415 25.718 14.993 24.6866 13.9757C24.5041 13.7957 23.9217 13.3653 23.3885 13.0288C22.8482 12.6845 21.7395 11.9724 20.9186 11.4402C20.0976 10.9081 19.424 10.4777 19.41 10.4777C19.403 10.4777 18.2733 11.7298 16.905 13.2557Z" fill="#ECC115"/>
<path d="M11.856 18.9072C10.4878 20.4488 7.44251 23.8686 5.08489 26.5057L0.804688 31.3028L0.980106 31.4593C1.33094 31.7723 1.8993 32.0227 2.38345 32.0618C3.30264 32.1323 2.72727 32.4688 10.2422 27.5622C11.4982 26.7405 13.2664 25.598 14.1716 25.0189C15.0767 24.4398 16.3608 23.6182 17.0133 23.1956C17.6729 22.773 18.4588 22.2643 18.7675 22.0765C19.0762 21.8809 19.3429 21.7087 19.3639 21.6931C19.392 21.6618 14.4452 16.1135 14.3821 16.1135C14.361 16.1135 13.2243 17.3734 11.856 18.9072Z" fill="#EC4040"/>
<path d="M1.85734 0.0790281C1.55562 0.172934 0.875 0.642461 0.875 0.752018C0.875 0.79897 3.92026 4.25782 7.63913 8.44445L14.4033 16.043L16.8872 13.2806C18.2484 11.7624 19.3641 10.4947 19.3641 10.4634C19.3641 10.4321 19.0904 10.2365 18.7536 10.0252C18.4098 9.80608 17.6309 9.31307 17.0135 8.91397C16.396 8.51487 15.147 7.71668 14.2419 7.12977C13.3367 6.55068 11.9965 5.68206 11.2598 5.19688C6.19368 1.85541 3.70274 0.259013 3.40102 0.133806C3.02212 -0.0148773 2.22221 -0.0461788 1.85734 0.0790281Z" fill="#15EC6B"/>
<path d="M0.524333 1.15766C-0.00192126 1.95585 0.0331624 1.1107 0.0331624 11.8472C0.0261456 17.1372 0.0401791 20.7683 0.0471958 19.9075L0.068246 18.3502L3.12052 21.7464L6.1728 25.1427L5.94826 25.4244C5.82196 25.5731 7.33758 23.8984 9.31629 21.7073C11.295 19.5084 13.2386 17.3329 13.6246 16.8712L14.3333 16.026L12.551 14.0149C11.5757 12.9115 8.51639 9.48395 5.76583 6.40072L0.755885 0.789862L0.524333 1.15766Z" fill="#15C1EC"/>
<path d="M0.0455104 20.6661C-0.0246569 24.0388 -0.0106235 29.1489 0.0665606 29.681C0.136728 30.1818 0.32618 30.6592 0.585798 31.0191L0.761217 31.2539L3.04867 28.7106C4.31168 27.3099 5.52557 25.9326 5.75011 25.6509L6.1641 25.1422L3.12585 21.7538L0.0876107 18.3654L0.0455104 20.6661Z" fill="#15ECEC"/>
</svg>
