<svg width="48" height="48" viewBox="0 0 48 48" fill="none" xmlns="http://www.w3.org/2000/svg">
<mask id="path-1-inside-1_978_5353" fill="white">
<path d="M16.6936 0.158333C16.2071 0.269806 15.751 0.391411 15.68 0.442081C15.6091 0.482616 14.8388 0.533283 13.9773 0.533283C12.8726 0.543419 12.2239 0.604221 11.7983 0.715694C9.89283 1.24265 8.79822 2.37764 8.24079 4.42466C7.91646 5.62045 7.99754 7.44453 8.52457 10.282C8.72728 11.3866 8.72728 11.4373 8.55498 12.0757C8.21038 13.3221 8.55498 14.5382 9.35566 15.0145C9.59891 15.1564 9.8827 15.2678 9.99418 15.2678C10.1868 15.2678 10.1969 15.3489 10.2577 16.5042C10.3489 18.541 10.9064 19.899 12.1429 21.0948C12.4731 21.412 12.6597 21.8502 12.6597 22.3081V22.6655C12.6597 23.689 12.6395 23.7701 12.3557 24.216C12.0212 24.7531 11.1192 25.3915 10.3489 25.6448C10.0854 25.736 9.2239 25.9387 8.43336 26.1009C3.79142 27.0737 1.29815 28.8978 0.325168 32.0393C0.14367 32.6442 0.049755 33.272 0.0462845 33.9035L0.0109762 40.3287C-0.0194295 47.848 -0.00929432 48.0709 0.345439 47.9392C0.456926 47.8885 0.487332 46.6319 0.527873 40.5213C0.568414 32.323 0.548144 32.6068 1.27788 31.0766C1.56167 30.4787 1.83532 30.124 2.51438 29.4551C3.72047 28.2594 5.00765 27.55 6.98402 26.9926C8.72728 26.4961 8.71714 26.4454 7.20699 27.9655C6.46712 28.7154 5.86914 29.3741 5.86914 29.4349C5.86914 29.5058 6.84212 30.0429 8.02795 30.6307C9.47528 31.3542 9.8288 32.4674 9.00742 33.8616C8.99517 33.8824 8.98287 33.9032 8.97052 33.9242L8.04354 35.4836C7.8269 35.8481 7.82095 36.3004 8.02795 36.6704C8.3016 37.167 8.332 37.2784 8.20025 37.3595C8.05835 37.4406 7.6124 36.7616 6.47726 34.745C6.32523 34.4815 6.1732 34.3194 6.07185 34.3396C5.94009 34.37 5.90968 34.7754 5.86914 37.4L5.84785 38.6688C5.82948 39.7634 5.26749 40.7771 4.34886 41.3725C3.39614 41.9907 2.87925 42.396 2.87925 42.5075C2.87925 42.923 3.4975 42.5987 6.98402 40.3186C8.96039 39.0316 10.582 37.9878 10.5922 37.9979C10.6023 38.0081 11.2611 39.0215 12.0516 40.2375C13.126 41.8995 13.4604 42.4771 13.3489 42.5379C13.278 42.5784 11.5043 43.7337 9.41647 45.0916C6.59888 46.9258 5.61576 47.6149 5.61576 47.7568C5.61576 47.9392 5.71711 47.9493 7.62254 47.9797L8.03129 47.9838C9.07716 47.9943 10.1001 47.6776 10.957 47.0778C11.1808 46.9202 11.3949 46.7734 11.5841 46.6468C12.0578 46.33 12.4171 46.4751 12.5584 47.0272C12.7814 47.9189 12.8219 48 13.0145 48C13.2577 48 13.2577 47.7061 13.0246 46.7637C13.0154 46.7276 13.0064 46.692 12.9975 46.6569C12.8611 46.1175 13.0621 45.6388 13.5212 45.3247L13.7032 45.2051C13.9428 45.0477 14.2639 45.2014 14.2915 45.4868C14.3321 45.8415 14.3625 46.4901 14.3726 46.936C14.3827 47.4224 14.4334 47.8075 14.5044 47.8784C14.5956 47.9696 15.2037 48 16.6328 48C18.4368 48 18.6395 47.9797 18.7206 47.8176C18.7713 47.7264 18.8422 46.9562 18.8828 46.1252C18.9244 45.1006 19.1853 42.2884 19.3162 41.3033C19.3471 41.071 19.4792 40.8895 19.6835 40.7746C19.8355 40.6733 19.9571 40.6125 19.9571 40.6327C19.9571 40.6429 19.8659 41.0887 19.7443 41.6157C19.501 42.7507 19.4909 42.7304 20.5652 42.9331C20.9605 43.004 21.3051 43.1054 21.3254 43.1358C21.3558 43.1763 21.1936 43.683 20.9706 44.2606C20.4537 45.6591 20.0483 47.0373 20.0281 47.544C20.0078 47.8885 20.0382 47.9493 20.2105 47.9493C20.3524 47.9493 20.4335 47.848 20.4943 47.5946C20.8592 46.1658 21.7815 43.5107 21.974 43.3081C22.0146 43.2675 23.1294 43.4601 24.447 43.7438C25.7646 44.0174 26.8694 44.2505 26.8998 44.2505C26.92 44.2505 26.9606 45.0815 26.9707 46.0948C27.0011 47.8683 27.0112 47.9493 27.2038 47.9493C27.3964 47.9493 27.4065 47.8683 27.4369 46.1658L27.4493 45.0759C27.4534 44.7167 27.7846 44.4506 28.1363 44.5241C28.5113 44.595 28.8153 44.6761 28.8255 44.6862C28.8356 44.6964 28.9572 44.9092 29.0991 45.1625C29.7072 46.2165 30.9538 47.0778 32.4235 47.4629C33.7714 47.8075 36.2951 47.6555 38.535 47.0778C39.0554 46.9444 39.5991 46.9294 40.1261 47.0338L40.4506 47.0981C41.7175 47.3514 41.6871 47.3616 41.7985 46.561C41.8594 46.1658 41.8999 46.0746 42.0317 46.1151C43.2479 46.4597 45.0621 46.8853 45.3256 46.8853C46.1263 46.8853 46.6736 46.105 46.4405 45.2537C46.3493 44.9092 46.3594 44.8484 46.5824 44.6356C46.9168 44.3214 47.079 43.7438 46.927 43.3385C46.8256 43.0344 46.8459 42.9736 47.1195 42.6696C47.4844 42.2541 47.5959 41.7373 47.4033 41.3522C47.2817 41.0887 47.2918 41.0583 47.5959 40.7543C48.0013 40.349 48.1128 39.8322 47.8797 39.3559C47.7885 39.1532 47.606 38.9303 47.4844 38.8492C47.3628 38.758 46.4709 38.4945 45.508 38.2412C44.3116 37.9263 43.8141 37.1088 44.0591 35.8961C44.3836 34.2902 44.901 31.7818 45.4878 28.9789C46.9675 21.9055 47.2918 20.2638 47.1804 20.1827C47.0138 20.06 30.8018 16.6619 26.3676 15.8055C25.6242 15.6619 25.1562 15.9771 24.9915 16.716C24.7841 17.6464 24.4771 19.0764 24.143 20.659C23.5653 23.4053 23.0686 25.6651 23.0484 25.6854C22.9267 25.8171 21.6497 25.0469 21.2848 24.6213C20.7781 24.0437 20.6666 23.6789 20.6666 22.473V22.4413C20.6666 21.8557 20.8874 21.2917 21.2848 20.8617C22.349 19.7267 22.8659 18.3688 22.9673 16.4028C23.0281 15.3489 23.0382 15.2678 23.2308 15.2678C23.6362 15.2678 24.2849 14.7814 24.518 14.3051C24.7815 13.7478 24.8828 12.8256 24.741 12.2885C24.6497 11.9743 24.67 11.7311 24.822 11.0724C25.3389 8.83287 25.5822 6.5629 25.42 5.31644C25.116 2.91473 23.322 0.898102 20.8693 0.209003C19.9571 -0.044342 17.7476 -0.0747414 16.6936 0.158333ZM13.7037 8.56939C15.1834 9.22808 15.68 9.39022 16.1868 9.39022C16.3672 9.39022 16.5044 9.5522 16.4748 9.73013L16.4605 9.81585C16.4199 10.0591 16.278 10.4948 16.1463 10.7988C15.9233 11.2852 15.9132 11.3764 16.0449 11.4981C16.1767 11.6298 16.2578 11.6095 16.6834 11.3663C17.3625 10.961 18.1429 10.1503 18.4672 9.5017C18.7206 8.98487 18.7814 8.9342 19.5213 8.60992C19.9571 8.41738 20.5754 8.19444 20.8896 8.10323C21.4267 7.95123 21.4875 7.95123 21.7206 8.11337C22.3997 8.54912 22.5213 9.5321 22.4605 13.991C22.42 17.6391 22.3794 17.9026 21.7815 19.1997C21.447 19.9091 20.5551 20.9124 19.9166 21.2873C19.2071 21.7028 18.1632 21.9663 17.0179 22.0271C13.9469 22.1892 11.9401 20.9529 11.0584 18.3586C10.8772 17.8218 10.7847 17.2589 10.7847 16.6923V13.3931C10.7847 8.86327 10.8253 8.45792 11.332 8.0627C11.6969 7.76882 12.082 7.84989 13.7037 8.56939ZM10.2273 13.0384C10.2273 14.9233 10.2273 14.9131 9.64958 14.5585C9.16309 14.2646 8.97052 13.8187 8.97052 12.9877C8.97052 12.1466 9.16309 11.721 9.63945 11.4879C10.2374 11.194 10.2273 11.1636 10.2273 13.0384ZM23.5653 11.4778C23.7578 11.569 23.9909 11.7919 24.0822 11.9642C24.3153 12.3898 24.3153 13.5856 24.0822 14.0214C23.92 14.3254 23.3524 14.7611 23.1092 14.7611C23.0281 14.7611 22.9977 14.2544 22.9977 13.0384C22.9977 11.8527 23.0281 11.3156 23.1092 11.3156C23.17 11.3156 23.3727 11.3866 23.5653 11.4778ZM36.1228 18.3384C36.7411 18.4701 36.8931 18.6424 36.5586 18.8451C36.437 18.9261 36.214 18.916 35.7478 18.8045C35.2208 18.6829 35.0992 18.6221 35.0789 18.4296C35.0383 18.1661 35.2005 18.1458 36.1228 18.3384ZM36.5282 19.5342C36.589 19.595 36.5586 19.6862 36.4573 19.7875C36.3255 19.9192 36.2242 19.9294 35.687 19.828C35.0383 19.6963 34.7951 19.524 34.8863 19.2808C34.937 19.1592 35.0485 19.1592 35.687 19.2909C36.0924 19.372 36.4674 19.4835 36.5282 19.5342ZM35.6971 20.2739C36.4269 20.4462 36.5181 20.5273 36.3154 20.8211C36.0417 21.2164 34.8052 21.0441 34.6938 20.5881C34.5721 20.1017 34.7444 20.051 35.6971 20.2739ZM28.1768 21.3076C28.6227 21.4494 29.5957 21.8143 30.3356 22.1284C31.6228 22.6655 31.6836 22.6858 32.4032 22.6452C32.8897 22.6148 33.1937 22.6351 33.3052 22.7162C33.4573 22.8276 33.4471 22.8682 33.2039 23.1114C33.062 23.2533 32.8491 23.3749 32.7377 23.3749C32.3018 23.3749 31.4201 23.1317 30.4471 22.7466C29.6363 22.4223 29.2613 22.3311 28.5721 22.2906C27.6295 22.2297 27.3254 22.0879 27.0214 21.5711C26.8491 21.2772 26.8491 21.2569 27.0214 21.1556C27.2646 21.0137 27.2342 21.0137 28.1768 21.3076ZM35.4438 21.3582C35.7275 21.4089 36.0316 21.5204 36.133 21.5913C36.3053 21.7231 36.2951 21.7433 36.0519 21.9865C35.8188 22.2196 35.7579 22.2297 35.3221 22.1487C34.6836 22.0271 34.4505 21.8852 34.4505 21.6116C34.4505 21.2062 34.5924 21.1758 35.4438 21.3582ZM35.5958 22.5743C35.8796 22.6452 35.9708 22.7263 35.9708 22.8884C35.9708 23.1925 35.687 23.4762 35.3728 23.4762C34.9877 23.4762 34.4302 23.2938 34.3289 23.1519C34.2275 22.9898 34.2275 22.5236 34.3289 22.4223C34.3998 22.3412 34.9674 22.402 35.5958 22.5743ZM27.7106 23.0303C28.3079 23.0846 28.4303 23.4002 27.9485 23.7575C27.63 23.9937 27.1882 24.3073 26.6058 24.7125C26.2106 24.9861 25.7849 25.199 25.643 25.199C25.2578 25.199 24.7815 24.8747 24.5991 24.4795C24.3964 24.064 24.4876 23.912 24.9842 23.8309C25.1768 23.8005 25.4808 23.76 25.6734 23.7296C25.866 23.6992 26.2106 23.5167 26.4538 23.3242C26.7405 23.0962 27.1027 22.9847 27.468 23.0121L27.7106 23.0303ZM37.3897 23.4762C37.7828 23.6761 38.2176 23.7802 38.6585 23.7802H40.1262C42.2546 23.7802 43.1668 23.8816 43.1668 24.1248C43.1668 24.3477 42.7006 24.7024 42.3357 24.7632C42.0823 24.7936 41.7884 24.7429 41.383 24.5909C40.8762 24.3882 40.5621 24.3477 39.3661 24.3274C37.4303 24.297 36.5789 24.0538 36.5789 23.537C36.5789 23.3343 36.6499 23.1722 36.7512 23.1722C36.7715 23.1722 37.0553 23.3039 37.3897 23.4762ZM29.0788 23.9626C28.268 24.4997 28.1667 24.9152 28.7342 25.3814C29.2917 25.8374 30.8525 26.3238 32.0181 26.4049C32.7782 26.4555 32.9809 26.4961 32.9809 26.6177C32.9809 26.8812 31.2579 26.8001 30.0721 26.4859C28.9876 26.1921 28.4606 25.959 27.9741 25.5435C27.6092 25.2395 27.4471 25.2699 26.8592 25.7563C26.17 26.3441 26.2511 26.8204 27.143 27.2662C28.1464 27.7729 30.964 28.3202 31.9876 28.1986C32.5248 28.1378 32.7985 28.2695 32.5147 28.4519C32.2816 28.5938 29.8795 28.5532 28.9167 28.3911C27.3761 28.1276 26.3829 27.7628 25.947 27.2865C25.8052 27.1446 25.6633 27.023 25.6227 27.023C25.4606 27.023 25.2274 27.6209 25.2274 28.006C25.2274 29.2626 26.768 29.8909 29.839 29.901C30.7309 29.9112 31.6025 29.8909 31.7647 29.8605C31.9876 29.82 32.0687 29.8504 32.0687 29.9618C32.0687 30.2253 31.2376 30.3469 29.4842 30.3571C27.6295 30.3672 26.8085 30.2355 25.8356 29.7997C25.5011 29.6477 25.1869 29.5565 25.1464 29.597C25.1058 29.6376 25.0754 29.8808 25.0754 30.1341C25.0754 30.5293 25.1261 30.6307 25.4504 30.9245C26.1599 31.5731 28.0349 31.8873 30.0721 31.6947C30.7207 31.6238 31.4403 31.5326 31.6633 31.4819C32.2208 31.3502 32.3221 31.3603 32.3221 31.5224C32.3221 31.7353 31.3998 31.9886 29.8592 32.1913C28.1971 32.4041 26.616 32.2723 25.643 31.8265C25.0247 31.5528 24.9234 31.5934 24.9234 32.171C24.9234 33.2148 26.0383 33.8127 27.9944 33.8127C29.1498 33.8127 30.0315 33.6505 30.7714 33.306C31.1971 33.1134 31.4302 33.0526 31.4707 33.1236C31.5518 33.2553 31.339 33.4377 30.6903 33.762C29.8491 34.1978 29.0282 34.3599 27.6599 34.3599C26.5856 34.3599 26.3018 34.3295 25.7849 34.137C24.7105 33.7215 24.7815 33.7215 24.8524 34.2586C25.0045 35.353 25.6126 35.7786 27.0011 35.7685C28.0856 35.7584 28.9268 35.5354 30.0315 34.9882C30.5282 34.7349 30.9741 34.5524 31.0349 34.593C31.0856 34.6234 30.9032 34.8767 30.6295 35.1706C30.3457 35.4544 29.768 36.2144 29.3221 36.8528C26.8389 40.4503 25.2477 40.8759 24.6801 38.0891C24.5991 37.7142 24.4876 37.2176 24.4268 36.9744C24.3421 36.6358 24.3811 36.2842 24.3944 35.9353C24.4091 35.5457 24.4211 34.9765 24.4268 34.3599C24.4369 32.9209 24.4774 32.1811 24.5889 31.7758C24.7004 31.34 24.7105 31.1475 24.6295 30.9955C24.4673 30.7016 24.4876 30.124 24.67 29.6882C24.7916 29.4146 24.8119 29.1309 24.7612 28.5836C24.7004 27.9148 24.7207 27.8135 24.9842 27.327C25.3997 26.5569 26.322 25.6043 27.0721 25.1686C27.4369 24.9557 27.8322 24.6517 27.9538 24.4795C28.2781 24.0538 29.089 23.5471 29.2207 23.689C29.3018 23.7701 29.2613 23.8512 29.0788 23.9626ZM15.2544 24.5909C16.6936 24.9659 17.9098 24.8341 19.3389 24.1754C19.8051 23.9626 20.2004 23.7802 20.2206 23.7802C20.2308 23.7802 20.2713 23.9221 20.3119 24.0842C20.3524 24.2565 20.5551 24.6112 20.7679 24.8747C20.965 25.1236 20.8795 25.4912 20.5928 25.6275L18.8727 26.4454C17.4352 27.1255 15.7606 27.1231 14.3219 26.4454L12.6414 25.6503C12.3499 25.5123 12.2771 25.1304 12.4976 24.8949C12.7408 24.6416 12.9942 24.2666 13.0652 24.0741C13.1349 23.8863 13.3541 23.8031 13.5309 23.8972L13.8253 24.0538C14.18 24.2362 14.8186 24.4795 15.2544 24.5909ZM34.2985 24.0336C34.6633 24.2464 34.7748 24.2768 35.3829 24.216C36.0417 24.1552 36.0721 24.1653 36.3661 24.4693C36.5384 24.6416 36.6803 24.8341 36.6803 24.9152C36.6803 25.1888 36.285 25.6854 35.839 25.9691C35.2613 26.3238 35.1904 26.4859 35.0485 27.6615C34.8052 29.7389 34.339 31.4008 33.8829 31.8569C33.589 32.1507 33.4877 32.1507 33.1836 31.8366C32.7985 31.4616 32.839 30.3773 33.285 28.1884C33.4775 27.246 33.6397 26.3542 33.6397 26.2123C33.6397 26.0502 33.5181 25.8374 33.3255 25.6448C32.687 25.0469 32.5552 24.4491 32.9809 24.0336C33.2951 23.7093 33.7714 23.7093 34.2985 24.0336ZM42.5486 25.5435C42.6195 25.5942 42.7411 25.7766 42.8222 25.9691C42.9641 26.3137 43.0959 26.4251 43.9067 26.9318C44.4945 27.2865 44.5148 27.55 43.9878 27.9047C43.2378 28.4114 42.8323 28.1682 41.7681 26.5467C41.3019 25.8475 40.8965 25.2091 40.8661 25.1381C40.8357 25.0469 41.0485 25.0773 41.6161 25.2294C42.0519 25.351 42.4675 25.4928 42.5486 25.5435ZM13.8557 26.8102C15.7003 27.6919 16.0753 27.8945 16.0044 28.0263C15.9537 28.1175 15.1632 28.9383 14.251 29.8504C13.5181 30.5787 12.271 30.2312 12.0204 29.2288L11.8895 28.7052C11.2915 26.2934 11.2104 25.8881 11.3422 25.807C11.4718 25.726 11.6255 25.7671 11.7643 25.8313C12.1328 26.0016 12.9438 26.3807 13.8557 26.8102ZM21.8727 25.7968C21.9842 25.8678 21.9132 26.2934 21.4267 28.2492C20.92 30.3064 20.8085 30.6509 20.5754 30.8536C20.4335 30.9752 20.2713 31.0664 20.2105 31.0563C20.0686 31.0158 17.0787 27.9452 17.1294 27.8945C17.1801 27.8337 21.599 25.7259 21.6801 25.7158C21.7105 25.7158 21.7916 25.7462 21.8727 25.7968ZM40.856 26.4049C41.008 26.6582 41.1398 26.9318 41.1398 27.0332C41.1398 27.1244 41.3931 27.5297 41.6972 27.9452C42.3357 28.8167 42.7614 29.8504 42.8323 30.7421C42.883 31.2894 42.8526 31.4211 42.6094 31.8569C42.4168 32.1913 42.3053 32.5662 42.2546 33.0729C42.1938 33.6404 42.1229 33.8735 41.91 34.1167C41.7377 34.3295 41.6465 34.5626 41.6465 34.8058C41.6364 35.0085 41.5654 35.3632 41.4844 35.5861C41.3931 35.809 41.2107 36.336 41.0789 36.7515C40.9371 37.167 40.7344 37.6635 40.6229 37.8459C40.5215 38.0283 40.3593 38.4742 40.2681 38.839C40.1769 39.1937 39.9641 39.7004 39.7816 39.9538C39.6093 40.2172 39.3762 40.5719 39.2647 40.7543C38.8289 41.4434 38.5046 41.788 38.1195 41.9603C37.4201 42.2744 36.9134 42.0109 36.3965 41.0381C35.9809 40.2476 35.6161 39.2343 35.3627 38.1195C35.0181 36.5792 34.937 36.3157 34.6938 35.8192C34.3796 35.1909 34.5721 35.049 34.9877 35.5962C36.0417 36.9542 37.6431 37.9777 38.8492 38.0486C39.6093 38.0993 40.035 37.9169 40.3289 37.4304C40.6837 36.8528 40.6127 36.7515 39.9134 36.7515C38.7884 36.7515 37.3897 36.2651 36.214 35.4544C35.5552 35.0085 34.6532 34.1066 34.6532 33.8836C34.6532 33.5897 34.8052 33.6303 35.1296 34.0052C36.3154 35.3936 39.4168 36.4677 40.5418 35.8901C40.8864 35.7077 41.2411 35.1909 41.2411 34.8463C41.2411 34.6335 41.2006 34.6234 40.4708 34.6234C40.0452 34.6234 39.4269 34.5524 39.0924 34.4612C37.3897 34.0255 34.187 32.2318 34.5012 31.8974C34.5721 31.8265 34.7444 31.8873 35.0586 32.1001C36.3559 32.9817 38.7478 33.9039 39.9337 33.9951C41.0181 34.066 41.6668 33.7316 41.8087 33.0222C41.8451 32.8556 41.7183 32.698 41.5477 32.698H41.1094C39.7614 32.698 38.0891 32.2419 36.437 31.4211C35.4336 30.9245 35.1093 30.6813 35.2411 30.5496C35.2917 30.4989 35.6769 30.6307 36.133 30.8536C38.1701 31.867 40.7039 32.3635 41.6972 31.9481C42.1634 31.7454 42.4573 31.2488 42.4573 30.6408C42.4573 30.3773 42.4168 30.1645 42.3661 30.1645C42.3154 30.1645 42.1026 30.2355 41.8898 30.3267C40.8053 30.7827 36.7107 29.9821 35.6161 29.1106C35.16 28.7458 35.3829 28.685 36.0417 28.9789C37.7647 29.7389 41.0891 30.1138 41.6465 29.6072C41.981 29.3031 41.8594 28.7052 41.3526 28.0465C41.2358 27.899 41.0423 27.8353 40.8606 27.8845L40.5621 27.9655C39.7715 28.1884 39.0418 28.1783 37.7749 27.9351C36.5688 27.702 35.8289 27.4689 35.6667 27.2764C35.464 27.0332 35.7478 27.0028 36.3255 27.2156C37.0249 27.4791 38.6262 27.6716 39.4776 27.6007C40.6127 27.5095 40.9067 27.0737 40.3796 26.2833C40.2377 26.0806 40.1465 25.8576 40.1769 25.7968C40.2681 25.655 40.5114 25.8678 40.856 26.4049ZM11.4334 29.0194C12.3861 32.9209 12.7003 34.4308 12.5888 34.5119C11.6707 35.1189 10.0481 36.1575 9.27345 36.6327C8.98827 36.8077 8.72097 36.7623 8.54484 36.4779C8.40105 36.2341 8.40127 35.9314 8.54543 35.6878L9.61918 33.8735C9.82922 33.5185 10.0263 33.1783 10.1993 32.8728C10.687 32.0121 10.4674 31.2695 9.58926 30.8139C9.32984 30.6793 9.04484 30.5348 8.74755 30.3875L8.42295 30.2252C7.54599 29.7868 7.34235 28.6255 8.01781 27.9148C9.31512 26.5467 9.40634 26.4657 9.98405 26.3035C10.4274 26.1789 10.7333 26.3391 10.8555 26.7832C11.0016 27.3147 11.2111 28.119 11.4334 29.0194ZM22.8963 26.2123C22.9369 26.2123 22.8051 27.0129 22.6024 28.006L22.3211 29.3438C22.2612 29.6288 22.0885 29.8773 21.8423 30.0328C21.5078 30.2456 21.4673 30.2557 21.5179 30.0936C21.599 29.7997 22.4909 26.2123 22.4909 26.1414C22.4909 26.111 22.5619 26.1211 22.6531 26.1515C22.7443 26.1819 22.8457 26.2123 22.8963 26.2123ZM23.6058 30.1645C23.8389 30.3976 23.8592 30.6509 23.6666 30.9245C23.5855 31.036 22.6328 31.6947 21.5382 32.3939C19.9368 33.4175 19.5618 33.7012 19.5517 33.8836C19.5517 34.2282 19.7747 34.1775 20.7173 33.5999C21.6294 33.0425 21.8524 33.0222 22.1565 33.4681C22.3997 33.8431 22.2173 34.1268 21.3761 34.6842C20.92 34.9882 20.6666 35.2213 20.6869 35.3226C20.7375 35.576 21.0315 35.5658 21.447 35.2922C22.0044 34.9071 22.4403 34.9477 22.6632 35.3834C22.8254 35.6976 22.6531 36.0016 22.0855 36.4069C21.3456 36.9339 21.447 37.2075 22.2984 37.0048C22.6632 36.9136 23.018 37.2886 22.9774 37.7142C22.947 37.9777 22.7544 38.1398 21.0213 39.2545C19.8152 40.0348 18.8625 40.5821 18.4571 40.7138C17.6564 40.9773 16.8051 40.9975 16.1361 40.7543C15.8178 40.6398 15.4639 40.6847 15.1843 40.8752L14.7071 41.2002C14.1953 41.5451 13.5001 41.402 13.1661 40.8831L13.1158 40.805C12.751 40.2476 12.1631 39.3356 11.7983 38.7681C11.7717 38.7279 11.7456 38.688 11.72 38.6487C11.3074 38.0138 11.4533 37.4327 12.0826 37.0117C14.8656 35.1499 22.9949 29.9618 23.1801 29.9618C23.3017 29.9618 23.4943 30.053 23.6058 30.1645ZM19.6531 31.3907C19.6531 31.4312 19.2578 31.715 18.7713 32.0291L18.2053 32.3893C18.0575 32.4833 17.8628 32.3862 17.849 32.2115C17.8186 31.9379 17.9098 31.6339 18.1936 31.0462L18.2457 30.9406C18.4098 30.608 18.8511 30.5331 19.1159 30.7928C19.4098 31.0867 19.6531 31.3502 19.6531 31.3907ZM15.0415 31.0867C15.2932 31.5635 15.4059 32.1014 15.3667 32.6392L15.3557 32.7892C15.2442 34.3802 15.2848 34.2991 14.3219 34.9173C13.7421 35.275 13.3499 35.0862 13.2096 34.4195C13.1677 34.2201 13.1221 34.0012 13.0753 33.7721L12.9972 33.3958C12.8372 32.6251 13.0761 31.8256 13.6327 31.2691C14.1294 30.7725 14.555 30.3672 14.5956 30.3672C14.6361 30.3672 14.8287 30.6915 15.0415 31.0867ZM33.437 32.8804C34.2985 33.0729 34.4505 33.2857 34.0046 33.7012C33.7714 33.9242 33.7309 33.9242 33.1735 33.8127C32.2714 33.6201 32.1194 33.5289 32.1194 33.154C32.1194 32.627 32.2005 32.6169 33.437 32.8804ZM33.0113 34.2079C34.0451 34.4308 34.1566 34.522 33.8728 34.897C33.6296 35.2415 33.3559 35.2922 32.6464 35.1301C32.0282 34.9983 31.8153 34.8159 31.8153 34.4308C31.8153 33.9444 31.8255 33.9444 33.0113 34.2079ZM32.91 35.5354C33.1532 35.5962 33.5282 35.7584 33.7512 35.9104L33.8941 36.0045C34.0142 36.0836 34.0023 36.2634 33.8728 36.3259C33.7208 36.4069 33.5282 36.5589 33.4573 36.6704C33.2951 36.8934 32.8491 36.9035 32.1498 36.7008C31.714 36.5691 31.6228 36.4981 31.562 36.2549C31.5316 36.0928 31.4099 35.88 31.2984 35.7786C31.1059 35.6064 31.1059 35.5861 31.2782 35.5253C31.5518 35.4138 32.4133 35.424 32.91 35.5354ZM32.8187 37.2075C33.1228 37.2886 33.4167 37.4203 33.4573 37.5115C33.5079 37.5926 33.6701 37.6635 33.8221 37.6737C34.0856 37.6838 34.0856 37.6838 33.741 37.8459C33.5485 37.9371 33.285 38.1195 33.1532 38.2412C32.91 38.4945 32.7174 38.5148 31.9674 38.3425C31.5417 38.2412 31.4302 38.1601 31.2883 37.8763C31.1971 37.6939 31.0147 37.4304 30.8829 37.2886L30.8732 37.2781C30.8018 37.2004 30.8704 37.0766 30.9741 37.096C31.1667 37.1467 31.3187 37.1264 31.3593 37.0555C31.4403 36.9339 31.8964 36.9744 32.8187 37.2075ZM44.7276 38.5857C47.1702 39.2241 47.454 39.3457 47.454 39.8423C47.454 40.1362 47.0689 40.6023 46.8256 40.6023C46.7344 40.6023 45.6195 40.3287 44.3324 39.9943C42.3864 39.4876 41.9607 39.3457 41.7783 39.1228C41.6465 38.9809 41.5452 38.7782 41.5452 38.6668C41.5452 38.4236 41.981 37.9675 42.2141 37.9675C42.3053 37.9675 43.4405 38.2412 44.7276 38.5857ZM32.3626 38.8694C32.8086 38.9809 33.2241 39.1329 33.2951 39.2241C33.3559 39.3153 33.5079 39.3863 33.6194 39.3863C33.9944 39.3863 33.9539 39.5687 33.5282 39.7308C33.3052 39.822 33.0214 40.0044 32.8998 40.1463C32.6363 40.4402 32.5248 40.4605 31.866 40.3591C31.1566 40.2476 30.8018 40.045 30.8018 39.7511C30.8018 39.6092 30.6701 39.3761 30.4978 39.214C30.3356 39.062 30.1937 38.8998 30.1937 38.8593C30.1937 38.7985 30.5991 38.7276 31.2579 38.6972C31.4302 38.687 31.9268 38.7681 32.3626 38.8694ZM43.9675 40.4503C45.3864 40.8151 46.6128 41.1698 46.6939 41.2408C47.0689 41.5448 46.9979 42.1933 46.5621 42.4264C46.3391 42.548 46.0047 42.4771 43.6533 41.8691C42.1837 41.4941 40.8864 41.1192 40.7648 41.0482C40.1465 40.6631 40.5519 39.5788 41.2411 39.741C41.3222 39.7612 42.5587 40.0754 43.9675 40.4503ZM31.9471 40.7645C32.5755 40.8962 32.8795 41.0077 32.9404 41.1293C32.991 41.2306 33.1127 41.3117 33.214 41.3117C33.3052 41.3117 33.4471 41.3522 33.5282 41.4029C33.6397 41.4738 33.5789 41.5448 33.2748 41.6968C33.062 41.8082 32.7478 42.0413 32.5856 42.2237C32.3221 42.5277 32.2613 42.548 31.8052 42.4973C31.1566 42.4163 30.4876 42.2136 30.4471 42.0819C30.4268 42.0211 30.3863 41.8589 30.3559 41.717C30.3255 41.5752 30.1532 41.3016 29.9809 41.109L29.9253 41.0501C29.8134 40.9315 29.8892 40.7361 30.0518 40.7239C30.1173 40.7177 30.1838 40.7076 30.2462 40.6952C30.4559 40.6534 30.6462 40.4853 30.8525 40.5415C30.964 40.5618 31.4606 40.6733 31.9471 40.7645ZM43.7141 42.4365C45.0013 42.771 46.1162 43.1054 46.1972 43.1662C46.5824 43.4905 46.5114 44.1086 46.0452 44.3518C45.8425 44.4633 45.4878 44.4025 43.3999 43.8654C41.3729 43.3385 40.9472 43.1966 40.7648 42.9736C40.633 42.8318 40.5316 42.6291 40.5316 42.5176C40.5316 42.2744 40.9675 41.8184 41.2006 41.8184C41.3019 41.8184 42.4269 42.092 43.7141 42.4365ZM31.3998 42.8723C32.2208 43.0547 32.616 43.1763 32.7174 43.3182C32.8086 43.4297 33.0214 43.5513 33.1836 43.5918C33.2851 43.6189 33.2962 43.7584 33.2003 43.8012L33.0113 43.8857C32.7579 43.9971 32.4336 44.2302 32.312 44.3924C32.0991 44.666 32.0586 44.6761 31.4707 44.6254C30.3255 44.514 29.7883 44.2606 29.7883 43.8147C29.7883 43.6931 29.616 43.4195 29.4133 43.2067L29.3224 43.1134C29.2297 43.0183 29.3128 42.8601 29.4437 42.8824C29.7782 42.9331 29.8795 42.9128 29.9201 42.7912C30.0011 42.5784 30.0315 42.5886 31.3998 42.8723ZM43.3797 44.4025C45.6803 45.0004 45.731 45.0207 45.8831 45.274C46.0655 45.5679 45.9439 46.0442 45.6297 46.2469C45.3763 46.409 45.2851 46.3989 43.3797 45.9226C41.2614 45.3855 40.9371 45.2233 40.9371 44.7065C40.9371 44.4532 41.3323 43.9465 41.535 43.9465C41.5857 43.9465 42.4168 44.1492 43.3797 44.4025ZM33.8728 45.7199C36.133 46.1962 38.0181 46.5813 38.0587 46.5914C38.2411 46.6117 37.5215 46.7839 36.6296 46.9461C35.4235 47.169 33.4877 47.169 32.5958 46.9562C31.6228 46.713 30.741 46.2367 30.1228 45.5983C29.6059 45.0713 29.4741 44.8585 29.6768 44.8585C29.7275 44.8585 31.6126 45.2436 33.8728 45.7199Z"/>
</mask>
<path d="M16.6936 0.158333C16.2071 0.269806 15.751 0.391411 15.68 0.442081C15.6091 0.482616 14.8388 0.533283 13.9773 0.533283C12.8726 0.543419 12.2239 0.604221 11.7983 0.715694C9.89283 1.24265 8.79822 2.37764 8.24079 4.42466C7.91646 5.62045 7.99754 7.44453 8.52457 10.282C8.72728 11.3866 8.72728 11.4373 8.55498 12.0757C8.21038 13.3221 8.55498 14.5382 9.35566 15.0145C9.59891 15.1564 9.8827 15.2678 9.99418 15.2678C10.1868 15.2678 10.1969 15.3489 10.2577 16.5042C10.3489 18.541 10.9064 19.899 12.1429 21.0948C12.4731 21.412 12.6597 21.8502 12.6597 22.3081V22.6655C12.6597 23.689 12.6395 23.7701 12.3557 24.216C12.0212 24.7531 11.1192 25.3915 10.3489 25.6448C10.0854 25.736 9.2239 25.9387 8.43336 26.1009C3.79142 27.0737 1.29815 28.8978 0.325168 32.0393C0.14367 32.6442 0.049755 33.272 0.0462845 33.9035L0.0109762 40.3287C-0.0194295 47.848 -0.00929432 48.0709 0.345439 47.9392C0.456926 47.8885 0.487332 46.6319 0.527873 40.5213C0.568414 32.323 0.548144 32.6068 1.27788 31.0766C1.56167 30.4787 1.83532 30.124 2.51438 29.4551C3.72047 28.2594 5.00765 27.55 6.98402 26.9926C8.72728 26.4961 8.71714 26.4454 7.20699 27.9655C6.46712 28.7154 5.86914 29.3741 5.86914 29.4349C5.86914 29.5058 6.84212 30.0429 8.02795 30.6307C9.47528 31.3542 9.8288 32.4674 9.00742 33.8616C8.99517 33.8824 8.98287 33.9032 8.97052 33.9242L8.04354 35.4836C7.8269 35.8481 7.82095 36.3004 8.02795 36.6704C8.3016 37.167 8.332 37.2784 8.20025 37.3595C8.05835 37.4406 7.6124 36.7616 6.47726 34.745C6.32523 34.4815 6.1732 34.3194 6.07185 34.3396C5.94009 34.37 5.90968 34.7754 5.86914 37.4L5.84785 38.6688C5.82948 39.7634 5.26749 40.7771 4.34886 41.3725C3.39614 41.9907 2.87925 42.396 2.87925 42.5075C2.87925 42.923 3.4975 42.5987 6.98402 40.3186C8.96039 39.0316 10.582 37.9878 10.5922 37.9979C10.6023 38.0081 11.2611 39.0215 12.0516 40.2375C13.126 41.8995 13.4604 42.4771 13.3489 42.5379C13.278 42.5784 11.5043 43.7337 9.41647 45.0916C6.59888 46.9258 5.61576 47.6149 5.61576 47.7568C5.61576 47.9392 5.71711 47.9493 7.62254 47.9797L8.03129 47.9838C9.07716 47.9943 10.1001 47.6776 10.957 47.0778C11.1808 46.9202 11.3949 46.7734 11.5841 46.6468C12.0578 46.33 12.4171 46.4751 12.5584 47.0272C12.7814 47.9189 12.8219 48 13.0145 48C13.2577 48 13.2577 47.7061 13.0246 46.7637C13.0154 46.7276 13.0064 46.692 12.9975 46.6569C12.8611 46.1175 13.0621 45.6388 13.5212 45.3247L13.7032 45.2051C13.9428 45.0477 14.2639 45.2014 14.2915 45.4868C14.3321 45.8415 14.3625 46.4901 14.3726 46.936C14.3827 47.4224 14.4334 47.8075 14.5044 47.8784C14.5956 47.9696 15.2037 48 16.6328 48C18.4368 48 18.6395 47.9797 18.7206 47.8176C18.7713 47.7264 18.8422 46.9562 18.8828 46.1252C18.9244 45.1006 19.1853 42.2884 19.3162 41.3033C19.3471 41.071 19.4792 40.8895 19.6835 40.7746C19.8355 40.6733 19.9571 40.6125 19.9571 40.6327C19.9571 40.6429 19.8659 41.0887 19.7443 41.6157C19.501 42.7507 19.4909 42.7304 20.5652 42.9331C20.9605 43.004 21.3051 43.1054 21.3254 43.1358C21.3558 43.1763 21.1936 43.683 20.9706 44.2606C20.4537 45.6591 20.0483 47.0373 20.0281 47.544C20.0078 47.8885 20.0382 47.9493 20.2105 47.9493C20.3524 47.9493 20.4335 47.848 20.4943 47.5946C20.8592 46.1658 21.7815 43.5107 21.974 43.3081C22.0146 43.2675 23.1294 43.4601 24.447 43.7438C25.7646 44.0174 26.8694 44.2505 26.8998 44.2505C26.92 44.2505 26.9606 45.0815 26.9707 46.0948C27.0011 47.8683 27.0112 47.9493 27.2038 47.9493C27.3964 47.9493 27.4065 47.8683 27.4369 46.1658L27.4493 45.0759C27.4534 44.7167 27.7846 44.4506 28.1363 44.5241C28.5113 44.595 28.8153 44.6761 28.8255 44.6862C28.8356 44.6964 28.9572 44.9092 29.0991 45.1625C29.7072 46.2165 30.9538 47.0778 32.4235 47.4629C33.7714 47.8075 36.2951 47.6555 38.535 47.0778C39.0554 46.9444 39.5991 46.9294 40.1261 47.0338L40.4506 47.0981C41.7175 47.3514 41.6871 47.3616 41.7985 46.561C41.8594 46.1658 41.8999 46.0746 42.0317 46.1151C43.2479 46.4597 45.0621 46.8853 45.3256 46.8853C46.1263 46.8853 46.6736 46.105 46.4405 45.2537C46.3493 44.9092 46.3594 44.8484 46.5824 44.6356C46.9168 44.3214 47.079 43.7438 46.927 43.3385C46.8256 43.0344 46.8459 42.9736 47.1195 42.6696C47.4844 42.2541 47.5959 41.7373 47.4033 41.3522C47.2817 41.0887 47.2918 41.0583 47.5959 40.7543C48.0013 40.349 48.1128 39.8322 47.8797 39.3559C47.7885 39.1532 47.606 38.9303 47.4844 38.8492C47.3628 38.758 46.4709 38.4945 45.508 38.2412C44.3116 37.9263 43.8141 37.1088 44.0591 35.8961C44.3836 34.2902 44.901 31.7818 45.4878 28.9789C46.9675 21.9055 47.2918 20.2638 47.1804 20.1827C47.0138 20.06 30.8018 16.6619 26.3676 15.8055C25.6242 15.6619 25.1562 15.9771 24.9915 16.716C24.7841 17.6464 24.4771 19.0764 24.143 20.659C23.5653 23.4053 23.0686 25.6651 23.0484 25.6854C22.9267 25.8171 21.6497 25.0469 21.2848 24.6213C20.7781 24.0437 20.6666 23.6789 20.6666 22.473V22.4413C20.6666 21.8557 20.8874 21.2917 21.2848 20.8617C22.349 19.7267 22.8659 18.3688 22.9673 16.4028C23.0281 15.3489 23.0382 15.2678 23.2308 15.2678C23.6362 15.2678 24.2849 14.7814 24.518 14.3051C24.7815 13.7478 24.8828 12.8256 24.741 12.2885C24.6497 11.9743 24.67 11.7311 24.822 11.0724C25.3389 8.83287 25.5822 6.5629 25.42 5.31644C25.116 2.91473 23.322 0.898102 20.8693 0.209003C19.9571 -0.044342 17.7476 -0.0747414 16.6936 0.158333ZM13.7037 8.56939C15.1834 9.22808 15.68 9.39022 16.1868 9.39022C16.3672 9.39022 16.5044 9.5522 16.4748 9.73013L16.4605 9.81585C16.4199 10.0591 16.278 10.4948 16.1463 10.7988C15.9233 11.2852 15.9132 11.3764 16.0449 11.4981C16.1767 11.6298 16.2578 11.6095 16.6834 11.3663C17.3625 10.961 18.1429 10.1503 18.4672 9.5017C18.7206 8.98487 18.7814 8.9342 19.5213 8.60992C19.9571 8.41738 20.5754 8.19444 20.8896 8.10323C21.4267 7.95123 21.4875 7.95123 21.7206 8.11337C22.3997 8.54912 22.5213 9.5321 22.4605 13.991C22.42 17.6391 22.3794 17.9026 21.7815 19.1997C21.447 19.9091 20.5551 20.9124 19.9166 21.2873C19.2071 21.7028 18.1632 21.9663 17.0179 22.0271C13.9469 22.1892 11.9401 20.9529 11.0584 18.3586C10.8772 17.8218 10.7847 17.2589 10.7847 16.6923V13.3931C10.7847 8.86327 10.8253 8.45792 11.332 8.0627C11.6969 7.76882 12.082 7.84989 13.7037 8.56939ZM10.2273 13.0384C10.2273 14.9233 10.2273 14.9131 9.64958 14.5585C9.16309 14.2646 8.97052 13.8187 8.97052 12.9877C8.97052 12.1466 9.16309 11.721 9.63945 11.4879C10.2374 11.194 10.2273 11.1636 10.2273 13.0384ZM23.5653 11.4778C23.7578 11.569 23.9909 11.7919 24.0822 11.9642C24.3153 12.3898 24.3153 13.5856 24.0822 14.0214C23.92 14.3254 23.3524 14.7611 23.1092 14.7611C23.0281 14.7611 22.9977 14.2544 22.9977 13.0384C22.9977 11.8527 23.0281 11.3156 23.1092 11.3156C23.17 11.3156 23.3727 11.3866 23.5653 11.4778ZM36.1228 18.3384C36.7411 18.4701 36.8931 18.6424 36.5586 18.8451C36.437 18.9261 36.214 18.916 35.7478 18.8045C35.2208 18.6829 35.0992 18.6221 35.0789 18.4296C35.0383 18.1661 35.2005 18.1458 36.1228 18.3384ZM36.5282 19.5342C36.589 19.595 36.5586 19.6862 36.4573 19.7875C36.3255 19.9192 36.2242 19.9294 35.687 19.828C35.0383 19.6963 34.7951 19.524 34.8863 19.2808C34.937 19.1592 35.0485 19.1592 35.687 19.2909C36.0924 19.372 36.4674 19.4835 36.5282 19.5342ZM35.6971 20.2739C36.4269 20.4462 36.5181 20.5273 36.3154 20.8211C36.0417 21.2164 34.8052 21.0441 34.6938 20.5881C34.5721 20.1017 34.7444 20.051 35.6971 20.2739ZM28.1768 21.3076C28.6227 21.4494 29.5957 21.8143 30.3356 22.1284C31.6228 22.6655 31.6836 22.6858 32.4032 22.6452C32.8897 22.6148 33.1937 22.6351 33.3052 22.7162C33.4573 22.8276 33.4471 22.8682 33.2039 23.1114C33.062 23.2533 32.8491 23.3749 32.7377 23.3749C32.3018 23.3749 31.4201 23.1317 30.4471 22.7466C29.6363 22.4223 29.2613 22.3311 28.5721 22.2906C27.6295 22.2297 27.3254 22.0879 27.0214 21.5711C26.8491 21.2772 26.8491 21.2569 27.0214 21.1556C27.2646 21.0137 27.2342 21.0137 28.1768 21.3076ZM35.4438 21.3582C35.7275 21.4089 36.0316 21.5204 36.133 21.5913C36.3053 21.7231 36.2951 21.7433 36.0519 21.9865C35.8188 22.2196 35.7579 22.2297 35.3221 22.1487C34.6836 22.0271 34.4505 21.8852 34.4505 21.6116C34.4505 21.2062 34.5924 21.1758 35.4438 21.3582ZM35.5958 22.5743C35.8796 22.6452 35.9708 22.7263 35.9708 22.8884C35.9708 23.1925 35.687 23.4762 35.3728 23.4762C34.9877 23.4762 34.4302 23.2938 34.3289 23.1519C34.2275 22.9898 34.2275 22.5236 34.3289 22.4223C34.3998 22.3412 34.9674 22.402 35.5958 22.5743ZM27.7106 23.0303C28.3079 23.0846 28.4303 23.4002 27.9485 23.7575C27.63 23.9937 27.1882 24.3073 26.6058 24.7125C26.2106 24.9861 25.7849 25.199 25.643 25.199C25.2578 25.199 24.7815 24.8747 24.5991 24.4795C24.3964 24.064 24.4876 23.912 24.9842 23.8309C25.1768 23.8005 25.4808 23.76 25.6734 23.7296C25.866 23.6992 26.2106 23.5167 26.4538 23.3242C26.7405 23.0962 27.1027 22.9847 27.468 23.0121L27.7106 23.0303ZM37.3897 23.4762C37.7828 23.6761 38.2176 23.7802 38.6585 23.7802H40.1262C42.2546 23.7802 43.1668 23.8816 43.1668 24.1248C43.1668 24.3477 42.7006 24.7024 42.3357 24.7632C42.0823 24.7936 41.7884 24.7429 41.383 24.5909C40.8762 24.3882 40.5621 24.3477 39.3661 24.3274C37.4303 24.297 36.5789 24.0538 36.5789 23.537C36.5789 23.3343 36.6499 23.1722 36.7512 23.1722C36.7715 23.1722 37.0553 23.3039 37.3897 23.4762ZM29.0788 23.9626C28.268 24.4997 28.1667 24.9152 28.7342 25.3814C29.2917 25.8374 30.8525 26.3238 32.0181 26.4049C32.7782 26.4555 32.9809 26.4961 32.9809 26.6177C32.9809 26.8812 31.2579 26.8001 30.0721 26.4859C28.9876 26.1921 28.4606 25.959 27.9741 25.5435C27.6092 25.2395 27.4471 25.2699 26.8592 25.7563C26.17 26.3441 26.2511 26.8204 27.143 27.2662C28.1464 27.7729 30.964 28.3202 31.9876 28.1986C32.5248 28.1378 32.7985 28.2695 32.5147 28.4519C32.2816 28.5938 29.8795 28.5532 28.9167 28.3911C27.3761 28.1276 26.3829 27.7628 25.947 27.2865C25.8052 27.1446 25.6633 27.023 25.6227 27.023C25.4606 27.023 25.2274 27.6209 25.2274 28.006C25.2274 29.2626 26.768 29.8909 29.839 29.901C30.7309 29.9112 31.6025 29.8909 31.7647 29.8605C31.9876 29.82 32.0687 29.8504 32.0687 29.9618C32.0687 30.2253 31.2376 30.3469 29.4842 30.3571C27.6295 30.3672 26.8085 30.2355 25.8356 29.7997C25.5011 29.6477 25.1869 29.5565 25.1464 29.597C25.1058 29.6376 25.0754 29.8808 25.0754 30.1341C25.0754 30.5293 25.1261 30.6307 25.4504 30.9245C26.1599 31.5731 28.0349 31.8873 30.0721 31.6947C30.7207 31.6238 31.4403 31.5326 31.6633 31.4819C32.2208 31.3502 32.3221 31.3603 32.3221 31.5224C32.3221 31.7353 31.3998 31.9886 29.8592 32.1913C28.1971 32.4041 26.616 32.2723 25.643 31.8265C25.0247 31.5528 24.9234 31.5934 24.9234 32.171C24.9234 33.2148 26.0383 33.8127 27.9944 33.8127C29.1498 33.8127 30.0315 33.6505 30.7714 33.306C31.1971 33.1134 31.4302 33.0526 31.4707 33.1236C31.5518 33.2553 31.339 33.4377 30.6903 33.762C29.8491 34.1978 29.0282 34.3599 27.6599 34.3599C26.5856 34.3599 26.3018 34.3295 25.7849 34.137C24.7105 33.7215 24.7815 33.7215 24.8524 34.2586C25.0045 35.353 25.6126 35.7786 27.0011 35.7685C28.0856 35.7584 28.9268 35.5354 30.0315 34.9882C30.5282 34.7349 30.9741 34.5524 31.0349 34.593C31.0856 34.6234 30.9032 34.8767 30.6295 35.1706C30.3457 35.4544 29.768 36.2144 29.3221 36.8528C26.8389 40.4503 25.2477 40.8759 24.6801 38.0891C24.5991 37.7142 24.4876 37.2176 24.4268 36.9744C24.3421 36.6358 24.3811 36.2842 24.3944 35.9353C24.4091 35.5457 24.4211 34.9765 24.4268 34.3599C24.4369 32.9209 24.4774 32.1811 24.5889 31.7758C24.7004 31.34 24.7105 31.1475 24.6295 30.9955C24.4673 30.7016 24.4876 30.124 24.67 29.6882C24.7916 29.4146 24.8119 29.1309 24.7612 28.5836C24.7004 27.9148 24.7207 27.8135 24.9842 27.327C25.3997 26.5569 26.322 25.6043 27.0721 25.1686C27.4369 24.9557 27.8322 24.6517 27.9538 24.4795C28.2781 24.0538 29.089 23.5471 29.2207 23.689C29.3018 23.7701 29.2613 23.8512 29.0788 23.9626ZM15.2544 24.5909C16.6936 24.9659 17.9098 24.8341 19.3389 24.1754C19.8051 23.9626 20.2004 23.7802 20.2206 23.7802C20.2308 23.7802 20.2713 23.9221 20.3119 24.0842C20.3524 24.2565 20.5551 24.6112 20.7679 24.8747C20.965 25.1236 20.8795 25.4912 20.5928 25.6275L18.8727 26.4454C17.4352 27.1255 15.7606 27.1231 14.3219 26.4454L12.6414 25.6503C12.3499 25.5123 12.2771 25.1304 12.4976 24.8949C12.7408 24.6416 12.9942 24.2666 13.0652 24.0741C13.1349 23.8863 13.3541 23.8031 13.5309 23.8972L13.8253 24.0538C14.18 24.2362 14.8186 24.4795 15.2544 24.5909ZM34.2985 24.0336C34.6633 24.2464 34.7748 24.2768 35.3829 24.216C36.0417 24.1552 36.0721 24.1653 36.3661 24.4693C36.5384 24.6416 36.6803 24.8341 36.6803 24.9152C36.6803 25.1888 36.285 25.6854 35.839 25.9691C35.2613 26.3238 35.1904 26.4859 35.0485 27.6615C34.8052 29.7389 34.339 31.4008 33.8829 31.8569C33.589 32.1507 33.4877 32.1507 33.1836 31.8366C32.7985 31.4616 32.839 30.3773 33.285 28.1884C33.4775 27.246 33.6397 26.3542 33.6397 26.2123C33.6397 26.0502 33.5181 25.8374 33.3255 25.6448C32.687 25.0469 32.5552 24.4491 32.9809 24.0336C33.2951 23.7093 33.7714 23.7093 34.2985 24.0336ZM42.5486 25.5435C42.6195 25.5942 42.7411 25.7766 42.8222 25.9691C42.9641 26.3137 43.0959 26.4251 43.9067 26.9318C44.4945 27.2865 44.5148 27.55 43.9878 27.9047C43.2378 28.4114 42.8323 28.1682 41.7681 26.5467C41.3019 25.8475 40.8965 25.2091 40.8661 25.1381C40.8357 25.0469 41.0485 25.0773 41.6161 25.2294C42.0519 25.351 42.4675 25.4928 42.5486 25.5435ZM13.8557 26.8102C15.7003 27.6919 16.0753 27.8945 16.0044 28.0263C15.9537 28.1175 15.1632 28.9383 14.251 29.8504C13.5181 30.5787 12.271 30.2312 12.0204 29.2288L11.8895 28.7052C11.2915 26.2934 11.2104 25.8881 11.3422 25.807C11.4718 25.726 11.6255 25.7671 11.7643 25.8313C12.1328 26.0016 12.9438 26.3807 13.8557 26.8102ZM21.8727 25.7968C21.9842 25.8678 21.9132 26.2934 21.4267 28.2492C20.92 30.3064 20.8085 30.6509 20.5754 30.8536C20.4335 30.9752 20.2713 31.0664 20.2105 31.0563C20.0686 31.0158 17.0787 27.9452 17.1294 27.8945C17.1801 27.8337 21.599 25.7259 21.6801 25.7158C21.7105 25.7158 21.7916 25.7462 21.8727 25.7968ZM40.856 26.4049C41.008 26.6582 41.1398 26.9318 41.1398 27.0332C41.1398 27.1244 41.3931 27.5297 41.6972 27.9452C42.3357 28.8167 42.7614 29.8504 42.8323 30.7421C42.883 31.2894 42.8526 31.4211 42.6094 31.8569C42.4168 32.1913 42.3053 32.5662 42.2546 33.0729C42.1938 33.6404 42.1229 33.8735 41.91 34.1167C41.7377 34.3295 41.6465 34.5626 41.6465 34.8058C41.6364 35.0085 41.5654 35.3632 41.4844 35.5861C41.3931 35.809 41.2107 36.336 41.0789 36.7515C40.9371 37.167 40.7344 37.6635 40.6229 37.8459C40.5215 38.0283 40.3593 38.4742 40.2681 38.839C40.1769 39.1937 39.9641 39.7004 39.7816 39.9538C39.6093 40.2172 39.3762 40.5719 39.2647 40.7543C38.8289 41.4434 38.5046 41.788 38.1195 41.9603C37.4201 42.2744 36.9134 42.0109 36.3965 41.0381C35.9809 40.2476 35.6161 39.2343 35.3627 38.1195C35.0181 36.5792 34.937 36.3157 34.6938 35.8192C34.3796 35.1909 34.5721 35.049 34.9877 35.5962C36.0417 36.9542 37.6431 37.9777 38.8492 38.0486C39.6093 38.0993 40.035 37.9169 40.3289 37.4304C40.6837 36.8528 40.6127 36.7515 39.9134 36.7515C38.7884 36.7515 37.3897 36.2651 36.214 35.4544C35.5552 35.0085 34.6532 34.1066 34.6532 33.8836C34.6532 33.5897 34.8052 33.6303 35.1296 34.0052C36.3154 35.3936 39.4168 36.4677 40.5418 35.8901C40.8864 35.7077 41.2411 35.1909 41.2411 34.8463C41.2411 34.6335 41.2006 34.6234 40.4708 34.6234C40.0452 34.6234 39.4269 34.5524 39.0924 34.4612C37.3897 34.0255 34.187 32.2318 34.5012 31.8974C34.5721 31.8265 34.7444 31.8873 35.0586 32.1001C36.3559 32.9817 38.7478 33.9039 39.9337 33.9951C41.0181 34.066 41.6668 33.7316 41.8087 33.0222C41.8451 32.8556 41.7183 32.698 41.5477 32.698H41.1094C39.7614 32.698 38.0891 32.2419 36.437 31.4211C35.4336 30.9245 35.1093 30.6813 35.2411 30.5496C35.2917 30.4989 35.6769 30.6307 36.133 30.8536C38.1701 31.867 40.7039 32.3635 41.6972 31.9481C42.1634 31.7454 42.4573 31.2488 42.4573 30.6408C42.4573 30.3773 42.4168 30.1645 42.3661 30.1645C42.3154 30.1645 42.1026 30.2355 41.8898 30.3267C40.8053 30.7827 36.7107 29.9821 35.6161 29.1106C35.16 28.7458 35.3829 28.685 36.0417 28.9789C37.7647 29.7389 41.0891 30.1138 41.6465 29.6072C41.981 29.3031 41.8594 28.7052 41.3526 28.0465C41.2358 27.899 41.0423 27.8353 40.8606 27.8845L40.5621 27.9655C39.7715 28.1884 39.0418 28.1783 37.7749 27.9351C36.5688 27.702 35.8289 27.4689 35.6667 27.2764C35.464 27.0332 35.7478 27.0028 36.3255 27.2156C37.0249 27.4791 38.6262 27.6716 39.4776 27.6007C40.6127 27.5095 40.9067 27.0737 40.3796 26.2833C40.2377 26.0806 40.1465 25.8576 40.1769 25.7968C40.2681 25.655 40.5114 25.8678 40.856 26.4049ZM11.4334 29.0194C12.3861 32.9209 12.7003 34.4308 12.5888 34.5119C11.6707 35.1189 10.0481 36.1575 9.27345 36.6327C8.98827 36.8077 8.72097 36.7623 8.54484 36.4779C8.40105 36.2341 8.40127 35.9314 8.54543 35.6878L9.61918 33.8735C9.82922 33.5185 10.0263 33.1783 10.1993 32.8728C10.687 32.0121 10.4674 31.2695 9.58926 30.8139C9.32984 30.6793 9.04484 30.5348 8.74755 30.3875L8.42295 30.2252C7.54599 29.7868 7.34235 28.6255 8.01781 27.9148C9.31512 26.5467 9.40634 26.4657 9.98405 26.3035C10.4274 26.1789 10.7333 26.3391 10.8555 26.7832C11.0016 27.3147 11.2111 28.119 11.4334 29.0194ZM22.8963 26.2123C22.9369 26.2123 22.8051 27.0129 22.6024 28.006L22.3211 29.3438C22.2612 29.6288 22.0885 29.8773 21.8423 30.0328C21.5078 30.2456 21.4673 30.2557 21.5179 30.0936C21.599 29.7997 22.4909 26.2123 22.4909 26.1414C22.4909 26.111 22.5619 26.1211 22.6531 26.1515C22.7443 26.1819 22.8457 26.2123 22.8963 26.2123ZM23.6058 30.1645C23.8389 30.3976 23.8592 30.6509 23.6666 30.9245C23.5855 31.036 22.6328 31.6947 21.5382 32.3939C19.9368 33.4175 19.5618 33.7012 19.5517 33.8836C19.5517 34.2282 19.7747 34.1775 20.7173 33.5999C21.6294 33.0425 21.8524 33.0222 22.1565 33.4681C22.3997 33.8431 22.2173 34.1268 21.3761 34.6842C20.92 34.9882 20.6666 35.2213 20.6869 35.3226C20.7375 35.576 21.0315 35.5658 21.447 35.2922C22.0044 34.9071 22.4403 34.9477 22.6632 35.3834C22.8254 35.6976 22.6531 36.0016 22.0855 36.4069C21.3456 36.9339 21.447 37.2075 22.2984 37.0048C22.6632 36.9136 23.018 37.2886 22.9774 37.7142C22.947 37.9777 22.7544 38.1398 21.0213 39.2545C19.8152 40.0348 18.8625 40.5821 18.4571 40.7138C17.6564 40.9773 16.8051 40.9975 16.1361 40.7543C15.8178 40.6398 15.4639 40.6847 15.1843 40.8752L14.7071 41.2002C14.1953 41.5451 13.5001 41.402 13.1661 40.8831L13.1158 40.805C12.751 40.2476 12.1631 39.3356 11.7983 38.7681C11.7717 38.7279 11.7456 38.688 11.72 38.6487C11.3074 38.0138 11.4533 37.4327 12.0826 37.0117C14.8656 35.1499 22.9949 29.9618 23.1801 29.9618C23.3017 29.9618 23.4943 30.053 23.6058 30.1645ZM19.6531 31.3907C19.6531 31.4312 19.2578 31.715 18.7713 32.0291L18.2053 32.3893C18.0575 32.4833 17.8628 32.3862 17.849 32.2115C17.8186 31.9379 17.9098 31.6339 18.1936 31.0462L18.2457 30.9406C18.4098 30.608 18.8511 30.5331 19.1159 30.7928C19.4098 31.0867 19.6531 31.3502 19.6531 31.3907ZM15.0415 31.0867C15.2932 31.5635 15.4059 32.1014 15.3667 32.6392L15.3557 32.7892C15.2442 34.3802 15.2848 34.2991 14.3219 34.9173C13.7421 35.275 13.3499 35.0862 13.2096 34.4195C13.1677 34.2201 13.1221 34.0012 13.0753 33.7721L12.9972 33.3958C12.8372 32.6251 13.0761 31.8256 13.6327 31.2691C14.1294 30.7725 14.555 30.3672 14.5956 30.3672C14.6361 30.3672 14.8287 30.6915 15.0415 31.0867ZM33.437 32.8804C34.2985 33.0729 34.4505 33.2857 34.0046 33.7012C33.7714 33.9242 33.7309 33.9242 33.1735 33.8127C32.2714 33.6201 32.1194 33.5289 32.1194 33.154C32.1194 32.627 32.2005 32.6169 33.437 32.8804ZM33.0113 34.2079C34.0451 34.4308 34.1566 34.522 33.8728 34.897C33.6296 35.2415 33.3559 35.2922 32.6464 35.1301C32.0282 34.9983 31.8153 34.8159 31.8153 34.4308C31.8153 33.9444 31.8255 33.9444 33.0113 34.2079ZM32.91 35.5354C33.1532 35.5962 33.5282 35.7584 33.7512 35.9104L33.8941 36.0045C34.0142 36.0836 34.0023 36.2634 33.8728 36.3259C33.7208 36.4069 33.5282 36.5589 33.4573 36.6704C33.2951 36.8934 32.8491 36.9035 32.1498 36.7008C31.714 36.5691 31.6228 36.4981 31.562 36.2549C31.5316 36.0928 31.4099 35.88 31.2984 35.7786C31.1059 35.6064 31.1059 35.5861 31.2782 35.5253C31.5518 35.4138 32.4133 35.424 32.91 35.5354ZM32.8187 37.2075C33.1228 37.2886 33.4167 37.4203 33.4573 37.5115C33.5079 37.5926 33.6701 37.6635 33.8221 37.6737C34.0856 37.6838 34.0856 37.6838 33.741 37.8459C33.5485 37.9371 33.285 38.1195 33.1532 38.2412C32.91 38.4945 32.7174 38.5148 31.9674 38.3425C31.5417 38.2412 31.4302 38.1601 31.2883 37.8763C31.1971 37.6939 31.0147 37.4304 30.8829 37.2886L30.8732 37.2781C30.8018 37.2004 30.8704 37.0766 30.9741 37.096C31.1667 37.1467 31.3187 37.1264 31.3593 37.0555C31.4403 36.9339 31.8964 36.9744 32.8187 37.2075ZM44.7276 38.5857C47.1702 39.2241 47.454 39.3457 47.454 39.8423C47.454 40.1362 47.0689 40.6023 46.8256 40.6023C46.7344 40.6023 45.6195 40.3287 44.3324 39.9943C42.3864 39.4876 41.9607 39.3457 41.7783 39.1228C41.6465 38.9809 41.5452 38.7782 41.5452 38.6668C41.5452 38.4236 41.981 37.9675 42.2141 37.9675C42.3053 37.9675 43.4405 38.2412 44.7276 38.5857ZM32.3626 38.8694C32.8086 38.9809 33.2241 39.1329 33.2951 39.2241C33.3559 39.3153 33.5079 39.3863 33.6194 39.3863C33.9944 39.3863 33.9539 39.5687 33.5282 39.7308C33.3052 39.822 33.0214 40.0044 32.8998 40.1463C32.6363 40.4402 32.5248 40.4605 31.866 40.3591C31.1566 40.2476 30.8018 40.045 30.8018 39.7511C30.8018 39.6092 30.6701 39.3761 30.4978 39.214C30.3356 39.062 30.1937 38.8998 30.1937 38.8593C30.1937 38.7985 30.5991 38.7276 31.2579 38.6972C31.4302 38.687 31.9268 38.7681 32.3626 38.8694ZM43.9675 40.4503C45.3864 40.8151 46.6128 41.1698 46.6939 41.2408C47.0689 41.5448 46.9979 42.1933 46.5621 42.4264C46.3391 42.548 46.0047 42.4771 43.6533 41.8691C42.1837 41.4941 40.8864 41.1192 40.7648 41.0482C40.1465 40.6631 40.5519 39.5788 41.2411 39.741C41.3222 39.7612 42.5587 40.0754 43.9675 40.4503ZM31.9471 40.7645C32.5755 40.8962 32.8795 41.0077 32.9404 41.1293C32.991 41.2306 33.1127 41.3117 33.214 41.3117C33.3052 41.3117 33.4471 41.3522 33.5282 41.4029C33.6397 41.4738 33.5789 41.5448 33.2748 41.6968C33.062 41.8082 32.7478 42.0413 32.5856 42.2237C32.3221 42.5277 32.2613 42.548 31.8052 42.4973C31.1566 42.4163 30.4876 42.2136 30.4471 42.0819C30.4268 42.0211 30.3863 41.8589 30.3559 41.717C30.3255 41.5752 30.1532 41.3016 29.9809 41.109L29.9253 41.0501C29.8134 40.9315 29.8892 40.7361 30.0518 40.7239C30.1173 40.7177 30.1838 40.7076 30.2462 40.6952C30.4559 40.6534 30.6462 40.4853 30.8525 40.5415C30.964 40.5618 31.4606 40.6733 31.9471 40.7645ZM43.7141 42.4365C45.0013 42.771 46.1162 43.1054 46.1972 43.1662C46.5824 43.4905 46.5114 44.1086 46.0452 44.3518C45.8425 44.4633 45.4878 44.4025 43.3999 43.8654C41.3729 43.3385 40.9472 43.1966 40.7648 42.9736C40.633 42.8318 40.5316 42.6291 40.5316 42.5176C40.5316 42.2744 40.9675 41.8184 41.2006 41.8184C41.3019 41.8184 42.4269 42.092 43.7141 42.4365ZM31.3998 42.8723C32.2208 43.0547 32.616 43.1763 32.7174 43.3182C32.8086 43.4297 33.0214 43.5513 33.1836 43.5918C33.2851 43.6189 33.2962 43.7584 33.2003 43.8012L33.0113 43.8857C32.7579 43.9971 32.4336 44.2302 32.312 44.3924C32.0991 44.666 32.0586 44.6761 31.4707 44.6254C30.3255 44.514 29.7883 44.2606 29.7883 43.8147C29.7883 43.6931 29.616 43.4195 29.4133 43.2067L29.3224 43.1134C29.2297 43.0183 29.3128 42.8601 29.4437 42.8824C29.7782 42.9331 29.8795 42.9128 29.9201 42.7912C30.0011 42.5784 30.0315 42.5886 31.3998 42.8723ZM43.3797 44.4025C45.6803 45.0004 45.731 45.0207 45.8831 45.274C46.0655 45.5679 45.9439 46.0442 45.6297 46.2469C45.3763 46.409 45.2851 46.3989 43.3797 45.9226C41.2614 45.3855 40.9371 45.2233 40.9371 44.7065C40.9371 44.4532 41.3323 43.9465 41.535 43.9465C41.5857 43.9465 42.4168 44.1492 43.3797 44.4025ZM33.8728 45.7199C36.133 46.1962 38.0181 46.5813 38.0587 46.5914C38.2411 46.6117 37.5215 46.7839 36.6296 46.9461C35.4235 47.169 33.4877 47.169 32.5958 46.9562C31.6228 46.713 30.741 46.2367 30.1228 45.5983C29.6059 45.0713 29.4741 44.8585 29.6768 44.8585C29.7275 44.8585 31.6126 45.2436 33.8728 45.7199Z" fill="#095FBA" stroke="#095FBA" stroke-width="2" mask="url(#path-1-inside-1_978_5353)"/>
<path d="M12.3365 12.508C12.3366 12.508 12.337 12.5073 12.3377 12.5059C12.3368 12.5073 12.3365 12.508 12.3365 12.508Z" fill="#095FBA" stroke="#095FBA"/>
<mask id="path-3-inside-2_978_5353" fill="white">
<path d="M18.5881 11.7611C18.0103 11.9435 17.7266 12.1158 17.7266 12.2779C17.7266 12.5312 17.9191 12.5414 18.5982 12.3286C19.5104 12.0549 20.1083 12.0651 20.7266 12.3792C21.3651 12.7035 21.5982 12.7136 21.5577 12.3995C21.5374 12.2475 21.3651 12.0955 20.98 11.8928C20.5239 11.6699 20.3009 11.6192 19.7131 11.6293C19.3178 11.6293 18.811 11.6901 18.5881 11.7611Z"/>
</mask>
<path d="M18.5881 11.7611C18.0103 11.9435 17.7266 12.1158 17.7266 12.2779C17.7266 12.5312 17.9191 12.5414 18.5982 12.3286C19.5104 12.0549 20.1083 12.0651 20.7266 12.3792C21.3651 12.7035 21.5982 12.7136 21.5577 12.3995C21.5374 12.2475 21.3651 12.0955 20.98 11.8928C20.5239 11.6699 20.3009 11.6192 19.7131 11.6293C19.3178 11.6293 18.811 11.6901 18.5881 11.7611Z" fill="#095FBA"/>
<path d="M18.5881 11.7611L18.8912 12.714L18.8891 12.7147L18.5881 11.7611ZM18.5982 12.3286L18.2991 11.3742L18.3109 11.3707L18.5982 12.3286ZM20.7266 12.3792L20.2738 13.2708L20.2736 13.2707L20.7266 12.3792ZM21.5577 12.3995L22.5489 12.2673L22.5495 12.2715L21.5577 12.3995ZM20.98 11.8928L21.4191 10.9944L21.4325 11.0009L21.4457 11.0079L20.98 11.8928ZM19.7131 11.6293L19.7303 12.6292L19.7217 12.6293H19.7131V11.6293ZM18.8891 12.7147C18.7642 12.7541 18.6656 12.7898 18.59 12.8209C18.5123 12.8528 18.4715 12.8748 18.4562 12.8839C18.4347 12.8969 18.4803 12.8742 18.541 12.8031C18.6055 12.7274 18.7266 12.547 18.7266 12.2779H16.7266C16.7266 11.9277 16.8831 11.665 17.0189 11.5057C17.1508 11.3509 17.3035 11.2434 17.4251 11.1702C17.669 11.0235 17.9724 10.9068 18.287 10.8075L18.8891 12.7147ZM18.7266 12.2779C18.7266 12.2428 18.725 12.0021 18.5247 11.7697C18.3078 11.5181 18.0422 11.4841 17.9648 11.4797C17.8943 11.4756 17.8763 11.488 17.9604 11.4695C18.0324 11.4536 18.1401 11.4242 18.2991 11.3743L18.8972 13.2828C18.7168 13.3393 18.5457 13.3885 18.3907 13.4226C18.2476 13.4541 18.0542 13.488 17.8507 13.4764C17.6402 13.4644 17.284 13.3936 17.0098 13.0755C16.7522 12.7766 16.7266 12.4397 16.7266 12.2779H18.7266ZM18.3109 11.3707C19.3693 11.0532 20.2537 11.0172 21.1796 11.4877L20.2736 13.2707C19.963 13.1129 19.6514 13.0566 18.8855 13.2864L18.3109 11.3707ZM21.1794 11.4876C21.3233 11.5607 21.4207 11.6038 21.4828 11.6271C21.5609 11.6564 21.5252 11.632 21.4253 11.6292C21.3081 11.6258 20.9498 11.6587 20.7096 12.0095C20.6107 12.1539 20.5786 12.2919 20.5679 12.3748C20.5575 12.456 20.5639 12.5122 20.5659 12.5275L22.5495 12.2715C22.5685 12.4188 22.5996 12.7893 22.3598 13.1394C22.0674 13.5665 21.6185 13.6355 21.3682 13.6284C21.1353 13.6217 20.9242 13.5537 20.7803 13.4997C20.6203 13.4396 20.4492 13.3599 20.2738 13.2708L21.1794 11.4876ZM20.5665 12.5317C20.5838 12.662 20.6309 12.762 20.6727 12.8267C20.7114 12.8868 20.7448 12.9157 20.7458 12.9165C20.7476 12.9182 20.7332 12.9054 20.6915 12.8788C20.6508 12.8528 20.5934 12.8194 20.5143 12.7778L21.4457 11.0079C21.6618 11.1216 21.8832 11.2536 22.0655 11.4138C22.2444 11.5709 22.4932 11.8492 22.5489 12.2673L20.5665 12.5317ZM20.5408 12.7912C20.3414 12.6937 20.2574 12.6665 20.1896 12.6522C20.1146 12.6363 20.0014 12.6245 19.7303 12.6292L19.6958 10.6295C20.0126 10.624 20.3047 10.6325 20.6022 10.6952C20.9069 10.7594 21.1625 10.8689 21.4191 10.9944L20.5408 12.7912ZM19.7131 12.6293C19.5611 12.6293 19.3752 12.6414 19.2031 12.6617C19.1183 12.6717 19.0435 12.6829 18.9836 12.694C18.9188 12.7059 18.8908 12.7141 18.8912 12.714L18.2849 10.8081C18.6474 10.6928 19.27 10.6293 19.7131 10.6293V12.6293Z" fill="#095FBA" mask="url(#path-3-inside-2_978_5353)"/>
<path d="M13.5037 13.7136C13.5008 13.778 13.4914 13.846 13.4812 13.9088C13.478 13.9363 13.4779 13.951 13.4782 13.9577C13.4809 13.9625 13.4869 13.9723 13.4988 13.9878C13.5185 14.0136 13.5499 14.0494 13.6006 14.1003C13.741 14.2362 13.8123 14.2453 13.825 14.246L13.8251 14.246C13.8318 14.2464 13.8891 14.2497 14.0171 14.139L14.0171 14.139L14.0188 14.1375C14.0991 14.0687 14.1119 14.0415 14.1138 14.0375L14.1139 14.0374C14.1139 14.0373 14.1139 14.0373 14.114 14.0372C14.1154 14.0342 14.128 14.0084 14.128 13.9092C14.128 13.8306 14.1298 13.7507 14.1376 13.6778C14.1441 13.6161 14.1592 13.5085 14.2137 13.4017C14.154 13.3926 14.0925 13.3844 14.0305 13.3774C13.8567 13.3576 13.6886 13.3479 13.5514 13.3492C13.4991 13.3497 13.4578 13.3519 13.4263 13.3544C13.4345 13.3688 13.4419 13.3831 13.4484 13.3971C13.5107 13.5312 13.5061 13.6628 13.5037 13.7136ZM13.0841 14.0591L13.0813 14.0604C13.0907 14.0569 13.0922 14.0554 13.0841 14.0591ZM12.5048 13.6678C12.5051 13.66 12.5044 13.6619 12.5046 13.6713C12.5047 13.6698 12.5047 13.6687 12.5048 13.6678ZM12.6915 13.646C12.6915 13.646 12.692 13.6455 12.6931 13.6446C12.6919 13.6455 12.6914 13.646 12.6915 13.646Z" fill="#095FBA" stroke="#095FBA"/>
<path d="M19.3027 14.246C19.3154 14.2453 19.3867 14.2362 19.5271 14.1003C19.5778 14.0494 19.6092 14.0136 19.6289 13.9878C19.6408 13.9723 19.6468 13.9625 19.6495 13.9577C19.6497 13.951 19.6496 13.9363 19.6465 13.9088C19.6362 13.846 19.6269 13.778 19.6239 13.7136C19.6216 13.6628 19.617 13.5312 19.6793 13.3971C19.6796 13.3964 19.6799 13.3958 19.6802 13.3951C19.4085 13.3542 19.1313 13.347 18.8998 13.3734C18.9058 13.3837 18.9114 13.394 18.9165 13.4043C18.9694 13.5102 18.9841 13.6173 18.9905 13.6795C18.9978 13.7513 18.9997 13.8303 18.9997 13.9092C18.9997 14.0084 19.0123 14.0342 19.0137 14.0372C19.0137 14.0373 19.0138 14.0373 19.0138 14.0374L19.0138 14.0375C19.0157 14.0415 19.0286 14.0687 19.1089 14.1375L19.1089 14.1375L19.1106 14.139C19.2386 14.2497 19.2959 14.2464 19.3025 14.246L19.3027 14.246ZM20.4167 13.6373C20.4174 13.6372 20.414 13.6335 20.4043 13.6262C20.4111 13.6337 20.4159 13.6373 20.4167 13.6373ZM20.6229 13.6678C20.6229 13.6687 20.623 13.6698 20.6231 13.6713C20.6233 13.6619 20.6225 13.66 20.6229 13.6678ZM20.0436 14.0591C20.0355 14.0554 20.037 14.0569 20.0463 14.0604L20.0436 14.0591Z" fill="#095FBA" stroke="#095FBA"/>
<mask id="path-7-inside-3_978_5353" fill="white">
<path d="M14.4145 18.2792C14.3334 18.492 14.6577 18.7656 15.3976 19.1C16.249 19.5054 17.1003 19.475 18.0024 19.0088C18.5091 18.7555 18.7017 18.6035 18.722 18.4312C18.7625 18.1474 18.4889 18.0258 18.2558 18.2386C17.8605 18.5832 17.1713 18.8467 16.6341 18.8467C16.2186 18.8467 15.9348 18.7656 15.3672 18.4717C14.5361 18.0562 14.5057 18.0461 14.4145 18.2792Z"/>
</mask>
<path d="M14.4145 18.2792C14.3334 18.492 14.6577 18.7656 15.3976 19.1C16.249 19.5054 17.1003 19.475 18.0024 19.0088C18.5091 18.7555 18.7017 18.6035 18.722 18.4312C18.7625 18.1474 18.4889 18.0258 18.2558 18.2386C17.8605 18.5832 17.1713 18.8467 16.6341 18.8467C16.2186 18.8467 15.9348 18.7656 15.3672 18.4717C14.5361 18.0562 14.5057 18.0461 14.4145 18.2792Z" fill="#095FBA"/>
<path d="M14.4145 18.2792L13.48 17.9231L13.4833 17.9147L14.4145 18.2792ZM15.3976 19.1L15.8095 18.1888L15.8185 18.1929L15.8275 18.1971L15.3976 19.1ZM18.0024 19.0088L17.5432 18.1203L17.5552 18.1144L18.0024 19.0088ZM18.722 18.4312L17.7288 18.3143L17.7303 18.302L17.732 18.2897L18.722 18.4312ZM18.2558 18.2386L18.93 18.9772L18.9215 18.9849L18.9128 18.9925L18.2558 18.2386ZM15.3672 18.4717L15.8144 17.5773L15.8207 17.5804L15.827 17.5837L15.3672 18.4717ZM15.349 18.6352C15.3931 18.5194 15.4101 18.3947 15.3991 18.2726C15.3886 18.1547 15.3542 18.0625 15.3233 18.0011C15.2679 17.8909 15.2106 17.8525 15.2401 17.8772C15.2613 17.8949 15.3144 17.9341 15.4161 17.9921C15.5151 18.0486 15.6447 18.1143 15.8095 18.1888L14.9857 20.0113C14.5926 19.8335 14.2263 19.6368 13.9563 19.4108C13.8223 19.2986 13.6529 19.1311 13.5364 18.8993C13.4061 18.64 13.3408 18.2887 13.48 17.9231L15.349 18.6352ZM15.8275 18.1971C16.3717 18.4562 16.8936 18.4562 17.5433 18.1204L18.4615 19.8972C17.3071 20.4938 16.1263 20.5545 14.9677 20.0029L15.8275 18.1971ZM17.5552 18.1144C17.6704 18.0568 17.7561 18.0107 17.8198 17.9733C17.8852 17.935 17.9134 17.9139 17.92 17.9087C17.9277 17.9025 17.8899 17.9305 17.845 17.9966C17.7939 18.0719 17.7445 18.1807 17.7288 18.3143L19.7151 18.548C19.6608 19.0099 19.3764 19.3048 19.1692 19.4705C18.9671 19.6322 18.711 19.7725 18.4495 19.9033L17.5552 18.1144ZM17.732 18.2897C17.7021 18.4991 17.7914 18.8954 18.2007 19.0692C18.5646 19.2237 18.8439 19.0558 18.93 18.9772L17.5815 17.5001C17.9007 17.2087 18.4334 16.9952 18.9823 17.2282C19.5765 17.4805 19.7824 18.0795 19.7119 18.5726L17.732 18.2897ZM18.9128 18.9925C18.3378 19.4937 17.4159 19.8467 16.6341 19.8467V17.8467C16.9266 17.8467 17.3832 17.6727 17.5987 17.4848L18.9128 18.9925ZM16.6341 19.8467C16.0002 19.8467 15.5541 19.6946 14.9074 19.3597L15.827 17.5837C16.0906 17.7202 16.2372 17.7798 16.3398 17.81C16.4249 17.8351 16.5022 17.8467 16.6341 17.8467V19.8467ZM14.92 19.3662C14.7075 19.2599 14.5659 19.1895 14.4626 19.142C14.3408 19.086 14.3491 19.0988 14.4115 19.1116C14.452 19.12 14.5594 19.1382 14.7017 19.1144C14.8639 19.0873 15.0199 19.0143 15.1472 18.9018C15.2588 18.8032 15.3141 18.704 15.3322 18.6698C15.3496 18.6367 15.3567 18.6156 15.3457 18.6436L13.4833 17.9147C13.4855 17.909 13.5802 17.6175 13.8227 17.4032C14.1828 17.085 14.5967 17.1078 14.8153 17.1528C15.0006 17.191 15.1781 17.2697 15.2985 17.3251C15.4376 17.3891 15.6114 17.4758 15.8144 17.5773L14.92 19.3662Z" fill="#095FBA" mask="url(#path-7-inside-3_978_5353)"/>
<mask id="path-9-inside-4_978_5353" fill="white">
<path d="M9.49888 12.3306C9.10361 12.5637 9.04279 13.4859 9.37726 14.023C9.65091 14.4486 10.1273 14.2155 10.1273 13.6582C10.1273 13.3947 9.84348 13.1109 9.65091 13.192C9.52929 13.2325 9.50902 13.192 9.55969 13.0197C9.5901 12.888 9.6205 12.7563 9.6205 12.7056C9.6205 12.6651 9.71172 12.6347 9.83334 12.6347C9.97524 12.6347 10.0259 12.584 10.0056 12.4624C9.9651 12.2496 9.74213 12.1888 9.49888 12.3306Z"/>
</mask>
<path d="M9.49888 12.3306C9.10361 12.5637 9.04279 13.4859 9.37726 14.023C9.65091 14.4486 10.1273 14.2155 10.1273 13.6582C10.1273 13.3947 9.84348 13.1109 9.65091 13.192C9.52929 13.2325 9.50902 13.192 9.55969 13.0197C9.5901 12.888 9.6205 12.7563 9.6205 12.7056C9.6205 12.6651 9.71172 12.6347 9.83334 12.6347C9.97524 12.6347 10.0259 12.584 10.0056 12.4624C9.9651 12.2496 9.74213 12.1888 9.49888 12.3306Z" fill="#095FBA"/>
<path d="M9.49888 12.3306L8.99095 11.4692L8.99506 11.4668L9.49888 12.3306ZM9.37726 14.023L8.53612 14.5638L8.53221 14.5577L8.5284 14.5516L9.37726 14.023ZM9.65091 13.192L10.0389 14.1137L10.0035 14.1286L9.96709 14.1407L9.65091 13.192ZM9.55969 13.0197L10.5341 13.2446L10.5274 13.2735L10.519 13.3019L9.55969 13.0197ZM10.0056 12.4624L10.988 12.2752L10.9901 12.2866L10.992 12.298L10.0056 12.4624ZM10.0068 13.192C10.0775 13.1504 10.1225 13.104 10.1475 13.0728C10.1719 13.0422 10.181 13.0216 10.1816 13.0201C10.1826 13.018 10.1786 13.0267 10.1737 13.0482C10.1689 13.0692 10.1644 13.0976 10.162 13.1324C10.157 13.2041 10.1622 13.2837 10.1778 13.3571C10.1937 13.4322 10.2153 13.477 10.2261 13.4944L8.5284 14.5516C8.22565 14.0654 8.13292 13.4793 8.16684 12.9932C8.1844 12.7416 8.23859 12.4705 8.35053 12.2157C8.45966 11.9673 8.65435 11.6677 8.99095 11.4692L10.0068 13.192ZM10.2184 13.4822C10.1943 13.4446 10.1122 13.3406 9.9422 13.2807C9.76317 13.2177 9.57113 13.235 9.41666 13.3103C9.27191 13.3809 9.19612 13.4823 9.1624 13.5468C9.12756 13.6134 9.12726 13.6567 9.12726 13.6582H11.1273C11.1273 14.1912 10.8918 14.8161 10.2931 15.1081C9.98534 15.2581 9.6229 15.2887 9.27759 15.1671C8.94127 15.0486 8.69709 14.8142 8.53612 14.5638L10.2184 13.4822ZM9.12726 13.6582C9.12726 13.8582 9.21472 13.9641 9.25901 14.0078C9.28954 14.0379 9.35554 14.0941 9.468 14.1345C9.58451 14.1765 9.79857 14.2149 10.0389 14.1137L9.2629 12.2704C9.93354 11.988 10.478 12.4009 10.6636 12.584C10.8979 12.8152 11.1273 13.1946 11.1273 13.6582H9.12726ZM9.96709 14.1407C9.9097 14.1598 9.7425 14.2145 9.53479 14.2055C9.26371 14.1937 8.87015 14.0606 8.65488 13.6497C8.50108 13.3562 8.53375 13.0787 8.54275 13.0045C8.55605 12.895 8.58258 12.7979 8.60034 12.7375L10.519 13.3019C10.5115 13.3277 10.5215 13.3003 10.5282 13.2456C10.5305 13.2262 10.5664 12.9886 10.4265 12.7216C10.3434 12.563 10.2115 12.4202 10.0366 12.3242C9.87307 12.2344 9.7202 12.2116 9.62165 12.2074C9.52461 12.2031 9.45017 12.2154 9.41267 12.223C9.37253 12.2311 9.34479 12.24 9.33472 12.2433L9.96709 14.1407ZM8.58531 12.7948C8.59303 12.7614 8.6 12.7312 8.60642 12.7027C8.61285 12.6741 8.61793 12.6507 8.62179 12.6318C8.62591 12.6117 8.62714 12.6039 8.62699 12.6049C8.62687 12.6057 8.62565 12.6135 8.62433 12.6265C8.62322 12.6373 8.6205 12.6661 8.6205 12.7056H10.6205C10.6205 12.8502 10.5884 12.9974 10.5812 13.0327C10.5668 13.1032 10.5485 13.1823 10.5341 13.2446L8.58531 12.7948ZM8.6205 12.7056C8.6205 12.284 8.86377 12.0177 9.00347 11.9034C9.14382 11.7886 9.28459 11.7331 9.36513 11.7062C9.53562 11.6494 9.70283 11.6347 9.83334 11.6347V13.6347C9.84223 13.6347 9.90302 13.6351 9.9975 13.6036C10.04 13.5894 10.1504 13.5491 10.2698 13.4514C10.3886 13.3542 10.6205 13.107 10.6205 12.7056H8.6205ZM9.83334 11.6347C9.81639 11.6347 9.75044 11.6354 9.6599 11.6601C9.56509 11.6859 9.41372 11.7465 9.27325 11.887C8.95746 12.2027 9.01042 12.5738 9.01925 12.6268L10.992 12.298C11.0211 12.4725 11.0589 12.9298 10.6874 13.3013C10.3629 13.6257 9.95966 13.6347 9.83334 13.6347V11.6347ZM9.02331 12.6495C9.04361 12.7561 9.09625 12.8868 9.20399 13.0051C9.31242 13.1243 9.44577 13.1968 9.57316 13.2304C9.81444 13.2941 9.97312 13.2117 10.0027 13.1945L8.99506 11.4668C9.26789 11.3077 9.65968 11.1848 10.0834 11.2966C10.5653 11.4238 10.8993 11.8096 10.988 12.2752L9.02331 12.6495Z" fill="#095FBA" mask="url(#path-9-inside-4_978_5353)"/>
<mask id="path-11-inside-5_978_5353" fill="white">
<path d="M23.2294 12.2971C23.0166 12.3782 23.0774 12.6112 23.3308 12.6518C23.6652 12.7024 23.6855 13.0673 23.351 13.2193C23.1585 13.3105 23.0977 13.4118 23.0977 13.6753C23.0977 14.2934 23.5841 14.4657 23.8578 13.9489C24.101 13.4726 24.0605 12.7734 23.7564 12.4795C23.5132 12.2262 23.4524 12.2059 23.2294 12.2971Z"/>
</mask>
<path d="M23.2294 12.2971C23.0166 12.3782 23.0774 12.6112 23.3308 12.6518C23.6652 12.7024 23.6855 13.0673 23.351 13.2193C23.1585 13.3105 23.0977 13.4118 23.0977 13.6753C23.0977 14.2934 23.5841 14.4657 23.8578 13.9489C24.101 13.4726 24.0605 12.7734 23.7564 12.4795C23.5132 12.2262 23.4524 12.2059 23.2294 12.2971Z" fill="#095FBA"/>
<path d="M23.2294 12.2971L23.608 13.2227L23.5967 13.2273L23.5854 13.2316L23.2294 12.2971ZM23.3308 12.6518L23.181 13.6405L23.1728 13.6392L23.3308 12.6518ZM23.351 13.2193L22.923 12.3155L22.9301 12.3121L22.9373 12.3089L23.351 13.2193ZM23.8578 13.9489L24.7484 14.4037L24.745 14.4103L24.7416 14.4168L23.8578 13.9489ZM23.7564 12.4795L23.0615 13.1985L23.048 13.1856L23.0351 13.1721L23.7564 12.4795ZM23.5854 13.2316C23.6934 13.1905 23.8587 13.0938 23.978 12.8944C24.1024 12.6864 24.1294 12.4417 24.0692 12.2237C23.9532 11.8032 23.6135 11.6843 23.4887 11.6643L23.1728 13.6392C22.7946 13.5787 22.2978 13.323 22.1413 12.7556C22.0608 12.4641 22.0967 12.1434 22.2617 11.8676C22.4215 11.6005 22.659 11.4443 22.8735 11.3626L23.5854 13.2316ZM23.4806 11.6631C24.0261 11.7457 24.5611 12.1707 24.5908 12.8541C24.618 13.4785 24.2026 13.9307 23.7648 14.1297L22.9373 12.3089C22.8339 12.3559 22.5757 12.5496 22.5927 12.941C22.601 13.1314 22.6809 13.3135 22.815 13.4476C22.9464 13.579 23.09 13.6267 23.181 13.6405L23.4806 11.6631ZM23.7791 14.123C23.7697 14.1275 23.9177 14.061 24.0233 13.8737C24.1129 13.7147 24.0977 13.5939 24.0977 13.6753H22.0977C22.0977 13.4932 22.1128 13.19 22.281 12.8916C22.4651 12.565 22.7398 12.4023 22.923 12.3155L23.7791 14.123ZM24.0977 13.6753C24.0977 13.7932 24.1347 13.4473 23.7119 13.2961C23.4923 13.2176 23.2794 13.2581 23.1367 13.3376C23.009 13.4088 22.9697 13.4892 22.974 13.481L24.7416 14.4168C24.495 14.8824 23.8728 15.4778 23.0383 15.1793C22.3039 14.9166 22.0977 14.1756 22.0977 13.6753H24.0977ZM22.9672 13.4941C22.9789 13.4712 22.994 13.4314 23.0044 13.3758C23.0147 13.3208 23.0179 13.2632 23.0145 13.2111C23.011 13.1576 23.0016 13.1258 22.9981 13.1164C22.9937 13.1045 23.0054 13.1443 23.0615 13.1985L24.4514 11.7605C24.8525 12.1481 24.984 12.6803 25.0102 13.0805C25.038 13.5051 24.9632 13.9831 24.7484 14.4037L22.9672 13.4941ZM23.0351 13.1721C22.9778 13.1123 22.9608 13.098 22.9633 13.1C22.9664 13.1026 23.0359 13.1619 23.1594 13.2045C23.3042 13.2544 23.4407 13.2541 23.5397 13.2373C23.6122 13.2249 23.6506 13.2053 23.608 13.2227L22.8508 11.3715C22.9673 11.3239 23.3547 11.1563 23.8113 11.3137C24.0082 11.3816 24.1525 11.4878 24.2424 11.5626C24.3316 11.6368 24.4135 11.72 24.4778 11.7869L23.0351 13.1721Z" fill="#095FBA" mask="url(#path-11-inside-5_978_5353)"/>
<path d="M25.7688 36.9509C26.1739 37.1009 26.6309 37.0745 27.457 36.6709C27.2767 36.6919 27.0974 36.7068 26.922 36.7155C26.3651 36.7432 25.8087 36.7102 25.3775 36.5831C25.4473 36.7577 25.5802 36.8771 25.7688 36.9509ZM24.9115 36.4601C24.911 36.4601 24.9107 36.46 24.9103 36.46L24.9115 36.4601Z" fill="#095FBA" stroke="#095FBA"/>
<path d="M26.1145 38.7542C26.1798 38.7765 26.2176 38.7788 26.2442 38.7767C26.2721 38.7746 26.3193 38.765 26.3995 38.7221C26.4746 38.6819 26.5626 38.6218 26.6714 38.5342C26.4376 38.5874 26.1984 38.6243 25.9762 38.6325C25.9994 38.6576 26.0222 38.6802 26.0439 38.6997C26.0903 38.7414 26.1148 38.7537 26.1146 38.7542L26.1145 38.7542Z" fill="#095FBA" stroke="#095FBA"/>
<path d="M39.1306 39.1529C38.4888 39.096 37.8013 38.8575 37.1042 38.4654C37.5822 39.0396 38.1248 39.3146 38.5315 39.3542C38.745 39.375 38.9055 39.3314 39.0175 39.257C39.0571 39.2306 39.0963 39.1968 39.1328 39.1531L39.1306 39.1529Z" fill="#095FBA" stroke="#095FBA"/>
<path d="M37.7501 40.8356C37.559 40.7472 37.3597 40.6279 37.166 40.4916C37.2956 40.6835 37.391 40.7913 37.4645 40.8517C37.533 40.908 37.5698 40.9141 37.6107 40.9141C37.6106 40.9141 37.6106 40.9141 37.6107 40.9141C37.6117 40.914 37.6231 40.9136 37.6465 40.9087C37.6707 40.9037 37.7016 40.8953 37.7383 40.8826C37.7587 40.8755 37.7798 40.8675 37.8014 40.8586C37.784 40.851 37.7669 40.8433 37.7501 40.8356ZM38.3997 41.0022C38.4028 41.0027 38.4045 41.0028 38.4046 41.0027C38.4046 41.0026 38.4031 41.0024 38.3997 41.0022Z" fill="#095FBA" stroke="#095FBA"/>
</svg>
