<svg width="182" height="58" viewBox="0 0 182 58" fill="none" xmlns="http://www.w3.org/2000/svg">
<rect width="182" height="58" rx="5" fill="black"/>
<path d="M68.6328 27.75H66.5312V35H64.6953V27.75H63.2812V26.8672L64.6953 26.3281V25.7266C64.6953 24.9922 64.8099 24.4089 65.0391 23.9766C65.2734 23.5443 65.6068 23.2344 66.0391 23.0469C66.4766 22.8542 66.9974 22.7578 67.6016 22.7578C67.9974 22.7578 68.3594 22.7917 68.6875 22.8594C69.0156 22.9219 69.2917 22.9948 69.5156 23.0781L69.0391 24.4688C68.862 24.4115 68.6641 24.3594 68.4453 24.3125C68.2266 24.2604 67.9922 24.2344 67.7422 24.2344C67.3255 24.2344 67.0182 24.3646 66.8203 24.625C66.6276 24.8854 66.5312 25.2656 66.5312 25.7656V26.3516H68.6328V27.75ZM77.7656 30.6562C77.7656 31.375 77.6719 32.013 77.4844 32.5703C77.2969 33.1276 77.0234 33.599 76.6641 33.9844C76.3047 34.3646 75.8724 34.6562 75.3672 34.8594C74.862 35.0573 74.2917 35.1562 73.6562 35.1562C73.0625 35.1562 72.5182 35.0573 72.0234 34.8594C71.5286 34.6562 71.099 34.3646 70.7344 33.9844C70.375 33.599 70.0964 33.1276 69.8984 32.5703C69.7005 32.013 69.6016 31.375 69.6016 30.6562C69.6016 29.7031 69.7656 28.8958 70.0938 28.2344C70.4271 27.5677 70.901 27.0599 71.5156 26.7109C72.1302 26.362 72.862 26.1875 73.7109 26.1875C74.5078 26.1875 75.2109 26.362 75.8203 26.7109C76.4297 27.0599 76.9062 27.5677 77.25 28.2344C77.5938 28.901 77.7656 29.7083 77.7656 30.6562ZM71.4922 30.6562C71.4922 31.2865 71.5677 31.8255 71.7188 32.2734C71.875 32.7214 72.1146 33.0651 72.4375 33.3047C72.7604 33.5391 73.1771 33.6562 73.6875 33.6562C74.1979 33.6562 74.6146 33.5391 74.9375 33.3047C75.2604 33.0651 75.4974 32.7214 75.6484 32.2734C75.7995 31.8255 75.875 31.2865 75.875 30.6562C75.875 30.026 75.7995 29.4922 75.6484 29.0547C75.4974 28.612 75.2604 28.276 74.9375 28.0469C74.6146 27.8125 74.1953 27.6953 73.6797 27.6953C72.9193 27.6953 72.3646 27.9505 72.0156 28.4609C71.6667 28.9714 71.4922 29.7031 71.4922 30.6562ZM84.2578 26.1875C84.4036 26.1875 84.5625 26.1953 84.7344 26.2109C84.9062 26.2266 85.0547 26.2474 85.1797 26.2734L85.0078 27.9922C84.8984 27.9609 84.763 27.9375 84.6016 27.9219C84.4453 27.9062 84.3047 27.8984 84.1797 27.8984C83.8516 27.8984 83.5391 27.9531 83.2422 28.0625C82.9453 28.1667 82.6823 28.3281 82.4531 28.5469C82.224 28.7604 82.0443 29.0286 81.9141 29.3516C81.7839 29.6745 81.7188 30.0495 81.7188 30.4766V35H79.875V26.3516H81.3125L81.5625 27.875H81.6484C81.8203 27.5677 82.0339 27.2865 82.2891 27.0312C82.5443 26.776 82.8359 26.5729 83.1641 26.4219C83.4974 26.2656 83.862 26.1875 84.2578 26.1875ZM104.633 23.5781L101.648 35H99.6016L97.6953 28.1562C97.6484 27.9896 97.5964 27.7917 97.5391 27.5625C97.4818 27.3333 97.4245 27.099 97.3672 26.8594C97.3151 26.6198 97.2682 26.401 97.2266 26.2031C97.1901 26 97.1641 25.8438 97.1484 25.7344C97.138 25.8438 97.1146 25.9974 97.0781 26.1953C97.0417 26.3932 96.9974 26.612 96.9453 26.8516C96.8984 27.0859 96.8464 27.3203 96.7891 27.5547C96.7318 27.7839 96.6797 27.987 96.6328 28.1641L94.7578 35H92.7188L89.7422 23.5781H91.625L93.2734 30.2734C93.3255 30.487 93.3776 30.7188 93.4297 30.9688C93.487 31.2135 93.5391 31.4609 93.5859 31.7109C93.638 31.9609 93.6849 32.2057 93.7266 32.4453C93.7682 32.6797 93.8021 32.8932 93.8281 33.0859C93.8542 32.888 93.888 32.6693 93.9297 32.4297C93.9714 32.1849 94.0156 31.9375 94.0625 31.6875C94.1146 31.4323 94.1667 31.1875 94.2188 30.9531C94.276 30.7188 94.3333 30.5078 94.3906 30.3203L96.25 23.5781H98.0781L99.9766 30.3438C100.034 30.5365 100.089 30.7526 100.141 30.9922C100.198 31.2318 100.253 31.4766 100.305 31.7266C100.357 31.9766 100.404 32.2188 100.445 32.4531C100.487 32.6875 100.521 32.8984 100.547 33.0859C100.583 32.8307 100.63 32.5391 100.688 32.2109C100.745 31.8828 100.81 31.5495 100.883 31.2109C100.956 30.8724 101.029 30.5599 101.102 30.2734L102.742 23.5781H104.633ZM107.898 26.3516V35H106.062V26.3516H107.898ZM106.992 23.0391C107.273 23.0391 107.516 23.1146 107.719 23.2656C107.927 23.4167 108.031 23.6771 108.031 24.0469C108.031 24.4115 107.927 24.6719 107.719 24.8281C107.516 24.9792 107.273 25.0547 106.992 25.0547C106.701 25.0547 106.453 24.9792 106.25 24.8281C106.052 24.6719 105.953 24.4115 105.953 24.0469C105.953 23.6771 106.052 23.4167 106.25 23.2656C106.453 23.1146 106.701 23.0391 106.992 23.0391ZM115.039 26.1875C116.013 26.1875 116.771 26.4401 117.312 26.9453C117.859 27.4453 118.133 28.25 118.133 29.3594V35H116.297V29.7031C116.297 29.0312 116.159 28.5286 115.883 28.1953C115.607 27.8568 115.18 27.6875 114.602 27.6875C113.763 27.6875 113.18 27.9453 112.852 28.4609C112.529 28.9766 112.367 29.724 112.367 30.7031V35H110.531V26.3516H111.961L112.219 27.5234H112.32C112.508 27.2214 112.74 26.974 113.016 26.7812C113.297 26.5833 113.609 26.4349 113.953 26.3359C114.302 26.237 114.664 26.1875 115.039 26.1875ZM123.609 35.1562C122.578 35.1562 121.75 34.7812 121.125 34.0312C120.505 33.276 120.195 32.1641 120.195 30.6953C120.195 29.2109 120.51 28.0885 121.141 27.3281C121.776 26.5677 122.612 26.1875 123.648 26.1875C124.086 26.1875 124.469 26.2474 124.797 26.3672C125.125 26.4818 125.406 26.638 125.641 26.8359C125.88 27.0339 126.083 27.2552 126.25 27.5H126.336C126.31 27.3385 126.279 27.1068 126.242 26.8047C126.211 26.4974 126.195 26.2135 126.195 25.9531V22.8438H128.039V35H126.602L126.273 33.8203H126.195C126.039 34.0703 125.841 34.2969 125.602 34.5C125.367 34.6979 125.086 34.8568 124.758 34.9766C124.435 35.0964 124.052 35.1562 123.609 35.1562ZM124.125 33.6641C124.911 33.6641 125.466 33.4375 125.789 32.9844C126.112 32.5312 126.279 31.8516 126.289 30.9453V30.7031C126.289 29.7344 126.133 28.9922 125.82 28.4766C125.508 27.9557 124.938 27.6953 124.109 27.6953C123.448 27.6953 122.943 27.9635 122.594 28.5C122.25 29.0312 122.078 29.7734 122.078 30.7266C122.078 31.6797 122.25 32.4089 122.594 32.9141C122.943 33.4141 123.453 33.6641 124.125 33.6641ZM138.328 30.6562C138.328 31.375 138.234 32.013 138.047 32.5703C137.859 33.1276 137.586 33.599 137.227 33.9844C136.867 34.3646 136.435 34.6562 135.93 34.8594C135.424 35.0573 134.854 35.1562 134.219 35.1562C133.625 35.1562 133.081 35.0573 132.586 34.8594C132.091 34.6562 131.661 34.3646 131.297 33.9844C130.938 33.599 130.659 33.1276 130.461 32.5703C130.263 32.013 130.164 31.375 130.164 30.6562C130.164 29.7031 130.328 28.8958 130.656 28.2344C130.99 27.5677 131.464 27.0599 132.078 26.7109C132.693 26.362 133.424 26.1875 134.273 26.1875C135.07 26.1875 135.773 26.362 136.383 26.7109C136.992 27.0599 137.469 27.5677 137.812 28.2344C138.156 28.901 138.328 29.7083 138.328 30.6562ZM132.055 30.6562C132.055 31.2865 132.13 31.8255 132.281 32.2734C132.438 32.7214 132.677 33.0651 133 33.3047C133.323 33.5391 133.74 33.6562 134.25 33.6562C134.76 33.6562 135.177 33.5391 135.5 33.3047C135.823 33.0651 136.06 32.7214 136.211 32.2734C136.362 31.8255 136.438 31.2865 136.438 30.6562C136.438 30.026 136.362 29.4922 136.211 29.0547C136.06 28.612 135.823 28.276 135.5 28.0469C135.177 27.8125 134.758 27.6953 134.242 27.6953C133.482 27.6953 132.927 27.9505 132.578 28.4609C132.229 28.9714 132.055 29.7031 132.055 30.6562ZM147.508 34.9922L146.414 30.9688C146.362 30.7708 146.299 30.5312 146.227 30.25C146.154 29.9688 146.081 29.6797 146.008 29.3828C145.935 29.0807 145.867 28.8021 145.805 28.5469C145.747 28.2917 145.703 28.0938 145.672 27.9531H145.609C145.583 28.0938 145.542 28.2917 145.484 28.5469C145.427 28.8021 145.362 29.0807 145.289 29.3828C145.216 29.6849 145.143 29.9792 145.07 30.2656C145.003 30.5521 144.94 30.7969 144.883 31L143.734 34.9922H141.719L139.297 26.3438H141.156L142.281 30.6406C142.354 30.9323 142.424 31.2474 142.492 31.5859C142.565 31.9245 142.628 32.2474 142.68 32.5547C142.732 32.862 142.771 33.1146 142.797 33.3125H142.859C142.88 33.1719 142.909 32.9948 142.945 32.7812C142.982 32.5625 143.023 32.3359 143.07 32.1016C143.117 31.862 143.164 31.638 143.211 31.4297C143.258 31.2161 143.302 31.0443 143.344 30.9141L144.672 26.3438H146.68L147.953 30.9141C148.01 31.112 148.073 31.362 148.141 31.6641C148.208 31.9609 148.268 32.2604 148.32 32.5625C148.378 32.8594 148.414 33.1068 148.43 33.3047H148.492C148.513 33.1276 148.549 32.888 148.602 32.5859C148.659 32.2786 148.724 31.9531 148.797 31.6094C148.87 31.2604 148.945 30.9375 149.023 30.6406L150.172 26.3438H152L149.562 34.9922H147.508ZM159.297 32.5312C159.297 33.099 159.159 33.5781 158.883 33.9688C158.607 34.3594 158.203 34.6562 157.672 34.8594C157.146 35.0573 156.5 35.1562 155.734 35.1562C155.13 35.1562 154.609 35.112 154.172 35.0234C153.74 34.9401 153.331 34.8099 152.945 34.6328V33.0469C153.357 33.2396 153.818 33.4062 154.328 33.5469C154.844 33.6875 155.331 33.7578 155.789 33.7578C156.393 33.7578 156.828 33.6641 157.094 33.4766C157.359 33.2839 157.492 33.0286 157.492 32.7109C157.492 32.5234 157.438 32.3568 157.328 32.2109C157.224 32.0599 157.026 31.9062 156.734 31.75C156.448 31.5885 156.026 31.3958 155.469 31.1719C154.922 30.9531 154.461 30.7344 154.086 30.5156C153.711 30.2969 153.427 30.0339 153.234 29.7266C153.042 29.4141 152.945 29.0156 152.945 28.5312C152.945 27.7656 153.247 27.1849 153.852 26.7891C154.461 26.388 155.266 26.1875 156.266 26.1875C156.797 26.1875 157.297 26.2422 157.766 26.3516C158.24 26.4557 158.703 26.6094 159.156 26.8125L158.578 28.1953C158.188 28.0234 157.794 27.8828 157.398 27.7734C157.008 27.6589 156.609 27.6016 156.203 27.6016C155.729 27.6016 155.367 27.6745 155.117 27.8203C154.872 27.9661 154.75 28.1745 154.75 28.4453C154.75 28.6484 154.81 28.8203 154.93 28.9609C155.049 29.1016 155.255 29.2422 155.547 29.3828C155.844 29.5234 156.255 29.6979 156.781 29.9062C157.297 30.1042 157.742 30.3125 158.117 30.5312C158.497 30.7448 158.789 31.0078 158.992 31.3203C159.195 31.6328 159.297 32.0365 159.297 32.5312Z" fill="white"/>
<rect x="23" y="14" width="13.8462" height="13.8462" fill="white"/>
<rect x="39.1538" y="14" width="13.8462" height="13.8462" fill="white"/>
<rect x="23" y="30.1538" width="13.8462" height="13.8462" fill="white"/>
<rect x="39.1538" y="30.1538" width="13.8462" height="13.8462" fill="white"/>
</svg>
