<svg width="14" height="14" viewBox="0 0 14 14" fill="none" xmlns="http://www.w3.org/2000/svg">
<path d="M6.31641 2.84648C4.07969 3.0707 2.03164 4.26562 0.360938 6.32461C0.0246094 6.7375 0 6.78672 0 7.0082C0 7.21602 0.0410156 7.28711 0.421094 7.74922C2.24492 9.9668 4.57461 11.1836 7 11.1836C9.45547 11.1836 11.7934 9.94766 13.6391 7.67539C13.9754 7.2625 14 7.21328 14 6.9918C14 6.78398 13.959 6.71289 13.5789 6.25078C11.7387 4.01133 9.38984 2.79727 6.94805 2.81914C6.7293 2.82188 6.44492 2.83281 6.31641 2.84648ZM7.61797 4.13984C8.5832 4.34766 9.39258 5.05586 9.74805 5.99922C9.87656 6.34102 9.90938 6.54063 9.90664 7.01367C9.90664 7.39922 9.89844 7.48398 9.83555 7.71641C9.55937 8.75273 8.75273 9.55938 7.71641 9.83555C7.48398 9.89844 7.39922 9.90664 7.01367 9.90664C6.54063 9.90938 6.34102 9.87656 5.99922 9.74805C5.05586 9.39258 4.36133 8.59687 4.13711 7.61797C4.06602 7.30898 4.07422 6.6418 4.15078 6.33555C4.44336 5.1707 5.3293 4.33945 6.51875 4.1125C6.76211 4.06602 7.35 4.07969 7.61797 4.13984Z" fill="#717B9E"/>
<path d="M6.52148 5.47969C6.23984 5.57266 6.07852 5.67383 5.86523 5.89258C5.55625 6.2043 5.41406 6.5543 5.41406 7C5.41406 7.45938 5.55625 7.80391 5.87617 8.12383C6.19609 8.44375 6.54062 8.58594 7 8.58594C7.4457 8.58594 7.7957 8.44375 8.10742 8.13477C8.44102 7.80664 8.58594 7.46484 8.58594 7.00273C8.58594 6.85508 8.5668 6.66914 8.54492 6.58164C8.40547 6.0457 7.9543 5.59453 7.41836 5.45508C7.17227 5.39219 6.75391 5.40313 6.52148 5.47969Z" fill="#717B9E"/>
</svg>
