<svg width="24" height="24" viewBox="0 0 24 24" fill="none" xmlns="http://www.w3.org/2000/svg">
<path d="M11.5595 1.82801C11.1329 1.87957 10.6923 2.02488 10.2985 2.24051C9.94698 2.43269 3.34698 7.62176 2.97667 7.99207C2.47511 8.49832 2.12355 9.22488 2.01573 9.96082C1.97823 10.228 1.96886 11.6108 1.97823 14.7186C1.99698 19.6593 1.96886 19.2796 2.37667 20.1093C2.55948 20.4843 2.66261 20.6202 3.01886 20.9811C3.3798 21.3374 3.51574 21.4405 3.89074 21.6233C4.73917 22.0405 4.03136 22.0077 12.0001 22.0077C19.9689 22.0077 19.261 22.0405 20.1095 21.6233C20.4845 21.4405 20.6204 21.3374 20.9814 20.9811C21.3376 20.6202 21.4407 20.4843 21.6235 20.1093C22.0314 19.2796 22.0032 19.6593 22.022 14.7186C22.0314 11.6108 22.022 10.228 21.9845 9.96082C21.8767 9.22488 21.5251 8.49832 21.0235 7.99207C20.897 7.86082 19.2657 6.55301 17.4048 5.08582C14.6345 2.89676 13.9454 2.37644 13.5939 2.19363C12.9657 1.87488 12.2579 1.74832 11.5595 1.82801ZM12.6048 2.92957C12.7407 2.96238 12.961 3.04676 13.097 3.11238C13.3642 3.24363 19.7907 8.28738 20.2267 8.70926C20.5314 9.00457 20.7564 9.37488 20.8923 9.82019C20.972 10.0827 20.9767 10.3639 20.9767 14.4843V18.8671L20.8735 19.1952C20.6251 19.9874 19.9876 20.6249 19.1954 20.8733L18.8673 20.9764H12.0001H5.13292L4.8048 20.8733C4.0173 20.6249 3.42667 20.0389 3.13136 19.2186L3.02355 18.9139V14.5077C3.02355 10.3639 3.02823 10.0827 3.10792 9.82019C3.2298 9.43582 3.3798 9.14988 3.61886 8.86863C3.87199 8.56394 10.5657 3.28113 10.9079 3.11238C11.0392 3.04676 11.2501 2.96238 11.3767 2.92957C11.6814 2.84519 12.2954 2.84519 12.6048 2.92957Z" fill="black"/>
<path d="M9.225 17.5591C9.05625 17.6481 9 17.7606 9 17.9997C9 18.2435 9.06094 18.356 9.23438 18.445C9.44063 18.5528 14.5594 18.5528 14.7656 18.445C14.9391 18.356 15 18.2435 15 17.9997C15 17.756 14.9391 17.6435 14.7656 17.5544C14.5641 17.4513 9.41719 17.4513 9.225 17.5591Z" fill="black"/>
</svg>
