<svg width="18" height="18" viewBox="0 0 18 18" fill="none" xmlns="http://www.w3.org/2000/svg">
<path d="M7.34054 0.0667967C6.83077 0.232031 6.39483 0.678515 6.24366 1.1918C6.20499 1.32187 6.18741 1.52578 6.18741 1.81406V2.24648L4.44015 2.25703L2.68937 2.26758L2.47843 2.36953C2.20772 2.50312 1.94054 2.77031 1.80694 3.04102L1.70499 3.25195L1.69444 4.11328C1.68741 4.92539 1.69093 4.98164 1.75772 5.09062C1.7964 5.15391 1.87726 5.23477 1.94054 5.27344C2.05655 5.34375 2.1339 5.34375 8.99991 5.34375C15.8659 5.34375 15.9433 5.34375 16.0593 5.27344C16.1226 5.23477 16.2034 5.15391 16.2421 5.09062C16.3089 4.98164 16.3124 4.92539 16.3054 4.11328L16.2948 3.25195L16.1929 3.04102C16.0593 2.77031 15.7921 2.50312 15.5214 2.36953L15.3105 2.26758L13.5632 2.25703L11.8124 2.24648V1.81406C11.8124 1.48359 11.7948 1.32539 11.7456 1.16367C11.5839 0.646875 11.1409 0.207422 10.6206 0.0562498C10.4589 0.00703104 10.2023 -2.12342e-07 8.98585 0.00351541C7.68507 0.00351541 7.51983 0.0105467 7.34054 0.0667967ZM10.2093 1.16016C10.5398 1.23398 10.6558 1.42383 10.6804 1.90195L10.698 2.25H8.99991H7.30186L7.31944 1.90195C7.34405 1.43086 7.46358 1.23398 7.77296 1.16016C7.93819 1.12148 10.0405 1.11797 10.2093 1.16016Z" fill="#FF0505" fill-opacity="0.7"/>
<path d="M2.60145 6.52144C2.56629 6.56363 2.60145 7.53394 2.79129 11.5242C2.92137 14.2453 3.04442 16.5585 3.06551 16.664C3.18153 17.2546 3.61044 17.7328 4.19403 17.9261C4.41551 18 4.42254 18 9.07372 17.9929L13.7319 17.9824L14.0061 17.8453C14.4983 17.6062 14.8393 17.1703 14.9378 16.664C14.9589 16.5585 15.0784 14.2453 15.2085 11.5242C15.3983 7.53042 15.4335 6.56363 15.3983 6.52144C15.3597 6.47574 14.6354 6.4687 8.99989 6.4687C3.37137 6.4687 2.64012 6.47574 2.60145 6.52144ZM6.46864 7.42847C6.53544 7.47066 6.61981 7.56206 6.65848 7.62886C6.73231 7.75191 6.73231 7.78355 6.73231 11.5312C6.73231 15.2789 6.73231 15.3105 6.65848 15.4335C6.437 15.8097 5.93778 15.8097 5.71629 15.4335C5.64247 15.3105 5.64247 15.2789 5.64247 11.5312C5.64247 7.78355 5.64247 7.75191 5.71629 7.62886C5.82176 7.44956 5.99051 7.34761 6.18739 7.34761C6.29989 7.34761 6.39129 7.37222 6.46864 7.42847ZM9.28114 7.42847C9.34794 7.47066 9.43231 7.56206 9.47098 7.62886C9.54481 7.75191 9.54481 7.78355 9.54481 11.5312C9.54481 15.2789 9.54481 15.3105 9.47098 15.4335C9.2495 15.8097 8.75028 15.8097 8.52879 15.4335C8.45497 15.3105 8.45497 15.2789 8.45497 11.5312C8.45497 7.78355 8.45497 7.75191 8.52879 7.62886C8.63426 7.44956 8.80301 7.34761 8.99989 7.34761C9.11239 7.34761 9.20379 7.37222 9.28114 7.42847ZM12.0936 7.42847C12.1604 7.47066 12.2448 7.56206 12.2835 7.62886C12.3573 7.75191 12.3573 7.78355 12.3573 11.5312C12.3573 15.2789 12.3573 15.3105 12.2835 15.4335C12.062 15.8097 11.5628 15.8097 11.3413 15.4335C11.2675 15.3105 11.2675 15.2789 11.2675 11.5312C11.2675 7.78355 11.2675 7.75191 11.3413 7.62886C11.4468 7.44956 11.6155 7.34761 11.8124 7.34761C11.9249 7.34761 12.0163 7.37222 12.0936 7.42847Z" fill="#FF0505" fill-opacity="0.7"/>
</svg>
