<svg width="18" height="18" viewBox="0 0 18 18" fill="none" xmlns="http://www.w3.org/2000/svg">
<g clip-path="url(#clip0_33_3008)">
<path d="M15.5391 0.116016C15.1523 0.246094 14.9801 0.376172 14.3438 1.00547L13.7285 1.61719L15.075 2.96016L16.4215 4.30664L17.0438 3.67383C17.6977 3.01289 17.8242 2.83359 17.9438 2.4293C18.0141 2.19023 18.0176 1.66641 17.9473 1.40977C17.782 0.783984 17.2055 0.214453 16.5938 0.0738282C16.309 0.00703136 15.7957 0.0281251 15.5391 0.116016Z" fill="#F78537" fill-opacity="0.8"/>
<path d="M9.93864 5.407C8.28278 7.06285 6.92575 8.43043 6.92575 8.43746C6.92575 8.44801 6.79919 9.09137 6.6445 9.86129C6.47927 10.6839 6.37028 11.3062 6.38083 11.3625C6.40896 11.482 6.54958 11.6226 6.67263 11.6472C6.757 11.6648 9.27771 11.1902 9.54489 11.1093C9.61521 11.0847 10.6453 10.0793 12.6562 8.06832L15.6621 5.06246L14.3261 3.72653C13.5914 2.99176 12.9832 2.39059 12.9726 2.39059C12.9621 2.39059 11.598 3.74762 9.93864 5.407Z" fill="#F78537" fill-opacity="0.8"/>
<path d="M1.70496 3.07959C1.08269 3.23077 0.51316 3.69131 0.228394 4.27139C-0.014184 4.76358 -0.000121478 4.34522 -0.000121478 10.5398C-0.000121478 16.8081 -0.0212152 16.323 0.256519 16.8573C0.470972 17.2722 0.801441 17.5886 1.24793 17.8101L1.59246 17.9823L7.43191 17.9929C13.2432 17.9999 13.2678 17.9999 13.4858 17.9296C14.203 17.6905 14.8042 17.019 14.9589 16.2843C15.001 16.0909 15.0116 15.4862 15.0116 12.8284V9.61163L14.9202 9.4253C14.7866 9.16163 14.6178 9.05616 14.2909 9.0421C14.0237 9.02803 13.8831 9.07022 13.7178 9.22491C13.5069 9.41475 13.5175 9.21436 13.4999 12.7265C13.4823 15.7675 13.4788 15.9503 13.4155 16.0733C13.3276 16.2526 13.1096 16.4425 12.9444 16.4882C12.846 16.5128 11.1514 16.5198 7.42839 16.5163L2.05652 16.5058L1.89128 16.4073C1.7823 16.344 1.69089 16.2526 1.62761 16.1437L1.52918 15.9784L1.51863 10.6065C1.5116 6.76397 1.52214 5.18897 1.55027 5.08702C1.60652 4.86553 1.87371 4.62295 2.10574 4.57374C2.2323 4.54561 3.25183 4.53506 5.37527 4.53506H8.46199L8.61667 4.4542C8.70105 4.4085 8.82058 4.30303 8.87683 4.22217C8.97175 4.08506 8.9823 4.04639 8.9823 3.78272C8.9823 3.51905 8.97175 3.47686 8.88035 3.34678C8.81706 3.25538 8.71511 3.16749 8.60261 3.11124L8.42331 3.02334L5.17136 3.02686C2.4573 3.03038 1.88074 3.03741 1.70496 3.07959Z" fill="#F78537" fill-opacity="0.8"/>
</g>
<defs>
<clipPath id="clip0_33_3008">
<rect width="18" height="18" fill="white"/>
</clipPath>
</defs>
</svg>
