<svg width="24" height="24" viewBox="0 0 24 24" fill="none" xmlns="http://www.w3.org/2000/svg">
<g clip-path="url(#clip0_98_1726)">
<path d="M10.9217 0.0326818C6.42641 0.524869 2.59204 3.31393 0.899852 7.31237C0.487352 8.29674 0.19204 9.42174 0.0654771 10.528C-0.0423354 11.4749 -0.00483537 13.2983 0.140477 14.1092C1.04048 19.1671 5.35298 23.2921 10.4014 23.9296C11.1889 24.0327 13.0639 24.0046 13.8045 23.8874C16.0264 23.5264 17.9202 22.678 19.6405 21.2764C20.1842 20.8311 20.2967 20.6577 20.2967 20.2405C20.2967 19.6499 19.8983 19.2842 19.2936 19.3217C18.9608 19.3405 18.8858 19.3827 18.3467 19.8421C17.6014 20.4749 16.4811 21.1217 15.492 21.4921C13.842 22.1061 11.9577 22.2467 10.1483 21.8858C8.52173 21.5624 6.93266 20.8217 5.62485 19.7811C5.17016 19.4202 4.24673 18.4874 3.92798 18.0702C2.88735 16.7014 2.22173 15.0936 1.99204 13.3827C1.87954 12.553 1.91235 10.8983 2.05766 10.1389C2.56391 7.45768 4.07329 5.21237 6.41235 3.64206C6.92798 3.29518 8.03423 2.74206 8.65766 2.52174C10.4811 1.86549 12.6186 1.73893 14.4139 2.17487C15.8577 2.53112 17.278 3.25299 18.4217 4.21862C18.8905 4.61237 19.0358 4.68737 19.3686 4.68737C19.7108 4.68737 19.992 4.54206 20.1608 4.27487C20.2733 4.09674 20.2967 4.00768 20.2967 3.76393C20.2967 3.34206 20.1983 3.17799 19.678 2.74674C17.8686 1.24674 15.8764 0.374869 13.5795 0.0701818C13.0686 0.00455685 11.3952 -0.0188807 10.9217 0.0326818Z" fill="#095FBA"/>
<path d="M18.8577 6.87176C18.5671 7.04519 18.4218 7.31707 18.4218 7.69207C18.4218 7.92176 18.4452 8.03426 18.5296 8.16082C18.5859 8.25457 19.3734 9.05144 20.2827 9.93269C21.2015 10.828 21.9609 11.6014 22.0031 11.6905C22.0968 11.8827 22.1015 12.2296 22.0171 12.4358C21.9796 12.5249 21.2671 13.2561 20.2921 14.2218C19.3781 15.1171 18.5859 15.928 18.5296 16.0264C18.2952 16.4014 18.4359 17.0389 18.8109 17.2874C19.0781 17.4655 19.5374 17.4889 19.814 17.3343C19.9218 17.2733 20.7984 16.4436 21.7593 15.4921C23.3952 13.8749 23.5265 13.7343 23.6859 13.4061C23.9249 12.928 23.9999 12.6186 23.9999 12.0936C23.9999 11.3718 23.7937 10.7764 23.3812 10.2843C23.0624 9.91394 20.0249 6.97488 19.8374 6.85769C19.5843 6.70301 19.1249 6.70769 18.8577 6.87176Z" fill="#095FBA"/>
<path d="M6.21074 11.1422C5.8498 11.3297 5.69511 11.6344 5.72793 12.0891C5.75136 12.4453 5.9248 12.7219 6.20136 12.8484C6.39355 12.9328 6.61855 12.9375 13.0264 12.9375H19.6545L19.8561 12.8203C20.4607 12.4641 20.4607 11.5359 19.8561 11.1797L19.6545 11.0625H13.0029C7.03105 11.0672 6.3373 11.0719 6.21074 11.1422Z" fill="#095FBA"/>
</g>
<defs>
<clipPath id="clip0_98_1726">
<rect width="24" height="24" fill="white"/>
</clipPath>
</defs>
</svg>
